<?xml version="1.0" encoding="UTF-8"?>
<!DOCTYPE svg PUBLIC "-//W3C//DTD SVG 1.1//EN" "http://www.w3.org/Graphics/SVG/1.1/DTD/svg11.dtd">
<svg xmlns="http://www.w3.org/2000/svg" version="1.1" width="2550px" height="2550px" style="shape-rendering:geometricPrecision; text-rendering:geometricPrecision; image-rendering:optimizeQuality; fill-rule:evenodd; clip-rule:evenodd" xmlns:xlink="http://www.w3.org/1999/xlink">
<g><path style="opacity:0.782" fill="#000000" d="M 1418.5,863.5 C 1441.54,863.053 1464.54,863.553 1487.5,865C 1493.64,866.601 1499.64,868.601 1505.5,871C 1526.48,881.156 1547.15,891.823 1567.5,903C 1588.34,911.725 1609.34,920.058 1630.5,928C 1659.65,935.729 1689.32,938.729 1719.5,937C 1734.95,937.778 1749.95,940.778 1764.5,946C 1780.72,953.275 1797.05,960.275 1813.5,967C 1845.62,969.632 1877.29,974.965 1908.5,983C 1914.49,984.552 1920.16,986.885 1925.5,990C 1933.65,996.907 1941.98,1003.57 1950.5,1010C 1961.34,1016.25 1972.34,1022.25 1983.5,1028C 2009.13,1036.16 2034.8,1044.16 2060.5,1052C 2068.5,1058.67 2076.5,1065.33 2084.5,1072C 2090.1,1077.59 2094.93,1083.76 2099,1090.5C 2107.26,1108.02 2115.26,1125.68 2123,1143.5C 2125.55,1154.78 2127.88,1166.11 2130,1177.5C 2133,1184.83 2136,1192.17 2139,1199.5C 2141.54,1202.37 2144.37,1204.87 2147.5,1207C 2158.83,1213.67 2170.17,1220.33 2181.5,1227C 2185.52,1230.01 2188.35,1233.84 2190,1238.5C 2190.33,1256.83 2190.67,1275.17 2191,1293.5C 2191.67,1296.83 2192.33,1300.17 2193,1303.5C 2197.18,1313.62 2201.35,1323.62 2205.5,1333.5C 2217.2,1333.27 2228.87,1333.77 2240.5,1335C 2263.46,1340.82 2286.46,1346.49 2309.5,1352C 2324.11,1358.28 2334.28,1368.78 2340,1383.5C 2342.69,1391.98 2341.69,1399.98 2337,1407.5C 2321.25,1427.58 2304.09,1446.42 2285.5,1464C 2262.67,1476.91 2240.33,1490.58 2218.5,1505C 2200.38,1515.89 2181.38,1524.89 2161.5,1532C 2141.12,1536.72 2120.45,1538.55 2099.5,1537.5C 2083.76,1537.81 2068.09,1536.98 2052.5,1535C 2035.03,1529.51 2019.53,1520.67 2006,1508.5C 2003.41,1511.76 2000.24,1514.26 1996.5,1516C 1986.9,1519.53 1977.23,1522.87 1967.5,1526C 1961.56,1527.14 1955.56,1527.81 1949.5,1528C 1940.91,1530.98 1932.25,1533.65 1923.5,1536C 1900.1,1538.75 1877.1,1543.41 1854.5,1550C 1838.25,1552.18 1822.08,1551.68 1806,1548.5C 1802.21,1549.13 1801.88,1550.13 1805,1551.5C 1807.21,1557.98 1804.71,1561.15 1797.5,1561C 1788.63,1561.79 1779.8,1561.62 1771,1560.5C 1764.44,1564.03 1757.61,1566.86 1750.5,1569C 1738.32,1569.43 1726.32,1571.09 1714.5,1574C 1686.5,1574.67 1658.5,1574.67 1630.5,1574C 1627.01,1573.06 1623.67,1571.72 1620.5,1570C 1614.81,1565.28 1609.81,1559.95 1605.5,1554C 1587.91,1555.51 1570.25,1555.84 1552.5,1555C 1539.76,1552.32 1527.1,1549.32 1514.5,1546C 1509.17,1544 1504.33,1541.16 1500,1537.5C 1497.13,1540.7 1493.96,1543.54 1490.5,1546C 1496.29,1549.45 1501.12,1553.95 1505,1559.5C 1505.28,1563.57 1503.28,1565.9 1499,1566.5C 1494.34,1564.76 1490.51,1561.92 1487.5,1558C 1481.48,1557.7 1475.48,1557.2 1469.5,1556.5C 1464.14,1557.9 1458.81,1559.4 1453.5,1561C 1407.47,1562 1361.47,1561.33 1315.5,1559C 1295.41,1557.6 1275.74,1553.93 1256.5,1548C 1241.3,1543.08 1228.97,1534.24 1219.5,1521.5C 1192.17,1520.67 1164.84,1520.17 1137.5,1520C 1134.07,1519.88 1131.07,1518.72 1128.5,1516.5C 1125.02,1520.48 1121.35,1524.32 1117.5,1528C 1126.76,1527.74 1135.76,1529.07 1144.5,1532C 1148.06,1535.87 1148.39,1540.04 1145.5,1544.5C 1144.28,1545.61 1142.94,1545.78 1141.5,1545C 1139.4,1543.23 1137.07,1541.9 1134.5,1541C 1126.44,1540.86 1118.44,1540.2 1110.5,1539C 1109.79,1537.75 1108.96,1536.58 1108,1535.5C 1101.25,1539.79 1094.42,1543.96 1087.5,1548C 1098.37,1554.27 1109.37,1560.27 1120.5,1566C 1123.48,1570.09 1122.81,1573.43 1118.5,1576C 1117.17,1576.67 1115.83,1576.67 1114.5,1576C 1105.84,1570.77 1096.84,1566.11 1087.5,1562C 1083.02,1559.51 1079.19,1556.35 1076,1552.5C 1048.19,1558.74 1020.35,1564.91 992.5,1571C 961.43,1574.96 930.263,1577.8 899,1579.5C 882.681,1579.43 866.514,1577.93 850.5,1575C 833.863,1569.9 817.863,1563.23 802.5,1555C 787.969,1547.32 781.635,1535.15 783.5,1518.5C 775.547,1519.66 773.047,1516.66 776,1509.5C 777.757,1508.88 778.924,1507.71 779.5,1506C 775.101,1493.87 773.435,1481.37 774.5,1468.5C 764.812,1468.54 755.145,1469.04 745.5,1470C 722.089,1475.04 698.422,1477.87 674.5,1478.5C 652.766,1477.93 631.1,1476.43 609.5,1474C 597.25,1471.32 585.25,1467.82 573.5,1463.5C 573.167,1463.83 572.833,1464.17 572.5,1464.5C 579.216,1480.35 575.883,1493.52 562.5,1504C 543.284,1519.11 521.617,1529.11 497.5,1534C 441.328,1545.3 384.662,1548.64 327.5,1544C 303.23,1543.44 279.564,1539.44 256.5,1532C 236.91,1524.41 220.743,1512.25 208,1495.5C 204.85,1490.2 202.517,1484.53 201,1478.5C 198.435,1455.55 202.435,1433.88 213,1413.5C 221.174,1397.32 231.674,1382.82 244.5,1370C 253.395,1363.38 263.061,1358.05 273.5,1354C 288.215,1348.93 302.882,1343.76 317.5,1338.5C 320.867,1324.1 326.701,1310.76 335,1298.5C 353.875,1279.97 370.875,1259.97 386,1238.5C 392.039,1230.79 399.039,1224.13 407,1218.5C 418.08,1202.55 430.913,1188.05 445.5,1175C 449.666,1172.08 453.999,1169.42 458.5,1167C 474.105,1149.39 490.438,1132.39 507.5,1116C 529.789,1098.71 551.789,1081.05 573.5,1063C 599.694,1046.73 626.694,1031.73 654.5,1018C 691.422,1003.8 728.422,989.804 765.5,976C 792.596,963.118 819.929,950.785 847.5,939C 889.376,923.374 932.043,910.374 975.5,900C 1016.45,894.396 1057.45,894.063 1098.5,899C 1115.17,899.667 1131.83,899.667 1148.5,899C 1187.74,887.607 1227.41,877.94 1267.5,870C 1302.14,868.73 1336.81,868.063 1371.5,868C 1387.31,866.397 1402.98,864.897 1418.5,863.5 Z M 1437.5,874.5 C 1449.84,874.333 1462.17,874.5 1474.5,875C 1483.09,875.898 1491.43,877.898 1499.5,881C 1521.24,891.451 1542.57,902.451 1563.5,914C 1586.6,923.589 1609.93,932.589 1633.5,941C 1662.44,947.637 1691.78,950.304 1721.5,949C 1735.92,950.083 1749.92,953.083 1763.5,958C 1778.83,964.667 1794.17,971.333 1809.5,978C 1829.1,981.123 1848.77,983.79 1868.5,986C 1886.09,988.646 1903.09,993.313 1919.5,1000C 1927.54,1007.05 1935.88,1013.71 1944.5,1020C 1954.99,1025.41 1965.33,1031.08 1975.5,1037C 1994.31,1044.6 2013.65,1050.6 2033.5,1055C 2041.34,1057.21 2049,1059.88 2056.5,1063C 2066.7,1071.84 2076.54,1081 2086,1090.5C 2094.29,1107.41 2102.29,1124.41 2110,1141.5C 2113.74,1153.25 2116.4,1165.25 2118,1177.5C 2121.72,1187.28 2125.72,1196.95 2130,1206.5C 2140.7,1216.77 2152.87,1224.94 2166.5,1231C 2170.6,1233.47 2174.43,1236.3 2178,1239.5C 2179.31,1258.74 2179.98,1278.08 2180,1297.5C 2180.69,1301.58 2181.69,1305.58 2183,1309.5C 2186.24,1315.11 2188.57,1321.11 2190,1327.5C 2190.97,1329.3 2192.14,1330.97 2193.5,1332.5C 2184.18,1333.67 2174.85,1333.83 2165.5,1333C 2151.68,1323.75 2136.68,1317.25 2120.5,1313.5C 2116.63,1293.33 2114.13,1273 2113,1252.5C 2110.93,1246.69 2108.59,1241.02 2106,1235.5C 2105.75,1226.42 2102.59,1218.59 2096.5,1212C 2079.72,1201.56 2064.39,1189.23 2050.5,1175C 2030.44,1160.8 2008.77,1149.47 1985.5,1141C 1984.33,1139.83 1983.17,1138.67 1982,1137.5C 1979.5,1129.33 1975,1122.5 1968.5,1117C 1954.32,1107.41 1940.32,1097.58 1926.5,1087.5C 1923.29,1079.71 1919.79,1072.04 1916,1064.5C 1911.48,1058.98 1906.64,1053.81 1901.5,1049C 1899.5,1048 1897.5,1047 1895.5,1046C 1877.5,1045.67 1859.5,1045.33 1841.5,1045C 1836.61,1044.94 1831.94,1043.94 1827.5,1042C 1824.33,1038.17 1821.17,1034.33 1818,1030.5C 1815.76,1021.89 1812.76,1013.56 1809,1005.5C 1802.93,997.721 1795.1,992.887 1785.5,991C 1768.5,990.667 1751.5,990.333 1734.5,990C 1731.77,989.587 1729.1,988.92 1726.5,988C 1720.87,984.565 1714.87,981.898 1708.5,980C 1687.59,975.607 1666.93,970.273 1646.5,964C 1616.2,962.925 1587.53,955.592 1560.5,942C 1552.46,934.979 1543.12,930.646 1532.5,929C 1491.97,928.247 1451.47,928.747 1411,930.5C 1371.45,930.409 1331.95,928.909 1292.5,926C 1279.21,924.73 1266.21,922.063 1253.5,918C 1238.84,916.051 1224.17,916.051 1209.5,918C 1193.48,920.871 1177.48,923.871 1161.5,927C 1149.84,928.399 1138.18,929.733 1126.5,931C 1095.25,939.312 1063.92,947.312 1032.5,955C 1007.42,958.535 982.42,962.535 957.5,967C 939.808,968.501 922.141,970.168 904.5,972C 878.014,979.161 852.347,988.495 827.5,1000C 799.665,1011.5 770.999,1020.17 741.5,1026C 724.355,1032.57 707.688,1040.24 691.5,1049C 678.833,1058.33 666.167,1067.67 653.5,1077C 643.833,1081.33 634.167,1085.67 624.5,1090C 612.833,1098.33 601.167,1106.67 589.5,1115C 574.801,1131.03 561.634,1148.19 550,1166.5C 520.194,1194.97 491.027,1224.14 462.5,1254C 433.611,1274.89 409.111,1300.06 389,1329.5C 383.551,1340 378.385,1350.67 373.5,1361.5C 359.161,1362.83 344.828,1364.17 330.5,1365.5C 330.333,1354.16 330.5,1342.83 331,1331.5C 334.724,1321.98 339.39,1312.98 345,1304.5C 365.833,1283.01 385.166,1260.34 403,1236.5C 407.667,1232.5 412.333,1228.5 417,1224.5C 427.047,1210.78 438.214,1197.95 450.5,1186C 456.66,1181.42 462.993,1177.09 469.5,1173C 482.8,1158.03 496.466,1143.37 510.5,1129C 531.458,1112.38 552.124,1095.38 572.5,1078C 599.381,1060.72 627.048,1044.72 655.5,1030C 694.833,1015 734.167,1000 773.5,985C 802.362,970.901 831.696,957.901 861.5,946C 898.615,932.851 936.282,921.517 974.5,912C 995.335,908.242 1016.34,906.742 1037.5,907.5C 1059.25,907.189 1080.91,908.356 1102.5,911C 1119.53,911.856 1136.53,911.523 1153.5,910C 1192.89,897.818 1232.89,888.151 1273.5,881C 1304.83,880.667 1336.17,880.333 1367.5,880C 1390.94,877.49 1414.27,875.657 1437.5,874.5 Z M 1216.5,928.5 C 1226.84,928.334 1237.17,928.5 1247.5,929C 1260.03,932.299 1272.69,934.965 1285.5,937C 1327.59,940.553 1369.76,942.386 1412,942.5C 1452.47,940.705 1492.97,940.205 1533.5,941C 1537.39,941.739 1541.05,943.073 1544.5,945C 1560.02,955.738 1577.02,963.405 1595.5,968C 1612.22,972.399 1629.22,975.066 1646.5,976C 1668.03,982.173 1689.7,987.84 1711.5,993C 1717.09,996.589 1723.09,999.256 1729.5,1001C 1748.46,1002.27 1767.46,1002.94 1786.5,1003C 1791.74,1004.24 1795.91,1007.07 1799,1011.5C 1802.07,1021.04 1805.74,1030.38 1810,1039.5C 1813.47,1043.97 1817.3,1048.13 1821.5,1052C 1825.36,1053.73 1829.36,1055.07 1833.5,1056C 1853.88,1056.06 1874.21,1056.73 1894.5,1058C 1899.75,1062.58 1904.25,1067.74 1908,1073.5C 1910.72,1080.62 1913.72,1087.62 1917,1094.5C 1931.89,1105.72 1947.05,1116.55 1962.5,1127C 1966.82,1131.8 1969.98,1137.3 1972,1143.5C 1974.17,1145.67 1976.33,1147.83 1978.5,1150C 1995.65,1156.91 2012.32,1164.91 2028.5,1174C 2041.33,1182.16 2053,1191.82 2063.5,1203C 2073.81,1209.07 2083.31,1216.24 2092,1224.5C 2093,1229.5 2094,1234.5 2095,1239.5C 2097.62,1245.06 2099.95,1250.73 2102,1256.5C 2102.38,1274.94 2104.55,1293.11 2108.5,1311C 2103,1310.59 2098.34,1312.25 2094.5,1316C 2077.45,1317.22 2060.79,1315.22 2044.5,1310C 2033.77,1309.1 2023.11,1309.43 2012.5,1311C 1984.43,1323.53 1958.09,1338.86 1933.5,1357C 1928.3,1361.87 1923.47,1367.03 1919,1372.5C 1914.73,1381.67 1914.4,1391.01 1918,1400.5C 1925.12,1413.74 1931.95,1427.07 1938.5,1440.5C 1928.51,1441.66 1919.18,1444.82 1910.5,1450C 1903.53,1451.77 1896.53,1453.44 1889.5,1455C 1876.98,1461.8 1863.64,1464.47 1849.5,1463C 1845.06,1454.12 1839.4,1446.12 1832.5,1439C 1804.04,1415.6 1772.71,1396.6 1738.5,1382C 1729.74,1378.88 1720.74,1377.88 1711.5,1379C 1694.36,1386.97 1681.7,1399.47 1673.5,1416.5C 1675.37,1421.61 1678.7,1423.11 1683.5,1421C 1689.52,1413.98 1695.18,1406.64 1700.5,1399C 1704.84,1396.83 1708.84,1394.16 1712.5,1391C 1719.23,1390.17 1725.9,1390.5 1732.5,1392C 1764.08,1405.78 1793.41,1423.11 1820.5,1444C 1824,1447.5 1827.5,1451 1831,1454.5C 1834.84,1461.51 1839.17,1468.17 1844,1474.5C 1844.48,1482.77 1843.15,1490.77 1840,1498.5C 1835.33,1505.17 1830.67,1511.83 1826,1518.5C 1816.59,1525.79 1807.09,1532.95 1797.5,1540C 1789.94,1542.38 1782.27,1544.38 1774.5,1546C 1766.47,1549.68 1758.47,1553.35 1750.5,1557C 1736.64,1557.64 1722.97,1559.64 1709.5,1563C 1683.16,1563.67 1656.82,1563.34 1630.5,1562C 1625.6,1559.11 1621.27,1555.44 1617.5,1551C 1622.11,1549.23 1626.78,1548.56 1631.5,1549C 1635.34,1545.83 1636.01,1542.17 1633.5,1538C 1627.41,1536.4 1621.41,1536.9 1615.5,1539.5C 1614.5,1531.19 1614.17,1522.86 1614.5,1514.5C 1622.73,1515.03 1630.4,1513.19 1637.5,1509C 1645.63,1502.54 1653.46,1495.71 1661,1488.5C 1664.16,1482.79 1664.16,1477.12 1661,1471.5C 1657.07,1469.52 1652.9,1469.02 1648.5,1470C 1646.67,1470.5 1645.5,1471.67 1645,1473.5C 1644.46,1478.24 1644.46,1482.91 1645,1487.5C 1639.35,1493.49 1632.85,1498.32 1625.5,1502C 1623.53,1502.5 1621.53,1502.66 1619.5,1502.5C 1619.68,1499.78 1620.18,1497.12 1621,1494.5C 1624.51,1484.94 1629.68,1476.44 1636.5,1469C 1638.46,1468.07 1640.46,1467.24 1642.5,1466.5C 1645.26,1462.95 1644.6,1460.11 1640.5,1458C 1635.33,1456.71 1630.83,1457.87 1627,1461.5C 1623.62,1465.22 1620.62,1469.22 1618,1473.5C 1617.32,1465.62 1618.32,1457.95 1621,1450.5C 1624.84,1443.49 1629.17,1436.83 1634,1430.5C 1640,1425.17 1646,1419.83 1652,1414.5C 1655.5,1408.16 1659.5,1402.16 1664,1396.5C 1664.49,1395.21 1664.66,1393.87 1664.5,1392.5C 1659.03,1393.12 1655.03,1395.96 1652.5,1401C 1633.45,1412.05 1619.29,1427.55 1610,1447.5C 1607.06,1456.25 1605.56,1465.25 1605.5,1474.5C 1597.45,1474.5 1589.78,1472.83 1582.5,1469.5C 1579.38,1470.79 1576.38,1472.29 1573.5,1474C 1564.27,1475.9 1554.94,1476.9 1545.5,1477C 1542.5,1478.17 1539.83,1479.83 1537.5,1482C 1534.61,1483.15 1531.61,1483.65 1528.5,1483.5C 1529.71,1470.62 1525.71,1459.78 1516.5,1451C 1499.77,1441.65 1482.11,1434.65 1463.5,1430C 1453,1423.92 1442.67,1417.58 1432.5,1411C 1419.66,1405.39 1406.32,1401.39 1392.5,1399C 1372.65,1398.07 1352.82,1396.9 1333,1395.5C 1328.92,1395.27 1325.09,1396.11 1321.5,1398C 1310.15,1412.19 1296.82,1424.02 1281.5,1433.5C 1278.35,1429.85 1275.02,1426.35 1271.5,1423C 1266.64,1420.74 1261.98,1418.24 1257.5,1415.5C 1260.56,1410.72 1259.23,1408.55 1253.5,1409C 1251.79,1410.38 1250.45,1412.04 1249.5,1414C 1243.75,1414.15 1238.08,1414.81 1232.5,1416C 1229.8,1420.96 1231.13,1424.63 1236.5,1427C 1223.87,1438.47 1216.2,1452.63 1213.5,1469.5C 1202.83,1469.33 1192.16,1469.5 1181.5,1470C 1168.03,1473.18 1154.37,1474.35 1140.5,1473.5C 1142.07,1461.37 1138.9,1450.7 1131,1441.5C 1122.77,1432.6 1113.93,1424.43 1104.5,1417C 1095.73,1407.47 1086.73,1398.14 1077.5,1389C 1068.74,1383.19 1059.07,1380.19 1048.5,1380C 1020.17,1379.33 991.833,1379.33 963.5,1380C 949.136,1381.43 934.803,1383.09 920.5,1385C 912.049,1386.59 904.382,1389.93 897.5,1395C 892.833,1396.33 888.167,1397.67 883.5,1399C 877.302,1403.26 870.969,1407.26 864.5,1411C 854.167,1411.67 843.833,1411.67 833.5,1411C 832.193,1408.68 830.193,1407.34 827.5,1407C 820.167,1406.33 812.833,1406.33 805.5,1407C 792.052,1414.78 782.552,1425.95 777,1440.5C 775.323,1446.05 774.49,1451.72 774.5,1457.5C 765.494,1457.33 756.494,1457.5 747.5,1458C 730.205,1460.93 712.871,1463.59 695.5,1466C 668.427,1467.05 641.427,1466.05 614.5,1463C 599.145,1459.93 584.145,1455.59 569.5,1450C 568.169,1433.67 561.502,1420.01 549.5,1409C 499.974,1375.95 445.307,1360.28 385.5,1362C 393.095,1343.3 403.595,1326.47 417,1311.5C 434.018,1291.47 453.185,1273.97 474.5,1259C 499.667,1231.17 526.167,1204.67 554,1179.5C 567.227,1160.88 581.06,1142.72 595.5,1125C 606.78,1117.39 617.78,1109.39 628.5,1101C 638.715,1096.15 649.048,1091.48 659.5,1087C 672.167,1077.67 684.833,1068.33 697.5,1059C 711.924,1051.45 726.59,1044.45 741.5,1038C 762.045,1034.71 782.045,1029.37 801.5,1022C 822.407,1014.25 843.073,1005.92 863.5,997C 878.318,991.727 893.318,987.061 908.5,983C 924.509,981.814 940.509,980.481 956.5,979C 983.43,974.259 1010.43,969.925 1037.5,966C 1063.76,959.936 1089.76,952.936 1115.5,945C 1130.4,942.277 1145.4,940.277 1160.5,939C 1179.3,935.457 1197.97,931.957 1216.5,928.5 Z M 1953.5,1357.5 C 1972.91,1343.12 1993.91,1331.29 2016.5,1322C 2021.95,1321.03 2027.45,1320.53 2033,1320.5C 2046.46,1321.94 2059.96,1322.6 2073.5,1322.5C 2073.2,1326.99 2075.2,1329.66 2079.5,1330.5C 2085.72,1328.95 2092.05,1327.78 2098.5,1327C 2100.68,1325.49 2102.84,1323.99 2105,1322.5C 2106.44,1323.15 2107.94,1323.48 2109.5,1323.5C 2109.33,1329.51 2109.5,1335.51 2110,1341.5C 2113.86,1348.04 2117.52,1348.04 2121,1341.5C 2121.33,1336.17 2121.67,1330.83 2122,1325.5C 2125.86,1326.45 2129.69,1327.62 2133.5,1329C 2144.23,1334.36 2154.9,1339.7 2165.5,1345C 2175.83,1345.5 2186.16,1345.67 2196.5,1345.5C 2196.81,1360.2 2196.81,1374.86 2196.5,1389.5C 2181.33,1383.48 2167.33,1385.65 2154.5,1396C 2147.48,1401.68 2141.98,1408.51 2138,1416.5C 2132.42,1437.3 2140.58,1448.46 2162.5,1450C 2174.53,1450.81 2186.53,1450.47 2198.5,1449C 2201.76,1448.03 2204.93,1446.86 2208,1445.5C 2211.97,1449.78 2216.47,1450.78 2221.5,1448.5C 2222.55,1447.56 2223.22,1446.4 2223.5,1445C 2222.42,1442.85 2221.09,1440.85 2219.5,1439C 2222.1,1435.93 2222.93,1432.43 2222,1428.5C 2221.59,1428.04 2221.09,1427.71 2220.5,1427.5C 2218.76,1429.21 2216.76,1430.04 2214.5,1430C 2211.5,1416.37 2209.67,1402.53 2209,1388.5C 2208.82,1374.46 2208.32,1360.46 2207.5,1346.5C 2220.58,1345 2233.58,1345.5 2246.5,1348C 2267.11,1353.59 2287.78,1358.92 2308.5,1364C 2317,1368.5 2323.5,1375 2328,1383.5C 2330.26,1389.67 2329.92,1395.67 2327,1401.5C 2312.19,1419.97 2296.36,1437.47 2279.5,1454C 2253.33,1468.91 2227.67,1484.58 2202.5,1501C 2182.23,1513.76 2160.23,1521.76 2136.5,1525C 2112.83,1525.67 2089.17,1525.67 2065.5,1525C 2054.17,1524.67 2043.84,1521.34 2034.5,1515C 2022.71,1506.49 2011.04,1498.16 1999.5,1490C 1993.54,1485.71 1987.88,1481.04 1982.5,1476C 1987.8,1473.35 1993.14,1470.68 1998.5,1468C 2006.82,1468.29 2015.15,1468.29 2023.5,1468C 2036.49,1467.02 2046.99,1461.52 2055,1451.5C 2055.48,1450.55 2055.65,1449.55 2055.5,1448.5C 2068.56,1452.26 2081.89,1453.42 2095.5,1452C 2101.9,1451.2 2107.9,1449.2 2113.5,1446C 2119.64,1439.91 2121.14,1432.74 2118,1424.5C 2113.72,1416.6 2107.22,1411.43 2098.5,1409C 2092.79,1407.22 2086.96,1406.06 2081,1405.5C 2077.67,1406.08 2074.84,1407.58 2072.5,1410C 2060.12,1409.71 2052.29,1415.54 2049,1427.5C 2043.04,1421.95 2036.04,1418.28 2028,1416.5C 2026.37,1416.63 2024.87,1417.13 2023.5,1418C 2015.67,1418.17 2007.83,1418.33 2000,1418.5C 1987.51,1418.46 1975.35,1417.46 1963.5,1415.5C 1961,1399.94 1960,1384.28 1960.5,1368.5C 1962.2,1368.34 1963.87,1368.51 1965.5,1369C 1972.7,1373.7 1980.03,1378.2 1987.5,1382.5C 1989.05,1383.45 1990.71,1383.79 1992.5,1383.5C 1987.77,1369.27 1978.11,1360.44 1963.5,1357C 1960.13,1356.46 1956.8,1356.62 1953.5,1357.5 Z M 316.5,1350.5 C 318.353,1356.09 319.353,1362.09 319.5,1368.5C 305.167,1371.73 290.834,1374.9 276.5,1378C 273.471,1383.75 275.138,1387.25 281.5,1388.5C 301.74,1383.89 322.073,1379.72 342.5,1376C 373.533,1373.76 404.533,1374.1 435.5,1377C 469.23,1382.03 500.897,1393.03 530.5,1410C 536.449,1413.56 541.949,1417.73 547,1422.5C 549.852,1426.2 552.185,1430.2 554,1434.5C 556.528,1447.61 559.528,1460.61 563,1473.5C 563.667,1478.17 563.667,1482.83 563,1487.5C 548.734,1501.74 531.9,1511.9 512.5,1518C 457.335,1531.93 401.335,1536.93 344.5,1533C 327.435,1532.47 310.435,1531.14 293.5,1529C 262.715,1526.19 237.548,1513.03 218,1489.5C 216.414,1487.33 215.08,1485 214,1482.5C 209.367,1458 213.367,1435 226,1413.5C 234.128,1398.06 244.962,1384.89 258.5,1374C 263.833,1371.33 269.167,1368.67 274.5,1366C 288.791,1361.3 302.791,1356.13 316.5,1350.5 Z M 1949.5,1360.5 C 1947.66,1379.96 1948.66,1399.29 1952.5,1418.5C 1952.38,1419.89 1952.05,1421.23 1951.5,1422.5C 1954.41,1427.21 1956.74,1432.21 1958.5,1437.5C 1955.97,1438.78 1953.47,1438.78 1951,1437.5C 1943.11,1424.18 1935.77,1410.51 1929,1396.5C 1926.46,1389.1 1927.13,1382.1 1931,1375.5C 1936.59,1369.64 1942.75,1364.64 1949.5,1360.5 Z M 960.5,1391.5 C 990.502,1391.33 1020.5,1391.5 1050.5,1392C 1058.87,1391.93 1066.2,1394.6 1072.5,1400C 1079.17,1407.33 1085.83,1414.67 1092.5,1422C 1103.99,1431.49 1114.82,1441.66 1125,1452.5C 1126.44,1454.27 1127.44,1456.27 1128,1458.5C 1129.55,1473.12 1128.22,1487.46 1124,1501.5C 1119.31,1510.53 1112.81,1518.03 1104.5,1524C 1095.09,1530.71 1085.09,1536.37 1074.5,1541C 1049.32,1545.9 1024.32,1551.57 999.5,1558C 972.888,1561.44 946.222,1564.44 919.5,1567C 875.761,1572.92 835.761,1563.59 799.5,1539C 798.283,1537.35 797.45,1535.52 797,1533.5C 796.281,1526.58 795.115,1519.75 793.5,1513C 796.291,1511.19 799.291,1509.69 802.5,1508.5C 803.983,1505.39 803.65,1502.56 801.5,1500C 797.775,1499.24 794.108,1499.41 790.5,1500.5C 788.534,1494.97 787.034,1489.3 786,1483.5C 785.139,1471.79 785.473,1460.12 787,1448.5C 790.224,1434.94 797.724,1424.44 809.5,1417C 815.157,1416.5 820.824,1416.33 826.5,1416.5C 826.444,1419.56 827.778,1421.73 830.5,1423C 843.531,1423.8 856.531,1423.47 869.5,1422C 875.108,1418.72 880.442,1415.06 885.5,1411C 896.22,1408.31 906.22,1403.97 915.5,1398C 930.59,1395.5 945.59,1393.33 960.5,1391.5 Z M 2189.5,1394.5 C 2191.53,1394.34 2193.53,1394.5 2195.5,1395C 2196.85,1395.77 2197.68,1396.94 2198,1398.5C 2198.67,1410.52 2200.5,1422.36 2203.5,1434C 2200.72,1436.49 2197.38,1437.82 2193.5,1438C 2182.83,1438.67 2172.17,1438.67 2161.5,1438C 2148.55,1437.72 2144.38,1431.56 2149,1419.5C 2158.59,1404.72 2172.09,1396.39 2189.5,1394.5 Z M 1327.5,1407.5 C 1347.46,1408.97 1367.46,1409.81 1387.5,1410C 1401.77,1411.98 1415.44,1415.98 1428.5,1422C 1437.33,1427.92 1446.33,1433.58 1455.5,1439C 1474.73,1444.19 1493.07,1451.52 1510.5,1461C 1514.52,1464.56 1516.69,1469.06 1517,1474.5C 1517.96,1481.34 1517.29,1488 1515,1494.5C 1514,1496.83 1512.33,1498.5 1510,1499.5C 1509.36,1500.61 1508.86,1501.78 1508.5,1503C 1509.33,1504.47 1509.5,1505.97 1509,1507.5C 1496.79,1529.71 1478.29,1543.54 1453.5,1549C 1444.88,1550.09 1436.22,1550.59 1427.5,1550.5C 1388.81,1550.07 1350.14,1548.9 1311.5,1547C 1288.83,1545.58 1267.16,1540.25 1246.5,1531C 1226.83,1519.81 1219.5,1502.97 1224.5,1480.5C 1226.92,1480.29 1229.25,1480.63 1231.5,1481.5C 1238.47,1479.42 1239.8,1475.59 1235.5,1470C 1232.18,1469.5 1228.85,1469.33 1225.5,1469.5C 1225.64,1462.2 1227.81,1455.54 1232,1449.5C 1237.45,1441.71 1243.28,1434.21 1249.5,1427C 1262.05,1427.87 1270.22,1434.37 1274,1446.5C 1275.35,1448.01 1277.02,1449.01 1279,1449.5C 1297.75,1438.39 1313.91,1424.39 1327.5,1407.5 Z M 2093.5,1419.5 C 2099.58,1421.09 2104.42,1424.43 2108,1429.5C 2108.67,1431.5 2108.67,1433.5 2108,1435.5C 2105.91,1436.79 2103.75,1437.96 2101.5,1439C 2090.55,1440.55 2079.55,1440.88 2068.5,1440C 2060.71,1438.5 2058.54,1434 2062,1426.5C 2063.38,1423.89 2065.54,1422.39 2068.5,1422C 2072.71,1421.74 2076.87,1421.24 2081,1420.5C 2085.11,1421.55 2089.28,1422.21 2093.5,1422.5C 2093.5,1421.5 2093.5,1420.5 2093.5,1419.5 Z M 1967.5,1431.5 C 1980.33,1430.34 1993.33,1430.17 2006.5,1431C 1996.22,1436.94 1990.38,1445.77 1989,1457.5C 1987.49,1458.5 1986.33,1459.84 1985.5,1461.5C 1981.27,1463.41 1977.11,1465.41 1973,1467.5C 1968.38,1461.76 1963.88,1455.92 1959.5,1450C 1960.83,1449.33 1962.17,1449.33 1963.5,1450C 1967.5,1456.83 1973.16,1458.83 1980.5,1456C 1982.54,1453.5 1982.87,1450.83 1981.5,1448C 1978.52,1446.68 1975.69,1445.18 1973,1443.5C 1971.24,1439.36 1969.41,1435.36 1967.5,1431.5 Z M 2033.5,1432.5 C 2041.1,1434.25 2044.6,1438.92 2044,1446.5C 2038.98,1451.84 2032.81,1455.01 2025.5,1456C 2017.46,1456.74 2009.46,1456.57 2001.5,1455.5C 2001.34,1453.8 2001.51,1452.13 2002,1450.5C 2010.7,1441.24 2021.2,1435.24 2033.5,1432.5 Z M 1941.5,1450.5 C 1943.29,1450.21 1944.95,1450.55 1946.5,1451.5C 1950.85,1458.19 1955.68,1464.53 1961,1470.5C 1961.45,1472.41 1960.61,1473.58 1958.5,1474C 1954.32,1475.8 1949.98,1477.13 1945.5,1478C 1931.5,1478.33 1917.5,1478.67 1903.5,1479C 1887.72,1482.91 1871.72,1485.41 1855.5,1486.5C 1855.5,1482.83 1855.5,1479.17 1855.5,1475.5C 1868.85,1475.11 1881.51,1471.94 1893.5,1466C 1905.28,1464.64 1916.28,1460.97 1926.5,1455C 1931.68,1453.68 1936.68,1452.18 1941.5,1450.5 Z M 1276.5,1468.5 C 1278.86,1468.34 1281.19,1468.5 1283.5,1469C 1280.9,1476.15 1275.9,1478.65 1268.5,1476.5C 1270.88,1473.45 1273.55,1470.79 1276.5,1468.5 Z M 1188.5,1480.5 C 1196.5,1480.5 1204.5,1480.5 1212.5,1480.5C 1212.29,1489.2 1212.62,1497.87 1213.5,1506.5C 1211.69,1506.49 1210.02,1506.99 1208.5,1508C 1184.5,1508.67 1160.5,1508.67 1136.5,1508C 1135.57,1507.61 1134.91,1506.95 1134.5,1506C 1137.03,1499.37 1138.7,1492.53 1139.5,1485.5C 1156.27,1486.57 1172.6,1484.9 1188.5,1480.5 Z M 1969.5,1480.5 C 1971.63,1482.13 1973.63,1483.96 1975.5,1486C 1970.17,1486.67 1964.83,1486.67 1959.5,1486C 1963.35,1484.91 1966.68,1483.08 1969.5,1480.5 Z M 1583.5,1482.5 C 1589.6,1484.88 1595.93,1485.88 1602.5,1485.5C 1602.5,1492.5 1602.5,1499.5 1602.5,1506.5C 1590.78,1510.23 1578.78,1511.4 1566.5,1510C 1552.78,1507.69 1539.28,1504.53 1526,1500.5C 1526.44,1495.93 1527.78,1491.6 1530,1487.5C 1546.58,1489.29 1563.08,1488.45 1579.5,1485C 1581.32,1484.8 1582.65,1483.97 1583.5,1482.5 Z M 1725.5,1487.5 C 1726.5,1487.5 1727.5,1487.5 1728.5,1487.5C 1728.47,1489.58 1729.14,1491.42 1730.5,1493C 1727.77,1492.65 1725.44,1491.32 1723.5,1489C 1724.42,1488.72 1725.08,1488.22 1725.5,1487.5 Z M 1378.5,1489.5 C 1379.08,1488.23 1379.74,1488.23 1380.5,1489.5C 1380.03,1490.46 1379.36,1490.46 1378.5,1489.5 Z M 1840.5,1518.5 C 1844.84,1512.13 1848.84,1505.46 1852.5,1498.5C 1869.11,1497.72 1885.44,1495.22 1901.5,1491C 1908.83,1490.33 1916.17,1490.33 1923.5,1491C 1896.66,1502.67 1868.99,1511.84 1840.5,1518.5 Z M 1988.5,1496.5 C 1991.29,1498.11 1993.95,1499.95 1996.5,1502C 1995.83,1502.67 1995.17,1503.33 1994.5,1504C 1978.91,1511.2 1962.58,1515.53 1945.5,1517C 1926.42,1523.92 1906.75,1528.25 1886.5,1530C 1873.88,1533.21 1861.21,1536.21 1848.5,1539C 1838.82,1539.83 1829.15,1539.67 1819.5,1538.5C 1822.62,1535.77 1825.95,1533.27 1829.5,1531C 1834.51,1531.74 1839.51,1531.41 1844.5,1530C 1852.83,1527.67 1861.17,1525.33 1869.5,1523C 1892.18,1515 1914.84,1507 1937.5,1499C 1953.5,1498.67 1969.5,1498.33 1985.5,1498C 1986.74,1497.77 1987.74,1497.27 1988.5,1496.5 Z M 1519.5,1511.5 C 1535.05,1515.47 1550.72,1518.97 1566.5,1522C 1578.46,1523.43 1590.13,1522.26 1601.5,1518.5C 1602.66,1526.15 1602.83,1533.81 1602,1541.5C 1600.27,1542.25 1598.43,1542.75 1596.5,1543C 1581.83,1543.67 1567.17,1543.67 1552.5,1543C 1540.07,1540.41 1527.74,1537.41 1515.5,1534C 1512.6,1533.06 1510.27,1531.39 1508.5,1529C 1513.18,1523.82 1516.85,1517.98 1519.5,1511.5 Z"/></g>
<g><path style="opacity:0.776" fill="#000000" d="M 406.5,1402.5 C 411.301,1402.35 415.967,1403.02 420.5,1404.5C 421.023,1407.03 422.023,1409.36 423.5,1411.5C 423.392,1412.44 423.059,1413.28 422.5,1414C 416.289,1414.08 409.955,1414.42 403.5,1415C 399.31,1415.92 395.976,1418.09 393.5,1421.5C 408.896,1426.35 424.23,1431.52 439.5,1437C 445.812,1446.05 443.479,1451.72 432.5,1454C 413.269,1456.8 393.935,1458.47 374.5,1459C 372.044,1460.71 369.377,1462.04 366.5,1463C 348.5,1463.67 330.5,1463.67 312.5,1463C 300.388,1462.63 294.055,1456.47 293.5,1444.5C 295.217,1428.56 302.884,1416.4 316.5,1408C 326.798,1403.48 337.131,1403.48 347.5,1408C 356.013,1413.19 358.846,1420.69 356,1430.5C 352.281,1439.63 345.448,1444.79 335.5,1446C 327.5,1446.67 319.5,1446.67 311.5,1446C 307.191,1443.43 306.524,1440.09 309.5,1436C 314.065,1434.31 318.732,1434.15 323.5,1435.5C 327.829,1434.96 332.162,1434.46 336.5,1434C 343.723,1432.3 346.557,1427.8 345,1420.5C 331.383,1413.24 320.05,1415.9 311,1428.5C 307.485,1432.88 305.652,1437.88 305.5,1443.5C 305.288,1446.01 305.955,1448.18 307.5,1450C 312.416,1451.16 317.416,1451.83 322.5,1452C 335.846,1452.83 349.179,1452.67 362.5,1451.5C 363.301,1448.87 364.967,1447.03 367.5,1446C 374.839,1444.5 382.172,1443 389.5,1441.5C 390.443,1443.47 389.776,1444.97 387.5,1446C 399.609,1446.27 411.609,1445.27 423.5,1443C 410.433,1440.2 397.766,1436.2 385.5,1431C 380.001,1424.12 380.334,1417.46 386.5,1411C 392.572,1406.48 399.239,1403.65 406.5,1402.5 Z"/></g>
<g><path style="opacity:0.759" fill="#000000" d="M 461.5,1402.5 C 464.675,1402.84 466.841,1404.51 468,1407.5C 468.577,1415.55 470.077,1423.38 472.5,1431C 482.768,1429.59 493.102,1428.26 503.5,1427C 513.5,1426.33 523.5,1426.33 533.5,1427C 537.213,1428.69 538.379,1431.52 537,1435.5C 536.097,1436.7 534.931,1437.53 533.5,1438C 514.627,1437.51 495.961,1439.17 477.5,1443C 477.043,1443.41 476.709,1443.91 476.5,1444.5C 480.462,1451.43 484.128,1458.43 487.5,1465.5C 486.556,1469.15 484.223,1470.31 480.5,1469C 473.262,1463.05 468.095,1455.55 465,1446.5C 463.475,1447.72 461.641,1448.39 459.5,1448.5C 450.176,1448.25 448.176,1444.41 453.5,1437C 455.392,1436.03 457.392,1435.36 459.5,1435C 460.059,1434.28 460.392,1433.44 460.5,1432.5C 458.524,1425.28 457.19,1417.95 456.5,1410.5C 456.199,1406.41 457.865,1403.74 461.5,1402.5 Z"/></g>
<g><path style="opacity:0.797" fill="#000000" d="M 249.5,1410.5 C 252.119,1410.23 254.619,1410.56 257,1411.5C 258.036,1414.75 258.703,1418.09 259,1421.5C 260.776,1418.06 262.943,1414.89 265.5,1412C 270.448,1409.35 274.615,1410.18 278,1414.5C 280.308,1426.05 281.808,1437.72 282.5,1449.5C 289.006,1449.82 291.339,1452.98 289.5,1459C 279.346,1463 273.179,1459.5 271,1448.5C 270.253,1441.7 269.253,1435.03 268,1428.5C 262.094,1440.55 258.427,1453.22 257,1466.5C 254,1469.17 251,1469.17 248,1466.5C 247.333,1448.5 247.333,1430.5 248,1412.5C 248.717,1411.96 249.217,1411.29 249.5,1410.5 Z"/></g>
<g><path style="opacity:0.735" fill="#000000" d="M 1031.5,1433.5 C 1035.11,1433.94 1037.27,1435.94 1038,1439.5C 1038.33,1450.83 1038.67,1462.17 1039,1473.5C 1040.11,1478.15 1041.61,1482.65 1043.5,1487C 1041.45,1493.22 1037.95,1494.05 1033,1489.5C 1029.8,1483.9 1027.8,1477.9 1027,1471.5C 1026.33,1460.5 1026.33,1449.5 1027,1438.5C 1027.74,1436.03 1029.24,1434.36 1031.5,1433.5 Z"/></g>
<g><path style="opacity:0.781" fill="#000000" d="M 1790.5,1436.5 C 1804.79,1433.73 1813.62,1439.39 1817,1453.5C 1819.33,1460.86 1818.16,1467.69 1813.5,1474C 1821.26,1474.7 1828.1,1477.53 1834,1482.5C 1836.09,1486.12 1835.92,1489.62 1833.5,1493C 1824.59,1496.7 1816.42,1501.53 1809,1507.5C 1808.06,1513.38 1804.89,1515.22 1799.5,1513C 1795.68,1509.38 1795.52,1505.55 1799,1501.5C 1804.72,1495.11 1811.56,1490.28 1819.5,1487C 1808.54,1485.85 1797.54,1485.18 1786.5,1485C 1782.5,1481.67 1782.5,1478.33 1786.5,1475C 1793.74,1473.3 1800.24,1470.13 1806,1465.5C 1806.67,1459.86 1805.67,1454.53 1803,1449.5C 1794.48,1447.31 1786.65,1448.81 1779.5,1454C 1778.67,1461.41 1775,1463.58 1768.5,1460.5C 1765.78,1453.83 1767.44,1448.33 1773.5,1444C 1779.03,1440.89 1784.7,1438.39 1790.5,1436.5 Z"/></g>
<g><path style="opacity:0.739" fill="#000000" d="M 1718.5,1443.5 C 1721.95,1443.45 1724.12,1445.11 1725,1448.5C 1727.94,1457.15 1730.77,1465.82 1733.5,1474.5C 1745.5,1473.93 1757.5,1473.76 1769.5,1474C 1774.64,1477.61 1774.64,1481.28 1769.5,1485C 1759.13,1485.23 1748.8,1485.9 1738.5,1487C 1741.12,1493.07 1744.12,1498.9 1747.5,1504.5C 1745.59,1509.59 1742.26,1510.75 1737.5,1508C 1735.83,1505 1734.17,1502 1732.5,1499C 1729.67,1497.17 1726.67,1496.17 1723.5,1496C 1725.89,1500.21 1724.55,1503.04 1719.5,1504.5C 1717.8,1504.1 1716.14,1503.6 1714.5,1503C 1709.25,1495.84 1704.25,1488.51 1699.5,1481C 1696.77,1480.18 1694.11,1480.35 1691.5,1481.5C 1688.61,1487.44 1685.61,1493.28 1682.5,1499C 1678.45,1500.88 1674.95,1500.04 1672,1496.5C 1669.96,1490.71 1668.13,1484.88 1666.5,1479C 1666.82,1474.14 1669.16,1472.31 1673.5,1473.5C 1674.75,1476.33 1676.25,1479 1678,1481.5C 1683.49,1468.56 1692.66,1465.06 1705.5,1471C 1709.02,1474.56 1712.19,1478.39 1715,1482.5C 1716.79,1478.88 1719.62,1476.54 1723.5,1475.5C 1720.9,1468.87 1718.4,1462.21 1716,1455.5C 1715.33,1452.5 1715.33,1449.5 1716,1446.5C 1716.7,1445.31 1717.53,1444.31 1718.5,1443.5 Z M 1725.5,1487.5 C 1725.08,1488.22 1724.42,1488.72 1723.5,1489C 1725.44,1491.32 1727.77,1492.65 1730.5,1493C 1729.14,1491.42 1728.47,1489.58 1728.5,1487.5C 1727.5,1487.5 1726.5,1487.5 1725.5,1487.5 Z"/></g>
<g><path style="opacity:0.766" fill="#000000" d="M 824.5,1444.5 C 829.254,1443.54 832.587,1445.21 834.5,1449.5C 829.853,1452.99 826.02,1457.32 823,1462.5C 820.801,1466.6 819.301,1470.93 818.5,1475.5C 819.365,1476.58 820.365,1476.75 821.5,1476C 826.595,1470.58 830.428,1464.41 833,1457.5C 837.056,1453.47 840.39,1454.14 843,1459.5C 843.123,1469.62 843.956,1479.62 845.5,1489.5C 838.595,1490.78 834.095,1488.12 832,1481.5C 826.068,1488.03 818.901,1489.86 810.5,1487C 809.299,1486.1 808.465,1484.93 808,1483.5C 806.057,1467.12 811.557,1454.12 824.5,1444.5 Z"/></g>
<g><path style="opacity:0.732" fill="#000000" d="M 936.5,1446.5 C 938.582,1446.47 940.416,1447.14 942,1448.5C 942.718,1455.03 944.218,1461.37 946.5,1467.5C 955.152,1468.18 963.819,1468.35 972.5,1468C 976.598,1470.11 977.264,1472.95 974.5,1476.5C 972.615,1477.61 970.615,1478.44 968.5,1479C 962.419,1479.14 956.419,1479.8 950.5,1481C 952.024,1483.9 953.357,1486.9 954.5,1490C 952.532,1494.74 949.532,1495.57 945.5,1492.5C 943.576,1488.98 941.909,1485.32 940.5,1481.5C 932.855,1480.67 925.188,1480.17 917.5,1480C 913.579,1478.99 912.079,1476.49 913,1472.5C 913.5,1470.67 914.667,1469.5 916.5,1469C 923.167,1468.67 929.833,1468.33 936.5,1468C 933.687,1461.8 932.854,1455.3 934,1448.5C 934.995,1447.93 935.828,1447.27 936.5,1446.5 Z"/></g>
<g><path style="opacity:0.771" fill="#000000" d="M 1426.5,1470.5 C 1424.39,1464.87 1426.06,1460.71 1431.5,1458C 1438.76,1458.02 1446.09,1457.52 1453.5,1456.5C 1463.23,1455.45 1469.73,1459.45 1473,1468.5C 1473.99,1475.31 1473.49,1481.98 1471.5,1488.5C 1472,1488.83 1472.5,1489.17 1473,1489.5C 1479.46,1488.34 1485.96,1487.84 1492.5,1488C 1499.04,1491.86 1499.04,1495.52 1492.5,1499C 1481.51,1500.07 1470.51,1501.07 1459.5,1502C 1450.72,1505.56 1441.72,1506.56 1432.5,1505C 1429.23,1501.39 1429.23,1498.06 1432.5,1495C 1439.96,1492.47 1447.63,1490.8 1455.5,1490C 1462.24,1484.56 1464.07,1477.73 1461,1469.5C 1450.79,1467.54 1440.96,1468.71 1431.5,1473C 1434.53,1477.24 1433.53,1480.24 1428.5,1482C 1420.83,1482.33 1413.17,1482.67 1405.5,1483C 1401.07,1483.42 1396.74,1484.25 1392.5,1485.5C 1391.43,1487.19 1391.6,1488.85 1393,1490.5C 1395.35,1493.85 1398.02,1496.85 1401,1499.5C 1402.14,1502.53 1401.31,1504.69 1398.5,1506C 1392.1,1506.47 1387.44,1503.8 1384.5,1498C 1381.57,1497.7 1378.73,1498.2 1376,1499.5C 1374.11,1499.2 1372.28,1498.7 1370.5,1498C 1366.84,1494.7 1363.51,1491.2 1360.5,1487.5C 1360.71,1486.91 1361.04,1486.41 1361.5,1486C 1357.5,1480.15 1352,1477.98 1345,1479.5C 1341.05,1479.41 1337.22,1479.91 1333.5,1481C 1327.08,1487.67 1322.58,1495.51 1320,1504.5C 1313.96,1507.39 1310.46,1505.39 1309.5,1498.5C 1310.13,1494.18 1310.63,1489.85 1311,1485.5C 1311.55,1481.71 1312.71,1478.21 1314.5,1475C 1315.5,1474.33 1316.5,1474.33 1317.5,1475C 1318.09,1476.51 1318.76,1478.01 1319.5,1479.5C 1325.2,1470.57 1333.37,1466.57 1344,1467.5C 1355.44,1466.3 1364.44,1470.3 1371,1479.5C 1373.01,1478.33 1375.17,1477.66 1377.5,1477.5C 1375.84,1468.39 1376.17,1459.39 1378.5,1450.5C 1381.72,1447.68 1384.55,1448.01 1387,1451.5C 1388.1,1459.12 1388.76,1466.79 1389,1474.5C 1401.24,1471.16 1413.74,1469.83 1426.5,1470.5 Z M 1378.5,1489.5 C 1379.36,1490.46 1380.03,1490.46 1380.5,1489.5C 1379.74,1488.23 1379.08,1488.23 1378.5,1489.5 Z"/></g>
<g><path style="opacity:0.76" fill="#000000" d="M 1276.5,1456.5 C 1280.72,1456.47 1284.38,1457.8 1287.5,1460.5C 1295.11,1455.72 1299.27,1457.72 1300,1466.5C 1297.87,1471.6 1295.37,1476.43 1292.5,1481C 1293.62,1483.58 1295.62,1485.25 1298.5,1486C 1302.03,1487.65 1305.37,1487.48 1308.5,1485.5C 1309.83,1486.83 1309.83,1488.17 1308.5,1489.5C 1302.86,1491.6 1297.03,1493.27 1291,1494.5C 1286.37,1493.77 1282.87,1491.44 1280.5,1487.5C 1273.91,1489.99 1267.24,1490.15 1260.5,1488C 1257.16,1486.17 1255.16,1483.34 1254.5,1479.5C 1258.46,1468.54 1265.79,1460.87 1276.5,1456.5 Z M 1276.5,1468.5 C 1273.55,1470.79 1270.88,1473.45 1268.5,1476.5C 1275.9,1478.65 1280.9,1476.15 1283.5,1469C 1281.19,1468.5 1278.86,1468.34 1276.5,1468.5 Z"/></g>
<g><path style="opacity:0.753" fill="#000000" d="M 888.5,1458.5 C 901.2,1456.36 908.366,1461.7 910,1474.5C 910.679,1481.27 911.845,1487.94 913.5,1494.5C 910.592,1500.29 906.758,1500.96 902,1496.5C 900.53,1487.88 898.697,1479.38 896.5,1471C 884.635,1470.68 875.468,1475.52 869,1485.5C 862.942,1487.11 860.276,1484.78 861,1478.5C 862.07,1475.76 863.57,1473.26 865.5,1471C 872.376,1465.23 880.042,1461.06 888.5,1458.5 Z"/></g>
<g><path style="opacity:0.705" fill="#000000" d="M 578.5,1501.5 C 585.228,1502.58 591.894,1504.08 598.5,1506C 602.062,1509.88 602.395,1514.05 599.5,1518.5C 597.902,1519.48 596.235,1519.65 594.5,1519C 592.756,1517.66 590.923,1516.49 589,1515.5C 584.355,1514.84 579.855,1513.67 575.5,1512C 572.385,1507.29 573.385,1503.79 578.5,1501.5 Z"/></g>
<g><path style="opacity:0.677" fill="#000000" d="M 710.5,1509.5 C 717.508,1509.33 724.508,1509.5 731.5,1510C 736.543,1511.87 737.543,1514.87 734.5,1519C 725.411,1520.83 716.244,1520.99 707,1519.5C 701.545,1520.59 696.045,1521.26 690.5,1521.5C 690.281,1520.32 690.614,1519.32 691.5,1518.5C 698.582,1516.79 704.916,1513.79 710.5,1509.5 Z"/></g>
<g><path style="opacity:0.715" fill="#000000" d="M 614.5,1512.5 C 626.505,1512.33 638.505,1512.5 650.5,1513C 654.415,1514.69 655.415,1517.52 653.5,1521.5C 652.335,1522.58 651.002,1523.42 649.5,1524C 638.167,1524.67 626.833,1524.67 615.5,1524C 609.809,1522.79 608.309,1519.62 611,1514.5C 612.302,1513.92 613.469,1513.25 614.5,1512.5 Z"/></g>
<g><path style="opacity:0.733" fill="#000000" d="M 539.5,1534.5 C 543.323,1534.41 546.323,1535.91 548.5,1539C 557.143,1540.15 565.809,1541.15 574.5,1542C 579.757,1544.01 581.757,1547.84 580.5,1553.5C 578.599,1553.43 576.766,1553.77 575,1554.5C 564.846,1553 554.679,1551.5 544.5,1550C 535.59,1546.75 533.924,1541.59 539.5,1534.5 Z"/></g>
<g><path style="opacity:0.67" fill="#000000" d="M 1224.5,1534.5 C 1230.72,1535.86 1232.22,1539.53 1229,1545.5C 1227.58,1546.46 1226.08,1547.29 1224.5,1548C 1219.18,1548.68 1213.85,1549.18 1208.5,1549.5C 1204.8,1549.66 1201.3,1548.99 1198,1547.5C 1197.29,1545.63 1197.79,1544.13 1199.5,1543C 1208.88,1542.6 1217.21,1539.76 1224.5,1534.5 Z"/></g>
<g><path style="opacity:0.751" fill="#000000" d="M 497.5,1539.5 C 499.827,1539.25 501.827,1539.91 503.5,1541.5C 506.373,1548.25 509.54,1554.91 513,1561.5C 517.289,1567.46 521.956,1573.12 527,1578.5C 530.822,1580.33 534.656,1582 538.5,1583.5C 538.5,1584.83 538.5,1586.17 538.5,1587.5C 535.777,1588.35 533.11,1589.52 530.5,1591C 528.5,1591.67 526.5,1591.67 524.5,1591C 509.366,1579.24 499.366,1564.07 494.5,1545.5C 494.984,1543.2 495.984,1541.2 497.5,1539.5 Z"/></g>
<g><path style="opacity:0.687" fill="#000000" d="M 780.5,1545.5 C 782.5,1545.83 784.5,1546.17 786.5,1546.5C 787.833,1549.5 787.833,1552.5 786.5,1555.5C 780.855,1557.32 775.188,1559.15 769.5,1561C 764.653,1561.38 759.82,1561.88 755,1562.5C 745.672,1561.19 745.172,1558.35 753.5,1554C 762.812,1551.85 771.812,1549.01 780.5,1545.5 Z"/></g>
<g><path style="opacity:0.646" fill="#000000" d="M 1177.5,1547.5 C 1179.5,1547.83 1181.5,1548.17 1183.5,1548.5C 1185.51,1552.96 1184.51,1556.46 1180.5,1559C 1170.9,1558.23 1161.23,1557.39 1151.5,1556.5C 1151.5,1554.83 1151.5,1553.17 1151.5,1551.5C 1160.51,1551.36 1169.18,1550.02 1177.5,1547.5 Z"/></g>
<g><path style="opacity:0.69" fill="#000000" d="M 696.5,1550.5 C 701.37,1550.03 706.036,1550.7 710.5,1552.5C 712.382,1556.42 711.382,1559.25 707.5,1561C 699.123,1561.84 690.79,1563.01 682.5,1564.5C 679.821,1564.06 677.155,1563.56 674.5,1563C 668.976,1558.33 669.976,1555.33 677.5,1554C 684.07,1553.38 690.403,1552.22 696.5,1550.5 Z"/></g>
<g><path style="opacity:0.712" fill="#000000" d="M 591.5,1551.5 C 604.504,1551.33 617.504,1551.5 630.5,1552C 635.305,1553.19 636.639,1556.02 634.5,1560.5C 633.088,1561.81 631.421,1562.64 629.5,1563C 617.14,1563.72 604.807,1563.38 592.5,1562C 586.213,1558.99 585.88,1555.49 591.5,1551.5 Z"/></g>
<g><path style="opacity:0.724" fill="#000000" d="M 1237.5,1561.5 C 1241.46,1560.97 1243.79,1562.64 1244.5,1566.5C 1243.57,1569.52 1242.24,1572.36 1240.5,1575C 1231.62,1578.22 1222.96,1581.89 1214.5,1586C 1209.83,1586.67 1205.17,1586.67 1200.5,1586C 1198.41,1585.05 1198.07,1583.71 1199.5,1582C 1210.16,1576.34 1221.16,1571.17 1232.5,1566.5C 1233.58,1564.13 1235.24,1562.47 1237.5,1561.5 Z"/></g>
<g><path style="opacity:0.727" fill="#000000" d="M 1548.5,1561.5 C 1551.21,1561.58 1553.87,1561.91 1556.5,1562.5C 1558.1,1565.7 1557.77,1568.7 1555.5,1571.5C 1549.38,1574.06 1543.38,1576.89 1537.5,1580C 1530.86,1582.94 1524.2,1583.11 1517.5,1580.5C 1515.86,1577.43 1516.2,1574.59 1518.5,1572C 1529.52,1571.16 1539.52,1567.66 1548.5,1561.5 Z"/></g>
<g><path style="opacity:0.724" fill="#000000" d="M 1135.5,1567.5 C 1145.51,1567.33 1155.51,1567.5 1165.5,1568C 1171.7,1570.04 1175.7,1574.2 1177.5,1580.5C 1175.59,1585.59 1172.26,1586.75 1167.5,1584C 1166.5,1582.33 1165.17,1581 1163.5,1580C 1154.83,1579.67 1146.17,1579.33 1137.5,1579C 1132.29,1578.39 1130.12,1575.56 1131,1570.5C 1132.41,1569.22 1133.91,1568.22 1135.5,1567.5 Z"/></g>
<g><path style="opacity:0.676" fill="#000000" d="M 801.5,1569.5 C 805.458,1568.97 807.791,1570.64 808.5,1574.5C 806.89,1580.39 804.224,1585.72 800.5,1590.5C 791.749,1593.02 783.082,1595.86 774.5,1599C 772.231,1599.76 770.064,1599.59 768,1598.5C 767.333,1597.5 767.333,1596.5 768,1595.5C 775.346,1588.93 783.846,1584.43 793.5,1582C 795.445,1578.68 797.112,1575.18 798.5,1571.5C 799.602,1570.82 800.602,1570.16 801.5,1569.5 Z"/></g>
<g><path style="opacity:0.667" fill="#000000" d="M 1583.5,1573.5 C 1590.17,1573.33 1596.84,1573.5 1603.5,1574C 1608.81,1577.28 1608.81,1580.62 1603.5,1584C 1595.83,1584.33 1588.17,1584.67 1580.5,1585C 1577.98,1587.24 1574.98,1588.41 1571.5,1588.5C 1570.38,1579.3 1574.38,1574.3 1583.5,1573.5 Z"/></g>
<g><path style="opacity:0.707" fill="#000000" d="M 556.5,1582.5 C 561.514,1584.95 566.847,1586.78 572.5,1588C 579.5,1588.33 586.5,1588.67 593.5,1589C 598.463,1591.05 599.796,1594.55 597.5,1599.5C 589.493,1599.67 581.493,1599.5 573.5,1599C 566.667,1598.59 560.5,1596.42 555,1592.5C 552.739,1588.65 553.239,1585.32 556.5,1582.5 Z"/></g>
<g><path style="opacity:0.739" fill="#000000" d="M 748.5,1584.5 C 756.645,1585.06 758.645,1588.56 754.5,1595C 740.049,1602.48 724.882,1607.98 709,1611.5C 707.699,1610.9 706.865,1609.9 706.5,1608.5C 707.789,1605.42 709.455,1602.59 711.5,1600C 724.415,1595.87 736.748,1590.71 748.5,1584.5 Z"/></g>
<g><path style="opacity:0.668" fill="#000000" d="M 643.5,1597.5 C 655.538,1597.23 667.538,1597.56 679.5,1598.5C 679.838,1601.33 678.838,1603.49 676.5,1605C 665.31,1605.78 654.144,1605.61 643,1604.5C 636.005,1605.08 629.338,1606.75 623,1609.5C 619.691,1608.31 618.857,1606.14 620.5,1603C 628.065,1600.19 635.732,1598.36 643.5,1597.5 Z"/></g>
</svg>
