<?xml version="1.0" encoding="UTF-8"?>
<!DOCTYPE svg PUBLIC "-//W3C//DTD SVG 1.1//EN" "http://www.w3.org/Graphics/SVG/1.1/DTD/svg11.dtd">
<svg xmlns="http://www.w3.org/2000/svg" version="1.1" width="2550px" height="2550px" style="shape-rendering:geometricPrecision; text-rendering:geometricPrecision; image-rendering:optimizeQuality; fill-rule:evenodd; clip-rule:evenodd" xmlns:xlink="http://www.w3.org/1999/xlink">
<g><path style="opacity:0.778" fill="#000000" d="M 749.5,745.5 C 759.557,745.135 769.557,745.635 779.5,747C 784.187,748.219 785.853,751.052 784.5,755.5C 782.636,756.993 780.47,757.66 778,757.5C 762.431,753.969 748.264,756.802 735.5,766C 711.63,785.536 690.13,807.369 671,831.5C 649.776,861.735 642.442,895.068 649,931.5C 657.861,945.344 670.361,954.177 686.5,958C 697.96,961.188 709.627,963.188 721.5,964C 744.848,965.557 768.181,965.557 791.5,964C 794.244,963.197 796.911,962.197 799.5,961C 816.288,950.546 830.121,937.046 841,920.5C 845.141,913.743 847.475,906.41 848,898.5C 852.043,861.39 846.043,826.056 830,792.5C 818.169,775.888 802.336,770.388 782.5,776C 780.288,779.134 778.954,782.634 778.5,786.5C 777.5,786.5 776.5,786.5 775.5,786.5C 771.012,768.998 777.678,760.998 795.5,762.5C 819.095,762.597 835.262,773.597 844,795.5C 851.998,815.824 857.331,836.824 860,858.5C 860.79,873.859 860.456,889.192 859,904.5C 857.565,912.81 854.565,920.476 850,927.5C 842.09,938.147 833.59,948.314 824.5,958C 831.054,965.6 836.221,974.1 840,983.5C 840.804,987.737 840.304,991.737 838.5,995.5C 835.383,995.358 832.883,994.024 831,991.5C 827.274,981.628 821.774,972.961 814.5,965.5C 807.106,970.363 799.106,973.863 790.5,976C 768.5,976.667 746.5,976.667 724.5,976C 702.313,975.203 681.313,969.87 661.5,960C 642.012,948.697 633.012,931.697 634.5,909C 635.183,871.826 647.683,839.326 672,811.5C 689.899,791.6 709.065,773.1 729.5,756C 735.818,751.676 742.484,748.176 749.5,745.5 Z"/></g>
<g><path style="opacity:0.774" fill="#000000" d="M 1649.5,762.5 C 1676.42,759.884 1698.92,768.55 1717,788.5C 1728.12,801.643 1736.79,816.31 1743,832.5C 1744.57,846.119 1744.91,859.786 1744,873.5C 1738.78,894.775 1728.28,912.942 1712.5,928C 1690.86,940.601 1667.53,947.434 1642.5,948.5C 1642.58,949.93 1642.25,951.264 1641.5,952.5C 1637.98,955.849 1634.65,959.349 1631.5,963C 1629.32,964.202 1626.99,964.702 1624.5,964.5C 1624.79,957.758 1627.79,952.591 1633.5,949C 1621.37,948.923 1609.7,946.59 1598.5,942C 1579.34,932.258 1561,921.258 1543.5,909C 1532.33,900.171 1527,888.671 1527.5,874.5C 1515.22,873.26 1503.22,870.093 1491.5,865C 1486.07,859.99 1486.9,856.157 1494,853.5C 1504.81,857.785 1515.81,861.452 1527,864.5C 1532.48,823.997 1553.65,795.164 1590.5,778C 1600.07,772.633 1610.24,768.799 1621,766.5C 1626.4,767.177 1631.73,768.177 1637,769.5C 1641.33,767.259 1645.49,764.925 1649.5,762.5 Z M 1655.5,773.5 C 1672.09,772.807 1686.76,777.64 1699.5,788C 1713.08,800.673 1723.58,815.507 1731,832.5C 1739.45,866.47 1730.95,895.304 1705.5,919C 1676.76,935.26 1646.1,940.593 1613.5,935C 1591.15,925.659 1570.15,913.992 1550.5,900C 1546.15,896.133 1542.65,891.633 1540,886.5C 1535.36,846.626 1549.86,816.126 1583.5,795C 1595.25,788.457 1607.25,782.457 1619.5,777C 1623.82,775.582 1628.15,775.415 1632.5,776.5C 1630.02,782.663 1630.52,788.663 1634,794.5C 1635.88,790.594 1638.38,787.094 1641.5,784C 1642.45,783.517 1643.45,783.351 1644.5,783.5C 1644.55,780.901 1645.55,778.734 1647.5,777C 1650.02,775.281 1652.69,774.114 1655.5,773.5 Z"/></g>
<g><path style="opacity:0.778" fill="#000000" d="M 785.5,821.5 C 794.229,821.008 802.562,822.508 810.5,826C 816.755,832.168 819.422,839.668 818.5,848.5C 819.099,858.622 816.266,867.622 810,875.5C 803.003,883.839 794.836,890.673 785.5,896C 794.5,896.333 803.5,896.667 812.5,897C 822.573,898.245 828.573,903.745 830.5,913.5C 824.154,913.333 818.154,911.833 812.5,909C 793.833,908.667 775.167,908.333 756.5,908C 752.271,906.713 750.771,903.88 752,899.5C 752.833,898.667 753.667,897.833 754.5,897C 772.324,891.177 787.824,881.677 801,868.5C 806.977,859.302 808.644,849.302 806,838.5C 804.833,837.333 803.667,836.167 802.5,835C 795.567,833.494 788.567,833.161 781.5,834C 767.976,835.548 754.643,838.048 741.5,841.5C 741.719,842.675 741.386,843.675 740.5,844.5C 736.698,845.228 733.031,846.394 729.5,848C 725.167,848.667 720.833,848.667 716.5,848C 712.313,843.54 712.98,839.873 718.5,837C 740.348,829.119 762.682,823.952 785.5,821.5 Z"/></g>
<g><path style="opacity:0.771" fill="#000000" d="M 1625.5,827.5 C 1642.22,826.178 1658.56,828.011 1674.5,833C 1689.93,839.004 1694.43,849.504 1688,864.5C 1685.29,868.104 1681.79,870.604 1677.5,872C 1670.03,874.785 1662.36,876.785 1654.5,878C 1662.52,882.351 1669.69,887.851 1676,894.5C 1684.12,907.586 1680.62,914.586 1665.5,915.5C 1651.07,914.857 1637.07,912.024 1623.5,907C 1612.95,904.731 1602.28,903.398 1591.5,903C 1587.62,901.04 1586.79,898.207 1589,894.5C 1591.71,892.208 1594.88,891.208 1598.5,891.5C 1606.91,892.12 1615.24,893.286 1623.5,895C 1633.13,897.657 1642.8,900.157 1652.5,902.5C 1657.48,903.498 1662.48,903.665 1667.5,903C 1664.34,898.42 1660.34,894.753 1655.5,892C 1645.42,886.88 1635.59,881.38 1626,875.5C 1624.46,870.88 1625.96,867.713 1630.5,866C 1639.83,865.667 1649.17,865.333 1658.5,865C 1666.09,864.47 1672.93,861.97 1679,857.5C 1680.62,850.255 1677.79,845.755 1670.5,844C 1665.63,842.198 1660.63,840.865 1655.5,840C 1644.76,839.93 1634.09,839.263 1623.5,838C 1619.66,833.79 1620.33,830.29 1625.5,827.5 Z"/></g>
<g><path style="opacity:0.706" fill="#000000" d="M 1355.5,843.5 C 1361.18,843.334 1366.84,843.501 1372.5,844C 1376.99,846.467 1377.66,849.8 1374.5,854C 1365.23,855.526 1355.9,856.192 1346.5,856C 1344.1,853.419 1343.94,850.586 1346,847.5C 1349.14,845.85 1352.31,844.517 1355.5,843.5 Z"/></g>
<g><path style="opacity:0.743" fill="#000000" d="M 870.5,849.5 C 882.045,853.019 893.711,853.353 905.5,850.5C 913.433,852.068 914.433,855.568 908.5,861C 906.5,861.667 904.5,862.333 902.5,863C 892.833,863.667 883.167,863.667 873.5,863C 866.513,861.778 864.347,857.944 867,851.5C 868.302,850.915 869.469,850.249 870.5,849.5 Z"/></g>
<g><path style="opacity:0.701" fill="#000000" d="M 1179.5,850.5 C 1185.93,850.13 1192.26,850.63 1198.5,852C 1202.17,853.741 1204.01,856.575 1204,860.5C 1202.18,862.167 1200.01,863.167 1197.5,863.5C 1191.6,862.008 1185.6,861.175 1179.5,861C 1174.27,857.512 1174.27,854.012 1179.5,850.5 Z"/></g>
<g><path style="opacity:0.705" fill="#000000" d="M 1294.5,851.5 C 1296.83,851.5 1299.17,851.5 1301.5,851.5C 1302.1,855.516 1301.1,859.016 1298.5,862C 1289.91,864.848 1281.24,865.181 1272.5,863C 1268.22,858.77 1268.89,855.437 1274.5,853C 1281.35,852.828 1288.01,852.328 1294.5,851.5 Z"/></g>
<g><path style="opacity:0.619" fill="#000000" d="M 1309.5,851.5 C 1313.18,851.335 1316.85,851.501 1320.5,852C 1323.84,853.988 1324.17,856.321 1321.5,859C 1316.08,859.839 1310.75,859.506 1305.5,858C 1304.45,856.612 1304.28,855.112 1305,853.5C 1306.62,852.901 1308.12,852.234 1309.5,851.5 Z"/></g>
<g><path style="opacity:0.608" fill="#000000" d="M 1146.5,852.5 C 1153.54,852.28 1160.54,852.614 1167.5,853.5C 1167.5,855.167 1167.5,856.833 1167.5,858.5C 1160.2,859.227 1152.87,859.727 1145.5,860C 1140.85,863.602 1135.52,864.935 1129.5,864C 1126.01,862.522 1125.67,860.522 1128.5,858C 1134.76,856.634 1140.76,854.8 1146.5,852.5 Z"/></g>
<g><path style="opacity:0.687" fill="#000000" d="M 1411.5,853.5 C 1418.06,852.919 1424.39,853.752 1430.5,856C 1433.49,859.539 1432.82,862.205 1428.5,864C 1417.68,865.141 1407.02,864.475 1396.5,862C 1395.25,860.506 1395.25,859.006 1396.5,857.5C 1401.45,855.442 1406.45,854.108 1411.5,853.5 Z"/></g>
<g><path style="opacity:0.596" fill="#000000" d="M 1240.5,854.5 C 1243.93,853.79 1246.26,854.957 1247.5,858C 1247.25,859.326 1246.58,860.326 1245.5,861C 1241.89,861.884 1238.22,862.384 1234.5,862.5C 1231.42,862.68 1228.59,862.014 1226,860.5C 1225.46,858.865 1225.96,857.532 1227.5,856.5C 1231.98,855.833 1236.32,855.166 1240.5,854.5 Z"/></g>
<g><path style="opacity:0.616" fill="#000000" d="M 935.5,856.5 C 942.284,856.037 948.784,857.037 955,859.5C 955.49,860.793 955.657,862.127 955.5,863.5C 946.794,864.004 938.127,864.504 929.5,865C 926.945,863.742 926.278,861.909 927.5,859.5C 930.184,858.247 932.85,857.247 935.5,856.5 Z"/></g>
<g><path style="opacity:0.63" fill="#000000" d="M 1451.5,857.5 C 1455.85,857.334 1460.18,857.501 1464.5,858C 1470.14,861.795 1469.47,864.462 1462.5,866C 1457.67,866.884 1453.01,866.384 1448.5,864.5C 1446.69,860.81 1447.69,858.476 1451.5,857.5 Z"/></g>
<g><path style="opacity:0.661" fill="#000000" d="M 1072.5,863.5 C 1075.55,863.911 1078.55,864.577 1081.5,865.5C 1082.43,866.689 1082.76,868.022 1082.5,869.5C 1070.19,871.442 1057.85,872.942 1045.5,874C 1044.07,871.733 1044.4,869.733 1046.5,868C 1055.24,866.066 1063.9,864.566 1072.5,863.5 Z"/></g>
<g><path style="opacity:0.425" fill="#000000" d="M 981.5,866.5 C 985.788,865.986 989.455,867.153 992.5,870C 992.333,870.5 992.167,871 992,871.5C 988.256,872.626 984.423,872.793 980.5,872C 979.156,869.856 979.49,868.023 981.5,866.5 Z"/></g>
<g><path style="opacity:0.74" fill="#000000" d="M 1733.5,902.5 C 1736.28,902.945 1738.95,902.945 1741.5,902.5C 1744.43,903.93 1746.93,905.93 1749,908.5C 1753.1,917.929 1758.77,926.262 1766,933.5C 1766.65,931.277 1768.15,930.11 1770.5,930C 1773.63,929.21 1776.63,929.543 1779.5,931C 1782,934.167 1784.5,937.333 1787,940.5C 1786.19,943.171 1786.36,945.838 1787.5,948.5C 1780.99,948.388 1775.82,945.722 1772,940.5C 1768.74,945.705 1764.58,946.539 1759.5,943C 1747.9,931.267 1739.23,917.767 1733.5,902.5 Z"/></g>
<g><path style="opacity:0.559" fill="#000000" d="M 1802.5,962.5 C 1811.17,963.187 1814.5,967.854 1812.5,976.5C 1809.38,975.14 1806.05,974.307 1802.5,974C 1798.79,972.309 1797.62,969.475 1799,965.5C 1800.15,964.364 1801.31,963.364 1802.5,962.5 Z"/></g>
<g><path style="opacity:0.72" fill="#000000" d="M 1618.5,977.5 C 1622.19,977.178 1624.86,978.678 1626.5,982C 1622.79,991.372 1616.13,997.705 1606.5,1001C 1598.95,1002.41 1596.78,999.574 1600,992.5C 1603.73,989.048 1607.9,986.215 1612.5,984C 1614.03,981.31 1616.03,979.143 1618.5,977.5 Z"/></g>
<g><path style="opacity:0.576" fill="#000000" d="M 1822.5,991.5 C 1829.24,994.242 1832.24,999.242 1831.5,1006.5C 1827.05,1004.91 1823.22,1002.24 1820,998.5C 1819.16,995.519 1820,993.186 1822.5,991.5 Z"/></g>
<g><path style="opacity:0.705" fill="#000000" d="M 844.5,997.5 C 845.922,997.709 847.255,998.209 848.5,999C 851.583,1004.09 855.417,1008.59 860,1012.5C 861.247,1015.33 862.747,1018 864.5,1020.5C 864.291,1021.09 863.957,1021.59 863.5,1022C 859.406,1022.77 855.406,1022.43 851.5,1021C 846.098,1016.1 842.098,1010.27 839.5,1003.5C 839.805,1000.21 841.471,998.207 844.5,997.5 Z"/></g>
<g><path style="opacity:0.702" fill="#000000" d="M 1582.5,1005.5 C 1588.76,1006.36 1590.6,1009.69 1588,1015.5C 1581.73,1022.89 1573.9,1026.23 1564.5,1025.5C 1563.08,1022.5 1563.58,1019.84 1566,1017.5C 1571.7,1013.59 1577.2,1009.59 1582.5,1005.5 Z"/></g>
<g><path style="opacity:0.661" fill="#000000" d="M 875.5,1023.5 C 878.961,1023.15 881.461,1024.48 883,1027.5C 883.792,1036.91 883.292,1046.25 881.5,1055.5C 880.325,1055.72 879.325,1055.39 878.5,1054.5C 876.978,1049.5 874.812,1044.83 872,1040.5C 871.333,1036.5 871.333,1032.5 872,1028.5C 872.697,1026.42 873.864,1024.75 875.5,1023.5 Z"/></g>
<g><path style="opacity:0.622" fill="#000000" d="M 1858.5,1024.5 C 1862.77,1025.6 1866.44,1027.77 1869.5,1031C 1869.91,1032.14 1870.24,1033.31 1870.5,1034.5C 1869.2,1037.72 1868.54,1041.05 1868.5,1044.5C 1867.5,1044.5 1866.5,1044.5 1865.5,1044.5C 1865.13,1040.29 1862.8,1037.79 1858.5,1037C 1851.93,1032.46 1851.93,1028.29 1858.5,1024.5 Z"/></g>
<g><path style="opacity:0.67" fill="#000000" d="M 1549.5,1034.5 C 1551.17,1034.5 1552.83,1034.5 1554.5,1034.5C 1555.04,1043.39 1551.37,1049.89 1543.5,1054C 1541.53,1054.5 1539.53,1054.66 1537.5,1054.5C 1537.18,1051.02 1537.68,1047.69 1539,1044.5C 1540.96,1042.09 1542.79,1039.59 1544.5,1037C 1546.31,1036.24 1547.98,1035.41 1549.5,1034.5 Z"/></g>
<g><path style="opacity:0.668" fill="#000000" d="M 1872.5,1053.5 C 1877.48,1054.82 1882.14,1056.99 1886.5,1060C 1888.23,1062.9 1888.89,1066.07 1888.5,1069.5C 1881.11,1070.39 1874.94,1068.05 1870,1062.5C 1868.93,1058.86 1869.76,1055.86 1872.5,1053.5 Z"/></g>
<g><path style="opacity:0.661" fill="#000000" d="M 1513.5,1070.5 C 1514.5,1070.5 1515.5,1070.5 1516.5,1070.5C 1517.03,1075.11 1516.36,1079.44 1514.5,1083.5C 1510.17,1086.33 1505.83,1089.17 1501.5,1092C 1497.45,1096.05 1493.45,1100.05 1489.5,1104C 1487.19,1104.5 1484.86,1104.66 1482.5,1104.5C 1482.76,1101.98 1483.59,1099.65 1485,1097.5C 1487.71,1095.13 1490.04,1092.46 1492,1089.5C 1496.79,1085.34 1501.95,1081.5 1507.5,1078C 1510.09,1075.91 1512.09,1073.41 1513.5,1070.5 Z"/></g>
<g><path style="opacity:0.713" fill="#000000" d="M 898.5,1072.5 C 900.936,1072.32 903.103,1072.98 905,1074.5C 909.027,1079.22 912.027,1084.55 914,1090.5C 922.98,1098.8 927.313,1109.14 927,1121.5C 924.444,1125.14 921.444,1125.47 918,1122.5C 914.693,1113.27 911.693,1103.94 909,1094.5C 904.027,1090.86 899.694,1086.53 896,1081.5C 894.93,1077.86 895.764,1074.86 898.5,1072.5 Z"/></g>
<g><path style="opacity:0.692" fill="#000000" d="M 1905.5,1076.5 C 1912.6,1076.75 1917.77,1080.09 1921,1086.5C 1922.55,1089.87 1923.72,1093.37 1924.5,1097C 1922.73,1101.65 1922.06,1106.48 1922.5,1111.5C 1921.18,1111.67 1920.01,1111.34 1919,1110.5C 1915.94,1100.04 1910.61,1091.04 1903,1083.5C 1902.16,1080.52 1903,1078.19 1905.5,1076.5 Z"/></g>
<g><path style="opacity:0.685" fill="#000000" d="M 1465.5,1114.5 C 1468.53,1114.18 1470.2,1115.51 1470.5,1118.5C 1469.32,1124.51 1465.82,1128.51 1460,1130.5C 1458.54,1136.63 1454.7,1140.46 1448.5,1142C 1446.19,1142.5 1443.86,1142.66 1441.5,1142.5C 1441.34,1140.8 1441.51,1139.13 1442,1137.5C 1449.07,1128.93 1456.9,1121.27 1465.5,1114.5 Z"/></g>
<g><path style="opacity:0.707" fill="#000000" d="M 1937.5,1116.5 C 1945.14,1118.48 1952.14,1121.82 1958.5,1126.5C 1962.83,1131.69 1962.49,1136.53 1957.5,1141C 1956.17,1141.67 1954.83,1141.67 1953.5,1141C 1951.71,1138.59 1950.04,1136.09 1948.5,1133.5C 1943.69,1131.07 1938.86,1128.73 1934,1126.5C 1932.02,1122.12 1933.18,1118.79 1937.5,1116.5 Z"/></g>
<g><path style="opacity:0.669" fill="#000000" d="M 941.5,1130.5 C 944.099,1130.55 946.266,1131.55 948,1133.5C 949.273,1137.15 950.44,1140.82 951.5,1144.5C 950.905,1147.14 950.572,1149.81 950.5,1152.5C 949.127,1152.66 947.793,1152.49 946.5,1152C 939.618,1147.09 937.118,1140.59 939,1132.5C 939.995,1131.93 940.828,1131.27 941.5,1130.5 Z"/></g>
<g><path style="opacity:0.637" fill="#000000" d="M 1968.5,1149.5 C 1976.15,1148.66 1981.82,1151.49 1985.5,1158C 1983.85,1165.64 1980.18,1166.64 1974.5,1161C 1969.51,1161.51 1966.18,1159.51 1964.5,1155C 1965.48,1152.85 1966.82,1151.02 1968.5,1149.5 Z"/></g>
<g><path style="opacity:0.717" fill="#000000" d="M 959.5,1158.5 C 965.247,1157.41 969.247,1159.58 971.5,1165C 975.951,1167.78 980.117,1170.95 984,1174.5C 986.076,1180.18 988.743,1185.51 992,1190.5C 992.43,1193.19 992.263,1195.86 991.5,1198.5C 984.842,1198.42 980.008,1195.42 977,1189.5C 976.166,1185.32 974.832,1181.32 973,1177.5C 969.278,1177.1 965.944,1175.77 963,1173.5C 959.371,1168.96 958.204,1163.96 959.5,1158.5 Z"/></g>
<g><path style="opacity:0.695" fill="#000000" d="M 1417.5,1162.5 C 1419.14,1162.29 1420.64,1162.62 1422,1163.5C 1423.44,1168.72 1421.94,1172.89 1417.5,1176C 1413.91,1178.38 1410.41,1180.88 1407,1183.5C 1405.89,1187.12 1404.89,1190.79 1404,1194.5C 1398.06,1199.87 1391.23,1201.87 1383.5,1200.5C 1383.34,1198.47 1383.5,1196.47 1384,1194.5C 1388.44,1191.7 1392.6,1188.53 1396.5,1185C 1402.6,1176.73 1409.6,1169.23 1417.5,1162.5 Z"/></g>
<g><path style="opacity:0.717" fill="#000000" d="M 2003.5,1168.5 C 2015.53,1170.53 2024.53,1176.87 2030.5,1187.5C 2029.25,1189.32 2028.59,1191.32 2028.5,1193.5C 2025.58,1193.54 2022.91,1192.71 2020.5,1191C 2013.58,1183.58 2005.24,1178.41 1995.5,1175.5C 1994.17,1174.17 1994.17,1172.83 1995.5,1171.5C 1998.38,1170.79 2001.05,1169.79 2003.5,1168.5 Z"/></g>
<g><path style="opacity:0.77" fill="#000000" d="M 189.5,1185.5 C 214.884,1187.02 237.884,1195.18 258.5,1210C 278.875,1227.44 287.708,1249.61 285,1276.5C 287.761,1277.8 290.595,1278.96 293.5,1280C 320.858,1282.13 347.858,1286.46 374.5,1293C 396.779,1296.99 419.112,1300.66 441.5,1304C 451.266,1305.92 460.932,1308.26 470.5,1311C 482.852,1312.52 495.186,1314.19 507.5,1316C 539.438,1324.79 571.772,1331.79 604.5,1337C 646.283,1348.48 688.283,1359.15 730.5,1369C 751.523,1376.92 772.857,1383.92 794.5,1390C 798.316,1391.41 801.983,1393.08 805.5,1395C 815.5,1395.33 825.5,1395.67 835.5,1396C 855.093,1401.2 874.427,1407.2 893.5,1414C 910.901,1416.08 928.235,1418.75 945.5,1422C 966.501,1422.17 987.501,1421.83 1008.5,1421C 1009.83,1420.33 1011.17,1419.67 1012.5,1419C 1013.83,1418.33 1013.83,1417.67 1012.5,1417C 1007.26,1415.76 1003.09,1412.93 1000,1408.5C 995.737,1400.3 991.237,1392.3 986.5,1384.5C 986.775,1382.39 987.942,1381.06 990,1380.5C 994.276,1385.1 998.942,1389.44 1004,1393.5C 1006.38,1397.09 1008.88,1400.59 1011.5,1404C 1021.63,1406.12 1026.46,1412.28 1026,1422.5C 1025.42,1424 1024.58,1425.33 1023.5,1426.5C 1007.83,1433.58 993.998,1443.25 982,1455.5C 980.915,1461.61 977.415,1464.11 971.5,1463C 968.98,1458.55 969.146,1454.05 972,1449.5C 977.198,1443.97 982.698,1438.8 988.5,1434C 974.836,1434.09 961.169,1434.09 947.5,1434C 929.427,1430.5 911.427,1427.83 893.5,1426C 874.695,1419.4 855.695,1413.4 836.5,1408C 826.59,1407.82 816.756,1407.32 807,1406.5C 806.586,1406.96 806.086,1407.29 805.5,1407.5C 802.221,1406.53 799.221,1405.03 796.5,1403C 772.941,1395.95 749.608,1388.28 726.5,1380C 685.667,1370.29 645,1359.96 604.5,1349C 571.772,1343.79 539.438,1336.79 507.5,1328C 485.434,1326.19 463.767,1322.19 442.5,1316C 408.892,1311.51 375.558,1305.51 342.5,1298C 326.178,1295.91 309.844,1293.91 293.5,1292C 289.586,1291.04 285.919,1289.54 282.5,1287.5C 273.432,1312.4 256.099,1328.56 230.5,1336C 208.174,1340.63 185.841,1340.63 163.5,1336C 129.446,1326.42 116.613,1304.25 125,1269.5C 128.073,1250.36 135.74,1233.36 148,1218.5C 156.554,1208.61 165.721,1199.45 175.5,1191C 180.159,1188.84 184.825,1187.01 189.5,1185.5 Z M 183.5,1199.5 C 191.862,1199.33 200.195,1199.67 208.5,1200.5C 208.5,1202.5 208.5,1204.5 208.5,1206.5C 211.91,1206.62 213.244,1204.95 212.5,1201.5C 238.366,1206.56 257.533,1220.56 270,1243.5C 281.595,1288.16 265.095,1315.99 220.5,1327C 207.167,1327.67 193.833,1327.67 180.5,1327C 167.66,1326.21 155.994,1322.21 145.5,1315C 137.084,1307.99 133.751,1298.99 135.5,1288C 135.212,1263.19 143.045,1241.36 159,1222.5C 167.117,1213.85 175.284,1206.19 183.5,1199.5 Z"/></g>
<g><path style="opacity:0.657" fill="#000000" d="M 2036.5,1198.5 C 2044.43,1199.1 2048.77,1203.43 2049.5,1211.5C 2048.43,1214.2 2047.43,1216.87 2046.5,1219.5C 2045.13,1219.66 2043.79,1219.49 2042.5,1219C 2040.04,1214.24 2036.87,1210.07 2033,1206.5C 2032.28,1202.95 2033.45,1200.28 2036.5,1198.5 Z"/></g>
<g><path style="opacity:0.602" fill="#000000" d="M 1004.5,1202.5 C 1009.75,1204.21 1014.58,1206.88 1019,1210.5C 1021.79,1214.15 1022.29,1218.15 1020.5,1222.5C 1019.02,1222.76 1017.69,1222.43 1016.5,1221.5C 1013.36,1217.35 1009.53,1214.02 1005,1211.5C 1002,1208.56 1001.84,1205.56 1004.5,1202.5 Z"/></g>
<g><path style="opacity:0.687" fill="#000000" d="M 1357.5,1213.5 C 1364.49,1214.29 1366.16,1217.79 1362.5,1224C 1354.9,1228.97 1346.9,1233.13 1338.5,1236.5C 1338.07,1239.52 1336.74,1242.02 1334.5,1244C 1331.25,1245.46 1327.92,1246.63 1324.5,1247.5C 1322.49,1247.16 1320.49,1246.83 1318.5,1246.5C 1317.68,1241.81 1319.68,1239.31 1324.5,1239C 1329.32,1235.09 1334.32,1231.42 1339.5,1228C 1340.96,1226.26 1342.29,1224.42 1343.5,1222.5C 1348.23,1219.48 1352.9,1216.48 1357.5,1213.5 Z"/></g>
<g><path style="opacity:0.698" fill="#000000" d="M 2056.5,1227.5 C 2069,1227.83 2077,1234 2080.5,1246C 2079.42,1249.13 2078.42,1252.3 2077.5,1255.5C 2076.68,1256.39 2075.68,1256.72 2074.5,1256.5C 2071.91,1251.49 2068.91,1246.66 2065.5,1242C 2060.55,1239.52 2055.55,1237.36 2050.5,1235.5C 2050.21,1233.71 2050.55,1232.05 2051.5,1230.5C 2053.4,1229.73 2055.06,1228.73 2056.5,1227.5 Z"/></g>
<g><path style="opacity:0.683" fill="#000000" d="M 1036.5,1231.5 C 1043.7,1232.83 1049.2,1236.5 1053,1242.5C 1054.46,1248.12 1052.8,1252.45 1048,1255.5C 1044.82,1253.31 1042.82,1250.31 1042,1246.5C 1037.67,1245.01 1034.34,1242.35 1032,1238.5C 1031.5,1234.82 1033,1232.48 1036.5,1231.5 Z"/></g>
<g><path style="opacity:0.758" fill="#000000" d="M 209.5,1235.5 C 212.695,1234.96 215.195,1235.96 217,1238.5C 218.326,1251.7 217.326,1264.7 214,1277.5C 210.833,1285.83 207.667,1294.17 204.5,1302.5C 199.695,1305.6 196.362,1304.43 194.5,1299C 197.667,1289.5 200.833,1280 204,1270.5C 205.921,1260.94 206.921,1251.27 207,1241.5C 207.573,1239.36 208.406,1237.36 209.5,1235.5 Z"/></g>
<g><path style="opacity:0.687" fill="#000000" d="M 1305.5,1251.5 C 1306.83,1251.5 1308.17,1251.5 1309.5,1251.5C 1308.7,1258.81 1305.2,1264.47 1299,1268.5C 1297.21,1274.53 1293.37,1276.03 1287.5,1273C 1285.03,1269.65 1284.86,1266.15 1287,1262.5C 1293.01,1258.42 1299.18,1254.75 1305.5,1251.5 Z"/></g>
<g><path style="opacity:0.658" fill="#000000" d="M 1073.5,1281.5 C 1069.32,1279.51 1065.48,1276.84 1062,1273.5C 1060.31,1268.58 1061.98,1265.58 1067,1264.5C 1075.64,1267.14 1079.14,1272.81 1077.5,1281.5C 1076.17,1281.5 1074.83,1281.5 1073.5,1281.5 Z"/></g>
<g><path style="opacity:0.626" fill="#000000" d="M 2086.5,1267.5 C 2094.61,1268.11 2099.94,1272.28 2102.5,1280C 2101.62,1282.93 2100.12,1285.43 2098,1287.5C 2093.73,1283.91 2089.39,1280.24 2085,1276.5C 2083.75,1273.99 2083.25,1271.32 2083.5,1268.5C 2084.79,1268.74 2085.79,1268.4 2086.5,1267.5 Z"/></g>
<g><path style="opacity:0.737" fill="#000000" d="M 1209.5,1339.5 C 1209.5,1338.83 1209.17,1338.5 1208.5,1338.5C 1207.02,1335.42 1207.18,1332.42 1209,1329.5C 1220.58,1318.58 1232.75,1308.41 1245.5,1299C 1247.27,1298.03 1249.11,1297.2 1251,1296.5C 1252.47,1297.33 1253.97,1297.5 1255.5,1297C 1256.31,1294.91 1257.31,1292.91 1258.5,1291C 1265.57,1286.27 1272.91,1281.93 1280.5,1278C 1283.82,1277.5 1287.15,1277.33 1290.5,1277.5C 1290.66,1278.87 1290.49,1280.21 1290,1281.5C 1284,1289.15 1276.5,1294.98 1267.5,1299C 1266.37,1300.75 1265.37,1302.59 1264.5,1304.5C 1260.9,1306.28 1258.4,1305.28 1257,1301.5C 1254.92,1305.58 1252.09,1309.08 1248.5,1312C 1236.92,1320.24 1225.92,1329.24 1215.5,1339C 1213.53,1339.5 1211.53,1339.66 1209.5,1339.5 Z"/></g>
<g><path style="opacity:0.767" fill="#000000" d="M 1208.5,1338.5 C 1209.17,1338.5 1209.5,1338.83 1209.5,1339.5C 1224.98,1349.13 1231.98,1363.13 1230.5,1381.5C 1230.52,1390.56 1229.86,1399.56 1228.5,1408.5C 1246.17,1409.82 1263.83,1409.66 1281.5,1408C 1294.54,1405.16 1307.54,1402.16 1320.5,1399C 1372.35,1393.36 1424.35,1391.36 1476.5,1393C 1532.21,1397.84 1587.55,1405.51 1642.5,1416C 1668.39,1419.99 1694.39,1422.99 1720.5,1425C 1799.18,1425.71 1877.85,1426.71 1956.5,1428C 1979.05,1422.89 2001.88,1420.72 2025,1421.5C 2034.5,1421.67 2044,1421.83 2053.5,1422C 2057.12,1424.64 2061.12,1426.48 2065.5,1427.5C 2065.83,1427.17 2066.17,1426.83 2066.5,1426.5C 2064.94,1422.38 2063.11,1418.38 2061,1414.5C 2054.96,1408.13 2049.29,1401.46 2044,1394.5C 2042.68,1387.49 2045.51,1384.99 2052.5,1387C 2059.36,1394.56 2065.86,1402.39 2072,1410.5C 2073.89,1415.94 2076.55,1420.94 2080,1425.5C 2080.67,1427.17 2080.67,1428.83 2080,1430.5C 2065.24,1443.98 2049.4,1456.14 2032.5,1467C 2031.75,1469.4 2030.42,1471.9 2028.5,1474.5C 2024.04,1477.39 2019.87,1477.06 2016,1473.5C 2015.25,1470.7 2015.58,1468.03 2017,1465.5C 2028.36,1455.24 2040.53,1446.07 2053.5,1438C 2053.96,1437.59 2054.29,1437.09 2054.5,1436.5C 2053.5,1435.67 2052.5,1434.83 2051.5,1434C 2032.17,1433.33 2012.83,1433.33 1993.5,1434C 1982.41,1435.11 1971.41,1436.77 1960.5,1439C 1953,1439.17 1945.5,1439.33 1938,1439.5C 1862.16,1438.73 1786.32,1437.57 1710.5,1436C 1687.76,1433.99 1665.09,1431.32 1642.5,1428C 1588.19,1417.73 1533.52,1410.06 1478.5,1405C 1427.38,1403.28 1376.38,1404.94 1325.5,1410C 1310.46,1413.18 1295.46,1416.51 1280.5,1420C 1262.46,1420.82 1244.46,1420.65 1226.5,1419.5C 1217.33,1446.84 1199.33,1466 1172.5,1477C 1161.36,1482.03 1149.69,1485.03 1137.5,1486C 1123.83,1486.67 1110.17,1486.67 1096.5,1486C 1090.48,1485.06 1084.48,1484.39 1078.5,1484C 1070.98,1491.02 1063.32,1497.85 1055.5,1504.5C 1054.23,1503.57 1052.9,1503.41 1051.5,1504C 1047.47,1513.71 1041.47,1522.04 1033.5,1529C 1030.2,1531.41 1026.7,1531.91 1023,1530.5C 1019.14,1540.86 1012.8,1549.53 1004,1556.5C 1002.56,1562.47 999.39,1563.8 994.5,1560.5C 993.456,1558.23 993.289,1555.9 994,1553.5C 1000.5,1545.67 1007,1537.83 1013.5,1530C 1016.04,1528.91 1018.71,1528.24 1021.5,1528C 1020.72,1526.23 1020.89,1524.4 1022,1522.5C 1030.45,1516.55 1036.95,1508.88 1041.5,1499.5C 1043.68,1497.65 1046.01,1497.32 1048.5,1498.5C 1049.92,1496.66 1051.09,1494.66 1052,1492.5C 1057.08,1488.36 1061.91,1483.86 1066.5,1479C 1040.08,1466.84 1028.41,1446.17 1031.5,1417C 1029.13,1382.44 1039.63,1352.61 1063,1327.5C 1071.03,1319.25 1079.53,1311.58 1088.5,1304.5C 1082.2,1301.37 1078.37,1296.37 1077,1289.5C 1075,1288.17 1073,1286.83 1071,1285.5C 1070.51,1284.21 1070.34,1282.87 1070.5,1281.5C 1071.5,1281.5 1072.5,1281.5 1073.5,1281.5C 1076.08,1285.19 1079.75,1287.02 1084.5,1287C 1087.56,1289.72 1090.89,1292.06 1094.5,1294C 1095.33,1295.82 1096.16,1297.65 1097,1299.5C 1107.39,1291.89 1118.56,1285.72 1130.5,1281C 1138.51,1280.67 1146.51,1281 1154.5,1282C 1155.97,1282.71 1156.64,1283.88 1156.5,1285.5C 1148.44,1285.18 1140.44,1285.68 1132.5,1287C 1125.22,1289.64 1118.56,1293.3 1112.5,1298C 1091.33,1313.83 1072.83,1332.33 1057,1353.5C 1049.52,1366.14 1045.19,1379.8 1044,1394.5C 1043.33,1408.83 1043.33,1423.17 1044,1437.5C 1047.06,1450.42 1054.56,1459.92 1066.5,1466C 1082.59,1473.01 1099.43,1475.85 1117,1474.5C 1143.28,1476.64 1167.11,1470.14 1188.5,1455C 1206.02,1440.75 1215.86,1422.25 1218,1399.5C 1218.94,1387.43 1218.6,1375.43 1217,1363.5C 1211.08,1355.25 1203.58,1348.75 1194.5,1344C 1174.74,1335.08 1154.74,1326.75 1134.5,1319C 1129.07,1313.99 1129.9,1310.16 1137,1307.5C 1161.54,1316.4 1185.38,1326.73 1208.5,1338.5 Z"/></g>
<g><path style="opacity:0.71" fill="#000000" d="M 2113.5,1290.5 C 2125.03,1293.86 2131.7,1301.53 2133.5,1313.5C 2132.86,1316.32 2131.53,1318.82 2129.5,1321C 2128.1,1321.59 2126.77,1321.43 2125.5,1320.5C 2123.19,1316.75 2121.36,1312.75 2120,1308.5C 2117.15,1304.64 2113.48,1301.98 2109,1300.5C 2106.74,1295.44 2108.24,1292.1 2113.5,1290.5 Z"/></g>
<g><path style="opacity:0.773" fill="#000000" d="M 2239.5,1309.5 C 2246.84,1309.78 2254.18,1310.28 2261.5,1311C 2262.38,1312.36 2262.71,1313.86 2262.5,1315.5C 2248.44,1314.75 2234.78,1316.59 2221.5,1321C 2203.29,1329.94 2184.95,1338.61 2166.5,1347C 2153.81,1354.01 2141.81,1362.01 2130.5,1371C 2105.74,1394.86 2097.91,1423.36 2107,1456.5C 2116.44,1467.98 2128.27,1476.15 2142.5,1481C 2158.42,1486.15 2174.75,1488.82 2191.5,1489C 2234.22,1493.09 2273.22,1483.09 2308.5,1459C 2316.51,1452.33 2323.01,1444.5 2328,1435.5C 2332.92,1419.33 2330.58,1404.33 2321,1390.5C 2305.53,1369.69 2287.36,1351.53 2266.5,1336C 2263.83,1334.3 2260.99,1333.13 2258,1332.5C 2254.74,1331.93 2253.24,1333.27 2253.5,1336.5C 2252.5,1336.5 2251.5,1336.5 2250.5,1336.5C 2250.33,1333.15 2250.5,1329.82 2251,1326.5C 2252.48,1322.67 2255.31,1320.67 2259.5,1320.5C 2264.23,1321.46 2268.56,1323.3 2272.5,1326C 2293.27,1341.77 2311.77,1359.93 2328,1380.5C 2340.99,1396.8 2344.99,1415.13 2340,1435.5C 2332.42,1453.75 2319.92,1467.58 2302.5,1477C 2263.13,1498.67 2221.13,1506.34 2176.5,1500C 2149.77,1498.09 2125.93,1488.93 2105,1472.5C 2096.01,1463.37 2091.17,1452.37 2090.5,1439.5C 2090.11,1408.16 2101.44,1381.99 2124.5,1361C 2131.69,1355.25 2139.03,1349.75 2146.5,1344.5C 2141.96,1338.3 2138.29,1331.63 2135.5,1324.5C 2136.95,1319.55 2139.95,1318.38 2144.5,1321C 2149.37,1326.57 2153.37,1332.74 2156.5,1339.5C 2179.61,1327.74 2203.61,1318.24 2228.5,1311C 2232.36,1310.82 2236.02,1310.32 2239.5,1309.5 Z"/></g>
<g><path style="opacity:0.737" fill="#000000" d="M 236.5,1335.5 C 238.792,1335.24 240.959,1335.58 243,1336.5C 246.601,1347.03 251.267,1357.03 257,1366.5C 258.149,1369.39 258.649,1372.39 258.5,1375.5C 255.412,1374.88 252.412,1374.38 249.5,1374C 246.96,1371.8 244.793,1369.3 243,1366.5C 239.805,1359.25 236.805,1351.91 234,1344.5C 233.131,1341.01 233.964,1338.01 236.5,1335.5 Z"/></g>
<g><path style="opacity:0.765" fill="#000000" d="M 1129.5,1336.5 C 1134.09,1335.42 1137.09,1337.08 1138.5,1341.5C 1131.23,1350.96 1124.07,1360.62 1117,1370.5C 1113.7,1376.39 1112.86,1382.55 1114.5,1389C 1119.43,1390.16 1124.43,1390.66 1129.5,1390.5C 1129.33,1381.49 1129.5,1372.49 1130,1363.5C 1133.35,1357.47 1137.02,1357.14 1141,1362.5C 1141.33,1371.5 1141.67,1380.5 1142,1389.5C 1146.64,1387.68 1150.97,1385.35 1155,1382.5C 1158.74,1383.3 1160.57,1385.63 1160.5,1389.5C 1160.59,1391.91 1159.59,1393.74 1157.5,1395C 1152.44,1397.7 1147.1,1399.54 1141.5,1400.5C 1141.1,1407.13 1141.77,1413.63 1143.5,1420C 1143.09,1422.91 1141.43,1424.74 1138.5,1425.5C 1135.91,1424.41 1133.74,1422.74 1132,1420.5C 1130.37,1414.62 1129.54,1408.62 1129.5,1402.5C 1122.3,1402.5 1115.3,1401.33 1108.5,1399C 1101.51,1392.12 1099.68,1383.96 1103,1374.5C 1109.36,1359.99 1118.2,1347.33 1129.5,1336.5 Z"/></g>
<g><path style="opacity:0.753" fill="#000000" d="M 2233.5,1360.5 C 2243.32,1362.6 2252.99,1365.44 2262.5,1369C 2267.92,1370.54 2273.42,1371.71 2279,1372.5C 2282.61,1369.13 2286.44,1368.8 2290.5,1371.5C 2293.72,1381.29 2290.05,1385.29 2279.5,1383.5C 2272.3,1383.56 2265.3,1382.39 2258.5,1380C 2249.83,1377 2241.17,1374 2232.5,1371C 2228.5,1367.15 2228.83,1363.65 2233.5,1360.5 Z"/></g>
<g><path style="opacity:0.719" fill="#000000" d="M 265.5,1370.5 C 266.873,1370.34 268.207,1370.51 269.5,1371C 274.667,1376.83 279.833,1382.67 285,1388.5C 287.115,1392.57 288.281,1396.9 288.5,1401.5C 275.817,1396.99 266.817,1388.49 261.5,1376C 262.007,1373.45 263.341,1371.62 265.5,1370.5 Z"/></g>
<g><path style="opacity:0.765" fill="#000000" d="M 2208.5,1371.5 C 2215.89,1371.25 2223.22,1371.75 2230.5,1373C 2236.84,1375.36 2237.84,1379.02 2233.5,1384C 2225.85,1383.93 2218.18,1383.76 2210.5,1383.5C 2210.34,1386.52 2210.5,1389.52 2211,1392.5C 2219.7,1399.02 2228.04,1406.02 2236,1413.5C 2240.35,1418.6 2241.35,1424.27 2239,1430.5C 2237.83,1431.67 2236.67,1432.83 2235.5,1434C 2216.76,1440.96 2197.43,1443.63 2177.5,1442C 2173.14,1439.77 2171.64,1436.27 2173,1431.5C 2175.48,1428.72 2178.65,1427.39 2182.5,1427.5C 2182.5,1428.83 2182.5,1430.17 2182.5,1431.5C 2193.58,1431.18 2204.58,1430.01 2215.5,1428C 2220.05,1426.98 2224.39,1425.48 2228.5,1423.5C 2223.28,1416.78 2216.94,1411.28 2209.5,1407C 2199.52,1399.74 2196.36,1390.24 2200,1378.5C 2201.85,1374.84 2204.68,1372.51 2208.5,1371.5 Z"/></g>
<g><path style="opacity:0.698" fill="#000000" d="M 291.5,1402.5 C 293.5,1402.83 295.5,1403.17 297.5,1403.5C 297.998,1406.49 298.498,1409.49 299,1412.5C 301.039,1414.87 303.372,1416.87 306,1418.5C 307.665,1421.08 308.665,1423.74 309,1426.5C 296.633,1428.31 289.467,1422.98 287.5,1410.5C 287.753,1408.14 288.086,1405.81 288.5,1403.5C 289.791,1403.74 290.791,1403.4 291.5,1402.5 Z"/></g>
<g><path style="opacity:0.627" fill="#000000" d="M 324.5,1435.5 C 326.17,1435.75 327.67,1436.42 329,1437.5C 331.928,1445.54 335.428,1453.21 339.5,1460.5C 334.811,1457.87 329.811,1455.71 324.5,1454C 317.904,1447.53 317.904,1441.37 324.5,1435.5 Z"/></g>
<g><path style="opacity:0.671" fill="#000000" d="M 346.5,1469.5 C 350.917,1469.08 353.417,1471.08 354,1475.5C 361.411,1478.04 364.244,1483.04 362.5,1490.5C 363.248,1492.33 364.248,1494 365.5,1495.5C 365.113,1496.72 364.28,1497.39 363,1497.5C 356.665,1492.16 350.332,1486.82 344,1481.5C 341.523,1476.67 342.356,1472.67 346.5,1469.5 Z"/></g>
<g><path style="opacity:0.55" fill="#000000" d="M 2141.5,1505.5 C 2143.17,1505.5 2144.83,1505.5 2146.5,1505.5C 2146.12,1513.75 2142.45,1520.25 2135.5,1525C 2133.07,1526.59 2130.41,1527.42 2127.5,1527.5C 2127.34,1526.13 2127.51,1524.79 2128,1523.5C 2131.33,1519.17 2134.99,1515.17 2139,1511.5C 2139.94,1509.51 2140.77,1507.51 2141.5,1505.5 Z"/></g>
<g><path style="opacity:0.657" fill="#000000" d="M 374.5,1510.5 C 381.968,1510.96 386.302,1514.96 387.5,1522.5C 387.656,1525.23 387.156,1527.89 386,1530.5C 378.583,1528.58 374.083,1523.92 372.5,1516.5C 372.611,1514.29 373.278,1512.29 374.5,1510.5 Z"/></g>
<g><path style="opacity:0.538" fill="#000000" d="M 2118.5,1530.5 C 2120.17,1530.5 2121.83,1530.5 2123.5,1530.5C 2123.66,1532.53 2123.5,1534.53 2123,1536.5C 2116.34,1543.51 2108.84,1549.34 2100.5,1554C 2097.52,1554.5 2094.52,1554.66 2091.5,1554.5C 2091.29,1552.86 2091.62,1551.36 2092.5,1550C 2094.71,1548.96 2097.05,1548.29 2099.5,1548C 2106,1542.33 2112.34,1536.5 2118.5,1530.5 Z"/></g>
<g><path style="opacity:0.665" fill="#000000" d="M 400.5,1540.5 C 408.084,1544.76 410.917,1551.1 409,1559.5C 408.653,1561.18 407.653,1562.18 406,1562.5C 404.502,1560.44 402.502,1559.11 400,1558.5C 399.194,1555.55 397.861,1552.89 396,1550.5C 394.315,1545.49 395.815,1542.15 400.5,1540.5 Z"/></g>
<g><path style="opacity:0.694" fill="#000000" d="M 2069.5,1562.5 C 2072.93,1561.76 2074.6,1563.09 2074.5,1566.5C 2074.02,1570.29 2072.35,1573.46 2069.5,1576C 2063.09,1580.57 2056.09,1582.73 2048.5,1582.5C 2046.9,1579.3 2047.23,1576.3 2049.5,1573.5C 2056.84,1570.83 2063.51,1567.17 2069.5,1562.5 Z"/></g>
<g><path style="opacity:0.686" fill="#000000" d="M 959.5,1578.5 C 960.5,1578.5 961.5,1578.5 962.5,1578.5C 959.297,1585.03 954.963,1590.86 949.5,1596C 947.283,1597.28 944.949,1598.28 942.5,1599C 936.801,1604.36 931.467,1610.03 926.5,1616C 924.888,1616.72 923.388,1616.55 922,1615.5C 920.75,1612.92 920.416,1610.26 921,1607.5C 923.831,1602.52 927.165,1597.85 931,1593.5C 937.342,1591.06 942.842,1587.23 947.5,1582C 951.531,1580.51 955.531,1579.34 959.5,1578.5 Z"/></g>
<g><path style="opacity:0.65" fill="#000000" d="M 416.5,1584.5 C 425.384,1586.02 432.884,1590.02 439,1596.5C 439.498,1599.48 439.665,1602.48 439.5,1605.5C 433.279,1604.26 427.612,1601.76 422.5,1598C 417.918,1594.6 415.918,1590.1 416.5,1584.5 Z"/></g>
<g><path style="opacity:0.65" fill="#000000" d="M 2038.5,1586.5 C 2039.15,1587.27 2039.48,1588.27 2039.5,1589.5C 2038.23,1592.31 2037.4,1595.31 2037,1598.5C 2034.33,1601.83 2031.67,1605.17 2029,1608.5C 2023.83,1613.5 2017.66,1615.84 2010.5,1615.5C 2010.34,1613.47 2010.5,1611.47 2011,1609.5C 2017.35,1604.57 2023.19,1599.07 2028.5,1593C 2032.53,1591.79 2035.86,1589.62 2038.5,1586.5 Z"/></g>
<g><path style="opacity:0.725" fill="#000000" d="M 448.5,1613.5 C 450.655,1613.37 452.655,1613.87 454.5,1615C 458.667,1619.83 462.833,1624.67 467,1629.5C 468.037,1632.28 468.87,1635.11 469.5,1638C 468.098,1643.93 464.765,1645.1 459.5,1641.5C 456.578,1634.66 452.411,1628.66 447,1623.5C 444.739,1619.65 445.239,1616.32 448.5,1613.5 Z"/></g>
<g><path style="opacity:0.742" fill="#000000" d="M 1986.5,1614.5 C 1988.17,1614.5 1989.83,1614.5 1991.5,1614.5C 1992.63,1621.73 1990.3,1627.57 1984.5,1632C 1974.91,1638.26 1964.58,1643.09 1953.5,1646.5C 1947.64,1643.68 1946.97,1639.84 1951.5,1635C 1958.91,1632.2 1966.25,1629.2 1973.5,1626C 1977.96,1622.14 1982.3,1618.31 1986.5,1614.5 Z"/></g>
<g><path style="opacity:0.666" fill="#000000" d="M 905.5,1632.5 C 907.167,1632.5 908.833,1632.5 910.5,1632.5C 910.383,1634.48 911.05,1636.15 912.5,1637.5C 910.736,1642.86 908.069,1647.7 904.5,1652C 901.012,1653.6 897.512,1654.1 894,1653.5C 895.2,1645.1 899.034,1638.1 905.5,1632.5 Z"/></g>
<g><path style="opacity:0.692" fill="#000000" d="M 468.5,1648.5 C 478.96,1651.12 483.793,1657.79 483,1668.5C 481.316,1670.35 479.483,1672.02 477.5,1673.5C 473.81,1670.8 471.644,1667.13 471,1662.5C 468,1660.83 465.667,1658.5 464,1655.5C 463.405,1654.1 463.572,1652.77 464.5,1651.5C 465.901,1650.48 467.235,1649.48 468.5,1648.5 Z"/></g>
<g><path style="opacity:0.715" fill="#000000" d="M 1924.5,1655.5 C 1926.5,1655.5 1928.5,1655.5 1930.5,1655.5C 1929.24,1660.6 1926.24,1664.44 1921.5,1667C 1910.23,1673.3 1898.57,1678.47 1886.5,1682.5C 1882.7,1683.04 1880.7,1681.37 1880.5,1677.5C 1881.46,1675.08 1882.79,1672.92 1884.5,1671C 1890.15,1668.03 1895.81,1665.03 1901.5,1662C 1904.61,1661.32 1907.28,1662.15 1909.5,1664.5C 1914.73,1661.73 1919.73,1658.73 1924.5,1655.5 Z"/></g>
<g><path style="opacity:0.619" fill="#000000" d="M 885.5,1657.5 C 891.131,1656.62 892.631,1658.62 890,1663.5C 887.05,1668.12 883.716,1672.45 880,1676.5C 879.591,1681.97 877.258,1683.31 873,1680.5C 872.333,1679.17 872.333,1677.83 873,1676.5C 877.389,1670.28 881.556,1663.95 885.5,1657.5 Z"/></g>
<g><path style="opacity:0.7" fill="#000000" d="M 478.5,1674.5 C 484.402,1674.03 488.902,1676.37 492,1681.5C 496.004,1686.56 497.338,1692.22 496,1698.5C 494.382,1701.29 493.215,1704.29 492.5,1707.5C 491.675,1708.39 490.675,1708.72 489.5,1708.5C 488.742,1702.93 487.242,1697.59 485,1692.5C 482.696,1688.2 479.696,1684.54 476,1681.5C 475.162,1678.52 475.995,1676.19 478.5,1674.5 Z"/></g>
<g><path style="opacity:0.702" fill="#000000" d="M 862.5,1689.5 C 864.833,1689.5 867.167,1689.5 869.5,1689.5C 869.469,1699.2 864.802,1705.54 855.5,1708.5C 850.587,1707.58 849.254,1704.74 851.5,1700C 855.014,1696.32 858.681,1692.82 862.5,1689.5 Z"/></g>
<g><path style="opacity:0.654" fill="#000000" d="M 1840.5,1695.5 C 1842.5,1695.5 1844.5,1695.5 1846.5,1695.5C 1844.21,1702.9 1840.21,1709.4 1834.5,1715C 1823.39,1721.12 1812.56,1727.62 1802,1734.5C 1797.47,1732.74 1796.47,1729.74 1799,1725.5C 1803.9,1721.59 1809.4,1719.09 1815.5,1718C 1817.9,1715.94 1820.57,1714.27 1823.5,1713C 1827,1708.17 1830.5,1703.33 1834,1698.5C 1836.17,1697.27 1838.33,1696.27 1840.5,1695.5 Z"/></g>
<g><path style="opacity:0.778" fill="#000000" d="M 1539.5,1698.5 C 1555.63,1697.95 1571.63,1699.12 1587.5,1702C 1614,1707.39 1639.66,1715.39 1664.5,1726C 1700.95,1741.37 1716.95,1768.87 1712.5,1808.5C 1713.69,1828.34 1711.19,1847.67 1705,1866.5C 1699.13,1879.7 1690.3,1890.54 1678.5,1899C 1662.4,1913.21 1645.4,1926.21 1627.5,1938C 1611.31,1948.27 1593.64,1952.77 1574.5,1951.5C 1521.8,1953.25 1487.97,1928.91 1473,1878.5C 1471.02,1869.12 1470.18,1859.62 1470.5,1850C 1469.43,1831.71 1472.59,1814.21 1480,1797.5C 1490.2,1772.98 1505.37,1752.14 1525.5,1735C 1534.33,1729.49 1543.99,1726.83 1554.5,1727C 1557.64,1724.97 1559.31,1725.97 1559.5,1730C 1559.51,1731.81 1558.84,1733.31 1557.5,1734.5C 1546.13,1736.02 1536.13,1740.52 1527.5,1748C 1500.69,1773.45 1485.53,1804.61 1482,1841.5C 1479.04,1879.06 1492.87,1908.56 1523.5,1930C 1539.66,1937.46 1556.66,1940.63 1574.5,1939.5C 1591.56,1941.15 1607.22,1937.32 1621.5,1928C 1645.44,1912.07 1667.6,1893.91 1688,1873.5C 1695.18,1862.64 1699.18,1850.64 1700,1837.5C 1702.53,1816.04 1701.86,1794.71 1698,1773.5C 1693.13,1759.29 1683.96,1748.79 1670.5,1742C 1637.6,1725.81 1602.93,1715.48 1566.5,1711C 1555.44,1710.09 1544.44,1710.43 1533.5,1712C 1524.83,1717 1518.67,1724.17 1515,1733.5C 1510.75,1720.57 1514.25,1710.4 1525.5,1703C 1530.13,1700.96 1534.79,1699.46 1539.5,1698.5 Z"/></g>
<g><path style="opacity:0.651" fill="#000000" d="M 498.5,1712.5 C 505.103,1712.76 510.936,1715.09 516,1719.5C 519.306,1724.45 521.806,1729.78 523.5,1735.5C 523.24,1737.19 522.573,1738.69 521.5,1740C 522.833,1741.67 522.833,1743.33 521.5,1745C 520.365,1745.75 519.365,1745.58 518.5,1744.5C 517.589,1741.42 515.756,1739.09 513,1737.5C 509.75,1730 505.25,1723.34 499.5,1717.5C 498.691,1715.93 498.357,1714.26 498.5,1712.5 Z"/></g>
<g><path style="opacity:0.667" fill="#000000" d="M 843.5,1717.5 C 852.08,1717.36 854.08,1720.69 849.5,1727.5C 845.668,1730.25 841.668,1732.75 837.5,1735C 829.491,1736.15 827.657,1733.31 832,1726.5C 835.733,1723.25 839.566,1720.25 843.5,1717.5 Z"/></g>
<g><path style="opacity:0.713" fill="#000000" d="M 1784.5,1735.5 C 1791.07,1734.42 1793.23,1737.09 1791,1743.5C 1789.54,1745.96 1787.71,1748.13 1785.5,1750C 1778.67,1754.41 1771.34,1757.75 1763.5,1760C 1764.46,1762.65 1763.96,1765.15 1762,1767.5C 1756.27,1772.29 1750.1,1776.45 1743.5,1780C 1739.14,1785.54 1733.81,1789.7 1727.5,1792.5C 1721.27,1791.31 1720.11,1788.31 1724,1783.5C 1733.25,1772.62 1744.42,1764.29 1757.5,1758.5C 1757.98,1755.37 1759.32,1752.71 1761.5,1750.5C 1771.01,1748.25 1778.68,1743.25 1784.5,1735.5 Z"/></g>
<g><path style="opacity:0.638" fill="#000000" d="M 817.5,1741.5 C 828.095,1740.36 829.762,1743.36 822.5,1750.5C 818.469,1752.52 814.469,1754.52 810.5,1756.5C 807.337,1763.23 805.004,1762.9 803.5,1755.5C 804.068,1751.43 806.068,1748.27 809.5,1746C 812.391,1744.73 815.058,1743.23 817.5,1741.5 Z"/></g>
<g><path style="opacity:0.719" fill="#000000" d="M 534.5,1750.5 C 537.271,1750.42 539.937,1750.92 542.5,1752C 549.301,1756.79 554.634,1762.79 558.5,1770C 557.016,1774.91 554.016,1776.24 549.5,1774C 544.615,1768.61 539.282,1763.78 533.5,1759.5C 530.64,1756.1 530.974,1753.1 534.5,1750.5 Z"/></g>
<g><path style="opacity:0.64" fill="#000000" d="M 800.5,1762.5 C 804.134,1762.16 805.8,1763.82 805.5,1767.5C 802.324,1776.52 796.657,1783.69 788.5,1789C 783.703,1791.61 778.703,1792.11 773.5,1790.5C 773.178,1788.28 773.845,1786.44 775.5,1785C 780.309,1785.42 784.309,1783.92 787.5,1780.5C 792.823,1775.18 797.156,1769.18 800.5,1762.5 Z"/></g>
<g><path style="opacity:0.773" fill="#000000" d="M 600.5,1767.5 C 606.07,1767.07 611.404,1767.74 616.5,1769.5C 616.5,1771.17 616.5,1772.83 616.5,1774.5C 611.969,1773.94 607.302,1774.1 602.5,1775C 601.167,1776.33 599.833,1777.67 598.5,1779C 631.741,1787.39 664.074,1798.39 695.5,1812C 707.15,1817.49 718.483,1823.49 729.5,1830C 751.807,1848.24 760.307,1871.74 755,1900.5C 751.449,1927.44 739.616,1949.94 719.5,1968C 708.609,1976.28 696.276,1980.12 682.5,1979.5C 656.805,1979.14 633.471,1971.64 612.5,1957C 599.092,1947.59 586.925,1936.76 576,1924.5C 567.963,1913.73 562.63,1901.73 560,1888.5C 557.784,1865.13 558.117,1841.79 561,1818.5C 567.174,1798.7 578.341,1782.53 594.5,1770C 596.723,1769.43 598.723,1768.6 600.5,1767.5 Z M 588.5,1789.5 C 633.789,1798.76 676.789,1814.26 717.5,1836C 730.962,1843.8 739.462,1855.3 743,1870.5C 748.348,1906.47 737.515,1936.31 710.5,1960C 702.139,1965.73 692.805,1968.23 682.5,1967.5C 657.608,1967.38 635.274,1959.88 615.5,1945C 603.355,1936.19 592.522,1926.02 583,1914.5C 576.659,1905.49 572.659,1895.49 571,1884.5C 569.786,1868.85 569.453,1853.18 570,1837.5C 569.806,1818.91 575.972,1802.91 588.5,1789.5 Z"/></g>
<g><path style="opacity:0.732" fill="#000000" d="M 769.5,1790.5 C 773.642,1790.4 775.976,1792.4 776.5,1796.5C 769.479,1808.69 760.145,1818.86 748.5,1827C 745.264,1828.72 741.93,1828.89 738.5,1827.5C 738.248,1824.68 738.748,1822.01 740,1819.5C 750.392,1810.27 760.226,1800.61 769.5,1790.5 Z"/></g>
<g><path style="opacity:0.734" fill="#000000" d="M 1548.5,1815.5 C 1565.17,1815.33 1581.84,1815.5 1598.5,1816C 1608.87,1818.18 1618.87,1821.51 1628.5,1826C 1632.05,1830.74 1632.88,1835.91 1631,1841.5C 1625.46,1849.41 1620.29,1857.58 1615.5,1866C 1624.17,1866.37 1632.84,1866.87 1641.5,1867.5C 1644.2,1867.39 1646.87,1867.05 1649.5,1866.5C 1654.31,1868.42 1655.48,1871.76 1653,1876.5C 1651.93,1877.19 1650.77,1877.69 1649.5,1878C 1635.82,1878.17 1622.15,1878.67 1608.5,1879.5C 1600.82,1897.23 1595.15,1915.56 1591.5,1934.5C 1589.55,1934.77 1588.05,1934.11 1587,1932.5C 1585.6,1925.55 1585.27,1918.55 1586,1911.5C 1588.65,1900.22 1592.48,1889.38 1597.5,1879C 1588.59,1878.18 1579.76,1878.35 1571,1879.5C 1568.62,1878.45 1566.12,1877.78 1563.5,1877.5C 1561.59,1872.72 1562.93,1869.22 1567.5,1867C 1579.17,1866.67 1590.83,1866.33 1602.5,1866C 1608.18,1855.65 1614.68,1845.81 1622,1836.5C 1623.19,1834.96 1623.52,1833.29 1623,1831.5C 1616.02,1828.26 1608.85,1825.43 1601.5,1823C 1582.5,1822.5 1563.5,1822.33 1544.5,1822.5C 1544.34,1821.13 1544.51,1819.79 1545,1818.5C 1546.52,1817.84 1547.69,1816.84 1548.5,1815.5 Z"/></g>
<g><path style="opacity:0.793" fill="#000000" d="M 627.5,1825.5 C 633.094,1824.64 637.428,1826.47 640.5,1831C 639.311,1832.89 638.311,1834.89 637.5,1837C 635.892,1837.66 634.725,1837.16 634,1835.5C 632.333,1836.17 630.667,1836.83 629,1837.5C 620.715,1848.08 615.715,1860.08 614,1873.5C 612.818,1882.8 612.318,1892.13 612.5,1901.5C 623.583,1901.3 634.583,1902.13 645.5,1904C 654.899,1907.28 656.899,1913.12 651.5,1921.5C 640.965,1925.23 630.298,1925.4 619.5,1922C 615.717,1920.94 612.383,1919.11 609.5,1916.5C 605.559,1918.02 602.392,1917.02 600,1913.5C 600.405,1900.97 601.072,1888.3 602,1875.5C 604,1858.01 610.5,1842.51 621.5,1829C 623.432,1827.54 625.432,1826.37 627.5,1825.5 Z"/></g>
<g><path style="opacity:0.672" fill="#000000" d="M 1419.5,1867.5 C 1423.57,1867.23 1427.57,1867.57 1431.5,1868.5C 1434.26,1872.05 1433.6,1874.89 1429.5,1877C 1419.38,1878.68 1409.21,1879.85 1399,1880.5C 1397.12,1880.31 1395.95,1879.31 1395.5,1877.5C 1396.61,1874.56 1398.61,1872.39 1401.5,1871C 1407.66,1869.99 1413.66,1868.82 1419.5,1867.5 Z"/></g>
<g><path style="opacity:0.69" fill="#000000" d="M 1342.5,1871.5 C 1348.73,1870.94 1354.73,1871.77 1360.5,1874C 1362.59,1875.04 1364.25,1876.54 1365.5,1878.5C 1365.03,1880.13 1364.03,1881.3 1362.5,1882C 1355.21,1883.41 1347.88,1883.75 1340.5,1883C 1336.21,1880.62 1335.54,1877.45 1338.5,1873.5C 1340.03,1873.01 1341.36,1872.34 1342.5,1871.5 Z"/></g>
<g><path style="opacity:0.661" fill="#000000" d="M 1264.5,1875.5 C 1274.02,1874.85 1283.35,1875.69 1292.5,1878C 1293.83,1879.33 1293.83,1880.67 1292.5,1882C 1283.48,1885.39 1274.15,1886.39 1264.5,1885C 1262.37,1884.24 1261.03,1882.74 1260.5,1880.5C 1261.61,1878.58 1262.95,1876.91 1264.5,1875.5 Z"/></g>
<g><path style="opacity:0.704" fill="#000000" d="M 1160.5,1878.5 C 1166.84,1878.33 1173.18,1878.5 1179.5,1879C 1186.17,1882.67 1186.17,1886.33 1179.5,1890C 1171.65,1890.28 1163.82,1890.78 1156,1891.5C 1153.81,1891.21 1151.65,1890.88 1149.5,1890.5C 1149.68,1883.32 1153.35,1879.32 1160.5,1878.5 Z"/></g>
<g><path style="opacity:0.701" fill="#000000" d="M 1204.5,1881.5 C 1210.51,1881.33 1216.51,1881.5 1222.5,1882C 1226.9,1887.37 1225.57,1891.04 1218.5,1893C 1212.48,1893.3 1206.48,1893.8 1200.5,1894.5C 1193.84,1894.48 1191.68,1891.48 1194,1885.5C 1194.9,1884.3 1196.07,1883.47 1197.5,1883C 1200.04,1882.81 1202.37,1882.31 1204.5,1881.5 Z"/></g>
<g><path style="opacity:0.691" fill="#000000" d="M 1092.5,1893.5 C 1106.53,1896.83 1106.86,1900.83 1093.5,1905.5C 1092.91,1905.29 1092.41,1904.96 1092,1904.5C 1084.09,1905.86 1076.09,1906.86 1068,1907.5C 1064.49,1907.55 1061.16,1906.88 1058,1905.5C 1057.08,1902.69 1057.91,1900.53 1060.5,1899C 1071.22,1896.6 1081.89,1894.77 1092.5,1893.5 Z"/></g>
<g><path style="opacity:0.719" fill="#000000" d="M 838.5,1895.5 C 847.162,1894.66 855.495,1895.83 863.5,1899C 864.833,1900.33 864.833,1901.67 863.5,1903C 860.475,1903.13 857.808,1904.13 855.5,1906C 847.543,1907.11 839.543,1907.78 831.5,1908C 828.737,1908.55 826.07,1909.38 823.5,1910.5C 816.468,1907.88 815.802,1904.05 821.5,1899C 827.172,1897.21 832.839,1896.04 838.5,1895.5 Z"/></g>
<g><path style="opacity:0.658" fill="#000000" d="M 994.5,1896.5 C 1000.18,1896.33 1005.84,1896.5 1011.5,1897C 1013.72,1898.27 1015.72,1899.77 1017.5,1901.5C 1014.86,1903.61 1011.86,1905.11 1008.5,1906C 1001.51,1906.94 994.512,1907.27 987.5,1907C 986.251,1904.79 986.418,1902.62 988,1900.5C 990.013,1898.75 992.18,1897.42 994.5,1896.5 Z"/></g>
<g><path style="opacity:0.692" fill="#000000" d="M 898.5,1897.5 C 903.64,1896.9 907.64,1898.74 910.5,1903C 905.585,1908.66 899.251,1911.16 891.5,1910.5C 887.8,1910.66 884.3,1909.99 881,1908.5C 878.845,1905.46 879.012,1902.63 881.5,1900C 887.239,1898.93 892.906,1898.09 898.5,1897.5 Z"/></g>
<g><path style="opacity:0.667" fill="#000000" d="M 946.5,1900.5 C 950.846,1900.33 955.179,1900.5 959.5,1901C 962.346,1901.88 963.013,1903.55 961.5,1906C 952.989,1908.14 944.322,1909.31 935.5,1909.5C 935.178,1907.28 935.845,1905.44 937.5,1904C 940.571,1902.7 943.571,1901.54 946.5,1900.5 Z"/></g>
<g><path style="opacity:0.733" fill="#000000" d="M 805.5,1904.5 C 808.833,1904.5 812.167,1904.5 815.5,1904.5C 815.447,1913.05 811.114,1917.55 802.5,1918C 789.07,1919.04 775.736,1918.38 762.5,1916C 758.821,1914.12 757.821,1911.29 759.5,1907.5C 761.61,1906.11 763.943,1905.44 766.5,1905.5C 778.817,1906.59 791.151,1906.75 803.5,1906C 804.416,1905.72 805.082,1905.22 805.5,1904.5 Z"/></g>
</svg>
