<?xml version="1.0" encoding="UTF-8"?>
<!DOCTYPE svg PUBLIC "-//W3C//DTD SVG 1.1//EN" "http://www.w3.org/Graphics/SVG/1.1/DTD/svg11.dtd">
<svg xmlns="http://www.w3.org/2000/svg" version="1.1" width="2550px" height="2550px" style="shape-rendering:geometricPrecision; text-rendering:geometricPrecision; image-rendering:optimizeQuality; fill-rule:evenodd; clip-rule:evenodd" xmlns:xlink="http://www.w3.org/1999/xlink">
<g><path style="opacity:0.781" fill="#000000" d="M 1716.5,719.5 C 1729.65,718.829 1741.32,722.662 1751.5,731C 1759.64,738.135 1767.47,745.635 1775,753.5C 1781.96,763.058 1789.62,772.058 1798,780.5C 1804.45,788.286 1810.12,796.619 1815,805.5C 1837.7,851.014 1830.2,890.848 1792.5,925C 1776.08,938.38 1757.75,948.38 1737.5,955C 1688.29,961.959 1647.13,947.126 1614,910.5C 1608.8,904.432 1605.47,897.432 1604,889.5C 1602.94,865.112 1603.6,840.779 1606,816.5C 1608.33,804.514 1613.33,793.847 1621,784.5C 1633.24,770.261 1646.74,757.428 1661.5,746C 1675.41,738.104 1690.41,733.771 1706.5,733C 1708.38,730.057 1709.88,726.89 1711,723.5C 1712.81,722.023 1714.65,720.69 1716.5,719.5 Z M 1715.5,731.5 C 1725.01,730.28 1733.67,732.447 1741.5,738C 1749.6,744.095 1757.1,750.928 1764,758.5C 1775.29,772.792 1786.96,786.792 1799,800.5C 1805.49,811.966 1810.82,823.966 1815,836.5C 1819.9,866.81 1811.06,892.31 1788.5,913C 1773.5,926.336 1756.5,936.336 1737.5,943C 1713.53,946.488 1690.2,944.155 1667.5,936C 1654.81,928.992 1642.81,920.992 1631.5,912C 1624.75,905.929 1619.59,898.762 1616,890.5C 1614.15,867.815 1614.48,845.148 1617,822.5C 1618.4,810.368 1623.07,799.701 1631,790.5C 1641.17,779.328 1652.01,768.828 1663.5,759C 1668,755.245 1673,752.245 1678.5,750C 1691.91,747.276 1705.24,744.276 1718.5,741C 1720.68,739.814 1721.68,737.981 1721.5,735.5C 1717.95,735.905 1714.62,735.405 1711.5,734C 1713.07,733.392 1714.4,732.558 1715.5,731.5 Z M 1716.5,795.5 C 1719.83,795.5 1723.17,795.5 1726.5,795.5C 1725.47,804.226 1724.13,812.893 1722.5,821.5C 1714.91,823.625 1707.25,823.959 1699.5,822.5C 1700.37,810.422 1706.03,801.422 1716.5,795.5 Z"/></g>
<g><path style="opacity:0.794" fill="#000000" d="M 1721.5,834.5 C 1713.83,834.666 1706.16,834.5 1698.5,834C 1691.25,832.748 1687.58,828.415 1687.5,821C 1689.3,806.735 1695.96,795.402 1707.5,787C 1715.66,782.785 1723.83,782.618 1732,786.5C 1744.25,782.758 1750.09,787.258 1749.5,800C 1749.31,811.886 1744.47,821.386 1735,828.5C 1734.67,829.5 1734.33,830.5 1734,831.5C 1732.83,853.814 1732.16,876.147 1732,898.5C 1730.6,906.228 1726.1,911.062 1718.5,913C 1712.83,913.667 1707.17,913.667 1701.5,913C 1688.94,908.926 1676.61,904.259 1664.5,899C 1662.43,898.313 1660.43,898.48 1658.5,899.5C 1653.1,897.364 1651.6,893.697 1654,888.5C 1655.91,887.07 1658.07,886.404 1660.5,886.5C 1664.96,887.153 1669.29,888.32 1673.5,890C 1682.75,893.863 1692.09,897.529 1701.5,901C 1707.22,901.788 1712.89,901.621 1718.5,900.5C 1720.02,898.453 1720.85,896.119 1721,893.5C 1721.5,873.836 1721.67,854.169 1721.5,834.5 Z M 1716.5,795.5 C 1706.03,801.422 1700.37,810.422 1699.5,822.5C 1707.25,823.959 1714.91,823.625 1722.5,821.5C 1724.13,812.893 1725.47,804.226 1726.5,795.5C 1723.17,795.5 1719.83,795.5 1716.5,795.5 Z"/></g>
<g><path style="opacity:0.779" fill="#000000" d="M 1508.5,828.5 C 1511.61,828.351 1514.61,828.851 1517.5,830C 1525.77,834.604 1533.77,839.604 1541.5,845C 1545.92,846.806 1550.25,848.806 1554.5,851C 1556.65,854.541 1558.98,857.874 1561.5,861C 1561.02,863.475 1559.68,865.308 1557.5,866.5C 1556.67,870.459 1556.17,874.459 1556,878.5C 1548.56,889.269 1540.4,899.436 1531.5,909C 1526.1,912.803 1522.1,911.637 1519.5,905.5C 1528.5,895.991 1537,885.991 1545,875.5C 1545.5,872.518 1545.66,869.518 1545.5,866.5C 1537.16,866.334 1528.83,866.5 1520.5,867C 1518.04,868.711 1515.38,870.044 1512.5,871C 1492.68,876.431 1472.68,881.097 1452.5,885C 1438.68,889.908 1424.68,894.241 1410.5,898C 1390.78,898.923 1371.11,900.589 1351.5,903C 1317.4,909.153 1283.4,915.819 1249.5,923C 1238.64,923.038 1228.31,925.371 1218.5,930C 1181.8,948.682 1145.14,967.349 1108.5,986C 1045.91,1014.13 984.91,1045.13 925.5,1079C 906.623,1088.61 887.623,1097.94 868.5,1107C 786.396,1138.42 704.729,1170.92 623.5,1204.5C 623.167,1204.83 622.833,1205.17 622.5,1205.5C 630.107,1216.32 633.44,1228.32 632.5,1241.5C 635.518,1241.66 638.518,1241.5 641.5,1241C 660.314,1236.1 679.314,1232.1 698.5,1229C 736.827,1225.27 775.16,1221.6 813.5,1218C 866.225,1215.59 918.892,1212.25 971.5,1208C 999.834,1207.01 1028.17,1206.01 1056.5,1205C 1081.41,1201.43 1106.41,1198.76 1131.5,1197C 1213.82,1193.67 1296.15,1190.67 1378.5,1188C 1399.38,1175.37 1422.05,1167.71 1446.5,1165C 1459.15,1164.01 1471.82,1163.18 1484.5,1162.5C 1486.99,1160.29 1489.99,1159.12 1493.5,1159C 1488.59,1156.63 1483.75,1154.13 1479,1151.5C 1475.43,1144.2 1477.6,1141.03 1485.5,1142C 1493.99,1146.08 1502.32,1150.41 1510.5,1155C 1512.59,1157.26 1513.92,1159.93 1514.5,1163C 1513.72,1165.99 1512.56,1168.83 1511,1171.5C 1504.97,1176.19 1499.64,1181.53 1495,1187.5C 1493.29,1191.03 1491.96,1194.7 1491,1198.5C 1485.84,1201.34 1482.34,1199.84 1480.5,1194C 1482.06,1187.38 1485.06,1181.55 1489.5,1176.5C 1458.48,1173.34 1428.48,1177.5 1399.5,1189C 1394.9,1191.27 1390.57,1193.94 1386.5,1197C 1383.75,1198.75 1380.75,1199.75 1377.5,1200C 1293.82,1202.67 1210.15,1205.67 1126.5,1209C 1102.12,1211.26 1077.79,1213.92 1053.5,1217C 1030.82,1217.36 1008.16,1218.03 985.5,1219C 927.212,1223.38 868.879,1227.05 810.5,1230C 770.469,1233.74 730.469,1237.74 690.5,1242C 669.948,1246.81 649.281,1250.97 628.5,1254.5C 622.928,1266.56 615.594,1277.4 606.5,1287C 620.58,1292.1 634.914,1296.44 649.5,1300C 668.891,1303.74 688.224,1307.74 707.5,1312C 773.2,1330.18 838.866,1348.51 904.5,1367C 941.328,1377.07 978.828,1381.23 1017,1379.5C 1057.81,1377.82 1098.65,1377.32 1139.5,1378C 1162.48,1380.18 1185.48,1382.18 1208.5,1384C 1238.24,1388.35 1267.24,1395.68 1295.5,1406C 1329.18,1420.78 1363.18,1434.78 1397.5,1448C 1425.46,1456.21 1453.13,1465.21 1480.5,1475C 1490.71,1474.85 1500.71,1476.19 1510.5,1479C 1523.19,1483.85 1535.53,1489.51 1547.5,1496C 1554.02,1498.29 1560.69,1499.95 1567.5,1501C 1584.53,1509.66 1602.2,1514.99 1620.5,1517C 1615.81,1508.06 1612.81,1498.56 1611.5,1488.5C 1611.41,1484.26 1613.41,1481.93 1617.5,1481.5C 1617.35,1482.55 1617.52,1483.55 1618,1484.5C 1620.77,1486.6 1622.77,1489.27 1624,1492.5C 1625.48,1500.94 1628.15,1508.94 1632,1516.5C 1633.44,1521.21 1632.28,1525.05 1628.5,1528C 1611.84,1535.65 1595.34,1543.49 1579,1551.5C 1575.72,1550.72 1573.55,1548.72 1572.5,1545.5C 1573.93,1542.57 1575.93,1540.07 1578.5,1538C 1586.94,1533.78 1595.6,1530.12 1604.5,1527C 1591.13,1523.32 1578.13,1518.65 1565.5,1513C 1559.09,1511.63 1552.75,1509.96 1546.5,1508C 1534.29,1502.06 1521.95,1496.39 1509.5,1491C 1499.71,1488.19 1489.71,1486.85 1479.5,1487C 1447.39,1475.74 1415.05,1465.07 1382.5,1455C 1351.34,1442.39 1320.34,1429.39 1289.5,1416C 1273.88,1411.18 1258.21,1406.51 1242.5,1402C 1231.66,1399.1 1220.66,1397.1 1209.5,1396C 1187.48,1394.22 1165.48,1392.22 1143.5,1390C 1089.82,1389.92 1036.16,1390.26 982.5,1391C 954.622,1390.11 927.289,1385.78 900.5,1378C 838.5,1360.67 776.5,1343.33 714.5,1326C 687.531,1319.87 660.531,1313.87 633.5,1308C 622.835,1305.28 612.835,1301.12 603.5,1295.5C 602.902,1294.21 602.402,1292.87 602,1291.5C 588.301,1304.93 572.801,1315.76 555.5,1324C 526.031,1330.79 499.031,1325.46 474.5,1308C 450.821,1286.96 442.321,1260.79 449,1229.5C 451.714,1213.69 457.381,1199.02 466,1185.5C 473.321,1174.37 481.488,1163.87 490.5,1154C 487.689,1150.71 488.022,1147.71 491.5,1145C 494.833,1144.67 498.167,1144.33 501.5,1144C 508.608,1136.27 517.274,1133.44 527.5,1135.5C 529.003,1139.79 527.337,1141.62 522.5,1141C 520.5,1142.33 518.5,1143.67 516.5,1145C 531.862,1147.14 546.862,1150.81 561.5,1156C 574.321,1162.24 586.654,1169.24 598.5,1177C 605.034,1182.54 611.2,1188.37 617,1194.5C 665.782,1175.69 714.282,1156.19 762.5,1136C 803.137,1121.57 843.137,1105.57 882.5,1088C 923.452,1066.86 964.119,1045.19 1004.5,1023C 1034.92,1007.79 1065.59,993.121 1096.5,979C 1138.25,957.457 1180.25,936.457 1222.5,916C 1231.57,912.942 1240.91,911.275 1250.5,911C 1284.35,903.564 1318.35,896.897 1352.5,891C 1370.09,888.738 1387.76,887.405 1405.5,887C 1419.18,884.16 1432.51,880.16 1445.5,875C 1466.62,870.509 1487.62,865.509 1508.5,860C 1517,856.019 1526,854.352 1535.5,855C 1528.67,850.085 1521.67,845.419 1514.5,841C 1511.42,840.654 1508.42,839.988 1505.5,839C 1502.41,834.201 1503.41,830.701 1508.5,828.5 Z M 503.5,1156.5 C 521.253,1157.4 538.586,1160.57 555.5,1166C 572.437,1173.71 587.937,1183.54 602,1195.5C 609.276,1205.05 615.276,1215.38 620,1226.5C 621.87,1233.18 621.87,1239.85 620,1246.5C 605.028,1276.81 582.195,1298.97 551.5,1313C 524.959,1318.58 500.959,1313.25 479.5,1297C 461.841,1280.24 455.341,1259.74 460,1235.5C 460.645,1227.61 462.311,1219.94 465,1212.5C 474.51,1191.5 487.344,1172.83 503.5,1156.5 Z M 1497.5,1161.5 C 1501.3,1161.88 1501.97,1163.21 1499.5,1165.5C 1498.64,1164.23 1497.97,1162.9 1497.5,1161.5 Z"/></g>
<g><path style="opacity:0.779" fill="#000000" d="M 1624.5,1043.5 C 1652.51,1047.01 1676.84,1058.34 1697.5,1077.5C 1697.23,1074.2 1698.56,1071.36 1701.5,1069C 1706.33,1068.08 1708.99,1070.08 1709.5,1075C 1708.91,1078.51 1706.91,1080.84 1703.5,1082C 1713.31,1090.07 1723.64,1097.4 1734.5,1104C 1748.12,1110.48 1761.45,1117.48 1774.5,1125C 1783.95,1131.45 1789.78,1140.28 1792,1151.5C 1798.52,1190.61 1785.68,1221.44 1753.5,1244C 1738.37,1252.09 1722.2,1255.59 1705,1254.5C 1679.31,1254.46 1653.81,1252.29 1628.5,1248C 1610.4,1245.04 1594.9,1237.2 1582,1224.5C 1579.34,1220.19 1577.67,1215.52 1577,1210.5C 1576.67,1179.13 1577.67,1147.8 1580,1116.5C 1579.41,1088.81 1591.91,1069.97 1617.5,1060C 1615.34,1052.5 1617.67,1047 1624.5,1043.5 Z M 1628.5,1055.5 C 1632.7,1055.38 1636.7,1056.22 1640.5,1058C 1636.13,1058.83 1631.8,1058.66 1627.5,1057.5C 1627.86,1056.82 1628.2,1056.15 1628.5,1055.5 Z M 1629.5,1069.5 C 1639.17,1069.33 1648.84,1069.5 1658.5,1070C 1663.21,1071.7 1667.71,1073.86 1672,1076.5C 1673.29,1076.05 1674.45,1075.38 1675.5,1074.5C 1701.4,1097.86 1730.4,1116.69 1762.5,1131C 1770.81,1135.31 1776.64,1141.81 1780,1150.5C 1787.88,1189.89 1774.38,1219.06 1739.5,1238C 1727.11,1241.65 1714.45,1243.15 1701.5,1242.5C 1674.17,1242.7 1647.17,1239.87 1620.5,1234C 1610.16,1231.32 1601,1226.48 1593,1219.5C 1591.41,1217.33 1590.08,1215 1589,1212.5C 1588.17,1174.39 1589.84,1136.39 1594,1098.5C 1597.95,1085.88 1606.11,1077.05 1618.5,1072C 1622.28,1071.08 1625.95,1070.25 1629.5,1069.5 Z"/></g>
<g><path style="opacity:0.768" fill="#000000" d="M 1668.5,1134.5 C 1678.88,1136.15 1680.05,1140.49 1672,1147.5C 1670.45,1161.13 1670.12,1174.79 1671,1188.5C 1673.3,1199.44 1676.47,1210.1 1680.5,1220.5C 1680.51,1222.59 1679.85,1224.43 1678.5,1226C 1668.78,1228.04 1659.12,1227.71 1649.5,1225C 1635.79,1221.23 1623.62,1214.73 1613,1205.5C 1611.34,1202.69 1610.17,1199.69 1609.5,1196.5C 1611.28,1190.53 1614.78,1189.19 1620,1192.5C 1620.8,1195.22 1621.96,1197.72 1623.5,1200C 1636.79,1209.21 1651.46,1214.21 1667.5,1215C 1660.55,1201.19 1657.55,1186.52 1658.5,1171C 1658.44,1162.07 1659.28,1153.24 1661,1144.5C 1662.32,1140.16 1664.82,1136.83 1668.5,1134.5 Z"/></g>
<g><path style="opacity:0.564" fill="#000000" d="M 525.5,1181.5 C 533.523,1181.16 535.856,1184.49 532.5,1191.5C 527.421,1193.43 524.087,1191.77 522.5,1186.5C 523.065,1184.49 524.065,1182.82 525.5,1181.5 Z"/></g>
<g><path style="opacity:0.734" fill="#000000" d="M 539.5,1245.5 C 541.936,1245.32 544.103,1245.98 546,1247.5C 551.073,1260.71 552.74,1274.38 551,1288.5C 547.17,1294.73 543.503,1294.73 540,1288.5C 539.667,1280.17 539.333,1271.83 539,1263.5C 538.337,1259.35 537.171,1255.35 535.5,1251.5C 536.046,1249.87 536.38,1248.2 536.5,1246.5C 537.791,1246.74 538.791,1246.4 539.5,1245.5 Z"/></g>
<g><path style="opacity:0.754" fill="#000000" d="M 418.5,1374.5 C 422.106,1374.94 424.272,1376.94 425,1380.5C 425.5,1387.49 425.666,1394.49 425.5,1401.5C 434.48,1402.18 443.48,1402.68 452.5,1403C 456.307,1404.88 460.307,1406.05 464.5,1406.5C 464.719,1407.68 464.386,1408.68 463.5,1409.5C 451.166,1413.22 438.499,1414.55 425.5,1413.5C 424.939,1420.24 421.772,1421.9 416,1418.5C 414.872,1416.65 414.372,1414.65 414.5,1412.5C 407.743,1412.88 401.076,1412.38 394.5,1411C 390.248,1407.42 386.748,1403.25 384,1398.5C 376.155,1401.34 371.655,1406.84 370.5,1415C 367.165,1417.29 364.332,1416.79 362,1413.5C 361.46,1402.11 362.126,1390.77 364,1379.5C 365.396,1377.47 367.062,1377.14 369,1378.5C 370,1382.83 371,1387.17 372,1391.5C 376.939,1387.82 382.439,1386.65 388.5,1388C 392.947,1391.87 396.947,1396.2 400.5,1401C 401.5,1401.5 402.5,1402 403.5,1402.5C 406.758,1401.58 410.091,1401.25 413.5,1401.5C 413.094,1393.08 413.594,1384.75 415,1376.5C 416.302,1375.92 417.469,1375.25 418.5,1374.5 Z"/></g>
<g><path style="opacity:0.785" fill="#000000" d="M 319.5,1383.5 C 323.5,1383.5 327.5,1383.5 331.5,1383.5C 331.863,1385.91 330.863,1387.41 328.5,1388C 329.255,1390.17 330.088,1392.34 331,1394.5C 335.386,1401.05 340.553,1406.71 346.5,1411.5C 346.392,1412.44 346.059,1413.28 345.5,1414C 337.464,1416.19 330.964,1414.03 326,1407.5C 320.326,1413.79 314.326,1414.12 308,1408.5C 306.121,1403.08 306.455,1397.74 309,1392.5C 312.103,1388.89 315.603,1385.89 319.5,1383.5 Z"/></g>
<g><path style="opacity:0.782" fill="#000000" d="M 527.5,1384.5 C 544.201,1381.6 556.368,1387.6 564,1402.5C 565.97,1412.82 565.97,1423.16 564,1433.5C 561.431,1446.37 553.598,1452.37 540.5,1451.5C 531.828,1451.83 523.828,1449.67 516.5,1445C 510.433,1439.16 507.767,1431.99 508.5,1423.5C 508.193,1410.89 511.526,1399.39 518.5,1389C 521.592,1387.45 524.592,1385.95 527.5,1384.5 Z M 531.5,1395.5 C 541.016,1394.05 548.182,1397.38 553,1405.5C 554.133,1415.98 553.467,1426.32 551,1436.5C 548.745,1438.95 545.912,1440.28 542.5,1440.5C 534.129,1440.88 526.963,1438.21 521,1432.5C 518.829,1420.31 520.829,1408.98 527,1398.5C 528.409,1397.22 529.909,1396.22 531.5,1395.5 Z"/></g>
<g><path style="opacity:0.719" fill="#000000" d="M 495.5,1388.5 C 499.499,1388.07 501.999,1389.74 503,1393.5C 503.333,1407.5 503.667,1421.5 504,1435.5C 508.116,1440.71 507.116,1444.38 501,1446.5C 495.127,1444.79 492.127,1440.79 492,1434.5C 491.333,1420.5 491.333,1406.5 492,1392.5C 492.69,1390.65 493.856,1389.32 495.5,1388.5 Z"/></g>
<g><path style="opacity:0.783" fill="#000000" d="M 1723.5,1440.5 C 1747.09,1442.29 1770.42,1445.79 1793.5,1451C 1804.11,1453.98 1814.11,1458.31 1823.5,1464C 1832.23,1471.29 1838.06,1480.45 1841,1491.5C 1845.11,1503.62 1848.45,1515.95 1851,1528.5C 1851.67,1542.5 1851.67,1556.5 1851,1570.5C 1839.62,1610.87 1812.96,1629.87 1771,1627.5C 1734.84,1628.67 1701,1620.5 1669.5,1603C 1636.75,1581.72 1628.25,1552.89 1644,1516.5C 1653.35,1495.17 1666.52,1476.67 1683.5,1461C 1695.65,1451.76 1708.99,1444.92 1723.5,1440.5 Z M 1723.5,1451.5 C 1725.21,1454.24 1727.37,1456.58 1730,1458.5C 1731.73,1458.05 1733.23,1457.22 1734.5,1456C 1762.56,1454.45 1789.22,1459.79 1814.5,1472C 1821.78,1477.29 1826.78,1484.29 1829.5,1493C 1833.06,1504.05 1836.22,1515.22 1839,1526.5C 1840.55,1539.79 1840.88,1553.12 1840,1566.5C 1836.5,1585.67 1826.33,1600.17 1809.5,1610C 1804.47,1612.59 1799.13,1614.26 1793.5,1615C 1760.68,1618.19 1728.68,1614.52 1697.5,1604C 1679.27,1597.65 1664.43,1586.82 1653,1571.5C 1647.51,1555.18 1647.84,1538.84 1654,1522.5C 1667.01,1488.66 1690.18,1464.99 1723.5,1451.5 Z"/></g>
<g><path style="opacity:0.79" fill="#000000" d="M 1700.5,1491.5 C 1703.97,1490.87 1706.8,1491.87 1709,1494.5C 1711.3,1503.08 1713.14,1511.75 1714.5,1520.5C 1716.39,1519.39 1718.39,1518.56 1720.5,1518C 1731.23,1516.49 1741.9,1514.66 1752.5,1512.5C 1752.36,1510.88 1753.03,1509.71 1754.5,1509C 1759.68,1506.59 1763.35,1508.09 1765.5,1513.5C 1764.22,1515.18 1763.22,1517.01 1762.5,1519C 1749.73,1524.41 1736.4,1527.57 1722.5,1528.5C 1715.67,1547.69 1720.01,1563.86 1735.5,1577C 1738.07,1577.96 1740.74,1578.46 1743.5,1578.5C 1747.84,1577.66 1752.17,1577.16 1756.5,1577C 1760.06,1579.58 1760.39,1582.58 1757.5,1586C 1739.09,1593.89 1724.92,1589.05 1715,1571.5C 1710.68,1572.94 1707.34,1571.61 1705,1567.5C 1703.26,1564.04 1702.26,1560.38 1702,1556.5C 1701.67,1541.83 1701.33,1527.17 1701,1512.5C 1700.53,1507 1699.37,1501.66 1697.5,1496.5C 1697.76,1494.31 1698.76,1492.64 1700.5,1491.5 Z"/></g>
</svg>
