<?xml version="1.0" encoding="UTF-8"?>
<!DOCTYPE svg PUBLIC "-//W3C//DTD SVG 1.1//EN" "http://www.w3.org/Graphics/SVG/1.1/DTD/svg11.dtd">
<svg xmlns="http://www.w3.org/2000/svg" version="1.1" width="2550px" height="2550px" style="shape-rendering:geometricPrecision; text-rendering:geometricPrecision; image-rendering:optimizeQuality; fill-rule:evenodd; clip-rule:evenodd" xmlns:xlink="http://www.w3.org/1999/xlink">
<g><path style="opacity:0.764" fill="#000000" d="M 534.5,499.5 C 547.045,499.608 550.712,505.274 545.5,516.5C 542.578,517.787 540.745,516.787 540,513.5C 539.134,518.709 539.801,523.709 542,528.5C 546.333,534.5 550.667,540.5 555,546.5C 555.518,537.255 560.018,531.088 568.5,528C 583.54,527.347 597.206,531.347 609.5,540C 616.686,540.629 623.353,542.795 629.5,546.5C 630.429,547.689 630.762,549.022 630.5,550.5C 625.87,549.771 621.203,549.437 616.5,549.5C 615.769,553.603 616.769,557.103 619.5,560C 628.106,561.631 636.773,562.298 645.5,562C 648.818,560.732 649.484,558.565 647.5,555.5C 649.986,541.833 657.986,536.333 671.5,539C 672.573,540.313 673.24,541.813 673.5,543.5C 671.773,549.291 668.773,554.291 664.5,558.5C 666.5,559.5 668.5,560.5 670.5,561.5C 670.333,561.833 670.167,562.167 670,562.5C 659.228,564.215 648.728,567.048 638.5,571C 631.833,571.667 625.167,571.667 618.5,571C 616.385,570.443 614.385,569.609 612.5,568.5C 609.015,571.484 605.682,574.651 602.5,578C 598.557,580.804 594.223,582.804 589.5,584C 582.167,584.667 574.833,584.667 567.5,584C 562.225,583.032 557.891,580.532 554.5,576.5C 543.92,578.477 533.253,578.977 522.5,578C 509.919,575.791 505.086,568.625 508,556.5C 511.565,554.437 515.232,554.437 519,556.5C 519.138,558.432 518.638,560.266 517.5,562C 518.878,563.713 520.545,565.047 522.5,566C 532.148,567.725 541.815,567.725 551.5,566C 553.445,563.503 554.278,560.67 554,557.5C 545.961,551.128 538.961,543.795 533,535.5C 527.607,525.32 526.274,514.653 529,503.5C 530.5,501.531 532.333,500.198 534.5,499.5 Z M 575.5,539.5 C 586.047,539.955 595.214,543.622 603,550.5C 604.335,561.193 599.835,568.36 589.5,572C 582.16,573.941 574.826,573.941 567.5,572C 567,571.5 566.5,571 566,570.5C 565.308,560.769 565.808,551.103 567.5,541.5C 570.373,541.198 573.039,540.531 575.5,539.5 Z"/></g>
<g><path style="opacity:0.754" fill="#000000" d="M 691.5,513.5 C 699.206,512.665 706.539,513.831 713.5,517C 718.495,521.149 720.161,526.316 718.5,532.5C 713.079,530.291 707.745,527.791 702.5,525C 700.101,524.289 697.768,524.456 695.5,525.5C 691.628,538.88 689.461,552.546 689,566.5C 685.171,570.663 681.837,570.329 679,565.5C 677.881,548.996 680.215,532.996 686,517.5C 687.812,516.023 689.645,514.69 691.5,513.5 Z"/></g>
<g><path style="opacity:0.763" fill="#000000" d="M 780.5,546.5 C 791.265,527.104 807.932,517.437 830.5,517.5C 838.046,517.411 845.379,518.578 852.5,521C 856.031,522.529 858.031,525.196 858.5,529C 857.87,535.86 857.037,542.693 856,549.5C 852.532,556.733 846.698,559.733 838.5,558.5C 827.927,558.481 817.593,556.981 807.5,554C 801.243,547.843 802.41,544.343 811,543.5C 822.689,546.251 834.523,547.085 846.5,546C 847.333,545.167 848.167,544.333 849,543.5C 849.27,540.776 849.77,538.109 850.5,535.5C 849.968,533.259 848.635,531.759 846.5,531C 827.205,525.866 810.372,530.032 796,543.5C 788.6,552.901 786.933,563.234 791,574.5C 794.081,577.293 797.581,579.46 801.5,581C 816.018,583.772 830.684,585.106 845.5,585C 854.699,588.225 854.699,591.559 845.5,595C 830.73,596.108 816.063,595.442 801.5,593C 781.841,587.532 774.008,574.699 778,554.5C 778.561,551.721 779.394,549.054 780.5,546.5 Z"/></g>
<g><path style="opacity:0.73" fill="#000000" d="M 780.5,546.5 C 772.641,545.312 764.975,546.146 757.5,549C 750.76,553.07 744.593,557.904 739,563.5C 735.172,567.79 735.672,571.29 740.5,574C 752.315,576.395 763.982,579.228 775.5,582.5C 775.291,583.086 774.957,583.586 774.5,584C 761.146,588.447 747.812,588.447 734.5,584C 728.061,581.559 724.727,576.893 724.5,570C 725.006,565.485 726.506,561.319 729,557.5C 735.324,550.096 742.824,544.262 751.5,540C 759.879,538.403 768.212,538.736 776.5,541C 779.215,541.875 780.548,543.708 780.5,546.5 Z"/></g>
<g><path style="opacity:0.77" fill="#000000" d="M 755.5,645.5 C 819.983,640.815 866.149,667.482 894,725.5C 904.291,751.495 906.291,778.162 900,805.5C 888.789,846.551 861.955,866.218 819.5,864.5C 767.03,864.188 726.196,842.521 697,799.5C 684.964,776.811 682.631,753.144 690,728.5C 692.969,720.558 696.969,713.225 702,706.5C 713.052,692.204 725.552,679.37 739.5,668C 743.038,665.731 746.705,663.731 750.5,662C 744.451,654.248 746.118,648.748 755.5,645.5 Z M 755.5,659.5 C 755.611,658.883 755.944,658.383 756.5,658C 767.5,657.333 778.5,657.333 789.5,658C 778.134,658.232 766.801,658.732 755.5,659.5 Z M 807.5,662.5 C 807.735,661.903 808.235,661.57 809,661.5C 833.512,670.012 853.512,684.679 869,705.5C 888.854,732.254 896.188,762.254 891,795.5C 884.182,844.687 856.349,863.853 807.5,853C 762.041,848.547 727.541,827.047 704,788.5C 696.99,770.969 695.656,752.969 700,734.5C 704.939,721.572 712.273,710.239 722,700.5C 731.698,689.125 742.865,679.625 755.5,672C 761.38,670.374 767.38,669.541 773.5,669.5C 784.158,670.444 794.824,670.611 805.5,670C 809.426,669.42 810.926,667.253 810,663.5C 809.329,662.748 808.496,662.414 807.5,662.5 Z"/></g>
<g><path style="opacity:0.776" fill="#000000" d="M 1769.5,698.5 C 1808.79,703.763 1844.79,717.596 1877.5,740C 1917.81,768.983 1931.98,807.816 1920,856.5C 1915.38,875.577 1906.21,892.077 1892.5,906C 1878.07,919.725 1861.73,930.725 1843.5,939C 1837.68,941.288 1831.68,942.954 1825.5,944C 1814.16,945.418 1802.83,945.751 1791.5,945C 1793.01,949.321 1794.01,953.821 1794.5,958.5C 1795.43,957.311 1795.76,955.978 1795.5,954.5C 1796.5,954.5 1797.5,954.5 1798.5,954.5C 1798.67,958.846 1798.5,963.179 1798,967.5C 1797.33,968.833 1796.33,969.833 1795,970.5C 1793.44,1022.83 1792.11,1075.17 1791,1127.5C 1789.18,1140.59 1786.85,1153.59 1784,1166.5C 1773.11,1204.96 1764.78,1243.96 1759,1283.5C 1756,1292.82 1753,1302.16 1750,1311.5C 1748.87,1318.78 1748.2,1326.12 1748,1333.5C 1747.1,1401.5 1746.43,1469.5 1746,1537.5C 1747.5,1549.51 1749,1561.51 1750.5,1573.5C 1752.83,1572.33 1755.17,1571.17 1757.5,1570C 1763.83,1569.33 1770.17,1569.33 1776.5,1570C 1779.65,1571.08 1782.65,1572.41 1785.5,1574C 1786.34,1575.01 1786.67,1576.18 1786.5,1577.5C 1781.16,1576.97 1775.82,1576.3 1770.5,1575.5C 1762.83,1575.99 1756.67,1579.32 1752,1585.5C 1751.33,1586.83 1751.33,1588.17 1752,1589.5C 1753.95,1587.11 1756.45,1585.61 1759.5,1585C 1768.92,1583.56 1777.92,1584.89 1786.5,1589C 1796.35,1593.53 1805.68,1598.87 1814.5,1605C 1839.79,1623.95 1864.79,1643.28 1889.5,1663C 1919.08,1688.63 1923.91,1718.13 1904,1751.5C 1870.46,1783.79 1830.62,1795.96 1784.5,1788C 1762.49,1783.67 1745.16,1772.34 1732.5,1754C 1729.1,1753.45 1725.77,1753.79 1722.5,1755C 1716.74,1758.55 1710.74,1761.55 1704.5,1764C 1686.6,1766.1 1668.6,1767.1 1650.5,1767C 1621.97,1773.23 1598.97,1787.9 1581.5,1811C 1579.04,1812.56 1576.38,1813.56 1573.5,1814C 1533.08,1817.78 1492.75,1817.11 1452.5,1812C 1390.08,1799.72 1327.74,1787.05 1265.5,1774C 1198.2,1766.34 1130.87,1759 1063.5,1752C 1053.11,1749.92 1042.78,1747.59 1032.5,1745C 1012.68,1737.76 992.685,1731.09 972.5,1725C 953.489,1723.11 934.489,1721.28 915.5,1719.5C 914.34,1740.51 906.007,1758.01 890.5,1772C 872.163,1785.17 852.83,1796.84 832.5,1807C 808.821,1817.65 784.487,1819.32 759.5,1812C 731.455,1798.89 708.955,1779.39 692,1753.5C 685.863,1742.62 682.697,1730.95 682.5,1718.5C 683.127,1690.45 691.627,1665.12 708,1642.5C 715.084,1632.74 722.917,1623.58 731.5,1615C 733.699,1613.3 736.032,1611.8 738.5,1610.5C 740.189,1605.6 742.355,1600.93 745,1596.5C 747.469,1594.35 750.302,1592.85 753.5,1592C 789.041,1588.28 823.375,1592.95 856.5,1606C 875.631,1614.97 891.631,1627.8 904.5,1644.5C 923.336,1628.16 941.336,1611 958.5,1593C 976.433,1579.52 993.433,1564.85 1009.5,1549C 1025.27,1535.9 1041.6,1523.56 1058.5,1512C 1089.83,1492 1121.17,1472 1152.5,1452C 1157.68,1448.24 1162.68,1444.24 1167.5,1440C 1187.19,1419.31 1207.19,1398.97 1227.5,1379C 1241.14,1368.18 1255.14,1357.85 1269.5,1348C 1278.71,1337.12 1287.55,1325.95 1296,1314.5C 1311.65,1298.18 1328.48,1283.35 1346.5,1270C 1354.14,1261.36 1362.14,1253.03 1370.5,1245C 1369.17,1243 1369.17,1241 1370.5,1239C 1372.9,1238.63 1375.23,1238.63 1377.5,1239C 1402.83,1217.33 1428.17,1195.67 1453.5,1174C 1458.09,1169.6 1461.59,1164.43 1464,1158.5C 1475.33,1144.5 1488,1131.83 1502,1120.5C 1511.39,1108.1 1521.89,1096.6 1533.5,1086C 1545.04,1077.46 1554.87,1067.29 1563,1055.5C 1576.39,1041.77 1591.23,1029.93 1607.5,1020C 1612.39,1015.61 1616.72,1010.78 1620.5,1005.5C 1624.98,1001.43 1629.65,997.594 1634.5,994C 1643.76,987.872 1653.43,982.539 1663.5,978C 1678.27,954.891 1696.27,934.558 1717.5,917C 1688.97,894.976 1675.97,865.81 1678.5,829.5C 1676.37,787.424 1689.71,751.257 1718.5,721C 1729.91,709.962 1743.58,704.462 1759.5,704.5C 1760.29,704.931 1761.13,705.265 1762,705.5C 1764.37,702.956 1766.87,700.623 1769.5,698.5 Z M 1773.5,710.5 C 1813.24,716.796 1848.91,732.296 1880.5,757C 1907.46,780.532 1917.29,810.032 1910,845.5C 1907.87,865.767 1899.7,883.1 1885.5,897.5C 1855.31,929.059 1818.65,940.225 1775.5,931C 1761.94,928.426 1749.27,923.592 1737.5,916.5C 1736.55,914.092 1735.21,911.925 1733.5,910C 1730.38,909.794 1727.38,909.127 1724.5,908C 1708.32,895.792 1697.48,879.958 1692,860.5C 1690.43,842.535 1690.1,824.535 1691,806.5C 1694.27,768.104 1711.77,738.271 1743.5,717C 1748.78,713.509 1754.45,712.009 1760.5,712.5C 1756.17,726.394 1756,740.394 1760,754.5C 1765.19,740.09 1769.69,725.423 1773.5,710.5 Z M 1726.5,924.5 C 1736.76,929.544 1747.26,934.21 1758,938.5C 1766.29,941.259 1774.79,942.926 1783.5,943.5C 1782.27,1005.49 1780.77,1067.49 1779,1129.5C 1777.32,1140.56 1775.32,1151.56 1773,1162.5C 1762.29,1201.01 1753.96,1240.01 1748,1279.5C 1744.98,1290.25 1741.65,1300.92 1738,1311.5C 1737.67,1314.83 1737.33,1318.17 1737,1321.5C 1735.71,1382.32 1734.87,1443.15 1734.5,1504C 1733.5,1530.37 1735.16,1556.54 1739.5,1582.5C 1708.17,1615.92 1697.33,1655.25 1707,1700.5C 1710.25,1715.48 1716.08,1729.32 1724.5,1742C 1717.28,1744.28 1710.61,1747.61 1704.5,1752C 1687.24,1754.06 1669.91,1755.06 1652.5,1755C 1630.26,1759.12 1610.26,1768.12 1592.5,1782C 1586.48,1789.02 1580.14,1795.69 1573.5,1802C 1567.21,1803.02 1560.87,1803.69 1554.5,1804C 1531.17,1804.67 1507.83,1804.67 1484.5,1804C 1473.41,1803.41 1462.41,1802.07 1451.5,1800C 1401.98,1790.56 1352.64,1780.23 1303.5,1769C 1290.23,1766.28 1276.9,1763.95 1263.5,1762C 1198.55,1754.52 1133.55,1747.52 1068.5,1741C 1042.86,1736.9 1018.19,1729.56 994.5,1719C 988.6,1717.02 982.6,1715.36 976.5,1714C 956.574,1711.36 936.574,1709.53 916.5,1708.5C 916.667,1697.83 916.5,1687.16 916,1676.5C 915.233,1669.2 913.066,1662.37 909.5,1656C 928.107,1639.39 946.107,1622.06 963.5,1604C 974.545,1594.62 985.879,1585.62 997.5,1577C 1018.09,1556.4 1040.42,1538.07 1064.5,1522C 1094.66,1502.42 1125,1483.08 1155.5,1464C 1160.83,1460 1166.17,1456 1171.5,1452C 1191.83,1431.33 1212.17,1410.67 1232.5,1390C 1247.93,1377.23 1263.93,1365.23 1280.5,1354C 1295.32,1331.84 1312.98,1312.18 1333.5,1295C 1349.56,1283.28 1364.06,1269.78 1377,1254.5C 1380.41,1257.12 1383.91,1259.62 1387.5,1262C 1389.74,1264.03 1391.24,1266.53 1392,1269.5C 1393.38,1271.21 1395.04,1272.55 1397,1273.5C 1403.34,1265.42 1402.17,1258.25 1393.5,1252C 1390.83,1250.33 1388.17,1248.67 1385.5,1247C 1411.83,1224.67 1438.17,1202.33 1464.5,1180C 1473.99,1163.18 1486.32,1148.85 1501.5,1137C 1509.26,1129.3 1516.42,1121.14 1523,1112.5C 1536.33,1099.83 1549.67,1087.17 1563,1074.5C 1569.13,1066.7 1575.63,1059.2 1582.5,1052C 1594.5,1043.33 1606.5,1034.67 1618.5,1026C 1626.97,1014.6 1637.3,1005.27 1649.5,998C 1656.72,995.721 1663.39,992.388 1669.5,988C 1678.33,976.5 1687.17,965 1696,953.5C 1701.2,948.635 1706.03,943.468 1710.5,938C 1716.32,934.011 1721.65,929.511 1726.5,924.5 Z M 1750.5,1591.5 C 1746.71,1600.9 1746.88,1610.23 1751,1619.5C 1753.1,1610.76 1756.93,1602.93 1762.5,1596C 1768.71,1595.57 1774.71,1596.57 1780.5,1599C 1789.32,1602.91 1797.65,1607.57 1805.5,1613C 1829.45,1630.62 1853.12,1648.62 1876.5,1667C 1883,1673.5 1889.5,1680 1896,1686.5C 1905,1700.14 1908.33,1715.14 1906,1731.5C 1903.62,1741.75 1898.12,1749.92 1889.5,1756C 1853.25,1778.15 1814.58,1783.82 1773.5,1773C 1762.22,1767.85 1752.55,1760.52 1744.5,1751C 1746.94,1748.68 1747.1,1746.18 1745,1743.5C 1741.9,1742.29 1738.9,1740.96 1736,1739.5C 1718.83,1713.35 1712.5,1684.68 1717,1653.5C 1719.57,1630.94 1728.4,1611.27 1743.5,1594.5C 1745.92,1593.65 1748.26,1592.65 1750.5,1591.5 Z M 763.5,1602.5 C 793.495,1600.87 822.495,1605.37 850.5,1616C 871.071,1625.07 887.071,1639.24 898.5,1658.5C 900.489,1661.97 901.989,1665.63 903,1669.5C 905.731,1683.69 905.898,1697.85 903.5,1712C 904.748,1733.6 897.082,1751.27 880.5,1765C 859.84,1780.17 837.507,1792.5 813.5,1802C 782.764,1809.9 755.764,1803.23 732.5,1782C 721.558,1772.06 711.725,1761.23 703,1749.5C 694.922,1735.91 692.255,1721.25 695,1705.5C 698.117,1683.81 706.117,1664.14 719,1646.5C 725.095,1638.65 731.428,1630.98 738,1623.5C 739.833,1629.83 741.666,1636.16 743.5,1642.5C 746.031,1633.28 748.698,1624.11 751.5,1615C 753.715,1613.96 756.048,1613.29 758.5,1613C 766.51,1612.56 774.51,1612.06 782.5,1611.5C 782.5,1610.17 782.5,1608.83 782.5,1607.5C 777.327,1606.94 772.161,1606.28 767,1605.5C 762.195,1606.53 757.362,1606.69 752.5,1606C 753.167,1605.33 753.833,1604.67 754.5,1604C 757.695,1603.82 760.695,1603.32 763.5,1602.5 Z"/></g>
<g><path style="opacity:0.755" fill="#000000" d="M 800.5,720.5 C 804.09,720.544 806.59,722.211 808,725.5C 808.481,736.184 808.147,746.851 807,757.5C 803.015,774.957 798.515,792.29 793.5,809.5C 793.667,810.167 793.833,810.833 794,811.5C 796.713,808.948 799.546,806.615 802.5,804.5C 802.413,811.053 800.247,817.053 796,822.5C 788.245,830.105 783.079,828.771 780.5,818.5C 783.568,801.896 787.734,785.563 793,769.5C 795.867,754.985 797.2,740.319 797,725.5C 797.257,723.093 798.424,721.427 800.5,720.5 Z"/></g>
<g><path style="opacity:0.694" fill="#000000" d="M 973.5,759.5 C 980.004,759.138 981.671,761.638 978.5,767C 961.243,774.907 943.243,777.241 924.5,774C 921.612,770.828 922.278,768.661 926.5,767.5C 943.062,769.627 958.729,766.96 973.5,759.5 Z"/></g>
<g><path style="opacity:0.678" fill="#000000" d="M 1074.5,772.5 C 1078.9,772.228 1083.24,772.561 1087.5,773.5C 1089.23,775.851 1089.9,778.518 1089.5,781.5C 1078.15,783.178 1066.81,784.845 1055.5,786.5C 1055.1,783.956 1055.77,781.789 1057.5,780C 1063,776.911 1068.67,774.411 1074.5,772.5 Z"/></g>
<g><path style="opacity:0.692" fill="#000000" d="M 1002.5,776.5 C 1008.84,776.334 1015.18,776.5 1021.5,777C 1033.47,780.945 1033.14,784.279 1020.5,787C 1014.5,787.667 1008.5,787.667 1002.5,787C 997.272,783.512 997.272,780.012 1002.5,776.5 Z"/></g>
<g><path style="opacity:0.777" fill="#000000" d="M 1777.5,779.5 C 1784.17,779.334 1790.84,779.5 1797.5,780C 1802.97,781.474 1806.47,784.974 1808,790.5C 1810.09,804.302 1806.43,816.302 1797,826.5C 1787.53,836.964 1777.03,846.13 1765.5,854C 1777.2,856.507 1788.86,859.174 1800.5,862C 1817.01,865.865 1829.51,875.032 1838,889.5C 1840.64,896.589 1838.31,899.589 1831,898.5C 1824.92,887.094 1815.76,879.261 1803.5,875C 1784.65,869.915 1765.65,865.582 1746.5,862C 1744.11,859.293 1743.95,856.46 1746,853.5C 1756.43,846.366 1766.6,838.866 1776.5,831C 1784.95,823.901 1791.45,815.401 1796,805.5C 1797.7,800.866 1797.86,796.199 1796.5,791.5C 1781.45,790.896 1766.61,792.229 1752,795.5C 1746.03,794.23 1744.37,790.897 1747,785.5C 1747.75,784.874 1748.58,784.374 1749.5,784C 1758.92,782.151 1768.26,780.651 1777.5,779.5 Z"/></g>
<g><path style="opacity:0.724" fill="#000000" d="M 1498.5,781.5 C 1502.95,781.078 1505.95,782.911 1507.5,787C 1506.51,789.987 1504.51,791.987 1501.5,793C 1492.02,797.05 1482.18,799.884 1472,801.5C 1464.61,800.836 1462.45,797.336 1465.5,791C 1477.03,789.32 1488.03,786.153 1498.5,781.5 Z"/></g>
<g><path style="opacity:0.675" fill="#000000" d="M 1219.5,782.5 C 1223.32,781.826 1226.15,783.159 1228,786.5C 1227.78,788.456 1226.94,790.29 1225.5,792C 1217.45,795.826 1209.28,796.326 1201,793.5C 1198.98,790.873 1199.15,788.373 1201.5,786C 1207.65,785.055 1213.65,783.888 1219.5,782.5 Z"/></g>
<g><path style="opacity:0.685" fill="#000000" d="M 1121.5,783.5 C 1126.51,783.334 1131.51,783.501 1136.5,784C 1143.35,787.843 1143.01,791.176 1135.5,794C 1131.17,794.667 1126.83,794.667 1122.5,794C 1117.57,791.094 1117.24,787.594 1121.5,783.5 Z"/></g>
<g><path style="opacity:0.713" fill="#000000" d="M 1399.5,783.5 C 1402.52,783.335 1405.52,783.502 1408.5,784C 1412.58,787.697 1412.25,791.03 1407.5,794C 1398.29,797.153 1388.96,797.82 1379.5,796C 1375.26,792.206 1375.59,788.873 1380.5,786C 1387.09,785.981 1393.43,785.148 1399.5,783.5 Z"/></g>
<g><path style="opacity:0.672" fill="#000000" d="M 1257.5,784.5 C 1263.84,784.334 1270.18,784.5 1276.5,785C 1280,785.947 1281.5,788.113 1281,791.5C 1272.8,796.72 1264.13,797.72 1255,794.5C 1252.71,790.318 1253.55,786.984 1257.5,784.5 Z"/></g>
<g><path style="opacity:0.668" fill="#000000" d="M 1166.5,785.5 C 1171.03,785.267 1175.37,786.1 1179.5,788C 1180.92,792.298 1179.25,794.965 1174.5,796C 1168.16,797.473 1161.83,797.64 1155.5,796.5C 1152.52,792.59 1153.19,789.423 1157.5,787C 1160.69,786.819 1163.69,786.319 1166.5,785.5 Z"/></g>
<g><path style="opacity:0.706" fill="#000000" d="M 1309.5,785.5 C 1317.84,785.334 1326.17,785.5 1334.5,786C 1335.67,787.167 1336.83,788.333 1338,789.5C 1340.59,787.986 1343.42,787.32 1346.5,787.5C 1350.62,787.544 1354.62,788.211 1358.5,789.5C 1358.26,793.923 1355.92,796.756 1351.5,798C 1347.83,798.667 1344.17,798.667 1340.5,798C 1338.7,797.363 1337.36,796.197 1336.5,794.5C 1335.21,795.098 1333.87,795.598 1332.5,796C 1325.5,796.667 1318.5,796.667 1311.5,796C 1303.16,793.685 1302.49,790.185 1309.5,785.5 Z"/></g>
<g><path style="opacity:0.677" fill="#000000" d="M 1440.5,787.5 C 1448.78,787.228 1450.78,790.395 1446.5,797C 1440.48,800.694 1434.31,801.194 1428,798.5C 1425.85,796.105 1426.02,793.938 1428.5,792C 1432.61,790.485 1436.61,788.985 1440.5,787.5 Z"/></g>
<g><path style="opacity:0.703" fill="#000000" d="M 1533.5,787.5 C 1540.26,787.123 1546.92,787.623 1553.5,789C 1557.85,790.89 1559.19,794.057 1557.5,798.5C 1556.06,799.304 1554.56,799.971 1553,800.5C 1545.44,799.901 1537.94,798.901 1530.5,797.5C 1528.7,793.245 1529.7,789.912 1533.5,787.5 Z"/></g>
<g><path style="opacity:0.705" fill="#000000" d="M 1591.5,795.5 C 1597.84,795.334 1604.18,795.5 1610.5,796C 1614.21,797.691 1615.38,800.525 1614,804.5C 1610.73,806.101 1607.23,806.934 1603.5,807C 1598.17,807.667 1592.83,807.667 1587.5,807C 1584.3,805.828 1582.8,803.661 1583,800.5C 1585.4,797.892 1588.23,796.225 1591.5,795.5 Z"/></g>
<g><path style="opacity:0.75" fill="#000000" d="M 1643.5,798.5 C 1653.84,798.334 1664.17,798.5 1674.5,799C 1678.58,802.697 1678.25,806.03 1673.5,809C 1663.09,809.926 1652.76,809.592 1642.5,808C 1636.82,803.926 1637.16,800.76 1643.5,798.5 Z"/></g>
<g><path style="opacity:0.71" fill="#000000" d="M 916.5,847.5 C 919.649,847.211 922.649,847.711 925.5,849C 930.415,853.244 934.581,858.077 938,863.5C 941.086,867.257 944.752,870.257 949,872.5C 949.953,874.455 951.287,876.122 953,877.5C 953.497,880.146 953.664,882.813 953.5,885.5C 952.5,885.5 951.5,885.5 950.5,885.5C 950.343,881.482 948.51,880.149 945,881.5C 939.362,880.527 934.695,877.861 931,873.5C 926.427,866.256 921.093,859.59 915,853.5C 914.252,851.16 914.752,849.16 916.5,847.5 Z"/></g>
<g><path style="opacity:0.739" fill="#000000" d="M 798.5,871.5 C 800.936,871.317 803.103,871.984 805,873.5C 806.586,880.057 806.92,886.724 806,893.5C 803.45,900.99 800.617,908.324 797.5,915.5C 798.61,924.138 798.776,932.804 798,941.5C 797.735,943.651 796.735,945.318 795,946.5C 790.889,947.404 786.722,947.737 782.5,947.5C 782.373,944.755 783.54,942.755 786,941.5C 786.333,932.5 786.667,923.5 787,914.5C 789.205,906.013 791.871,897.68 795,889.5C 795.333,884.5 795.667,879.5 796,874.5C 796.698,873.309 797.531,872.309 798.5,871.5 Z"/></g>
<g><path style="opacity:0.734" fill="#000000" d="M 958.5,888.5 C 965.451,888 968.618,891.334 968,898.5C 973.626,903.733 980.126,907.566 987.5,910C 990.125,912.196 991.125,915.03 990.5,918.5C 984.188,920.146 978.188,919.313 972.5,916C 967.224,913.112 962.391,909.612 958,905.5C 954.542,899.616 954.708,893.95 958.5,888.5 Z"/></g>
<g><path style="opacity:0.645" fill="#000000" d="M 1005.5,921.5 C 1010.09,921.255 1012.76,923.422 1013.5,928C 1019.87,930.054 1024.71,933.888 1028,939.5C 1028.49,940.793 1028.66,942.127 1028.5,943.5C 1020.21,942.827 1012.54,940.161 1005.5,935.5C 1001.57,930.728 1001.57,926.061 1005.5,921.5 Z"/></g>
<g><path style="opacity:0.741" fill="#000000" d="M 779.5,964.5 C 781.5,964.833 783.5,965.167 785.5,965.5C 786.591,975.466 786.758,985.466 786,995.5C 784.55,998.723 782.217,1001.06 779,1002.5C 777.265,1001.32 776.265,999.651 776,997.5C 775.333,987.833 775.333,978.167 776,968.5C 776.69,966.65 777.856,965.316 779.5,964.5 Z"/></g>
<g><path style="opacity:0.645" fill="#000000" d="M 1074.5,965.5 C 1082.65,966.07 1084.65,970.07 1080.5,977.5C 1084.88,979.237 1089.21,981.071 1093.5,983C 1097.39,987.29 1102.05,990.623 1107.5,993C 1109.92,994.509 1110.92,996.675 1110.5,999.5C 1108.35,999.628 1106.35,999.128 1104.5,998C 1099.58,994.622 1094.74,991.122 1090,987.5C 1088.72,989.308 1087.05,990.641 1085,991.5C 1068.04,988.108 1064.54,979.442 1074.5,965.5 Z"/></g>
<g><path style="opacity:0.623" fill="#000000" d="M 777.5,1015.5 C 782.158,1015.49 784.491,1017.82 784.5,1022.5C 784.168,1028.83 781.502,1033.83 776.5,1037.5C 773.743,1035.42 772.409,1032.59 772.5,1029C 773.037,1023.98 774.703,1019.48 777.5,1015.5 Z"/></g>
<g><path style="opacity:0.696" fill="#000000" d="M 1133.5,1020.5 C 1138.79,1021.03 1141.29,1024.03 1141,1029.5C 1146.23,1033.39 1148.39,1038.39 1147.5,1044.5C 1144.6,1044.68 1141.77,1044.35 1139,1043.5C 1133.48,1039.66 1129.98,1034.49 1128.5,1028C 1128.47,1024.14 1130.13,1021.64 1133.5,1020.5 Z"/></g>
<g><path style="opacity:0.577" fill="#000000" d="M 774.5,1052.5 C 775.978,1052.24 777.311,1052.57 778.5,1053.5C 779.599,1056.3 780.599,1059.13 781.5,1062C 780.464,1064.77 779.631,1067.61 779,1070.5C 776.998,1072.5 775.498,1074.84 774.5,1077.5C 773.476,1078.85 772.143,1079.52 770.5,1079.5C 770.579,1075.8 770.246,1072.13 769.5,1068.5C 770.771,1063.02 772.437,1057.69 774.5,1052.5 Z"/></g>
<g><path style="opacity:0.665" fill="#000000" d="M 1171.5,1057.5 C 1179.99,1058.23 1185.65,1062.57 1188.5,1070.5C 1187.97,1074.75 1185.64,1076.59 1181.5,1076C 1178.6,1072.27 1174.93,1069.44 1170.5,1067.5C 1167.62,1063.74 1167.95,1060.41 1171.5,1057.5 Z"/></g>
<g><path style="opacity:0.685" fill="#000000" d="M 1209.5,1094.5 C 1211.58,1094.47 1213.42,1095.14 1215,1096.5C 1220.13,1103.8 1224.63,1111.46 1228.5,1119.5C 1227.61,1122.08 1227.27,1124.75 1227.5,1127.5C 1223.48,1126.69 1219.98,1124.69 1217,1121.5C 1215.17,1117.17 1212.84,1113.17 1210,1109.5C 1208.27,1106.7 1207.1,1103.7 1206.5,1100.5C 1206.47,1097.9 1207.47,1095.9 1209.5,1094.5 Z"/></g>
<g><path style="opacity:0.635" fill="#000000" d="M 766.5,1104.5 C 768.5,1104.5 770.5,1104.5 772.5,1104.5C 772.276,1108.95 772.276,1113.29 772.5,1117.5C 771.32,1123.02 767.986,1126.02 762.5,1126.5C 762.334,1120.49 762.501,1114.49 763,1108.5C 764.376,1107.29 765.542,1105.96 766.5,1104.5 Z"/></g>
<g><path style="opacity:0.73" fill="#000000" d="M 1231.5,1122.5 C 1233.99,1122.3 1236.32,1122.8 1238.5,1124C 1243.33,1128.83 1248.17,1133.67 1253,1138.5C 1256.84,1143.51 1255.67,1146.84 1249.5,1148.5C 1248.06,1148.28 1246.73,1147.78 1245.5,1147C 1240.67,1142.17 1235.83,1137.33 1231,1132.5C 1228.88,1129.02 1229.04,1125.68 1231.5,1122.5 Z"/></g>
<g><path style="opacity:0.641" fill="#000000" d="M 764.5,1137.5 C 765.5,1137.5 766.5,1137.5 767.5,1137.5C 767.626,1142.5 768.626,1147.34 770.5,1152C 769.589,1163.08 765.755,1172.92 759,1181.5C 757.347,1181.18 756.347,1180.18 756,1178.5C 755.333,1174.83 755.333,1171.17 756,1167.5C 758.949,1157.49 761.783,1147.49 764.5,1137.5 Z"/></g>
<g><path style="opacity:0.693" fill="#000000" d="M 1262.5,1153.5 C 1263.98,1153.24 1265.31,1153.57 1266.5,1154.5C 1270.44,1157.7 1273.94,1161.37 1277,1165.5C 1279.45,1169.3 1279.95,1173.3 1278.5,1177.5C 1275.68,1177.75 1273.01,1177.25 1270.5,1176C 1265.83,1171.5 1262.16,1166.34 1259.5,1160.5C 1260.24,1158.03 1261.24,1155.7 1262.5,1153.5 Z"/></g>
<g><path style="opacity:0.646" fill="#000000" d="M 762.5,1199.5 C 763.822,1199.33 764.989,1199.66 766,1200.5C 769.018,1208.41 768.351,1216.07 764,1223.5C 763.261,1224.57 762.261,1225.24 761,1225.5C 756.297,1220.22 755.297,1214.22 758,1207.5C 759.259,1204.64 760.759,1201.98 762.5,1199.5 Z"/></g>
<g><path style="opacity:0.719" fill="#000000" d="M 1321.5,1201.5 C 1324.56,1201.14 1327.23,1201.98 1329.5,1204C 1335.28,1209.45 1340.78,1215.29 1346,1221.5C 1347.78,1224.72 1349.28,1228.05 1350.5,1231.5C 1349.54,1233.48 1348.54,1235.48 1347.5,1237.5C 1346.17,1238.83 1344.83,1238.83 1343.5,1237.5C 1337.62,1229.12 1330.79,1221.45 1323,1214.5C 1320.44,1210.36 1319.94,1206.03 1321.5,1201.5 Z"/></g>
<g><path style="opacity:0.627" fill="#000000" d="M 761.5,1239.5 C 762.822,1239.33 763.989,1239.66 765,1240.5C 767.828,1249.75 768.161,1259.08 766,1268.5C 764.624,1272.17 762.79,1275.51 760.5,1278.5C 758.34,1275.71 757.006,1272.54 756.5,1269C 757.975,1259.89 759.142,1250.72 760,1241.5C 760.717,1240.96 761.217,1240.29 761.5,1239.5 Z"/></g>
<g><path style="opacity:0.722" fill="#000000" d="M 1433.5,1295.5 C 1436.47,1295.31 1438.97,1296.31 1441,1298.5C 1444.85,1306.02 1449.85,1312.68 1456,1318.5C 1457.68,1323.38 1456.18,1326.71 1451.5,1328.5C 1445.89,1324.72 1441.05,1320.06 1437,1314.5C 1431.89,1308.74 1430.73,1302.4 1433.5,1295.5 Z"/></g>
<g><path style="opacity:0.631" fill="#000000" d="M 767.5,1304.5 C 768.822,1304.33 769.989,1304.66 771,1305.5C 774.118,1317.6 771.785,1328.26 764,1337.5C 758.66,1326.05 759.827,1315.05 767.5,1304.5 Z"/></g>
<g><path style="opacity:0.716" fill="#000000" d="M 1470.5,1348.5 C 1476.25,1348.6 1479.42,1351.6 1480,1357.5C 1484.12,1361.42 1486.96,1366.09 1488.5,1371.5C 1488.29,1377.4 1485.62,1378.9 1480.5,1376C 1474.12,1370.23 1469.78,1363.23 1467.5,1355C 1467.32,1352.2 1468.32,1350.03 1470.5,1348.5 Z"/></g>
<g><path style="opacity:0.654" fill="#000000" d="M 768.5,1365.5 C 769.822,1365.33 770.989,1365.66 772,1366.5C 776.905,1377.04 776.072,1387.21 769.5,1397C 765.003,1399.63 762.003,1398.46 760.5,1393.5C 762.746,1383.98 765.413,1374.64 768.5,1365.5 Z"/></g>
<g><path style="opacity:0.712" fill="#000000" d="M 1494.5,1383.5 C 1496.31,1383.49 1497.98,1383.99 1499.5,1385C 1502.92,1390.42 1507.09,1395.26 1512,1399.5C 1515.4,1404.15 1515.23,1408.65 1511.5,1413C 1512.15,1414.44 1512.48,1415.94 1512.5,1417.5C 1510.61,1417.7 1509.11,1417.04 1508,1415.5C 1504.55,1408.04 1499.55,1401.71 1493,1396.5C 1492.17,1394 1491.33,1391.5 1490.5,1389C 1491.48,1386.85 1492.82,1385.02 1494.5,1383.5 Z"/></g>
<g><path style="opacity:0.716" fill="#000000" d="M 764.5,1405.5 C 768.362,1405.69 770.695,1407.69 771.5,1411.5C 768.724,1419.33 766.057,1427.16 763.5,1435C 760.281,1437.05 757.448,1436.55 755,1433.5C 754.505,1422.82 757.672,1413.48 764.5,1405.5 Z"/></g>
<g><path style="opacity:0.569" fill="#000000" d="M 1526.5,1439.5 C 1528.14,1439.29 1529.64,1439.62 1531,1440.5C 1534.86,1447.7 1539.53,1454.37 1545,1460.5C 1545.49,1462.13 1545.66,1463.8 1545.5,1465.5C 1541.87,1464.39 1538.87,1462.23 1536.5,1459C 1526.4,1456.05 1523.06,1449.55 1526.5,1439.5 Z"/></g>
<g><path style="opacity:0.684" fill="#000000" d="M 758.5,1453.5 C 760.167,1453.5 761.833,1453.5 763.5,1453.5C 766.423,1462.22 767.256,1471.22 766,1480.5C 763.836,1485.83 760.67,1486.67 756.5,1483C 753.431,1472.86 754.098,1463.03 758.5,1453.5 Z"/></g>
<g><path style="opacity:0.48" fill="#000000" d="M 1551.5,1468.5 C 1553.14,1468.29 1554.64,1468.62 1556,1469.5C 1557.24,1472.41 1558.91,1475.08 1561,1477.5C 1561.83,1480.67 1560.67,1481.83 1557.5,1481C 1550.82,1479.06 1548.82,1474.9 1551.5,1468.5 Z"/></g>
<g><path style="opacity:0.71" fill="#000000" d="M 1575.5,1495.5 C 1577.65,1495.37 1579.65,1495.87 1581.5,1497C 1582.58,1500.36 1584.25,1503.36 1586.5,1506C 1590.21,1506.74 1593.87,1507.57 1597.5,1508.5C 1597.3,1510.39 1597.96,1511.89 1599.5,1513C 1598.5,1514.67 1597.5,1516.33 1596.5,1518C 1587.66,1519.5 1580.16,1517 1574,1510.5C 1571.63,1505.12 1572.13,1500.12 1575.5,1495.5 Z"/></g>
<g><path style="opacity:0.545" fill="#000000" d="M 759.5,1496.5 C 760.833,1496.5 762.167,1496.5 763.5,1496.5C 766.247,1503.55 766.08,1510.55 763,1517.5C 761.989,1518.34 760.822,1518.67 759.5,1518.5C 757.047,1511.13 757.047,1503.79 759.5,1496.5 Z"/></g>
<g><path style="opacity:0.486" fill="#000000" d="M 1597.5,1530.5 C 1600.42,1530.46 1603.09,1531.29 1605.5,1533C 1608.36,1537.36 1612.02,1540.86 1616.5,1543.5C 1617.43,1544.69 1617.76,1546.02 1617.5,1547.5C 1606.58,1546.92 1599.91,1541.25 1597.5,1530.5 Z"/></g>
<g><path style="opacity:0.643" fill="#000000" d="M 763.5,1533.5 C 771.782,1536.83 776.448,1543.16 777.5,1552.5C 777.121,1555.58 776.454,1558.58 775.5,1561.5C 773.833,1561.5 772.167,1561.5 770.5,1561.5C 768.646,1554.76 766.479,1548.09 764,1541.5C 763.503,1538.85 763.336,1536.19 763.5,1533.5 Z"/></g>
<g><path style="opacity:0.672" fill="#000000" d="M 1652.5,1569.5 C 1654.2,1569.34 1655.87,1569.51 1657.5,1570C 1662.04,1571.88 1666.04,1574.55 1669.5,1578C 1671.96,1579.79 1673.62,1582.12 1674.5,1585C 1673.9,1586.61 1672.9,1587.94 1671.5,1589C 1674.17,1590.33 1676.17,1592.33 1677.5,1595C 1682.4,1597.28 1687.4,1599.28 1692.5,1601C 1693.42,1603.04 1693.76,1605.21 1693.5,1607.5C 1687.25,1607.38 1681.25,1606.22 1675.5,1604C 1671.39,1599.61 1667.89,1594.78 1665,1589.5C 1661.97,1586.13 1658.63,1583.13 1655,1580.5C 1652.27,1577.11 1651.44,1573.45 1652.5,1569.5 Z"/></g>
<g><path style="opacity:0.447" fill="#000000" d="M 1695.5,1620.5 C 1697.53,1620.34 1699.53,1620.5 1701.5,1621C 1702.83,1622.67 1702.83,1624.33 1701.5,1626C 1698.41,1626.85 1695.58,1626.35 1693,1624.5C 1692.52,1623.55 1692.35,1622.55 1692.5,1621.5C 1693.79,1621.74 1694.79,1621.4 1695.5,1620.5 Z"/></g>
<g><path style="opacity:0.758" fill="#000000" d="M 1762.5,1637.5 C 1764.14,1637.29 1765.64,1637.62 1767,1638.5C 1768.04,1640.71 1768.71,1643.05 1769,1645.5C 1769.55,1652.27 1769.21,1658.93 1768,1665.5C 1775.59,1668.52 1783.43,1670.86 1791.5,1672.5C 1792.65,1672.18 1793.48,1671.52 1794,1670.5C 1794.85,1661.13 1795.85,1651.79 1797,1642.5C 1799.55,1637.72 1802.55,1637.39 1806,1641.5C 1807.92,1652.92 1807.42,1664.26 1804.5,1675.5C 1806.61,1677.38 1807.94,1679.72 1808.5,1682.5C 1806.86,1686.6 1804.69,1690.27 1802,1693.5C 1800.57,1706.14 1800.24,1718.8 1801,1731.5C 1802.01,1732.34 1803.18,1732.67 1804.5,1732.5C 1806.61,1741.55 1803.28,1744.39 1794.5,1741C 1791.53,1738.9 1789.7,1736.07 1789,1732.5C 1788.33,1724.17 1788.33,1715.83 1789,1707.5C 1789.76,1699.79 1790.42,1692.13 1791,1684.5C 1781.32,1682.37 1771.82,1679.54 1762.5,1676C 1756.98,1673.08 1755.14,1668.58 1757,1662.5C 1758.62,1654.08 1760.46,1645.75 1762.5,1637.5 Z"/></g>
<g><path style="opacity:0.771" fill="#000000" d="M 769.5,1662.5 C 788.503,1662.33 807.503,1662.5 826.5,1663C 832.242,1667.24 833.742,1672.74 831,1679.5C 827.403,1686.89 821.903,1692.39 814.5,1696C 808.473,1699.18 802.14,1701.51 795.5,1703C 802.24,1707.07 808.407,1711.9 814,1717.5C 818.782,1724.08 820.782,1731.41 820,1739.5C 818.437,1742.73 815.937,1744.9 812.5,1746C 785.916,1749.47 762.416,1742.64 742,1725.5C 739.764,1720.64 741.264,1717.64 746.5,1716.5C 755.977,1722.41 765.977,1727.57 776.5,1732C 787.037,1734.23 797.704,1735.07 808.5,1734.5C 807.426,1727.92 804.093,1722.75 798.5,1719C 790.748,1714.37 782.915,1709.87 775,1705.5C 771.636,1698.91 773.47,1694.74 780.5,1693C 793.052,1692.61 804.719,1689.28 815.5,1683C 819.029,1680.67 821.029,1677.5 821.5,1673.5C 804.163,1673.67 786.83,1673.5 769.5,1673C 765.605,1669.51 765.605,1666.01 769.5,1662.5 Z"/></g>
</svg>
