<?xml version="1.0" encoding="UTF-8"?>
<!DOCTYPE svg PUBLIC "-//W3C//DTD SVG 1.1//EN" "http://www.w3.org/Graphics/SVG/1.1/DTD/svg11.dtd">
<svg xmlns="http://www.w3.org/2000/svg" version="1.1" width="2550px" height="2550px" style="shape-rendering:geometricPrecision; text-rendering:geometricPrecision; image-rendering:optimizeQuality; fill-rule:evenodd; clip-rule:evenodd" xmlns:xlink="http://www.w3.org/1999/xlink">
<g><path style="opacity:0.775" fill="#000000" d="M 801.5,667.5 C 808.508,668.084 815.508,668.751 822.5,669.5C 822.5,670.833 822.5,672.167 822.5,673.5C 814.159,673.81 805.826,674.31 797.5,675C 793.263,676.452 789.263,678.452 785.5,681C 802.22,679.862 818.886,680.529 835.5,683C 844.825,685.413 852.659,690.246 859,697.5C 871.686,713.528 882.353,730.861 891,749.5C 892.163,755.468 893.163,761.468 894,767.5C 901.945,764.806 910.112,763.639 918.5,764C 920.155,765.444 920.822,767.278 920.5,769.5C 911.281,770.056 902.281,771.722 893.5,774.5C 893.435,779.454 892.768,784.287 891.5,789C 896.663,793.787 902.663,797.454 909.5,800C 911.167,801.667 912.833,803.333 914.5,805C 932.934,811.487 951.934,815.153 971.5,816C 997.155,817.066 1022.82,817.733 1048.5,818C 1075.83,820.667 1103.17,823.333 1130.5,826C 1189,835.548 1247.67,843.881 1306.5,851C 1324.57,854.684 1342.57,858.684 1360.5,863C 1372.74,865.385 1385.07,867.052 1397.5,868C 1453.21,868.685 1508.87,870.018 1564.5,872C 1566.96,873.562 1569.62,874.562 1572.5,875C 1587.83,875.667 1603.17,875.667 1618.5,875C 1629.79,868.015 1642.12,864.015 1655.5,863C 1664.88,862.816 1674.21,862.15 1683.5,861C 1678.84,853.341 1672.17,848.341 1663.5,846C 1657.23,840.707 1656.9,835.04 1662.5,829C 1663.45,828.517 1664.45,828.351 1665.5,828.5C 1665.49,830.308 1665.99,831.975 1667,833.5C 1672.26,837.036 1677.76,840.203 1683.5,843C 1689.02,849.621 1694.86,855.787 1701,861.5C 1703.25,865.087 1706.25,868.087 1710,870.5C 1710.94,873.347 1710.44,875.847 1708.5,878C 1705.06,878.92 1702.06,880.587 1699.5,883C 1687.47,894.696 1675.8,906.696 1664.5,919C 1660.38,920.845 1657.21,919.679 1655,915.5C 1653.91,910.088 1656.08,906.921 1661.5,906C 1671.47,895.029 1681.8,884.363 1692.5,874C 1679.5,873.96 1666.5,874.293 1653.5,875C 1641.51,876.44 1630.51,880.44 1620.5,887C 1606.17,887.667 1591.83,887.667 1577.5,887C 1572.32,886.869 1567.32,885.869 1562.5,884C 1545.75,884.072 1529.09,883.072 1512.5,881C 1475.17,880.667 1437.83,880.333 1400.5,880C 1385.41,878.654 1370.41,876.654 1355.5,874C 1320.45,864.374 1284.79,858.374 1248.5,856C 1209.77,850.372 1171.1,844.372 1132.5,838C 1105.49,835.399 1078.49,832.733 1051.5,830C 1026.18,828.859 1000.85,828.192 975.5,828C 952.448,827.214 930.115,822.881 908.5,815C 905.956,813.245 903.623,811.245 901.5,809C 896.547,807.521 892.213,805.021 888.5,801.5C 886.333,805.167 884.167,808.833 882,812.5C 881.202,814.259 881.369,815.926 882.5,817.5C 886.548,818.122 890.048,819.788 893,822.5C 903.415,840.333 914.082,857.999 925,875.5C 934.727,888.233 945.561,900.066 957.5,911C 979.833,930.667 1002.17,950.333 1024.5,970C 1049.78,986.943 1074.78,1004.28 1099.5,1022C 1117.65,1037.57 1135.98,1052.9 1154.5,1068C 1178.57,1091.39 1200.41,1116.56 1220,1143.5C 1227,1151.5 1234,1159.5 1241,1167.5C 1262.53,1188.27 1283.86,1209.27 1305,1230.5C 1329.16,1256.33 1353.66,1281.83 1378.5,1307C 1384.3,1302.73 1390.3,1298.4 1396.5,1294C 1399.05,1292.34 1401.72,1292.18 1404.5,1293.5C 1406.07,1297.98 1405.07,1301.81 1401.5,1305C 1396.29,1307.77 1390.95,1310.27 1385.5,1312.5C 1384.48,1313 1384.31,1313.67 1385,1314.5C 1397.04,1327.54 1408.71,1340.87 1420,1354.5C 1436.36,1378.55 1453.69,1401.88 1472,1424.5C 1485.33,1437.73 1499.49,1449.9 1514.5,1461C 1526.91,1474.41 1540.24,1486.74 1554.5,1498C 1560.2,1503.36 1565.53,1509.03 1570.5,1515C 1586.47,1523.56 1602.8,1531.56 1619.5,1539C 1630.3,1548.24 1641.96,1556.24 1654.5,1563C 1661.27,1574.69 1668.43,1586.19 1676,1597.5C 1679.99,1602.5 1684.83,1606.34 1690.5,1609C 1696.53,1614.7 1702.2,1620.7 1707.5,1627C 1710.91,1629.57 1714.57,1630.57 1718.5,1630C 1720.04,1631.11 1720.7,1632.61 1720.5,1634.5C 1721.55,1634.65 1722.55,1634.48 1723.5,1634C 1733.91,1624.54 1746.08,1618.71 1760,1616.5C 1764.81,1617.2 1769.64,1617.53 1774.5,1617.5C 1777.75,1605.01 1780.25,1592.34 1782,1579.5C 1782.5,1577.67 1783.67,1576.5 1785.5,1576C 1783.95,1574.79 1782.78,1573.29 1782,1571.5C 1781.38,1567.11 1780.55,1562.78 1779.5,1558.5C 1780.2,1555.64 1781.53,1553.14 1783.5,1551C 1785.7,1550.18 1787.53,1550.68 1789,1552.5C 1792.09,1558.83 1793.09,1565.5 1792,1572.5C 1791.36,1573.65 1790.52,1574.65 1789.5,1575.5C 1791.86,1578.02 1792.86,1581.02 1792.5,1584.5C 1791.45,1596.12 1789.12,1607.45 1785.5,1618.5C 1796.44,1619.73 1807.1,1622.23 1817.5,1626C 1839.76,1635.75 1861.76,1646.09 1883.5,1657C 1904.86,1669.4 1915.86,1688.07 1916.5,1713C 1915.81,1721.49 1915.31,1729.99 1915,1738.5C 1913.17,1752.66 1905.67,1762.5 1892.5,1768C 1873.32,1776.06 1853.65,1782.73 1833.5,1788C 1811.77,1791.59 1790.1,1791.26 1768.5,1787C 1741.37,1778.85 1721.2,1762.35 1708,1737.5C 1702.93,1728.79 1699.76,1719.46 1698.5,1709.5C 1690.49,1709.67 1682.49,1709.5 1674.5,1709C 1645.58,1704.12 1616.58,1699.79 1587.5,1696C 1530.83,1695.33 1474.17,1695.33 1417.5,1696C 1394.5,1698.33 1371.5,1700.67 1348.5,1703C 1316.18,1704.13 1283.84,1704.79 1251.5,1705C 1226.2,1707.61 1200.87,1709.95 1175.5,1712C 1168.82,1712.91 1162.15,1713.91 1155.5,1715C 1126.69,1722.79 1097.69,1729.79 1068.5,1736C 1029.9,1740.99 991.234,1745.32 952.5,1749C 938.141,1749.77 923.807,1749.44 909.5,1748C 902.864,1746.52 896.531,1744.18 890.5,1741C 887.518,1740.5 884.518,1740.34 881.5,1740.5C 876.261,1767.84 860.928,1787.01 835.5,1798C 805.518,1802.04 775.851,1800.37 746.5,1793C 702.045,1778.78 684.879,1748.62 695,1702.5C 698.338,1681.13 706.338,1661.8 719,1644.5C 733.136,1628.68 749.303,1615.52 767.5,1605C 768.108,1603.77 768.441,1602.44 768.5,1601C 767.408,1548.17 767.574,1495.34 769,1442.5C 771.03,1429.93 771.863,1417.27 771.5,1404.5C 770.282,1371.18 769.449,1337.84 769,1304.5C 766.647,1292.29 765.314,1279.95 765,1267.5C 764.333,1225.17 764.333,1182.83 765,1140.5C 765.891,1119.93 768.557,1099.59 773,1079.5C 774.333,1066.17 775.667,1052.83 777,1039.5C 791.403,975.418 802.236,910.751 809.5,845.5C 791.4,845.943 775.4,840.443 761.5,829C 748.286,819.464 738.453,807.298 732,792.5C 729.016,774.578 728.683,756.578 731,738.5C 736.238,707.822 752.738,685.655 780.5,672C 787.46,669.643 794.46,668.143 801.5,667.5 Z M 781.5,683.5 C 776.858,688.78 776.358,694.447 780,700.5C 782.567,697.269 785.734,694.769 789.5,693C 801.167,692.333 812.833,692.333 824.5,693C 834.701,693.186 843.201,697.019 850,704.5C 859.786,717.625 868.786,731.292 877,745.5C 882.66,762.35 882.993,779.35 878,796.5C 868.38,816.116 852.88,828.282 831.5,833C 804.702,838.554 781.368,832.221 761.5,814C 754.829,807.475 748.995,800.309 744,792.5C 743.08,789.899 742.413,787.232 742,784.5C 741.333,771.5 741.333,758.5 742,745.5C 744.351,717.768 757.517,697.102 781.5,683.5 Z M 875.5,820.5 C 879.098,823.625 882.264,827.291 885,831.5C 894.585,847.001 903.918,862.668 913,878.5C 921.67,890.317 931.17,901.484 941.5,912C 965.833,933.667 990.167,955.333 1014.5,977C 1041.01,995.087 1067.34,1013.42 1093.5,1032C 1118.89,1052.38 1143.39,1073.88 1167,1096.5C 1187.29,1121.79 1207.96,1146.79 1229,1171.5C 1282.67,1225.17 1335.67,1279.5 1388,1334.5C 1409.26,1358.75 1428.59,1384.42 1446,1411.5C 1462.09,1432.47 1480.93,1450.64 1502.5,1466C 1516.97,1481.81 1532.63,1496.14 1549.5,1509C 1554.13,1514.63 1559.13,1519.97 1564.5,1525C 1579.75,1533.42 1595.42,1541.09 1611.5,1548C 1623.56,1557.45 1636.06,1566.28 1649,1574.5C 1656.1,1590.92 1666.27,1605.09 1679.5,1617C 1681.09,1617.86 1682.75,1618.53 1684.5,1619C 1690.14,1624.31 1695.48,1629.98 1700.5,1636C 1703.55,1638.19 1706.89,1639.86 1710.5,1641C 1711.17,1642 1711.83,1643 1712.5,1644C 1700,1659.95 1695,1678.11 1697.5,1698.5C 1690.83,1698.67 1684.16,1698.5 1677.5,1698C 1646.63,1692.5 1615.63,1687.83 1584.5,1684C 1524.82,1683.09 1465.16,1683.43 1405.5,1685C 1348.74,1692.22 1291.74,1695.22 1234.5,1694C 1210.55,1697.16 1186.55,1699.83 1162.5,1702C 1135.02,1708.04 1107.69,1714.7 1080.5,1722C 1055.14,1725.13 1029.81,1728.46 1004.5,1732C 987.751,1732.86 971.084,1734.52 954.5,1737C 941.5,1737.67 928.5,1737.67 915.5,1737C 909.328,1736.22 903.328,1734.72 897.5,1732.5C 893.114,1734.85 888.448,1736.18 883.5,1736.5C 890.093,1714.6 886.926,1694.26 874,1675.5C 865.34,1660.84 855.173,1647.34 843.5,1635C 834.885,1626.57 824.552,1621.57 812.5,1620C 802.151,1619.83 791.817,1619.33 781.5,1618.5C 782.785,1615.98 783.452,1613.31 783.5,1610.5C 786.518,1610.34 789.518,1610.5 792.5,1611C 794.394,1612.78 796.061,1614.78 797.5,1617C 799.274,1618.76 800.941,1618.76 802.5,1617C 801.234,1612.23 798.568,1608.39 794.5,1605.5C 790.594,1604.43 786.927,1603.59 783.5,1603C 784.337,1601.99 784.67,1600.82 784.5,1599.5C 782.856,1599.29 781.356,1599.62 780,1600.5C 779.4,1547.16 779.733,1493.83 781,1440.5C 783.009,1429.1 783.843,1417.6 783.5,1406C 782.185,1372.85 781.351,1339.68 781,1306.5C 778.791,1295.95 777.457,1285.28 777,1274.5C 776.333,1228.17 776.333,1181.83 777,1135.5C 781.259,1103.54 785.259,1071.54 789,1039.5C 803.507,975.461 814.007,910.795 820.5,845.5C 842.498,844.997 860.832,836.664 875.5,820.5 Z M 759.5,1623.5 C 762.202,1620.64 765.369,1618.31 769,1616.5C 769.707,1618.08 770.54,1619.58 771.5,1621C 767.506,1621.94 763.506,1622.78 759.5,1623.5 Z M 777.5,1631.5 C 789.505,1631.33 801.505,1631.5 813.5,1632C 825.401,1635.21 835.234,1641.71 843,1651.5C 854.747,1665.98 864.747,1681.65 873,1698.5C 879.436,1724.64 875.436,1748.97 861,1771.5C 852.937,1781.62 842.437,1787.12 829.5,1788C 803.912,1789.82 778.579,1788.15 753.5,1783C 711.638,1771.37 696.138,1744.2 707,1701.5C 711.059,1674.55 723.559,1652.38 744.5,1635C 746.132,1636.68 748.299,1637.85 751,1638.5C 759.895,1635.9 768.729,1633.57 777.5,1631.5 Z M 1768.5,1631.5 C 1784.21,1630.38 1799.55,1632.21 1814.5,1637C 1838.88,1647.35 1862.54,1659.02 1885.5,1672C 1900.87,1684.92 1907.2,1701.42 1904.5,1721.5C 1904.59,1728.89 1904.09,1736.23 1903,1743.5C 1900.17,1750.33 1895.33,1755.17 1888.5,1758C 1868.83,1765.33 1848.83,1771.67 1828.5,1777C 1808.37,1779.49 1788.37,1778.83 1768.5,1775C 1747.27,1768.11 1731.11,1754.94 1720,1735.5C 1714.98,1727.46 1711.64,1718.79 1710,1709.5C 1709.33,1698.17 1709.33,1686.83 1710,1675.5C 1710.85,1667.8 1713.85,1661.13 1719,1655.5C 1727.06,1656.95 1729.89,1653.62 1727.5,1645.5C 1731.06,1642.14 1734.89,1639.14 1739,1636.5C 1738.88,1640.94 1740.05,1644.94 1742.5,1648.5C 1749.17,1650.17 1755.83,1651.83 1762.5,1653.5C 1762.72,1652.32 1762.39,1651.32 1761.5,1650.5C 1756.23,1649.14 1752.56,1645.98 1750.5,1641C 1751.26,1639.49 1752.26,1638.15 1753.5,1637C 1758.3,1634.24 1763.3,1632.4 1768.5,1631.5 Z"/></g>
<g><path style="opacity:0.779" fill="#000000" d="M 1775.5,726.5 C 1779.5,726.5 1783.5,726.5 1787.5,726.5C 1787.5,727.833 1787.5,729.167 1787.5,730.5C 1784.93,730.148 1782.59,730.648 1780.5,732C 1781.5,732.333 1782.5,732.667 1783.5,733C 1808.93,735.615 1834.27,738.948 1859.5,743C 1883.9,748.063 1898.06,762.897 1902,787.5C 1902.67,799.167 1902.67,810.833 1902,822.5C 1892.21,859.588 1870.04,886.421 1835.5,903C 1809.66,909.573 1784.99,906.573 1761.5,894C 1746,885.667 1732.5,874.833 1721,861.5C 1711.83,847.539 1708.83,832.206 1712,815.5C 1713.75,805.597 1717.08,796.264 1722,787.5C 1731.77,770.398 1743.77,755.065 1758,741.5C 1759.26,734.091 1763.76,730.258 1771.5,730C 1772.73,728.595 1774.06,727.429 1775.5,726.5 Z M 1767.5,742.5 C 1790.72,746.099 1814.06,748.932 1837.5,751C 1851.81,751.91 1865.15,755.91 1877.5,763C 1888.13,774.887 1892.8,788.887 1891.5,805C 1891.68,814.025 1890.52,822.858 1888,831.5C 1877.17,857.66 1859.34,877.494 1834.5,891C 1808.14,898.606 1783.47,894.939 1760.5,880C 1749.57,873.124 1739.74,864.957 1731,855.5C 1724.98,848.106 1722.15,839.606 1722.5,830C 1722.69,820.936 1724.19,812.102 1727,803.5C 1730.49,795.847 1734.49,788.513 1739,781.5C 1748.72,768.622 1758.22,755.622 1767.5,742.5 Z"/></g>
<g><path style="opacity:0.746" fill="#000000" d="M 818.5,728.5 C 822.057,728.497 824.224,730.163 825,733.5C 825.667,744.5 825.667,755.5 825,766.5C 822.626,781.783 820.626,797.116 819,812.5C 815.277,816.311 811.944,815.977 809,811.5C 808.825,797.382 810.159,783.382 813,769.5C 813.667,759.167 813.667,748.833 813,738.5C 811.644,739.38 810.144,739.714 808.5,739.5C 808.383,737.516 809.05,735.85 810.5,734.5C 813.577,732.966 816.243,730.966 818.5,728.5 Z"/></g>
<g><path style="opacity:0.738" fill="#000000" d="M 945.5,761.5 C 959.802,762.942 974.135,764.108 988.5,765C 994.959,766.412 996.625,769.912 993.5,775.5C 979.119,776.378 964.786,775.545 950.5,773C 942.469,771.467 940.802,767.634 945.5,761.5 Z"/></g>
<g><path style="opacity:0.732" fill="#000000" d="M 1043.5,766.5 C 1053.19,765.772 1062.52,767.606 1071.5,772C 1073.53,773.396 1073.86,775.062 1072.5,777C 1067.65,779.789 1062.65,780.122 1057.5,778C 1049.46,777.277 1041.46,777.61 1033.5,779C 1030.26,781.635 1026.6,782.635 1022.5,782C 1018.66,778.438 1018.66,774.771 1022.5,771C 1029.42,768.463 1036.42,766.963 1043.5,766.5 Z"/></g>
<g><path style="opacity:0.719" fill="#000000" d="M 1082.5,767.5 C 1092.17,767.334 1101.84,767.5 1111.5,768C 1116.56,770.355 1117.22,773.355 1113.5,777C 1102.62,779.902 1091.62,780.235 1080.5,778C 1077.57,776.124 1076.91,773.624 1078.5,770.5C 1079.9,769.479 1081.23,768.479 1082.5,767.5 Z"/></g>
<g><path style="opacity:0.673" fill="#000000" d="M 1201.5,770.5 C 1208.05,770.225 1214.55,770.558 1221,771.5C 1226.05,775.967 1225.38,779.301 1219,781.5C 1211.87,780.718 1204.7,780.218 1197.5,780C 1195.5,779.333 1193.5,778.667 1191.5,778C 1190.27,776.817 1190.27,775.651 1191.5,774.5C 1194.69,772.554 1198.02,771.221 1201.5,770.5 Z"/></g>
<g><path style="opacity:0.711" fill="#000000" d="M 1151.5,771.5 C 1160.17,771.334 1168.84,771.5 1177.5,772C 1182.71,773.179 1184.38,776.179 1182.5,781C 1172.65,783.458 1162.65,784.125 1152.5,783C 1147.6,780.936 1146.27,777.436 1148.5,772.5C 1149.79,772.737 1150.79,772.404 1151.5,771.5 Z"/></g>
<g><path style="opacity:0.699" fill="#000000" d="M 1309.5,775.5 C 1320.02,775.337 1330.02,777.337 1339.5,781.5C 1341.42,786.918 1339.42,789.584 1333.5,789.5C 1325.51,787.935 1317.51,786.435 1309.5,785C 1304.29,781.733 1304.29,778.566 1309.5,775.5 Z"/></g>
<g><path style="opacity:0.665" fill="#000000" d="M 1258.5,776.5 C 1265.51,776.334 1272.51,776.5 1279.5,777C 1281.99,779.244 1281.99,781.577 1279.5,784C 1267.82,784.438 1256.15,784.105 1244.5,783C 1243.03,782.29 1242.36,781.124 1242.5,779.5C 1247.91,778.236 1253.24,777.236 1258.5,776.5 Z"/></g>
<g><path style="opacity:0.734" fill="#000000" d="M 1381.5,781.5 C 1389.16,782.041 1396.82,782.541 1404.5,783C 1408.69,785.239 1409.36,788.239 1406.5,792C 1404.22,792.986 1401.89,793.82 1399.5,794.5C 1388.88,793.689 1378.21,793.189 1367.5,793C 1364.74,792.468 1362.07,791.634 1359.5,790.5C 1358.24,788.647 1358.24,786.814 1359.5,785C 1361.39,784.027 1363.39,783.36 1365.5,783C 1371.02,782.827 1376.35,782.327 1381.5,781.5 Z"/></g>
<g><path style="opacity:0.718" fill="#000000" d="M 1438.5,786.5 C 1446.57,785.727 1454.07,787.394 1461,791.5C 1465.07,796.785 1463.91,800.118 1457.5,801.5C 1450.41,799.062 1443.07,797.895 1435.5,798C 1431.23,797.088 1429.4,794.588 1430,790.5C 1432.56,788.376 1435.4,787.042 1438.5,786.5 Z"/></g>
<g><path style="opacity:0.778" fill="#000000" d="M 1748.5,787.5 C 1765.84,787.333 1783.17,787.5 1800.5,788C 1816.26,790.397 1822.43,799.23 1819,814.5C 1817.08,818.258 1814.58,821.591 1811.5,824.5C 1799.1,834.382 1785.77,842.882 1771.5,850C 1775.6,851.734 1779.93,852.734 1784.5,853C 1795.83,854 1807.17,855 1818.5,856C 1822.52,856.526 1825.19,858.693 1826.5,862.5C 1825.51,864.323 1824.18,865.823 1822.5,867C 1797.97,867.434 1773.97,864.101 1750.5,857C 1743.53,855.051 1741.86,851.051 1745.5,845C 1769.53,839.737 1790.36,828.57 1808,811.5C 1810.24,805.073 1808.07,801.239 1801.5,800C 1786.2,798.475 1770.87,798.141 1755.5,799C 1753.32,803.315 1752.98,807.815 1754.5,812.5C 1752.86,812.714 1751.36,812.38 1750,811.5C 1746.79,804.783 1745.12,797.783 1745,790.5C 1746.15,789.364 1747.31,788.364 1748.5,787.5 Z"/></g>
<g><path style="opacity:0.71" fill="#000000" d="M 1520.5,793.5 C 1527.57,794.31 1534.41,795.977 1541,798.5C 1543.29,803.752 1541.46,806.752 1535.5,807.5C 1530.19,806.228 1524.85,805.061 1519.5,804C 1511.54,799.973 1511.87,796.473 1520.5,793.5 Z"/></g>
<g><path style="opacity:0.667" fill="#000000" d="M 1473.5,794.5 C 1481.84,794.334 1490.17,794.5 1498.5,795C 1500.67,796.002 1502.33,797.502 1503.5,799.5C 1501.58,802.807 1498.58,804.641 1494.5,805C 1487.11,805.801 1479.78,805.467 1472.5,804C 1468.36,800.378 1468.7,797.212 1473.5,794.5 Z"/></g>
<g><path style="opacity:0.683" fill="#000000" d="M 1561.5,799.5 C 1570.02,800.393 1578.35,802.227 1586.5,805C 1589.2,806.577 1589.87,808.743 1588.5,811.5C 1586.38,812.891 1584.05,813.558 1581.5,813.5C 1572.96,812.115 1564.63,809.949 1556.5,807C 1555.17,805.333 1555.17,803.667 1556.5,802C 1558.49,801.626 1560.16,800.793 1561.5,799.5 Z"/></g>
<g><path style="opacity:0.716" fill="#000000" d="M 1615.5,807.5 C 1626.84,807.807 1638.17,808.307 1649.5,809C 1654.17,810.493 1655.33,813.326 1653,817.5C 1651.83,818.893 1650.33,819.727 1648.5,820C 1635.57,821.632 1623.41,819.466 1612,813.5C 1610.92,810.094 1612.09,808.094 1615.5,807.5 Z"/></g>
<g><path style="opacity:0.671" fill="#000000" d="M 1663.5,814.5 C 1673.53,814.909 1683.53,815.742 1693.5,817C 1698.26,819.329 1698.59,821.995 1694.5,825C 1683.04,826.841 1672.37,824.841 1662.5,819C 1661.26,817.184 1661.59,815.684 1663.5,814.5 Z"/></g>
<g><path style="opacity:0.645" fill="#000000" d="M 1771.5,925.5 C 1776.87,925.195 1778.87,927.528 1777.5,932.5C 1771.16,935.418 1764.49,937.085 1757.5,937.5C 1756.87,934.03 1757.87,931.196 1760.5,929C 1764.23,927.658 1767.9,926.491 1771.5,925.5 Z"/></g>
<g><path style="opacity:0.72" fill="#000000" d="M 1808.5,929.5 C 1810.83,929.665 1812.99,930.331 1815,931.5C 1817.53,950.049 1814.03,967.382 1804.5,983.5C 1805.95,986.83 1806.62,990.33 1806.5,994C 1805.12,1005.43 1802.62,1016.6 1799,1027.5C 1798.29,1028.97 1797.12,1029.64 1795.5,1029.5C 1794.69,1023.9 1793.36,1018.4 1791.5,1013C 1793.36,1003.58 1795.36,994.251 1797.5,985C 1798.45,984.517 1799.45,984.351 1800.5,984.5C 1800.41,980.151 1800.08,975.818 1799.5,971.5C 1800.68,964.779 1802.18,958.112 1804,951.5C 1804.5,946.511 1804.67,941.511 1804.5,936.5C 1803.5,936.5 1802.5,936.5 1801.5,936.5C 1801.5,935.5 1801.5,934.5 1801.5,933.5C 1804.33,933.002 1806.66,931.669 1808.5,929.5 Z"/></g>
<g><path style="opacity:0.686" fill="#000000" d="M 1749.5,943.5 C 1754.1,942.795 1757.1,944.628 1758.5,949C 1757.5,950.5 1756.5,952 1755.5,953.5C 1752.4,955.131 1749.57,957.131 1747,959.5C 1746.58,967.31 1742.41,970.81 1734.5,970C 1733.41,967.936 1733.24,965.769 1734,963.5C 1735.81,959.265 1737.48,954.932 1739,950.5C 1742.31,947.771 1745.81,945.438 1749.5,943.5 Z"/></g>
<g><path style="opacity:0.656" fill="#000000" d="M 1716.5,987.5 C 1719.21,987.575 1721.87,987.908 1724.5,988.5C 1726.14,991.573 1725.8,994.406 1723.5,997C 1715.56,1000.48 1707.56,1003.64 1699.5,1006.5C 1701.31,996.696 1706.97,990.362 1716.5,987.5 Z"/></g>
<g><path style="opacity:0.693" fill="#000000" d="M 1670.5,1021.5 C 1674.97,1021.13 1679.3,1021.63 1683.5,1023C 1685.85,1025.37 1686.02,1027.87 1684,1030.5C 1678.13,1031.68 1672.63,1033.85 1667.5,1037C 1665.19,1037.5 1662.86,1037.66 1660.5,1037.5C 1658.51,1032.31 1659.84,1028.15 1664.5,1025C 1666.73,1024.06 1668.73,1022.89 1670.5,1021.5 Z"/></g>
<g><path style="opacity:0.639" fill="#000000" d="M 1651.5,1052.5 C 1656.66,1052.14 1658.49,1054.47 1657,1059.5C 1653.8,1063.36 1649.97,1066.53 1645.5,1069C 1641.63,1075.16 1638.3,1074.99 1635.5,1068.5C 1636,1067.5 1636.5,1066.5 1637,1065.5C 1642.03,1061.3 1646.86,1056.97 1651.5,1052.5 Z"/></g>
<g><path style="opacity:0.716" fill="#000000" d="M 1795.5,1064.5 C 1796.82,1064.33 1797.99,1064.66 1799,1065.5C 1801.07,1068.88 1802.24,1072.55 1802.5,1076.5C 1801.43,1089.19 1800.26,1101.85 1799,1114.5C 1797.14,1118.42 1795.47,1122.42 1794,1126.5C 1792.41,1128.29 1790.91,1128.45 1789.5,1127C 1790.89,1123.13 1790.72,1119.29 1789,1115.5C 1788.42,1100.73 1789.42,1086.07 1792,1071.5C 1792.96,1069.05 1794.13,1066.71 1795.5,1064.5 Z"/></g>
<g><path style="opacity:0.661" fill="#000000" d="M 1631.5,1076.5 C 1634.92,1076.13 1637.42,1077.46 1639,1080.5C 1637.89,1085.98 1634.72,1090.15 1629.5,1093C 1623.98,1095.51 1618.32,1097.18 1612.5,1098C 1611.27,1095.38 1611.6,1092.88 1613.5,1090.5C 1619.93,1086.3 1625.93,1081.63 1631.5,1076.5 Z"/></g>
<g><path style="opacity:0.707" fill="#000000" d="M 1581.5,1118.5 C 1585.99,1118.2 1588.66,1120.2 1589.5,1124.5C 1587.4,1133.77 1581.73,1139.6 1572.5,1142C 1567.6,1143.65 1562.6,1144.32 1557.5,1144C 1556.22,1141.87 1556.22,1139.7 1557.5,1137.5C 1562.22,1134.47 1567.22,1131.97 1572.5,1130C 1575.95,1126.36 1578.95,1122.53 1581.5,1118.5 Z"/></g>
<g><path style="opacity:0.709" fill="#000000" d="M 1785.5,1143.5 C 1788.55,1142.86 1790.71,1143.86 1792,1146.5C 1793,1155.38 1792.16,1164.05 1789.5,1172.5C 1786.5,1173.83 1783.5,1173.83 1780.5,1172.5C 1779.88,1164.16 1780.38,1155.83 1782,1147.5C 1782.69,1145.65 1783.86,1144.32 1785.5,1143.5 Z"/></g>
<g><path style="opacity:0.603" fill="#000000" d="M 1529.5,1171.5 C 1537.46,1172.24 1538.8,1175.41 1533.5,1181C 1529.31,1183.65 1524.98,1184.31 1520.5,1183C 1518.56,1181.03 1518.22,1178.86 1519.5,1176.5C 1522.73,1174.44 1526.06,1172.77 1529.5,1171.5 Z"/></g>
<g><path style="opacity:0.607" fill="#000000" d="M 1782.5,1174.5 C 1783.83,1174.5 1785.17,1174.5 1786.5,1174.5C 1789.04,1181.98 1789.87,1189.64 1789,1197.5C 1788.18,1202.28 1785.35,1204.28 1780.5,1203.5C 1778.94,1193.69 1779.61,1184.02 1782.5,1174.5 Z"/></g>
<g><path style="opacity:0.647" fill="#000000" d="M 1497.5,1206.5 C 1504.44,1207.7 1505.77,1211.04 1501.5,1216.5C 1493.69,1220.43 1485.69,1223.77 1477.5,1226.5C 1478.95,1220.2 1482.29,1215.03 1487.5,1211C 1491.04,1209.72 1494.38,1208.22 1497.5,1206.5 Z"/></g>
<g><path style="opacity:0.689" fill="#000000" d="M 1781.5,1213.5 C 1787.59,1214.08 1791.42,1217.41 1793,1223.5C 1795.95,1231.14 1793.45,1234.64 1785.5,1234C 1784.3,1233.1 1783.47,1231.93 1783,1230.5C 1781.53,1226.57 1780.37,1222.57 1779.5,1218.5C 1779.72,1216.55 1780.39,1214.88 1781.5,1213.5 Z"/></g>
<g><path style="opacity:0.664" fill="#000000" d="M 1792.5,1248.5 C 1794.58,1248.47 1796.42,1249.14 1798,1250.5C 1801.25,1256.85 1801.25,1263.18 1798,1269.5C 1796.16,1271.09 1794.16,1272.42 1792,1273.5C 1790.12,1272.91 1789.12,1271.57 1789,1269.5C 1788.33,1263.83 1788.33,1258.17 1789,1252.5C 1789.69,1250.65 1790.86,1249.32 1792.5,1248.5 Z"/></g>
<g><path style="opacity:0.671" fill="#000000" d="M 1444.5,1257.5 C 1448.73,1256.84 1451.73,1258.34 1453.5,1262C 1453.1,1263.47 1452.43,1264.81 1451.5,1266C 1445.71,1268.48 1440.05,1271.15 1434.5,1274C 1425.17,1276.12 1423.17,1273.29 1428.5,1265.5C 1433.65,1262.26 1438.98,1259.59 1444.5,1257.5 Z"/></g>
<g><path style="opacity:0.722" fill="#000000" d="M 1785.5,1275.5 C 1789.36,1275.69 1791.69,1277.69 1792.5,1281.5C 1791.1,1290.63 1788.1,1299.13 1783.5,1307C 1778.48,1309.82 1775.48,1308.32 1774.5,1302.5C 1777.1,1294.55 1779.6,1286.55 1782,1278.5C 1783.15,1277.36 1784.31,1276.36 1785.5,1275.5 Z"/></g>
<g><path style="opacity:0.735" fill="#000000" d="M 1777.5,1322.5 C 1780.64,1322.8 1782.81,1324.47 1784,1327.5C 1783.67,1339.02 1782.83,1350.52 1781.5,1362C 1783.23,1371.38 1784.23,1380.88 1784.5,1390.5C 1785.47,1400.62 1783.3,1409.95 1778,1418.5C 1776.99,1419.34 1775.82,1419.67 1774.5,1419.5C 1772.92,1415.99 1771.59,1412.33 1770.5,1408.5C 1771.1,1407.21 1771.6,1405.87 1772,1404.5C 1772.31,1394.76 1773.14,1385.1 1774.5,1375.5C 1770.09,1372.34 1768.42,1368 1769.5,1362.5C 1770.28,1351.08 1771.78,1339.74 1774,1328.5C 1774.93,1326.31 1776.09,1324.31 1777.5,1322.5 Z"/></g>
<g><path style="opacity:0.648" fill="#000000" d="M 1336.5,1343.5 C 1343.65,1343.1 1345.48,1345.77 1342,1351.5C 1335.1,1357.7 1327.27,1361.86 1318.5,1364C 1315.6,1360.33 1316.27,1357.33 1320.5,1355C 1326.82,1352.36 1332.15,1348.52 1336.5,1343.5 Z"/></g>
<g><path style="opacity:0.662" fill="#000000" d="M 1295.5,1380.5 C 1299.29,1379.96 1301.29,1381.63 1301.5,1385.5C 1300.16,1390.03 1297.49,1393.53 1293.5,1396C 1288.17,1398 1282.83,1400 1277.5,1402C 1273.55,1403.02 1271.22,1401.52 1270.5,1397.5C 1270.64,1395.89 1271.3,1394.56 1272.5,1393.5C 1277.53,1391.77 1282.53,1389.94 1287.5,1388C 1290.72,1385.94 1293.39,1383.44 1295.5,1380.5 Z"/></g>
<g><path style="opacity:0.688" fill="#000000" d="M 1225.5,1430.5 C 1231.77,1431.37 1233.6,1434.71 1231,1440.5C 1221.7,1448.73 1211.2,1454.73 1199.5,1458.5C 1199.34,1454.16 1200.84,1450.49 1204,1447.5C 1211.15,1441.69 1218.31,1436.03 1225.5,1430.5 Z"/></g>
<g><path style="opacity:0.641" fill="#000000" d="M 1774.5,1441.5 C 1775.83,1441.5 1777.17,1441.5 1778.5,1441.5C 1779.65,1448.66 1780.99,1455.83 1782.5,1463C 1783.2,1468.1 1781.2,1471.6 1776.5,1473.5C 1771.8,1471.6 1769.8,1468.1 1770.5,1463C 1772,1455.85 1773.33,1448.68 1774.5,1441.5 Z"/></g>
<g><path style="opacity:0.676" fill="#000000" d="M 1777.5,1482.5 C 1780.81,1481.97 1782.97,1483.31 1784,1486.5C 1784.81,1494.75 1784.65,1502.91 1783.5,1511C 1784.93,1511.47 1786.1,1512.3 1787,1513.5C 1790.83,1520.12 1791,1526.78 1787.5,1533.5C 1782.85,1535.38 1780.35,1533.71 1780,1528.5C 1779.25,1523.96 1779.42,1519.46 1780.5,1515C 1779.18,1513.39 1777.52,1512.22 1775.5,1511.5C 1775,1510.5 1774.5,1509.5 1774,1508.5C 1773.33,1501.17 1773.33,1493.83 1774,1486.5C 1774.69,1484.65 1775.86,1483.32 1777.5,1482.5 Z"/></g>
<g><path style="opacity:0.65" fill="#000000" d="M 1166.5,1489.5 C 1173.22,1488.65 1175.55,1491.31 1173.5,1497.5C 1169.33,1499.75 1165.33,1502.25 1161.5,1505C 1159.87,1505.49 1158.2,1505.66 1156.5,1505.5C 1155.32,1497.17 1158.65,1491.84 1166.5,1489.5 Z"/></g>
<g><path style="opacity:0.664" fill="#000000" d="M 1133.5,1519.5 C 1137.56,1518.69 1140.22,1520.19 1141.5,1524C 1141.24,1525.26 1140.57,1526.26 1139.5,1527C 1133.41,1530.25 1127.08,1532.92 1120.5,1535C 1116.55,1536.02 1114.22,1534.52 1113.5,1530.5C 1113.53,1528.97 1114.2,1527.8 1115.5,1527C 1121.64,1524.57 1127.64,1522.07 1133.5,1519.5 Z"/></g>
<g><path style="opacity:0.657" fill="#000000" d="M 1090.5,1550.5 C 1093.52,1550.7 1096.52,1551.04 1099.5,1551.5C 1099.8,1553.6 1099.47,1555.6 1098.5,1557.5C 1094.33,1559.46 1090,1560.96 1085.5,1562C 1081.98,1563.26 1078.98,1565.26 1076.5,1568C 1075.21,1568.49 1073.87,1568.66 1072.5,1568.5C 1072.68,1561.45 1076.02,1556.28 1082.5,1553C 1085.31,1552.22 1087.98,1551.38 1090.5,1550.5 Z"/></g>
<g><path style="opacity:0.661" fill="#000000" d="M 1041.5,1572.5 C 1044.85,1572.33 1048.18,1572.5 1051.5,1573C 1053.53,1574.4 1053.86,1576.06 1052.5,1578C 1044.61,1580.61 1036.95,1583.78 1029.5,1587.5C 1028.07,1592.86 1025.07,1593.86 1020.5,1590.5C 1018.81,1586.66 1019.47,1583.33 1022.5,1580.5C 1028.75,1577.42 1035.08,1574.76 1041.5,1572.5 Z"/></g>
<g><path style="opacity:0.627" fill="#000000" d="M 1003.5,1595.5 C 1006.25,1595.27 1008.92,1595.61 1011.5,1596.5C 1012.43,1597.69 1012.76,1599.02 1012.5,1600.5C 1005.18,1601.75 998.677,1604.75 993,1609.5C 993.036,1613.47 991.203,1615.3 987.5,1615C 984.872,1611.53 984.872,1608.03 987.5,1604.5C 992.313,1600.43 997.646,1597.43 1003.5,1595.5 Z"/></g>
<g><path style="opacity:0.512" fill="#000000" d="M 961.5,1631.5 C 962.833,1631.5 964.167,1631.5 965.5,1631.5C 965.703,1633.39 965.037,1634.89 963.5,1636C 958.893,1638.09 954.06,1639.59 949,1640.5C 944.516,1639.87 943.683,1637.87 946.5,1634.5C 951.564,1633.17 956.564,1632.17 961.5,1631.5 Z"/></g>
<g><path style="opacity:0.5" fill="#000000" d="M 918.5,1650.5 C 920.167,1650.5 921.833,1650.5 923.5,1650.5C 923.649,1651.55 923.483,1652.55 923,1653.5C 913.931,1660.3 905.098,1667.46 896.5,1675C 894.35,1676.41 892.016,1677.24 889.5,1677.5C 889.491,1675.69 889.991,1674.02 891,1672.5C 899.086,1663.57 908.253,1656.24 918.5,1650.5 Z"/></g>
<g><path style="opacity:0.735" fill="#000000" d="M 1804.5,1663.5 C 1806.14,1663.29 1807.64,1663.62 1809,1664.5C 1812.14,1675.44 1812.3,1686.44 1809.5,1697.5C 1816.48,1698.33 1823.48,1698.83 1830.5,1699C 1833.59,1703.12 1832.93,1706.45 1828.5,1709C 1821.17,1709.5 1813.84,1709.67 1806.5,1709.5C 1803.63,1724.01 1802.29,1738.68 1802.5,1753.5C 1808.23,1753.11 1811.89,1750.11 1813.5,1744.5C 1814.32,1743.61 1815.32,1743.28 1816.5,1743.5C 1816.58,1748.34 1815.75,1753 1814,1757.5C 1809.83,1765.73 1803.67,1767.56 1795.5,1763C 1793.95,1761.79 1792.78,1760.29 1792,1758.5C 1790.13,1741.98 1791.29,1725.64 1795.5,1709.5C 1786.26,1708.59 1778.09,1705.26 1771,1699.5C 1769.56,1697.73 1768.56,1695.73 1768,1693.5C 1767.49,1684.75 1768.16,1676.09 1770,1667.5C 1772.94,1665.19 1776.11,1664.85 1779.5,1666.5C 1780.08,1669.55 1778.91,1671.55 1776,1672.5C 1775.33,1678.83 1775.33,1685.17 1776,1691.5C 1776.83,1693.67 1778.33,1695.17 1780.5,1696C 1786.45,1698.76 1792.28,1698.92 1798,1696.5C 1799.7,1687.56 1801.03,1678.56 1802,1669.5C 1802.94,1667.51 1803.77,1665.51 1804.5,1663.5 Z"/></g>
<g><path style="opacity:0.776" fill="#000000" d="M 819.5,1668.5 C 822.85,1668.33 826.183,1668.5 829.5,1669C 831.667,1669.83 833.167,1671.33 834,1673.5C 836.063,1690.21 829.563,1702.37 814.5,1710C 820.195,1711.01 825.361,1713.17 830,1716.5C 834.384,1724.96 832.884,1732.12 825.5,1738C 820.581,1741.13 815.248,1743.13 809.5,1744C 796.833,1744.67 784.167,1744.67 771.5,1744C 767.79,1742.91 766.29,1740.41 767,1736.5C 767.874,1734.22 769.541,1732.89 772,1732.5C 785.9,1734.05 799.733,1733.55 813.5,1731C 816.925,1729.96 819.592,1727.96 821.5,1725C 820.672,1724.09 819.672,1723.42 818.5,1723C 807.473,1721.09 796.473,1719.09 785.5,1717C 781.371,1714.37 780.538,1710.87 783,1706.5C 783.903,1705.3 785.069,1704.47 786.5,1704C 794.407,1701.9 802.407,1700.24 810.5,1699C 818.615,1695.4 822.948,1689.23 823.5,1680.5C 806.686,1683.87 790.019,1687.87 773.5,1692.5C 773.337,1694.86 773.503,1697.19 774,1699.5C 775.663,1701.16 776.496,1703.16 776.5,1705.5C 774.533,1705.74 772.699,1705.41 771,1704.5C 769.782,1699.47 767.449,1695.13 764,1691.5C 763.153,1688.41 763.653,1685.58 765.5,1683C 783.595,1678.02 801.595,1673.18 819.5,1668.5 Z"/></g>
</svg>
