<?xml version="1.0" encoding="UTF-8"?>
<!DOCTYPE svg PUBLIC "-//W3C//DTD SVG 1.1//EN" "http://www.w3.org/Graphics/SVG/1.1/DTD/svg11.dtd">
<svg xmlns="http://www.w3.org/2000/svg" version="1.1" width="2550px" height="2550px" style="shape-rendering:geometricPrecision; text-rendering:geometricPrecision; image-rendering:optimizeQuality; fill-rule:evenodd; clip-rule:evenodd" xmlns:xlink="http://www.w3.org/1999/xlink">
<g><path style="opacity:0.778" fill="#000000" d="M 795.5,656.5 C 806.151,655.998 816.484,657.498 826.5,661C 853.705,675.221 874.871,695.721 890,722.5C 894.152,732.742 896.152,743.409 896,754.5C 898.174,751.934 901.007,750.6 904.5,750.5C 909.186,751.225 913.853,752.059 918.5,753C 963.5,753.667 1008.5,753.667 1053.5,753C 1099.8,750.298 1146.14,748.298 1192.5,747C 1217.18,746.247 1241.85,746.581 1266.5,748C 1275.6,749.153 1284.6,750.819 1293.5,753C 1326.14,763.494 1359.48,770.828 1393.5,775C 1492.22,785.758 1591.22,792.592 1690.5,795.5C 1698.21,794.826 1705.88,793.826 1713.5,792.5C 1719.65,792.115 1724.65,794.282 1728.5,799C 1734.42,801.14 1740.42,802.974 1746.5,804.5C 1747.31,804.192 1747.97,803.692 1748.5,803C 1751.67,802.748 1754.67,802.582 1757.5,802.5C 1762.39,784.393 1770.22,767.726 1781,752.5C 1785.24,747.585 1790.08,743.419 1795.5,740C 1832.68,734.954 1865.68,744.287 1894.5,768C 1902.62,775.295 1910.12,783.128 1917,791.5C 1929.1,810.059 1931.76,830.059 1925,851.5C 1913.96,890.697 1888.13,908.364 1847.5,904.5C 1832.73,904.861 1818.06,903.861 1803.5,901.5C 1803.67,917.17 1803.5,932.837 1803,948.5C 1798.32,970.569 1793.32,992.569 1788,1014.5C 1782.14,1026.74 1777.48,1039.41 1774,1052.5C 1773.67,1067.17 1773.33,1081.83 1773,1096.5C 1768.67,1119.82 1764.34,1143.15 1760,1166.5C 1759.67,1178.5 1759.33,1190.5 1759,1202.5C 1755.81,1218.25 1752.15,1233.92 1748,1249.5C 1747.24,1260.52 1746.24,1271.52 1745,1282.5C 1744.67,1329.17 1744.33,1375.83 1744,1422.5C 1743.28,1424.95 1742.28,1427.28 1741,1429.5C 1737.9,1431.93 1735.57,1434.93 1734,1438.5C 1730.87,1449.56 1727.54,1460.56 1724,1471.5C 1722.42,1483.85 1720.75,1496.18 1719,1508.5C 1718.17,1535.17 1718.33,1561.84 1719.5,1588.5C 1721.63,1589.47 1723.63,1590.63 1725.5,1592C 1726.5,1592.67 1727.5,1592.67 1728.5,1592C 1742.5,1577.66 1756.84,1563.66 1771.5,1550C 1769.98,1548.99 1768.31,1548.49 1766.5,1548.5C 1766.5,1547.5 1766.5,1546.5 1766.5,1545.5C 1770.2,1544.49 1773.87,1543.16 1777.5,1541.5C 1781.75,1542.15 1783.75,1544.65 1783.5,1549C 1783.39,1551.73 1782.55,1554.23 1781,1556.5C 1764.86,1571.64 1749.03,1587.14 1733.5,1603C 1729.96,1604.5 1726.29,1604.84 1722.5,1604C 1718.61,1600.89 1714.28,1598.56 1709.5,1597C 1707,1594.17 1704.5,1591.33 1702,1588.5C 1698.33,1580.13 1694.66,1571.8 1691,1563.5C 1684.33,1555.5 1677,1548.17 1669,1541.5C 1667.41,1538.83 1666.25,1535.99 1665.5,1533C 1665.94,1527.88 1668.61,1525.88 1673.5,1527C 1675.74,1529.03 1677.24,1531.53 1678,1534.5C 1683.67,1539.5 1689.33,1544.5 1695,1549.5C 1700.55,1555.94 1704.55,1563.27 1707,1571.5C 1707.33,1548.17 1707.67,1524.83 1708,1501.5C 1709.91,1491.92 1711.24,1482.25 1712,1472.5C 1716.27,1457.68 1720.94,1443.02 1726,1428.5C 1728.33,1425.5 1730.67,1422.5 1733,1419.5C 1732.58,1376.17 1732.58,1332.84 1733,1289.5C 1734.2,1274.82 1735.53,1260.15 1737,1245.5C 1740.49,1231.86 1743.83,1218.19 1747,1204.5C 1747.33,1192.5 1747.67,1180.5 1748,1168.5C 1751.7,1145.03 1756.04,1121.69 1761,1098.5C 1761.33,1083.5 1761.67,1068.5 1762,1053.5C 1765.3,1038.9 1770.3,1024.9 1777,1011.5C 1781.82,991.205 1786.49,970.872 1791,950.5C 1791.67,936.5 1791.67,922.5 1791,908.5C 1786.33,916.8 1783.16,925.467 1781.5,934.5C 1777.72,938.487 1773.05,940.654 1767.5,941C 1763.81,944.21 1760.98,948.044 1759,952.5C 1746.98,961.894 1737.32,973.227 1730,986.5C 1727.83,988.667 1725.67,990.833 1723.5,993C 1689.03,1010.17 1656.7,1030.5 1626.5,1054C 1617.19,1063.64 1609.02,1074.14 1602,1085.5C 1591.41,1095.42 1580.25,1104.59 1568.5,1113C 1552.16,1127.9 1538.32,1144.74 1527,1163.5C 1522.33,1168.83 1517.67,1174.17 1513,1179.5C 1495.5,1195 1478,1210.5 1460.5,1226C 1436.43,1253.4 1410.43,1278.73 1382.5,1302C 1363.41,1322.1 1343.41,1341.1 1322.5,1359C 1287.32,1383.75 1252.32,1408.75 1217.5,1434C 1175.95,1459.94 1135.62,1487.6 1096.5,1517C 1075.33,1531.09 1054.33,1545.42 1033.5,1560C 986.879,1596.29 940.546,1632.95 894.5,1670C 885.563,1675.27 876.897,1680.94 868.5,1687C 867.978,1687.56 867.645,1688.23 867.5,1689C 870.776,1694.82 873.276,1700.99 875,1707.5C 875.667,1720.83 875.667,1734.17 875,1747.5C 870.686,1770.16 857.852,1785.99 836.5,1795C 796.788,1803.72 760.121,1796.72 726.5,1774C 713.764,1764.61 704.93,1752.44 700,1737.5C 696.759,1717.81 700.759,1699.81 712,1683.5C 724.309,1666.52 740.142,1654.02 759.5,1646C 751.167,1645.33 742.833,1645.33 734.5,1646C 732.392,1646.36 730.392,1647.03 728.5,1648C 726.711,1650.28 724.711,1652.28 722.5,1654C 720.512,1654.18 718.512,1654.01 716.5,1653.5C 714.481,1644.71 717.814,1638.88 726.5,1636C 737.379,1633.79 748.379,1632.96 759.5,1633.5C 758.244,1619.87 757.41,1606.2 757,1592.5C 754.667,1585.83 752.333,1579.17 750,1572.5C 746.409,1554.55 743.076,1536.55 740,1518.5C 736.947,1465.13 739.947,1412.13 749,1359.5C 749.191,1341.48 749.858,1323.48 751,1305.5C 758.66,1256.88 765.994,1208.22 773,1159.5C 774.194,1120.85 774.861,1082.18 775,1043.5C 778.883,1005.57 781.883,967.569 784,929.5C 785.009,921.777 786.343,914.11 788,906.5C 791.804,892.949 795.138,879.282 798,865.5C 798.209,856.965 798.709,848.465 799.5,840C 799.355,839.228 799.022,838.561 798.5,838C 772.334,836.013 752.167,824.18 738,802.5C 728.791,776.085 733.458,752.418 752,731.5C 763.498,718.325 776.998,707.825 792.5,700C 798.616,699.268 804.616,699.768 810.5,701.5C 810.5,702.833 810.5,704.167 810.5,705.5C 804.061,704.49 797.728,705.323 791.5,708C 779.943,719.222 768.776,730.722 758,742.5C 746.489,756.544 742.489,772.544 746,790.5C 753.034,806.855 765.201,817.689 782.5,823C 797.51,826.533 812.677,828.366 828,828.5C 838.908,828.648 848.741,825.482 857.5,819C 878.814,796.384 887.314,769.551 883,738.5C 882.124,732.748 880.124,727.415 877,722.5C 862.916,700.081 844.083,682.914 820.5,671C 808.03,667.411 795.697,667.745 783.5,672C 780.705,673.793 778.205,675.96 776,678.5C 774.921,683.891 773.754,689.224 772.5,694.5C 767.964,693.801 765.13,691.134 764,686.5C 763.035,676.929 766.535,669.429 774.5,664C 781.171,660.168 788.171,657.668 795.5,656.5 Z M 1804.5,751.5 C 1837.02,748.174 1865.35,757.341 1889.5,779C 1897.78,786.278 1904.95,794.444 1911,803.5C 1920.06,827.251 1917.73,849.918 1904,871.5C 1896.27,883.23 1885.43,890.064 1871.5,892C 1851.8,892.895 1832.14,892.561 1812.5,891C 1809.47,890.461 1806.47,889.794 1803.5,889C 1802.67,887.184 1801.84,885.351 1801,883.5C 1797.4,882.268 1794.56,880.101 1792.5,877C 1792,876.833 1791.5,876.667 1791,876.5C 1789.39,877.817 1788.22,879.483 1787.5,881.5C 1771.02,870.197 1764.02,854.53 1766.5,834.5C 1765.58,809.18 1772.24,786.18 1786.5,765.5C 1787.33,767.5 1788.17,769.5 1789,771.5C 1789.72,772.451 1790.55,772.617 1791.5,772C 1794.41,766.346 1796.91,760.513 1799,754.5C 1800.72,753.131 1802.55,752.131 1804.5,751.5 Z M 1173.5,758.5 C 1204.85,758.117 1236.19,758.617 1267.5,760C 1292.46,764.74 1317.13,770.74 1341.5,778C 1351.77,780.323 1362.1,782.323 1372.5,784C 1487.44,798.545 1602.77,805.545 1718.5,805C 1720.98,807.744 1723.98,809.744 1727.5,811C 1737.04,813.385 1746.37,816.385 1755.5,820C 1748.92,850.947 1758.42,875.447 1784,893.5C 1781.2,902.104 1777.54,910.437 1773,918.5C 1764.17,924.992 1757.17,932.992 1752,942.5C 1745,949.5 1738,956.5 1731,963.5C 1726.46,969.407 1722.3,975.574 1718.5,982C 1702.82,991.507 1686.82,1000.51 1670.5,1009C 1654.66,1019.42 1638.99,1030.09 1623.5,1041C 1610.87,1052.79 1600.04,1065.95 1591,1080.5C 1575.78,1092.12 1561.11,1104.45 1547,1117.5C 1535.28,1132.22 1523.95,1147.22 1513,1162.5C 1496.06,1179.78 1478.23,1195.94 1459.5,1211C 1429.79,1243.04 1398.46,1273.37 1365.5,1302C 1345.48,1324.02 1323.48,1344.02 1299.5,1362C 1270.33,1380.83 1242,1400.83 1214.5,1422C 1193.33,1435.42 1172.33,1449.08 1151.5,1463C 1110.52,1492.49 1069.18,1521.49 1027.5,1550C 987.833,1581 948.167,1612 908.5,1643C 893.87,1655.29 879.536,1667.96 865.5,1681C 864.584,1681.37 863.75,1681.87 863,1682.5C 857.127,1674.96 850.294,1668.46 842.5,1663C 820.338,1649.67 796.671,1640.17 771.5,1634.5C 769.857,1619.54 768.69,1604.54 768,1589.5C 765.946,1582.4 763.613,1575.4 761,1568.5C 757.892,1552.18 754.892,1535.85 752,1519.5C 750.323,1475.39 751.656,1431.39 756,1387.5C 757.204,1379.81 758.538,1372.15 760,1364.5C 760.149,1343.79 761.149,1323.12 763,1302.5C 770.327,1257.22 777.327,1211.88 784,1166.5C 785.071,1123.84 786.071,1081.17 787,1038.5C 790.791,1004.25 793.458,969.921 795,935.5C 796.234,925.428 797.901,915.428 800,905.5C 803.624,893.67 806.624,881.67 809,869.5C 809.5,859.506 809.666,849.506 809.5,839.5C 837.414,845.037 859.914,836.703 877,814.5C 881.704,807.09 885.871,799.423 889.5,791.5C 897.869,794.943 906.536,797.443 915.5,799C 927.44,800.861 939.44,802.194 951.5,803C 1013.49,804.42 1075.49,805.753 1137.5,807C 1180.98,806.771 1223.98,811.104 1266.5,820C 1280.42,823.528 1294.08,827.862 1307.5,833C 1313.36,834.965 1319.36,836.298 1325.5,837C 1361.16,839.095 1396.83,839.429 1432.5,838C 1464.54,837.001 1496.54,837.667 1528.5,840C 1531.36,840.54 1534.03,841.54 1536.5,843C 1554.5,843.333 1572.5,843.667 1590.5,844C 1593.1,844.92 1595.77,845.587 1598.5,846C 1618.68,845.681 1638.68,847.348 1658.5,851C 1675.5,851.333 1692.5,851.667 1709.5,852C 1713.89,853.355 1718.22,855.022 1722.5,857C 1724.71,860.134 1726.05,863.634 1726.5,867.5C 1724.69,867.491 1723.02,867.991 1721.5,869C 1711.5,875 1701.5,881 1691.5,887C 1687.63,889.162 1686.13,892.328 1687,896.5C 1688.54,899.689 1691.04,900.855 1694.5,900C 1697.11,899.057 1699.11,897.39 1700.5,895C 1713.25,887.877 1725.75,880.377 1738,872.5C 1738.4,871.128 1738.9,869.795 1739.5,868.5C 1736.3,862.447 1735.14,856.113 1736,849.5C 1735.03,846.698 1733.2,844.698 1730.5,843.5C 1727.61,837.33 1724.45,831.33 1721,825.5C 1715.75,822.012 1712.25,823.178 1710.5,829C 1712.88,833.007 1714.71,837.174 1716,841.5C 1696.26,839.923 1676.43,839.09 1656.5,839C 1650.52,837.907 1644.52,836.907 1638.5,836C 1623.43,835.798 1608.43,834.798 1593.5,833C 1575.5,832.667 1557.5,832.333 1539.5,832C 1535.3,829.218 1530.63,827.884 1525.5,828C 1484.68,824.881 1443.85,824.714 1403,827.5C 1379.84,826.909 1356.67,826.409 1333.5,826C 1318.85,824.836 1304.85,821.17 1291.5,815C 1248.75,802.531 1205.08,796.197 1160.5,796C 1095.17,794.355 1029.84,793.021 964.5,792C 939.85,791.206 915.516,788.039 891.5,782.5C 893.6,774.972 895.1,767.305 896,759.5C 896.903,760.701 898.069,761.535 899.5,762C 906.879,762.678 914.213,763.678 921.5,765C 971.176,765.846 1020.84,765.512 1070.5,764C 1105,762.231 1139.33,760.398 1173.5,758.5 Z M 1773.5,934.5 C 1775.13,932.37 1776.96,930.37 1779,928.5C 1778.48,931.526 1776.65,933.526 1773.5,934.5 Z M 779.5,1650.5 C 785.037,1650.09 790.37,1650.92 795.5,1653C 807.742,1658.12 819.742,1663.79 831.5,1670C 839.512,1674.84 846.512,1680.84 852.5,1688C 851.552,1688.48 850.552,1688.65 849.5,1688.5C 849.5,1689.83 849.5,1691.17 849.5,1692.5C 851.924,1692.19 854.257,1692.53 856.5,1693.5C 863.038,1703.68 865.704,1714.84 864.5,1727C 866.916,1746.01 861.249,1762.01 847.5,1775C 835.928,1784.69 822.594,1788.52 807.5,1786.5C 779.362,1787.4 754.029,1779.56 731.5,1763C 723.098,1756.27 716.598,1748.11 712,1738.5C 708.563,1721.64 711.396,1705.97 720.5,1691.5C 735.593,1671.13 755.259,1657.46 779.5,1650.5 Z"/></g>
<g><path style="opacity:0.749" fill="#000000" d="M 808.5,735.5 C 812.013,734.876 814.847,735.876 817,738.5C 818.823,745.37 819.823,752.37 820,759.5C 820.667,775.167 820.667,790.833 820,806.5C 817.367,813.579 813.7,814.246 809,808.5C 808.667,790.5 808.333,772.5 808,754.5C 807.5,750.5 807,746.5 806.5,742.5C 806.442,739.922 807.109,737.589 808.5,735.5 Z"/></g>
<g><path style="opacity:0.778" fill="#000000" d="M 1831.5,791.5 C 1839.28,791.068 1846.95,791.568 1854.5,793C 1858.24,797.479 1859.41,802.646 1858,808.5C 1854.41,817.093 1848.91,824.26 1841.5,830C 1834.37,835.787 1826.71,840.787 1818.5,845C 1828.35,845.684 1838.02,847.351 1847.5,850C 1850.96,852.195 1852.3,855.361 1851.5,859.5C 1849.51,859.827 1847.51,860.16 1845.5,860.5C 1828.92,858.079 1812.26,856.579 1795.5,856C 1790,855.756 1786,853.256 1783.5,848.5C 1784.37,846.587 1785.37,844.753 1786.5,843C 1809.36,839.155 1828.53,828.655 1844,811.5C 1845.44,808.95 1846.61,806.284 1847.5,803.5C 1839.84,802.997 1832.17,803.497 1824.5,805C 1810.67,808.499 1796.84,811.999 1783,815.5C 1779.93,814.964 1777.26,813.63 1775,811.5C 1774.4,807.412 1776.23,804.912 1780.5,804C 1797.54,799.475 1814.54,795.308 1831.5,791.5 Z"/></g>
<g><path style="opacity:0.703" fill="#000000" d="M 895.5,817.5 C 905.278,824.083 914.445,831.75 923,840.5C 925.312,844.47 927.978,848.137 931,851.5C 931.483,852.448 931.649,853.448 931.5,854.5C 925.849,853.782 920.516,851.949 915.5,849C 908.628,842.459 901.461,836.293 894,830.5C 889.504,825.517 890.004,821.184 895.5,817.5 Z"/></g>
<g><path style="opacity:0.698" fill="#000000" d="M 946.5,872.5 C 953.652,875.332 960.152,879.332 966,884.5C 968.099,888.231 969.266,892.231 969.5,896.5C 960.445,893.388 951.945,889.055 944,883.5C 940.62,878.915 941.453,875.248 946.5,872.5 Z"/></g>
<g><path style="opacity:0.738" fill="#000000" d="M 1830.5,907.5 C 1831.5,907.5 1832.5,907.5 1833.5,907.5C 1833.89,911.325 1834.89,914.991 1836.5,918.5C 1833.66,935.221 1830.49,951.888 1827,968.5C 1822.22,983.324 1818.39,983.158 1815.5,968C 1818.33,953.164 1821.17,938.331 1824,923.5C 1825.35,917.811 1827.51,912.477 1830.5,907.5 Z"/></g>
<g><path style="opacity:0.696" fill="#000000" d="M 996.5,912.5 C 1014.62,913.412 1019.95,922.078 1012.5,938.5C 1011.17,938.5 1009.83,938.5 1008.5,938.5C 1006.88,934.252 1005.54,929.919 1004.5,925.5C 1000.21,925.353 996.545,923.853 993.5,921C 992.106,917.294 993.106,914.46 996.5,912.5 Z"/></g>
<g><path style="opacity:0.714" fill="#000000" d="M 1045.5,966.5 C 1047.2,966.34 1048.87,966.506 1050.5,967C 1052.86,969.18 1055.53,970.847 1058.5,972C 1064.57,972.568 1070.57,973.568 1076.5,975C 1080.93,980.312 1079.76,983.812 1073,985.5C 1066.13,984.519 1059.3,983.352 1052.5,982C 1045.09,979.289 1042.75,974.122 1045.5,966.5 Z"/></g>
<g><path style="opacity:0.713" fill="#000000" d="M 1097.5,989.5 C 1100.02,989.755 1102.35,990.589 1104.5,992C 1108,995.5 1111.5,999 1115,1002.5C 1118.41,1007.13 1118.24,1011.63 1114.5,1016C 1109.7,1015.82 1106.53,1013.32 1105,1008.5C 1101.45,1004.61 1097.61,1001.11 1093.5,998C 1091.52,993.509 1092.85,990.676 1097.5,989.5 Z"/></g>
<g><path style="opacity:0.737" fill="#000000" d="M 1818.5,1013.5 C 1819.83,1013.5 1821.17,1013.5 1822.5,1013.5C 1823.94,1017.5 1824.6,1021.67 1824.5,1026C 1823.32,1039.81 1822.49,1053.65 1822,1067.5C 1820.46,1070.93 1818.79,1074.27 1817,1077.5C 1812.08,1069.65 1810.24,1060.99 1811.5,1051.5C 1811.26,1040 1812.42,1028.67 1815,1017.5C 1817.07,1016.9 1818.24,1015.56 1818.5,1013.5 Z"/></g>
<g><path style="opacity:0.721" fill="#000000" d="M 1142.5,1045.5 C 1147.12,1048.81 1152.12,1051.65 1157.5,1054C 1162.18,1056.52 1165.18,1060.35 1166.5,1065.5C 1165.63,1067.41 1164.63,1069.25 1163.5,1071C 1162.06,1071.78 1160.72,1071.61 1159.5,1070.5C 1152.78,1065.39 1145.95,1060.39 1139,1055.5C 1136.55,1050.76 1137.71,1047.43 1142.5,1045.5 Z"/></g>
<g><path style="opacity:0.725" fill="#000000" d="M 1164.5,1082.5 C 1168.23,1082.95 1171.4,1084.62 1174,1087.5C 1177.67,1092.83 1181.33,1098.17 1185,1103.5C 1187.7,1107.2 1187.87,1110.86 1185.5,1114.5C 1183.09,1115.82 1180.75,1115.65 1178.5,1114C 1172.85,1107.02 1168.01,1099.52 1164,1091.5C 1163.37,1088.45 1163.53,1085.45 1164.5,1082.5 Z"/></g>
<g><path style="opacity:0.707" fill="#000000" d="M 1809.5,1098.5 C 1813.58,1098.4 1816.08,1100.4 1817,1104.5C 1818.68,1119.23 1817.01,1133.56 1812,1147.5C 1808.18,1154.15 1805.18,1161.15 1803,1168.5C 1801.99,1169.34 1800.82,1169.67 1799.5,1169.5C 1800.39,1155.71 1802.22,1142.04 1805,1128.5C 1805.33,1120.17 1805.67,1111.83 1806,1103.5C 1806.7,1101.42 1807.86,1099.75 1809.5,1098.5 Z"/></g>
<g><path style="opacity:0.745" fill="#000000" d="M 1203.5,1132.5 C 1207.82,1133.16 1211.49,1135.16 1214.5,1138.5C 1221.14,1147.64 1227.97,1156.64 1235,1165.5C 1238.12,1169.9 1240.28,1174.73 1241.5,1180C 1240.3,1186.02 1237.14,1187.52 1232,1184.5C 1225.24,1171.96 1217.24,1160.3 1208,1149.5C 1205.13,1144.22 1203.63,1138.55 1203.5,1132.5 Z"/></g>
<g><path style="opacity:0.686" fill="#000000" d="M 1802.5,1186.5 C 1803.83,1186.5 1805.17,1186.5 1806.5,1186.5C 1807.04,1190.67 1808.21,1194.67 1810,1198.5C 1810.67,1204.5 1810.67,1210.5 1810,1216.5C 1807.43,1220.81 1804.09,1221.48 1800,1218.5C 1798.98,1215.26 1798.48,1211.92 1798.5,1208.5C 1798.76,1200.94 1800.09,1193.61 1802.5,1186.5 Z"/></g>
<g><path style="opacity:0.627" fill="#000000" d="M 1246.5,1188.5 C 1252.6,1191.38 1258.6,1194.55 1264.5,1198C 1267.98,1200.77 1269.48,1204.27 1269,1208.5C 1267.61,1209.55 1266.11,1209.72 1264.5,1209C 1259.26,1203.04 1252.93,1198.54 1245.5,1195.5C 1244.17,1192.86 1244.5,1190.53 1246.5,1188.5 Z"/></g>
<g><path style="opacity:0.663" fill="#000000" d="M 1294.5,1225.5 C 1302.13,1225.48 1308.79,1227.98 1314.5,1233C 1316.8,1235.11 1318.47,1237.61 1319.5,1240.5C 1318.37,1244.81 1315.7,1246.31 1311.5,1245C 1305.07,1241.21 1299.57,1236.37 1295,1230.5C 1294.51,1228.87 1294.34,1227.2 1294.5,1225.5 Z"/></g>
<g><path style="opacity:0.676" fill="#000000" d="M 1808.5,1226.5 C 1811.37,1226.09 1813.53,1227.09 1815,1229.5C 1816.16,1234.47 1816.66,1239.47 1816.5,1244.5C 1814.91,1249.3 1811.58,1251.63 1806.5,1251.5C 1805.97,1245.14 1805.31,1238.8 1804.5,1232.5C 1805.36,1230.09 1806.69,1228.09 1808.5,1226.5 Z"/></g>
<g><path style="opacity:0.673" fill="#000000" d="M 1806.5,1252.5 C 1807.83,1252.5 1809.17,1252.5 1810.5,1252.5C 1811.36,1257.81 1811.53,1263.15 1811,1268.5C 1809.41,1273.78 1807.58,1278.94 1805.5,1284C 1808.11,1288.34 1808.61,1292.84 1807,1297.5C 1803.17,1301.66 1799.84,1301.33 1797,1296.5C 1796.19,1292.34 1796.69,1288.34 1798.5,1284.5C 1796.26,1275.7 1798.09,1267.7 1804,1260.5C 1805.14,1257.9 1805.97,1255.24 1806.5,1252.5 Z"/></g>
<g><path style="opacity:0.615" fill="#000000" d="M 1334.5,1258.5 C 1342.08,1259.37 1348.24,1262.7 1353,1268.5C 1354.37,1271.74 1354.7,1275.07 1354,1278.5C 1352.25,1280.25 1350.08,1280.92 1347.5,1280.5C 1346.87,1272.91 1343.03,1267.58 1336,1264.5C 1334.87,1262.65 1334.37,1260.65 1334.5,1258.5 Z"/></g>
<g><path style="opacity:0.744" fill="#000000" d="M 1392.5,1302.5 C 1396.93,1303.74 1400.76,1306.08 1404,1309.5C 1414.82,1326.32 1427.82,1341.32 1443,1354.5C 1445.33,1357.47 1445.83,1360.63 1444.5,1364C 1443.39,1364.64 1442.22,1365.14 1441,1365.5C 1438.44,1364.47 1435.94,1363.3 1433.5,1362C 1419.32,1349.42 1407.15,1335.25 1397,1319.5C 1394.72,1314.03 1393.22,1308.36 1392.5,1302.5 Z"/></g>
<g><path style="opacity:0.685" fill="#000000" d="M 1796.5,1327.5 C 1797.5,1327.5 1798.5,1327.5 1799.5,1327.5C 1802.17,1339.18 1799.84,1349.84 1792.5,1359.5C 1787.92,1361.59 1784.92,1360.26 1783.5,1355.5C 1787.07,1345.76 1791.41,1336.43 1796.5,1327.5 Z"/></g>
<g><path style="opacity:0.693" fill="#000000" d="M 1451.5,1377.5 C 1456.95,1378.77 1460.79,1382.11 1463,1387.5C 1466.39,1393.88 1466.22,1400.05 1462.5,1406C 1456.18,1404.63 1453.01,1400.47 1453,1393.5C 1450.71,1390.22 1448.88,1386.72 1447.5,1383C 1448.15,1381.56 1448.48,1380.06 1448.5,1378.5C 1449.79,1378.74 1450.79,1378.4 1451.5,1377.5 Z"/></g>
<g><path style="opacity:0.695" fill="#000000" d="M 1788.5,1377.5 C 1790.14,1377.29 1791.64,1377.62 1793,1378.5C 1792.89,1387.12 1793.39,1395.79 1794.5,1404.5C 1793.6,1411.84 1791.27,1418.67 1787.5,1425C 1789.66,1432.53 1788.5,1439.69 1784,1446.5C 1779,1450.89 1775.5,1449.89 1773.5,1443.5C 1775.94,1437.79 1777.94,1431.96 1779.5,1426C 1778.74,1424.56 1778.07,1423.06 1777.5,1421.5C 1784.16,1407.53 1787.83,1392.87 1788.5,1377.5 Z"/></g>
<g><path style="opacity:0.578" fill="#000000" d="M 1490.5,1426.5 C 1497.23,1428.99 1502.73,1433.32 1507,1439.5C 1507.74,1441.44 1507.58,1443.27 1506.5,1445C 1508.02,1446.9 1508.68,1449.06 1508.5,1451.5C 1505.64,1451.4 1503.31,1450.24 1501.5,1448C 1495.56,1441.96 1491.89,1434.79 1490.5,1426.5 Z"/></g>
<g><path style="opacity:0.601" fill="#000000" d="M 1535.5,1476.5 C 1536.87,1476.34 1538.21,1476.51 1539.5,1477C 1542.69,1483.03 1547.36,1487.53 1553.5,1490.5C 1555.09,1492.17 1555.75,1494.17 1555.5,1496.5C 1553.01,1496.7 1550.68,1496.2 1548.5,1495C 1544.04,1491.88 1539.87,1488.38 1536,1484.5C 1535.5,1481.85 1535.34,1479.19 1535.5,1476.5 Z"/></g>
<g><path style="opacity:0.721" fill="#000000" d="M 1778.5,1479.5 C 1779.98,1479.24 1781.31,1479.57 1782.5,1480.5C 1783.41,1484.16 1784.74,1487.66 1786.5,1491C 1785.36,1497.88 1784.02,1504.71 1782.5,1511.5C 1783,1512.5 1783.5,1513.5 1784,1514.5C 1784.67,1520.83 1784.67,1527.17 1784,1533.5C 1781.54,1537.2 1778.21,1538.54 1774,1537.5C 1773.67,1529.5 1773.33,1521.5 1773,1513.5C 1772.4,1511.86 1771.9,1510.2 1771.5,1508.5C 1773.23,1498.65 1775.56,1488.99 1778.5,1479.5 Z"/></g>
<g><path style="opacity:0.487" fill="#000000" d="M 1577.5,1516.5 C 1584.45,1519.77 1590.62,1524.44 1596,1530.5C 1598.08,1533.89 1599.24,1537.56 1599.5,1541.5C 1598.13,1541.66 1596.79,1541.49 1595.5,1541C 1591,1535.17 1585.83,1530 1580,1525.5C 1578.09,1522.79 1577.26,1519.79 1577.5,1516.5 Z"/></g>
<g><path style="opacity:0.482" fill="#000000" d="M 1606.5,1548.5 C 1607.87,1548.34 1609.21,1548.51 1610.5,1549C 1616.38,1557.44 1624.38,1562.61 1634.5,1564.5C 1634.5,1566.17 1634.5,1567.83 1634.5,1569.5C 1629.05,1570.17 1624.05,1569.01 1619.5,1566C 1614.97,1561.8 1610.8,1557.3 1607,1552.5C 1606.51,1551.21 1606.34,1549.87 1606.5,1548.5 Z"/></g>
<g><path style="opacity:0.685" fill="#000000" d="M 1771.5,1573.5 C 1774.27,1573.22 1776.77,1573.89 1779,1575.5C 1782.45,1585.15 1781.78,1594.49 1777,1603.5C 1775.45,1605.15 1773.78,1605.48 1772,1604.5C 1770.34,1596.23 1769.17,1587.9 1768.5,1579.5C 1768.98,1577.2 1769.98,1575.2 1771.5,1573.5 Z"/></g>
<g><path style="opacity:0.688" fill="#000000" d="M 1639.5,1591.5 C 1644.19,1591.84 1648.53,1593.34 1652.5,1596C 1656.67,1599.5 1660.83,1603 1665,1606.5C 1664.56,1613.31 1661.06,1615.48 1654.5,1613C 1650.33,1609.5 1646.17,1606 1642,1602.5C 1640.44,1598.99 1639.6,1595.32 1639.5,1591.5 Z"/></g>
<g><path style="opacity:0.709" fill="#000000" d="M 1685.5,1610.5 C 1687.31,1610.49 1688.98,1610.99 1690.5,1612C 1695.71,1620.21 1702.55,1626.71 1711,1631.5C 1713.08,1638.76 1710.24,1641.59 1702.5,1640C 1692.62,1634.72 1685.62,1626.89 1681.5,1616.5C 1681.87,1613.74 1683.2,1611.74 1685.5,1610.5 Z"/></g>
<g><path style="opacity:0.778" fill="#000000" d="M 1752.5,1630.5 C 1761.29,1630.54 1769.96,1630.71 1778.5,1631C 1779.33,1631.83 1780.17,1632.67 1781,1633.5C 1781.83,1637.5 1782.67,1641.5 1783.5,1645.5C 1819.36,1652.67 1849.86,1669.34 1875,1695.5C 1878.67,1700.17 1882.33,1704.83 1886,1709.5C 1889.64,1715.4 1892.3,1721.74 1894,1728.5C 1898.96,1759.01 1888.79,1782.84 1863.5,1800C 1853.87,1806.82 1843.21,1810.82 1831.5,1812C 1787.63,1816.12 1747.96,1805.45 1712.5,1780C 1699.44,1770.28 1690.27,1757.78 1685,1742.5C 1683.83,1743.89 1682.33,1744.73 1680.5,1745C 1671.83,1745.67 1663.17,1745.67 1654.5,1745C 1649.17,1741.33 1649.17,1737.67 1654.5,1734C 1663.55,1733.81 1672.55,1733.31 1681.5,1732.5C 1682.75,1733.04 1683.91,1733.71 1685,1734.5C 1685.16,1706.2 1693.82,1680.87 1711,1658.5C 1713.86,1654.97 1717.03,1651.81 1720.5,1649C 1716.69,1647.69 1714.02,1645.19 1712.5,1641.5C 1713.47,1637.86 1715.8,1636.2 1719.5,1636.5C 1724.82,1637.56 1730.15,1638.06 1735.5,1638C 1740.99,1635.01 1746.66,1632.51 1752.5,1630.5 Z M 1760.5,1635.5 C 1764.23,1635.18 1767.89,1635.51 1771.5,1636.5C 1770.94,1638.85 1770.27,1641.19 1769.5,1643.5C 1762.84,1642.33 1756.18,1641.17 1749.5,1640C 1753.05,1637.88 1756.72,1636.38 1760.5,1635.5 Z M 1735.5,1650.5 C 1758.99,1652.33 1781.99,1656.66 1804.5,1663.5C 1804.83,1663.83 1805.17,1664.17 1805.5,1664.5C 1801.68,1678.92 1799.34,1693.58 1798.5,1708.5C 1791.86,1707.83 1785.19,1707.33 1778.5,1707C 1773.98,1706.74 1769.65,1705.74 1765.5,1704C 1764.69,1698.25 1764.19,1692.42 1764,1686.5C 1760.08,1681.03 1756.75,1681.36 1754,1687.5C 1753.33,1694.17 1753.33,1700.83 1754,1707.5C 1756.78,1712.93 1761.28,1716.09 1767.5,1717C 1777.44,1718.65 1787.44,1719.82 1797.5,1720.5C 1796.1,1728.85 1796.27,1737.18 1798,1745.5C 1800.01,1750.36 1803.51,1753.03 1808.5,1753.5C 1808.8,1742.57 1808.8,1731.57 1808.5,1720.5C 1811.67,1720.6 1814.67,1719.93 1817.5,1718.5C 1820.1,1715.71 1820.1,1712.87 1817.5,1710C 1814.88,1709.06 1812.21,1708.23 1809.5,1707.5C 1811.41,1694.16 1813.41,1680.83 1815.5,1667.5C 1843.73,1679.23 1865.56,1698.23 1881,1724.5C 1888.61,1753.69 1879.78,1776.19 1854.5,1792C 1847.77,1796.37 1840.43,1799.04 1832.5,1800C 1797.82,1803.53 1765.15,1797.2 1734.5,1781C 1719.72,1772.55 1707.88,1761.05 1699,1746.5C 1693.52,1707.79 1705.69,1675.79 1735.5,1650.5 Z"/></g>
<g><path style="opacity:0.775" fill="#000000" d="M 789.5,1677.5 C 798.506,1677.33 807.506,1677.5 816.5,1678C 819.937,1679.1 822.437,1681.27 824,1684.5C 826.533,1694.12 825.866,1703.45 822,1712.5C 820.127,1714.71 817.96,1716.54 815.5,1718C 821.641,1721.47 825.474,1726.64 827,1733.5C 827.667,1738.83 827.667,1744.17 827,1749.5C 826.535,1750.93 825.701,1752.1 824.5,1753C 793.885,1755.41 764.552,1750.08 736.5,1737C 730.914,1731.91 731.581,1727.74 738.5,1724.5C 762.968,1736.78 788.968,1742.78 816.5,1742.5C 817.402,1733.45 813.402,1728.28 804.5,1727C 796.862,1726.02 789.195,1725.36 781.5,1725C 775.705,1724.22 773.538,1721.05 775,1715.5C 775.903,1714.3 777.069,1713.47 778.5,1713C 787.199,1712.26 795.866,1711.26 804.5,1710C 808.142,1709.27 810.975,1707.44 813,1704.5C 813.499,1699.51 813.666,1694.51 813.5,1689.5C 802.789,1689.19 792.122,1689.69 781.5,1691C 771.667,1693.51 762,1696.17 752.5,1699C 747.586,1695.83 747.253,1692.16 751.5,1688C 763.924,1683.13 776.591,1679.63 789.5,1677.5 Z"/></g>
<g><path style="opacity:0.721" fill="#000000" d="M 886.5,1723.5 C 888.308,1723.49 889.975,1723.99 891.5,1725C 900.833,1725.33 910.167,1725.67 919.5,1726C 926.43,1726.71 928.597,1730.21 926,1736.5C 924.915,1737.29 923.748,1737.96 922.5,1738.5C 912.213,1737.69 901.88,1737.19 891.5,1737C 886.535,1736.38 883.535,1733.71 882.5,1729C 883.007,1726.45 884.341,1724.62 886.5,1723.5 Z"/></g>
<g><path style="opacity:0.739" fill="#000000" d="M 1492.5,1724.5 C 1503.84,1724.33 1515.17,1724.5 1526.5,1725C 1530.5,1728.33 1530.5,1731.67 1526.5,1735C 1508.13,1736.19 1489.8,1736.52 1471.5,1736C 1469.13,1735.27 1466.8,1734.43 1464.5,1733.5C 1462.51,1729.33 1463.85,1726.83 1468.5,1726C 1474.22,1725.21 1479.89,1725.38 1485.5,1726.5C 1487.98,1725.93 1490.32,1725.27 1492.5,1724.5 Z"/></g>
<g><path style="opacity:0.723" fill="#000000" d="M 969.5,1726.5 C 976.391,1725.9 983.058,1726.73 989.5,1729C 991.951,1732.24 991.951,1735.41 989.5,1738.5C 982.576,1738.55 975.576,1738.72 968.5,1739C 963.5,1739.83 958.5,1740.67 953.5,1741.5C 946.422,1740.65 944.756,1737.15 948.5,1731C 955.613,1729.41 962.613,1727.91 969.5,1726.5 Z"/></g>
<g><path style="opacity:0.687" fill="#000000" d="M 1302.5,1726.5 C 1308.18,1726.33 1313.84,1726.5 1319.5,1727C 1327.82,1731.39 1327.48,1735.06 1318.5,1738C 1312.41,1738.86 1306.41,1738.53 1300.5,1737C 1296.66,1732.79 1297.33,1729.29 1302.5,1726.5 Z"/></g>
<g><path style="opacity:0.707" fill="#000000" d="M 1021.5,1727.5 C 1026.3,1727.12 1030.96,1727.62 1035.5,1729C 1036.5,1730.67 1037.5,1732.33 1038.5,1734C 1036.98,1735.9 1036.32,1738.06 1036.5,1740.5C 1033.44,1740.14 1030.44,1739.47 1027.5,1738.5C 1022.98,1739.42 1018.48,1740.42 1014,1741.5C 1008.51,1740.23 1007.01,1737.23 1009.5,1732.5C 1013.44,1730.42 1017.44,1728.75 1021.5,1727.5 Z"/></g>
<g><path style="opacity:0.695" fill="#000000" d="M 1365.5,1727.5 C 1374.54,1727.34 1383.54,1727.84 1392.5,1729C 1398.15,1731.83 1398.49,1734.83 1393.5,1738C 1384.45,1738.81 1375.45,1738.47 1366.5,1737C 1357.63,1734.48 1357.3,1731.31 1365.5,1727.5 Z"/></g>
<g><path style="opacity:0.714" fill="#000000" d="M 1260.5,1728.5 C 1265.3,1728.12 1269.96,1728.62 1274.5,1730C 1277.17,1733 1277.17,1736 1274.5,1739C 1265.31,1740.14 1256.15,1741.64 1247,1743.5C 1242.64,1744.13 1239.81,1742.46 1238.5,1738.5C 1238.64,1736.89 1239.3,1735.56 1240.5,1734.5C 1247.11,1731.85 1253.77,1729.85 1260.5,1728.5 Z"/></g>
<g><path style="opacity:0.715" fill="#000000" d="M 1179.5,1729.5 C 1189.21,1729.21 1198.88,1729.71 1208.5,1731C 1213.28,1732.19 1214.62,1735.02 1212.5,1739.5C 1210.58,1740.98 1208.41,1741.98 1206,1742.5C 1197.87,1741.71 1189.7,1741.21 1181.5,1741C 1173.04,1738.36 1172.38,1734.53 1179.5,1729.5 Z"/></g>
<g><path style="opacity:0.649" fill="#000000" d="M 1538.5,1731.5 C 1542.41,1731.26 1546.08,1732.1 1549.5,1734C 1555.35,1734.67 1561.19,1734.5 1567,1733.5C 1571.36,1733.81 1575.52,1734.81 1579.5,1736.5C 1582.17,1738.83 1582.17,1741.17 1579.5,1743.5C 1577.56,1744.1 1575.56,1744.43 1573.5,1744.5C 1566.52,1742.53 1559.52,1740.53 1552.5,1738.5C 1548.2,1742.27 1543.2,1743.44 1537.5,1742C 1533.6,1740.05 1532.77,1737.21 1535,1733.5C 1536.3,1732.92 1537.47,1732.25 1538.5,1731.5 Z"/></g>
<g><path style="opacity:0.742" fill="#000000" d="M 1077.5,1732.5 C 1085.84,1732.33 1094.17,1732.5 1102.5,1733C 1106.56,1734.95 1108.06,1738.11 1107,1742.5C 1105.99,1743.66 1104.66,1744.32 1103,1744.5C 1099.52,1744 1096.02,1743.67 1092.5,1743.5C 1085.15,1744.26 1077.82,1744.76 1070.5,1745C 1066.47,1742.71 1065.64,1739.55 1068,1735.5C 1071.13,1734.09 1074.3,1733.09 1077.5,1732.5 Z"/></g>
<g><path style="opacity:0.66" fill="#000000" d="M 1438.5,1733.5 C 1444.51,1733.33 1450.51,1733.5 1456.5,1734C 1461.83,1737 1461.83,1740 1456.5,1743C 1447.69,1744.03 1439.02,1743.36 1430.5,1741C 1428.99,1740.16 1428.49,1739 1429,1737.5C 1431.97,1735.49 1435.13,1734.16 1438.5,1733.5 Z"/></g>
<g><path style="opacity:0.735" fill="#000000" d="M 1131.5,1736.5 C 1141.51,1736.33 1151.51,1736.5 1161.5,1737C 1168.1,1740.18 1168.1,1743.51 1161.5,1747C 1151.17,1747.82 1140.83,1748.15 1130.5,1748C 1126.04,1746.58 1124.71,1743.75 1126.5,1739.5C 1128.14,1738.3 1129.81,1737.3 1131.5,1736.5 Z"/></g>
<g><path style="opacity:0.578" fill="#000000" d="M 1596.5,1736.5 C 1603.51,1736.33 1610.51,1736.5 1617.5,1737C 1620.93,1739.11 1621.26,1741.61 1618.5,1744.5C 1616.73,1745.09 1614.89,1745.42 1613,1745.5C 1607.03,1744.12 1601.2,1742.45 1595.5,1740.5C 1595.43,1739.04 1595.77,1737.71 1596.5,1736.5 Z"/></g>
</svg>
