<?xml version="1.0" encoding="UTF-8"?>
<!DOCTYPE svg PUBLIC "-//W3C//DTD SVG 1.1//EN" "http://www.w3.org/Graphics/SVG/1.1/DTD/svg11.dtd">
<svg xmlns="http://www.w3.org/2000/svg" version="1.1" width="2550px" height="2550px" style="shape-rendering:geometricPrecision; text-rendering:geometricPrecision; image-rendering:optimizeQuality; fill-rule:evenodd; clip-rule:evenodd" xmlns:xlink="http://www.w3.org/1999/xlink">
<g><path style="opacity:0.782" fill="#000000" d="M 779.5,681.5 C 819.57,684.966 855.07,699.3 886,724.5C 900.499,739.329 906.165,756.996 903,777.5C 906.988,779.206 911.154,780.373 915.5,781C 946.51,782.101 977.51,783.434 1008.5,785C 1025.78,788.319 1043.11,791.319 1060.5,794C 1084.16,795.05 1107.83,796.05 1131.5,797C 1147.82,799.094 1164.15,801.094 1180.5,803C 1268.83,802.78 1357.17,802.114 1445.5,801C 1479.71,796.758 1514.04,795.425 1548.5,797C 1563.4,799.808 1578.4,802.141 1593.5,804C 1626.83,804.742 1660.17,805.409 1693.5,806C 1697.36,807.732 1701.36,809.066 1705.5,810C 1720.17,810.333 1734.83,810.667 1749.5,811C 1752.37,811.861 1754.7,813.528 1756.5,816C 1758.35,817.128 1760.35,817.628 1762.5,817.5C 1765.13,801.66 1769.63,786.327 1776,771.5C 1775.17,763.647 1777.34,756.813 1782.5,751C 1788.3,748.874 1793.3,745.54 1797.5,741C 1804.31,738.612 1811.31,737.945 1818.5,739C 1825.23,739.937 1831.9,741.104 1838.5,742.5C 1838.5,743.833 1838.5,745.167 1838.5,746.5C 1832.49,746.334 1826.49,746.501 1820.5,747C 1864.98,751.475 1899.81,771.975 1925,808.5C 1933.14,823.853 1935.81,840.187 1933,857.5C 1929.94,872.103 1922.44,883.936 1910.5,893C 1890.83,907.166 1868.83,913.999 1844.5,913.5C 1840.03,934.653 1836.53,955.987 1834,977.5C 1831.11,1005.51 1828.11,1033.51 1825,1061.5C 1813.29,1111.73 1803.96,1162.4 1797,1213.5C 1791.41,1240.78 1786.08,1268.12 1781,1295.5C 1776.75,1336.57 1770.09,1377.24 1761,1417.5C 1757.94,1438.73 1755.94,1460.07 1755,1481.5C 1754.82,1506.88 1753.82,1532.21 1752,1557.5C 1751.33,1584.17 1751.33,1610.83 1752,1637.5C 1754.78,1634.19 1758.28,1632.03 1762.5,1631C 1776.08,1628.86 1787.92,1632.36 1798,1641.5C 1798.48,1642.45 1798.65,1643.45 1798.5,1644.5C 1793.58,1643.06 1788.58,1641.56 1783.5,1640C 1771.9,1638.1 1762.4,1641.6 1755,1650.5C 1742.33,1667.53 1732.66,1685.86 1726,1705.5C 1720.82,1725.33 1719.82,1745.33 1723,1765.5C 1736.19,1791.53 1757.36,1806.36 1786.5,1810C 1824.56,1814.54 1856.72,1803.04 1883,1775.5C 1886.63,1768.45 1887.3,1761.11 1885,1753.5C 1868.67,1725.17 1846.33,1702.83 1818,1686.5C 1816.26,1697.05 1815.43,1707.71 1815.5,1718.5C 1815.83,1723.5 1816.17,1728.5 1816.5,1733.5C 1818.51,1731.99 1820.17,1730.16 1821.5,1728C 1826.36,1725.76 1829.36,1727.26 1830.5,1732.5C 1827.94,1739.57 1823.1,1744.57 1816,1747.5C 1815.33,1752.83 1815.33,1758.17 1816,1763.5C 1817.54,1772.94 1822.87,1775.94 1832,1772.5C 1833.5,1772.67 1834.33,1773.5 1834.5,1775C 1833.72,1780.94 1830.39,1784.44 1824.5,1785.5C 1813.7,1784.2 1807.2,1778.2 1805,1767.5C 1803.97,1761.88 1803.47,1756.21 1803.5,1750.5C 1789.52,1752.04 1776.19,1749.87 1763.5,1744C 1757.84,1739.34 1755.17,1733.34 1755.5,1726C 1757.03,1712.07 1761.36,1699.07 1768.5,1687C 1773.08,1684.48 1776.41,1685.65 1778.5,1690.5C 1774.7,1699.73 1771.2,1709.06 1768,1718.5C 1764.28,1730.25 1768.45,1736.75 1780.5,1738C 1788.16,1738.5 1795.83,1738.67 1803.5,1738.5C 1803.43,1719.47 1804.1,1700.47 1805.5,1681.5C 1799.29,1679.76 1792.96,1678.59 1786.5,1678C 1773.92,1677.82 1761.42,1677.32 1749,1676.5C 1747.5,1677.33 1746.33,1678.5 1745.5,1680C 1741.91,1680.61 1740.75,1679.11 1742,1675.5C 1746.94,1668.45 1753.77,1665.28 1762.5,1666C 1789.26,1663.52 1813.93,1669.52 1836.5,1684C 1861.33,1701.16 1880.83,1723 1895,1749.5C 1900.17,1767 1895.67,1781.5 1881.5,1793C 1863.42,1808.04 1842.75,1817.71 1819.5,1822C 1790.42,1826.06 1763.76,1820.06 1739.5,1804C 1711.9,1782.7 1702.23,1754.86 1710.5,1720.5C 1685.9,1722.8 1661.23,1723.63 1636.5,1723C 1624.93,1719.15 1613.93,1714.15 1603.5,1708C 1590.5,1708.5 1577.84,1706.84 1565.5,1703C 1559.17,1702.67 1552.83,1702.33 1546.5,1702C 1539.4,1699.95 1532.4,1697.61 1525.5,1695C 1509.36,1694.5 1493.36,1692.84 1477.5,1690C 1465.17,1689.67 1452.83,1689.33 1440.5,1689C 1439.17,1688.33 1437.83,1687.67 1436.5,1687C 1406.32,1682.61 1376.65,1675.94 1347.5,1667C 1339.81,1661.15 1331.14,1658.15 1321.5,1658C 1280.77,1656.65 1240.1,1657.65 1199.5,1661C 1186.64,1668.74 1172.97,1674.74 1158.5,1679C 1144.45,1680.23 1130.45,1681.9 1116.5,1684C 1092.46,1682.83 1068.8,1685.16 1045.5,1691C 1029.17,1691.33 1012.83,1691.67 996.5,1692C 993.5,1692.5 990.5,1693 987.5,1693.5C 981.631,1693.13 979.464,1690.13 981,1684.5C 981.903,1683.3 983.069,1682.47 984.5,1682C 988.531,1681.52 992.531,1680.85 996.5,1680C 1013.17,1679.67 1029.83,1679.33 1046.5,1679C 1070.13,1673.15 1094.13,1670.82 1118.5,1672C 1131.75,1669.68 1145.09,1668.01 1158.5,1667C 1170.62,1663.27 1181.95,1657.94 1192.5,1651C 1195.1,1650.08 1197.77,1649.41 1200.5,1649C 1208.84,1648.48 1217.18,1647.81 1225.5,1647C 1260.83,1646.33 1296.17,1646.33 1331.5,1647C 1339.33,1649.25 1346.66,1652.58 1353.5,1657C 1370.54,1661.18 1387.54,1665.51 1404.5,1670C 1414.75,1672.21 1425.08,1673.87 1435.5,1675C 1438.59,1675.71 1441.59,1676.71 1444.5,1678C 1457.17,1678.33 1469.83,1678.67 1482.5,1679C 1496.39,1681.37 1510.39,1682.71 1524.5,1683C 1532.94,1685.2 1541.27,1687.7 1549.5,1690.5C 1557.15,1691.23 1564.81,1691.73 1572.5,1692C 1575.09,1693.2 1577.76,1694.2 1580.5,1695C 1587.83,1695.33 1595.17,1695.67 1602.5,1696C 1613.53,1701.51 1624.86,1706.51 1636.5,1711C 1654.83,1711.67 1673.17,1711.67 1691.5,1711C 1698.77,1709.7 1706.1,1709.2 1713.5,1709.5C 1714.2,1705.7 1715.04,1702.03 1716,1698.5C 1705.4,1697.23 1698.4,1691.56 1695,1681.5C 1688.98,1675.82 1684.15,1669.32 1680.5,1662C 1668.45,1659.65 1657.28,1655.15 1647,1648.5C 1644.16,1644.64 1642.49,1640.31 1642,1635.5C 1634,1630.17 1627.33,1623.5 1622,1615.5C 1616.53,1606.23 1611.87,1596.56 1608,1586.5C 1601.47,1577.97 1593.64,1570.81 1584.5,1565C 1579.69,1560.37 1575.36,1555.37 1571.5,1550C 1560.72,1545.11 1550.38,1539.44 1540.5,1533C 1534.06,1527.27 1529.22,1520.44 1526,1512.5C 1524.86,1510.39 1523.36,1508.56 1521.5,1507C 1496.26,1491.95 1473.09,1474.12 1452,1453.5C 1429,1420.18 1407,1386.18 1386,1351.5C 1383.7,1352.87 1381.2,1353.53 1378.5,1353.5C 1378.43,1359.14 1376.1,1363.64 1371.5,1367C 1366.44,1371.06 1361.11,1374.72 1355.5,1378C 1346.97,1379.1 1344.81,1375.94 1349,1368.5C 1356.98,1364.09 1364.14,1358.59 1370.5,1352C 1372.02,1350.99 1373.69,1350.49 1375.5,1350.5C 1376.19,1346.51 1377.36,1342.84 1379,1339.5C 1363.59,1318.35 1348.92,1296.69 1335,1274.5C 1328.6,1263.75 1322.6,1252.75 1317,1241.5C 1304.76,1226.68 1292.76,1211.68 1281,1196.5C 1223.9,1141.37 1162.73,1091.53 1097.5,1047C 1082.66,1038.41 1067.66,1030.08 1052.5,1022C 1029.05,1007.55 1009.88,988.713 995,965.5C 992.167,962.667 989.333,959.833 986.5,957C 976.5,950.333 966.5,943.667 956.5,937C 946.194,926.694 935.86,916.36 925.5,906C 916.051,899.552 906.884,892.718 898,885.5C 893.513,880.524 889.513,875.191 886,869.5C 882.35,861.531 878.683,853.531 875,845.5C 861.79,857.793 846.124,863.126 828,861.5C 797.932,862.457 772.599,852.123 752,830.5C 737.77,811.445 733.103,790.112 738,766.5C 742.081,747.418 751.581,731.585 766.5,719C 775.239,710.961 785.239,704.961 796.5,701C 802.82,699.48 809.153,699.147 815.5,700C 802.647,696.58 789.647,693.914 776.5,692C 775.257,690.846 774.257,689.512 773.5,688C 775.027,685.31 777.027,683.143 779.5,681.5 Z M 823.5,703.5 C 846.504,709.271 866.338,720.937 883,738.5C 889.447,746.51 892.28,755.677 891.5,766C 892.653,790.881 885.819,813.381 871,833.5C 863.265,841.95 853.765,847.117 842.5,849C 815.785,852.994 791.452,847.328 769.5,832C 749.711,813.564 743.211,791.064 750,764.5C 758.677,739.156 775.51,721.656 800.5,712C 807.5,711.667 814.5,711.333 821.5,711C 823.008,709.493 824.341,707.827 825.5,706C 824.934,705.005 824.267,704.172 823.5,703.5 Z M 1795.5,758.5 C 1847.51,755.09 1888.01,774.756 1917,817.5C 1920.09,823.104 1921.76,829.104 1922,835.5C 1922.9,845.561 1922.56,855.561 1921,865.5C 1918.89,871.446 1915.39,876.446 1910.5,880.5C 1879.51,901.524 1845.84,907.357 1809.5,898C 1792.08,892.215 1780.25,880.715 1774,863.5C 1769.98,837.434 1772.65,812.101 1782,787.5C 1785.83,777.506 1790.33,767.84 1795.5,758.5 Z M 1675.5,1592.5 C 1673.22,1591.78 1671.38,1590.44 1670,1588.5C 1669.13,1576.77 1664.96,1566.43 1657.5,1557.5C 1654.51,1554.84 1651.51,1554.84 1648.5,1557.5C 1647.37,1559.07 1647.2,1560.74 1648,1562.5C 1650.07,1566.3 1652.4,1569.97 1655,1573.5C 1656.17,1581.42 1658.17,1589.08 1661,1596.5C 1662.64,1598.81 1664.8,1600.31 1667.5,1601C 1670.59,1606.48 1675.26,1608.48 1681.5,1607C 1687.09,1604.4 1692.42,1601.4 1697.5,1598C 1711.67,1586.5 1725.83,1575 1740,1563.5C 1740.67,1589.83 1740.67,1616.17 1740,1642.5C 1738.37,1645.61 1738.21,1648.78 1739.5,1652C 1732.14,1663.04 1725.81,1674.71 1720.5,1687C 1711.49,1686.93 1705.99,1682.43 1704,1673.5C 1698.2,1669.02 1693.87,1663.36 1691,1656.5C 1689.83,1654.67 1688.33,1653.17 1686.5,1652C 1676.37,1650.05 1666.7,1646.72 1657.5,1642C 1656.67,1641.17 1655.83,1640.33 1655,1639.5C 1652.92,1629.75 1647.42,1622.58 1638.5,1618C 1630.07,1607.31 1623.57,1595.47 1619,1582.5C 1612.12,1571.28 1602.95,1562.45 1591.5,1556C 1587.62,1551.07 1583.62,1546.24 1579.5,1541.5C 1568.18,1535.84 1557.18,1529.67 1546.5,1523C 1540.96,1517.43 1536.79,1510.93 1534,1503.5C 1526.6,1496.1 1518.1,1490.27 1508.5,1486C 1500.73,1478.9 1492.4,1472.57 1483.5,1467C 1474.31,1458.81 1465.48,1450.31 1457,1441.5C 1435.79,1408.92 1414.96,1376.09 1394.5,1343C 1396.24,1340.04 1396.74,1336.87 1396,1333.5C 1393.67,1332.17 1391.33,1332.17 1389,1333.5C 1372.26,1310.35 1356.26,1286.69 1341,1262.5C 1336.06,1253.63 1331.4,1244.63 1327,1235.5C 1315.29,1221.45 1303.95,1207.12 1293,1192.5C 1268.8,1169.3 1244.3,1146.47 1219.5,1124C 1181.68,1093.85 1143.02,1064.85 1103.5,1037C 1086.17,1027.33 1068.83,1017.67 1051.5,1008C 1041.16,1000.9 1031.66,992.732 1023,983.5C 1015.2,972.729 1007.03,962.229 998.5,952C 986.776,943.277 974.776,934.944 962.5,927C 953.469,918.304 944.803,909.304 936.5,900C 923.662,891.821 911.828,882.321 901,871.5C 893.721,860.616 888.388,848.95 885,836.5C 889.845,839.004 895.012,840.504 900.5,841C 919.231,840.984 937.897,841.984 956.5,844C 973.663,848.054 990.663,852.721 1007.5,858C 1017.41,859.989 1027.41,861.322 1037.5,862C 1071.17,862.333 1104.83,862.667 1138.5,863C 1186.01,868.202 1233.68,870.535 1281.5,870C 1295.62,873.824 1309.95,876.491 1324.5,878C 1360.5,878.667 1396.5,878.667 1432.5,878C 1451.98,874.107 1471.64,872.107 1491.5,872C 1500.62,870.138 1509.62,867.804 1518.5,865C 1537.56,864.999 1556.56,863.999 1575.5,862C 1621.51,861.416 1667.51,861.749 1713.5,863C 1715.88,863.511 1718.21,864.178 1720.5,865C 1718.65,869.523 1715.98,873.523 1712.5,877C 1702.59,883.372 1692.09,888.538 1681,892.5C 1677.14,898.456 1678.64,902.456 1685.5,904.5C 1696.82,899.176 1707.82,893.343 1718.5,887C 1729.22,877.506 1734.05,865.673 1733,851.5C 1725.12,844.62 1716.95,838.12 1708.5,832C 1707.59,829.553 1706.76,827.053 1706,824.5C 1700.03,820.757 1696.53,822.424 1695.5,829.5C 1695.98,835.289 1698.64,839.789 1703.5,843C 1707.2,845.186 1710.53,847.853 1713.5,851C 1665.17,850.653 1616.84,850.653 1568.5,851C 1552.19,852.183 1535.86,852.849 1519.5,853C 1510.78,855.128 1502.11,857.462 1493.5,860C 1485.17,860.333 1476.83,860.667 1468.5,861C 1453.51,863.109 1438.51,865.109 1423.5,867C 1393.83,867.667 1364.17,867.667 1334.5,867C 1315.92,865.551 1297.59,862.551 1279.5,858C 1248.82,857.737 1218.16,857.071 1187.5,856C 1174.08,855.546 1160.75,854.213 1147.5,852C 1109.82,851.865 1072.15,851.198 1034.5,850C 1025.09,849.227 1015.75,847.893 1006.5,846C 989.781,840.316 972.781,835.649 955.5,832C 936.846,830.91 918.18,829.91 899.5,829C 895.647,828.83 892.314,827.496 889.5,825C 895.502,813.831 899.836,801.997 902.5,789.5C 907.355,791.238 912.355,792.405 917.5,793C 948.516,794.01 979.516,795.343 1010.5,797C 1024.81,799.795 1039.14,802.461 1053.5,805C 1076.13,806.704 1098.8,807.704 1121.5,808C 1142.84,810.24 1164.18,812.573 1185.5,815C 1270.82,813.97 1356.15,813.303 1441.5,813C 1478.38,808.725 1515.38,807.392 1552.5,809C 1567.94,812.887 1583.6,815.221 1599.5,816C 1629.83,816.333 1660.17,816.667 1690.5,817C 1695.33,819.126 1700.33,820.793 1705.5,822C 1719.17,822.333 1732.83,822.667 1746.5,823C 1750.41,826.788 1755.07,828.622 1760.5,828.5C 1755.19,864.717 1768.52,891.217 1800.5,908C 1799.59,914.966 1798.09,921.799 1796,928.5C 1787.1,950.29 1778.77,972.29 1771,994.5C 1764.8,1019.63 1758.13,1044.63 1751,1069.5C 1744.32,1078.2 1738.65,1087.53 1734,1097.5C 1731.74,1106.02 1730.4,1114.69 1730,1123.5C 1724.39,1147.1 1719.06,1170.76 1714,1194.5C 1713.12,1215.99 1710.78,1237.32 1707,1258.5C 1707.43,1288.07 1705.09,1317.4 1700,1346.5C 1699.62,1357.52 1698.95,1368.52 1698,1379.5C 1693.54,1389.3 1688.21,1398.63 1682,1407.5C 1677.41,1419.2 1673.74,1431.2 1671,1443.5C 1670.17,1488.84 1670.51,1534.18 1672,1579.5C 1673.28,1583.82 1674.44,1588.16 1675.5,1592.5 Z M 1805.5,908.5 C 1814.18,911.712 1823.18,913.378 1832.5,913.5C 1829.57,927.739 1827.07,942.072 1825,956.5C 1820.82,989.779 1817.15,1023.11 1814,1056.5C 1801.96,1108.73 1792.3,1161.39 1785,1214.5C 1779.87,1239.81 1774.87,1265.14 1770,1290.5C 1765.75,1331.58 1759.08,1372.24 1750,1412.5C 1743.85,1458.29 1741.02,1504.29 1741.5,1550.5C 1735.51,1552.96 1729.84,1556.13 1724.5,1560C 1713.56,1570.45 1701.89,1579.95 1689.5,1588.5C 1687.12,1585.24 1686.12,1581.58 1686.5,1577.5C 1685.5,1577.5 1684.5,1577.5 1683.5,1577.5C 1683.92,1567.75 1683.42,1558.09 1682,1548.5C 1681.33,1515.17 1681.33,1481.83 1682,1448.5C 1684.3,1434.96 1688.3,1421.96 1694,1409.5C 1698.33,1402.83 1702.67,1396.17 1707,1389.5C 1708.47,1385.97 1709.47,1382.3 1710,1378.5C 1710.32,1367.14 1710.99,1355.81 1712,1344.5C 1714.48,1333.29 1716.15,1321.95 1717,1310.5C 1716.16,1283.61 1718.16,1256.94 1723,1230.5C 1723.49,1218.12 1724.49,1205.79 1726,1193.5C 1730.79,1171.44 1735.79,1149.44 1741,1127.5C 1740.12,1109.31 1745.78,1093.64 1758,1080.5C 1761.11,1075.16 1763.45,1069.49 1765,1063.5C 1772.33,1036.17 1779.67,1008.83 1787,981.5C 1793.32,967.542 1798.65,953.209 1803,938.5C 1804.56,928.557 1805.39,918.557 1805.5,908.5 Z"/></g>
<g><path style="opacity:0.778" fill="#000000" d="M 826.5,800.5 C 828.017,800.511 829.184,801.177 830,802.5C 832.002,813.512 830.002,823.846 824,833.5C 820.043,837.53 816.377,837.197 813,832.5C 812.224,821.798 812.557,811.131 814,800.5C 819.194,779.142 821.861,757.475 822,735.5C 822.782,729.705 825.949,727.538 831.5,729C 833.01,730.351 834.01,732.018 834.5,734C 833.55,744.474 832.717,754.974 832,765.5C 830.164,777.181 828.331,788.848 826.5,800.5 Z"/></g>
<g><path style="opacity:0.772" fill="#000000" d="M 1830.5,808.5 C 1839.91,808.083 1849.25,808.583 1858.5,810C 1863.67,812.343 1866,816.343 1865.5,822C 1865.3,828.597 1863.14,834.431 1859,839.5C 1850.42,848.083 1841.26,855.916 1831.5,863C 1843.04,863.246 1854.37,861.746 1865.5,858.5C 1872.17,860.307 1873.51,863.807 1869.5,869C 1862.06,871.689 1854.39,873.355 1846.5,874C 1830.13,874.906 1813.79,874.573 1797.5,873C 1793.5,870.333 1792.83,867 1795.5,863C 1807.46,863.125 1818.12,859.458 1827.5,852C 1837.02,844.815 1845.52,836.649 1853,827.5C 1853.98,825.26 1854.48,822.927 1854.5,820.5C 1845.49,820.334 1836.49,820.5 1827.5,821C 1818.11,822.347 1808.78,823.681 1799.5,825C 1789.42,821.895 1789.08,818.228 1798.5,814C 1809.22,811.603 1819.89,809.77 1830.5,808.5 Z"/></g>
<g><path style="opacity:0.746" fill="#000000" d="M 816.5,863.5 C 819.652,862.959 822.152,863.959 824,866.5C 825.046,879.943 824.546,893.276 822.5,906.5C 817.808,908.552 814.641,907.219 813,902.5C 812.857,890.499 813.19,878.499 814,866.5C 814.698,865.309 815.531,864.309 816.5,863.5 Z"/></g>
<g><path style="opacity:0.692" fill="#000000" d="M 812.5,915.5 C 814.435,916.15 816.435,916.483 818.5,916.5C 818.111,924.836 817.611,933.169 817,941.5C 816.362,942.609 815.862,943.775 815.5,945C 816.627,951.262 818.127,957.429 820,963.5C 820.667,971.5 820.667,979.5 820,987.5C 816.015,992.861 812.349,992.528 809,986.5C 808.513,974.664 809.68,962.997 812.5,951.5C 804.994,941.812 803.494,931.145 808,919.5C 809.397,917.93 810.897,916.596 812.5,915.5 Z"/></g>
<g><path style="opacity:0.589" fill="#000000" d="M 1789.5,919.5 C 1790.83,919.5 1792.17,919.5 1793.5,919.5C 1791.11,931.376 1787.95,943.043 1784,954.5C 1779.69,958.481 1775.69,962.814 1772,967.5C 1766.08,976.331 1760.42,985.331 1755,994.5C 1751.88,998.299 1748.05,1000.97 1743.5,1002.5C 1744.25,995.995 1746.42,989.995 1750,984.5C 1759.33,973.167 1768.67,961.833 1778,950.5C 1778.49,948.866 1778.66,947.199 1778.5,945.5C 1780.17,945.5 1781.83,945.5 1783.5,945.5C 1784.86,936.648 1786.86,927.982 1789.5,919.5 Z"/></g>
<g><path style="opacity:0.603" fill="#000000" d="M 813.5,1007.5 C 815.716,1007.27 817.383,1008.11 818.5,1010C 816.998,1014.41 815.498,1018.91 814,1023.5C 811.809,1028.2 808.642,1029.2 804.5,1026.5C 803.48,1024.57 803.313,1022.57 804,1020.5C 806.282,1015.4 809.449,1011.07 813.5,1007.5 Z"/></g>
<g><path style="opacity:0.516" fill="#000000" d="M 1723.5,1022.5 C 1726.29,1022.08 1728.29,1023.08 1729.5,1025.5C 1726.69,1030.14 1723.02,1033.98 1718.5,1037C 1720.28,1038.07 1720.78,1039.57 1720,1041.5C 1715.03,1046.56 1709.19,1049.9 1702.5,1051.5C 1702.34,1050.13 1702.51,1048.79 1703,1047.5C 1710.05,1039.29 1716.88,1030.96 1723.5,1022.5 Z"/></g>
<g><path style="opacity:0.574" fill="#000000" d="M 803.5,1065.5 C 804.5,1065.5 805.5,1065.5 806.5,1065.5C 807.706,1080.36 806.04,1094.86 801.5,1109C 803.443,1116.3 802.61,1123.47 799,1130.5C 794.212,1133.84 791.045,1132.68 789.5,1127C 793.137,1116.22 796.637,1105.39 800,1094.5C 802.423,1086.09 802.923,1077.59 801.5,1069C 801.978,1067.7 802.645,1066.53 803.5,1065.5 Z"/></g>
<g><path style="opacity:0.604" fill="#000000" d="M 1675.5,1083.5 C 1677.5,1083.83 1679.5,1084.17 1681.5,1084.5C 1683,1087.84 1682.67,1091.01 1680.5,1094C 1675.76,1097.49 1670.42,1099.49 1664.5,1100C 1660.33,1104.46 1655.83,1108.63 1651,1112.5C 1650.94,1115.82 1649.77,1118.66 1647.5,1121C 1644.25,1122.03 1641.25,1123.53 1638.5,1125.5C 1633.24,1123.89 1631.74,1120.56 1634,1115.5C 1637.63,1112.51 1641.79,1110.68 1646.5,1110C 1656.11,1100.88 1665.78,1092.04 1675.5,1083.5 Z"/></g>
<g><path style="opacity:0.672" fill="#000000" d="M 1618.5,1139.5 C 1619.5,1139.5 1620.5,1139.5 1621.5,1139.5C 1621.52,1143.6 1622.19,1147.6 1623.5,1151.5C 1620.05,1159.97 1613.89,1163.63 1605,1162.5C 1602.75,1158.33 1603.58,1154.83 1607.5,1152C 1610.64,1150.36 1613.64,1148.52 1616.5,1146.5C 1617.32,1144.2 1617.99,1141.87 1618.5,1139.5 Z"/></g>
<g><path style="opacity:0.589" fill="#000000" d="M 790.5,1149.5 C 791.833,1149.5 793.167,1149.5 794.5,1149.5C 794.321,1151.95 794.987,1154.12 796.5,1156C 793.945,1162 791.279,1167.84 788.5,1173.5C 787.167,1173.5 785.833,1173.5 784.5,1173.5C 784.334,1169.15 784.501,1164.82 785,1160.5C 786.333,1156.5 788.166,1152.83 790.5,1149.5 Z"/></g>
<g><path style="opacity:0.671" fill="#000000" d="M 1578.5,1182.5 C 1584.78,1182.92 1586.61,1185.92 1584,1191.5C 1580.3,1198.82 1575.3,1200.16 1569,1195.5C 1568.33,1194.17 1568.33,1192.83 1569,1191.5C 1572.04,1188.29 1575.21,1185.29 1578.5,1182.5 Z"/></g>
<g><path style="opacity:0.586" fill="#000000" d="M 785.5,1200.5 C 787.835,1201.41 790.001,1202.75 792,1204.5C 794.734,1211.38 795.067,1218.38 793,1225.5C 788.789,1231.14 786.289,1230.48 785.5,1223.5C 786.731,1215.83 786.731,1208.17 785.5,1200.5 Z"/></g>
<g><path style="opacity:0.714" fill="#000000" d="M 1527.5,1220.5 C 1531.64,1220.4 1533.98,1222.4 1534.5,1226.5C 1531.99,1234.85 1526.99,1241.35 1519.5,1246C 1511.33,1246.16 1509.49,1242.66 1514,1235.5C 1518.78,1232.72 1522.11,1228.72 1524,1223.5C 1525.15,1222.36 1526.31,1221.36 1527.5,1220.5 Z"/></g>
<g><path style="opacity:0.74" fill="#000000" d="M 1505.5,1247.5 C 1509.83,1246.54 1512.83,1248.04 1514.5,1252C 1507.49,1266.03 1496.49,1275.7 1481.5,1281C 1473.81,1282.98 1471.31,1280.14 1474,1272.5C 1480.09,1268.87 1486.25,1265.37 1492.5,1262C 1497.47,1257.54 1501.8,1252.71 1505.5,1247.5 Z"/></g>
<g><path style="opacity:0.687" fill="#000000" d="M 793.5,1248.5 C 794.822,1248.33 795.989,1248.66 797,1249.5C 800.388,1258.51 801.388,1267.84 800,1277.5C 797.163,1282.33 793.829,1282.66 790,1278.5C 787.437,1268.02 788.604,1258.02 793.5,1248.5 Z"/></g>
<g><path style="opacity:0.692" fill="#000000" d="M 796.5,1292.5 C 797.822,1292.33 798.989,1292.66 800,1293.5C 805.502,1305.96 804.335,1317.79 796.5,1329C 793.553,1331.16 790.219,1332 786.5,1331.5C 786.493,1325.52 788.327,1320.19 792,1315.5C 791.617,1307.36 793.117,1299.69 796.5,1292.5 Z"/></g>
<g><path style="opacity:0.692" fill="#000000" d="M 1452.5,1293.5 C 1458.76,1294.36 1460.6,1297.69 1458,1303.5C 1452.92,1307.54 1447.25,1310.54 1441,1312.5C 1435.98,1311.39 1434.31,1308.39 1436,1303.5C 1441.91,1300.73 1447.41,1297.4 1452.5,1293.5 Z"/></g>
<g><path style="opacity:0.739" fill="#000000" d="M 787.5,1351.5 C 791.144,1351.71 793.311,1353.71 794,1357.5C 794.667,1360.83 794.667,1364.17 794,1367.5C 792.347,1377.09 790.514,1386.59 788.5,1396C 789.416,1396.37 790.25,1396.87 791,1397.5C 792.464,1400.73 793.631,1404.06 794.5,1407.5C 792.249,1421.17 788.749,1434.51 784,1447.5C 782.299,1451.88 779.133,1453.54 774.5,1452.5C 773.624,1449.2 773.457,1445.87 774,1442.5C 778.172,1427.62 782.339,1412.79 786.5,1398C 780.91,1397.91 778.243,1395.08 778.5,1389.5C 779.729,1376.34 782.729,1363.68 787.5,1351.5 Z"/></g>
<g><path style="opacity:0.707" fill="#000000" d="M 1325.5,1391.5 C 1329.78,1390.48 1332.11,1392.15 1332.5,1396.5C 1328.33,1405.89 1321.33,1409.72 1311.5,1408C 1308.88,1405.37 1309.05,1402.87 1312,1400.5C 1316.79,1397.86 1321.29,1394.86 1325.5,1391.5 Z"/></g>
<g><path style="opacity:0.746" fill="#000000" d="M 1271.5,1429.5 C 1273.5,1429.5 1275.5,1429.5 1277.5,1429.5C 1278.86,1432.6 1278.7,1435.6 1277,1438.5C 1270.72,1444.8 1263.72,1450.14 1256,1454.5C 1254.51,1465.43 1248.18,1470.76 1237,1470.5C 1228.25,1471.43 1224.92,1467.76 1227,1459.5C 1228.74,1457.13 1231.08,1455.8 1234,1455.5C 1236.54,1456.25 1239.04,1456.75 1241.5,1457C 1245.4,1453.47 1249.56,1450.3 1254,1447.5C 1254.41,1443.51 1256.25,1440.34 1259.5,1438C 1263.7,1435.27 1267.7,1432.44 1271.5,1429.5 Z"/></g>
<g><path style="opacity:0.637" fill="#000000" d="M 774.5,1453.5 C 776.144,1453.29 777.644,1453.62 779,1454.5C 782.274,1465.16 782.274,1475.83 779,1486.5C 777.137,1491.8 774.47,1492.47 771,1488.5C 769.924,1486.93 769.091,1485.27 768.5,1483.5C 771.138,1473.62 773.138,1463.62 774.5,1453.5 Z"/></g>
<g><path style="opacity:0.689" fill="#000000" d="M 1216.5,1477.5 C 1222.9,1478.17 1224.74,1481.5 1222,1487.5C 1216.92,1493.79 1210.42,1496.96 1202.5,1497C 1199.28,1495.01 1198.78,1492.51 1201,1489.5C 1206.51,1485.84 1211.67,1481.84 1216.5,1477.5 Z"/></g>
<g><path style="opacity:0.727" fill="#000000" d="M 1176.5,1507.5 C 1184.71,1508.6 1186.38,1512.6 1181.5,1519.5C 1176.35,1525.15 1171.01,1530.65 1165.5,1536C 1160.08,1539.95 1155.74,1539.12 1152.5,1533.5C 1153.53,1532.3 1154.36,1530.97 1155,1529.5C 1163.09,1522.91 1170.26,1515.57 1176.5,1507.5 Z"/></g>
<g><path style="opacity:0.664" fill="#000000" d="M 775.5,1511.5 C 777.144,1511.29 778.644,1511.62 780,1512.5C 782.756,1520.61 784.089,1528.95 784,1537.5C 782.06,1540.93 780.894,1544.59 780.5,1548.5C 779.5,1548.5 778.5,1548.5 777.5,1548.5C 774.935,1540.68 772.935,1532.68 771.5,1524.5C 771.97,1519.9 773.303,1515.56 775.5,1511.5 Z"/></g>
<g><path style="opacity:0.716" fill="#000000" d="M 1123.5,1543.5 C 1131.97,1544.18 1133.64,1548.02 1128.5,1555C 1123.94,1558.45 1118.94,1561.11 1113.5,1563C 1108.77,1564 1104.27,1563.5 1100,1561.5C 1099.23,1558.9 1099.4,1556.4 1100.5,1554C 1109.49,1553.17 1117.16,1549.67 1123.5,1543.5 Z"/></g>
<g><path style="opacity:0.681" fill="#000000" d="M 783.5,1573.5 C 788.09,1573.28 791.09,1575.28 792.5,1579.5C 791.097,1582.37 790.097,1585.37 789.5,1588.5C 790.325,1589.39 791.325,1589.72 792.5,1589.5C 793.489,1598.59 792.822,1607.59 790.5,1616.5C 787.5,1617.83 784.5,1617.83 781.5,1616.5C 779.118,1607.6 780.785,1599.6 786.5,1592.5C 784.386,1592.26 782.22,1591.26 780,1589.5C 778.432,1583.38 779.599,1578.04 783.5,1573.5 Z"/></g>
<g><path style="opacity:0.658" fill="#000000" d="M 1061.5,1576.5 C 1062.83,1576.5 1064.17,1576.5 1065.5,1576.5C 1065.66,1577.87 1065.49,1579.21 1065,1580.5C 1059.15,1585.43 1052.49,1588.43 1045,1589.5C 1037.17,1589.6 1035.67,1586.77 1040.5,1581C 1042.96,1579.44 1045.62,1578.44 1048.5,1578C 1053.02,1577.82 1057.35,1577.32 1061.5,1576.5 Z"/></g>
<g><path style="opacity:0.717" fill="#000000" d="M 1008.5,1599.5 C 1011.5,1599.5 1014.5,1599.5 1017.5,1599.5C 1017.45,1602.93 1016.29,1605.93 1014,1608.5C 1010.33,1611.5 1006.67,1614.5 1003,1617.5C 1001.92,1624.87 998.424,1626.37 992.5,1622C 991.174,1618.45 991.341,1614.95 993,1611.5C 997.184,1606.14 1002.35,1602.14 1008.5,1599.5 Z"/></g>
<g><path style="opacity:0.785" fill="#000000" d="M 738.5,1626.5 C 752.764,1627.65 766.431,1631.15 779.5,1637C 785.175,1637.59 790.842,1638.26 796.5,1639C 799.215,1639.87 800.548,1641.71 800.5,1644.5C 799.127,1644.34 797.793,1644.51 796.5,1645C 828.721,1663.22 855.221,1687.72 876,1718.5C 887.299,1736.9 887.299,1755.23 876,1773.5C 843.971,1807.36 807.137,1813.53 765.5,1792C 725.02,1764.56 712.854,1727.39 729,1680.5C 735.245,1663.93 746.078,1651.43 761.5,1643C 753.017,1640.24 744.351,1638.24 735.5,1637C 732.808,1632.53 733.808,1629.03 738.5,1626.5 Z M 775.5,1648.5 C 793.921,1656.21 810.588,1666.71 825.5,1680C 812.5,1680.33 799.5,1680.67 786.5,1681C 779.53,1681.11 773.363,1683.28 768,1687.5C 766.194,1692.71 767.861,1696.05 773,1697.5C 776.336,1694.83 780.169,1693.33 784.5,1693C 800.173,1691.11 815.84,1691.11 831.5,1693C 832.167,1693.67 832.833,1694.33 833.5,1695C 832.167,1696 830.833,1697 829.5,1698C 814.861,1703.05 799.861,1706.05 784.5,1707C 780.776,1710.26 780.776,1713.6 784.5,1717C 798.616,1721.03 812.616,1725.36 826.5,1730C 815.58,1732.34 804.58,1732.84 793.5,1731.5C 792.278,1728.91 790.278,1728.08 787.5,1729C 783.092,1732.71 782.425,1737.05 785.5,1742C 789.934,1743.97 794.601,1744.81 799.5,1744.5C 813.119,1744.42 826.452,1742.59 839.5,1739C 843.932,1732.49 842.932,1726.82 836.5,1722C 829.821,1718.49 822.821,1715.83 815.5,1714C 823.629,1712.18 831.296,1709.18 838.5,1705C 841.296,1703.58 843.296,1701.41 844.5,1698.5C 855.265,1708.69 864.098,1720.36 871,1733.5C 875.034,1746.28 873.034,1757.94 865,1768.5C 840.247,1793.65 811.414,1799.48 778.5,1786C 737.137,1762.94 724.303,1728.78 740,1683.5C 747.08,1666.92 758.914,1655.25 775.5,1648.5 Z"/></g>
<g><path style="opacity:0.661" fill="#000000" d="M 955.5,1631.5 C 959.49,1632 963.49,1632.5 967.5,1633C 968.86,1634.94 968.527,1636.6 966.5,1638C 960.167,1640.33 953.833,1642.67 947.5,1645C 944.91,1648.45 941.576,1649.28 937.5,1647.5C 934.981,1644.32 935.315,1641.32 938.5,1638.5C 944.036,1635.55 949.703,1633.22 955.5,1631.5 Z"/></g>
<g><path style="opacity:0.757" fill="#000000" d="M 1003.5,1647.5 C 1008.22,1647.51 1012.88,1648.01 1017.5,1649C 1018.86,1650.58 1019.53,1652.42 1019.5,1654.5C 1017.28,1654.82 1015.44,1654.16 1014,1652.5C 1010.38,1652.78 1007.88,1654.62 1006.5,1658C 1002.78,1661.38 998.783,1664.38 994.5,1667C 989.867,1672.63 984.867,1677.97 979.5,1683C 975.007,1685.08 970.674,1687.41 966.5,1690C 968.597,1692.55 970.93,1694.89 973.5,1697C 983.274,1700.72 992.274,1705.72 1000.5,1712C 1005.17,1714.84 1010.17,1716.84 1015.5,1718C 1018.47,1723.44 1016.97,1726.94 1011,1728.5C 1000.61,1725.89 991.445,1721.06 983.5,1714C 971.524,1711.01 962.024,1704.51 955,1694.5C 951.439,1689.53 951.939,1685.03 956.5,1681C 962.287,1678.61 967.954,1675.94 973.5,1673C 981.609,1662.04 991.609,1653.54 1003.5,1647.5 Z"/></g>
<g><path style="opacity:0.495" fill="#000000" d="M 910.5,1666.5 C 911.833,1666.5 913.167,1666.5 914.5,1666.5C 914.657,1667.87 914.49,1669.21 914,1670.5C 905.969,1678.7 898.469,1687.37 891.5,1696.5C 890.253,1698.32 889.586,1700.32 889.5,1702.5C 888.167,1702.5 886.833,1702.5 885.5,1702.5C 885.337,1700.14 885.503,1697.81 886,1695.5C 892.934,1684.74 901.101,1675.07 910.5,1666.5 Z"/></g>
<g><path style="opacity:0.717" fill="#000000" d="M 1200.5,1707.5 C 1209.16,1708.78 1217.82,1709.94 1226.5,1711C 1230.1,1716.37 1228.76,1719.71 1222.5,1721C 1214.13,1722.24 1206.13,1721.08 1198.5,1717.5C 1195.25,1713.05 1195.92,1709.71 1200.5,1707.5 Z"/></g>
<g><path style="opacity:0.725" fill="#000000" d="M 1237.5,1709.5 C 1244.51,1709.33 1251.51,1709.5 1258.5,1710C 1263.83,1713.33 1263.83,1716.67 1258.5,1720C 1251.17,1720.67 1243.83,1720.67 1236.5,1720C 1233.46,1717.37 1232.79,1714.2 1234.5,1710.5C 1235.79,1710.74 1236.79,1710.4 1237.5,1709.5 Z"/></g>
<g><path style="opacity:0.722" fill="#000000" d="M 1316.5,1712.5 C 1328.46,1714.72 1340.46,1716.72 1352.5,1718.5C 1352.45,1715.71 1353.79,1713.87 1356.5,1713C 1369.03,1711.79 1381.37,1712.62 1393.5,1715.5C 1393.26,1719.92 1390.92,1722.76 1386.5,1724C 1375.97,1724.8 1365.47,1724.63 1355,1723.5C 1342.43,1728.89 1329.93,1728.73 1317.5,1723C 1313.84,1719.86 1313.51,1716.36 1316.5,1712.5 Z"/></g>
<g><path style="opacity:0.703" fill="#000000" d="M 1436.5,1712.5 C 1443.59,1715.23 1450.93,1717.39 1458.5,1719C 1464.14,1724.63 1462.8,1728.13 1454.5,1729.5C 1446.76,1728.73 1439.59,1726.39 1433,1722.5C 1430.92,1717.9 1432.09,1714.56 1436.5,1712.5 Z"/></g>
<g><path style="opacity:0.712" fill="#000000" d="M 1130.5,1714.5 C 1140.61,1714.81 1150.61,1715.98 1160.5,1718C 1164.74,1724.18 1162.91,1727.68 1155,1728.5C 1146.54,1727.31 1138.04,1726.48 1129.5,1726C 1125.17,1723.87 1124.34,1720.7 1127,1716.5C 1128.3,1715.92 1129.47,1715.25 1130.5,1714.5 Z"/></g>
<g><path style="opacity:0.717" fill="#000000" d="M 1501.5,1722.5 C 1504.98,1723.2 1508.31,1724.37 1511.5,1726C 1517.9,1726.18 1524.23,1726.85 1530.5,1728C 1533.97,1730.66 1534.3,1733.66 1531.5,1737C 1521.32,1739.32 1511.32,1738.66 1501.5,1735C 1497.6,1731.91 1496.6,1728.08 1498.5,1723.5C 1499.79,1723.74 1500.79,1723.4 1501.5,1722.5 Z"/></g>
<g><path style="opacity:0.729" fill="#000000" d="M 1092.5,1723.5 C 1102.28,1723.3 1111.94,1724.13 1121.5,1726C 1124.36,1729.76 1123.69,1732.76 1119.5,1735C 1110.46,1735.76 1101.46,1735.43 1092.5,1734C 1088.69,1730.63 1088.69,1727.13 1092.5,1723.5 Z"/></g>
<g><path style="opacity:0.754" fill="#000000" d="M 968.5,1728.5 C 979.172,1729.62 989.838,1730.79 1000.5,1732C 1003.29,1733.3 1005.96,1734.8 1008.5,1736.5C 1009.43,1737.69 1009.76,1739.02 1009.5,1740.5C 1004.14,1740.95 998.808,1741.62 993.5,1742.5C 988.18,1741.9 982.847,1741.57 977.5,1741.5C 975.488,1744.89 972.488,1747.39 968.5,1749C 957.401,1753.92 946.068,1758.26 934.5,1762C 924.036,1765.14 913.369,1766.14 902.5,1765C 897.627,1762.07 897.294,1758.73 901.5,1755C 924.2,1753.88 945.534,1747.88 965.5,1737C 964.088,1733.32 965.088,1730.49 968.5,1728.5 Z"/></g>
<g><path style="opacity:0.713" fill="#000000" d="M 1042.5,1731.5 C 1053.51,1731.33 1064.51,1731.5 1075.5,1732C 1086.19,1736.01 1085.86,1739.68 1074.5,1743C 1064.5,1743.67 1054.5,1743.67 1044.5,1743C 1037.35,1740.25 1036.69,1736.42 1042.5,1731.5 Z"/></g>
<g><path style="opacity:0.688" fill="#000000" d="M 1545.5,1735.5 C 1552.21,1735.45 1558.87,1735.95 1565.5,1737C 1568.97,1737.92 1571.97,1739.59 1574.5,1742C 1574.36,1742.77 1574.02,1743.44 1573.5,1744C 1570.47,1744.13 1567.81,1745.13 1565.5,1747C 1558.17,1747.67 1550.83,1747.67 1543.5,1747C 1537.71,1745.76 1536.37,1742.76 1539.5,1738C 1541.61,1737.16 1543.61,1736.32 1545.5,1735.5 Z"/></g>
<g><path style="opacity:0.673" fill="#000000" d="M 1592.5,1739.5 C 1602.32,1738.98 1611.98,1739.64 1621.5,1741.5C 1621.8,1743.6 1621.47,1745.6 1620.5,1747.5C 1611.5,1751.5 1602.5,1751.5 1593.5,1747.5C 1590.19,1745.01 1589.86,1742.34 1592.5,1739.5 Z"/></g>
<g><path style="opacity:0.724" fill="#000000" d="M 1640.5,1746.5 C 1648.49,1747.11 1656.49,1747.61 1664.5,1748C 1672.15,1750.92 1680.15,1752.25 1688.5,1752C 1696.45,1755.5 1696.45,1759.16 1688.5,1763C 1681.17,1763.13 1673.83,1762.8 1666.5,1762C 1662.26,1760.1 1658.26,1757.76 1654.5,1755C 1650.23,1753.97 1645.89,1753.3 1641.5,1753C 1638.12,1751.13 1637.78,1748.96 1640.5,1746.5 Z"/></g>
</svg>
