<?xml version="1.0" encoding="UTF-8"?>
<!DOCTYPE svg PUBLIC "-//W3C//DTD SVG 1.1//EN" "http://www.w3.org/Graphics/SVG/1.1/DTD/svg11.dtd">
<svg xmlns="http://www.w3.org/2000/svg" version="1.1" width="2550px" height="2550px" style="shape-rendering:geometricPrecision; text-rendering:geometricPrecision; image-rendering:optimizeQuality; fill-rule:evenodd; clip-rule:evenodd" xmlns:xlink="http://www.w3.org/1999/xlink">
<g><path style="opacity:0.751" fill="#000000" d="M 1075.5,996.5 C 1085.9,996.582 1096.24,997.415 1106.5,999C 1110.45,1001.28 1114.11,1003.95 1117.5,1007C 1120.5,1007.33 1123.5,1007.67 1126.5,1008C 1127.67,1008.5 1128.5,1009.33 1129,1010.5C 1130.38,1020.47 1130.71,1030.47 1130,1040.5C 1127.8,1049.77 1124.8,1058.77 1121,1067.5C 1119.31,1075.1 1118.14,1082.76 1117.5,1090.5C 1114.5,1091.83 1111.5,1091.83 1108.5,1090.5C 1107.52,1085.87 1107.35,1081.2 1108,1076.5C 1111.06,1064.32 1114.73,1052.32 1119,1040.5C 1120.27,1032.55 1120.77,1024.55 1120.5,1016.5C 1114.56,1016.2 1109.23,1014.2 1104.5,1010.5C 1093.88,1008.85 1083.22,1008.35 1072.5,1009C 1054.53,1011.55 1036.53,1013.88 1018.5,1016C 979.329,1014.01 940.996,1018.68 903.5,1030C 895.572,1031.77 887.572,1033.1 879.5,1034C 838.817,1036.78 798.15,1039.78 757.5,1043C 705.474,1044.07 653.474,1043.4 601.5,1041C 547.5,1040.67 493.5,1040.33 439.5,1040C 424.503,1038.57 409.503,1037.41 394.5,1036.5C 396.222,1061.47 396.722,1086.47 396,1111.5C 393.048,1115.48 390.048,1115.48 387,1111.5C 386.28,1087.8 386.947,1064.13 389,1040.5C 389.396,1038.04 390.563,1036.04 392.5,1034.5C 390.704,1030.84 391.704,1028.34 395.5,1027C 462.145,1028.17 528.811,1028.83 595.5,1029C 650.475,1031.42 705.475,1032.08 760.5,1031C 800.822,1027.83 841.155,1024.83 881.5,1022C 904.532,1017.16 927.532,1012.16 950.5,1007C 973.773,1004.9 997.107,1003.9 1020.5,1004C 1039.01,1001.69 1057.34,999.189 1075.5,996.5 Z"/></g>
<g><path style="opacity:0.745" fill="#000000" d="M 1141.5,1156.5 C 1145.29,1156.73 1148.96,1157.56 1152.5,1159C 1153.7,1159.9 1154.53,1161.07 1155,1162.5C 1155.86,1181.49 1156.36,1200.49 1156.5,1219.5C 1226.2,1221.41 1295.87,1224.24 1365.5,1228C 1408.17,1228.54 1450.84,1229.2 1493.5,1230C 1534.51,1233.13 1575.51,1236.47 1616.5,1240C 1678.96,1242.12 1741.29,1246.12 1803.5,1252C 1842.5,1252.67 1881.5,1252.67 1920.5,1252C 1960.05,1247.67 1999.72,1245.17 2039.5,1244.5C 2040.98,1239.24 2042.15,1233.91 2043,1228.5C 2043.33,1216.83 2043.67,1205.17 2044,1193.5C 2046.58,1189.94 2049.58,1189.61 2053,1192.5C 2053.67,1194.5 2054.33,1196.5 2055,1198.5C 2056.17,1214.38 2055.17,1230.05 2052,1245.5C 2057.71,1242.07 2063.87,1239.9 2070.5,1239C 2084.83,1237.61 2099.16,1236.27 2113.5,1235C 2178.18,1234.8 2242.84,1234.3 2307.5,1233.5C 2306.82,1222.76 2305.49,1212.09 2303.5,1201.5C 2303.42,1194.88 2306.42,1192.72 2312.5,1195C 2313.13,1195.75 2313.63,1196.58 2314,1197.5C 2316.18,1210.26 2318.68,1222.93 2321.5,1235.5C 2319.84,1251.6 2317.01,1267.6 2313,1283.5C 2310.75,1288.3 2307.41,1289.3 2303,1286.5C 2301.96,1284.13 2301.46,1281.63 2301.5,1279C 2303.25,1271.52 2305.08,1264.02 2307,1256.5C 2307.5,1251.51 2307.67,1246.51 2307.5,1241.5C 2245.49,1242.5 2183.49,1242.67 2121.5,1242C 2102.36,1242.86 2083.36,1244.86 2064.5,1248C 2059.61,1250.46 2054.61,1252.63 2049.5,1254.5C 2047.63,1261.05 2047.13,1267.71 2048,1274.5C 2049.01,1273.66 2050.18,1273.33 2051.5,1273.5C 2051.23,1277.57 2051.57,1281.57 2052.5,1285.5C 2050.56,1293.2 2046.39,1294.86 2040,1290.5C 2035.03,1278.47 2034.2,1266.14 2037.5,1253.5C 2019.16,1253.33 2000.83,1253.5 1982.5,1254C 1964.15,1255.47 1945.81,1257.14 1927.5,1259C 1883.17,1259.67 1838.83,1259.67 1794.5,1259C 1734.96,1253.24 1675.3,1249.58 1615.5,1248C 1575.5,1244.67 1535.5,1241.33 1495.5,1238C 1452.84,1236.86 1410.18,1236.2 1367.5,1236C 1297.18,1232.66 1226.85,1229.83 1156.5,1227.5C 1156.57,1241.21 1157.41,1254.88 1159,1268.5C 1165.43,1274.97 1167.1,1282.63 1164,1291.5C 1160.33,1295.5 1156.67,1295.5 1153,1291.5C 1149.06,1280.18 1146.72,1268.52 1146,1256.5C 1145.5,1246.51 1145.33,1236.51 1145.5,1226.5C 1093.5,1223.29 1041.5,1220.12 989.5,1217C 890.167,1216.33 790.833,1216.33 691.5,1217C 643.334,1218.46 595.334,1222.12 547.5,1228C 534.687,1228.98 521.854,1229.48 509,1229.5C 473.483,1227.76 437.983,1225.76 402.5,1223.5C 403.466,1237.48 403.966,1251.48 404,1265.5C 402.223,1270.44 398.89,1271.77 394,1269.5C 394.128,1237.93 389.794,1206.93 381,1176.5C 379.559,1175.13 377.892,1174.13 376,1173.5C 373.867,1168.43 375.534,1165.1 381,1163.5C 386.45,1164.45 390.283,1167.45 392.5,1172.5C 397.49,1174.75 402.657,1176.41 408,1177.5C 408.789,1181.09 408.622,1184.59 407.5,1188C 403.747,1187.14 400.081,1185.64 396.5,1183.5C 396.167,1184.17 395.833,1184.83 395.5,1185.5C 397.759,1195.8 399.759,1206.13 401.5,1216.5C 433.546,1217.69 465.546,1219.69 497.5,1222.5C 511.163,1221.91 524.83,1221.41 538.5,1221C 578.732,1216.21 619.066,1212.54 659.5,1210C 720.659,1208.9 781.825,1208.4 843,1208.5C 894.167,1208.67 945.333,1208.83 996.5,1209C 1046.17,1212.14 1095.84,1215.31 1145.5,1218.5C 1144.59,1200.51 1143.93,1182.51 1143.5,1164.5C 1136.5,1163.18 1135.84,1160.52 1141.5,1156.5 Z M 397.5,1180.5 C 400.157,1179 402.49,1179.5 404.5,1182C 404.167,1182.5 403.833,1183 403.5,1183.5C 401.466,1182.44 399.466,1181.44 397.5,1180.5 Z"/></g>
<g><path style="opacity:0.714" fill="#000000" d="M 380.5,1320.5 C 382.833,1320.5 385.167,1320.5 387.5,1320.5C 387.351,1321.55 387.517,1322.55 388,1323.5C 409.796,1319.65 425.296,1327.82 434.5,1348C 433.787,1352.14 432.287,1355.97 430,1359.5C 415.431,1376.25 397.265,1382.41 375.5,1378C 368.365,1373.85 363.865,1367.68 362,1359.5C 357.733,1341.34 363.9,1328.34 380.5,1320.5 Z M 382.5,1327.5 C 383.771,1329.11 384.771,1330.94 385.5,1333C 392.087,1334.21 398.754,1334.88 405.5,1335C 412.486,1338.31 418.653,1342.81 424,1348.5C 426,1350.83 426,1353.17 424,1355.5C 410.93,1369.89 395.096,1374.23 376.5,1368.5C 374.501,1366.51 373.001,1364.17 372,1361.5C 367.045,1347.28 370.545,1335.95 382.5,1327.5 Z"/></g>
<g><path style="opacity:0.762" fill="#000000" d="M 2316.5,1325.5 C 2319.56,1325.44 2321.73,1326.78 2323,1329.5C 2325.46,1345.11 2327.46,1360.78 2329,1376.5C 2332.4,1385.37 2335.4,1394.37 2338,1403.5C 2339.67,1409.49 2337.67,1413.49 2332,1415.5C 2329.54,1415.11 2327.87,1413.78 2327,1411.5C 2326.67,1408.17 2326.33,1404.83 2326,1401.5C 2322.4,1393.05 2319.4,1384.38 2317,1375.5C 2315.08,1360.18 2313.74,1344.85 2313,1329.5C 2313.69,1327.65 2314.86,1326.32 2316.5,1325.5 Z"/></g>
<g><path style="opacity:0.688" fill="#000000" d="M 1109.5,1331.5 C 1113.81,1331.55 1117.81,1332.71 1121.5,1335C 1130.55,1341.61 1135.55,1350.45 1136.5,1361.5C 1136.64,1370.73 1132.31,1376.57 1123.5,1379C 1115.17,1379.67 1106.83,1379.67 1098.5,1379C 1090.79,1377.78 1087.46,1373.28 1088.5,1365.5C 1088.26,1355.26 1091.6,1346.43 1098.5,1339C 1101.01,1337.75 1103.68,1337.25 1106.5,1337.5C 1106.46,1334.91 1107.46,1332.91 1109.5,1331.5 Z M 1108.5,1342.5 C 1109.4,1343.21 1109.74,1344.21 1109.5,1345.5C 1110.5,1345.5 1111.5,1345.5 1112.5,1345.5C 1112.27,1343.65 1112.94,1342.81 1114.5,1343C 1119,1346.17 1122.83,1350 1126,1354.5C 1128,1359.17 1128,1363.83 1126,1368.5C 1124.32,1370.07 1122.32,1371.07 1120,1371.5C 1112.84,1370.77 1105.67,1370.11 1098.5,1369.5C 1097.69,1358.82 1101.02,1349.82 1108.5,1342.5 Z"/></g>
<g><path style="opacity:0.734" fill="#000000" d="M 2049.5,1342.5 C 2057.51,1342.33 2065.51,1342.5 2073.5,1343C 2079.31,1344.81 2083.14,1348.64 2085,1354.5C 2085.86,1360.59 2085.53,1366.59 2084,1372.5C 2080.53,1377.93 2076.7,1383.1 2072.5,1388C 2082.83,1395.31 2085.66,1404.81 2081,1416.5C 2079.27,1418.62 2077.1,1420.12 2074.5,1421C 2064.55,1422.53 2054.55,1422.86 2044.5,1422C 2035.21,1419.14 2032.71,1413.3 2037,1404.5C 2042.39,1399.22 2048.56,1395.05 2055.5,1392C 2051.12,1391.03 2046.95,1389.53 2043,1387.5C 2040.99,1384.16 2041.49,1381.16 2044.5,1378.5C 2037.14,1369.11 2035.3,1358.78 2039,1347.5C 2042.4,1345.38 2045.9,1343.71 2049.5,1342.5 Z M 2055.5,1352.5 C 2061.18,1352.33 2066.84,1352.5 2072.5,1353C 2075.1,1353.93 2076.6,1355.77 2077,1358.5C 2077.66,1362.57 2077.32,1366.57 2076,1370.5C 2072.33,1374.83 2068.67,1379.17 2065,1383.5C 2060.43,1381.64 2055.76,1379.97 2051,1378.5C 2048.91,1376.65 2047.57,1374.32 2047,1371.5C 2046.15,1365.75 2046.48,1360.08 2048,1354.5C 2050.61,1353.88 2053.11,1353.21 2055.5,1352.5 Z M 2064.5,1396.5 C 2071.74,1399.05 2075.41,1404.05 2075.5,1411.5C 2066.17,1411.04 2056.84,1410.54 2047.5,1410C 2053.93,1406.4 2059.6,1401.9 2064.5,1396.5 Z"/></g>
<g><path style="opacity:0.775" fill="#000000" d="M 1953.5,1344.5 C 1961.21,1343.66 1968.54,1344.83 1975.5,1348C 1977.57,1350.68 1979.57,1353.34 1981.5,1356C 1981.09,1356.95 1980.43,1357.61 1979.5,1358C 1987.92,1366.48 1987.25,1374.48 1977.5,1382C 1964.02,1392.36 1949.02,1395.36 1932.5,1391C 1927.91,1386.81 1926.41,1381.64 1928,1375.5C 1931.29,1360.73 1939.79,1350.39 1953.5,1344.5 Z M 1949.5,1360.5 C 1957.86,1361.76 1965.86,1364.26 1973.5,1368C 1974.02,1368.56 1974.36,1369.23 1974.5,1370C 1965.3,1378.72 1954.3,1382.39 1941.5,1381C 1939.58,1379.23 1939.08,1377.06 1940,1374.5C 1941.97,1368.86 1945.13,1364.2 1949.5,1360.5 Z"/></g>
<g><path style="opacity:0.722" fill="#000000" d="M 1188.5,1352.5 C 1195.44,1353.73 1202.44,1354.4 1209.5,1354.5C 1209.5,1355.83 1209.5,1357.17 1209.5,1358.5C 1204.33,1358.51 1198.99,1358.84 1193.5,1359.5C 1193.21,1362.65 1193.71,1365.65 1195,1368.5C 1201.63,1375.11 1207.3,1382.44 1212,1390.5C 1215.88,1399.75 1212.88,1404.75 1203,1405.5C 1191.39,1403.2 1181.06,1398.2 1172,1390.5C 1169.17,1385.34 1170.34,1381.67 1175.5,1379.5C 1181.26,1383.55 1187.26,1387.39 1193.5,1391C 1196.32,1392.72 1199.32,1393.39 1202.5,1393C 1196.3,1385.43 1190.47,1377.6 1185,1369.5C 1182.32,1362.87 1183.49,1357.2 1188.5,1352.5 Z"/></g>
<g><path style="opacity:0.594" fill="#000000" d="M 1151.5,1381.5 C 1154.98,1381.18 1158.31,1381.68 1161.5,1383C 1163.66,1385.44 1163.83,1387.94 1162,1390.5C 1158.7,1392.3 1155.2,1392.8 1151.5,1392C 1147.63,1388.45 1147.63,1384.95 1151.5,1381.5 Z"/></g>
<g><path style="opacity:0.562" fill="#000000" d="M 2012.5,1386.5 C 2017.68,1387.84 2019.51,1391.18 2018,1396.5C 2015.67,1399.79 2012.83,1400.29 2009.5,1398C 2007.01,1395.03 2006.84,1391.86 2009,1388.5C 2010.3,1387.92 2011.47,1387.25 2012.5,1386.5 Z"/></g>
<g><path style="opacity:0.701" fill="#000000" d="M 379.5,1444.5 C 381.167,1444.5 382.833,1444.5 384.5,1444.5C 385.067,1463.16 385.567,1481.83 386,1500.5C 389.422,1505.34 391.755,1510.68 393,1516.5C 393.804,1517.8 394.971,1518.47 396.5,1518.5C 417.087,1515.15 437.754,1512.32 458.5,1510C 473.5,1509.67 488.5,1509.33 503.5,1509C 532.838,1506.07 562.172,1503.07 591.5,1500C 634.92,1499.27 678.254,1496.94 721.5,1493C 811.475,1494.95 901.475,1495.95 991.5,1496C 1055.48,1500.67 1119.48,1505 1183.5,1509C 1264.79,1519.99 1346.12,1530.66 1427.5,1541C 1461.13,1544.39 1494.8,1547.39 1528.5,1550C 1576.75,1556.41 1625.08,1562.07 1673.5,1567C 1684.21,1568.39 1694.88,1570.05 1705.5,1572C 1721.12,1576.16 1736.79,1580.16 1752.5,1584C 1767.76,1586.33 1783.09,1587.99 1798.5,1589C 1803.81,1589.88 1808.81,1591.55 1813.5,1594C 1827.17,1594.67 1840.83,1594.67 1854.5,1594C 1884.13,1590.01 1913.29,1583.84 1942,1575.5C 1945.93,1572.65 1949.43,1569.48 1952.5,1566C 1955.57,1564.15 1958.9,1563.15 1962.5,1563C 1974.5,1562.33 1986.5,1562.33 1998.5,1563C 2011.49,1564.11 2024.49,1564.94 2037.5,1565.5C 2041.28,1563.67 2045.11,1563.34 2049,1564.5C 2052.29,1557.26 2053.13,1549.76 2051.5,1542C 2052.36,1531.53 2053.03,1521.03 2053.5,1510.5C 2049.86,1511.26 2048.36,1509.93 2049,1506.5C 2052.72,1505.85 2056.22,1504.52 2059.5,1502.5C 2063.39,1502.89 2065.39,1505.06 2065.5,1509C 2063.78,1527.01 2060.95,1544.84 2057,1562.5C 2056.02,1572.23 2052.02,1573.9 2045,1567.5C 2025.17,1570.25 2005.34,1569.92 1985.5,1566.5C 1976.5,1566.82 1967.67,1568.15 1959,1570.5C 1954.32,1575.43 1948.82,1579.26 1942.5,1582C 1914.89,1589.79 1886.89,1595.79 1858.5,1600C 1841.5,1600.67 1824.5,1600.67 1807.5,1600C 1803.07,1597.86 1798.4,1596.52 1793.5,1596C 1778.07,1595.2 1762.74,1593.53 1747.5,1591C 1731.79,1587.16 1716.12,1583.16 1700.5,1579C 1671.98,1574.5 1643.31,1571.16 1614.5,1569C 1555.73,1560.49 1496.73,1554.16 1437.5,1550C 1352.43,1539.56 1267.43,1528.56 1182.5,1517C 1116.48,1512.67 1050.48,1508 984.5,1503C 945.831,1502.69 907.164,1502.19 868.5,1501.5C 841.481,1502.59 814.481,1502.09 787.5,1500C 763.5,1499.33 739.5,1499.33 715.5,1500C 674.898,1503.33 634.231,1505.33 593.5,1506C 562.152,1509.19 530.819,1512.52 499.5,1516C 468.849,1515.07 438.516,1517.74 408.5,1524C 402.5,1524.67 396.5,1524.67 390.5,1524C 389.584,1523.63 388.75,1523.13 388,1522.5C 385.433,1514.95 382.433,1507.62 379,1500.5C 378.389,1481.83 378.556,1463.16 379.5,1444.5 Z"/></g>
<g><path style="opacity:0.765" fill="#000000" d="M 381.5,1591.5 C 383.451,1591.23 384.951,1591.89 386,1593.5C 387.974,1612.53 390.141,1631.53 392.5,1650.5C 397.511,1650.67 402.511,1650.5 407.5,1650C 432.837,1641 458.837,1638.33 485.5,1642C 509.958,1649.47 534.958,1653.8 560.5,1655C 673.825,1653.66 787.158,1653.32 900.5,1654C 926.582,1654.92 952.582,1656.92 978.5,1660C 1042.45,1667.77 1106.45,1675.11 1170.5,1682C 1223.4,1686.94 1276.4,1690.27 1329.5,1692C 1455.85,1692.63 1582.18,1694.3 1708.5,1697C 1717.85,1697.5 1727.18,1698.17 1736.5,1699C 1779.99,1705.73 1823.66,1711.06 1867.5,1715C 1903.15,1720.83 1938.81,1726.49 1974.5,1732C 2053.98,1735.21 2133.31,1740.54 2212.5,1748C 2221.98,1749.37 2231.31,1751.37 2240.5,1754C 2271.93,1754.94 2303.26,1753.6 2334.5,1750C 2338.66,1746.75 2342.99,1743.75 2347.5,1741C 2350.73,1739.8 2354.06,1739.3 2357.5,1739.5C 2353.36,1723.05 2350.02,1706.38 2347.5,1689.5C 2351.02,1681.59 2355.18,1680.92 2360,1687.5C 2361.36,1701.34 2363.7,1715.01 2367,1728.5C 2367.67,1734.5 2367.67,1740.5 2367,1746.5C 2366.17,1747.33 2365.33,1748.17 2364.5,1749C 2360.5,1749.67 2356.5,1750.33 2352.5,1751C 2347.64,1754.59 2342.64,1757.93 2337.5,1761C 2303.25,1764.64 2268.92,1765.98 2234.5,1765C 2227.99,1762.71 2221.32,1761.04 2214.5,1760C 2192.86,1757.72 2171.19,1755.72 2149.5,1754C 2088.87,1749.67 2028.2,1746 1967.5,1743C 1937.13,1738.26 1906.79,1733.26 1876.5,1728C 1830.33,1723.72 1784.33,1718.06 1738.5,1711C 1712.55,1708.76 1686.55,1707.42 1660.5,1707C 1553.17,1705.32 1445.84,1704.32 1338.5,1704C 1283.06,1702.39 1227.73,1699.05 1172.5,1694C 1105.12,1686.7 1037.79,1679.03 970.5,1671C 948.895,1668.53 927.228,1666.86 905.5,1666C 792.165,1665.57 678.832,1665.57 565.5,1666C 537.123,1665.55 509.457,1660.88 482.5,1652C 457.159,1648.37 432.492,1651.04 408.5,1660C 402.167,1660.67 395.833,1660.67 389.5,1660C 386.363,1659.2 384.696,1657.2 384.5,1654C 385.696,1640.99 384.53,1628.16 381,1615.5C 380.23,1607.45 380.397,1599.45 381.5,1591.5 Z"/></g>
</svg>
