<?xml version="1.0" encoding="UTF-8"?>
<!DOCTYPE svg PUBLIC "-//W3C//DTD SVG 1.1//EN" "http://www.w3.org/Graphics/SVG/1.1/DTD/svg11.dtd">
<svg xmlns="http://www.w3.org/2000/svg" version="1.1" width="2550px" height="2550px" style="shape-rendering:geometricPrecision; text-rendering:geometricPrecision; image-rendering:optimizeQuality; fill-rule:evenodd; clip-rule:evenodd" xmlns:xlink="http://www.w3.org/1999/xlink">
<g><path style="opacity:0.771" fill="#000000" d="M 1047.5,455.5 C 1054.57,455.161 1061.57,455.661 1068.5,457C 1071.64,461.098 1070.64,463.598 1065.5,464.5C 1065.5,463.167 1065.5,461.833 1065.5,460.5C 1058.45,460.5 1051.79,462 1045.5,465C 1088.55,467.6 1119.72,488.1 1139,526.5C 1146.78,547.664 1141.94,565.164 1124.5,579C 1106.34,591.221 1086.34,598.387 1064.5,600.5C 1066.62,605.545 1067.79,610.878 1068,616.5C 1068.67,624.5 1068.67,632.5 1068,640.5C 1067.22,648.007 1063.55,650.341 1057,647.5C 1056.5,646 1056,644.5 1055.5,643C 1056.31,629.533 1056.81,616.033 1057,602.5C 1057.83,601.667 1058.67,600.833 1059.5,600C 1042,600.286 1025,597.619 1008.5,592C 989.377,584.59 981.544,570.757 985,550.5C 987.96,531.286 994.293,513.286 1004,496.5C 1009.23,487.934 1015.23,479.934 1022,472.5C 1022.54,470.369 1023.38,468.369 1024.5,466.5C 1032.12,462.524 1039.78,458.857 1047.5,455.5 Z M 1032.5,476.5 C 1069.63,474.152 1099.13,487.819 1121,517.5C 1129,527.83 1132.33,539.497 1131,552.5C 1129.04,558.124 1125.88,562.957 1121.5,567C 1106.4,578.378 1089.4,585.045 1070.5,587C 1051.48,588.86 1032.81,587.193 1014.5,582C 998.064,576.088 992.231,564.588 997,547.5C 1003.02,520.788 1014.86,497.122 1032.5,476.5 Z"/></g>
<g><path style="opacity:0.758" fill="#000000" d="M 1064.5,498.5 C 1070.84,498.334 1077.18,498.5 1083.5,499C 1089.34,501.5 1092.01,506 1091.5,512.5C 1091.67,518.838 1089.83,524.505 1086,529.5C 1082.13,533.702 1077.97,537.535 1073.5,541C 1083.32,540.464 1092.32,542.797 1100.5,548C 1101.77,552.261 1100.27,553.428 1096,551.5C 1095.25,552.126 1094.42,552.626 1093.5,553C 1078.74,553.966 1064.07,553.633 1049.5,552C 1047.11,549.293 1046.95,546.46 1049,543.5C 1058.71,537.809 1067.71,531.142 1076,523.5C 1079.02,519.71 1080.19,515.377 1079.5,510.5C 1065.24,509.487 1051.58,511.821 1038.5,517.5C 1037.91,517.291 1037.41,516.957 1037,516.5C 1036.82,518.488 1036.99,520.488 1037.5,522.5C 1036.18,522.67 1035.01,522.337 1034,521.5C 1032.03,516.504 1032.2,511.671 1034.5,507C 1044.27,502.895 1054.27,500.062 1064.5,498.5 Z"/></g>
<g><path style="opacity:0.726" fill="#000000" d="M 1154.5,552.5 C 1163.68,554.971 1173.01,557.138 1182.5,559C 1185.08,560.481 1185.91,562.648 1185,565.5C 1182.92,567.482 1180.42,568.816 1177.5,569.5C 1170.44,568.322 1163.44,566.822 1156.5,565C 1151.06,561.439 1150.39,557.273 1154.5,552.5 Z"/></g>
<g><path style="opacity:0.699" fill="#000000" d="M 1211.5,571.5 C 1216.79,572.655 1222.13,573.822 1227.5,575C 1234.17,577.571 1234.84,580.905 1229.5,585C 1221.79,586.2 1214.96,584.366 1209,579.5C 1206.72,575.848 1207.55,573.182 1211.5,571.5 Z"/></g>
<g><path style="opacity:0.714" fill="#000000" d="M 1236.5,582.5 C 1238.53,582.338 1240.53,582.505 1242.5,583C 1253.97,588.295 1261.64,596.795 1265.5,608.5C 1260.9,608.281 1256.57,607.115 1252.5,605C 1248.2,600.851 1243.53,597.184 1238.5,594C 1234.22,590.722 1233.55,586.889 1236.5,582.5 Z"/></g>
<g><path style="opacity:0.556" fill="#000000" d="M 983.5,587.5 C 988.66,588.68 989.827,591.68 987,596.5C 972.868,608.631 959.368,621.464 946.5,635C 943.243,636.262 940.577,638.262 938.5,641C 937.207,641.49 935.873,641.657 934.5,641.5C 934.192,639.076 934.526,636.743 935.5,634.5C 942.668,629.16 949.668,623.66 956.5,618C 966.137,608.208 975.137,598.041 983.5,587.5 Z"/></g>
<g><path style="opacity:0.685" fill="#000000" d="M 1276.5,603.5 C 1287.13,605.323 1297.8,607.156 1308.5,609C 1310.44,610.972 1310.78,613.139 1309.5,615.5C 1297.82,617.731 1286.82,615.898 1276.5,610C 1275.23,607.837 1275.23,605.67 1276.5,603.5 Z"/></g>
<g><path style="opacity:0.583" fill="#000000" d="M 1332.5,619.5 C 1339.06,620.405 1345.39,622.239 1351.5,625C 1355.2,627.144 1355.37,629.31 1352,631.5C 1345.5,629.333 1339,627.167 1332.5,625C 1329.89,623.063 1329.89,621.23 1332.5,619.5 Z"/></g>
<g><path style="opacity:0.614" fill="#000000" d="M 1362.5,625.5 C 1366.48,625.469 1370.32,626.136 1374,627.5C 1379.18,625.767 1384.01,626.434 1388.5,629.5C 1389.25,630.736 1389.58,632.07 1389.5,633.5C 1379.19,635.098 1369.19,633.932 1359.5,630C 1358.66,628.989 1358.33,627.822 1358.5,626.5C 1360.1,626.768 1361.43,626.434 1362.5,625.5 Z"/></g>
<g><path style="opacity:0.665" fill="#000000" d="M 1413.5,636.5 C 1420.28,638.784 1427.28,640.284 1434.5,641C 1441.2,645.095 1440.86,648.595 1433.5,651.5C 1427.46,650.471 1421.46,649.305 1415.5,648C 1409.91,644.843 1409.24,641.01 1413.5,636.5 Z"/></g>
<g><path style="opacity:0.725" fill="#000000" d="M 1462.5,655.5 C 1465.19,655.336 1467.85,655.503 1470.5,656C 1478.69,659.893 1487.36,661.559 1496.5,661C 1503.06,664.408 1503.06,668.075 1496.5,672C 1489.77,672.829 1483.1,672.496 1476.5,671C 1471.13,668.394 1465.63,666.227 1460,664.5C 1457.91,660.675 1458.75,657.675 1462.5,655.5 Z"/></g>
<g><path style="opacity:0.719" fill="#000000" d="M 1061.5,656.5 C 1064.97,655.875 1067.8,656.875 1070,659.5C 1070.67,669.833 1070.67,680.167 1070,690.5C 1067.99,694.567 1066.99,698.9 1067,703.5C 1066.05,705.592 1064.71,705.925 1063,704.5C 1059.63,689.377 1058.63,674.044 1060,658.5C 1060.72,657.956 1061.22,657.289 1061.5,656.5 Z"/></g>
<g><path style="opacity:0.768" fill="#000000" d="M 1622.5,660.5 C 1651.55,658.979 1680.21,661.479 1708.5,668C 1730.83,673.996 1744.66,688.163 1750,710.5C 1753.13,736.228 1749.47,760.894 1739,784.5C 1723.93,810.37 1701.26,821.703 1671,818.5C 1650.26,818.918 1630.1,816.085 1610.5,810C 1612.96,812.664 1613.12,815.498 1611,818.5C 1605.61,825.554 1599.28,831.554 1592,836.5C 1585.83,834.013 1584.83,830.013 1589,824.5C 1594.65,818.174 1600.81,812.674 1607.5,808C 1592.03,801.534 1580.87,790.7 1574,775.5C 1568.6,753.718 1572.26,733.718 1585,715.5C 1604.03,698.067 1625.86,685.401 1650.5,677.5C 1656.99,677.578 1663.16,678.911 1669,681.5C 1669.49,682.793 1669.66,684.127 1669.5,685.5C 1660.83,683.567 1652.49,685.067 1644.5,690C 1630.84,697.497 1617.5,705.497 1604.5,714C 1592.46,721.59 1585.63,732.423 1584,746.5C 1579.43,767.852 1586.6,783.685 1605.5,794C 1619.91,801.436 1635.24,805.436 1651.5,806C 1664.83,806.667 1678.17,806.667 1691.5,806C 1713.61,801.567 1727.77,788.4 1734,766.5C 1739.11,748.421 1740.44,730.088 1738,711.5C 1733.14,694.305 1721.97,683.471 1704.5,679C 1678.16,672.943 1651.5,670.943 1624.5,673C 1625.55,674.388 1625.72,675.888 1625,677.5C 1620.25,675.748 1617.09,672.581 1615.5,668C 1616.06,663.743 1618.39,661.243 1622.5,660.5 Z"/></g>
<g><path style="opacity:0.68" fill="#000000" d="M 916.5,662.5 C 923.783,663.061 925.95,666.728 923,673.5C 919.5,677 916,680.5 912.5,684C 907.864,686.16 903.197,687.994 898.5,689.5C 899.498,685.342 900.998,681.342 903,677.5C 908.161,672.853 912.661,667.853 916.5,662.5 Z"/></g>
<g><path style="opacity:0.716" fill="#000000" d="M 1522.5,675.5 C 1532.37,674.344 1541.03,677.011 1548.5,683.5C 1551.71,689.179 1549.87,692.179 1543,692.5C 1539.63,691.379 1536.46,689.879 1533.5,688C 1528.39,687.891 1523.39,687.224 1518.5,686C 1514.54,680.726 1515.87,677.226 1522.5,675.5 Z"/></g>
<g><path style="opacity:0.71" fill="#000000" d="M 1563.5,692.5 C 1568.21,692.19 1571.88,694.023 1574.5,698C 1578.54,698.909 1582.54,699.909 1586.5,701C 1589.42,703.169 1589.92,705.669 1588,708.5C 1578.42,712.777 1570.09,710.777 1563,702.5C 1562.03,700.726 1561.2,698.893 1560.5,697C 1561.31,695.357 1562.31,693.857 1563.5,692.5 Z"/></g>
<g><path style="opacity:0.785" fill="#000000" d="M 1642.5,703.5 C 1661.5,703.333 1680.5,703.5 1699.5,704C 1705.24,705.627 1707.9,709.46 1707.5,715.5C 1706.7,724.14 1702.04,729.64 1693.5,732C 1687.9,734.201 1682.23,736.201 1676.5,738C 1684.2,741.709 1691.37,746.209 1698,751.5C 1700.61,754.383 1702.44,757.717 1703.5,761.5C 1702.87,763.258 1701.87,764.758 1700.5,766C 1687.24,767.611 1673.9,767.944 1660.5,767C 1650.75,765.642 1641.91,762.142 1634,756.5C 1631.76,751.638 1633.26,748.638 1638.5,747.5C 1652.91,754.81 1668.24,757.644 1684.5,756C 1676.15,750.825 1667.49,746.158 1658.5,742C 1654.5,738 1654.5,734 1658.5,730C 1668.35,728.43 1678.02,726.096 1687.5,723C 1691.38,721.566 1694.72,719.4 1697.5,716.5C 1696.97,715.808 1696.31,715.308 1695.5,715C 1677.83,714.667 1660.17,714.333 1642.5,714C 1638.57,710.504 1638.57,707.004 1642.5,703.5 Z"/></g>
<g><path style="opacity:0.666" fill="#000000" d="M 1066.5,713.5 C 1069.81,712.974 1071.97,714.307 1073,717.5C 1073.22,722.292 1074.05,726.958 1075.5,731.5C 1074.2,734.699 1074.2,737.865 1075.5,741C 1075,742.158 1074.17,742.991 1073,743.5C 1069.69,739.841 1066.69,735.841 1064,731.5C 1061.25,724.85 1062.08,718.85 1066.5,713.5 Z"/></g>
<g><path style="opacity:0.659" fill="#000000" d="M 865.5,717.5 C 871.662,716.254 874.162,718.588 873,724.5C 867.456,732.351 859.956,736.684 850.5,737.5C 850.34,735.801 850.506,734.134 851,732.5C 855.364,726.97 860.198,721.97 865.5,717.5 Z"/></g>
<g><path style="opacity:0.688" fill="#000000" d="M 835.5,753.5 C 836.5,753.5 837.5,753.5 838.5,753.5C 838.244,755.937 837.577,758.271 836.5,760.5C 836.833,761.167 837.167,761.833 837.5,762.5C 836.194,763.912 835.36,765.579 835,767.5C 829.167,772 824,777.167 819.5,783C 815.67,784.702 812.004,786.535 808.5,788.5C 808.548,785.687 809.215,783.021 810.5,780.5C 810.167,779.833 809.833,779.167 809.5,778.5C 816.285,768.045 824.952,759.711 835.5,753.5 Z"/></g>
<g><path style="opacity:0.701" fill="#000000" d="M 1078.5,761.5 C 1079.83,761.5 1081.17,761.5 1082.5,761.5C 1082.61,763.783 1083.44,765.783 1085,767.5C 1085.67,770.167 1085.67,772.833 1085,775.5C 1081.5,779.672 1078.83,784.338 1077,789.5C 1071.57,792.535 1068.41,790.869 1067.5,784.5C 1067.69,782.423 1068.19,780.423 1069,778.5C 1073.22,773.381 1076.39,767.715 1078.5,761.5 Z"/></g>
<g><path style="opacity:0.708" fill="#000000" d="M 1080.5,810.5 C 1081.5,810.5 1082.5,810.5 1083.5,810.5C 1083.98,815.779 1084.98,820.945 1086.5,826C 1086.41,829.357 1085.57,832.523 1084,835.5C 1079.88,838.781 1076.71,842.781 1074.5,847.5C 1071.73,849.129 1068.73,849.795 1065.5,849.5C 1064.15,845.756 1064.31,842.089 1066,838.5C 1068.3,835.203 1070.96,832.203 1074,829.5C 1076.02,823.083 1078.18,816.749 1080.5,810.5 Z"/></g>
<g><path style="opacity:0.701" fill="#000000" d="M 786.5,811.5 C 789.5,811.5 792.5,811.5 795.5,811.5C 795.616,816.102 793.949,819.935 790.5,823C 784.51,825.66 778.844,828.826 773.5,832.5C 770.683,831.905 768.35,830.572 766.5,828.5C 767.363,824.607 769.363,821.44 772.5,819C 777.387,816.726 782.054,814.226 786.5,811.5 Z"/></g>
<g><path style="opacity:0.753" fill="#000000" d="M 1735.5,815.5 C 1742.39,815.861 1748.22,818.527 1753,823.5C 1763.93,836.354 1771.43,851.02 1775.5,867.5C 1773.57,873.864 1770.07,874.864 1765,870.5C 1760.64,854.603 1752.81,840.769 1741.5,829C 1738.22,828.081 1735.06,826.914 1732,825.5C 1729.92,820.897 1731.09,817.564 1735.5,815.5 Z"/></g>
<g><path style="opacity:0.725" fill="#000000" d="M 1586.5,837.5 C 1592.46,838.087 1594.29,841.087 1592,846.5C 1585.12,854.715 1578.62,863.215 1572.5,872C 1567.44,874.261 1564.11,872.761 1562.5,867.5C 1563.24,865.459 1564.07,863.459 1565,861.5C 1569.67,855.5 1574.33,849.5 1579,843.5C 1581.13,840.847 1583.63,838.847 1586.5,837.5 Z"/></g>
<g><path style="opacity:0.641" fill="#000000" d="M 737.5,851.5 C 738.5,851.5 739.5,851.5 740.5,851.5C 739.029,859.944 734.196,865.611 726,868.5C 720.791,866.745 719.457,863.412 722,858.5C 724.564,856.273 727.397,854.439 730.5,853C 732.035,852.504 733.535,852.67 735,853.5C 736.301,853.361 737.134,852.695 737.5,851.5 Z"/></g>
<g><path style="opacity:0.68" fill="#000000" d="M 1065.5,880.5 C 1067.72,880.178 1069.56,880.845 1071,882.5C 1075.18,893.464 1076.52,904.798 1075,916.5C 1074.18,920.665 1072.01,921.498 1068.5,919C 1066.96,917.421 1065.79,915.587 1065,913.5C 1064.81,905.256 1063.97,897.089 1062.5,889C 1062.25,885.677 1063.25,882.843 1065.5,880.5 Z"/></g>
<g><path style="opacity:0.521" fill="#000000" d="M 686.5,881.5 C 688.5,881.5 690.5,881.5 692.5,881.5C 692.896,884.044 692.229,886.211 690.5,888C 685.316,890.573 680.982,894.073 677.5,898.5C 676.311,899.429 674.978,899.762 673.5,899.5C 673.248,896.68 673.748,894.014 675,891.5C 678.41,887.584 682.243,884.251 686.5,881.5 Z"/></g>
<g><path style="opacity:0.723" fill="#000000" d="M 1777.5,885.5 C 1784.88,885.719 1791.71,887.719 1798,891.5C 1801.3,897.078 1802.3,903.078 1801,909.5C 1800.03,912.302 1798.2,914.302 1795.5,915.5C 1793.97,915.471 1792.8,914.804 1792,913.5C 1790.12,909.05 1788.95,904.383 1788.5,899.5C 1784.22,898.179 1779.88,897.012 1775.5,896C 1771.9,894.666 1770.73,892.166 1772,888.5C 1773.88,887.391 1775.71,886.391 1777.5,885.5 Z"/></g>
<g><path style="opacity:0.726" fill="#000000" d="M 1544.5,889.5 C 1549.45,889.611 1551.78,892.111 1551.5,897C 1550.2,909.406 1545.87,920.573 1538.5,930.5C 1534.15,933.198 1529.81,935.865 1525.5,938.5C 1523.83,938.167 1522.83,937.167 1522.5,935.5C 1531.09,925.32 1536.76,913.653 1539.5,900.5C 1538.16,895.513 1539.83,891.846 1544.5,889.5 Z"/></g>
<g><path style="opacity:0.709" fill="#000000" d="M 1820.5,916.5 C 1823.89,916.062 1826.89,916.895 1829.5,919C 1838.36,929.129 1839.53,939.962 1833,951.5C 1831.99,952.337 1830.82,952.67 1829.5,952.5C 1828.65,949.777 1827.48,947.11 1826,944.5C 1825.81,939.749 1825.14,935.083 1824,930.5C 1820.93,927.938 1818.43,924.938 1816.5,921.5C 1817.16,919.185 1818.49,917.519 1820.5,916.5 Z"/></g>
<g><path style="opacity:0.719" fill="#000000" d="M 1091.5,920.5 C 1094.34,921.172 1096.84,922.506 1099,924.5C 1103.23,933.687 1103.56,943.02 1100,952.5C 1097.75,957.326 1095.25,961.992 1092.5,966.5C 1091.68,967.386 1090.68,967.719 1089.5,967.5C 1088.21,963.923 1087.21,960.256 1086.5,956.5C 1086.8,952.886 1087.97,949.552 1090,946.5C 1090.68,940.313 1090.51,934.146 1089.5,928C 1089.67,925.335 1090.33,922.835 1091.5,920.5 Z"/></g>
<g><path style="opacity:0.481" fill="#000000" d="M 638.5,923.5 C 639.833,923.5 641.167,923.5 642.5,923.5C 643.029,929.944 640.695,935.111 635.5,939C 632.323,940.85 629.157,942.683 626,944.5C 623.812,943.941 623.146,942.607 624,940.5C 625.925,938.787 628.092,937.453 630.5,936.5C 632.927,931.971 635.594,927.638 638.5,923.5 Z"/></g>
<g><path style="opacity:0.707" fill="#000000" d="M 1505.5,958.5 C 1508.24,957.965 1510.07,958.965 1511,961.5C 1511.64,968.909 1509.14,975.076 1503.5,980C 1499.9,981.822 1496.23,981.989 1492.5,980.5C 1491.69,975.453 1493.52,971.786 1498,969.5C 1499.55,965.035 1502.05,961.368 1505.5,958.5 Z"/></g>
<g><path style="opacity:0.658" fill="#000000" d="M 596.5,962.5 C 602.989,963.478 604.656,966.811 601.5,972.5C 595.481,976.345 589.148,979.345 582.5,981.5C 582.884,976.963 584.051,972.629 586,968.5C 589.351,966.079 592.851,964.079 596.5,962.5 Z"/></g>
<g><path style="opacity:0.724" fill="#000000" d="M 1849.5,967.5 C 1850.87,967.343 1852.21,967.51 1853.5,968C 1857.18,976.017 1862.68,982.517 1870,987.5C 1870.94,990.347 1870.44,992.847 1868.5,995C 1865.41,995.652 1862.41,995.318 1859.5,994C 1852.46,988.962 1847.79,982.296 1845.5,974C 1846.23,971.366 1847.56,969.199 1849.5,967.5 Z"/></g>
<g><path style="opacity:0.742" fill="#000000" d="M 1095.5,991.5 C 1099.92,991.082 1102.42,993.082 1103,997.5C 1103.67,1007.5 1103.67,1017.5 1103,1027.5C 1100.45,1031.93 1097.12,1032.59 1093,1029.5C 1092.46,1018.15 1092.13,1006.82 1092,995.5C 1092.69,993.65 1093.86,992.316 1095.5,991.5 Z"/></g>
<g><path style="opacity:0.731" fill="#000000" d="M 1888.5,1009.5 C 1890.86,1009.34 1893.19,1009.5 1895.5,1010C 1898.43,1014.1 1900.59,1018.6 1902,1023.5C 1905.82,1027.07 1909.82,1030.4 1914,1033.5C 1917.44,1036.69 1917.27,1039.69 1913.5,1042.5C 1912.23,1043.43 1910.9,1043.59 1909.5,1043C 1896.75,1037.71 1889.09,1028.21 1886.5,1014.5C 1887.17,1012.8 1887.84,1011.14 1888.5,1009.5 Z"/></g>
<g><path style="opacity:0.633" fill="#000000" d="M 539.5,1010.5 C 542.5,1010.5 545.5,1010.5 548.5,1010.5C 548.799,1012.6 548.466,1014.6 547.5,1016.5C 542.887,1020.42 537.72,1022.08 532,1021.5C 531.506,1015.83 534.006,1012.16 539.5,1010.5 Z"/></g>
<g><path style="opacity:0.585" fill="#000000" d="M 1465.5,1014.5 C 1470.54,1015.24 1471.7,1017.91 1469,1022.5C 1465.17,1026 1461.33,1029.5 1457.5,1033C 1455.26,1033.98 1452.93,1034.48 1450.5,1034.5C 1450.37,1032.35 1450.87,1030.35 1452,1028.5C 1456.76,1023.91 1461.26,1019.24 1465.5,1014.5 Z"/></g>
<g><path style="opacity:0.696" fill="#000000" d="M 1453.5,1035.5 C 1455.95,1035.01 1457.62,1035.84 1458.5,1038C 1455.54,1046.64 1450.54,1053.98 1443.5,1060C 1435.5,1062.99 1432.66,1060.49 1435,1052.5C 1439.13,1047.37 1443.63,1042.53 1448.5,1038C 1450.31,1037.24 1451.98,1036.41 1453.5,1035.5 Z"/></g>
<g><path style="opacity:0.729" fill="#000000" d="M 1918.5,1038.5 C 1922.34,1040.15 1925.84,1042.49 1929,1045.5C 1931.64,1052.78 1935.3,1059.44 1940,1065.5C 1943.04,1070.28 1943.21,1075.12 1940.5,1080C 1937.74,1081.92 1935.08,1081.76 1932.5,1079.5C 1931.59,1073.67 1929.09,1068.67 1925,1064.5C 1923.19,1060.05 1921.19,1055.71 1919,1051.5C 1917.17,1047.23 1917.01,1042.89 1918.5,1038.5 Z"/></g>
<g><path style="opacity:0.507" fill="#000000" d="M 513.5,1043.5 C 515.167,1043.5 516.833,1043.5 518.5,1043.5C 518.649,1044.55 518.483,1045.55 518,1046.5C 514.359,1049.8 510.692,1053.14 507,1056.5C 506.505,1058.47 506.338,1060.47 506.5,1062.5C 504.533,1062.74 502.699,1062.41 501,1061.5C 500.333,1058.5 500.333,1055.5 501,1052.5C 504.299,1048.12 508.466,1045.12 513.5,1043.5 Z"/></g>
<g><path style="opacity:0.745" fill="#000000" d="M 1106.5,1047.5 C 1110,1048.06 1112.5,1050.06 1114,1053.5C 1115.98,1065.82 1115.98,1078.15 1114,1090.5C 1112.48,1094.53 1109.65,1096.86 1105.5,1097.5C 1104.15,1094.16 1103.48,1090.66 1103.5,1087C 1104.77,1076.66 1104.77,1066.33 1103.5,1056C 1103.82,1052.88 1104.82,1050.04 1106.5,1047.5 Z"/></g>
<g><path style="opacity:0.609" fill="#000000" d="M 490.5,1076.5 C 493.167,1076.5 495.833,1076.5 498.5,1076.5C 498.617,1078.48 497.95,1080.15 496.5,1081.5C 492.45,1085.39 488.283,1089.06 484,1092.5C 478.233,1088.83 478.066,1084.66 483.5,1080C 485.925,1078.79 488.259,1077.62 490.5,1076.5 Z"/></g>
<g><path style="opacity:0.662" fill="#000000" d="M 1416.5,1090.5 C 1419.77,1091.02 1421.11,1093.02 1420.5,1096.5C 1418.12,1109.88 1410.12,1116.88 1396.5,1117.5C 1396.86,1114.38 1397.7,1111.38 1399,1108.5C 1404.98,1102.68 1410.81,1096.68 1416.5,1090.5 Z"/></g>
<g><path style="opacity:0.739" fill="#000000" d="M 1105.5,1101.5 C 1109.03,1101.35 1111.86,1102.68 1114,1105.5C 1117.99,1120.05 1116.16,1133.88 1108.5,1147C 1103.02,1149.76 1100.02,1148.09 1099.5,1142C 1100.85,1136.8 1102.35,1131.64 1104,1126.5C 1105.02,1119.57 1104.19,1112.9 1101.5,1106.5C 1101.85,1103.95 1103.19,1102.29 1105.5,1101.5 Z"/></g>
<g><path style="opacity:0.499" fill="#000000" d="M 465.5,1102.5 C 466.598,1103.6 466.765,1104.93 466,1106.5C 462.442,1109.03 458.609,1111.2 454.5,1113C 452.963,1114.11 452.297,1115.61 452.5,1117.5C 446.933,1118.25 445.1,1115.91 447,1110.5C 452.606,1106.27 458.773,1103.61 465.5,1102.5 Z"/></g>
<g><path style="opacity:0.745" fill="#000000" d="M 1947.5,1105.5 C 1950.1,1105.55 1952.27,1106.55 1954,1108.5C 1958.93,1119.46 1962.77,1130.8 1965.5,1142.5C 1965.12,1145.58 1963.79,1148.08 1961.5,1150C 1958.04,1150.86 1955.54,1149.69 1954,1146.5C 1952.01,1134.69 1948.51,1123.36 1943.5,1112.5C 1944.09,1109.65 1945.42,1107.32 1947.5,1105.5 Z"/></g>
<g><path style="opacity:0.675" fill="#000000" d="M 440.5,1127.5 C 441.833,1127.5 443.167,1127.5 444.5,1127.5C 443.179,1132.63 441.345,1137.63 439,1142.5C 432.136,1149.7 424.97,1156.53 417.5,1163C 415.319,1164.84 412.819,1166.01 410,1166.5C 407.526,1166.06 406.359,1164.56 406.5,1162C 406.993,1159.18 408.16,1156.68 410,1154.5C 416.829,1148.67 423.329,1142.5 429.5,1136C 432.833,1134 436.167,1132 439.5,1130C 440.252,1129.33 440.586,1128.5 440.5,1127.5 Z"/></g>
<g><path style="opacity:0.685" fill="#000000" d="M 1373.5,1135.5 C 1381.84,1135.52 1384.01,1139.18 1380,1146.5C 1375.21,1153.46 1369.05,1158.79 1361.5,1162.5C 1360.28,1164.98 1358.28,1165.98 1355.5,1165.5C 1357.34,1160.13 1359.51,1154.8 1362,1149.5C 1366.56,1145.35 1370.39,1140.69 1373.5,1135.5 Z"/></g>
<g><path style="opacity:0.733" fill="#000000" d="M 1097.5,1150.5 C 1100.56,1150.44 1102.73,1151.78 1104,1154.5C 1104.67,1162.83 1104.67,1171.17 1104,1179.5C 1100.67,1187.5 1097.33,1187.5 1094,1179.5C 1093.33,1171.17 1093.33,1162.83 1094,1154.5C 1094.69,1152.65 1095.86,1151.32 1097.5,1150.5 Z"/></g>
<g><path style="opacity:0.739" fill="#000000" d="M 1973.5,1153.5 C 1976.39,1153.28 1979.06,1153.94 1981.5,1155.5C 1986.85,1161.02 1992.02,1166.68 1997,1172.5C 2000.16,1177.33 2002.66,1182.5 2004.5,1188C 2003.08,1194.22 1999.74,1195.72 1994.5,1192.5C 1992.78,1187.39 1990.28,1182.72 1987,1178.5C 1980.78,1172.79 1975.94,1166.12 1972.5,1158.5C 1973.05,1156.87 1973.38,1155.2 1973.5,1153.5 Z"/></g>
<g><path style="opacity:0.775" fill="#000000" d="M 342.5,1170.5 C 372.199,1174.51 401.532,1180.34 430.5,1188C 449.849,1193.25 466.682,1202.75 481,1216.5C 489.976,1231.34 491.642,1247.01 486,1263.5C 476.472,1286.03 460.972,1303.2 439.5,1315C 414.382,1325.91 389.048,1326.24 363.5,1316C 346.724,1309.87 332.224,1300.37 320,1287.5C 314.161,1279.81 310.494,1271.15 309,1261.5C 304.295,1226.88 316.795,1200.71 346.5,1183C 340.176,1182.69 337.676,1179.52 339,1173.5C 340.145,1172.36 341.312,1171.36 342.5,1170.5 Z M 365.5,1187.5 C 399.175,1189.33 430.841,1198.17 460.5,1214C 467.427,1218.92 472.927,1225.09 477,1232.5C 480.08,1248.14 477.08,1262.47 468,1275.5C 437.34,1313.92 399.84,1322.09 355.5,1300C 341.82,1293.32 330.987,1283.49 323,1270.5C 312.912,1230 327.079,1202.34 365.5,1187.5 Z"/></g>
<g><path style="opacity:0.706" fill="#000000" d="M 1343.5,1183.5 C 1350.78,1185.17 1352.28,1189.17 1348,1195.5C 1341.7,1203.73 1333.54,1209.06 1323.5,1211.5C 1323.2,1207.09 1324.37,1203.09 1327,1199.5C 1333.06,1194.61 1338.56,1189.27 1343.5,1183.5 Z"/></g>
<g><path style="opacity:0.735" fill="#000000" d="M 1111.5,1200.5 C 1114.77,1200.47 1115.44,1201.8 1113.5,1204.5C 1114.43,1206.94 1115.6,1209.27 1117,1211.5C 1117.67,1222.5 1117.67,1233.5 1117,1244.5C 1114.16,1249.33 1110.83,1249.66 1107,1245.5C 1106.33,1233.83 1106.33,1222.17 1107,1210.5C 1109.37,1207.55 1110.87,1204.21 1111.5,1200.5 Z"/></g>
<g><path style="opacity:0.734" fill="#000000" d="M 2013.5,1202.5 C 2017.28,1202.97 2020.45,1204.64 2023,1207.5C 2026,1211.17 2029,1214.83 2032,1218.5C 2033.89,1221.62 2035.23,1224.95 2036,1228.5C 2044.07,1235.64 2049.91,1244.31 2053.5,1254.5C 2052.1,1260.9 2048.6,1262.57 2043,1259.5C 2041.89,1255.27 2040.22,1251.27 2038,1247.5C 2034.67,1243.51 2031.84,1239.18 2029.5,1234.5C 2028.37,1233.74 2027.21,1233.07 2026,1232.5C 2022.33,1225.17 2017.66,1218.5 2012,1212.5C 2009.74,1208.65 2010.24,1205.32 2013.5,1202.5 Z"/></g>
<g><path style="opacity:0.735" fill="#000000" d="M 389.5,1211.5 C 392.561,1211.44 394.728,1212.78 396,1215.5C 396.333,1234.17 396.667,1252.83 397,1271.5C 400.791,1267.54 404.625,1263.87 408.5,1260.5C 408.702,1268.35 406.702,1275.51 402.5,1282C 398.411,1285.05 394.077,1285.72 389.5,1284C 387.951,1282.79 386.785,1281.29 386,1279.5C 384.404,1258.54 384.071,1237.54 385,1216.5C 385.74,1214.03 387.24,1212.36 389.5,1211.5 Z"/></g>
<g><path style="opacity:0.66" fill="#000000" d="M 1297.5,1237.5 C 1299.17,1237.5 1300.83,1237.5 1302.5,1237.5C 1297.67,1248.47 1290.84,1258.13 1282,1266.5C 1280.07,1272.98 1276.73,1273.98 1272,1269.5C 1271.18,1266.04 1271.52,1262.7 1273,1259.5C 1278.87,1253.97 1284.37,1248.14 1289.5,1242C 1292.39,1240.73 1295.06,1239.23 1297.5,1237.5 Z"/></g>
<g><path style="opacity:0.74" fill="#000000" d="M 499.5,1265.5 C 515.057,1268.47 530.723,1270.97 546.5,1273C 549.602,1273.88 551.936,1275.71 553.5,1278.5C 550.478,1281.93 546.644,1283.93 542,1284.5C 527.749,1282.39 513.582,1279.89 499.5,1277C 492.901,1273.07 492.901,1269.24 499.5,1265.5 Z"/></g>
<g><path style="opacity:0.67" fill="#000000" d="M 1108.5,1267.5 C 1109.5,1267.41 1110.33,1267.75 1111,1268.5C 1111.75,1272.25 1112.75,1275.92 1114,1279.5C 1115.05,1285.47 1115.89,1291.47 1116.5,1297.5C 1114.74,1303.47 1111.24,1304.8 1106,1301.5C 1103.12,1289.94 1103.95,1278.61 1108.5,1267.5 Z"/></g>
<g><path style="opacity:0.713" fill="#000000" d="M 2058.5,1270.5 C 2060.65,1270.37 2062.65,1270.87 2064.5,1272C 2069.87,1278.57 2074.87,1285.4 2079.5,1292.5C 2078.01,1298.08 2074.68,1299.58 2069.5,1297C 2065.88,1292.93 2062.38,1288.76 2059,1284.5C 2054.69,1279.78 2054.53,1275.12 2058.5,1270.5 Z"/></g>
<g><path style="opacity:0.733" fill="#000000" d="M 558.5,1271.5 C 568.409,1273.89 578.076,1277.06 587.5,1281C 591.419,1282.54 594.919,1284.71 598,1287.5C 601.007,1283.87 604.84,1282.7 609.5,1284C 614.42,1286.2 619.42,1288.2 624.5,1290C 630.278,1295.37 629.611,1299.53 622.5,1302.5C 615.605,1298.59 608.272,1295.76 600.5,1294C 599.333,1293.5 598.5,1292.67 598,1291.5C 597.002,1293.92 595.168,1295.25 592.5,1295.5C 583.172,1291.11 573.505,1287.61 563.5,1285C 558.535,1284.38 555.535,1281.71 554.5,1277C 555.007,1274.45 556.341,1272.62 558.5,1271.5 Z"/></g>
<g><path style="opacity:0.743" fill="#000000" d="M 1262.5,1274.5 C 1264.83,1274.5 1267.17,1274.5 1269.5,1274.5C 1269.2,1280.91 1267.03,1286.58 1263,1291.5C 1255.9,1299.6 1247.9,1306.6 1239,1312.5C 1234.14,1310.6 1232.81,1307.27 1235,1302.5C 1245.09,1293.91 1254.26,1284.57 1262.5,1274.5 Z"/></g>
<g><path style="opacity:0.718" fill="#000000" d="M 638.5,1299.5 C 648.442,1299.85 658.108,1301.69 667.5,1305C 673.118,1309.88 672.785,1314.04 666.5,1317.5C 657.131,1313.93 647.464,1311.43 637.5,1310C 633.442,1306.03 633.776,1302.53 638.5,1299.5 Z"/></g>
<g><path style="opacity:0.734" fill="#000000" d="M 2084.5,1310.5 C 2087.26,1310.8 2089.76,1311.8 2092,1313.5C 2097.1,1323.38 2103.44,1332.38 2111,1340.5C 2112.05,1338.89 2113.55,1338.23 2115.5,1338.5C 2116.61,1341.23 2117.61,1344.06 2118.5,1347C 2117.2,1353.48 2113.53,1355.48 2107.5,1353C 2096.14,1342.32 2087.14,1329.98 2080.5,1316C 2081.01,1313.45 2082.34,1311.62 2084.5,1310.5 Z"/></g>
<g><path style="opacity:0.726" fill="#000000" d="M 693.5,1317.5 C 705.1,1321.05 715.267,1327.05 724,1335.5C 725.325,1339.14 726.492,1342.81 727.5,1346.5C 720.09,1346.63 714.09,1343.79 709.5,1338C 703.5,1334.67 697.5,1331.33 691.5,1328C 688.413,1323.6 689.08,1320.1 693.5,1317.5 Z"/></g>
<g><path style="opacity:0.716" fill="#000000" d="M 1105.5,1317.5 C 1110.81,1317.98 1113.65,1320.98 1114,1326.5C 1114.2,1336.03 1114.7,1345.53 1115.5,1355C 1113.33,1360.63 1109.66,1361.8 1104.5,1358.5C 1103.75,1357.62 1103.25,1356.62 1103,1355.5C 1102.33,1344.83 1102.33,1334.17 1103,1323.5C 1103.57,1321.36 1104.41,1319.36 1105.5,1317.5 Z"/></g>
<g><path style="opacity:0.764" fill="#000000" d="M 1229.5,1328.5 C 1230.83,1328.5 1232.17,1328.5 1233.5,1328.5C 1233.31,1332.06 1232.31,1335.4 1230.5,1338.5C 1226.6,1344.9 1221.77,1350.57 1216,1355.5C 1215.19,1357.44 1214.69,1359.44 1214.5,1361.5C 1212.42,1361.47 1210.58,1362.14 1209,1363.5C 1201.68,1377.47 1193.35,1390.81 1184,1403.5C 1180.12,1406.24 1175.95,1408.4 1171.5,1410C 1187.84,1422.34 1201.34,1437.17 1212,1454.5C 1227.83,1489.87 1219.33,1517.37 1186.5,1537C 1154.6,1553.61 1121.6,1555.94 1087.5,1544C 1057.27,1530.7 1046.44,1507.87 1055,1475.5C 1060.45,1452.79 1070.28,1432.29 1084.5,1414C 1077.91,1404.22 1079.57,1396.22 1089.5,1390C 1095.98,1388.17 1102.48,1387.67 1109,1388.5C 1123.4,1378.72 1138.23,1378.22 1153.5,1387C 1156.1,1388.93 1156.1,1390.76 1153.5,1392.5C 1146.83,1389.03 1139.83,1388.53 1132.5,1391C 1145.64,1394.93 1157.8,1400.76 1169,1408.5C 1169.44,1405.62 1170.44,1402.96 1172,1400.5C 1181.33,1387.85 1190.16,1374.85 1198.5,1361.5C 1200.42,1360.29 1202.26,1358.96 1204,1357.5C 1207.62,1346.54 1214.78,1338.71 1225.5,1334C 1227.46,1332.55 1228.8,1330.72 1229.5,1328.5 Z M 1093.5,1400.5 C 1094.24,1400.37 1094.91,1400.54 1095.5,1401C 1092.97,1403.89 1090.31,1406.22 1087.5,1408C 1089.33,1405.34 1091.33,1402.84 1093.5,1400.5 Z M 1111.5,1400.5 C 1129.79,1401.1 1146.46,1406.6 1161.5,1417C 1180.62,1430.12 1195.46,1446.95 1206,1467.5C 1210.88,1481.32 1210.55,1494.99 1205,1508.5C 1173.15,1539.14 1135.98,1547.64 1093.5,1534C 1082.22,1529.78 1073.38,1522.62 1067,1512.5C 1062.37,1487.27 1066.71,1463.6 1080,1441.5C 1088.57,1426.36 1099.07,1412.69 1111.5,1400.5 Z"/></g>
<g><path style="opacity:0.738" fill="#000000" d="M 759.5,1339.5 C 764.742,1339.02 769.742,1339.86 774.5,1342C 780.755,1348.26 787.588,1353.76 795,1358.5C 797.799,1365.04 795.632,1367.87 788.5,1367C 780.985,1363.15 774.318,1358.15 768.5,1352C 765.623,1350.87 762.623,1350.21 759.5,1350C 755.605,1346.51 755.605,1343.01 759.5,1339.5 Z"/></g>
<g><path style="opacity:0.778" fill="#000000" d="M 2129.5,1348.5 C 2134.17,1348.5 2138.83,1348.5 2143.5,1348.5C 2144.47,1353.37 2142.47,1355.53 2137.5,1355C 2124.83,1361.33 2112.83,1368.66 2101.5,1377C 2087.93,1389.64 2079.76,1405.14 2077,1423.5C 2076.33,1434.83 2076.33,1446.17 2077,1457.5C 2080.82,1478.99 2092.65,1494.15 2112.5,1503C 2151,1512.17 2186,1504.83 2217.5,1481C 2237.72,1464.75 2244.22,1444.25 2237,1419.5C 2229.21,1409.38 2219.37,1401.88 2207.5,1397C 2181.2,1386.11 2153.86,1380.94 2125.5,1381.5C 2124.52,1384.81 2123.52,1388.14 2122.5,1391.5C 2122.83,1392.17 2123.17,1392.83 2123.5,1393.5C 2130.05,1395.53 2136.05,1398.7 2141.5,1403C 2153.74,1407.94 2166.41,1409.61 2179.5,1408C 2186.07,1412.29 2185.74,1416.29 2178.5,1420C 2163.57,1421.27 2149.24,1418.94 2135.5,1413C 2131.96,1411.39 2128.96,1409.06 2126.5,1406C 2123.18,1405.5 2119.85,1405.33 2116.5,1405.5C 2119.97,1419.73 2125.14,1433.4 2132,1446.5C 2136.56,1453.45 2142.56,1458.78 2150,1462.5C 2150.79,1470.7 2147.29,1473.2 2139.5,1470C 2123.89,1462.95 2109.72,1453.78 2097,1442.5C 2093.93,1436.8 2095.26,1432.8 2101,1430.5C 2102.22,1430.86 2103.39,1431.36 2104.5,1432C 2107.64,1437.8 2111.97,1441.63 2117.5,1443.5C 2112.16,1431.48 2107.83,1419.14 2104.5,1406.5C 2104.86,1396.98 2109.86,1392.48 2119.5,1393C 2112.44,1387.45 2111.61,1380.95 2117,1373.5C 2118.93,1371.9 2121.1,1370.73 2123.5,1370C 2160.03,1368.7 2194.36,1376.7 2226.5,1394C 2248.51,1407.21 2256.34,1426.38 2250,1451.5C 2247.81,1458.87 2244.81,1465.87 2241,1472.5C 2224.25,1493.47 2202.75,1507.31 2176.5,1514C 2153.06,1520.24 2129.73,1519.91 2106.5,1513C 2084.93,1502.75 2071.43,1485.91 2066,1462.5C 2059.91,1431.2 2066.24,1402.87 2085,1377.5C 2097.38,1363.93 2112.21,1354.27 2129.5,1348.5 Z"/></g>
<g><path style="opacity:0.74" fill="#000000" d="M 807.5,1351.5 C 818.622,1353.82 829.289,1357.65 839.5,1363C 842.07,1365.07 844.07,1367.57 845.5,1370.5C 844.438,1373.73 842.271,1375.73 839,1376.5C 828.379,1370.27 817.212,1365.27 805.5,1361.5C 803.897,1357.66 804.563,1354.33 807.5,1351.5 Z"/></g>
<g><path style="opacity:0.717" fill="#000000" d="M 853.5,1372.5 C 861.618,1374.15 869.618,1376.32 877.5,1379C 881.663,1382.83 881.329,1386.16 876.5,1389C 867.908,1388.92 859.908,1386.58 852.5,1382C 849.69,1378.43 850.023,1375.27 853.5,1372.5 Z"/></g>
<g><path style="opacity:0.734" fill="#000000" d="M 886.5,1381.5 C 898.423,1383.98 909.756,1388.14 920.5,1394C 924.301,1400.86 922.301,1404.19 914.5,1404C 904.595,1398.75 894.262,1394.59 883.5,1391.5C 880.5,1386.86 881.5,1383.52 886.5,1381.5 Z"/></g>
<g><path style="opacity:0.709" fill="#000000" d="M 942.5,1410.5 C 950.702,1413.11 959.035,1415.27 967.5,1417C 973.149,1421.9 972.315,1425.4 965,1427.5C 955.848,1426.81 947.181,1424.47 939,1420.5C 936.546,1415.76 937.713,1412.43 942.5,1410.5 Z"/></g>
<g><path style="opacity:0.732" fill="#000000" d="M 985.5,1423.5 C 989.514,1423.33 993.514,1423.5 997.5,1424C 1007.73,1427.78 1017.73,1432.12 1027.5,1437C 1031.14,1441.98 1029.8,1445.48 1023.5,1447.5C 1009.95,1441.56 996.621,1435.39 983.5,1429C 982.08,1426.43 982.747,1424.59 985.5,1423.5 Z"/></g>
<g><path style="opacity:0.742" fill="#000000" d="M 1136.5,1423.5 C 1140.46,1422.97 1142.79,1424.64 1143.5,1428.5C 1139.52,1435.92 1136.02,1443.58 1133,1451.5C 1131.19,1457.37 1130.36,1463.37 1130.5,1469.5C 1136.83,1469.5 1143.17,1469.5 1149.5,1469.5C 1151.66,1461.86 1153.66,1454.19 1155.5,1446.5C 1157.17,1446.5 1158.83,1446.5 1160.5,1446.5C 1160.6,1454.19 1160.26,1461.86 1159.5,1469.5C 1164.84,1469 1170.17,1468.83 1175.5,1469C 1180.65,1472.64 1180.31,1475.97 1174.5,1479C 1168.94,1480.53 1163.27,1481.37 1157.5,1481.5C 1156.53,1488.81 1156.36,1496.14 1157,1503.5C 1159.21,1504.12 1161.05,1505.29 1162.5,1507C 1162.09,1507.95 1161.43,1508.61 1160.5,1509C 1156.41,1510.38 1152.41,1510.38 1148.5,1509C 1147.3,1508.1 1146.47,1506.93 1146,1505.5C 1145.3,1497.47 1145.47,1489.47 1146.5,1481.5C 1139.43,1481.84 1132.43,1481.34 1125.5,1480C 1121.59,1479.03 1119.43,1476.53 1119,1472.5C 1118.97,1457.92 1122.63,1444.25 1130,1431.5C 1131.48,1428.17 1133.65,1425.51 1136.5,1423.5 Z"/></g>
<g><path style="opacity:0.705" fill="#000000" d="M 1925.5,1451.5 C 1935.51,1451.33 1945.51,1451.5 1955.5,1452C 1959.74,1454.44 1960.4,1457.61 1957.5,1461.5C 1955.88,1462.15 1954.22,1462.65 1952.5,1463C 1944.17,1463.67 1935.83,1463.67 1927.5,1463C 1921.11,1462.38 1919.28,1459.21 1922,1453.5C 1923.3,1452.92 1924.47,1452.25 1925.5,1451.5 Z"/></g>
<g><path style="opacity:0.639" fill="#000000" d="M 1565.5,1455.5 C 1570.84,1455.33 1576.18,1455.5 1581.5,1456C 1586.83,1459.33 1586.83,1462.67 1581.5,1466C 1572.27,1467.38 1563.44,1466.21 1555,1462.5C 1554.33,1461.5 1554.33,1460.5 1555,1459.5C 1558.43,1457.86 1561.93,1456.52 1565.5,1455.5 Z"/></g>
<g><path style="opacity:0.702" fill="#000000" d="M 1620.5,1455.5 C 1626.84,1455.33 1633.18,1455.5 1639.5,1456C 1645.72,1459.19 1646.05,1462.85 1640.5,1467C 1631.42,1467.91 1622.42,1467.58 1613.5,1466C 1611.92,1465.29 1610.42,1464.46 1609,1463.5C 1608.22,1462.06 1608.39,1460.72 1609.5,1459.5C 1613,1457.43 1616.67,1456.1 1620.5,1455.5 Z"/></g>
<g><path style="opacity:0.729" fill="#000000" d="M 1673.5,1456.5 C 1683.17,1456.33 1692.84,1456.5 1702.5,1457C 1707.58,1460.22 1707.58,1463.56 1702.5,1467C 1692.5,1467.67 1682.5,1467.67 1672.5,1467C 1665.85,1463.04 1666.19,1459.54 1673.5,1456.5 Z"/></g>
<g><path style="opacity:0.736" fill="#000000" d="M 1720.5,1456.5 C 1729.84,1456.33 1739.17,1456.5 1748.5,1457C 1753.25,1459.97 1753.58,1463.3 1749.5,1467C 1739.83,1467.67 1730.17,1467.67 1720.5,1467C 1717.19,1466.53 1714.85,1464.86 1713.5,1462C 1713.59,1460.89 1713.92,1459.89 1714.5,1459C 1716.72,1458.43 1718.72,1457.6 1720.5,1456.5 Z"/></g>
<g><path style="opacity:0.677" fill="#000000" d="M 1515.5,1457.5 C 1521.18,1457.33 1526.84,1457.5 1532.5,1458C 1537.83,1462.05 1537.5,1465.71 1531.5,1469C 1525.76,1469.79 1520.1,1469.46 1514.5,1468C 1511.88,1467.21 1509.88,1465.71 1508.5,1463.5C 1510.64,1461.27 1512.97,1459.27 1515.5,1457.5 Z"/></g>
<g><path style="opacity:0.713" fill="#000000" d="M 2028.5,1460.5 C 2038.24,1461.41 2047.91,1462.91 2057.5,1465C 2064.23,1470.11 2063.4,1473.95 2055,1476.5C 2046.21,1474.74 2037.38,1473.24 2028.5,1472C 2022.11,1468.01 2022.11,1464.17 2028.5,1460.5 Z"/></g>
<g><path style="opacity:0.696" fill="#000000" d="M 1783.5,1462.5 C 1790.84,1462.33 1798.17,1462.5 1805.5,1463C 1811.99,1466.57 1811.99,1470.24 1805.5,1474C 1795.66,1474.65 1785.99,1473.65 1776.5,1471C 1775.17,1469.33 1775.17,1467.67 1776.5,1466C 1778.93,1464.79 1781.26,1463.62 1783.5,1462.5 Z"/></g>
<g><path style="opacity:0.704" fill="#000000" d="M 1855.5,1462.5 C 1864.17,1462.33 1872.84,1462.5 1881.5,1463C 1887.33,1465.45 1887.83,1468.62 1883,1472.5C 1873.89,1474.97 1864.72,1475.14 1855.5,1473C 1850.38,1469.6 1850.38,1466.1 1855.5,1462.5 Z"/></g>
<g><path style="opacity:0.697" fill="#000000" d="M 1467.5,1466.5 C 1475.51,1466.33 1483.51,1466.5 1491.5,1467C 1492.49,1468.33 1493.49,1469.66 1494.5,1471C 1493.49,1474.68 1491.15,1477.01 1487.5,1478C 1480.83,1478.67 1474.17,1478.67 1467.5,1478C 1464.39,1477.55 1462.72,1475.71 1462.5,1472.5C 1463.21,1469.59 1464.88,1467.59 1467.5,1466.5 Z"/></g>
<g><path style="opacity:0.728" fill="#000000" d="M 1996.5,1470.5 C 2003.25,1471.06 2004.92,1474.23 2001.5,1480C 1998.38,1481.89 1995.05,1483.23 1991.5,1484C 1981.5,1484.67 1971.5,1484.67 1961.5,1484C 1957.26,1481.56 1956.6,1478.39 1959.5,1474.5C 1961.12,1473.85 1962.78,1473.35 1964.5,1473C 1973.5,1472.67 1982.5,1472.33 1991.5,1472C 1993.38,1471.8 1995.05,1471.3 1996.5,1470.5 Z"/></g>
<g><path style="opacity:0.692" fill="#000000" d="M 1434.5,1473.5 C 1442.84,1473.33 1451.17,1473.5 1459.5,1474C 1465.01,1478.52 1464.34,1482.19 1457.5,1485C 1451.17,1485.67 1444.83,1485.67 1438.5,1485C 1429.67,1483.49 1428.34,1479.66 1434.5,1473.5 Z"/></g>
<g><path style="opacity:0.721" fill="#000000" d="M 1388.5,1474.5 C 1394.73,1473.94 1400.73,1474.77 1406.5,1477C 1409.71,1481.99 1408.55,1485.49 1403,1487.5C 1395.56,1486.34 1388.06,1486.34 1380.5,1487.5C 1376.08,1488.13 1373.08,1486.46 1371.5,1482.5C 1371.88,1480.62 1372.88,1479.12 1374.5,1478C 1379.14,1476.22 1383.8,1475.06 1388.5,1474.5 Z"/></g>
<g><path style="opacity:0.736" fill="#000000" d="M 1304.5,1482.5 C 1321.5,1482.33 1338.5,1482.5 1355.5,1483C 1360.3,1483.1 1361.63,1485.27 1359.5,1489.5C 1355.13,1491.68 1350.46,1493.18 1345.5,1494C 1331.5,1494.67 1317.5,1494.67 1303.5,1494C 1298.69,1492.81 1297.36,1489.98 1299.5,1485.5C 1301.14,1484.3 1302.81,1483.3 1304.5,1482.5 Z"/></g>
<g><path style="opacity:0.732" fill="#000000" d="M 1266.5,1484.5 C 1270.88,1484.37 1275.21,1484.71 1279.5,1485.5C 1277.78,1489.4 1275.11,1492.56 1271.5,1495C 1259.35,1498.66 1247.02,1501.5 1234.5,1503.5C 1231.46,1503.58 1228.63,1502.92 1226,1501.5C 1225.18,1499.3 1225.68,1497.47 1227.5,1496C 1240.46,1491.62 1253.46,1487.79 1266.5,1484.5 Z"/></g>
</svg>
