<?xml version="1.0" encoding="UTF-8"?>
<!DOCTYPE svg PUBLIC "-//W3C//DTD SVG 1.1//EN" "http://www.w3.org/Graphics/SVG/1.1/DTD/svg11.dtd">
<svg xmlns="http://www.w3.org/2000/svg" version="1.1" width="2550px" height="2550px" style="shape-rendering:geometricPrecision; text-rendering:geometricPrecision; image-rendering:optimizeQuality; fill-rule:evenodd; clip-rule:evenodd" xmlns:xlink="http://www.w3.org/1999/xlink">
<g><path style="opacity:0.905" fill="#000000" d="M 1085.5,105.5 C 1120.44,102.265 1153.44,108.599 1184.5,124.5C 1247.71,110.08 1311.71,104.913 1376.5,109C 1417.34,109.634 1456.34,118.3 1493.5,135C 1517.65,147.325 1537.15,164.825 1552,187.5C 1567.32,217.789 1569.65,249.122 1559,281.5C 1554.28,294.626 1547.28,306.293 1538,316.5C 1515.61,340.899 1489.78,360.732 1460.5,376C 1407.49,402.448 1351.82,421.114 1293.5,432C 1239.67,443.139 1185.33,450.473 1130.5,454C 1098.82,454.875 1067.15,454.541 1035.5,453C 1001.42,451.149 969.421,442.149 939.5,426C 926.349,417.181 915.182,406.348 906,393.5C 897.009,377.719 892.509,360.719 892.5,342.5C 891.061,293.001 903.894,247.668 931,206.5C 949.32,182.512 971.154,162.346 996.5,146C 1017.16,132.837 1038.82,121.504 1061.5,112C 1069.46,109.179 1077.46,107.013 1085.5,105.5 Z M 1092.5,120.5 C 1116.15,118.497 1139.15,121.331 1161.5,129C 1127.55,135.029 1094.05,142.863 1061,152.5C 1051.67,160.471 1051.17,168.971 1059.5,178C 1063.31,178.234 1066.98,179.068 1070.5,180.5C 1070.83,180.167 1071.17,179.833 1071.5,179.5C 1067.43,178.402 1065.43,175.735 1065.5,171.5C 1104.97,163.106 1144.47,154.772 1184,146.5C 1184.5,146.667 1185,146.833 1185.5,147C 1182.31,148.026 1180.97,150.192 1181.5,153.5C 1187.5,152.844 1193.16,151.01 1198.5,148C 1199.38,146.644 1199.71,145.144 1199.5,143.5C 1261.55,130.692 1324.22,126.192 1387.5,130C 1425.55,131.761 1461.22,141.761 1494.5,160C 1514.21,171.708 1529.04,187.875 1539,208.5C 1551.76,248.061 1543.42,282.395 1514,311.5C 1494.35,329.573 1472.85,345.073 1449.5,358C 1410.9,378.314 1370.23,393.314 1327.5,403C 1271.26,415.374 1214.59,425.374 1157.5,433C 1115.5,436.294 1073.5,436.294 1031.5,433C 997.413,430.307 966.413,419.307 938.5,400C 918.63,382.751 909.296,360.918 910.5,334.5C 910.899,259.513 942.232,201.68 1004.5,161C 1025.11,147.524 1046.78,135.857 1069.5,126C 1077.19,123.7 1084.86,121.866 1092.5,120.5 Z M 1169.5,256.5 C 1176,256.18 1178.16,259.18 1176,265.5C 1166.34,276.777 1154.17,280.777 1139.5,277.5C 1146.3,265.661 1156.3,258.661 1169.5,256.5 Z"/></g>
<g><path style="opacity:0.597" fill="#000000" d="M 1162.5,163.5 C 1164.17,163.5 1165.83,163.5 1167.5,163.5C 1167.73,166.785 1166.4,169.285 1163.5,171C 1159.99,172.669 1156.33,173.836 1152.5,174.5C 1149.05,174.739 1148.05,173.406 1149.5,170.5C 1153.17,169 1156.83,167.5 1160.5,166C 1161.38,165.292 1162.05,164.458 1162.5,163.5 Z"/></g>
<g><path style="opacity:0.895" fill="#000000" d="M 1343.5,185.5 C 1349.7,184.285 1354.87,185.952 1359,190.5C 1363.78,202.373 1366.78,214.706 1368,227.5C 1369.24,241.845 1370.41,256.178 1371.5,270.5C 1394.55,265.614 1417.72,261.28 1441,257.5C 1446.9,257.975 1452.74,258.808 1458.5,260C 1468.62,264.659 1469.62,270.659 1461.5,278C 1457.91,279.53 1454.24,280.864 1450.5,282C 1424.7,286.592 1399.04,291.759 1373.5,297.5C 1373.67,314.17 1373.5,330.837 1373,347.5C 1372.69,350.372 1372.19,353.205 1371.5,356C 1372.35,358.77 1372.68,361.603 1372.5,364.5C 1363.35,366.013 1357.52,362.346 1355,353.5C 1353.66,336.196 1353.16,318.863 1353.5,301.5C 1342.79,302.908 1332.12,302.741 1321.5,301C 1315.52,296.872 1314.02,291.372 1317,284.5C 1318.17,283.333 1319.33,282.167 1320.5,281C 1330.41,278.384 1340.41,276.218 1350.5,274.5C 1350.58,252.724 1348.75,231.057 1345,209.5C 1344.69,214.491 1342.19,216.325 1337.5,215C 1336.87,214.25 1336.37,213.416 1336,212.5C 1335.33,206.833 1335.33,201.167 1336,195.5C 1337.31,191.199 1339.81,187.866 1343.5,185.5 Z"/></g>
<g><path style="opacity:0.897" fill="#000000" d="M 1003.5,194.5 C 1007.55,194.176 1011.55,194.509 1015.5,195.5C 1017.18,196.769 1018.35,198.436 1019,200.5C 1019.49,217.847 1019.49,235.181 1019,252.5C 1031.02,234.354 1047.52,228.854 1068.5,236C 1079.14,242.656 1085.97,252.156 1089,264.5C 1092.31,283.17 1092.31,301.836 1089,320.5C 1087.46,327.015 1084.63,332.849 1080.5,338C 1075.91,339.518 1072.41,338.351 1070,334.5C 1067.03,324.542 1067.03,314.542 1070,304.5C 1070.67,295.167 1070.67,285.833 1070,276.5C 1069.04,269.942 1066.7,263.942 1063,258.5C 1057.18,252.876 1050.68,252.043 1043.5,256C 1037.3,262.217 1032.47,269.383 1029,277.5C 1024.92,289.249 1020.75,300.916 1016.5,312.5C 1010.69,316.725 1005.19,316.391 1000,311.5C 998.353,276.227 998.02,240.894 999,205.5C 999.266,201.171 1000.77,197.504 1003.5,194.5 Z"/></g>
<g><path style="opacity:0.887" fill="#000000" d="M 1154.5,238.5 C 1165.09,237.65 1174.76,240.15 1183.5,246C 1192.78,266.14 1187.12,280.473 1166.5,289C 1163.58,289.988 1160.58,290.654 1157.5,291C 1149.42,291.315 1141.42,291.481 1133.5,291.5C 1130.79,299.006 1130.12,306.673 1131.5,314.5C 1145.63,318.224 1159.96,319.39 1174.5,318C 1176.16,318.725 1176.66,319.892 1176,321.5C 1173.65,324.628 1170.49,326.461 1166.5,327C 1155.73,335.425 1143.39,339.591 1129.5,339.5C 1116.51,340.316 1108.01,334.649 1104,322.5C 1099.56,287.219 1112.39,260.385 1142.5,242C 1146.54,240.509 1150.54,239.342 1154.5,238.5 Z M 1169.5,256.5 C 1156.3,258.661 1146.3,265.661 1139.5,277.5C 1154.17,280.777 1166.34,276.777 1176,265.5C 1178.16,259.18 1176,256.18 1169.5,256.5 Z"/></g>
<g><path style="opacity:0.891" fill="#000000" d="M 1250.5,238.5 C 1275.14,234.642 1285.64,244.975 1282,269.5C 1282.63,273.052 1283.46,276.552 1284.5,280C 1283.02,284.547 1280.36,285.38 1276.5,282.5C 1274.67,274.992 1272.33,267.658 1269.5,260.5C 1259.96,258.176 1252.13,260.842 1246,268.5C 1242.89,272.722 1241.89,277.389 1243,282.5C 1244.17,283.667 1245.33,284.833 1246.5,286C 1255.92,291.123 1265.08,296.623 1274,302.5C 1280.34,311.124 1279.84,319.291 1272.5,327C 1253.16,335.746 1233.16,337.746 1212.5,333C 1206.35,327.174 1205.01,320.341 1208.5,312.5C 1210.13,310.703 1212.13,309.536 1214.5,309C 1220.45,307.927 1226.45,307.26 1232.5,307C 1218.82,298.65 1213.65,286.483 1217,270.5C 1221.3,252.364 1232.46,241.697 1250.5,238.5 Z"/></g>
<g><path style="opacity:0.863" fill="#000000" d="M 1195.5,495.5 C 1198.58,495.26 1201.58,495.593 1204.5,496.5C 1206.65,505.012 1207.81,513.679 1208,522.5C 1208.67,535.5 1208.67,548.5 1208,561.5C 1207.14,569.097 1204.98,576.264 1201.5,583C 1197.26,584.263 1194.76,582.763 1194,578.5C 1192.86,572.564 1192.19,566.564 1192,560.5C 1191.13,539.808 1191.46,519.141 1193,498.5C 1193.7,497.309 1194.53,496.309 1195.5,495.5 Z"/></g>
<g><path style="opacity:0.808" fill="#000000" d="M 1194.5,642.5 C 1197.32,642.248 1199.99,642.748 1202.5,644C 1205.26,647.361 1207.1,651.195 1208,655.5C 1209.52,666.456 1209.85,677.456 1209,688.5C 1207.31,692.213 1204.48,693.379 1200.5,692C 1199.54,690.581 1198.71,689.081 1198,687.5C 1197.6,679.477 1196.93,671.477 1196,663.5C 1194.19,658.575 1192.69,653.575 1191.5,648.5C 1191.07,645.644 1192.07,643.644 1194.5,642.5 Z"/></g>
<g><path style="opacity:0.809" fill="#000000" d="M 1198.5,725.5 C 1200.6,725.201 1202.6,725.534 1204.5,726.5C 1206.15,744.702 1205.82,763.035 1203.5,781.5C 1197.88,781.991 1195.05,779.325 1195,773.5C 1194.1,758.099 1194.76,742.766 1197,727.5C 1197.72,726.956 1198.22,726.289 1198.5,725.5 Z"/></g>
<g><path style="opacity:0.817" fill="#000000" d="M 1183.5,844.5 C 1186.93,844.107 1190.1,844.773 1193,846.5C 1194.35,863.772 1191.85,880.439 1185.5,896.5C 1183.26,897.474 1180.92,897.808 1178.5,897.5C 1178.66,884.807 1179.33,872.14 1180.5,859.5C 1178.28,853.65 1179.28,848.65 1183.5,844.5 Z"/></g>
<g><path style="opacity:0.813" fill="#000000" d="M 1173.5,926.5 C 1175.6,926.201 1177.6,926.534 1179.5,927.5C 1180.05,929.333 1180.89,931 1182,932.5C 1182.67,942.167 1182.67,951.833 1182,961.5C 1180.83,966.499 1178.17,970.499 1174,973.5C 1172.82,978.709 1169.82,980.376 1165,978.5C 1165.75,969.725 1167.42,961.058 1170,952.5C 1169.75,943.552 1170.92,934.885 1173.5,926.5 Z"/></g>
<g><path style="opacity:0.766" fill="#000000" d="M 1164.5,1015.5 C 1167.36,1015.05 1169.86,1015.72 1172,1017.5C 1174.12,1025.26 1173.79,1032.92 1171,1040.5C 1168.87,1045.23 1166.37,1049.73 1163.5,1054C 1164.77,1054.31 1165.93,1054.81 1167,1055.5C 1168.96,1069.76 1163.46,1079.92 1150.5,1086C 1144.67,1087.5 1142.51,1085.34 1144,1079.5C 1157.38,1065.95 1162.38,1049.95 1159,1031.5C 1159.51,1025.64 1161.35,1020.3 1164.5,1015.5 Z"/></g>
<g><path style="opacity:0.898" fill="#000000" d="M 1627.5,1050.5 C 1651.17,1049.33 1674.5,1051.5 1697.5,1057C 1709.72,1061.94 1722.06,1066.61 1734.5,1071C 1759.95,1077.93 1785.28,1085.26 1810.5,1093C 1828.71,1100.44 1846.05,1109.44 1862.5,1120C 1874.59,1128.35 1883.76,1139.19 1890,1152.5C 1898.71,1170.97 1906.05,1189.97 1912,1209.5C 1912.95,1224.86 1914.28,1240.2 1916,1255.5C 1918.93,1266.3 1922.27,1276.97 1926,1287.5C 1928.46,1304.25 1926.13,1320.25 1919,1335.5C 1913.43,1349.54 1907.1,1363.21 1900,1376.5C 1896.67,1380.5 1893.33,1384.5 1890,1388.5C 1875,1413.83 1860,1439.17 1845,1464.5C 1841.5,1469.33 1837.33,1473.5 1832.5,1477C 1798.53,1490.67 1766.2,1507.34 1735.5,1527C 1712.92,1537.23 1689.25,1543.23 1664.5,1545C 1626.83,1545.67 1589.17,1545.67 1551.5,1545C 1538.1,1544.33 1524.77,1542.99 1511.5,1541C 1459.33,1531.03 1407,1522.03 1354.5,1514C 1309.64,1498.87 1264.64,1484.2 1219.5,1470C 1196.74,1458.63 1176.07,1444.29 1157.5,1427C 1139.12,1408.03 1122.29,1387.87 1107,1366.5C 1102.62,1359.4 1099.62,1351.73 1098,1343.5C 1097.33,1325.5 1097.33,1307.5 1098,1289.5C 1100.28,1275.61 1106.28,1263.61 1116,1253.5C 1133.44,1226.97 1149.11,1199.3 1163,1170.5C 1175.71,1152.12 1190.88,1135.95 1208.5,1122C 1216.83,1116.78 1225.83,1113.11 1235.5,1111C 1251.78,1107.08 1268.11,1103.41 1284.5,1100C 1299.83,1099.33 1315.17,1099.33 1330.5,1100C 1333.45,1100.1 1336.12,1100.93 1338.5,1102.5C 1350.34,1096.08 1362.34,1089.91 1374.5,1084C 1382.23,1080.53 1390.23,1077.87 1398.5,1076C 1461.46,1069.54 1524.46,1063.54 1587.5,1058C 1600.86,1054.94 1614.19,1052.44 1627.5,1050.5 Z M 1630.5,1075.5 C 1649.41,1074.91 1668.08,1076.74 1686.5,1081C 1699.83,1086 1713.17,1091 1726.5,1096C 1749.62,1101.86 1772.62,1108.2 1795.5,1115C 1814.21,1122.52 1831.88,1131.85 1848.5,1143C 1853.3,1146.8 1857.8,1150.97 1862,1155.5C 1874.29,1174.74 1883.29,1195.41 1889,1217.5C 1889.88,1232.54 1891.21,1247.54 1893,1262.5C 1896.33,1273.83 1899.67,1285.17 1903,1296.5C 1903.72,1302.22 1903.38,1307.89 1902,1313.5C 1894.81,1332.21 1886.81,1350.55 1878,1368.5C 1861.77,1397.89 1844.93,1426.89 1827.5,1455.5C 1824.59,1458.58 1821.26,1461.08 1817.5,1463C 1784.73,1476.38 1753.4,1492.38 1723.5,1511C 1704.69,1519.29 1685.02,1524.29 1664.5,1526C 1626.5,1526.67 1588.5,1526.67 1550.5,1526C 1542.81,1525.57 1535.15,1524.9 1527.5,1524C 1499.54,1519.12 1471.54,1514.45 1443.5,1510C 1417.73,1507.84 1392.06,1504.84 1366.5,1501C 1342.05,1494.74 1318.05,1487.07 1294.5,1478C 1273.64,1472.27 1252.97,1465.94 1232.5,1459C 1203.04,1445.22 1177.21,1426.39 1155,1402.5C 1143.96,1389.79 1133.29,1376.79 1123,1363.5C 1118.58,1356.66 1115.25,1349.33 1113,1341.5C 1112.33,1324.5 1112.33,1307.5 1113,1290.5C 1113.41,1287.77 1114.08,1285.1 1115,1282.5C 1115.33,1289.83 1115.67,1297.17 1116,1304.5C 1119.4,1320.62 1129.23,1330.12 1145.5,1333C 1179.6,1338.39 1210.6,1331.06 1238.5,1311C 1252.47,1300.22 1255.3,1287.05 1247,1271.5C 1230.25,1254.21 1209.75,1245.21 1185.5,1244.5C 1185.25,1239.84 1183.25,1236.01 1179.5,1233C 1170.41,1228.41 1160.75,1226.24 1150.5,1226.5C 1158,1212.17 1165.5,1197.83 1173,1183.5C 1188.1,1157.4 1209.26,1137.9 1236.5,1125C 1256.04,1118.87 1275.7,1113.2 1295.5,1108C 1310.7,1107.29 1325.87,1107.79 1341,1109.5C 1353.5,1107.33 1366,1105.17 1378.5,1103C 1428.91,1098.73 1479.24,1093.73 1529.5,1088C 1547.81,1086.33 1566.14,1085 1584.5,1084C 1600.08,1081.71 1615.42,1078.88 1630.5,1075.5 Z M 1148.5,1243.5 C 1153.18,1243.33 1157.85,1243.5 1162.5,1244C 1163.31,1244.31 1163.97,1244.81 1164.5,1245.5C 1159.63,1251.24 1159.3,1257.24 1163.5,1263.5C 1165.67,1264.79 1168,1265.63 1170.5,1266C 1193.49,1265.66 1213.99,1272.5 1232,1286.5C 1232.67,1287.83 1232.67,1289.17 1232,1290.5C 1225.67,1297.48 1218.17,1302.98 1209.5,1307C 1188.34,1317.56 1166.34,1319.9 1143.5,1314C 1138.94,1312.37 1136.1,1309.21 1135,1304.5C 1132.66,1287.89 1133.99,1271.56 1139,1255.5C 1140.99,1250.48 1144.16,1246.48 1148.5,1243.5 Z M 1281.5,1265.5 C 1282.6,1266.85 1283.6,1268.35 1284.5,1270C 1285.5,1270.33 1286.5,1270.67 1287.5,1271C 1298.48,1272.16 1309.48,1273.16 1320.5,1274C 1334.38,1276.03 1346.88,1281.19 1358,1289.5C 1361.59,1295.61 1360.93,1301.28 1356,1306.5C 1347.51,1315.25 1337.17,1320.25 1325,1321.5C 1315.73,1320.15 1306.57,1318.32 1297.5,1316C 1289.09,1313.08 1283.26,1307.58 1280,1299.5C 1279.51,1288.12 1280.01,1276.79 1281.5,1265.5 Z M 1838.5,1302.5 C 1839.5,1302.5 1840.5,1302.5 1841.5,1302.5C 1841.28,1306.98 1839.78,1310.98 1837,1314.5C 1820.25,1332.53 1799.75,1339.36 1775.5,1335C 1773.96,1334.71 1772.62,1334.04 1771.5,1333C 1780.46,1323.19 1791.13,1315.85 1803.5,1311C 1815.21,1307.84 1826.88,1305.01 1838.5,1302.5 Z"/></g>
<g><path style="opacity:0.776" fill="#000000" d="M 1111.5,1099.5 C 1117.67,1098.17 1119.84,1100.51 1118,1106.5C 1115.17,1108.67 1112.67,1111.17 1110.5,1114C 1104.05,1116.73 1097.71,1119.73 1091.5,1123C 1085.67,1122.67 1080.33,1124 1075.5,1127C 1073.87,1127.49 1072.2,1127.66 1070.5,1127.5C 1071.14,1120.7 1074.14,1115.2 1079.5,1111C 1086.15,1109.18 1092.49,1106.51 1098.5,1103C 1101.83,1102.67 1105.17,1102.33 1108.5,1102C 1109.94,1101.62 1110.94,1100.79 1111.5,1099.5 Z"/></g>
<g><path style="opacity:0.784" fill="#000000" d="M 1039.5,1146.5 C 1046.11,1144.75 1048.61,1147.08 1047,1153.5C 1030.93,1165.46 1014.1,1176.29 996.5,1186C 991.314,1187.82 985.981,1188.98 980.5,1189.5C 976.746,1188.15 975.579,1185.48 977,1181.5C 992.356,1173.46 1007.19,1164.63 1021.5,1155C 1025.09,1153.47 1028.76,1152.14 1032.5,1151C 1035.19,1149.95 1037.52,1148.45 1039.5,1146.5 Z"/></g>
<g><path style="opacity:0.896" fill="#000000" d="M 1283.5,1258.5 C 1311.02,1251.46 1337.02,1255.13 1361.5,1269.5C 1361.83,1269.33 1362.17,1269.17 1362.5,1269C 1355.58,1247.99 1363.08,1236.49 1385,1234.5C 1398.04,1236.08 1410.88,1238.58 1423.5,1242C 1429.12,1245.22 1431.45,1249.89 1430.5,1256C 1422.95,1254.7 1415.29,1254.37 1407.5,1255C 1400.88,1255.4 1394.55,1256.9 1388.5,1259.5C 1389,1260.5 1389.5,1261.5 1390,1262.5C 1398.7,1271.53 1407.7,1280.2 1417,1288.5C 1427.83,1298.67 1433.67,1311.17 1434.5,1326C 1434.1,1339.74 1427.1,1348.07 1413.5,1351C 1403.17,1351.67 1392.83,1351.67 1382.5,1351C 1368.24,1347.97 1363.07,1339.47 1367,1325.5C 1370.5,1321.28 1375,1319.28 1380.5,1319.5C 1380.3,1321.58 1380.13,1323.58 1380,1325.5C 1383,1327.08 1386.17,1328.25 1389.5,1329C 1397.81,1330.14 1406.14,1330.47 1414.5,1330C 1416.5,1329.33 1417.83,1328 1418.5,1326C 1417.62,1319.24 1414.62,1313.57 1409.5,1309C 1398.42,1300.71 1387.26,1292.54 1376,1284.5C 1377.47,1294.8 1375.47,1304.47 1370,1313.5C 1352.27,1334.97 1329.44,1343.47 1301.5,1339C 1267.24,1333.07 1252.74,1312.9 1258,1278.5C 1262.44,1248.09 1268.77,1218.09 1277,1188.5C 1282.09,1174.2 1291.93,1169.37 1306.5,1174C 1311.45,1175.63 1315.45,1178.46 1318.5,1182.5C 1318.24,1184.19 1317.57,1185.69 1316.5,1187C 1310.78,1187.28 1305.12,1187.95 1299.5,1189C 1297.96,1190.58 1296.79,1192.41 1296,1194.5C 1290.22,1215.52 1286.05,1236.86 1283.5,1258.5 Z M 1281.5,1265.5 C 1280.01,1276.79 1279.51,1288.12 1280,1299.5C 1283.26,1307.58 1289.09,1313.08 1297.5,1316C 1306.57,1318.32 1315.73,1320.15 1325,1321.5C 1337.17,1320.25 1347.51,1315.25 1356,1306.5C 1360.93,1301.28 1361.59,1295.61 1358,1289.5C 1346.88,1281.19 1334.38,1276.03 1320.5,1274C 1309.48,1273.16 1298.48,1272.16 1287.5,1271C 1286.5,1270.67 1285.5,1270.33 1284.5,1270C 1283.6,1268.35 1282.6,1266.85 1281.5,1265.5 Z"/></g>
<g><path style="opacity:0.883" fill="#000000" d="M 1715.5,1183.5 C 1718.52,1183.34 1721.52,1183.5 1724.5,1184C 1725.85,1184.77 1726.68,1185.94 1727,1187.5C 1728.57,1210.07 1726.9,1232.4 1722,1254.5C 1718.13,1274.86 1714.13,1295.19 1710,1315.5C 1707.5,1333.81 1705.34,1352.14 1703.5,1370.5C 1704.83,1370.5 1706.17,1370.5 1707.5,1370.5C 1707.94,1377.19 1704.94,1379.69 1698.5,1378C 1692.66,1376.48 1689.16,1372.65 1688,1366.5C 1687.06,1360.71 1686.56,1354.87 1686.5,1349C 1687.07,1335.73 1688.57,1322.56 1691,1309.5C 1699.41,1269.03 1706.75,1228.36 1713,1187.5C 1713.66,1186.02 1714.5,1184.68 1715.5,1183.5 Z"/></g>
<g><path style="opacity:0.742" fill="#000000" d="M 963.5,1201.5 C 966.187,1201.34 968.854,1201.5 971.5,1202C 972.769,1204.14 972.769,1206.31 971.5,1208.5C 957.098,1217.7 942.432,1226.36 927.5,1234.5C 926.794,1232.23 926.961,1229.9 928,1227.5C 934.092,1217.46 942.259,1209.63 952.5,1204C 956.28,1203.08 959.946,1202.25 963.5,1201.5 Z"/></g>
<g><path style="opacity:0.884" fill="#000000" d="M 1463.5,1205.5 C 1471.47,1203.49 1475.8,1206.49 1476.5,1214.5C 1471.48,1237.22 1469.15,1260.22 1469.5,1283.5C 1483.63,1282.91 1497.63,1283.91 1511.5,1286.5C 1526.86,1280.81 1542.53,1279.98 1558.5,1284C 1562.98,1285.74 1567.32,1287.74 1571.5,1290C 1574.17,1292.67 1574.17,1295.33 1571.5,1298C 1564.64,1298.74 1557.81,1298.57 1551,1297.5C 1522.03,1296.82 1502.53,1309.99 1492.5,1337C 1497.32,1338.61 1502.32,1338.94 1507.5,1338C 1526.77,1333.53 1544.44,1325.53 1560.5,1314C 1562.84,1310.94 1565.17,1307.94 1567.5,1305C 1573.03,1302.39 1577.53,1303.56 1581,1308.5C 1580.59,1320.52 1579.93,1332.52 1579,1344.5C 1580.5,1346 1582,1347.5 1583.5,1349C 1588.17,1350.33 1592.83,1351.67 1597.5,1353C 1600.82,1354.25 1601.15,1355.92 1598.5,1358C 1587.82,1359.75 1577.49,1358.42 1567.5,1354C 1564.43,1350.7 1562.27,1346.87 1561,1342.5C 1560.52,1336.13 1560.52,1329.8 1561,1323.5C 1548.56,1331.61 1536.39,1340.11 1524.5,1349C 1510.57,1355.33 1496.23,1356.66 1481.5,1353C 1478.27,1351.44 1476.1,1348.94 1475,1345.5C 1473.28,1335.55 1474.95,1326.22 1480,1317.5C 1483.56,1311.55 1487.73,1306.05 1492.5,1301C 1484.84,1300.5 1477.17,1300.33 1469.5,1300.5C 1469.82,1318.46 1468.49,1336.29 1465.5,1354C 1466.08,1358.42 1467.08,1362.76 1468.5,1367C 1467.86,1370.29 1465.86,1371.29 1462.5,1370C 1460.95,1368.79 1459.78,1367.29 1459,1365.5C 1457.51,1360.54 1456.18,1355.54 1455,1350.5C 1452.51,1333.92 1451.01,1317.26 1450.5,1300.5C 1443.39,1297.86 1441.72,1293.2 1445.5,1286.5C 1447,1285.25 1448.67,1284.25 1450.5,1283.5C 1451.06,1266.45 1452.23,1249.45 1454,1232.5C 1455.35,1225.75 1457.02,1219.09 1459,1212.5C 1460.01,1209.8 1461.51,1207.46 1463.5,1205.5 Z"/></g>
<g><path style="opacity:0.784" fill="#000000" d="M 895.5,1273.5 C 898.288,1273.08 900.288,1274.08 901.5,1276.5C 899.524,1284.13 896.691,1291.46 893,1298.5C 887.667,1305.17 882.333,1311.83 877,1318.5C 870.633,1343.93 861.299,1368.26 849,1391.5C 845.57,1394.44 843.237,1398.1 842,1402.5C 837.071,1407.07 834.904,1405.9 835.5,1399C 835.803,1393.41 836.636,1387.91 838,1382.5C 844.533,1369.22 850.867,1355.88 857,1342.5C 858.667,1340.5 860.333,1338.5 862,1336.5C 865.478,1326.73 868.145,1316.73 870,1306.5C 875.96,1298.87 882.293,1291.54 889,1284.5C 891.178,1280.81 893.345,1277.14 895.5,1273.5 Z"/></g>
<g><path style="opacity:0.914" fill="#000000" d="M 1817.5,1278.5 C 1829.57,1278.52 1840.91,1281.35 1851.5,1287C 1857.44,1291.81 1859.6,1297.98 1858,1305.5C 1855.96,1316.75 1850.46,1325.91 1841.5,1333C 1826.77,1346.19 1809.43,1352.35 1789.5,1351.5C 1780.97,1351.74 1772.64,1350.9 1764.5,1349C 1763.74,1351.07 1763.24,1353.24 1763,1355.5C 1762.33,1366.5 1762.33,1377.5 1763,1388.5C 1765.68,1398.51 1770.85,1407.01 1778.5,1414C 1788.98,1419.66 1799.98,1423.83 1811.5,1426.5C 1816.48,1424.5 1821.48,1422.83 1826.5,1421.5C 1826.31,1424.6 1825.64,1427.6 1824.5,1430.5C 1821.31,1433.52 1817.98,1436.35 1814.5,1439C 1808.74,1440.71 1803.07,1442.71 1797.5,1445C 1789.42,1445.9 1781.42,1445.57 1773.5,1444C 1751.23,1432.99 1738.06,1415.15 1734,1390.5C 1725.63,1334.7 1748.13,1298.2 1801.5,1281C 1806.97,1280.13 1812.31,1279.3 1817.5,1278.5 Z M 1838.5,1302.5 C 1826.88,1305.01 1815.21,1307.84 1803.5,1311C 1791.13,1315.85 1780.46,1323.19 1771.5,1333C 1772.62,1334.04 1773.96,1334.71 1775.5,1335C 1799.75,1339.36 1820.25,1332.53 1837,1314.5C 1839.78,1310.98 1841.28,1306.98 1841.5,1302.5C 1840.5,1302.5 1839.5,1302.5 1838.5,1302.5 Z"/></g>
<g><path style="opacity:0.866" fill="#000000" d="M 1652.5,1290.5 C 1679.86,1288.68 1690.36,1301.01 1684,1327.5C 1682,1328.83 1680,1328.83 1678,1327.5C 1679.8,1305.99 1671.3,1300.49 1652.5,1311C 1643.78,1318.51 1639.28,1328.01 1639,1339.5C 1642,1341.04 1645.17,1342.21 1648.5,1343C 1655.22,1343.84 1661.89,1345.01 1668.5,1346.5C 1674.19,1345.16 1679.85,1343.83 1685.5,1342.5C 1685.82,1346.69 1684.15,1349.86 1680.5,1352C 1672.81,1353.84 1665.15,1355.84 1657.5,1358C 1646.9,1360.65 1636.57,1359.98 1626.5,1356C 1623.24,1353.41 1620.74,1350.24 1619,1346.5C 1615.37,1327.39 1621.2,1311.89 1636.5,1300C 1641.43,1296.04 1646.77,1292.87 1652.5,1290.5 Z"/></g>
<g><path style="opacity:0.747" fill="#000000" d="M 831.5,1438.5 C 834.86,1437.79 836.693,1439.12 837,1442.5C 837.486,1453.84 837.986,1465.17 838.5,1476.5C 832.406,1475.56 829.239,1471.9 829,1465.5C 828.999,1457.51 829.332,1449.51 830,1441.5C 830.513,1440.47 831.013,1439.47 831.5,1438.5 Z"/></g>
<g><path style="opacity:0.787" fill="#000000" d="M 851.5,1486.5 C 853.527,1486.34 855.527,1486.5 857.5,1487C 861.906,1505.79 866.406,1524.63 871,1543.5C 875.612,1553.11 882.612,1560.45 892,1565.5C 892.495,1567.47 892.662,1569.47 892.5,1571.5C 889.813,1571.66 887.146,1571.5 884.5,1571C 878.918,1567.96 873.418,1564.79 868,1561.5C 860.321,1550.8 855.988,1538.8 855,1525.5C 853.109,1512.55 851.942,1499.55 851.5,1486.5 Z"/></g>
<g><path style="opacity:0.736" fill="#000000" d="M 908.5,1585.5 C 913.227,1585.05 917.06,1586.71 920,1590.5C 924.842,1598.18 929.175,1606.18 933,1614.5C 937.661,1618.15 941.161,1622.65 943.5,1628C 943.355,1628.77 943.022,1629.44 942.5,1630C 939.217,1630.74 936.217,1630.08 933.5,1628C 928.667,1621.83 923.167,1616.33 917,1611.5C 912.059,1605.12 908.893,1597.95 907.5,1590C 907.605,1588.41 907.939,1586.91 908.5,1585.5 Z"/></g>
<g><path style="opacity:0.658" fill="#000000" d="M 994.5,1652.5 C 1000.59,1651.1 1004.09,1653.43 1005,1659.5C 1006.71,1661.18 1008.38,1662.84 1010,1664.5C 1010.5,1666.47 1010.66,1668.47 1010.5,1670.5C 1006.01,1671.01 1002.18,1669.67 999,1666.5C 997.315,1662.77 995.482,1659.1 993.5,1655.5C 993.685,1654.42 994.018,1653.42 994.5,1652.5 Z"/></g>
<g><path style="opacity:0.622" fill="#000000" d="M 1070.5,1713.5 C 1072.2,1713.34 1073.87,1713.51 1075.5,1714C 1079.34,1717.35 1083.01,1720.85 1086.5,1724.5C 1087.37,1726.75 1087.71,1729.08 1087.5,1731.5C 1083.94,1731.85 1080.6,1731.18 1077.5,1729.5C 1074.41,1725.9 1071.91,1721.9 1070,1717.5C 1069.42,1716.07 1069.59,1714.74 1070.5,1713.5 Z"/></g>
<g><path style="opacity:0.777" fill="#000000" d="M 1103.5,1751.5 C 1105.5,1751.5 1107.5,1751.5 1109.5,1751.5C 1110.61,1764.13 1110.77,1776.8 1110,1789.5C 1108.46,1792.29 1106.29,1792.96 1103.5,1791.5C 1101.54,1778.91 1101.04,1766.24 1102,1753.5C 1102.72,1752.96 1103.22,1752.29 1103.5,1751.5 Z"/></g>
<g><path style="opacity:0.728" fill="#000000" d="M 1117.5,1808.5 C 1119.5,1808.5 1121.5,1808.5 1123.5,1808.5C 1124.7,1820.16 1124.53,1831.83 1123,1843.5C 1119.64,1861.37 1117.3,1879.37 1116,1897.5C 1114.33,1899.7 1112.33,1900.03 1110,1898.5C 1109.39,1895.18 1108.89,1891.85 1108.5,1888.5C 1112.19,1861.73 1115.19,1835.06 1117.5,1808.5 Z"/></g>
<g><path style="opacity:0.748" fill="#000000" d="M 1120.5,1909.5 C 1122.5,1909.5 1124.5,1909.5 1126.5,1909.5C 1128,1923.86 1127.83,1938.2 1126,1952.5C 1123.48,1955.33 1121.48,1954.99 1120,1951.5C 1119.19,1937.43 1119.35,1923.43 1120.5,1909.5 Z"/></g>
<g><path style="opacity:0.776" fill="#000000" d="M 1124.5,1982.5 C 1126.91,1982.14 1128.41,1983.14 1129,1985.5C 1129.81,2001.03 1129.64,2016.53 1128.5,2032C 1128.63,2033.06 1129.13,2033.89 1130,2034.5C 1130.8,2041.65 1131.3,2048.81 1131.5,2056C 1131.1,2070.15 1130.93,2084.32 1131,2098.5C 1128.33,2101.17 1125.67,2101.17 1123,2098.5C 1122.33,2060.5 1122.33,2022.5 1123,1984.5C 1123.72,1983.96 1124.22,1983.29 1124.5,1982.5 Z"/></g>
<g><path style="opacity:0.799" fill="#000000" d="M 1129.5,2147.5 C 1132.55,2146.86 1134.71,2147.86 1136,2150.5C 1138.05,2166.21 1137.72,2181.88 1135,2197.5C 1133.58,2200.62 1131.91,2200.96 1130,2198.5C 1128.96,2186.6 1127.46,2174.77 1125.5,2163C 1126.07,2158.84 1126.57,2154.68 1127,2150.5C 1128.04,2149.63 1128.88,2148.63 1129.5,2147.5 Z"/></g>
<g><path style="opacity:0.9" fill="#000000" d="M 1195.5,2179.5 C 1212.61,2179.71 1229.61,2181.21 1246.5,2184C 1272.5,2184.33 1298.5,2184.67 1324.5,2185C 1331.4,2185.78 1338.07,2187.45 1344.5,2190C 1366.87,2205.52 1390.2,2219.52 1414.5,2232C 1430.19,2243.85 1446.86,2254.18 1464.5,2263C 1473.79,2269.57 1482.62,2276.73 1491,2284.5C 1507.45,2306.1 1511.12,2329.76 1502,2355.5C 1495.5,2367.83 1488.5,2379.83 1481,2391.5C 1475.45,2401.93 1470.45,2412.59 1466,2423.5C 1457.65,2434.7 1448.48,2445.2 1438.5,2455C 1411.59,2472.23 1383.92,2488.23 1355.5,2503C 1323.94,2517.61 1291.61,2530.28 1258.5,2541C 1251.65,2543.13 1244.65,2544.46 1237.5,2545C 1216.15,2545.78 1194.82,2545.44 1173.5,2544C 1127.49,2538.29 1081.49,2533.63 1035.5,2530C 1000.58,2524.62 965.915,2517.95 931.5,2510C 913.547,2505.69 897.547,2497.69 883.5,2486C 869.549,2473.39 857.049,2459.55 846,2444.5C 839.553,2433.71 836.72,2422.05 837.5,2409.5C 837.179,2398.25 838.679,2387.25 842,2376.5C 853.82,2345.71 871.987,2319.21 896.5,2297C 931.502,2266.99 971.168,2244.99 1015.5,2231C 1064.68,2215.21 1115.02,2208.21 1166.5,2210C 1170.29,2210.91 1171.62,2213.08 1170.5,2216.5C 1161.81,2217.16 1153.14,2217.99 1144.5,2219C 1112.91,2228.32 1080.91,2235.98 1048.5,2242C 989.53,2257.89 938.363,2287.06 895,2329.5C 884.098,2342.41 874.764,2356.41 867,2371.5C 859.191,2387.39 856.524,2404.06 859,2421.5C 859.739,2425.39 861.073,2429.05 863,2432.5C 878.366,2455.27 898.2,2473.11 922.5,2486C 929.772,2488.54 937.105,2490.87 944.5,2493C 973.165,2498.33 1001.83,2503.67 1030.5,2509C 1080.4,2515.82 1130.4,2521.82 1180.5,2527C 1199.17,2527.67 1217.83,2527.67 1236.5,2527C 1286.98,2513.39 1334.98,2493.73 1380.5,2468C 1397.43,2458.06 1414.1,2447.73 1430.5,2437C 1436.79,2429.59 1442.95,2422.09 1449,2414.5C 1456.71,2395.4 1466.71,2377.74 1479,2361.5C 1495.32,2335.36 1492.49,2311.52 1470.5,2290C 1449.33,2277.25 1428.33,2264.25 1407.5,2251C 1381.85,2238.18 1357.18,2223.85 1333.5,2208C 1327.01,2205.93 1320.34,2204.76 1313.5,2204.5C 1261.17,2207.84 1209.5,2203.17 1158.5,2190.5C 1158.5,2188.83 1158.5,2187.17 1158.5,2185.5C 1170.88,2182.98 1183.21,2180.98 1195.5,2179.5 Z M 1170.5,2346.5 C 1180.33,2348.17 1188.49,2352.83 1195,2360.5C 1198.03,2368.62 1196.19,2375.45 1189.5,2381C 1180.33,2388.06 1170,2390.4 1158.5,2388C 1147.08,2385.67 1142.91,2378.84 1146,2367.5C 1147.88,2360.72 1151.88,2355.72 1158,2352.5C 1160.11,2353.61 1161.95,2355.11 1163.5,2357C 1165.13,2357.49 1166.8,2357.66 1168.5,2357.5C 1168.71,2355.08 1168.37,2352.75 1167.5,2350.5C 1168.52,2349.15 1169.52,2347.81 1170.5,2346.5 Z M 1340.5,2360.5 C 1341.69,2360.97 1342.36,2361.97 1342.5,2363.5C 1343.54,2370.33 1345.21,2377 1347.5,2383.5C 1346.83,2383.83 1346.17,2384.17 1345.5,2384.5C 1339.91,2383.14 1334.25,2382.31 1328.5,2382C 1324.5,2381.5 1320.84,2380.16 1317.5,2378C 1324.88,2371.66 1332.54,2365.83 1340.5,2360.5 Z"/></g>
<g><path style="opacity:0.892" fill="#000000" d="M 1369.5,2245.5 C 1379.53,2244.61 1387.7,2247.94 1394,2255.5C 1394.5,2257.81 1394.66,2260.14 1394.5,2262.5C 1388.07,2261.7 1382.07,2262.86 1376.5,2266C 1371.3,2273.26 1368.47,2281.42 1368,2290.5C 1367.63,2308.86 1368.13,2327.2 1369.5,2345.5C 1373.69,2345.39 1377.69,2346.23 1381.5,2348C 1384.45,2350.08 1385.12,2352.75 1383.5,2356C 1379.16,2356.26 1374.83,2356.1 1370.5,2355.5C 1372.06,2365.08 1374.56,2374.41 1378,2383.5C 1381.06,2380.94 1384.39,2379.94 1388,2380.5C 1388.67,2382.83 1388.67,2385.17 1388,2387.5C 1385.46,2389 1383.29,2390.84 1381.5,2393C 1384.5,2402.83 1389.67,2411.33 1397,2418.5C 1404.49,2425.89 1404.32,2433.06 1396.5,2440C 1385.18,2444.45 1376.02,2441.62 1369,2431.5C 1363.64,2422.78 1358.81,2413.78 1354.5,2404.5C 1341.16,2410.15 1327.49,2410.98 1313.5,2407C 1303.69,2404.53 1296.19,2399.03 1291,2390.5C 1272.59,2419.52 1248.09,2426.02 1217.5,2410C 1208.4,2401.88 1204.74,2391.71 1206.5,2379.5C 1204.86,2364.28 1210.19,2352.12 1222.5,2343C 1233.3,2334.87 1245.3,2332.53 1258.5,2336C 1260.7,2337.67 1261.03,2339.67 1259.5,2342C 1240.48,2341.59 1227.98,2350.43 1222,2368.5C 1215.96,2393.4 1225.8,2405.4 1251.5,2404.5C 1262.7,2403.82 1272.2,2399.48 1280,2391.5C 1283.84,2386.81 1285.5,2381.48 1285,2375.5C 1283.54,2373.04 1281.71,2370.87 1279.5,2369C 1267.45,2362.96 1254.79,2360.96 1241.5,2363C 1238.96,2357.44 1240.62,2354.28 1246.5,2353.5C 1259.96,2352.82 1272.63,2355.66 1284.5,2362C 1286.96,2363.46 1289.13,2365.29 1291,2367.5C 1294.79,2359.01 1300.96,2352.84 1309.5,2349C 1319.15,2344.6 1329.15,2342.93 1339.5,2344C 1340.55,2325.89 1341.71,2307.72 1343,2289.5C 1343.09,2269.22 1351.92,2254.55 1369.5,2245.5 Z M 1340.5,2360.5 C 1332.54,2365.83 1324.88,2371.66 1317.5,2378C 1320.84,2380.16 1324.5,2381.5 1328.5,2382C 1334.25,2382.31 1339.91,2383.14 1345.5,2384.5C 1346.17,2384.17 1346.83,2383.83 1347.5,2383.5C 1345.21,2377 1343.54,2370.33 1342.5,2363.5C 1342.36,2361.97 1341.69,2360.97 1340.5,2360.5 Z"/></g>
<g><path style="opacity:0.878" fill="#000000" d="M 1100.5,2282.5 C 1113.53,2281.62 1125.87,2284.12 1137.5,2290C 1140.75,2292.34 1142.59,2295.51 1143,2299.5C 1144.5,2305.5 1144.67,2311.5 1143.5,2317.5C 1141.3,2318.61 1139.3,2318.44 1137.5,2317C 1137.07,2310.08 1133.73,2305.25 1127.5,2302.5C 1112.62,2306.72 1097.95,2311.55 1083.5,2317C 1081.62,2318.1 1079.95,2319.44 1078.5,2321C 1077.11,2327.5 1075.78,2334 1074.5,2340.5C 1075.24,2341.29 1076.08,2341.95 1077,2342.5C 1078.74,2341.87 1080.57,2341.54 1082.5,2341.5C 1088.52,2342.09 1094.52,2342.76 1100.5,2343.5C 1100.5,2345.17 1100.5,2346.83 1100.5,2348.5C 1091.3,2350.17 1082.14,2350.84 1073,2350.5C 1070.62,2364.45 1071.12,2378.28 1074.5,2392C 1075.08,2395.25 1073.75,2396.75 1070.5,2396.5C 1066.05,2393.85 1063.22,2389.85 1062,2384.5C 1058.68,2373.06 1056.84,2361.39 1056.5,2349.5C 1053.43,2350.08 1051.43,2348.91 1050.5,2346C 1051.83,2344 1053.17,2342 1054.5,2340C 1051.64,2328.91 1051.14,2317.74 1053,2306.5C 1055.83,2301 1060,2296.83 1065.5,2294C 1076.85,2288.83 1088.52,2284.99 1100.5,2282.5 Z"/></g>
<g><path style="opacity:0.813" fill="#000000" d="M 1169.5,2337.5 C 1184.53,2336.77 1196.03,2342.77 1204,2355.5C 1206.43,2364.55 1205.43,2373.22 1201,2381.5C 1183.81,2401.94 1163.31,2406.11 1139.5,2394C 1134.21,2387.88 1131.87,2380.72 1132.5,2372.5C 1132.56,2358.92 1138.89,2349.42 1151.5,2344C 1155.19,2343.55 1158.85,2343.72 1162.5,2344.5C 1162.35,2343.45 1162.52,2342.45 1163,2341.5C 1165.01,2339.75 1167.18,2338.42 1169.5,2337.5 Z M 1170.5,2346.5 C 1169.52,2347.81 1168.52,2349.15 1167.5,2350.5C 1168.37,2352.75 1168.71,2355.08 1168.5,2357.5C 1166.8,2357.66 1165.13,2357.49 1163.5,2357C 1161.95,2355.11 1160.11,2353.61 1158,2352.5C 1151.88,2355.72 1147.88,2360.72 1146,2367.5C 1142.91,2378.84 1147.08,2385.67 1158.5,2388C 1170,2390.4 1180.33,2388.06 1189.5,2381C 1196.19,2375.45 1198.03,2368.62 1195,2360.5C 1188.49,2352.83 1180.33,2348.17 1170.5,2346.5 Z"/></g>
</svg>
