<?xml version="1.0" encoding="UTF-8"?>
<!DOCTYPE svg PUBLIC "-//W3C//DTD SVG 1.1//EN" "http://www.w3.org/Graphics/SVG/1.1/DTD/svg11.dtd">
<svg xmlns="http://www.w3.org/2000/svg" version="1.1" width="2550px" height="2550px" style="shape-rendering:geometricPrecision; text-rendering:geometricPrecision; image-rendering:optimizeQuality; fill-rule:evenodd; clip-rule:evenodd" xmlns:xlink="http://www.w3.org/1999/xlink">
<g><path style="opacity:0.751" fill="#000000" d="M 1012.5,468.5 C 1049.36,467.544 1085.7,471.377 1121.5,480C 1141.14,484.732 1157.97,494.232 1172,508.5C 1182.78,533.501 1176.94,553.668 1154.5,569C 1133.76,582.706 1111.09,591.373 1086.5,595C 1074.5,595.667 1062.5,595.667 1050.5,595C 1012.85,591.185 997.349,570.685 1004,533.5C 1009.46,511.387 1022.29,495.22 1042.5,485C 1049.17,484.333 1055.83,484.333 1062.5,485C 1066.64,485.162 1070.48,486.329 1074,488.5C 1078.88,487.105 1083.72,487.272 1088.5,489C 1090.26,490.008 1091.43,491.508 1092,493.5C 1094.6,506.528 1091.1,517.528 1081.5,526.5C 1078.65,529.188 1075.65,531.688 1072.5,534C 1081.17,534.333 1089.83,534.667 1098.5,535C 1109.9,537.858 1110.23,541.191 1099.5,545C 1081.83,545.667 1064.17,545.667 1046.5,545C 1042.34,541.171 1042.67,537.837 1047.5,535C 1053.09,535.095 1058.42,534.095 1063.5,532C 1068.63,528.207 1073.46,524.041 1078,519.5C 1084.06,512.564 1086.23,504.564 1084.5,495.5C 1082.17,495.5 1079.83,495.5 1077.5,495.5C 1076.22,500.668 1074.38,500.668 1072,495.5C 1061.87,496.899 1053.2,501.233 1046,508.5C 1044.38,511.987 1043.54,515.654 1043.5,519.5C 1044.5,519.5 1045.5,519.5 1046.5,519.5C 1046.5,520.833 1046.5,522.167 1046.5,523.5C 1043.45,523.658 1040.62,522.991 1038,521.5C 1036.61,508.134 1042.11,498.634 1054.5,493C 1055.45,492.282 1055.62,491.449 1055,490.5C 1050.48,491.006 1046.31,492.506 1042.5,495C 1032.85,503.986 1024.68,514.153 1018,525.5C 1014.31,538.022 1013.64,550.689 1016,563.5C 1023.25,575.72 1034.09,582.22 1048.5,583C 1086.98,588.057 1121.98,579.39 1153.5,557C 1166.63,545.959 1170.13,532.459 1164,516.5C 1150.95,503.72 1135.45,495.22 1117.5,491C 1081.33,482.379 1044.67,479.045 1007.5,481C 1008.3,486.713 1007.14,486.879 1004,481.5C 1000.84,473.148 1003.67,468.815 1012.5,468.5 Z"/></g>
<g><path style="opacity:0.708" fill="#000000" d="M 1198.5,550.5 C 1208.95,549.989 1219.29,550.823 1229.5,553C 1241.5,556.333 1253.5,559.667 1265.5,563C 1267.29,563.785 1268.79,564.951 1270,566.5C 1284.16,566.022 1298.33,566.856 1312.5,569C 1323.33,571.046 1330.33,577.213 1333.5,587.5C 1329.59,586.39 1325.59,585.557 1321.5,585C 1317.27,583.05 1312.93,581.383 1308.5,580C 1296.84,578.959 1285.17,577.959 1273.5,577C 1271,575.833 1268.5,574.667 1266,573.5C 1265.44,574.022 1264.77,574.355 1264,574.5C 1249.89,570.518 1235.73,566.852 1221.5,563.5C 1221.34,565.857 1221.5,568.19 1222,570.5C 1224.14,571.728 1225.81,573.395 1227,575.5C 1228.17,580.494 1229.33,585.494 1230.5,590.5C 1232.14,592.806 1234.14,594.806 1236.5,596.5C 1237.39,597.325 1237.72,598.325 1237.5,599.5C 1233.97,599.654 1231.14,598.321 1229,595.5C 1227.16,590.309 1225.83,584.976 1225,579.5C 1224.03,576.035 1221.87,573.702 1218.5,572.5C 1217.94,570.146 1217.27,567.813 1216.5,565.5C 1211.2,562.673 1205.54,561.173 1199.5,561C 1193.28,558.048 1192.95,554.548 1198.5,550.5 Z"/></g>
<g><path style="opacity:0.723" fill="#000000" d="M 1336.5,590.5 C 1349.67,590.376 1362,593.542 1373.5,600C 1377.02,603.349 1380.35,606.849 1383.5,610.5C 1384.45,612.045 1384.79,613.712 1384.5,615.5C 1373.66,612.386 1363,608.553 1352.5,604C 1346.48,603.06 1340.48,602.06 1334.5,601C 1332.39,600.128 1331.05,598.628 1330.5,596.5C 1331.88,593.784 1333.88,591.784 1336.5,590.5 Z"/></g>
<g><path style="opacity:0.732" fill="#000000" d="M 1395.5,617.5 C 1406.05,622.877 1416.72,628.377 1427.5,634C 1430.77,637.329 1432.1,641.163 1431.5,645.5C 1419.23,642.227 1407.23,637.393 1395.5,631C 1390.18,626.328 1390.18,621.828 1395.5,617.5 Z"/></g>
<g><path style="opacity:0.731" fill="#000000" d="M 1008.5,625.5 C 1014.76,626.36 1016.6,629.694 1014,635.5C 1003.69,646.104 995.361,658.104 989,671.5C 985.446,675.054 981.946,678.554 978.5,682C 977.207,682.49 975.873,682.657 974.5,682.5C 979.94,659.948 991.273,640.948 1008.5,625.5 Z"/></g>
<g><path style="opacity:0.719" fill="#000000" d="M 1100.5,633.5 C 1103.5,633.253 1106,634.253 1108,636.5C 1113.65,650.066 1116.15,664.233 1115.5,679C 1113.8,690.605 1112.47,702.105 1111.5,713.5C 1109.88,713.64 1108.71,712.973 1108,711.5C 1105.12,692.928 1103.12,674.262 1102,655.5C 1101.04,649.837 1099.54,644.337 1097.5,639C 1097.61,636.601 1098.61,634.768 1100.5,633.5 Z"/></g>
<g><path style="opacity:0.665" fill="#000000" d="M 1466.5,645.5 C 1476.2,646.839 1483.2,651.839 1487.5,660.5C 1486.84,662.453 1486.51,664.453 1486.5,666.5C 1488.83,666.665 1490.99,667.331 1493,668.5C 1500.13,667.304 1507.3,667.47 1514.5,669C 1521.94,672.142 1524.44,677.642 1522,685.5C 1521.44,686.022 1520.77,686.355 1520,686.5C 1517.36,683.906 1514.53,681.406 1511.5,679C 1503.14,677.107 1494.81,675.107 1486.5,673C 1473.84,666.086 1461,659.586 1448,653.5C 1447.22,652.056 1447.39,650.723 1448.5,649.5C 1454.56,647.882 1460.56,646.549 1466.5,645.5 Z M 1471.5,659.5 C 1469.19,658.68 1466.85,657.847 1464.5,657C 1467.48,656.162 1469.81,656.995 1471.5,659.5 Z"/></g>
<g><path style="opacity:0.647" fill="#000000" d="M 1547.5,688.5 C 1556.13,688.048 1564.79,688.548 1573.5,690C 1576.33,693.338 1577,697.005 1575.5,701C 1572.21,698.957 1568.55,697.457 1564.5,696.5C 1556.48,695.916 1548.48,695.249 1540.5,694.5C 1540.5,693.167 1540.5,691.833 1540.5,690.5C 1543.07,690.279 1545.4,689.612 1547.5,688.5 Z"/></g>
<g><path style="opacity:0.722" fill="#000000" d="M 1632.5,689.5 C 1660.88,686.877 1687.55,692.377 1712.5,706C 1736.87,720.387 1745.7,741.554 1739,769.5C 1734.28,788.558 1722.44,800.724 1703.5,806C 1683.12,808.209 1662.78,807.876 1642.5,805C 1628.09,802.251 1618.26,794.084 1613,780.5C 1611,767.5 1611,754.5 1613,741.5C 1616.05,732.46 1621.38,725.127 1629,719.5C 1628.92,712.941 1628.09,706.441 1626.5,700C 1626.37,695.172 1628.37,691.672 1632.5,689.5 Z M 1637.5,701.5 C 1654.53,700.246 1671.19,702.08 1687.5,707C 1669.31,704.606 1651.97,707.439 1635.5,715.5C 1635.17,715 1634.83,714.5 1634.5,714C 1635.44,709.802 1636.44,705.636 1637.5,701.5 Z M 1693.5,711.5 C 1705.03,713.517 1714.86,718.851 1723,727.5C 1727.49,732.632 1729.82,738.632 1730,745.5C 1733.81,764.846 1727.98,780.346 1712.5,792C 1708.19,794.66 1703.52,796.327 1698.5,797C 1683.83,797.667 1669.17,797.667 1654.5,797C 1642.74,796.532 1632.9,792.032 1625,783.5C 1612.84,749.899 1623.34,727.066 1656.5,715C 1668.92,713.291 1681.26,712.124 1693.5,711.5 Z"/></g>
<g><path style="opacity:0.711" fill="#000000" d="M 964.5,691.5 C 970.437,692.232 972.27,695.232 970,700.5C 963.667,706.167 957.333,711.833 951,717.5C 951.922,724.356 949.922,730.356 945,735.5C 939.651,740.57 934.484,745.736 929.5,751C 923.808,751.843 921.641,749.343 923,743.5C 928.667,737.5 934.333,731.5 940,725.5C 941.586,719.794 943.252,714.127 945,708.5C 950.829,701.822 957.329,696.156 964.5,691.5 Z"/></g>
<g><path style="opacity:0.678" fill="#000000" d="M 1606.5,702.5 C 1612.96,703.22 1618.96,705.386 1624.5,709C 1627.83,711.679 1628.33,714.845 1626,718.5C 1623.6,719.602 1621.1,719.769 1618.5,719C 1614.17,716.5 1609.83,714 1605.5,711.5C 1601.46,707.983 1601.8,704.983 1606.5,702.5 Z"/></g>
<g><path style="opacity:0.724" fill="#000000" d="M 1646.5,721.5 C 1665.86,721.174 1685.19,721.674 1704.5,723C 1710.69,726.676 1712.03,731.676 1708.5,738C 1700.38,742.317 1692.04,746.151 1683.5,749.5C 1690.21,750.895 1696.04,753.895 1701,758.5C 1704.86,765.527 1703.69,771.694 1697.5,777C 1679.51,787.669 1660.18,791.002 1639.5,787C 1631.45,782.736 1631.78,779.069 1640.5,776C 1652.14,776.498 1663.81,776.498 1675.5,776C 1682.98,774.769 1688.98,771.269 1693.5,765.5C 1692.69,764.186 1691.69,763.019 1690.5,762C 1680.44,758.489 1670.1,756.156 1659.5,755C 1656.73,752.034 1657.07,749.367 1660.5,747C 1675.01,743.108 1689.01,737.942 1702.5,731.5C 1702.29,730.914 1701.96,730.414 1701.5,730C 1682.5,729.667 1663.5,729.333 1644.5,729C 1643.06,725.939 1643.72,723.439 1646.5,721.5 Z"/></g>
<g><path style="opacity:0.736" fill="#000000" d="M 1124.5,732.5 C 1126.2,732.34 1127.87,732.506 1129.5,733C 1131.04,734.878 1132.88,736.378 1135,737.5C 1141.94,750.095 1149.27,762.428 1157,774.5C 1159.41,788.963 1158.75,803.297 1155,817.5C 1152.91,818.791 1151.58,818.124 1151,815.5C 1150.65,812.424 1149.99,809.424 1149,806.5C 1148.1,796.8 1147.1,787.134 1146,777.5C 1138.83,766.496 1132.16,755.162 1126,743.5C 1124.76,739.94 1124.26,736.273 1124.5,732.5 Z"/></g>
<g><path style="opacity:0.722" fill="#000000" d="M 889.5,787.5 C 894.005,787.271 898.339,787.937 902.5,789.5C 900.401,793.304 897.567,796.638 894,799.5C 891.047,806.784 886.881,813.284 881.5,819C 868.336,826.499 856.003,835.166 844.5,845C 843.207,845.49 841.873,845.657 840.5,845.5C 839.896,840.806 840.729,836.472 843,832.5C 849.227,826.972 855.727,821.806 862.5,817C 866.002,816.718 869.335,816.551 872.5,816.5C 877.027,806.018 882.694,796.351 889.5,787.5 Z"/></g>
<g><path style="opacity:0.754" fill="#000000" d="M 1746.5,818.5 C 1749.55,818.342 1752.38,819.009 1755,820.5C 1759.13,832.554 1763.46,844.554 1768,856.5C 1770.94,858.375 1774.11,859.875 1777.5,861C 1779.92,862.509 1780.92,864.675 1780.5,867.5C 1771.66,872.394 1764.16,870.728 1758,862.5C 1753.1,849.795 1748.6,836.962 1744.5,824C 1745.08,822.1 1745.74,820.267 1746.5,818.5 Z"/></g>
<g><path style="opacity:0.677" fill="#000000" d="M 1172.5,835.5 C 1174.83,835.247 1176.83,835.914 1178.5,837.5C 1180.14,839.925 1181.31,842.592 1182,845.5C 1184.25,860.636 1183.58,875.636 1180,890.5C 1174.96,900.917 1169.62,911.25 1164,921.5C 1163.1,925.768 1161.6,929.768 1159.5,933.5C 1157.6,931.133 1157.1,928.466 1158,925.5C 1160.69,915.749 1164.36,906.415 1169,897.5C 1171.47,881.597 1172.13,865.597 1171,849.5C 1170.45,846.737 1169.62,844.07 1168.5,841.5C 1169.05,839.865 1169.38,838.199 1169.5,836.5C 1170.79,836.737 1171.79,836.404 1172.5,835.5 Z"/></g>
<g><path style="opacity:0.746" fill="#000000" d="M 1638.5,846.5 C 1644.76,847.36 1646.6,850.694 1644,856.5C 1632.03,866.798 1620.37,877.465 1609,888.5C 1606.28,893.341 1603.94,898.341 1602,903.5C 1600.95,904.517 1599.78,904.684 1598.5,904C 1593.13,896.824 1593.3,889.657 1599,882.5C 1601.8,878.701 1604.96,875.201 1608.5,872C 1619.02,863.973 1629.02,855.473 1638.5,846.5 Z"/></g>
<g><path style="opacity:0.681" fill="#000000" d="M 794.5,871.5 C 800.311,871.795 802.311,874.628 800.5,880C 794.086,887.048 786.419,892.381 777.5,896C 773.5,901 769.5,906 765.5,911C 766.448,911.483 767.448,911.649 768.5,911.5C 767.703,919.914 763.37,925.748 755.5,929C 752.172,931.486 749.839,934.652 748.5,938.5C 743.143,940.656 740.143,938.822 739.5,933C 740.508,927.975 743.175,923.975 747.5,921C 751,918.833 754.5,916.667 758,914.5C 764.698,903.09 772.365,892.423 781,882.5C 785.399,878.591 789.899,874.924 794.5,871.5 Z"/></g>
<g><path style="opacity:0.75" fill="#000000" d="M 1800.5,913.5 C 1802.99,913.298 1805.32,913.798 1807.5,915C 1818.59,923.421 1829.09,932.588 1839,942.5C 1841.39,946.613 1843.22,950.946 1844.5,955.5C 1842.74,958.519 1841.4,961.686 1840.5,965C 1839.83,965.667 1839.17,965.667 1838.5,965C 1837.59,962.667 1836.09,960.834 1834,959.5C 1833.1,955.462 1831.43,951.795 1829,948.5C 1819.62,940.123 1809.96,932.123 1800,924.5C 1797.87,920.647 1798.03,916.98 1800.5,913.5 Z"/></g>
<g><path style="opacity:0.615" fill="#000000" d="M 1162.5,932.5 C 1164.47,932.261 1166.3,932.594 1168,933.5C 1174.97,942.786 1176.47,952.786 1172.5,963.5C 1173.23,965.976 1173.9,968.476 1174.5,971C 1174.39,972.28 1173.72,973.113 1172.5,973.5C 1169.49,968.813 1166.99,963.813 1165,958.5C 1163.57,949.888 1162.74,941.221 1162.5,932.5 Z"/></g>
<g><path style="opacity:0.742" fill="#000000" d="M 1574.5,940.5 C 1578.92,940.417 1581.25,942.584 1581.5,947C 1579.14,955.879 1575.31,964.046 1570,971.5C 1564.89,977.284 1560.55,983.618 1557,990.5C 1549.63,996.206 1543.29,1002.87 1538,1010.5C 1530.79,1015.11 1524.12,1020.45 1518,1026.5C 1515.93,1025.37 1515.27,1023.71 1516,1021.5C 1521.56,1015.39 1526.89,1009.06 1532,1002.5C 1535.06,997.058 1537.56,991.392 1539.5,985.5C 1540.56,984.304 1541.89,983.637 1543.5,983.5C 1545.1,984.43 1546.6,984.43 1548,983.5C 1553.58,974.249 1559.58,965.249 1566,956.5C 1567.67,952.167 1569.33,947.833 1571,943.5C 1572.15,942.364 1573.31,941.364 1574.5,940.5 Z"/></g>
<g><path style="opacity:0.67" fill="#000000" d="M 727.5,954.5 C 728.5,954.5 729.5,954.5 730.5,954.5C 730.799,956.604 730.466,958.604 729.5,960.5C 723.482,965.842 716.815,970.175 709.5,973.5C 709.345,978.494 707.178,982.161 703,984.5C 700.249,984.054 698.582,982.387 698,979.5C 697.035,975.218 697.702,971.218 700,967.5C 707.029,962.902 714.529,959.236 722.5,956.5C 725.106,958.233 726.773,957.566 727.5,954.5 Z"/></g>
<g><path style="opacity:0.719" fill="#000000" d="M 1853.5,974.5 C 1857.51,974.502 1861.18,975.668 1864.5,978C 1881.19,992.909 1885.52,1010.74 1877.5,1031.5C 1876.18,1031.67 1875.01,1031.34 1874,1030.5C 1873.07,1025.71 1871.74,1021.04 1870,1016.5C 1870.19,1001.38 1863.69,990.21 1850.5,983C 1848.5,982.667 1846.5,982.333 1844.5,982C 1843.62,980.644 1843.29,979.144 1843.5,977.5C 1847.16,977.277 1850.5,976.277 1853.5,974.5 Z"/></g>
<g><path style="opacity:0.512" fill="#000000" d="M 678.5,994.5 C 679.833,994.5 681.167,994.5 682.5,994.5C 682.617,996.484 681.95,998.15 680.5,999.5C 673.997,1003.59 667.33,1007.42 660.5,1011C 659.663,1012.01 659.33,1013.18 659.5,1014.5C 657.833,1014.5 656.167,1014.5 654.5,1014.5C 654.192,1012.08 654.526,1009.74 655.5,1007.5C 662.969,1002.67 670.636,998.336 678.5,994.5 Z"/></g>
<g><path style="opacity:0.656" fill="#000000" d="M 1180.5,997.5 C 1184.67,997.846 1186.5,1000.18 1186,1004.5C 1190.06,1023.21 1187.06,1040.54 1177,1056.5C 1175.99,1057.34 1174.82,1057.67 1173.5,1057.5C 1172.93,1047.95 1174.09,1038.61 1177,1029.5C 1177.33,1022.83 1177.67,1016.17 1178,1009.5C 1178.19,1005.32 1179.02,1001.32 1180.5,997.5 Z"/></g>
<g><path style="opacity:0.507" fill="#000000" d="M 640.5,1017.5 C 642.344,1018.2 642.844,1019.54 642,1021.5C 632.521,1027.64 623.021,1033.8 613.5,1040C 607.309,1044.22 604.142,1050.05 604,1057.5C 602.951,1058.52 601.784,1058.68 600.5,1058C 598.896,1052.65 599.396,1047.48 602,1042.5C 613.412,1031.91 626.246,1023.58 640.5,1017.5 Z"/></g>
<g><path style="opacity:0.503" fill="#000000" d="M 593.5,1052.5 C 595.167,1052.5 596.833,1052.5 598.5,1052.5C 598.5,1053.83 598.5,1055.17 598.5,1056.5C 593.044,1058.77 588.211,1062.1 584,1066.5C 581.868,1070.83 580.868,1075.5 581,1080.5C 574.451,1092.3 566.951,1103.3 558.5,1113.5C 557.311,1114.43 555.978,1114.76 554.5,1114.5C 554.163,1110.69 554.663,1107.03 556,1103.5C 569.518,1094.47 576.851,1081.8 578,1065.5C 582.43,1060.23 587.596,1055.9 593.5,1052.5 Z"/></g>
<g><path style="opacity:0.721" fill="#000000" d="M 1176.5,1060.5 C 1178.17,1060.5 1179.83,1060.5 1181.5,1060.5C 1183.73,1067.46 1183.89,1074.46 1182,1081.5C 1179.77,1091.43 1176.77,1101.1 1173,1110.5C 1170.98,1111.99 1169.31,1111.66 1168,1109.5C 1167.17,1106.33 1166.33,1103.16 1165.5,1100C 1168.57,1087.89 1171.4,1075.72 1174,1063.5C 1175.04,1062.63 1175.88,1061.63 1176.5,1060.5 Z"/></g>
<g><path style="opacity:0.657" fill="#000000" d="M 1905.5,1066.5 C 1907.2,1066.34 1908.87,1066.51 1910.5,1067C 1915.15,1070.6 1919.32,1074.76 1923,1079.5C 1926.59,1085.68 1929.92,1092.01 1933,1098.5C 1933.5,1101.15 1933.66,1103.81 1933.5,1106.5C 1930.73,1106.78 1928.23,1106.11 1926,1104.5C 1922.19,1096.21 1917.86,1088.21 1913,1080.5C 1910.36,1078.69 1907.86,1076.69 1905.5,1074.5C 1904.3,1071.84 1904.3,1069.17 1905.5,1066.5 Z"/></g>
<g><path style="opacity:0.453" fill="#000000" d="M 1492.5,1070.5 C 1493.83,1070.5 1495.17,1070.5 1496.5,1070.5C 1496.92,1076.45 1494.59,1081.11 1489.5,1084.5C 1489.32,1087.8 1487.66,1089.47 1484.5,1089.5C 1484.34,1087.14 1484.5,1084.81 1485,1082.5C 1487.76,1078.64 1490.26,1074.64 1492.5,1070.5 Z"/></g>
<g><path style="opacity:0.655" fill="#000000" d="M 1478.5,1100.5 C 1485.99,1102 1487.49,1106 1483,1112.5C 1478.95,1117.43 1474.78,1122.26 1470.5,1127C 1464.61,1131.1 1458.95,1135.44 1453.5,1140C 1452.55,1140.48 1451.55,1140.65 1450.5,1140.5C 1450.26,1137.77 1451.1,1135.44 1453,1133.5C 1461.04,1122.07 1469.54,1111.07 1478.5,1100.5 Z"/></g>
<g><path style="opacity:0.651" fill="#000000" d="M 1949.5,1117.5 C 1962.88,1122.97 1974.38,1131.3 1984,1142.5C 1985.26,1144.51 1986.09,1146.68 1986.5,1149C 1985.78,1152.84 1985.11,1156.67 1984.5,1160.5C 1983.5,1160.5 1982.5,1160.5 1981.5,1160.5C 1981.38,1157.31 1980.55,1154.31 1979,1151.5C 1971.6,1143.43 1963.6,1136.1 1955,1129.5C 1951.8,1126.11 1949.97,1122.11 1949.5,1117.5 Z"/></g>
<g><path style="opacity:0.75" fill="#000000" d="M 1164.5,1119.5 C 1165.68,1119.28 1166.68,1119.61 1167.5,1120.5C 1168.57,1123.54 1169.74,1126.54 1171,1129.5C 1171.67,1145.17 1171.67,1160.83 1171,1176.5C 1168.92,1179.49 1167.75,1182.82 1167.5,1186.5C 1166.32,1186.72 1165.32,1186.39 1164.5,1185.5C 1163.43,1182.46 1162.26,1179.46 1161,1176.5C 1160.33,1160.83 1160.33,1145.17 1161,1129.5C 1162.08,1126.1 1163.24,1122.77 1164.5,1119.5 Z"/></g>
<g><path style="opacity:0.674" fill="#000000" d="M 530.5,1123.5 C 531.649,1123.79 532.316,1124.62 532.5,1126C 530.103,1132.06 527.27,1137.89 524,1143.5C 516.5,1153 509,1162.5 501.5,1172C 499.635,1173.3 497.635,1173.63 495.5,1173C 492.812,1170.17 490.812,1167 489.5,1163.5C 491.451,1163.23 492.951,1163.89 494,1165.5C 503.938,1149.41 516.105,1135.41 530.5,1123.5 Z"/></g>
<g><path style="opacity:0.646" fill="#000000" d="M 1443.5,1145.5 C 1445.17,1145.5 1446.83,1145.5 1448.5,1145.5C 1448.62,1147.2 1448.95,1148.87 1449.5,1150.5C 1443.4,1162.11 1435.9,1172.78 1427,1182.5C 1425.25,1185.25 1424.25,1188.25 1424,1191.5C 1422.99,1192.34 1421.82,1192.67 1420.5,1192.5C 1419.1,1188.1 1419.26,1183.77 1421,1179.5C 1428.39,1167.97 1435.89,1156.64 1443.5,1145.5 Z"/></g>
<g><path style="opacity:0.727" fill="#000000" d="M 2014.5,1182.5 C 2017.59,1182.38 2020.25,1183.38 2022.5,1185.5C 2028.4,1195.96 2035.73,1205.29 2044.5,1213.5C 2045.3,1214.94 2045.97,1216.44 2046.5,1218C 2044.81,1220.22 2043.81,1222.72 2043.5,1225.5C 2040.89,1225.72 2039.22,1224.56 2038.5,1222C 2037.17,1221.33 2035.83,1220.67 2034.5,1220C 2025.46,1210.96 2017.96,1200.79 2012,1189.5C 2010.92,1186.34 2011.75,1184.01 2014.5,1182.5 Z"/></g>
<g><path style="opacity:0.752" fill="#000000" d="M 393.5,1183.5 C 431.607,1177.86 466.274,1186.03 497.5,1208C 513.509,1222.1 518.675,1239.6 513,1260.5C 510.143,1276.66 502.977,1290.49 491.5,1302C 481.207,1307.65 470.207,1311.32 458.5,1313C 435.195,1315.59 411.862,1315.92 388.5,1314C 360.941,1310.07 348.941,1294.24 352.5,1266.5C 348.972,1237.36 358.972,1214.36 382.5,1197.5C 383.958,1194.63 385.125,1191.63 386,1188.5C 388.273,1186.37 390.773,1184.71 393.5,1183.5 Z M 412.5,1195.5 C 445.595,1191.98 474.095,1201.65 498,1224.5C 502.472,1230.75 504.638,1237.75 504.5,1245.5C 503.85,1260.28 499.684,1273.95 492,1286.5C 487.859,1292.31 482.359,1296.14 475.5,1298C 461.786,1301.96 447.786,1303.96 433.5,1304C 418.812,1304.69 404.146,1304.35 389.5,1303C 380.54,1301.94 373.04,1298.1 367,1291.5C 365.154,1288.43 364.154,1285.1 364,1281.5C 363.333,1271.5 363.333,1261.5 364,1251.5C 363.781,1233.61 370.781,1219.27 385,1208.5C 385.029,1213.36 385.862,1218.03 387.5,1222.5C 388.859,1216.92 389.692,1211.25 390,1205.5C 390.5,1205 391,1204.5 391.5,1204C 398.77,1202.74 406.103,1201.91 413.5,1201.5C 413.483,1199.44 413.15,1197.44 412.5,1195.5 Z"/></g>
<g><path style="opacity:0.612" fill="#000000" d="M 1171.5,1186.5 C 1174.39,1186.22 1175.89,1187.55 1176,1190.5C 1177.43,1199.68 1178.1,1208.68 1178,1217.5C 1176.64,1218.38 1175.14,1218.71 1173.5,1218.5C 1171,1210.62 1169.67,1202.46 1169.5,1194C 1169.3,1191.18 1169.97,1188.68 1171.5,1186.5 Z"/></g>
<g><path style="opacity:0.724" fill="#000000" d="M 1412.5,1203.5 C 1420.42,1202.2 1422.59,1205.2 1419,1212.5C 1414.67,1217.82 1410.84,1223.49 1407.5,1229.5C 1404.61,1232.06 1401.28,1233.72 1397.5,1234.5C 1396.44,1231.16 1396.61,1227.82 1398,1224.5C 1401.39,1216.35 1406.22,1209.35 1412.5,1203.5 Z"/></g>
<g><path style="opacity:0.741" fill="#000000" d="M 395.5,1221.5 C 398.157,1221.16 400.49,1221.83 402.5,1223.5C 412.31,1243.43 418.144,1264.43 420,1286.5C 417.271,1289.86 414.271,1290.2 411,1287.5C 407.139,1271.73 402.806,1256.06 398,1240.5C 397.667,1239.83 397.333,1239.17 397,1238.5C 395.429,1240.92 393.263,1242.26 390.5,1242.5C 391.045,1238.53 392.379,1234.86 394.5,1231.5C 393.087,1227.98 393.421,1224.65 395.5,1221.5 Z"/></g>
<g><path style="opacity:0.677" fill="#000000" d="M 1183.5,1237.5 C 1186.59,1237.63 1188.43,1239.29 1189,1242.5C 1190.59,1252.09 1190.92,1261.76 1190,1271.5C 1188.25,1273.49 1187.25,1275.82 1187,1278.5C 1185.64,1279.38 1184.14,1279.71 1182.5,1279.5C 1179.54,1268.4 1178.71,1257.07 1180,1245.5C 1180.37,1242.43 1181.53,1239.77 1183.5,1237.5 Z"/></g>
<g><path style="opacity:0.687" fill="#000000" d="M 1381.5,1241.5 C 1383.17,1241.5 1384.83,1241.5 1386.5,1241.5C 1384.97,1249.57 1382.14,1257.23 1378,1264.5C 1371,1273.17 1364,1281.83 1357,1290.5C 1353.66,1293.39 1350.66,1293.05 1348,1289.5C 1347.42,1286.74 1347.75,1284.08 1349,1281.5C 1360.42,1268.58 1371.26,1255.25 1381.5,1241.5 Z"/></g>
<g><path style="opacity:0.653" fill="#000000" d="M 2054.5,1248.5 C 2069.74,1251.55 2080.41,1260.39 2086.5,1275C 2085.31,1277.72 2084.65,1280.56 2084.5,1283.5C 2083.02,1283.76 2081.69,1283.43 2080.5,1282.5C 2074.25,1271.25 2065.91,1261.92 2055.5,1254.5C 2054.53,1252.6 2054.2,1250.6 2054.5,1248.5 Z"/></g>
<g><path style="opacity:0.778" fill="#000000" d="M 547.5,1251.5 C 563.789,1253.6 579.789,1257.1 595.5,1262C 612.347,1262.5 629.014,1264.5 645.5,1268C 665.143,1276.66 685.476,1282.99 706.5,1287C 716.635,1291.53 727.302,1294.2 738.5,1295C 770.159,1307.22 802.159,1318.89 834.5,1330C 844.5,1334.33 854.5,1338.67 864.5,1343C 868.819,1343.76 873.152,1344.43 877.5,1345C 892.5,1345.33 907.5,1345.67 922.5,1346C 935.529,1350.13 948.862,1352.8 962.5,1354C 973.33,1358.95 983.997,1364.28 994.5,1370C 1003.41,1372.64 1012.24,1375.47 1021,1378.5C 1022.2,1377.35 1021.87,1376.02 1020,1374.5C 1017.28,1369.05 1017.28,1363.72 1020,1358.5C 1022.67,1355.83 1025.33,1355.83 1028,1358.5C 1029.37,1369.25 1034.37,1377.92 1043,1384.5C 1046.18,1390.2 1049.35,1395.87 1052.5,1401.5C 1049.51,1407.32 1044.84,1411.15 1038.5,1413C 1034.65,1414.62 1030.65,1415.62 1026.5,1416C 1018.8,1421.19 1010.8,1425.85 1002.5,1430C 998.464,1430.85 994.631,1430.35 991,1428.5C 988.725,1424.31 989.559,1420.81 993.5,1418C 995.275,1416.56 997.275,1415.56 999.5,1415C 1003.25,1414.74 1006.92,1414.07 1010.5,1413C 1017.48,1406.35 1025.81,1402.68 1035.5,1402C 1037.26,1401.28 1038.09,1400.11 1038,1398.5C 1035.96,1398.63 1033.79,1398.13 1031.5,1397C 1018.63,1389.93 1004.97,1384.59 990.5,1381C 979.997,1375.28 969.33,1369.95 958.5,1365C 946.529,1364.06 934.862,1361.73 923.5,1358C 908.167,1357.67 892.833,1357.33 877.5,1357C 871.87,1355.81 866.203,1354.81 860.5,1354C 851.618,1349.73 842.618,1345.73 833.5,1342C 801.111,1330.32 768.778,1318.65 736.5,1307C 726.028,1305.84 716.028,1303.18 706.5,1299C 700.468,1298.16 694.468,1297.16 688.5,1296C 672.924,1290.92 657.591,1285.25 642.5,1279C 626.933,1276.24 611.266,1274.24 595.5,1273C 587.842,1271.67 580.509,1269.34 573.5,1266C 565.021,1264.84 556.855,1262.67 549,1259.5C 547.748,1256.99 547.248,1254.32 547.5,1251.5 Z"/></g>
<g><path style="opacity:0.712" fill="#000000" d="M 520.5,1292.5 C 521.873,1292.34 523.207,1292.51 524.5,1293C 526.146,1296.31 528.48,1298.98 531.5,1301C 540.22,1303.21 548.886,1305.54 557.5,1308C 561.92,1311.39 563.586,1315.89 562.5,1321.5C 561.5,1321.5 560.5,1321.5 559.5,1321.5C 559.167,1319.5 558.833,1317.5 558.5,1315.5C 545.486,1316.67 533.153,1314.17 521.5,1308C 516.704,1303.08 516.37,1297.91 520.5,1292.5 Z"/></g>
<g><path style="opacity:0.624" fill="#000000" d="M 1193.5,1299.5 C 1195.29,1299.21 1196.95,1299.55 1198.5,1300.5C 1203.32,1312.15 1203.65,1323.81 1199.5,1335.5C 1195.86,1335.29 1193.69,1333.29 1193,1329.5C 1192.08,1321.23 1192.58,1313.06 1194.5,1305C 1194.3,1303.12 1193.97,1301.29 1193.5,1299.5 Z"/></g>
<g><path style="opacity:0.724" fill="#000000" d="M 1335.5,1303.5 C 1337.5,1303.5 1339.5,1303.5 1341.5,1303.5C 1341.66,1305.53 1341.5,1307.53 1341,1309.5C 1328.75,1321.42 1316.92,1333.58 1305.5,1346C 1306.02,1346.56 1306.36,1347.23 1306.5,1348C 1304.47,1352.27 1303.47,1356.77 1303.5,1361.5C 1302.18,1361.67 1301.01,1361.34 1300,1360.5C 1285.42,1381.33 1271.09,1402.33 1257,1423.5C 1256.51,1425.13 1256.34,1426.8 1256.5,1428.5C 1255.17,1428.5 1253.83,1428.5 1252.5,1428.5C 1250.77,1417.18 1253.27,1406.85 1260,1397.5C 1272.41,1380.34 1284.58,1363.01 1296.5,1345.5C 1298.05,1344.32 1299.71,1343.32 1301.5,1342.5C 1310.73,1327.6 1322.07,1314.6 1335.5,1303.5 Z"/></g>
<g><path style="opacity:0.744" fill="#000000" d="M 2081.5,1310.5 C 2083.83,1310.25 2085.83,1310.91 2087.5,1312.5C 2089.09,1316.31 2089.93,1320.31 2090,1324.5C 2092.2,1332.53 2097.36,1337.2 2105.5,1338.5C 2107.63,1344.43 2105.63,1348.1 2099.5,1349.5C 2083.57,1342.64 2076.74,1330.64 2079,1313.5C 2079.7,1312.31 2080.53,1311.31 2081.5,1310.5 Z"/></g>
<g><path style="opacity:0.68" fill="#000000" d="M 589.5,1318.5 C 602.267,1317.98 614.933,1318.81 627.5,1321C 629.107,1322.05 629.773,1323.55 629.5,1325.5C 627.208,1325.76 625.041,1325.42 623,1324.5C 610.606,1326.08 598.106,1327.08 585.5,1327.5C 580.851,1326.85 576.184,1326.35 571.5,1326C 568.848,1323.27 569.515,1321.27 573.5,1320C 579.016,1319.83 584.349,1319.33 589.5,1318.5 Z"/></g>
<g><path style="opacity:0.678" fill="#000000" d="M 657.5,1340.5 C 668.172,1340.33 678.839,1340.5 689.5,1341C 694.935,1342.77 698.768,1346.27 701,1351.5C 703.172,1356.12 705.006,1360.79 706.5,1365.5C 705.448,1365.65 704.448,1365.48 703.5,1365C 700.257,1361.88 697.257,1358.55 694.5,1355C 692.33,1353.41 689.996,1352.08 687.5,1351C 676.735,1350.95 666.069,1350.29 655.5,1349C 651.777,1347.74 650.777,1345.41 652.5,1342C 654.382,1341.8 656.048,1341.3 657.5,1340.5 Z"/></g>
<g><path style="opacity:0.594" fill="#000000" d="M 1195.5,1341.5 C 1196.83,1341.5 1198.17,1341.5 1199.5,1341.5C 1201.3,1353.03 1200.47,1364.36 1197,1375.5C 1196.05,1377.59 1194.71,1377.93 1193,1376.5C 1190.62,1364.53 1191.45,1352.87 1195.5,1341.5 Z"/></g>
<g><path style="opacity:0.772" fill="#000000" d="M 2150.5,1347.5 C 2163.2,1347.21 2175.87,1347.71 2188.5,1349C 2198.46,1350.9 2207.29,1355.06 2215,1361.5C 2218.11,1365.39 2220.44,1369.72 2222,1374.5C 2226.34,1416.81 2217,1455.81 2194,1491.5C 2187.03,1500.8 2178.53,1508.3 2168.5,1514C 2163.37,1516.16 2158.03,1517.49 2152.5,1518C 2127.15,1520.01 2102.15,1518.01 2077.5,1512C 2056.8,1505.3 2042.63,1491.8 2035,1471.5C 2034.5,1461.51 2034.33,1451.51 2034.5,1441.5C 2014.05,1442.22 1993.72,1441.22 1973.5,1438.5C 1973.32,1436.02 1974.32,1434.19 1976.5,1433C 1995.7,1430.05 2015.04,1428.71 2034.5,1429C 2037.93,1412.92 2045.6,1399.25 2057.5,1388C 2066.02,1380.23 2075.69,1374.23 2086.5,1370C 2092.77,1368.85 2099.1,1368.18 2105.5,1368C 2118.14,1355.85 2133.14,1349.01 2150.5,1347.5 Z M 2147.5,1359.5 C 2158.84,1359.33 2170.17,1359.5 2181.5,1360C 2191.86,1360.43 2200.69,1364.27 2208,1371.5C 2209.28,1373.72 2210.28,1376.05 2211,1378.5C 2211.73,1391.52 2211.57,1404.52 2210.5,1417.5C 2199.78,1417.35 2189.11,1416.52 2178.5,1415C 2166.31,1411.82 2154.14,1408.66 2142,1405.5C 2137.09,1404.87 2133.59,1406.71 2131.5,1411C 2132.1,1412.61 2133.1,1413.94 2134.5,1415C 2147.61,1418.26 2160.61,1421.92 2173.5,1426C 2184.77,1427.85 2196.1,1429.02 2207.5,1429.5C 2203.12,1452.58 2193.62,1473.25 2179,1491.5C 2172.3,1498.88 2164.13,1503.71 2154.5,1506C 2139.83,1506.67 2125.17,1506.67 2110.5,1506C 2088.47,1506.11 2069.64,1498.61 2054,1483.5C 2046.7,1473.79 2043.87,1462.79 2045.5,1450.5C 2044.13,1435.38 2047.3,1421.38 2055,1408.5C 2064,1396.82 2074.84,1387.32 2087.5,1380C 2092.18,1377.43 2097.18,1375.93 2102.5,1375.5C 2102.54,1379.36 2102.2,1383.2 2101.5,1387C 2101.63,1389.25 2102.13,1391.42 2103,1393.5C 2104.54,1391.06 2105.87,1388.06 2107,1384.5C 2109.5,1381.33 2112,1378.17 2114.5,1375C 2120.08,1374.81 2125.58,1374.31 2131,1373.5C 2131.66,1371.89 2131.16,1370.73 2129.5,1370C 2126.67,1370.55 2124,1370.22 2121.5,1369C 2129.71,1364.32 2138.38,1361.15 2147.5,1359.5 Z"/></g>
<g><path style="opacity:0.682" fill="#000000" d="M 753.5,1369.5 C 762.839,1369.33 772.173,1369.5 781.5,1370C 787.476,1371.14 790.809,1374.64 791.5,1380.5C 788.77,1380.53 786.27,1379.86 784,1378.5C 769.18,1379.54 754.347,1380.04 739.5,1380C 738.039,1377.01 738.705,1374.51 741.5,1372.5C 745.623,1371.49 749.623,1370.49 753.5,1369.5 Z"/></g>
<g><path style="opacity:0.672" fill="#000000" d="M 837.5,1385.5 C 843.925,1385.13 850.258,1385.63 856.5,1387C 861.174,1389.12 863.84,1392.62 864.5,1397.5C 845.56,1395.22 826.56,1393.55 807.5,1392.5C 807.5,1391.17 807.5,1389.83 807.5,1388.5C 817.737,1387.25 827.737,1386.25 837.5,1385.5 Z"/></g>
<g><path style="opacity:0.71" fill="#000000" d="M 2122.5,1394.5 C 2128.43,1395.66 2134.43,1396.49 2140.5,1397C 2143.45,1397.11 2144.78,1398.61 2144.5,1401.5C 2137.81,1400.43 2131.14,1400.43 2124.5,1401.5C 2124.27,1407.31 2125.77,1412.64 2129,1417.5C 2137.4,1427.3 2145.06,1437.63 2152,1448.5C 2156.68,1455.63 2154.85,1459.79 2146.5,1461C 2133.83,1461.67 2121.17,1461.67 2108.5,1461C 2100.04,1459.74 2092.21,1456.9 2085,1452.5C 2082.61,1447.5 2084.11,1444.5 2089.5,1443.5C 2095.45,1445.43 2101.45,1447.26 2107.5,1449C 2119.55,1449.19 2131.55,1449.69 2143.5,1450.5C 2143.83,1450.17 2144.17,1449.83 2144.5,1449.5C 2136.33,1437.83 2128.17,1426.17 2120,1414.5C 2117.93,1408.78 2117.6,1403.12 2119,1397.5C 2120.15,1396.36 2121.31,1395.36 2122.5,1394.5 Z"/></g>
<g><path style="opacity:0.595" fill="#000000" d="M 889.5,1396.5 C 897.84,1396.33 906.173,1396.5 914.5,1397C 916.705,1398.71 919.038,1400.21 921.5,1401.5C 922.482,1404.1 923.149,1406.76 923.5,1409.5C 919.512,1409 916.178,1407.17 913.5,1404C 903.182,1403.13 892.849,1402.63 882.5,1402.5C 882.5,1401.17 882.5,1399.83 882.5,1398.5C 885.152,1398.59 887.485,1397.92 889.5,1396.5 Z"/></g>
<g><path style="opacity:0.757" fill="#000000" d="M 1097.5,1409.5 C 1104,1409.08 1110.33,1409.75 1116.5,1411.5C 1116.67,1412.82 1116.34,1413.99 1115.5,1415C 1097.48,1415.03 1084.64,1423.19 1077,1439.5C 1066.55,1459.7 1064.21,1480.7 1070,1502.5C 1081.75,1515.13 1096.25,1521.96 1113.5,1523C 1123.83,1523.5 1134.16,1523.67 1144.5,1523.5C 1144.71,1508.72 1146.71,1494.22 1150.5,1480C 1136.82,1481 1123.15,1480.67 1109.5,1479C 1106.06,1476.62 1104.73,1473.29 1105.5,1469C 1106.13,1459.84 1106.63,1450.67 1107,1441.5C 1108.73,1440.42 1110.56,1440.26 1112.5,1441C 1112.14,1450.8 1112.81,1460.63 1114.5,1470.5C 1127.2,1471.1 1139.87,1471.1 1152.5,1470.5C 1153.45,1464.14 1154.62,1457.81 1156,1451.5C 1157.17,1449.67 1158.33,1447.83 1159.5,1446C 1160.79,1445.51 1162.13,1445.34 1163.5,1445.5C 1164.59,1453.22 1164.26,1460.88 1162.5,1468.5C 1173.07,1471.05 1173.07,1474.38 1162.5,1478.5C 1158.64,1492.53 1156.64,1506.86 1156.5,1521.5C 1166.5,1519.5 1175.5,1515.33 1183.5,1509C 1196.75,1499.08 1207.92,1487.25 1217,1473.5C 1218.67,1468.5 1220.33,1463.5 1222,1458.5C 1223.48,1452.24 1223.82,1445.9 1223,1439.5C 1220.11,1436.94 1216.94,1434.78 1213.5,1433C 1206.01,1430.57 1198.34,1428.9 1190.5,1428C 1169.83,1427.33 1149.17,1427.33 1128.5,1428C 1120.8,1428.34 1113.8,1430.68 1107.5,1435C 1104,1437.83 1100.5,1440.67 1097,1443.5C 1094.24,1447.41 1091.74,1451.41 1089.5,1455.5C 1084.61,1450.06 1083.78,1444.06 1087,1437.5C 1098.88,1424.31 1113.72,1417.14 1131.5,1416C 1153.19,1415.11 1174.86,1415.44 1196.5,1417C 1209.52,1418.43 1221.02,1423.26 1231,1431.5C 1234.4,1438.44 1235.4,1445.77 1234,1453.5C 1231.2,1467.09 1226.2,1479.76 1219,1491.5C 1207.26,1505.25 1193.76,1516.75 1178.5,1526C 1172.72,1528.89 1166.72,1531.22 1160.5,1533C 1141.54,1534.6 1122.54,1534.94 1103.5,1534C 1085.32,1530.13 1070.48,1520.96 1059,1506.5C 1057.71,1503.59 1056.71,1500.59 1056,1497.5C 1052.24,1471.22 1057.91,1447.22 1073,1425.5C 1079.69,1417.75 1087.85,1412.42 1097.5,1409.5 Z"/></g>
<g><path style="opacity:0.637" fill="#000000" d="M 940.5,1410.5 C 949.375,1410.21 958.208,1410.54 967,1411.5C 970.978,1414.07 972.478,1417.74 971.5,1422.5C 968.891,1422.17 967.224,1420.67 966.5,1418C 955.505,1417.5 944.505,1417.33 933.5,1417.5C 934.16,1413.51 936.494,1411.17 940.5,1410.5 Z"/></g>
<g><path style="opacity:0.675" fill="#000000" d="M 1939.5,1426.5 C 1943.62,1425.89 1946.62,1427.39 1948.5,1431C 1946.61,1433.89 1943.94,1435.56 1940.5,1436C 1928.83,1437.35 1917.16,1438.51 1905.5,1439.5C 1903.56,1438.81 1901.56,1438.31 1899.5,1438C 1897.41,1437.05 1897.07,1435.71 1898.5,1434C 1912.26,1431.25 1925.93,1428.75 1939.5,1426.5 Z"/></g>
<g><path style="opacity:0.744" fill="#000000" d="M 1875.5,1429.5 C 1882.83,1430 1884.83,1433.5 1881.5,1440C 1869.71,1446.64 1857.21,1451.48 1844,1454.5C 1839.68,1454.59 1836.85,1452.59 1835.5,1448.5C 1836.5,1447.17 1837.5,1445.83 1838.5,1444.5C 1851.78,1441.63 1864.11,1436.63 1875.5,1429.5 Z"/></g>
<g><path style="opacity:0.532" fill="#000000" d="M 993.5,1434.5 C 995.167,1434.5 996.833,1434.5 998.5,1434.5C 998.33,1435.82 998.663,1436.99 999.5,1438C 1007.08,1441.04 1013.92,1445.2 1020,1450.5C 1021.08,1453.25 1021.92,1456.08 1022.5,1459C 1022.33,1460.5 1021.5,1461.33 1020,1461.5C 1016.9,1458.4 1013.73,1455.23 1010.5,1452C 1004.92,1448.96 999.418,1445.79 994,1442.5C 993.503,1439.85 993.336,1437.19 993.5,1434.5 Z"/></g>
<g><path style="opacity:0.739" fill="#000000" d="M 1768.5,1451.5 C 1772.52,1450.9 1776.02,1451.9 1779,1454.5C 1780.4,1458.52 1778.9,1461.35 1774.5,1463C 1763.13,1464.64 1751.8,1466.47 1740.5,1468.5C 1736.32,1469.08 1733.32,1467.58 1731.5,1464C 1731.6,1461.13 1732.93,1459.13 1735.5,1458C 1746.67,1456 1757.67,1453.83 1768.5,1451.5 Z"/></g>
<g><path style="opacity:0.734" fill="#000000" d="M 1710.5,1452.5 C 1717.39,1453.16 1719.39,1456.5 1716.5,1462.5C 1705.15,1468.73 1693.15,1472.73 1680.5,1474.5C 1679.9,1470.48 1680.9,1466.98 1683.5,1464C 1692.72,1460.43 1701.72,1456.6 1710.5,1452.5 Z"/></g>
<g><path style="opacity:0.66" fill="#000000" d="M 1038.5,1462.5 C 1042.64,1462.15 1046.64,1462.65 1050.5,1464C 1053.61,1467.89 1052.94,1470.89 1048.5,1473C 1040.65,1474.09 1032.99,1473.42 1025.5,1471C 1024.17,1469.33 1024.17,1467.67 1025.5,1466C 1029.76,1464.15 1034.1,1462.99 1038.5,1462.5 Z"/></g>
<g><path style="opacity:0.691" fill="#000000" d="M 1548.5,1477.5 C 1552.55,1477.89 1556.55,1478.55 1560.5,1479.5C 1562.09,1481.17 1562.75,1483.17 1562.5,1485.5C 1550.07,1486.43 1537.74,1488.1 1525.5,1490.5C 1522.48,1490.23 1519.48,1489.9 1516.5,1489.5C 1515.96,1486.76 1516.96,1484.93 1519.5,1484C 1529.2,1481.32 1538.87,1479.15 1548.5,1477.5 Z"/></g>
<g><path style="opacity:0.7" fill="#000000" d="M 1490.5,1479.5 C 1494.57,1479.23 1498.57,1479.57 1502.5,1480.5C 1503.89,1482.67 1503.56,1484.51 1501.5,1486C 1485.43,1490.41 1469.43,1494.91 1453.5,1499.5C 1450.06,1498.05 1449.56,1495.71 1452,1492.5C 1452.9,1491.3 1454.07,1490.47 1455.5,1490C 1467.61,1487.59 1479.28,1484.09 1490.5,1479.5 Z"/></g>
<g><path style="opacity:0.579" fill="#000000" d="M 1600.5,1482.5 C 1604.85,1482.33 1609.18,1482.5 1613.5,1483C 1614.71,1484.11 1614.71,1485.28 1613.5,1486.5C 1603.64,1489.07 1593.64,1489.91 1583.5,1489C 1582.17,1487.67 1582.17,1486.33 1583.5,1485C 1589.41,1484.88 1595.08,1484.04 1600.5,1482.5 Z"/></g>
<g><path style="opacity:0.698" fill="#000000" d="M 1406.5,1489.5 C 1412.89,1489.68 1419.23,1490.35 1425.5,1491.5C 1425.67,1492.82 1425.34,1493.99 1424.5,1495C 1410.22,1499.69 1395.72,1503.53 1381,1506.5C 1376.17,1505.97 1371.34,1505.47 1366.5,1505C 1361.3,1502.43 1361.3,1499.76 1366.5,1497C 1380.46,1497.13 1393.79,1494.63 1406.5,1489.5 Z"/></g>
<g><path style="opacity:0.749" fill="#000000" d="M 1353.5,1497.5 C 1354.83,1497.5 1356.17,1497.5 1357.5,1497.5C 1357.79,1499.29 1357.45,1500.95 1356.5,1502.5C 1348.74,1510.22 1339.4,1515.05 1328.5,1517C 1307.47,1517.92 1286.47,1517.58 1265.5,1516C 1262.77,1515.59 1260.1,1514.92 1257.5,1514C 1251.54,1510.24 1245.21,1507.24 1238.5,1505C 1237.62,1503.64 1237.29,1502.14 1237.5,1500.5C 1239.94,1500.76 1242.27,1501.42 1244.5,1502.5C 1245.45,1502.01 1246.45,1501.68 1247.5,1501.5C 1274.66,1506.41 1301.99,1507.58 1329.5,1505C 1335.12,1503.46 1340.79,1502.12 1346.5,1501C 1349.19,1500.27 1351.52,1499.1 1353.5,1497.5 Z"/></g>
</svg>
