<?xml version="1.0" encoding="UTF-8"?>
<!DOCTYPE svg PUBLIC "-//W3C//DTD SVG 1.1//EN" "http://www.w3.org/Graphics/SVG/1.1/DTD/svg11.dtd">
<svg xmlns="http://www.w3.org/2000/svg" version="1.1" width="2550px" height="2550px" style="shape-rendering:geometricPrecision; text-rendering:geometricPrecision; image-rendering:optimizeQuality; fill-rule:evenodd; clip-rule:evenodd" xmlns:xlink="http://www.w3.org/1999/xlink">
<g><path style="opacity:0.814" fill="#000000" d="M 1682.5,895.5 C 1682.5,896.167 1682.83,896.5 1683.5,896.5C 1683.68,898.591 1683.35,900.591 1682.5,902.5C 1674.19,903.665 1665.85,903.832 1657.5,903C 1653.73,900.781 1649.73,899.115 1645.5,898C 1634.74,895.311 1624.08,892.311 1613.5,889C 1583.93,875.614 1553.26,866.281 1521.5,861C 1519,859.92 1516.67,858.586 1514.5,857C 1499.68,852.06 1485.01,846.727 1470.5,841C 1456.3,837.962 1442.3,834.296 1428.5,830C 1409.17,826 1389.83,822 1370.5,818C 1352.81,816.484 1335.14,814.818 1317.5,813C 1310.83,810.333 1304.17,807.667 1297.5,805C 1276.77,801.313 1257.11,794.646 1238.5,785C 1229.58,783.138 1220.91,780.472 1212.5,777C 1198.87,776.341 1185.54,774.007 1172.5,770C 1150.13,767.693 1128.13,763.526 1106.5,757.5C 1085.1,768.245 1062.44,772.579 1038.5,770.5C 1014.22,771.672 990.551,768.506 967.5,761C 963.013,759.397 958.846,757.23 955,754.5C 952.063,762.424 947.896,769.591 942.5,776C 937.412,777.341 934.912,775.508 935,770.5C 939.5,764.167 944,757.833 948.5,751.5C 945.858,747.691 943.025,744.024 940,740.5C 938.47,736.91 937.136,733.243 936,729.5C 935.215,718.464 935.548,707.464 937,696.5C 938.041,690.71 939.874,685.21 942.5,680C 939.063,678.895 936.563,676.728 935,673.5C 928.553,655.472 932.719,639.972 947.5,627C 966.977,611.842 989.143,604.675 1014,605.5C 1042.44,603.315 1068.61,609.815 1092.5,625C 1105.86,633.354 1117.69,643.521 1128,655.5C 1132.26,662.267 1134.92,669.6 1136,677.5C 1136.93,692.055 1136.43,706.555 1134.5,721C 1134.17,723.667 1135.17,725.667 1137.5,727C 1157.39,730.174 1177.39,732.507 1197.5,734C 1200.79,734.882 1204.12,735.548 1207.5,736C 1210.17,737.667 1210.17,739.333 1207.5,741C 1181.2,745.841 1155.86,742.674 1131.5,731.5C 1128.45,740.086 1123.12,746.919 1115.5,752C 1135.3,756.359 1155.3,759.692 1175.5,762C 1188.54,766.007 1201.87,768.341 1215.5,769C 1224.05,772.073 1232.72,774.739 1241.5,777C 1260.13,786.656 1279.8,793.322 1300.5,797C 1307.61,799.389 1314.61,802.056 1321.5,805C 1338.8,806.848 1356.14,808.514 1373.5,810C 1392.84,814 1412.17,818 1431.5,822C 1447.75,826.584 1464.08,830.918 1480.5,835C 1492.87,840.457 1505.54,845.123 1518.5,849C 1520.67,850.586 1523,851.92 1525.5,853C 1558.06,858.408 1589.4,868.075 1619.5,882C 1633.8,885.408 1647.8,889.741 1661.5,895C 1668.49,895.5 1675.49,895.666 1682.5,895.5 Z M 998.5,617.5 C 1014.19,617.229 1029.86,617.729 1045.5,619C 1074.26,625.297 1098.42,639.464 1118,661.5C 1121.09,665.682 1123.09,670.349 1124,675.5C 1124.67,687.833 1124.67,700.167 1124,712.5C 1123.13,724.063 1118.63,733.896 1110.5,742C 1098.97,748.833 1086.64,753.833 1073.5,757C 1052.87,758.581 1032.2,758.915 1011.5,758C 992.928,757.692 975.595,753.025 959.5,744C 949.84,737.677 945.507,728.677 946.5,717C 947.722,693.063 955.555,671.563 970,652.5C 975.241,645.202 981.074,638.368 987.5,632C 989.67,630.414 992.004,629.08 994.5,628C 1006.87,626.829 1019.2,626.329 1031.5,626.5C 1030.53,624.364 1028.86,623.197 1026.5,623C 1017.68,622.034 1008.85,621.201 1000,620.5C 988.498,622.001 978.665,626.834 970.5,635C 958.549,647.45 949.215,661.616 942.5,677.5C 941.618,676.24 940.618,675.074 939.5,674C 941.607,665.605 943.441,657.105 945,648.5C 954.781,634 968.281,624.5 985.5,620C 989.988,619.24 994.322,618.406 998.5,617.5 Z"/></g>
<g><path style="opacity:0.769" fill="#000000" d="M 1033.5,654.5 C 1057.74,650.236 1069.4,660.403 1068.5,685C 1069.04,691.057 1067.04,696.057 1062.5,700C 1052.01,705.413 1041.67,711.079 1031.5,717C 1050.87,718.003 1070.21,719.67 1089.5,722C 1099.5,725.748 1099.83,729.915 1090.5,734.5C 1085.92,733.178 1081.26,732.344 1076.5,732C 1057.52,730.728 1038.52,729.728 1019.5,729C 1015.38,728.857 1011.38,728.19 1007.5,727C 1004.92,723.595 1004.92,720.262 1007.5,717C 1023.34,707.913 1039.34,699.08 1055.5,690.5C 1056.71,683.811 1056.55,677.145 1055,670.5C 1054.53,669.069 1053.7,667.903 1052.5,667C 1040.03,665.912 1027.7,666.745 1015.5,669.5C 1013.49,669.16 1011.49,668.827 1009.5,668.5C 1007.9,665.298 1008.23,662.298 1010.5,659.5C 1018.14,657.175 1025.8,655.508 1033.5,654.5 Z"/></g>
<g><path style="opacity:0.676" fill="#000000" d="M 1248.5,752.5 C 1259.17,752.333 1269.84,752.5 1280.5,753C 1282.88,753.511 1285.21,754.178 1287.5,755C 1288.34,756.011 1288.67,757.178 1288.5,758.5C 1271.55,760.983 1254.55,761.15 1237.5,759C 1233.78,758.582 1232.78,756.749 1234.5,753.5C 1235.17,753.833 1235.83,754.167 1236.5,754.5C 1240.63,753.891 1244.63,753.224 1248.5,752.5 Z"/></g>
<g><path style="opacity:0.674" fill="#000000" d="M 1305.5,764.5 C 1318.12,765.897 1330.78,766.73 1343.5,767C 1348.9,767.979 1354.23,769.145 1359.5,770.5C 1359.83,772.5 1360.17,774.5 1360.5,776.5C 1358.72,776.214 1357.06,775.547 1355.5,774.5C 1340.88,778.296 1326.21,778.462 1311.5,775C 1307.57,774.046 1304.9,771.712 1303.5,768C 1303.86,766.566 1304.53,765.399 1305.5,764.5 Z"/></g>
<g><path style="opacity:0.772" fill="#000000" d="M 1042.5,778.5 C 1048.55,778.865 1051.72,782.199 1052,788.5C 1052.96,804.611 1053.96,820.611 1055,836.5C 1054.67,836.833 1054.33,837.167 1054,837.5C 1051.03,835.601 1047.87,834.101 1044.5,833C 1043.13,831.4 1042.13,829.567 1041.5,827.5C 1039.46,829.412 1037.46,829.579 1035.5,828C 1035.83,827.667 1036.17,827.333 1036.5,827C 1025.84,824.018 1017.01,818.185 1010,809.5C 1011.75,827.19 1015.42,844.523 1021,861.5C 1027,890.521 1030,919.855 1030,949.5C 1034.01,966.267 1036.35,983.267 1037,1000.5C 1038.64,1005.08 1039.98,1009.74 1041,1014.5C 1043.15,1039.52 1045.48,1064.52 1048,1089.5C 1049.84,1097.87 1051.84,1106.2 1054,1114.5C 1054.9,1126.61 1056.56,1138.61 1059,1150.5C 1059.33,1160.5 1059.67,1170.5 1060,1180.5C 1060.93,1189.24 1063.27,1197.57 1067,1205.5C 1068.41,1224.93 1072.07,1243.93 1078,1262.5C 1080.9,1279.04 1082.56,1295.7 1083,1312.5C 1083.33,1352.83 1083.67,1393.17 1084,1433.5C 1088.2,1451.34 1091.54,1469.34 1094,1487.5C 1095,1508.5 1096,1529.5 1097,1550.5C 1097.69,1551.03 1098.19,1551.69 1098.5,1552.5C 1119.15,1553.88 1139.82,1555.05 1160.5,1556C 1186.28,1557.53 1210.61,1564.19 1233.5,1576C 1270.54,1599.79 1280.7,1632.29 1264,1673.5C 1248.44,1696.04 1227.94,1712.54 1202.5,1723C 1174.3,1731.33 1145.96,1731.66 1117.5,1724C 1095.8,1716.57 1077.63,1704.07 1063,1686.5C 1055.39,1675.58 1051.89,1663.42 1052.5,1650C 1052.34,1622.82 1060.01,1598.15 1075.5,1576C 1068.92,1571.69 1066.75,1565.86 1069,1558.5C 1073.64,1554.3 1079.14,1552.47 1085.5,1553C 1084.79,1546.71 1084.13,1540.38 1083.5,1534C 1083.99,1532.54 1084.33,1531.04 1084.5,1529.5C 1084.02,1497.29 1079.85,1465.62 1072,1434.5C 1071.67,1390.5 1071.33,1346.5 1071,1302.5C 1070.1,1294.85 1069.43,1287.19 1069,1279.5C 1065.96,1262.7 1062.29,1246.03 1058,1229.5C 1058.1,1217.64 1055.77,1206.31 1051,1195.5C 1047.99,1180.34 1046.66,1165 1047,1149.5C 1044.82,1139.27 1043.49,1128.94 1043,1118.5C 1040.46,1108.54 1038.12,1098.54 1036,1088.5C 1034,1065.83 1032,1043.16 1030,1020.5C 1028.8,1013.38 1027.14,1006.38 1025,999.5C 1024.51,982.24 1022.18,965.24 1018,948.5C 1018.07,920.56 1015.4,892.893 1010,865.5C 1004.23,846.072 999.559,826.405 996,806.5C 992.257,817.576 986.091,827.076 977.5,835C 970.088,837.638 967.088,835.138 968.5,827.5C 975.483,821.353 981.15,814.186 985.5,806C 983.639,803.054 983.139,799.887 984,796.5C 985.681,794.452 987.181,792.285 988.5,790C 991.947,788.891 994.614,789.891 996.5,793C 1000.92,793.208 1005.25,793.874 1009.5,795C 1016.83,801 1024.17,807 1031.5,813C 1034.99,814.622 1038.65,815.455 1042.5,815.5C 1042.24,805.259 1041.24,795.092 1039.5,785C 1039.32,782.198 1040.32,780.031 1042.5,778.5 Z M 1078.5,1565.5 C 1079.87,1565.34 1081.21,1565.51 1082.5,1566C 1081.12,1567.93 1079.62,1569.76 1078,1571.5C 1076.45,1569.51 1076.61,1567.51 1078.5,1565.5 Z M 1100.5,1565.5 C 1136.02,1564.11 1171.02,1567.61 1205.5,1576C 1222.58,1581.62 1237.08,1591.12 1249,1604.5C 1255.4,1612.31 1258.73,1621.31 1259,1631.5C 1260.99,1646.96 1257.99,1661.29 1250,1674.5C 1211.7,1717.71 1165.2,1729.21 1110.5,1709C 1093.65,1701.15 1079.81,1689.65 1069,1674.5C 1067.06,1670.35 1065.73,1666.02 1065,1661.5C 1062.16,1627.35 1070.33,1596.19 1089.5,1568C 1091.26,1567.86 1092.92,1568.36 1094.5,1569.5C 1097.18,1569.07 1099.18,1567.73 1100.5,1565.5 Z"/></g>
<g><path style="opacity:0.693" fill="#000000" d="M 1377.5,788.5 C 1384.84,788.334 1392.17,788.5 1399.5,789C 1402.17,790 1404.83,791 1407.5,792C 1409.04,793.11 1409.7,794.61 1409.5,796.5C 1399.06,799.398 1388.39,800.232 1377.5,799C 1372.9,797.409 1371.56,794.409 1373.5,790C 1375.06,789.79 1376.39,789.29 1377.5,788.5 Z"/></g>
<g><path style="opacity:0.747" fill="#000000" d="M 903.5,794.5 C 907.754,793.954 910.088,795.788 910.5,800C 903.941,813.404 894.941,825.07 883.5,835C 880.649,836.289 877.649,836.789 874.5,836.5C 874.184,833.022 874.684,829.688 876,826.5C 884.53,818.418 891.864,809.418 898,799.5C 899.73,797.598 901.563,795.931 903.5,794.5 Z"/></g>
<g><path style="opacity:0.702" fill="#000000" d="M 1429.5,797.5 C 1438.51,797.334 1447.51,797.5 1456.5,798C 1460.86,799.19 1463.52,802.024 1464.5,806.5C 1453.66,809.278 1442.66,810.112 1431.5,809C 1426.4,807.288 1424.4,803.955 1425.5,799C 1427.06,798.79 1428.39,798.29 1429.5,797.5 Z"/></g>
<g><path style="opacity:0.781" fill="#000000" d="M 1760.5,800.5 C 1792.59,799.822 1823.92,804.322 1854.5,814C 1867.01,817.833 1877.84,824.333 1887,833.5C 1899.56,864.329 1892.73,890.162 1866.5,911C 1827.87,938.777 1785.2,947.444 1738.5,937C 1725.4,934.234 1717.24,926.401 1714,913.5C 1713.33,902.833 1713.33,892.167 1714,881.5C 1714.68,877.798 1715.51,874.131 1716.5,870.5C 1716.18,869.353 1715.52,868.519 1714.5,868C 1707.99,868.162 1701.99,866.496 1696.5,863C 1693.16,858.212 1694.32,855.045 1700,853.5C 1707.36,856.077 1714.86,856.743 1722.5,855.5C 1731.03,839.636 1742.7,826.636 1757.5,816.5C 1758.42,813.282 1757.76,810.282 1755.5,807.5C 1756.06,804.284 1757.73,801.951 1760.5,800.5 Z M 1784.5,812.5 C 1810,813.767 1834.67,818.933 1858.5,828C 1866.55,831.261 1873.38,836.094 1879,842.5C 1886.15,868.376 1878.65,888.876 1856.5,904C 1819.31,928.862 1778.98,935.529 1735.5,924C 1731,922.167 1727.83,919 1726,914.5C 1720.03,881.738 1729.53,854.572 1754.5,833C 1763.54,825.577 1773.54,818.743 1784.5,812.5 Z"/></g>
<g><path style="opacity:0.7" fill="#000000" d="M 1497.5,806.5 C 1510.82,807.139 1524.16,807.639 1537.5,808C 1543.01,811.819 1542.68,815.153 1536.5,818C 1521.15,818.094 1505.81,817.428 1490.5,816C 1486.89,814.924 1485.89,812.757 1487.5,809.5C 1490.76,808.02 1494.09,807.02 1497.5,806.5 Z"/></g>
<g><path style="opacity:0.721" fill="#000000" d="M 1599.5,830.5 C 1603.51,830.334 1607.51,830.501 1611.5,831C 1614.31,832.305 1615.14,834.472 1614,837.5C 1607.95,840.763 1601.45,842.597 1594.5,843C 1585.5,843.667 1576.5,843.667 1567.5,843C 1565,841.663 1563,839.829 1561.5,837.5C 1562.24,835.106 1563.91,833.606 1566.5,833C 1575.5,832.667 1584.5,832.333 1593.5,832C 1595.71,831.809 1597.71,831.309 1599.5,830.5 Z"/></g>
<g><path style="opacity:0.765" fill="#000000" d="M 1795.5,834.5 C 1807.5,834.333 1819.5,834.5 1831.5,835C 1840.23,836.105 1844.23,841.105 1843.5,850C 1843.53,859.436 1839.2,865.936 1830.5,869.5C 1843.59,875.667 1850.09,886 1850,900.5C 1849.03,904.406 1846.53,906.573 1842.5,907C 1824.5,907.667 1806.5,907.667 1788.5,907C 1782.26,906.685 1776.26,905.352 1770.5,903C 1767.8,899.729 1768.14,896.729 1771.5,894C 1793.78,895.473 1816.11,895.807 1838.5,895C 1837.09,890.174 1834.42,886.174 1830.5,883C 1822.8,879.326 1815.13,875.66 1807.5,872C 1803.5,868.667 1803.5,865.333 1807.5,862C 1814.84,861.621 1821.84,859.954 1828.5,857C 1832.05,854.409 1833.38,850.909 1832.5,846.5C 1814.8,846.137 1797.13,846.637 1779.5,848C 1773.32,849.046 1767.32,850.712 1761.5,853C 1760.17,853.667 1760.17,854.333 1761.5,855C 1763.02,856.009 1764.69,856.509 1766.5,856.5C 1766.5,857.833 1766.5,859.167 1766.5,860.5C 1762.9,860.153 1759.57,860.82 1756.5,862.5C 1751.49,861.324 1748.83,858.158 1748.5,853C 1749.81,846.358 1753.81,842.358 1760.5,841C 1771.99,837.087 1783.66,834.921 1795.5,834.5 Z"/></g>
<g><path style="opacity:0.756" fill="#000000" d="M 1646.5,837.5 C 1657.51,837.333 1668.51,837.5 1679.5,838C 1683.5,841.333 1683.5,844.667 1679.5,848C 1668.5,848.667 1657.5,848.667 1646.5,848C 1642.09,847.252 1640.59,844.752 1642,840.5C 1643.41,839.219 1644.91,838.219 1646.5,837.5 Z"/></g>
<g><path style="opacity:0.898" fill="#000000" d="M 1683.5,896.5 C 1682.83,896.5 1682.5,896.167 1682.5,895.5C 1675.5,886.996 1668.67,878.329 1662,869.5C 1660.13,863.258 1660.29,857.091 1662.5,851C 1666.09,849.818 1667.42,850.818 1666.5,854C 1666.61,859.799 1668.44,864.966 1672,869.5C 1677.57,875.648 1682.9,881.981 1688,888.5C 1691.23,891.531 1694.73,894.197 1698.5,896.5C 1699.57,899.438 1699.74,902.438 1699,905.5C 1677.55,920.143 1655.38,933.643 1632.5,946C 1626.35,946.925 1625.01,944.758 1628.5,939.5C 1633.95,937.273 1639.29,934.773 1644.5,932C 1660.17,922.167 1675.83,912.333 1691.5,902.5C 1688.8,900.491 1686.14,898.491 1683.5,896.5 Z"/></g>
<g><path style="opacity:0.747" fill="#000000" d="M 1060.5,856.5 C 1062.47,856.261 1064.3,856.594 1066,857.5C 1067.13,860.377 1067.79,863.377 1068,866.5C 1067.85,883.077 1067.02,899.577 1065.5,916C 1066.34,917.011 1066.67,918.178 1066.5,919.5C 1062.37,919.68 1058.87,918.346 1056,915.5C 1055.49,898.155 1055.82,880.822 1057,863.5C 1057.14,860.555 1058.31,858.221 1060.5,856.5 Z"/></g>
<g><path style="opacity:0.744" fill="#000000" d="M 844.5,862.5 C 849.305,861.867 851.805,863.867 852,868.5C 843.31,877.194 835.31,886.527 828,896.5C 827.195,900.874 825.528,904.874 823,908.5C 819.592,910.223 817.259,909.223 816,905.5C 814.896,899.774 815.896,894.44 819,889.5C 825.142,881.39 831.642,873.557 838.5,866C 840.432,864.541 842.432,863.375 844.5,862.5 Z"/></g>
<g><path style="opacity:0.719" fill="#000000" d="M 1073.5,917.5 C 1077.22,917.05 1079.39,918.717 1080,922.5C 1080.67,940.593 1081,958.593 1081,976.5C 1080.59,976.957 1080.09,977.291 1079.5,977.5C 1076.99,971.101 1073.82,965.101 1070,959.5C 1069.33,947.167 1069.33,934.833 1070,922.5C 1070.7,920.416 1071.86,918.749 1073.5,917.5 Z"/></g>
<g><path style="opacity:0.74" fill="#000000" d="M 1865.5,928.5 C 1868.06,928.39 1870.39,929.056 1872.5,930.5C 1880.91,940.745 1888.75,951.412 1896,962.5C 1902.7,967.256 1906.87,973.589 1908.5,981.5C 1899.63,979.644 1892.13,975.311 1886,968.5C 1878.64,956.456 1870.31,945.122 1861,934.5C 1860.33,933.5 1860.33,932.5 1861,931.5C 1862.65,930.601 1864.15,929.601 1865.5,928.5 Z"/></g>
<g><path style="opacity:0.756" fill="#000000" d="M 793.5,937.5 C 801.964,936.763 804.131,940.096 800,947.5C 792.364,956.137 784.364,964.47 776,972.5C 774.877,975.249 773.377,977.749 771.5,980C 765.979,981.812 763.312,979.812 763.5,974C 763.615,971.268 764.448,968.768 766,966.5C 775.792,957.214 784.959,947.547 793.5,937.5 Z"/></g>
<g><path style="opacity:0.715" fill="#000000" d="M 1722.5,944.5 C 1727.73,944.623 1729.9,947.29 1729,952.5C 1724.49,960.18 1719.49,967.513 1714,974.5C 1712.99,976.025 1712.49,977.692 1712.5,979.5C 1707.56,978.556 1704.56,975.556 1703.5,970.5C 1704.19,967.912 1705.36,965.579 1707,963.5C 1712.2,957.057 1717.36,950.724 1722.5,944.5 Z"/></g>
<g><path style="opacity:0.707" fill="#000000" d="M 1082.5,992.5 C 1086.18,991.725 1088.68,993.059 1090,996.5C 1090.67,1009.17 1090.67,1021.83 1090,1034.5C 1089.6,1035.87 1089.1,1037.21 1088.5,1038.5C 1090.29,1040.86 1091.29,1043.53 1091.5,1046.5C 1090.45,1046.65 1089.45,1046.48 1088.5,1046C 1084.52,1042.7 1081.35,1038.87 1079,1034.5C 1078.33,1021.83 1078.33,1009.17 1079,996.5C 1079.69,994.65 1080.86,993.316 1082.5,992.5 Z"/></g>
<g><path style="opacity:0.72" fill="#000000" d="M 1910.5,996.5 C 1912.26,996.357 1913.93,996.691 1915.5,997.5C 1917.72,1000.07 1918.88,1003.07 1919,1006.5C 1925.53,1010.1 1931.53,1014.43 1937,1019.5C 1938.75,1022.67 1940.75,1025.67 1943,1028.5C 1943.49,1030.13 1943.66,1031.8 1943.5,1033.5C 1942.13,1033.66 1940.79,1033.49 1939.5,1033C 1931.19,1028.03 1922.85,1023.03 1914.5,1018C 1912.33,1015.83 1910.17,1013.67 1908,1011.5C 1905.34,1005.68 1906.18,1000.68 1910.5,996.5 Z"/></g>
<g><path style="opacity:0.728" fill="#000000" d="M 749.5,1006.5 C 752.249,1006.27 754.916,1006.61 757.5,1007.5C 758.631,1009.07 758.798,1010.74 758,1012.5C 752.375,1017.82 746.708,1023.16 741,1028.5C 739.333,1032.83 737.667,1037.17 736,1041.5C 730.08,1042.94 726.913,1040.44 726.5,1034C 728.179,1025.98 732.179,1019.31 738.5,1014C 742.233,1011.48 745.899,1008.98 749.5,1006.5 Z"/></g>
<g><path style="opacity:0.741" fill="#000000" d="M 1692.5,1008.5 C 1693.83,1008.5 1695.17,1008.5 1696.5,1008.5C 1696.66,1009.87 1696.49,1011.21 1696,1012.5C 1683.28,1030.63 1669.61,1047.96 1655,1064.5C 1652.58,1063.74 1651.24,1062.07 1651,1059.5C 1650.35,1056.41 1650.68,1053.41 1652,1050.5C 1662.12,1037.38 1672.62,1024.54 1683.5,1012C 1686.66,1010.97 1689.66,1009.81 1692.5,1008.5 Z"/></g>
<g><path style="opacity:0.728" fill="#000000" d="M 1949.5,1043.5 C 1951.94,1043.32 1954.1,1043.98 1956,1045.5C 1958.14,1059.78 1964.47,1071.78 1975,1081.5C 1975.73,1083.87 1976.57,1086.2 1977.5,1088.5C 1967.98,1088.65 1960.48,1084.65 1955,1076.5C 1951.74,1070.32 1948.74,1063.99 1946,1057.5C 1945.33,1054.5 1945.33,1051.5 1946,1048.5C 1946.26,1046.09 1947.42,1044.43 1949.5,1043.5 Z"/></g>
<g><path style="opacity:0.658" fill="#000000" d="M 709.5,1050.5 C 713.558,1049.69 716.224,1051.19 717.5,1055C 716.47,1057.56 715.303,1060.06 714,1062.5C 713.388,1070.17 712.722,1077.84 712,1085.5C 704.247,1097.34 696.247,1109.01 688,1120.5C 684.5,1124.67 681,1128.83 677.5,1133C 676.5,1133.67 675.5,1133.67 674.5,1133C 672.962,1131.07 671.795,1128.9 671,1126.5C 668.256,1115.39 671.422,1106.56 680.5,1100C 683.8,1098.12 687.134,1098.12 690.5,1100C 691.517,1101.05 691.684,1102.22 691,1103.5C 688,1107.5 685,1111.5 682,1115.5C 681.333,1116.83 681.333,1118.17 682,1119.5C 687.333,1112.17 692.667,1104.83 698,1097.5C 699.713,1093.91 701.547,1090.41 703.5,1087C 700.763,1076.75 700.93,1066.58 704,1056.5C 705.36,1053.98 707.193,1051.98 709.5,1050.5 Z"/></g>
<g><path style="opacity:0.745" fill="#000000" d="M 1101.5,1067.5 C 1102.5,1067.5 1103.5,1067.5 1104.5,1067.5C 1104.58,1068.93 1104.25,1070.26 1103.5,1071.5C 1104.85,1073.45 1105.52,1075.62 1105.5,1078C 1102.69,1091.07 1100.52,1104.23 1099,1117.5C 1096.27,1122.51 1092.93,1122.84 1089,1118.5C 1088.73,1103.57 1090.73,1088.9 1095,1074.5C 1096.69,1071.64 1098.86,1069.31 1101.5,1067.5 Z"/></g>
<g><path style="opacity:0.734" fill="#000000" d="M 1654.5,1074.5 C 1655.83,1074.5 1657.17,1074.5 1658.5,1074.5C 1658.66,1075.87 1658.49,1077.21 1658,1078.5C 1651.16,1088.84 1644.83,1099.5 1639,1110.5C 1637.93,1114.08 1637.26,1117.75 1637,1121.5C 1635.5,1123.76 1633.84,1125.76 1632,1127.5C 1626.26,1122 1624.93,1115.34 1628,1107.5C 1631.99,1098.18 1636.99,1089.51 1643,1081.5C 1647.18,1079.5 1651.01,1077.17 1654.5,1074.5 Z"/></g>
<g><path style="opacity:0.735" fill="#000000" d="M 1993.5,1109.5 C 1997.18,1108.73 1999.68,1110.06 2001,1113.5C 2001.16,1117.29 2001.83,1120.95 2003,1124.5C 2007.81,1128.39 2012.14,1132.73 2016,1137.5C 2017.41,1140 2017.58,1142.67 2016.5,1145.5C 2012.14,1145.4 2008.14,1144.23 2004.5,1142C 1999.97,1137.8 1995.8,1133.3 1992,1128.5C 1990.91,1125.06 1990.08,1121.56 1989.5,1118C 1989.8,1114.57 1991.13,1111.74 1993.5,1109.5 Z"/></g>
<g><path style="opacity:0.713" fill="#000000" d="M 1105.5,1127.5 C 1109.92,1127.08 1112.42,1129.08 1113,1133.5C 1113.67,1145.17 1113.67,1156.83 1113,1168.5C 1112.15,1171.52 1111.32,1174.52 1110.5,1177.5C 1106.58,1177.67 1103.75,1176 1102,1172.5C 1101.33,1158.83 1101.33,1145.17 1102,1131.5C 1102.69,1129.65 1103.86,1128.32 1105.5,1127.5 Z"/></g>
<g><path style="opacity:0.72" fill="#000000" d="M 1620.5,1162.5 C 1622.17,1162.5 1623.83,1162.5 1625.5,1162.5C 1625.91,1166.46 1625.08,1170.13 1623,1173.5C 1614.45,1182.05 1605.95,1190.55 1597.5,1199C 1596.21,1199.49 1594.87,1199.66 1593.5,1199.5C 1592.48,1192.81 1593.98,1186.81 1598,1181.5C 1604.92,1174.32 1612.42,1167.98 1620.5,1162.5 Z"/></g>
<g><path style="opacity:0.694" fill="#000000" d="M 2026.5,1173.5 C 2037.62,1177.12 2044.95,1184.62 2048.5,1196C 2046.44,1200.35 2046.11,1204.85 2047.5,1209.5C 2045.61,1209.7 2044.11,1209.04 2043,1207.5C 2039.6,1198.67 2034.27,1191.34 2027,1185.5C 2024.15,1181.51 2023.99,1177.51 2026.5,1173.5 Z"/></g>
<g><path style="opacity:0.659" fill="#000000" d="M 639.5,1175.5 C 645.131,1174.62 646.631,1176.62 644,1181.5C 639.385,1188.45 634.385,1195.12 629,1201.5C 627.574,1206.05 626.574,1210.72 626,1215.5C 622.858,1216.77 620.525,1215.77 619,1212.5C 618.233,1208.41 618.566,1204.41 620,1200.5C 625.569,1191.43 632.069,1183.1 639.5,1175.5 Z"/></g>
<g><path style="opacity:0.711" fill="#000000" d="M 1118.5,1208.5 C 1122.6,1208.43 1125.1,1210.43 1126,1214.5C 1126.18,1228.54 1126.68,1242.54 1127.5,1256.5C 1126.83,1257.95 1125.66,1258.61 1124,1258.5C 1118.9,1258.13 1115.9,1255.46 1115,1250.5C 1114.1,1237.45 1114.43,1224.45 1116,1211.5C 1116.7,1210.31 1117.53,1209.31 1118.5,1208.5 Z"/></g>
<g><path style="opacity:0.729" fill="#000000" d="M 596.5,1213.5 C 600.632,1213.89 604.632,1214.89 608.5,1216.5C 609.614,1217.72 609.781,1219.06 609,1220.5C 599.738,1222.97 592.071,1227.97 586,1235.5C 582.333,1240.17 578.667,1244.83 575,1249.5C 572.965,1252.56 571.799,1255.89 571.5,1259.5C 567.856,1259.29 565.689,1257.29 565,1253.5C 564.038,1249.18 564.705,1245.18 567,1241.5C 572.167,1235 577.333,1228.5 582.5,1222C 586.797,1218.36 591.463,1215.53 596.5,1213.5 Z"/></g>
<g><path style="opacity:0.72" fill="#000000" d="M 2055.5,1231.5 C 2059.27,1231.26 2062.94,1231.76 2066.5,1233C 2075.51,1239.33 2080.85,1247.99 2082.5,1259C 2081.52,1264.43 2079.86,1269.6 2077.5,1274.5C 2076.52,1274.02 2075.69,1273.36 2075,1272.5C 2073.18,1263.7 2070.18,1255.37 2066,1247.5C 2062.31,1244.47 2058.97,1241.14 2056,1237.5C 2055.5,1235.53 2055.34,1233.53 2055.5,1231.5 Z"/></g>
<g><path style="opacity:0.652" fill="#000000" d="M 1566.5,1245.5 C 1569.74,1245.41 1572.74,1246.08 1575.5,1247.5C 1575.5,1248.5 1575.5,1249.5 1575.5,1250.5C 1572.38,1250.64 1569.88,1251.98 1568,1254.5C 1562.31,1261.88 1557.64,1269.88 1554,1278.5C 1550.55,1279.76 1548.55,1278.43 1548,1274.5C 1547.33,1272.83 1547.33,1271.17 1548,1269.5C 1552.53,1260.15 1558.7,1252.15 1566.5,1245.5 Z"/></g>
<g><path style="opacity:0.635" fill="#000000" d="M 554.5,1270.5 C 555.5,1270.5 556.5,1270.5 557.5,1270.5C 557.579,1271.93 557.246,1273.26 556.5,1274.5C 554.092,1276.7 551.425,1278.36 548.5,1279.5C 548.779,1286.93 548.113,1294.26 546.5,1301.5C 542.458,1302.54 539.958,1300.88 539,1296.5C 538.333,1290.17 538.333,1283.83 539,1277.5C 539.5,1275.67 540.667,1274.5 542.5,1274C 546.868,1273.71 550.868,1272.54 554.5,1270.5 Z"/></g>
<g><path style="opacity:0.728" fill="#000000" d="M 1153.5,1288.5 C 1154.5,1288.5 1155.5,1288.5 1156.5,1288.5C 1154.61,1292.25 1152.44,1295.92 1150,1299.5C 1144.27,1316.01 1138.94,1332.68 1134,1349.5C 1128.89,1355.27 1125.05,1354.43 1122.5,1347C 1126.18,1331.8 1131.68,1317.3 1139,1303.5C 1142.73,1297.27 1147.56,1292.27 1153.5,1288.5 Z"/></g>
<g><path style="opacity:0.696" fill="#000000" d="M 526.5,1293.5 C 527.833,1293.5 529.167,1293.5 530.5,1293.5C 530.657,1294.87 530.49,1296.21 530,1297.5C 524.667,1307.5 519.333,1317.5 514,1327.5C 512.928,1332.38 511.261,1337.05 509,1341.5C 506.061,1344.51 503.728,1344.18 502,1340.5C 500.965,1333.85 501.965,1327.51 505,1321.5C 509.074,1309.64 516.24,1300.3 526.5,1293.5 Z"/></g>
<g><path style="opacity:0.716" fill="#000000" d="M 2087.5,1299.5 C 2089.53,1299.34 2091.53,1299.5 2093.5,1300C 2098.43,1304.72 2103.26,1309.55 2108,1314.5C 2110,1321.85 2108.66,1328.52 2104,1334.5C 2102.74,1334.24 2101.74,1333.57 2101,1332.5C 2098.22,1328.3 2096.88,1323.63 2097,1318.5C 2091.07,1315.57 2086.9,1311.07 2084.5,1305C 2085.12,1302.91 2086.12,1301.08 2087.5,1299.5 Z"/></g>
<g><path style="opacity:0.636" fill="#000000" d="M 1529.5,1301.5 C 1531.5,1301.5 1533.5,1301.5 1535.5,1301.5C 1530.06,1314.35 1522.56,1326.02 1513,1336.5C 1512,1340.17 1511,1343.83 1510,1347.5C 1508.33,1350.17 1506.67,1350.17 1505,1347.5C 1503.71,1342.89 1503.38,1338.22 1504,1333.5C 1512.71,1322.96 1521.21,1312.29 1529.5,1301.5 Z"/></g>
<g><path style="opacity:0.762" fill="#000000" d="M 409.5,1336.5 C 411.865,1337.01 414.199,1337.68 416.5,1338.5C 417.429,1339.69 417.762,1341.02 417.5,1342.5C 411.451,1342.63 405.785,1344.13 400.5,1347C 429.5,1347.33 458.5,1347.67 487.5,1348C 511.699,1351.18 520.199,1364.68 513,1388.5C 510.878,1407.53 505.544,1425.53 497,1442.5C 487.715,1454.45 476.549,1464.28 463.5,1472C 445.276,1483.23 425.61,1486.56 404.5,1482C 388.426,1477.89 375.259,1469.39 365,1456.5C 363.422,1453.34 362.422,1450.01 362,1446.5C 361.462,1431.82 361.795,1417.15 363,1402.5C 364.44,1376.44 375.606,1355.94 396.5,1341C 400.788,1339.02 405.122,1337.52 409.5,1336.5 Z M 392.5,1358.5 C 421.835,1358.33 451.169,1358.5 480.5,1359C 488.697,1358.76 495.863,1361.26 502,1366.5C 502.846,1388.6 499.18,1409.94 491,1430.5C 486.588,1439.15 480.421,1446.31 472.5,1452C 464.103,1458.06 455.437,1463.73 446.5,1469C 420.706,1477.18 397.706,1472.52 377.5,1455C 375.116,1452.62 373.616,1449.79 373,1446.5C 372.333,1430.83 372.333,1415.17 373,1399.5C 374.252,1391.49 376.585,1383.82 380,1376.5C 383.997,1370.34 388.164,1364.34 392.5,1358.5 Z"/></g>
<g><path style="opacity:0.639" fill="#000000" d="M 1139.5,1351.5 C 1140.82,1351.33 1141.99,1351.66 1143,1352.5C 1143.69,1362.26 1145.02,1371.93 1147,1381.5C 1151.47,1387.44 1155.97,1393.1 1160.5,1398.5C 1157.44,1398.86 1154.44,1399.53 1151.5,1400.5C 1149.7,1400.42 1148.03,1399.92 1146.5,1399C 1140.75,1393.84 1137.09,1387.51 1135.5,1380C 1137.63,1370.6 1138.96,1361.1 1139.5,1351.5 Z"/></g>
<g><path style="opacity:0.71" fill="#000000" d="M 2118.5,1362.5 C 2120.65,1362.37 2122.65,1362.87 2124.5,1364C 2127.24,1369.97 2131.07,1375.14 2136,1379.5C 2138.04,1383.84 2136.71,1386.84 2132,1388.5C 2127.89,1387.78 2124.55,1385.78 2122,1382.5C 2119.75,1377.67 2117.25,1373.01 2114.5,1368.5C 2114.94,1365.78 2116.27,1363.78 2118.5,1362.5 Z"/></g>
<g><path style="opacity:0.676" fill="#000000" d="M 1503.5,1366.5 C 1504.5,1366.5 1505.5,1366.5 1506.5,1366.5C 1506.77,1371.91 1506.27,1377.25 1505,1382.5C 1500.8,1391.36 1495.8,1399.69 1490,1407.5C 1486.93,1412.28 1483.6,1412.61 1480,1408.5C 1479.52,1406.09 1479.85,1403.75 1481,1401.5C 1484.95,1395.22 1489.28,1389.22 1494,1383.5C 1496.66,1377.51 1499.82,1371.85 1503.5,1366.5 Z"/></g>
<g><path style="opacity:0.739" fill="#000000" d="M 415.5,1368.5 C 420.343,1367.84 423.51,1369.84 425,1374.5C 426.083,1383.82 427.083,1393.15 428,1402.5C 428.491,1406.83 430.491,1410.16 434,1412.5C 436.286,1419.31 433.786,1422.48 426.5,1422C 421.456,1418.1 418.289,1412.93 417,1406.5C 414.519,1393.9 414.019,1381.23 415.5,1368.5 Z"/></g>
<g><path style="opacity:0.778" fill="#000000" d="M 519.5,1399.5 C 538.564,1401.01 557.564,1403.18 576.5,1406C 595.167,1406.33 613.833,1406.67 632.5,1407C 637.754,1408.65 643.087,1409.98 648.5,1411C 659.569,1411.81 670.569,1413.15 681.5,1415C 690.136,1418.98 698.803,1422.98 707.5,1427C 725.84,1431.11 743.84,1436.45 761.5,1443C 779.555,1454.36 798.221,1464.7 817.5,1474C 828.272,1477.03 838.938,1480.36 849.5,1484C 868.037,1492.4 886.703,1500.4 905.5,1508C 916.167,1511.67 926.833,1515.33 937.5,1519C 939.844,1519.84 941.844,1521.17 943.5,1523C 964.376,1525.85 983.709,1532.85 1001.5,1544C 1006.04,1548.37 1010.38,1552.87 1014.5,1557.5C 1020.03,1559.91 1025.53,1562.25 1031,1564.5C 1032.17,1563.33 1033.33,1562.17 1034.5,1561C 1031.55,1554.94 1028.72,1548.77 1026,1542.5C 1020.25,1538.04 1014.09,1534.21 1007.5,1531C 1002.01,1526.21 996.842,1521.04 992,1515.5C 988.501,1511.39 988.668,1507.56 992.5,1504C 994.167,1503.33 995.833,1503.33 997.5,1504C 1002.27,1509.52 1007.27,1514.86 1012.5,1520C 1018,1523.59 1023.67,1526.92 1029.5,1530C 1035.84,1535.53 1040.01,1542.36 1042,1550.5C 1046.74,1555.04 1047.74,1560.38 1045,1566.5C 1037.3,1574.53 1029.3,1582.2 1021,1589.5C 1014.58,1598.59 1007.42,1607.09 999.5,1615C 995.975,1616.83 993.141,1615.99 991,1612.5C 990.516,1610.09 990.85,1607.75 992,1605.5C 999.396,1599.1 1005.73,1591.77 1011,1583.5C 1014.17,1580.33 1017.33,1577.17 1020.5,1574C 1019.83,1573.33 1019.17,1572.67 1018.5,1572C 1015.73,1571.47 1013.06,1570.64 1010.5,1569.5C 1005.01,1564.84 1000.01,1559.68 995.5,1554C 978.712,1543.18 960.379,1536.51 940.5,1534C 927.261,1527.7 913.595,1522.36 899.5,1518C 882.452,1510.87 865.452,1503.54 848.5,1496C 838.085,1491.92 827.418,1488.58 816.5,1486C 795.432,1476.3 775.099,1465.3 755.5,1453C 745.62,1450.26 735.953,1446.93 726.5,1443C 710.272,1441.04 695.272,1435.7 681.5,1427C 671.254,1425.01 660.921,1423.68 650.5,1423C 644.383,1422.18 638.383,1420.84 632.5,1419C 599.578,1420.05 566.911,1417.71 534.5,1412C 528.167,1411.67 521.833,1411.33 515.5,1411C 511.067,1408.67 510.4,1405.5 513.5,1401.5C 515.657,1400.95 517.657,1400.28 519.5,1399.5 Z"/></g>
<g><path style="opacity:0.715" fill="#000000" d="M 1136.5,1425.5 C 1138.5,1425.5 1140.5,1425.5 1142.5,1425.5C 1142.67,1426.82 1142.34,1427.99 1141.5,1429C 1143.03,1431.62 1144.03,1434.45 1144.5,1437.5C 1143.09,1448.11 1142.42,1458.78 1142.5,1469.5C 1144.5,1469.5 1146.5,1469.5 1148.5,1469.5C 1148.72,1470.68 1148.39,1471.68 1147.5,1472.5C 1143.48,1473.79 1139.64,1475.46 1136,1477.5C 1133.54,1477.11 1131.87,1475.78 1131,1473.5C 1130.67,1459.8 1131.34,1446.13 1133,1432.5C 1134.19,1430.11 1135.36,1427.78 1136.5,1425.5 Z"/></g>
<g><path style="opacity:0.697" fill="#000000" d="M 2124.5,1425.5 C 2127.92,1425.13 2130.42,1426.46 2132,1429.5C 2132.23,1436.86 2132.73,1444.2 2133.5,1451.5C 2131.72,1456.56 2128.38,1458.06 2123.5,1456C 2122.3,1455.1 2121.47,1453.93 2121,1452.5C 2120.33,1445.5 2120.33,1438.5 2121,1431.5C 2121.42,1428.97 2122.59,1426.97 2124.5,1425.5 Z"/></g>
<g><path style="opacity:0.695" fill="#000000" d="M 1456.5,1431.5 C 1458.98,1431.05 1460.98,1431.72 1462.5,1433.5C 1456.17,1440.15 1451.34,1447.81 1448,1456.5C 1441.82,1463.33 1434.66,1468.83 1426.5,1473C 1419.71,1473.73 1417.54,1470.9 1420,1464.5C 1433.61,1455.06 1445.78,1444.06 1456.5,1431.5 Z"/></g>
<g><path style="opacity:0.73" fill="#000000" d="M 510.5,1447.5 C 521.775,1446.63 532.775,1447.8 543.5,1451C 546.417,1453.17 546.917,1455.67 545,1458.5C 543.49,1460.21 541.99,1461.87 540.5,1463.5C 531.426,1459.09 521.759,1457.26 511.5,1458C 509.58,1456.88 507.58,1456.04 505.5,1455.5C 505.536,1451.8 507.203,1449.13 510.5,1447.5 Z"/></g>
<g><path style="opacity:0.729" fill="#000000" d="M 571.5,1470.5 C 581.484,1471.17 591.484,1471.67 601.5,1472C 610.737,1475.65 614.237,1482.15 612,1491.5C 610.612,1492.55 609.112,1492.72 607.5,1492C 604.305,1490.31 601.972,1487.81 600.5,1484.5C 593.524,1483.67 586.524,1483.17 579.5,1483C 573.375,1483.27 568.708,1480.94 565.5,1476C 565.667,1475.17 565.833,1474.33 566,1473.5C 567.876,1472.39 569.709,1471.39 571.5,1470.5 Z"/></g>
<g><path style="opacity:0.78" fill="#000000" d="M 2087.5,1470.5 C 2106.84,1470.33 2126.17,1470.5 2145.5,1471C 2192.35,1474.01 2230.51,1493.51 2260,1529.5C 2268.28,1545.36 2268.61,1561.36 2261,1577.5C 2244.73,1595.45 2225.9,1609.95 2204.5,1621C 2197.11,1624.1 2189.45,1626.1 2181.5,1627C 2155.9,1629.55 2130.9,1626.89 2106.5,1619C 2093.9,1614.45 2083.07,1607.29 2074,1597.5C 2066.09,1586.46 2062.92,1574.13 2064.5,1560.5C 2054.75,1560.92 2045.09,1560.42 2035.5,1559C 2030.85,1553.91 2031.85,1550.58 2038.5,1549C 2047.16,1548.5 2055.83,1548.33 2064.5,1548.5C 2065.3,1538.37 2066.97,1528.37 2069.5,1518.5C 2065.39,1504.88 2066.89,1491.88 2074,1479.5C 2077.52,1474.84 2082.02,1471.84 2087.5,1470.5 Z M 2087.5,1482.5 C 2090.19,1482.34 2092.85,1482.5 2095.5,1483C 2088.96,1487.87 2083.46,1493.71 2079,1500.5C 2078.9,1493.04 2081.73,1487.04 2087.5,1482.5 Z M 2129.5,1482.5 C 2176.33,1480.82 2215.49,1497.15 2247,1531.5C 2254.13,1541.36 2256.47,1552.36 2254,1564.5C 2253.28,1566.95 2252.28,1569.28 2251,1571.5C 2234.61,1589.24 2215.44,1603.07 2193.5,1613C 2190.21,1613.88 2186.88,1614.55 2183.5,1615C 2169.5,1615.67 2155.5,1615.67 2141.5,1615C 2119.59,1613.62 2100.42,1605.79 2084,1591.5C 2080.61,1587.38 2078.27,1582.71 2077,1577.5C 2072.92,1549.35 2077.92,1523.02 2092,1498.5C 2095.17,1494.67 2098.33,1490.83 2101.5,1487C 2110.7,1484.26 2120.03,1483.76 2129.5,1485.5C 2129.5,1484.5 2129.5,1483.5 2129.5,1482.5 Z M 2109.5,1516.5 C 2111.83,1516.5 2114.17,1516.5 2116.5,1516.5C 2116.3,1518.39 2116.96,1519.89 2118.5,1521C 2114.36,1520.9 2110.36,1519.9 2106.5,1518C 2107.74,1517.77 2108.74,1517.27 2109.5,1516.5 Z"/></g>
<g><path style="opacity:0.691" fill="#000000" d="M 1405.5,1491.5 C 1407.17,1491.5 1408.83,1491.5 1410.5,1491.5C 1411.4,1496.98 1409.9,1501.65 1406,1505.5C 1401.81,1509.26 1397.14,1512.26 1392,1514.5C 1387.15,1512.62 1385.82,1509.29 1388,1504.5C 1394.3,1500.69 1400.13,1496.36 1405.5,1491.5 Z"/></g>
<g><path style="opacity:0.708" fill="#000000" d="M 628.5,1506.5 C 638.34,1507.37 648.006,1509.2 657.5,1512C 661.415,1514.25 662.415,1517.41 660.5,1521.5C 649.655,1521.86 638.988,1520.36 628.5,1517C 624.605,1513.51 624.605,1510.01 628.5,1506.5 Z"/></g>
<g><path style="opacity:0.718" fill="#000000" d="M 1129.5,1507.5 C 1133.28,1508.45 1136.94,1509.79 1140.5,1511.5C 1141.39,1512.32 1141.72,1513.32 1141.5,1514.5C 1140.17,1514.5 1138.83,1514.5 1137.5,1514.5C 1138.69,1522.57 1141.19,1530.24 1145,1537.5C 1148.31,1535.35 1151.15,1532.69 1153.5,1529.5C 1154.64,1534.29 1154.14,1538.95 1152,1543.5C 1148.11,1549.96 1142.94,1551.12 1136.5,1547C 1132.22,1538.16 1128.72,1529 1126,1519.5C 1124.59,1514.56 1125.76,1510.56 1129.5,1507.5 Z"/></g>
<g><path style="opacity:0.75" fill="#000000" d="M 2096.5,1509.5 C 2102.87,1509.49 2109.2,1509.99 2115.5,1511C 2117.33,1512.17 2119.17,1513.33 2121,1514.5C 2121.29,1516.89 2121.79,1519.22 2122.5,1521.5C 2123.5,1521.83 2124.5,1522.17 2125.5,1522.5C 2140.45,1524.03 2155.45,1524.86 2170.5,1525C 2173.26,1525.51 2174.59,1527.18 2174.5,1530C 2174.52,1532.31 2173.52,1533.97 2171.5,1535C 2146.78,1537.5 2122.45,1535.33 2098.5,1528.5C 2097.98,1537.17 2101.32,1544 2108.5,1549C 2124.11,1561.14 2141.45,1570.14 2160.5,1576C 2163.17,1580 2162.5,1583.33 2158.5,1586C 2145.17,1586.67 2131.83,1586.67 2118.5,1586C 2105.27,1585.37 2093.11,1581.53 2082,1574.5C 2079.9,1569.5 2081.56,1566.5 2087,1565.5C 2100.37,1572.39 2114.54,1575.22 2129.5,1574C 2115.63,1567.46 2103.46,1558.62 2093,1547.5C 2087.39,1536.33 2087.06,1525 2092,1513.5C 2093.4,1511.93 2094.9,1510.6 2096.5,1509.5 Z M 2109.5,1516.5 C 2108.74,1517.27 2107.74,1517.77 2106.5,1518C 2110.36,1519.9 2114.36,1520.9 2118.5,1521C 2116.96,1519.89 2116.3,1518.39 2116.5,1516.5C 2114.17,1516.5 2111.83,1516.5 2109.5,1516.5 Z"/></g>
<g><path style="opacity:0.735" fill="#000000" d="M 1377.5,1524.5 C 1378.83,1524.5 1380.17,1524.5 1381.5,1524.5C 1381.14,1528.26 1380.31,1531.93 1379,1535.5C 1370.81,1550.55 1363.14,1565.89 1356,1581.5C 1351.08,1584.73 1347.58,1583.56 1345.5,1578C 1351.58,1564.35 1358.08,1550.85 1365,1537.5C 1368.7,1532.64 1372.86,1528.3 1377.5,1524.5 Z"/></g>
<g><path style="opacity:0.722" fill="#000000" d="M 686.5,1525.5 C 696.112,1526.71 705.778,1527.54 715.5,1528C 719.276,1528.59 722.943,1529.59 726.5,1531C 727.833,1532.67 727.833,1534.33 726.5,1536C 713.336,1540.87 700.336,1540.37 687.5,1534.5C 685.456,1531.64 685.123,1528.64 686.5,1525.5 Z"/></g>
<g><path style="opacity:0.713" fill="#000000" d="M 738.5,1536.5 C 742.182,1536.33 745.848,1536.5 749.5,1537C 759.396,1542.13 769.729,1545.96 780.5,1548.5C 780.64,1550.12 779.973,1551.29 778.5,1552C 772.895,1553.49 767.228,1554.16 761.5,1554C 753.894,1550.32 746.227,1547.66 738.5,1546C 734.581,1542.84 734.581,1539.67 738.5,1536.5 Z"/></g>
<g><path style="opacity:0.694" fill="#000000" d="M 798.5,1551.5 C 811.504,1551.33 824.504,1551.5 837.5,1552C 841.357,1554.02 843.357,1557.18 843.5,1561.5C 841.032,1560.25 838.699,1560.42 836.5,1562C 823.833,1562.67 811.167,1562.67 798.5,1562C 790.627,1558.46 790.627,1554.96 798.5,1551.5 Z"/></g>
<g><path style="opacity:0.736" fill="#000000" d="M 2012.5,1556.5 C 2020.84,1556.52 2023.01,1560.18 2019,1567.5C 2006.97,1579.95 1992.47,1585.11 1975.5,1583C 1973.23,1581.23 1971.56,1579.07 1970.5,1576.5C 1970.82,1575.35 1971.48,1574.52 1972.5,1574C 1988.98,1574.8 2002.31,1568.97 2012.5,1556.5 Z"/></g>
<g><path style="opacity:0.694" fill="#000000" d="M 869.5,1565.5 C 871.5,1565.5 873.5,1565.5 875.5,1565.5C 875.36,1567.12 876.027,1568.29 877.5,1569C 885.809,1571.6 894.142,1574.1 902.5,1576.5C 905.844,1582.47 904.011,1585.47 897,1585.5C 887.576,1583.52 878.409,1580.69 869.5,1577C 865.581,1573.17 865.581,1569.34 869.5,1565.5 Z"/></g>
<g><path style="opacity:0.735" fill="#000000" d="M 1934.5,1570.5 C 1942.45,1572.8 1943.45,1576.97 1937.5,1583C 1934.91,1584.2 1932.24,1585.2 1929.5,1586C 1918.99,1587.1 1908.49,1588.26 1898,1589.5C 1892.36,1589.9 1887.86,1587.9 1884.5,1583.5C 1885.69,1581.47 1887.36,1579.97 1889.5,1579C 1901.43,1577.01 1913.43,1575.68 1925.5,1575C 1929.11,1574.53 1932.11,1573.03 1934.5,1570.5 Z"/></g>
<g><path style="opacity:0.614" fill="#000000" d="M 1860.5,1574.5 C 1866.37,1573.7 1868.71,1576.04 1867.5,1581.5C 1860.79,1584.71 1854.46,1588.54 1848.5,1593C 1840.08,1594.88 1832.08,1597.88 1824.5,1602C 1821.17,1602.67 1817.83,1602.67 1814.5,1602C 1813.66,1600.99 1813.33,1599.82 1813.5,1598.5C 1816.94,1598.7 1820.27,1598.2 1823.5,1597C 1829.26,1593.78 1835.26,1591.12 1841.5,1589C 1847.18,1583.18 1853.52,1578.34 1860.5,1574.5 Z"/></g>
<g><path style="opacity:0.753" fill="#000000" d="M 1787.5,1576.5 C 1793.4,1575.45 1797.74,1577.45 1800.5,1582.5C 1799.38,1583.91 1798.38,1585.41 1797.5,1587C 1792.83,1588 1788.17,1589 1783.5,1590C 1772.86,1595.82 1761.86,1600.82 1750.5,1605C 1747.69,1605.63 1744.86,1606.13 1742,1606.5C 1734.49,1605.84 1732.66,1602.34 1736.5,1596C 1741.11,1594.84 1745.77,1593.84 1750.5,1593C 1762.7,1586.9 1775.03,1581.4 1787.5,1576.5 Z"/></g>
<g><path style="opacity:0.739" fill="#000000" d="M 1168.5,1595.5 C 1170.92,1595.29 1173.25,1595.63 1175.5,1596.5C 1176.43,1597.69 1176.76,1599.02 1176.5,1600.5C 1175.18,1600.33 1174.01,1600.66 1173,1601.5C 1172.5,1608.83 1172.33,1616.16 1172.5,1623.5C 1179.75,1621.78 1187.08,1620.45 1194.5,1619.5C 1202.2,1619.11 1204.53,1622.28 1201.5,1629C 1192.86,1631 1184.2,1633 1175.5,1635C 1173.29,1645.45 1175.95,1654.78 1183.5,1663C 1187.65,1665.07 1191.98,1666.57 1196.5,1667.5C 1198.07,1665.58 1200.07,1664.58 1202.5,1664.5C 1201.33,1668.5 1198.66,1671 1194.5,1672C 1180.82,1677.08 1171.66,1672.58 1167,1658.5C 1163.92,1652.18 1162.42,1645.52 1162.5,1638.5C 1143.91,1641.56 1125.24,1642.06 1106.5,1640C 1098.39,1638.53 1095.06,1633.7 1096.5,1625.5C 1096.97,1609.44 1104.97,1603.27 1120.5,1607C 1127.51,1606.7 1131.34,1609.86 1132,1616.5C 1131.59,1616.96 1131.09,1617.29 1130.5,1617.5C 1128.48,1615.64 1126.31,1613.98 1124,1612.5C 1119.89,1613.42 1115.73,1614.26 1111.5,1615C 1110.3,1615.9 1109.47,1617.07 1109,1618.5C 1108.5,1621.82 1108.33,1625.15 1108.5,1628.5C 1126.59,1630.19 1144.59,1629.53 1162.5,1626.5C 1163.13,1618.49 1163.97,1610.49 1165,1602.5C 1165.89,1599.97 1167.06,1597.64 1168.5,1595.5 Z"/></g>
<g><path style="opacity:0.707" fill="#000000" d="M 939.5,1596.5 C 944.643,1598.68 950.143,1600.01 956,1600.5C 962.128,1599.39 968.294,1599.23 974.5,1600C 980.731,1603.5 980.731,1607.17 974.5,1611C 964.793,1611.79 955.126,1611.45 945.5,1610C 937.178,1607.88 935.178,1603.38 939.5,1596.5 Z"/></g>
<g><path style="opacity:0.685" fill="#000000" d="M 1651.5,1602.5 C 1656.54,1601.91 1661.21,1602.91 1665.5,1605.5C 1666.68,1607.2 1666.68,1608.86 1665.5,1610.5C 1663.83,1611.33 1662.17,1612.17 1660.5,1613C 1650.2,1614.52 1639.87,1615.19 1629.5,1615C 1626.69,1611.91 1627.36,1609.58 1631.5,1608C 1638.29,1606.14 1644.96,1604.31 1651.5,1602.5 Z"/></g>
<g><path style="opacity:0.728" fill="#000000" d="M 1333.5,1604.5 C 1339.37,1605.2 1341.53,1608.54 1340,1614.5C 1331.8,1626 1320.8,1633.67 1307,1637.5C 1301.98,1636.39 1300.31,1633.39 1302,1628.5C 1312.73,1623.77 1322.39,1617.44 1331,1609.5C 1331.85,1607.81 1332.68,1606.14 1333.5,1604.5 Z"/></g>
<g><path style="opacity:0.673" fill="#000000" d="M 1567.5,1608.5 C 1570.58,1608.26 1573.58,1608.59 1576.5,1609.5C 1577.83,1611.35 1577.5,1612.85 1575.5,1614C 1564.5,1617.67 1553.5,1621.33 1542.5,1625C 1537.48,1625.5 1532.48,1625.33 1527.5,1624.5C 1527.18,1622.28 1527.84,1620.44 1529.5,1619C 1542.91,1617.8 1555.58,1614.3 1567.5,1608.5 Z"/></g>
<g><path style="opacity:0.716" fill="#000000" d="M 1009.5,1616.5 C 1017.18,1617.84 1024.85,1619.34 1032.5,1621C 1037.69,1623.09 1038.69,1626.42 1035.5,1631C 1033.86,1631.6 1032.2,1632.1 1030.5,1632.5C 1023.79,1631.19 1017.12,1629.69 1010.5,1628C 1003.11,1624.37 1002.77,1620.53 1009.5,1616.5 Z"/></g>
<g><path style="opacity:0.72" fill="#000000" d="M 1470.5,1623.5 C 1475.84,1623.33 1481.18,1623.5 1486.5,1624C 1490.06,1625.26 1493.73,1626.09 1497.5,1626.5C 1497.5,1627.83 1497.5,1629.17 1497.5,1630.5C 1486.06,1632.46 1474.72,1634.96 1463.5,1638C 1456.63,1641.85 1449.46,1645.02 1442,1647.5C 1440.5,1649.17 1439,1650.84 1437.5,1652.5C 1433.19,1647.16 1433.86,1642.33 1439.5,1638C 1449.42,1632.04 1459.76,1627.2 1470.5,1623.5 Z"/></g>
<g><path style="opacity:0.661" fill="#000000" d="M 1411.5,1643.5 C 1415.82,1643.23 1419.99,1643.89 1424,1645.5C 1426.93,1647.16 1427.09,1648.99 1424.5,1651C 1417.42,1652.35 1410.42,1654.01 1403.5,1656C 1390.41,1664.55 1376.08,1668.38 1360.5,1667.5C 1360.5,1666.17 1360.5,1664.83 1360.5,1663.5C 1369.17,1663.83 1377.17,1661.67 1384.5,1657C 1392.57,1650.49 1401.57,1645.99 1411.5,1643.5 Z"/></g>
<g><path style="opacity:0.578" fill="#000000" d="M 1328.5,1665.5 C 1332.21,1665.42 1335.88,1665.76 1339.5,1666.5C 1339.71,1668.14 1339.38,1669.64 1338.5,1671C 1330.02,1672.38 1321.68,1674.38 1313.5,1677C 1302.13,1677.77 1290.8,1677.6 1279.5,1676.5C 1279.5,1675.17 1279.5,1673.83 1279.5,1672.5C 1296.58,1674.23 1312.91,1671.9 1328.5,1665.5 Z"/></g>
</svg>
