<?xml version="1.0" encoding="UTF-8"?>
<!DOCTYPE svg PUBLIC "-//W3C//DTD SVG 1.1//EN" "http://www.w3.org/Graphics/SVG/1.1/DTD/svg11.dtd">
<svg xmlns="http://www.w3.org/2000/svg" version="1.1" width="2550px" height="2550px" style="shape-rendering:geometricPrecision; text-rendering:geometricPrecision; image-rendering:optimizeQuality; fill-rule:evenodd; clip-rule:evenodd" xmlns:xlink="http://www.w3.org/1999/xlink">
<g><path style="opacity:0.779" fill="#000000" d="M 1075.5,485.5 C 1081.18,485.334 1086.84,485.501 1092.5,486C 1093.97,486.71 1094.64,487.876 1094.5,489.5C 1090.21,490.182 1085.87,490.349 1081.5,490C 1077.73,491.049 1074.07,492.382 1070.5,494C 1072.82,495.204 1075.32,496.038 1078,496.5C 1087.19,493.157 1096.36,492.991 1105.5,496C 1106.26,497.512 1107.26,498.846 1108.5,500C 1134.39,507.11 1158.72,517.777 1181.5,532C 1183.38,533.543 1184.88,535.376 1186,537.5C 1186.67,541.833 1186.67,546.167 1186,550.5C 1182.67,559.326 1178.17,567.493 1172.5,575C 1152.01,586.08 1131.67,597.413 1111.5,609C 1107.32,610.796 1102.98,612.129 1098.5,613C 1083.5,613.667 1068.5,613.667 1053.5,613C 1045.88,612.042 1039.71,608.542 1035,602.5C 1025.87,586.859 1022.37,570.025 1024.5,552C 1023.27,537.384 1025.11,523.218 1030,509.5C 1034.92,502.573 1041.09,497.073 1048.5,493C 1057.64,490.548 1066.64,488.048 1075.5,485.5 Z M 1054.5,502.5 C 1061.89,502.706 1062.22,504.206 1055.5,507C 1049.92,511.871 1050.42,515.704 1057,518.5C 1063.73,515.22 1070.56,512.053 1077.5,509C 1084.54,508.755 1091.54,509.255 1098.5,510.5C 1098.96,514.584 1098.29,518.417 1096.5,522C 1086.39,530.553 1074.72,535.553 1061.5,537C 1057.54,541.147 1058.21,544.48 1063.5,547C 1079.17,547.667 1094.83,547.667 1110.5,547C 1114.27,546.595 1117.93,545.761 1121.5,544.5C 1124.09,545.073 1125.09,546.739 1124.5,549.5C 1125.68,549.719 1126.68,549.386 1127.5,548.5C 1127.87,545.428 1129.04,542.761 1131,540.5C 1132.68,535.345 1130.84,532.345 1125.5,531.5C 1116.77,534.814 1107.77,535.981 1098.5,535C 1106.9,529.917 1111.06,522.417 1111,512.5C 1133.32,519.578 1154.49,529.245 1174.5,541.5C 1175.48,544.497 1175.31,547.497 1174,550.5C 1171.14,554.888 1168.81,559.554 1167,564.5C 1148.98,573.868 1131.48,584.035 1114.5,595C 1109.61,597.277 1104.61,599.277 1099.5,601C 1084.17,601.667 1068.83,601.667 1053.5,601C 1048.61,600.444 1045.11,597.944 1043,593.5C 1039.66,586.491 1037.33,579.158 1036,571.5C 1035.13,555.134 1035.46,538.801 1037,522.5C 1040.21,513.462 1046.04,506.795 1054.5,502.5 Z"/></g>
<g><path style="opacity:0.7" fill="#000000" d="M 1194.5,566.5 C 1214.07,568.039 1233.4,571.206 1252.5,576C 1253.5,576.5 1254.5,577 1255.5,577.5C 1256.52,578.002 1256.69,578.668 1256,579.5C 1251.99,581.752 1247.66,582.752 1243,582.5C 1224.91,579.27 1206.75,576.603 1188.5,574.5C 1188.34,572.801 1188.51,571.134 1189,569.5C 1191.06,568.771 1192.89,567.771 1194.5,566.5 Z"/></g>
<g><path style="opacity:0.747" fill="#000000" d="M 1265.5,579.5 C 1267.65,579.372 1269.65,579.872 1271.5,581C 1274.23,584.396 1277.56,587.063 1281.5,589C 1293.56,593.863 1305.89,597.863 1318.5,601C 1327.57,604.771 1327.57,608.104 1318.5,611C 1301.65,609.052 1285.65,604.052 1270.5,596C 1266.22,593.557 1263.22,590.057 1261.5,585.5C 1261.94,582.775 1263.27,580.775 1265.5,579.5 Z"/></g>
<g><path style="opacity:0.732" fill="#000000" d="M 1029.5,616.5 C 1034.09,615.418 1037.09,617.085 1038.5,621.5C 1032.08,633.169 1024.08,643.669 1014.5,653C 1012.03,655.094 1009.36,655.594 1006.5,654.5C 1005.55,656.908 1004.21,659.075 1002.5,661C 993.855,665.412 986.688,671.579 981,679.5C 979.872,681.345 979.372,683.345 979.5,685.5C 977.278,685.822 975.444,685.155 974,683.5C 971.698,678.295 972.031,673.295 975,668.5C 982.133,660.848 990.3,654.515 999.5,649.5C 1000.17,649.833 1000.83,650.167 1001.5,650.5C 1011.1,641.297 1019.27,630.963 1026,619.5C 1027.15,618.364 1028.31,617.364 1029.5,616.5 Z"/></g>
<g><path style="opacity:0.751" fill="#000000" d="M 1352.5,622.5 C 1354.26,622.357 1355.93,622.691 1357.5,623.5C 1358.71,625.422 1360.04,627.255 1361.5,629C 1374.83,633 1388.17,637 1401.5,641C 1409.46,645.003 1409.46,648.836 1401.5,652.5C 1385.21,648.595 1369.21,643.762 1353.5,638C 1347.34,632.97 1347.01,627.803 1352.5,622.5 Z"/></g>
<g><path style="opacity:0.724" fill="#000000" d="M 1089.5,632.5 C 1090.5,632.5 1091.5,632.5 1092.5,632.5C 1092.93,636.288 1093.93,639.955 1095.5,643.5C 1095.62,656.325 1095.45,669.325 1095,682.5C 1091.4,689.124 1087.73,689.124 1084,682.5C 1083.11,668.126 1083.44,653.792 1085,639.5C 1085.69,636.5 1087.19,634.167 1089.5,632.5 Z"/></g>
<g><path style="opacity:0.737" fill="#000000" d="M 1440.5,648.5 C 1448.48,647.782 1456.15,648.949 1463.5,652C 1469.25,656.289 1475.08,660.456 1481,664.5C 1483.47,670.712 1481.3,673.545 1474.5,673C 1467.9,669.395 1461.57,665.395 1455.5,661C 1446.86,659.874 1438.19,659.041 1429.5,658.5C 1429.1,655.518 1429.77,652.851 1431.5,650.5C 1434.64,649.911 1437.64,649.244 1440.5,648.5 Z"/></g>
<g><path style="opacity:0.679" fill="#000000" d="M 1507.5,672.5 C 1510.85,672.335 1514.18,672.502 1517.5,673C 1524.75,675.311 1532.08,677.311 1539.5,679C 1543.18,680.926 1544.18,683.759 1542.5,687.5C 1540.67,686.956 1538.67,686.956 1536.5,687.5C 1526.84,685.225 1517.18,683.058 1507.5,681C 1502.26,678.063 1502.26,675.23 1507.5,672.5 Z"/></g>
<g><path style="opacity:0.738" fill="#000000" d="M 1624.5,682.5 C 1640.66,681.738 1656.66,682.905 1672.5,686C 1702.69,692.963 1732.35,701.629 1761.5,712C 1777.59,718.003 1783.92,729.503 1780.5,746.5C 1783.45,776.438 1771.45,797.938 1744.5,811C 1739.37,813.156 1734.03,814.489 1728.5,815C 1704.15,815.868 1679.81,815.535 1655.5,814C 1640.28,813.625 1625.95,809.958 1612.5,803C 1608.61,800.404 1605.78,796.904 1604,792.5C 1595.41,751.552 1608.91,720.385 1644.5,699C 1648.6,697.994 1652.76,697.494 1657,697.5C 1662.18,697.943 1667.35,698.109 1672.5,698C 1656.33,694.661 1640,693.661 1623.5,695C 1619.05,697.114 1615.55,700.281 1613,704.5C 1612.08,708.241 1611.08,711.908 1610,715.5C 1600.76,698.407 1605.59,687.407 1624.5,682.5 Z M 1681.5,701.5 C 1706.51,706.092 1731.17,712.926 1755.5,722C 1760.08,723.871 1764.25,726.371 1768,729.5C 1769.73,743.853 1769.73,758.186 1768,772.5C 1760.22,789.29 1747.39,799.79 1729.5,804C 1697.36,805.598 1665.36,804.265 1633.5,800C 1626.18,798.999 1620.01,795.832 1615,790.5C 1606.94,754.162 1618.11,725.662 1648.5,705C 1656.82,703.934 1665.15,703.101 1673.5,702.5C 1676.49,703.748 1679.49,703.748 1682.5,702.5C 1682.38,701.893 1682.04,701.56 1681.5,701.5 Z"/></g>
<g><path style="opacity:0.749" fill="#000000" d="M 966.5,692.5 C 974.099,693.532 975.766,697.032 971.5,703C 959.401,709.424 948.734,717.758 939.5,728C 928.128,734.686 917.461,742.353 907.5,751C 902.405,753.621 899.071,752.121 897.5,746.5C 904.26,734.24 913.593,724.406 925.5,717C 928.833,716.667 932.167,716.333 935.5,716C 944.338,705.97 954.671,698.137 966.5,692.5 Z"/></g>
<g><path style="opacity:0.625" fill="#000000" d="M 1554.5,697.5 C 1559.24,699.031 1563.9,700.864 1568.5,703C 1573.44,704.951 1578.27,704.784 1583,702.5C 1588.24,703.306 1590.24,706.306 1589,711.5C 1587.82,713.357 1586.15,714.357 1584,714.5C 1576.24,711.803 1568.41,709.303 1560.5,707C 1557.33,704.478 1555.33,701.312 1554.5,697.5 Z"/></g>
<g><path style="opacity:0.717" fill="#000000" d="M 1094.5,704.5 C 1096.86,704.337 1099.19,704.503 1101.5,705C 1102.7,705.903 1103.53,707.069 1104,708.5C 1104.33,711.167 1104.67,713.833 1105,716.5C 1111.34,725.837 1112.84,735.837 1109.5,746.5C 1111.4,748.867 1111.9,751.534 1111,754.5C 1109.67,753.833 1108.33,753.167 1107,752.5C 1104.25,749.422 1101.91,746.089 1100,742.5C 1099.67,738.833 1099.33,735.167 1099,731.5C 1097,726.833 1095,722.167 1093,717.5C 1092.15,712.979 1092.65,708.645 1094.5,704.5 Z"/></g>
<g><path style="opacity:0.776" fill="#000000" d="M 1671.5,732.5 C 1688.84,732.333 1706.17,732.5 1723.5,733C 1729.36,735.536 1732.02,740.036 1731.5,746.5C 1731.63,749.87 1730.96,753.037 1729.5,756C 1727.04,757.562 1724.38,758.562 1721.5,759C 1714.83,759.333 1708.17,759.667 1701.5,760C 1709.22,764.21 1714.55,770.377 1717.5,778.5C 1717.53,782.612 1715.53,785.112 1711.5,786C 1688.12,786.959 1664.78,786.625 1641.5,785C 1637.61,783.573 1633.78,782.073 1630,780.5C 1627.43,775.303 1628.93,771.97 1634.5,770.5C 1640.04,772.513 1645.7,774.013 1651.5,775C 1668.5,775.667 1685.5,775.667 1702.5,775C 1693.41,767.787 1683.41,762.12 1672.5,758C 1670.03,755.046 1670.03,752.046 1672.5,749C 1688.48,747.681 1704.48,747.181 1720.5,747.5C 1720.5,746.167 1720.5,744.833 1720.5,743.5C 1693.17,744.119 1665.83,744.285 1638.5,744C 1633.3,740.574 1633.3,737.24 1638.5,734C 1649.67,733.83 1660.67,733.33 1671.5,732.5 Z"/></g>
<g><path style="opacity:0.702" fill="#000000" d="M 881.5,762.5 C 883.5,762.5 885.5,762.5 887.5,762.5C 887.67,763.822 887.337,764.989 886.5,766C 883.567,767.271 880.901,768.938 878.5,771C 871.974,776.862 865.474,782.695 859,788.5C 858.007,792.442 857.34,796.442 857,800.5C 843.298,809.524 830.132,819.357 817.5,830C 815.866,830.494 814.199,830.66 812.5,830.5C 810.966,826.912 811.466,823.579 814,820.5C 822.172,815.415 830.172,810.081 838,804.5C 839.972,800.895 842.639,797.895 846,795.5C 846.427,786.812 849.927,779.646 856.5,774C 864.161,768.455 872.494,764.622 881.5,762.5 Z"/></g>
<g><path style="opacity:0.717" fill="#000000" d="M 1109.5,763.5 C 1113.54,764.479 1116.04,767.145 1117,771.5C 1117.29,786.842 1117.79,802.175 1118.5,817.5C 1117.02,825.813 1115.52,834.146 1114,842.5C 1113.29,843.973 1112.12,844.64 1110.5,844.5C 1110.45,838.616 1109.28,832.949 1107,827.5C 1105.73,809.514 1105.39,791.514 1106,773.5C 1106.9,770.049 1108.06,766.716 1109.5,763.5 Z"/></g>
<g><path style="opacity:0.71" fill="#000000" d="M 1781.5,802.5 C 1785.78,803.612 1788.61,806.279 1790,810.5C 1796.03,815.013 1802.36,819.013 1809,822.5C 1812.15,826.265 1812.98,830.432 1811.5,835C 1812.57,838.094 1813.23,841.26 1813.5,844.5C 1812.32,844.719 1811.32,844.386 1810.5,843.5C 1806,835.682 1799.67,829.848 1791.5,826C 1787.05,823.217 1782.88,820.05 1779,816.5C 1775.2,810.698 1776.03,806.031 1781.5,802.5 Z"/></g>
<g><path style="opacity:0.898" fill="#000000" d="M 1715.5,821.5 C 1716.55,825.652 1717.39,829.985 1718,834.5C 1727.76,852.767 1735.76,871.767 1742,891.5C 1753.07,913.98 1765.4,935.646 1779,956.5C 1797.85,982.857 1817.18,1008.86 1837,1034.5C 1846.09,1049.93 1857.09,1063.93 1870,1076.5C 1901.85,1113.2 1929.52,1152.86 1953,1195.5C 1960,1205.83 1967,1216.17 1974,1226.5C 1980.04,1232.87 1985.71,1239.54 1991,1246.5C 2006.97,1260.8 2022.63,1275.47 2038,1290.5C 2040.72,1293.56 2043.06,1296.89 2045,1300.5C 2045.66,1307.52 2043.16,1309.02 2037.5,1305C 2035.21,1304.18 2032.88,1303.51 2030.5,1303C 2032.5,1302.67 2034.5,1302.33 2036.5,1302C 2025.83,1290 2014.5,1278.67 2002.5,1268C 2000.5,1266.67 1998.5,1265.33 1996.5,1264C 1968.63,1235.44 1945.8,1203.27 1928,1167.5C 1902.67,1129.82 1874.67,1094.16 1844,1060.5C 1838.67,1052.5 1833.33,1044.5 1828,1036.5C 1803.84,1005.34 1780.84,973.337 1759,940.5C 1750.54,926.58 1742.87,912.247 1736,897.5C 1728.67,878.167 1721.33,858.833 1714,839.5C 1711.54,833.126 1712.04,827.126 1715.5,821.5 Z"/></g>
<g><path style="opacity:0.75" fill="#000000" d="M 1644.5,835.5 C 1648.81,834.536 1651.81,836.036 1653.5,840C 1650.81,855.711 1644.81,870.045 1635.5,883C 1636.45,883.483 1637.45,883.649 1638.5,883.5C 1640.11,887.424 1639.61,891.091 1637,894.5C 1630.53,903.934 1623.7,913.101 1616.5,922C 1610.59,923.041 1608.09,920.541 1609,914.5C 1614.5,905.519 1620.5,896.852 1627,888.5C 1627.48,887.552 1627.65,886.552 1627.5,885.5C 1626.5,885.5 1625.5,885.5 1624.5,885.5C 1623.99,883.488 1623.82,881.488 1624,879.5C 1632.37,868.086 1638.04,855.419 1641,841.5C 1641.93,839.308 1643.09,837.308 1644.5,835.5 Z"/></g>
<g><path style="opacity:0.697" fill="#000000" d="M 1122.5,850.5 C 1126.35,849.845 1129.19,851.179 1131,854.5C 1131.67,866.167 1131.67,877.833 1131,889.5C 1128.23,892.943 1126.89,896.943 1127,901.5C 1126,902.833 1125,902.833 1124,901.5C 1124.19,896.648 1122.86,892.315 1120,888.5C 1119.33,877.167 1119.33,865.833 1120,854.5C 1120.66,853.016 1121.5,851.683 1122.5,850.5 Z"/></g>
<g><path style="opacity:0.719" fill="#000000" d="M 794.5,853.5 C 801.766,854.697 803.6,858.364 800,864.5C 792.309,872.863 783.476,879.697 773.5,885C 771.963,886.11 771.297,887.61 771.5,889.5C 770.022,889.762 768.689,889.429 767.5,888.5C 765.805,885.33 765.305,881.996 766,878.5C 772.188,872.983 778.688,867.817 785.5,863C 788.641,859.813 791.641,856.646 794.5,853.5 Z"/></g>
<g><path style="opacity:0.775" fill="#000000" d="M 1573.5,855.5 C 1576.73,855.856 1578.89,857.523 1580,860.5C 1580.28,886.17 1579.95,911.837 1579,937.5C 1575.14,944.001 1570.97,944.168 1566.5,938C 1563.85,937.503 1561.19,937.336 1558.5,937.5C 1558.5,936.5 1558.5,935.5 1558.5,934.5C 1561.45,934.777 1564.28,934.444 1567,933.5C 1567.71,913.504 1568.21,893.504 1568.5,873.5C 1561.6,875.302 1554.93,877.802 1548.5,881C 1551.32,881.343 1553.99,880.843 1556.5,879.5C 1559.57,879.45 1561.74,880.783 1563,883.5C 1563.67,886.167 1563.67,888.833 1563,891.5C 1558.84,899.995 1553.5,907.661 1547,914.5C 1543.66,921.849 1539.33,928.516 1534,934.5C 1530.64,943.18 1527.31,951.846 1524,960.5C 1515.26,970.247 1505.09,978.081 1493.5,984C 1491.67,985.833 1489.83,987.667 1488,989.5C 1483.08,999.014 1478.41,1008.68 1474,1018.5C 1465.7,1027.8 1457.03,1036.8 1448,1045.5C 1445.92,1049.99 1443.59,1054.33 1441,1058.5C 1433.73,1066.78 1426.06,1074.78 1418,1082.5C 1414.18,1086.81 1410.84,1091.48 1408,1096.5C 1402.17,1101.67 1396.33,1106.83 1390.5,1112C 1376.15,1124.68 1365.31,1139.85 1358,1157.5C 1354.24,1162.68 1350.24,1167.68 1346,1172.5C 1338.23,1185.7 1331.23,1199.36 1325,1213.5C 1314.7,1225.75 1306.7,1239.42 1301,1254.5C 1295.17,1262.16 1289.84,1270.16 1285,1278.5C 1282.2,1282.3 1279.04,1285.8 1275.5,1289C 1271.05,1291.78 1266.88,1294.95 1263,1298.5C 1253.09,1312.66 1243.42,1326.99 1234,1341.5C 1221.8,1355.37 1208.63,1368.2 1194.5,1380C 1189.04,1382.82 1183.71,1385.82 1178.5,1389C 1169.8,1397.1 1161.8,1405.76 1154.5,1415C 1168.5,1415.33 1182.5,1415.67 1196.5,1416C 1213.35,1415.61 1227.52,1421.44 1239,1433.5C 1243.05,1437.88 1246.71,1442.55 1250,1447.5C 1251.56,1449.96 1252.56,1452.62 1253,1455.5C 1253.67,1468.17 1253.67,1480.83 1253,1493.5C 1252.21,1501.75 1249.21,1509.09 1244,1515.5C 1229.09,1533.69 1211.25,1548.19 1190.5,1559C 1185.64,1561.07 1180.64,1562.73 1175.5,1564C 1151.18,1565.97 1126.84,1565.97 1102.5,1564C 1071.52,1561.01 1056.19,1544.01 1056.5,1513C 1056.34,1499.13 1058.51,1485.63 1063,1472.5C 1068.31,1460.23 1073.81,1448.07 1079.5,1436C 1075.78,1435.76 1072.11,1435.26 1068.5,1434.5C 1066.05,1432 1065.88,1429.34 1068,1426.5C 1081.62,1422.85 1094.78,1418.02 1107.5,1412C 1114.22,1411.23 1120.89,1411.56 1127.5,1413C 1128.17,1413.67 1128.83,1414.33 1129.5,1415C 1136.16,1415.5 1142.83,1415.67 1149.5,1415.5C 1150.29,1412.19 1151.79,1409.19 1154,1406.5C 1161.05,1398.46 1167.71,1390.12 1174,1381.5C 1184.46,1373.38 1194.63,1364.88 1204.5,1356C 1210.97,1348.53 1217.8,1341.36 1225,1334.5C 1234.33,1320.5 1243.67,1306.5 1253,1292.5C 1257.85,1287 1263.35,1282.34 1269.5,1278.5C 1272.52,1275.31 1275.35,1271.98 1278,1268.5C 1282.25,1260.32 1287.25,1252.65 1293,1245.5C 1299.03,1229.76 1307.37,1215.42 1318,1202.5C 1319.67,1198.5 1321.33,1194.5 1323,1190.5C 1328.76,1181.98 1333.76,1172.98 1338,1163.5C 1341.33,1159.5 1344.67,1155.5 1348,1151.5C 1359.2,1126.82 1375.87,1106.48 1398,1090.5C 1408.26,1076.74 1419.43,1063.74 1431.5,1051.5C 1434.44,1047.95 1436.61,1043.95 1438,1039.5C 1447.03,1030.8 1455.7,1021.8 1464,1012.5C 1468.85,1002.95 1473.52,993.288 1478,983.5C 1485,975.754 1493.17,969.587 1502.5,965C 1506.24,961.383 1510.07,957.883 1514,954.5C 1518.18,944.959 1522.18,935.293 1526,925.5C 1533.27,913.969 1541.27,902.969 1550,892.5C 1550.5,891 1551,889.5 1551.5,888C 1548.44,886.319 1545.27,884.819 1542,883.5C 1536.83,885.034 1531.5,885.7 1526,885.5C 1521.08,885.577 1516.25,885.077 1511.5,884C 1509.18,880.25 1509.01,876.416 1511,872.5C 1514.88,869.412 1518.04,869.912 1520.5,874C 1526.24,874.789 1531.9,874.456 1537.5,873C 1545.72,869.39 1554.05,866.057 1562.5,863C 1566.34,860.637 1570.01,858.137 1573.5,855.5 Z M 1105.5,1427.5 C 1137.17,1427.33 1168.84,1427.5 1200.5,1428C 1208.33,1428.23 1215.67,1430.23 1222.5,1434C 1229.76,1440.26 1235.93,1447.42 1241,1455.5C 1241.67,1468.83 1241.67,1482.17 1241,1495.5C 1240.23,1499.05 1238.89,1502.38 1237,1505.5C 1221.38,1525.11 1202.22,1540.28 1179.5,1551C 1176.53,1551.79 1173.53,1552.46 1170.5,1553C 1149.83,1553.67 1129.17,1553.67 1108.5,1553C 1098.62,1552.2 1089.29,1549.53 1080.5,1545C 1074.51,1540.18 1070.67,1534.02 1069,1526.5C 1066.88,1508.01 1068.88,1490.01 1075,1472.5C 1079.87,1462.22 1084.53,1451.88 1089,1441.5C 1091.92,1436.83 1095.42,1432.66 1099.5,1429C 1101.71,1428.81 1103.71,1428.31 1105.5,1427.5 Z"/></g>
<g><path style="opacity:0.743" fill="#000000" d="M 1834.5,862.5 C 1836.99,862.298 1839.32,862.798 1841.5,864C 1845.09,869.591 1849.42,874.591 1854.5,879C 1865.94,887.808 1877.11,896.975 1888,906.5C 1890.74,911.443 1892.24,916.776 1892.5,922.5C 1872.13,908.964 1852.96,893.297 1835,875.5C 1832.07,871.121 1831.9,866.787 1834.5,862.5 Z"/></g>
<g><path style="opacity:0.723" fill="#000000" d="M 759.5,905.5 C 763.046,906.043 765.379,908.043 766.5,911.5C 765.253,914.329 763.753,916.995 762,919.5C 754.253,924.576 747.087,930.409 740.5,937C 735.89,938.579 731.557,940.413 727.5,942.5C 726.962,937.785 727.962,933.452 730.5,929.5C 740.211,921.447 749.877,913.447 759.5,905.5 Z"/></g>
<g><path style="opacity:0.717" fill="#000000" d="M 1126.5,912.5 C 1129.1,912.549 1131.27,913.549 1133,915.5C 1137.81,926.692 1139.48,938.359 1138,950.5C 1135.88,956.31 1134.71,962.31 1134.5,968.5C 1133.17,968.5 1131.83,968.5 1130.5,968.5C 1130.4,963.231 1129.23,958.231 1127,953.5C 1127.39,941.703 1125.89,930.203 1122.5,919C 1122.22,915.703 1123.56,913.536 1126.5,912.5 Z"/></g>
<g><path style="opacity:0.73" fill="#000000" d="M 1894.5,946.5 C 1899.78,946.949 1902.61,949.949 1903,955.5C 1912.38,963.368 1921.38,971.702 1930,980.5C 1932.05,986.823 1933.88,993.157 1935.5,999.5C 1932.11,997.95 1929.44,995.45 1927.5,992C 1915.41,982.577 1903.91,972.41 1893,961.5C 1889.44,956.08 1889.94,951.08 1894.5,946.5 Z"/></g>
<g><path style="opacity:0.6" fill="#000000" d="M 1568.5,954.5 C 1572.81,953.536 1575.81,955.036 1577.5,959C 1576.14,962.212 1574.64,965.378 1573,968.5C 1567.03,973.225 1561.2,978.058 1555.5,983C 1547.53,986.63 1540.7,991.797 1535,998.5C 1535.31,1002.46 1534.15,1006.12 1531.5,1009.5C 1525.49,1014.32 1519.15,1018.32 1512.5,1021.5C 1514.35,1012.65 1518.68,1005.15 1525.5,999C 1527.39,998.027 1529.39,997.36 1531.5,997C 1536.07,990.091 1541.91,984.591 1549,980.5C 1555.27,971.625 1561.77,962.958 1568.5,954.5 Z"/></g>
<g><path style="opacity:0.728" fill="#000000" d="M 712.5,955.5 C 719.141,955.476 721.307,958.476 719,964.5C 712.14,972.694 704.64,980.194 696.5,987C 695.167,987.667 693.833,987.667 692.5,987C 690.214,983.583 690.048,980.083 692,976.5C 699.036,969.632 705.869,962.632 712.5,955.5 Z"/></g>
<g><path style="opacity:0.709" fill="#000000" d="M 1132.5,977.5 C 1136.17,977.327 1138.67,978.993 1140,982.5C 1142.42,998.008 1140.09,1012.67 1133,1026.5C 1131.77,1031.09 1131.27,1035.75 1131.5,1040.5C 1130.17,1040.5 1128.83,1040.5 1127.5,1040.5C 1126.83,1033.84 1126.17,1027.17 1125.5,1020.5C 1127.98,1007.99 1129.15,995.326 1129,982.5C 1129.7,980.416 1130.86,978.749 1132.5,977.5 Z"/></g>
<g><path style="opacity:0.724" fill="#000000" d="M 674.5,992.5 C 681.587,990.923 684.753,993.59 684,1000.5C 675.167,1006 666.333,1011.5 657.5,1017C 655.32,1020.89 653.986,1025.05 653.5,1029.5C 652.448,1029.35 651.448,1029.52 650.5,1030C 650.927,1032.13 650.427,1034.29 649,1036.5C 638.055,1046.47 626.389,1055.47 614,1063.5C 613.506,1065.13 613.34,1066.8 613.5,1068.5C 609.285,1068.12 606.785,1065.79 606,1061.5C 605.448,1058.58 606.115,1055.91 608,1053.5C 614.239,1048.63 620.739,1044.13 627.5,1040C 632.467,1036.03 637.134,1031.7 641.5,1027C 643.747,1025.35 646.08,1025.01 648.5,1026C 645.765,1015.8 649.098,1008.13 658.5,1003C 663.727,999.228 669.061,995.728 674.5,992.5 Z"/></g>
<g><path style="opacity:0.696" fill="#000000" d="M 1938.5,1012.5 C 1940.72,1012.18 1942.56,1012.84 1944,1014.5C 1946.7,1021.88 1951.03,1028.21 1957,1033.5C 1958.56,1038.1 1960.56,1042.43 1963,1046.5C 1964.25,1050.38 1963.08,1051.71 1959.5,1050.5C 1957.23,1046.51 1953.89,1043.68 1949.5,1042C 1944.25,1037.42 1939.75,1032.26 1936,1026.5C 1933.37,1021 1934.21,1016.33 1938.5,1012.5 Z"/></g>
<g><path style="opacity:0.658" fill="#000000" d="M 1492.5,1035.5 C 1495.83,1035.5 1499.17,1035.5 1502.5,1035.5C 1502.53,1037.58 1501.86,1039.42 1500.5,1041C 1491.62,1047.94 1481.96,1053.61 1471.5,1058C 1469.56,1058.91 1468.56,1060.41 1468.5,1062.5C 1467.17,1062.5 1465.83,1062.5 1464.5,1062.5C 1463.35,1057.14 1465.01,1052.98 1469.5,1050C 1477.23,1045.14 1484.9,1040.31 1492.5,1035.5 Z"/></g>
<g><path style="opacity:0.73" fill="#000000" d="M 1138.5,1056.5 C 1141.33,1056.16 1143.49,1057.16 1145,1059.5C 1147.3,1071.7 1147.97,1084.03 1147,1096.5C 1143.67,1101.83 1140.33,1101.83 1137,1096.5C 1136.72,1086.45 1135.89,1076.45 1134.5,1066.5C 1134.19,1062.46 1135.52,1059.13 1138.5,1056.5 Z"/></g>
<g><path style="opacity:0.718" fill="#000000" d="M 1979.5,1072.5 C 1980.87,1072.34 1982.21,1072.51 1983.5,1073C 1985.04,1074.88 1986.88,1076.38 1989,1077.5C 1993.48,1087.12 1998.48,1096.45 2004,1105.5C 2004.21,1110.78 2005.04,1115.94 2006.5,1121C 2006.49,1122.4 2005.99,1123.57 2005,1124.5C 1999.96,1117.83 1994.96,1111.16 1990,1104.5C 1986.51,1097.01 1982.85,1089.68 1979,1082.5C 1979.05,1079.2 1979.21,1075.87 1979.5,1072.5 Z"/></g>
<g><path style="opacity:0.74" fill="#000000" d="M 1457.5,1078.5 C 1461.12,1078.47 1463.45,1080.13 1464.5,1083.5C 1457.9,1096.93 1448.57,1108.1 1436.5,1117C 1431.72,1118.07 1427.06,1119.23 1422.5,1120.5C 1422.34,1118.8 1422.51,1117.13 1423,1115.5C 1430.95,1107.55 1438.95,1099.55 1447,1091.5C 1449.58,1086.27 1453.08,1081.94 1457.5,1078.5 Z"/></g>
<g><path style="opacity:0.667" fill="#000000" d="M 586.5,1082.5 C 588.604,1082.2 590.604,1082.53 592.5,1083.5C 592.333,1083.83 592.167,1084.17 592,1084.5C 587.936,1087.78 584.436,1091.61 581.5,1096C 578.333,1098.5 575.167,1101 572,1103.5C 570.302,1106.4 570.136,1109.4 571.5,1112.5C 566.226,1112.58 562.726,1115.25 561,1120.5C 553.333,1128.17 545.667,1135.83 538,1143.5C 537.814,1149.08 536.314,1154.25 533.5,1159C 530.702,1159.56 528.869,1158.39 528,1155.5C 525.448,1148.47 526.115,1141.8 530,1135.5C 539.342,1124.49 550.175,1115.32 562.5,1108C 563.525,1105.93 564.358,1103.76 565,1101.5C 572.089,1094.9 579.256,1088.57 586.5,1082.5 Z"/></g>
<g><path style="opacity:0.715" fill="#000000" d="M 1140.5,1126.5 C 1141.68,1126.28 1142.68,1126.61 1143.5,1127.5C 1144.41,1129.66 1145.58,1131.66 1147,1133.5C 1147.5,1140.5 1148,1147.5 1148.5,1154.5C 1148.52,1157.92 1148.02,1161.26 1147,1164.5C 1142.64,1167.33 1139.31,1166.33 1137,1161.5C 1136.33,1152.17 1136.33,1142.83 1137,1133.5C 1138.19,1131.11 1139.36,1128.78 1140.5,1126.5 Z"/></g>
<g><path style="opacity:0.682" fill="#000000" d="M 2013.5,1140.5 C 2015.65,1140.37 2017.65,1140.87 2019.5,1142C 2025.16,1146.65 2029.66,1152.15 2033,1158.5C 2033.61,1162.52 2033.44,1166.52 2032.5,1170.5C 2033.37,1175.54 2034.37,1180.54 2035.5,1185.5C 2033.41,1185.44 2031.91,1184.44 2031,1182.5C 2027.39,1174.94 2024.05,1167.27 2021,1159.5C 2017.3,1156.13 2013.96,1152.47 2011,1148.5C 2010.34,1145.32 2011.17,1142.65 2013.5,1140.5 Z"/></g>
<g><path style="opacity:0.693" fill="#000000" d="M 1416.5,1143.5 C 1417.5,1143.5 1418.5,1143.5 1419.5,1143.5C 1419.43,1145.7 1418.77,1147.7 1417.5,1149.5C 1410.16,1155.74 1402.99,1162.07 1396,1168.5C 1395.36,1171.61 1394.19,1174.44 1392.5,1177C 1394.13,1177.49 1395.8,1177.66 1397.5,1177.5C 1397.38,1179.48 1398.05,1181.15 1399.5,1182.5C 1390.66,1196.84 1379.16,1208.84 1365,1218.5C 1362.01,1216.18 1361.01,1213.18 1362,1209.5C 1364.67,1205.5 1368,1202.17 1372,1199.5C 1378.16,1191.18 1383.83,1182.51 1389,1173.5C 1390.78,1159.38 1398.61,1150.55 1412.5,1147C 1413.73,1145.6 1415.06,1144.43 1416.5,1143.5 Z"/></g>
<g><path style="opacity:0.756" fill="#000000" d="M 402.5,1208.5 C 409.489,1206.01 416.489,1203.51 423.5,1201C 431.833,1200.33 440.167,1200.33 448.5,1201C 455.643,1203.36 462.977,1204.7 470.5,1205C 473.196,1205.76 475.696,1206.93 478,1208.5C 478.029,1203.65 478.862,1198.98 480.5,1194.5C 485.7,1189.13 491.367,1184.3 497.5,1180C 504.424,1173.29 510.757,1166.13 516.5,1158.5C 517.736,1157.75 519.07,1157.42 520.5,1157.5C 519.284,1163.59 516.451,1168.92 512,1173.5C 504.079,1182.6 495.079,1190.27 485,1196.5C 482.723,1200.93 481.723,1205.6 482,1210.5C 485.667,1213.17 489.333,1215.83 493,1218.5C 495.814,1221.96 497.98,1225.79 499.5,1230C 511.676,1236.42 524.342,1241.75 537.5,1246C 543.566,1250.4 549.9,1254.4 556.5,1258C 559.753,1259.04 563.086,1259.7 566.5,1260C 578.511,1260.48 590.511,1261.14 602.5,1262C 614.197,1266.14 626.197,1269.14 638.5,1271C 655.804,1272.95 673.137,1274.62 690.5,1276C 698.736,1277.06 706.736,1279.06 714.5,1282C 717.167,1284 719.833,1286 722.5,1288C 731.672,1290.25 739.672,1294.58 746.5,1301C 749.833,1302.67 753.167,1304.33 756.5,1306C 780.489,1313.33 804.489,1320.66 828.5,1328C 840.97,1334.4 853.97,1339.4 867.5,1343C 875.146,1342.36 882.146,1344.03 888.5,1348C 908.324,1352.86 928.324,1356.86 948.5,1360C 961.684,1366.53 974.351,1373.87 986.5,1382C 990.294,1387.45 995.461,1390.95 1002,1392.5C 1002.22,1391.06 1002.72,1389.73 1003.5,1388.5C 1010.13,1388.23 1015.63,1390.56 1020,1395.5C 1022.12,1398.5 1021.96,1401.34 1019.5,1404C 1022.72,1403.5 1025.55,1402 1028,1399.5C 1028.67,1397.83 1028.67,1396.17 1028,1394.5C 1024.18,1390.19 1020.84,1385.52 1018,1380.5C 1013.42,1371.01 1008.59,1361.68 1003.5,1352.5C 1001.81,1349.98 999.643,1347.98 997,1346.5C 994.5,1338.33 997.333,1335.5 1005.5,1338C 1007.67,1340.17 1009.83,1342.33 1012,1344.5C 1018.18,1354.85 1023.84,1365.52 1029,1376.5C 1032.73,1381.23 1036.06,1386.23 1039,1391.5C 1041.15,1401.04 1037.98,1408.2 1029.5,1413C 1013.36,1421.15 996.859,1428.65 980,1435.5C 973.681,1433.41 972.514,1429.91 976.5,1425C 990.287,1418.94 1003.95,1412.61 1017.5,1406C 1004.32,1406.16 992.318,1402.49 981.5,1395C 979.004,1391.08 975.67,1388.08 971.5,1386C 963.5,1381.33 955.5,1376.67 947.5,1372C 930.183,1368.67 912.849,1365.33 895.5,1362C 889.084,1360.64 883.084,1358.31 877.5,1355C 868.161,1355.13 859.161,1353.47 850.5,1350C 842.717,1346.94 835.05,1343.61 827.5,1340C 801.787,1332.15 776.12,1324.15 750.5,1316C 743.66,1312.75 737.327,1308.75 731.5,1304C 727.23,1302.18 722.897,1300.52 718.5,1299C 714.411,1295.91 710.077,1293.24 705.5,1291C 698.604,1289.13 691.604,1287.8 684.5,1287C 659.485,1286.15 634.819,1282.81 610.5,1277C 608.167,1276 605.833,1275 603.5,1274C 587.446,1273.21 571.446,1271.87 555.5,1270C 551.714,1268.61 548.048,1266.94 544.5,1265C 540.689,1261.26 536.356,1258.26 531.5,1256C 520.149,1252.17 509.149,1247.67 498.5,1242.5C 494.718,1268.12 480.051,1282.95 454.5,1287C 425.539,1304.76 394.872,1308.43 362.5,1298C 360.383,1296.27 358.883,1294.1 358,1291.5C 352.942,1245.93 370.608,1212.93 411,1192.5C 416.504,1192.84 417.67,1195.17 414.5,1199.5C 410.432,1202.52 406.432,1205.52 402.5,1208.5 Z M 402.5,1208.5 C 402.027,1209.91 401.027,1210.57 399.5,1210.5C 399.973,1209.09 400.973,1208.43 402.5,1208.5 Z M 398.5,1211.5 C 393.986,1216.42 394.653,1220.42 400.5,1223.5C 406.286,1219.93 412.619,1218.59 419.5,1219.5C 419.5,1218.5 419.5,1217.5 419.5,1216.5C 418.127,1216.66 416.793,1216.49 415.5,1216C 417.949,1215.28 420.283,1214.28 422.5,1213C 431.167,1212.33 439.833,1212.33 448.5,1213C 455.394,1214.84 462.394,1216.17 469.5,1217C 475.529,1219.68 480.862,1223.35 485.5,1228C 482.87,1231.23 483.036,1234.39 486,1237.5C 487.245,1252.51 481.412,1264.01 468.5,1272C 462.537,1273.79 456.537,1275.46 450.5,1277C 443.379,1280.64 436.213,1284.14 429,1287.5C 428.55,1285.48 427.717,1283.65 426.5,1282C 427.913,1279.61 428.58,1277.28 428.5,1275C 426.723,1272.85 425.223,1273.01 424,1275.5C 423.667,1261.5 423.333,1247.5 423,1233.5C 419.387,1228.36 415.72,1228.36 412,1233.5C 411.077,1249.88 411.41,1266.21 413,1282.5C 414.247,1285.33 415.747,1288 417.5,1290.5C 401.126,1293.3 384.792,1292.97 368.5,1289.5C 365.689,1269.69 368.855,1250.69 378,1232.5C 383.019,1223.65 389.852,1216.65 398.5,1211.5 Z"/></g>
<g><path style="opacity:0.733" fill="#000000" d="M 1174.5,1194.5 C 1175.82,1194.33 1176.99,1194.66 1178,1195.5C 1179,1197.5 1180,1199.5 1181,1201.5C 1181.67,1212.17 1181.67,1222.83 1181,1233.5C 1179.33,1239.25 1175.83,1241.09 1170.5,1239C 1168.04,1236.34 1167.88,1233.5 1170,1230.5C 1170.33,1220.83 1170.67,1211.17 1171,1201.5C 1172.18,1199.14 1173.35,1196.81 1174.5,1194.5 Z"/></g>
<g><path style="opacity:0.726" fill="#000000" d="M 2041.5,1203.5 C 2043.59,1203.32 2045.59,1203.65 2047.5,1204.5C 2053.23,1208.94 2058.4,1213.94 2063,1219.5C 2064.13,1222.09 2064.96,1224.75 2065.5,1227.5C 2064.82,1230.18 2064.16,1232.84 2063.5,1235.5C 2057.64,1234.79 2054.14,1231.46 2053,1225.5C 2048.97,1221.13 2044.63,1217.13 2040,1213.5C 2037.94,1209.74 2038.44,1206.41 2041.5,1203.5 Z"/></g>
<g><path style="opacity:0.713" fill="#000000" d="M 1351.5,1238.5 C 1352.5,1238.5 1353.5,1238.5 1354.5,1238.5C 1352.97,1242.59 1351.13,1246.59 1349,1250.5C 1341.17,1257 1334,1264.17 1327.5,1272C 1325.02,1272.96 1322.52,1273.79 1320,1274.5C 1317.52,1280.13 1314.52,1285.46 1311,1290.5C 1305.17,1296.33 1299.33,1302.17 1293.5,1308C 1284.95,1312.6 1276.62,1317.1 1268.5,1321.5C 1268.34,1319.8 1268.51,1318.13 1269,1316.5C 1283.81,1301.36 1298.98,1286.53 1314.5,1272C 1316.13,1271.51 1317.8,1271.34 1319.5,1271.5C 1319.08,1265.92 1320.92,1261.25 1325,1257.5C 1329.5,1253 1334,1248.5 1338.5,1244C 1341.57,1242.15 1344.9,1241.15 1348.5,1241C 1349.57,1240.15 1350.57,1239.31 1351.5,1238.5 Z"/></g>
<g><path style="opacity:0.722" fill="#000000" d="M 2078.5,1248.5 C 2080.99,1248.3 2083.32,1248.8 2085.5,1250C 2093.05,1256.92 2096.21,1265.42 2095,1275.5C 2091.3,1279.58 2087.97,1279.25 2085,1274.5C 2084.21,1267.92 2081.54,1262.25 2077,1257.5C 2076.21,1254.26 2076.71,1251.26 2078.5,1248.5 Z"/></g>
<g><path style="opacity:0.168" fill="#000000" d="M 1133.5,1252.5 C 1137.38,1253.53 1139.38,1256.19 1139.5,1260.5C 1134.18,1260.57 1132.18,1257.91 1133.5,1252.5 Z"/></g>
<g><path style="opacity:0.708" fill="#000000" d="M 1150.5,1259.5 C 1155.18,1258.46 1158.35,1260.12 1160,1264.5C 1161.11,1275.53 1162.27,1286.53 1163.5,1297.5C 1166.17,1297.17 1168.83,1296.83 1171.5,1296.5C 1169.12,1303.71 1164.12,1307.21 1156.5,1307C 1155.07,1306.53 1153.9,1305.7 1153,1304.5C 1152.02,1293.97 1150.52,1283.47 1148.5,1273C 1148.69,1270.64 1149.02,1268.31 1149.5,1266C 1148.62,1264.2 1147.95,1262.37 1147.5,1260.5C 1148.79,1260.74 1149.79,1260.4 1150.5,1259.5 Z"/></g>
<g><path style="opacity:0.741" fill="#000000" d="M 497.5,1268.5 C 506.955,1269.59 516.288,1271.43 525.5,1274C 529.833,1274.33 534.167,1274.67 538.5,1275C 543.835,1277.62 544.501,1280.96 540.5,1285C 538.466,1286.01 536.3,1286.51 534,1286.5C 519.895,1284.85 506.062,1282.01 492.5,1278C 491.124,1273.25 492.79,1270.09 497.5,1268.5 Z"/></g>
<g><path style="opacity:0.89" fill="#000000" d="M 2066.5,1269.5 C 2068.39,1269.3 2069.89,1269.96 2071,1271.5C 2071.67,1274.83 2071.67,1278.17 2071,1281.5C 2063.24,1301.51 2054.07,1320.68 2043.5,1339C 2042.17,1339.67 2040.83,1339.67 2039.5,1339C 2026.17,1332 2012.83,1325 1999.5,1318C 1992.23,1316.82 1984.9,1316.15 1977.5,1316C 1972.23,1313.52 1972.57,1311.52 1978.5,1310C 1986.84,1308.05 1995.17,1308.05 2003.5,1310C 2015.76,1316.38 2027.93,1322.88 2040,1329.5C 2048.6,1313.96 2056.44,1297.96 2063.5,1281.5C 2062.83,1277.15 2063.83,1273.15 2066.5,1269.5 Z"/></g>
<g><path style="opacity:0.73" fill="#000000" d="M 557.5,1276.5 C 560.841,1276.66 563.674,1277.99 566,1280.5C 569.941,1284.79 572.608,1289.79 574,1295.5C 575.167,1296.67 576.333,1297.83 577.5,1299C 582.082,1301.77 586.749,1304.27 591.5,1306.5C 591.5,1307.83 591.5,1309.17 591.5,1310.5C 589.08,1310.71 586.747,1310.37 584.5,1309.5C 582.568,1310.37 580.568,1311.03 578.5,1311.5C 574.56,1310.2 570.893,1308.36 567.5,1306C 564.223,1299.16 560.39,1292.66 556,1286.5C 555.157,1282.9 555.657,1279.56 557.5,1276.5 Z"/></g>
<g><path style="opacity:0.693" fill="#000000" d="M 628.5,1311.5 C 635.563,1311.21 642.563,1311.71 649.5,1313C 654.293,1315.44 656.96,1319.27 657.5,1324.5C 655.253,1324.08 653.086,1323.42 651,1322.5C 641.462,1323.95 631.962,1323.79 622.5,1322C 618.539,1321.39 617.039,1319.23 618,1315.5C 621.284,1313.38 624.784,1312.05 628.5,1311.5 Z"/></g>
<g><path style="opacity:0.747" fill="#000000" d="M 2094.5,1316.5 C 2100.47,1316.41 2103.31,1319.41 2103,1325.5C 2105.08,1329.34 2107.42,1333 2110,1336.5C 2112.4,1333.74 2114.4,1334.08 2116,1337.5C 2119.63,1342.81 2119.13,1347.64 2114.5,1352C 2110,1354.37 2106.17,1353.53 2103,1349.5C 2099.33,1342.5 2095.67,1335.5 2092,1328.5C 2091.33,1325.5 2091.33,1322.5 2092,1319.5C 2092.7,1318.31 2093.53,1317.31 2094.5,1316.5 Z"/></g>
<g><path style="opacity:0.725" fill="#000000" d="M 1136.5,1321.5 C 1137.82,1321.33 1138.99,1321.66 1140,1322.5C 1140.56,1324.73 1141.56,1326.73 1143,1328.5C 1143.67,1347.17 1143.67,1365.83 1143,1384.5C 1139.33,1391.17 1135.67,1391.17 1132,1384.5C 1131.33,1366.83 1131.33,1349.17 1132,1331.5C 1132.38,1327.63 1133.88,1324.3 1136.5,1321.5 Z"/></g>
<g><path style="opacity:0.671" fill="#000000" d="M 1248.5,1340.5 C 1250.29,1340.21 1251.95,1340.55 1253.5,1341.5C 1250.89,1349.54 1248.06,1357.54 1245,1365.5C 1239.55,1373.29 1233.72,1380.79 1227.5,1388C 1224.65,1389.29 1221.65,1389.79 1218.5,1389.5C 1218.18,1386.02 1218.68,1382.69 1220,1379.5C 1225.57,1373.35 1230.9,1367.02 1236,1360.5C 1239.94,1353.61 1244.1,1346.94 1248.5,1340.5 Z"/></g>
<g><path style="opacity:0.721" fill="#000000" d="M 680.5,1347.5 C 682.655,1347.37 684.655,1347.87 686.5,1349C 689.661,1351.99 692.995,1354.82 696.5,1357.5C 701.414,1359.19 706.08,1361.36 710.5,1364C 713.473,1366.45 714.973,1369.61 715,1373.5C 719.408,1377.74 724.241,1381.41 729.5,1384.5C 742.079,1383.15 754.579,1383.82 767,1386.5C 773.324,1388.48 775.324,1392.48 773,1398.5C 771.667,1399.17 770.333,1399.83 769,1400.5C 766.5,1399.33 764,1398.17 761.5,1397C 750.866,1395.89 740.199,1395.22 729.5,1395C 722.61,1389.12 715.943,1382.78 709.5,1376C 700.362,1371.29 690.695,1367.96 680.5,1366C 676.178,1361.14 675.345,1355.64 678,1349.5C 678.995,1348.93 679.828,1348.27 680.5,1347.5 Z"/></g>
<g><path style="opacity:0.773" fill="#000000" d="M 2093.5,1363.5 C 2102.2,1363.42 2110.87,1363.92 2119.5,1365C 2120.11,1366.3 2120.45,1367.47 2120.5,1368.5C 2129.74,1366.95 2139.07,1366.28 2148.5,1366.5C 2167.84,1364.87 2186.17,1368.37 2203.5,1377C 2212.66,1381.75 2221.66,1386.75 2230.5,1392C 2237.66,1396.48 2240.99,1402.98 2240.5,1411.5C 2240.41,1418.04 2239.24,1424.37 2237,1430.5C 2228.62,1450.2 2217.79,1468.36 2204.5,1485C 2201.83,1487 2199.17,1489 2196.5,1491C 2178.3,1500.1 2159.63,1508.1 2140.5,1515C 2121.9,1517.96 2103.24,1518.29 2084.5,1516C 2071.85,1513.43 2061.02,1507.6 2052,1498.5C 2050.8,1495.91 2049.8,1493.24 2049,1490.5C 2048.33,1470.17 2048.33,1449.83 2049,1429.5C 2049.82,1423.38 2051.16,1417.38 2053,1411.5C 2057.94,1402.63 2062.6,1393.63 2067,1384.5C 2073.48,1379.39 2079.65,1373.89 2085.5,1368C 2088.45,1366.76 2091.11,1365.26 2093.5,1363.5 Z M 2108.5,1368.5 C 2111.85,1368.33 2115.18,1368.5 2118.5,1369C 2109.1,1372.48 2099.44,1374.15 2089.5,1374C 2091,1372.75 2092.67,1371.75 2094.5,1371C 2099.29,1370.1 2103.96,1369.26 2108.5,1368.5 Z M 2125.5,1378.5 C 2140.84,1378.33 2156.17,1378.5 2171.5,1379C 2179.87,1380.09 2187.87,1382.43 2195.5,1386C 2206.74,1391.53 2217.57,1397.7 2228,1404.5C 2229.03,1412.33 2228.37,1420 2226,1427.5C 2219.03,1444.11 2210.03,1459.45 2199,1473.5C 2192.98,1479.18 2186.15,1483.68 2178.5,1487C 2163.34,1494.38 2147.68,1500.38 2131.5,1505C 2117.5,1505.67 2103.5,1505.67 2089.5,1505C 2078.87,1503.91 2069.7,1499.74 2062,1492.5C 2060.96,1490.29 2060.29,1487.95 2060,1485.5C 2059.33,1466.83 2059.33,1448.17 2060,1429.5C 2060.54,1424.67 2061.71,1420 2063.5,1415.5C 2064.32,1418.11 2064.82,1420.77 2065,1423.5C 2065.89,1424.71 2066.73,1424.71 2067.5,1423.5C 2069.36,1414.1 2071.53,1404.77 2074,1395.5C 2075.46,1393.04 2077.29,1390.87 2079.5,1389C 2089,1386.44 2098.67,1384.77 2108.5,1384C 2114.37,1382.43 2120.04,1380.6 2125.5,1378.5 Z"/></g>
<g><path style="opacity:0.758" fill="#000000" d="M 796.5,1400.5 C 806.571,1400.47 816.571,1401.31 826.5,1403C 831.617,1404.05 834.284,1407.22 834.5,1412.5C 849.953,1409.14 864.286,1411.64 877.5,1420C 879.709,1421.87 881.542,1424.04 883,1426.5C 883.341,1430.39 881.508,1432.39 877.5,1432.5C 871.917,1429.71 866.25,1426.88 860.5,1424C 853.5,1423.67 846.5,1423.33 839.5,1423C 824.267,1416.94 808.6,1412.61 792.5,1410C 790.327,1408.14 789.993,1405.97 791.5,1403.5C 793.145,1402.3 794.811,1401.3 796.5,1400.5 Z"/></g>
<g><path style="opacity:0.745" fill="#000000" d="M 2113.5,1413.5 C 2127.12,1413.58 2140.78,1413.75 2154.5,1414C 2170.4,1416.99 2186.4,1419.32 2202.5,1421C 2207.68,1420.91 2211.01,1423.24 2212.5,1428C 2212.15,1431.7 2210.15,1433.53 2206.5,1433.5C 2176.95,1428.46 2147.28,1424.96 2117.5,1423C 2116.12,1428.84 2116.28,1434.67 2118,1440.5C 2127.67,1450.85 2138.51,1459.68 2150.5,1467C 2155.17,1473 2153.83,1477 2146.5,1479C 2127.64,1479.68 2108.97,1478.01 2090.5,1474C 2085.46,1470.99 2084.3,1466.82 2087,1461.5C 2089.99,1456.68 2094.15,1455.35 2099.5,1457.5C 2098.65,1458.84 2097.49,1459.84 2096,1460.5C 2095.38,1461.45 2095.55,1462.28 2096.5,1463C 2108.71,1465.73 2121.04,1467.07 2133.5,1467C 2125.7,1460.87 2118.2,1454.37 2111,1447.5C 2110,1445.5 2109,1443.5 2108,1441.5C 2107.1,1433.42 2107.43,1425.42 2109,1417.5C 2110.4,1415.93 2111.9,1414.6 2113.5,1413.5 Z"/></g>
<g><path style="opacity:0.733" fill="#000000" d="M 1938.5,1433.5 C 1959.49,1434.18 1980.49,1434.68 2001.5,1435C 2006.86,1438.98 2006.53,1442.65 2000.5,1446C 1981.15,1446.81 1961.81,1446.47 1942.5,1445C 1936.95,1442.43 1935.62,1438.6 1938.5,1433.5 Z"/></g>
<g><path style="opacity:0.702" fill="#000000" d="M 926.5,1434.5 C 932.732,1433.94 938.732,1434.77 944.5,1437C 950.375,1442.3 949.709,1446.13 942.5,1448.5C 931.997,1446.28 921.331,1444.62 910.5,1443.5C 910.081,1440.68 911.081,1438.51 913.5,1437C 918.015,1436.39 922.348,1435.55 926.5,1434.5 Z"/></g>
<g><path style="opacity:0.738" fill="#000000" d="M 1101.5,1438.5 C 1105.45,1439.01 1107.62,1441.35 1108,1445.5C 1107.64,1455.56 1109.31,1465.22 1113,1474.5C 1116.43,1479.62 1121.26,1481.62 1127.5,1480.5C 1130.42,1480.48 1133.25,1480.14 1136,1479.5C 1137,1468.52 1137.67,1457.52 1138,1446.5C 1138.72,1444.05 1139.72,1441.72 1141,1439.5C 1142.05,1438.48 1143.22,1438.32 1144.5,1439C 1144.31,1452.75 1144.98,1466.58 1146.5,1480.5C 1154.84,1480.33 1163.17,1480.5 1171.5,1481C 1177.05,1485.15 1176.72,1488.81 1170.5,1492C 1162.84,1492.5 1155.17,1492.67 1147.5,1492.5C 1147.67,1503.84 1147.5,1515.17 1147,1526.5C 1145.31,1530.21 1142.48,1531.38 1138.5,1530C 1137.3,1529.1 1136.47,1527.93 1136,1526.5C 1135.5,1515.17 1135.33,1503.84 1135.5,1492.5C 1113.99,1495.84 1101.49,1486.84 1098,1465.5C 1097.33,1458.17 1097.33,1450.83 1098,1443.5C 1098.26,1441.09 1099.42,1439.43 1101.5,1438.5 Z"/></g>
<g><path style="opacity:0.746" fill="#000000" d="M 985.5,1443.5 C 987.527,1443.34 989.527,1443.5 991.5,1444C 993.208,1446.04 995.208,1447.71 997.5,1449C 1011.15,1452.77 1023.98,1458.27 1036,1465.5C 1037.23,1472.27 1034.4,1475.1 1027.5,1474C 1023.99,1471.75 1020.33,1469.75 1016.5,1468C 1007.42,1464.86 998.423,1461.53 989.5,1458C 984.844,1455.52 982.678,1451.68 983,1446.5C 983.698,1445.31 984.531,1444.31 985.5,1443.5 Z"/></g>
<g><path style="opacity:0.726" fill="#000000" d="M 1827.5,1452.5 C 1839.84,1452.33 1852.17,1452.5 1864.5,1453C 1866.12,1453.62 1867.45,1454.62 1868.5,1456C 1876.17,1456.67 1883.83,1456.67 1891.5,1456C 1896.57,1451.07 1900.57,1451.9 1903.5,1458.5C 1901.86,1463.98 1898.19,1467.14 1892.5,1468C 1883.5,1468.67 1874.5,1468.67 1865.5,1468C 1862.97,1467.38 1860.63,1466.38 1858.5,1465C 1846.5,1464.67 1834.5,1464.33 1822.5,1464C 1819.51,1463.67 1816.68,1462.84 1814,1461.5C 1811.41,1463.27 1808.58,1464.27 1805.5,1464.5C 1805.78,1462.04 1806.78,1459.87 1808.5,1458C 1811.73,1457.11 1814.73,1455.78 1817.5,1454C 1821.03,1453.82 1824.36,1453.32 1827.5,1452.5 Z"/></g>
<g><path style="opacity:0.596" fill="#000000" d="M 1702.5,1462.5 C 1706.18,1462.33 1709.85,1462.5 1713.5,1463C 1714.38,1464.36 1714.71,1465.86 1714.5,1467.5C 1708.62,1467.55 1702.95,1468.72 1697.5,1471C 1714.87,1470.33 1732.2,1469.83 1749.5,1469.5C 1749.9,1472.04 1749.23,1474.21 1747.5,1476C 1725.8,1475.88 1704.14,1475.71 1682.5,1475.5C 1682.29,1473.29 1683.12,1471.62 1685,1470.5C 1690.77,1467.53 1696.61,1464.86 1702.5,1462.5 Z"/></g>
<g><path style="opacity:0.731" fill="#000000" d="M 1669.5,1466.5 C 1676.38,1467.45 1678.38,1470.95 1675.5,1477C 1659.16,1479.47 1642.82,1481.97 1626.5,1484.5C 1626.82,1475.67 1631.49,1470.84 1640.5,1470C 1650.4,1469.59 1660.07,1468.42 1669.5,1466.5 Z"/></g>
<g><path style="opacity:0.66" fill="#000000" d="M 1582.5,1479.5 C 1590.59,1478.74 1592.93,1481.9 1589.5,1489C 1583.83,1491.33 1578.17,1493.67 1572.5,1496C 1567.83,1496.33 1563.17,1496.67 1558.5,1497C 1555.42,1498.91 1552.09,1500.08 1548.5,1500.5C 1548.34,1499.13 1548.51,1497.79 1549,1496.5C 1550.93,1495.12 1552.76,1493.62 1554.5,1492C 1564.27,1488.61 1573.6,1484.45 1582.5,1479.5 Z"/></g>
<g><path style="opacity:0.651" fill="#000000" d="M 1378.5,1481.5 C 1395.23,1481.19 1411.89,1482.03 1428.5,1484C 1429.77,1488.26 1428.27,1489.43 1424,1487.5C 1420.34,1488.94 1416.51,1489.61 1412.5,1489.5C 1402.17,1488.86 1391.84,1488.36 1381.5,1488C 1376.35,1487.53 1375.35,1485.36 1378.5,1481.5 Z"/></g>
<g><path style="opacity:0.746" fill="#000000" d="M 1280.5,1485.5 C 1298.5,1485.33 1316.5,1485.5 1334.5,1486C 1339.74,1487.43 1345.08,1488.43 1350.5,1489C 1351.93,1490.71 1351.59,1492.05 1349.5,1493C 1344.39,1493.49 1339.39,1494.49 1334.5,1496C 1316.5,1496.67 1298.5,1496.67 1280.5,1496C 1277.17,1495.33 1273.83,1494.67 1270.5,1494C 1267.01,1492.52 1266.67,1490.52 1269.5,1488C 1273.35,1487.37 1277.01,1486.53 1280.5,1485.5 Z"/></g>
<g><path style="opacity:0.703" fill="#000000" d="M 1472.5,1486.5 C 1478.18,1486.33 1483.84,1486.5 1489.5,1487C 1490.99,1489.02 1490.66,1490.69 1488.5,1492C 1490.67,1492.17 1492.83,1492.33 1495,1492.5C 1509.8,1490.85 1524.63,1490.35 1539.5,1491C 1542.23,1493.43 1541.89,1495.43 1538.5,1497C 1527.85,1497.83 1517.18,1498.33 1506.5,1498.5C 1488.39,1497.49 1470.39,1496.49 1452.5,1495.5C 1452.24,1492.52 1453.57,1490.69 1456.5,1490C 1461.97,1488.8 1467.3,1487.63 1472.5,1486.5 Z"/></g>
</svg>
