<?xml version="1.0" encoding="UTF-8"?>
<!DOCTYPE svg PUBLIC "-//W3C//DTD SVG 1.1//EN" "http://www.w3.org/Graphics/SVG/1.1/DTD/svg11.dtd">
<svg xmlns="http://www.w3.org/2000/svg" version="1.1" width="2550px" height="2550px" style="shape-rendering:geometricPrecision; text-rendering:geometricPrecision; image-rendering:optimizeQuality; fill-rule:evenodd; clip-rule:evenodd" xmlns:xlink="http://www.w3.org/1999/xlink">
<g><path style="opacity:0.911" fill="#000000" d="M 1664.5,247.5 C 1656.41,247.327 1648.41,246.493 1640.5,245C 1637.59,243.627 1634.75,242.127 1632,240.5C 1630.93,237.782 1629.76,235.115 1628.5,232.5C 1620.04,237.043 1611.04,239.876 1601.5,241C 1589.13,241.843 1576.8,241.51 1564.5,240C 1560.03,239.687 1556.87,237.521 1555,233.5C 1553.19,225.325 1554.85,217.991 1560,211.5C 1572.95,197.78 1588.45,188.28 1606.5,183C 1614.5,182.333 1622.5,182.333 1630.5,183C 1633.17,185 1633.17,187 1630.5,189C 1612.55,187.519 1596.22,191.853 1581.5,202C 1574,206.833 1567.83,213 1563,220.5C 1561.88,223.442 1561.54,226.442 1562,229.5C 1565.83,231.765 1570,232.932 1574.5,233C 1593.47,235.899 1611.47,233.066 1628.5,224.5C 1630.59,212.545 1637.09,208.879 1648,213.5C 1648.67,215.833 1648.67,218.167 1648,220.5C 1644.69,223.656 1641.02,226.323 1637,228.5C 1636.33,229.833 1636.33,231.167 1637,232.5C 1646.1,237.799 1655.27,242.799 1664.5,247.5 Z"/></g>
<g><path style="opacity:0.9" fill="#000000" d="M 1832.5,289.5 C 1831.85,289.804 1831.18,290.137 1830.5,290.5C 1819.16,287.999 1807.83,285.166 1796.5,282C 1785.56,279.985 1774.56,278.485 1763.5,277.5C 1762.83,286.888 1761.66,296.221 1760,305.5C 1759.39,309.405 1758.23,313.072 1756.5,316.5C 1755.08,311.765 1754.08,306.932 1753.5,302C 1754.47,293.159 1755.47,284.325 1756.5,275.5C 1751.83,274.997 1747.16,274.831 1742.5,275C 1744.01,276.439 1744.35,277.939 1743.5,279.5C 1739.5,277.833 1735.5,276.167 1731.5,274.5C 1728.75,271.665 1728.91,268.999 1732,266.5C 1733.61,251.549 1727.78,240.716 1714.5,234C 1702.73,232.192 1692.39,235.192 1683.5,243C 1678.9,247.936 1674.07,252.436 1669,256.5C 1667.56,255.788 1666.72,254.621 1666.5,253C 1667.15,251.56 1667.48,250.06 1667.5,248.5C 1666.21,248.737 1665.21,248.404 1664.5,247.5C 1665.82,247.67 1666.99,247.337 1668,246.5C 1668.62,241.269 1670.78,236.936 1674.5,233.5C 1675.44,233.608 1676.28,233.941 1677,234.5C 1677.2,236.207 1677.2,237.874 1677,239.5C 1691.57,225.518 1708.07,222.351 1726.5,230C 1736.16,239.813 1740.83,251.647 1740.5,265.5C 1746.47,266.497 1752.47,267.164 1758.5,267.5C 1761.27,248.105 1765.77,229.105 1772,210.5C 1773.39,209.446 1774.89,209.28 1776.5,210C 1777.61,212.737 1777.78,215.571 1777,218.5C 1772.54,234.349 1768.7,250.349 1765.5,266.5C 1765.83,267.167 1766.17,267.833 1766.5,268.5C 1781.92,270.792 1797.25,273.626 1812.5,277C 1820.98,278.402 1827.65,282.568 1832.5,289.5 Z"/></g>
<g><path style="opacity:0.897" fill="#000000" d="M 1917.5,265.5 C 1920.04,267.248 1921.38,269.748 1921.5,273C 1920.95,275.824 1920.45,278.657 1920,281.5C 1912.72,300.391 1905.72,319.391 1899,338.5C 1897.15,346.387 1896.15,354.387 1896,362.5C 1894.1,364.016 1891.94,364.683 1889.5,364.5C 1888.84,354.779 1889.67,345.112 1892,335.5C 1901.22,312.317 1909.72,288.983 1917.5,265.5 Z"/></g>
<g><path style="opacity:0.025" fill="#000000" d="M 1832.5,289.5 C 1833.24,289.369 1833.91,289.536 1834.5,290C 1833.56,290.692 1832.9,290.525 1832.5,289.5 Z"/></g>
<g><path style="opacity:0.901" fill="#000000" d="M 1064.5,358.5 C 1098.66,358.499 1132.99,358.666 1167.5,359C 1179.24,360.124 1190.91,361.791 1202.5,364C 1230.37,370.301 1258.37,375.968 1286.5,381C 1315.83,381.333 1345.17,381.667 1374.5,382C 1385.77,383.567 1396.77,386.234 1407.5,390C 1424.5,399.913 1442.33,408.08 1461,414.5C 1485.87,389.962 1511.71,366.462 1538.5,344C 1545.17,339.333 1551.83,334.667 1558.5,330C 1561.6,327.964 1564.94,326.964 1568.5,327C 1545.46,347.706 1522.13,368.04 1498.5,388C 1489.64,397.197 1480.47,406.031 1471,414.5C 1469.76,415.877 1469.59,417.21 1470.5,418.5C 1478.61,421.39 1486.61,424.556 1494.5,428C 1520.1,435.2 1545.43,443.2 1570.5,452C 1623.56,476.865 1676.9,501.198 1730.5,525C 1770.21,545.459 1810.88,563.792 1852.5,580C 1864.15,585.491 1875.48,591.491 1886.5,598C 1907.9,611.73 1929.57,625.063 1951.5,638C 1974.17,650 1996.83,662 2019.5,674C 2039.38,685.875 2057.55,700.042 2074,716.5C 2092.19,735.909 2109.19,756.242 2125,777.5C 2138.94,799.106 2153.27,820.439 2168,841.5C 2185.24,864.743 2203.24,887.409 2222,909.5C 2242,932.167 2262,954.833 2282,977.5C 2305.32,1008.8 2327.65,1040.8 2349,1073.5C 2362.66,1095.81 2373.32,1119.48 2381,1144.5C 2389.59,1179.61 2398.59,1214.61 2408,1249.5C 2413.66,1277.1 2418.99,1304.77 2424,1332.5C 2426.2,1343.62 2428.86,1354.62 2432,1365.5C 2441.54,1396.11 2451.87,1426.44 2463,1456.5C 2465.67,1465.83 2468.33,1475.17 2471,1484.5C 2478.84,1524.35 2485.84,1564.35 2492,1604.5C 2494,1632.5 2494,1660.5 2492,1688.5C 2490.85,1696.94 2489.18,1705.27 2487,1713.5C 2481.52,1729.26 2476.86,1745.26 2473,1761.5C 2471.01,1777.09 2470.01,1792.76 2470,1808.5C 2469.14,1825.93 2465.14,1842.6 2458,1858.5C 2446.79,1881.59 2436.12,1904.93 2426,1928.5C 2405.41,1962.67 2385.08,1997 2365,2031.5C 2356.67,2047.5 2348.33,2063.5 2340,2079.5C 2336.21,2084.96 2332.05,2090.12 2327.5,2095C 2314.85,2104.66 2301.52,2113.33 2287.5,2121C 2273.53,2127.65 2259.53,2134.32 2245.5,2141C 2232,2148.92 2218.33,2156.59 2204.5,2164C 2179.12,2175.88 2152.45,2180.04 2124.5,2176.5C 2099.79,2176.76 2075.13,2175.93 2050.5,2174C 2029.19,2172.92 2008.86,2167.92 1989.5,2159C 1971.68,2150.59 1954.01,2141.92 1936.5,2133C 1911.93,2119.77 1896.43,2099.6 1890,2072.5C 1889.5,2066.84 1889.33,2061.18 1889.5,2055.5C 1867.17,2059.6 1844.83,2063.77 1822.5,2068C 1776.08,2068.29 1729.75,2070.29 1683.5,2074C 1599.5,2074.76 1515.5,2074.43 1431.5,2073C 1391.16,2069.39 1351.16,2063.39 1311.5,2055C 1274.14,2044.33 1237.48,2031.66 1201.5,2017C 1186.25,2009.4 1171.25,2001.4 1156.5,1993C 1128.5,1975.67 1100.5,1958.33 1072.5,1941C 1059.1,1935.47 1046.1,1929.13 1033.5,1922C 1012.66,1909.41 991.664,1897.08 970.5,1885C 932.498,1867.83 895.498,1848.83 859.5,1828C 835.5,1815.67 811.5,1803.33 787.5,1791C 777.873,1787.07 768.206,1783.24 758.5,1779.5C 757.781,1786.25 756.614,1792.92 755,1799.5C 746.717,1820.69 736.717,1841.02 725,1860.5C 710.393,1883.44 695.393,1906.1 680,1928.5C 661.577,1959.34 645.244,1991.34 631,2024.5C 628.232,2033.67 626.232,2043.01 625,2052.5C 624.085,2051.67 623.419,2050.67 623,2049.5C 622.189,2041.71 622.855,2034.05 625,2026.5C 628.681,2013.79 633.348,2001.46 639,1989.5C 659.478,1947.18 683.478,1907.18 711,1869.5C 726.303,1845.56 738.97,1820.23 749,1793.5C 749.667,1787.83 749.667,1782.17 749,1776.5C 732.653,1770.66 716.486,1764.33 700.5,1757.5C 694.374,1761.49 687.708,1763.32 680.5,1763C 678.941,1761 678.274,1758.67 678.5,1756C 678.393,1752.79 679.06,1749.79 680.5,1747C 653.558,1731.7 628.558,1713.7 605.5,1693C 569.696,1655.53 533.53,1618.36 497,1581.5C 484.124,1567.29 472.79,1551.96 463,1535.5C 441.905,1498.98 421.572,1461.98 402,1424.5C 388.231,1395.96 377.564,1366.29 370,1335.5C 369.088,1331.21 368.421,1326.87 368,1322.5C 367.333,1273.83 367.333,1225.17 368,1176.5C 368.947,1158.31 371.28,1140.31 375,1122.5C 385.601,1090.03 396.601,1057.7 408,1025.5C 432.729,977.691 459.729,931.357 489,886.5C 500.718,871.784 512.051,856.784 523,841.5C 536.833,826.333 550.667,811.167 564.5,796C 594.727,767.481 629.394,745.814 668.5,731C 679.54,727.073 690.873,724.407 702.5,723C 748.523,722.047 794.523,722.38 840.5,724C 845.352,724.713 850.019,726.046 854.5,728C 858.666,728.696 862.666,729.029 866.5,729C 862.918,730.251 859.251,731.251 855.5,732C 861.247,737.278 867.247,742.278 873.5,747C 875.795,750.937 878.795,754.27 882.5,757C 888.297,761.661 894.63,765.495 901.5,768.5C 904.833,763.833 908.167,759.167 911.5,754.5C 915.083,759.697 914.583,764.697 910,769.5C 909.251,770.635 909.417,771.635 910.5,772.5C 925.734,779.696 940.234,788.029 954,797.5C 956.377,793.912 958.877,790.412 961.5,787C 954.435,779.635 946.768,772.969 938.5,767C 928.822,757.988 919.822,748.321 911.5,738C 896.931,728.101 882.931,717.434 869.5,706C 855.826,697.494 841.826,689.494 827.5,682C 817.505,673.347 809.005,663.514 802,652.5C 799.047,644.964 795.713,637.631 792,630.5C 790.013,608.837 790.013,587.171 792,565.5C 793.607,560.012 795.607,554.678 798,549.5C 804.333,538.833 810.667,528.167 817,517.5C 827.05,505.118 836.717,492.451 846,479.5C 854.197,470.969 862.697,462.802 871.5,455C 892.155,440.338 913.155,426.171 934.5,412.5C 976.74,391.708 1020.07,373.708 1064.5,358.5 Z M 1934.5,1755.5 C 1923.95,1750.89 1913.95,1745.22 1904.5,1738.5C 1902.46,1730.92 1900.62,1723.26 1899,1715.5C 1894.65,1706.8 1890.32,1698.14 1886,1689.5C 1878.13,1682.15 1869.63,1675.65 1860.5,1670C 1851.7,1662.1 1842.04,1655.43 1831.5,1650C 1826.41,1646.12 1821.74,1641.79 1817.5,1637C 1808.57,1632.68 1799.57,1628.35 1790.5,1624C 1786.83,1621.67 1783.83,1618.67 1781.5,1615C 1765.26,1604.46 1748.26,1595.13 1730.5,1587C 1718.97,1584.12 1707.64,1580.62 1696.5,1576.5C 1689.88,1568.38 1682.72,1560.71 1675,1553.5C 1664.78,1536.62 1653.78,1520.29 1642,1504.5C 1633.08,1496.79 1622.92,1491.29 1611.5,1488C 1606.38,1484.55 1601.55,1480.71 1597,1476.5C 1594.39,1471.56 1591.39,1466.9 1588,1462.5C 1576.2,1450.37 1565.53,1437.37 1556,1423.5C 1542.71,1410.04 1529.21,1396.71 1515.5,1383.5C 1524.99,1370.5 1533.49,1356.83 1541,1342.5C 1542.86,1336.81 1542.86,1331.14 1541,1325.5C 1539.33,1322.83 1537.67,1322.83 1536,1325.5C 1534.78,1330.39 1534.11,1335.39 1534,1340.5C 1526.7,1353.3 1519.2,1365.96 1511.5,1378.5C 1510.18,1379.69 1509.18,1379.35 1508.5,1377.5C 1511.15,1375.41 1511.99,1372.74 1511,1369.5C 1507.52,1367.92 1504.85,1368.92 1503,1372.5C 1489.61,1356.71 1476.94,1340.38 1465,1323.5C 1462.33,1316.83 1459.67,1310.17 1457,1303.5C 1446.73,1287.48 1434.9,1272.65 1421.5,1259C 1405.21,1245.71 1389.21,1232.04 1373.5,1218C 1350.03,1201.21 1328.36,1182.21 1308.5,1161C 1291.7,1147.87 1276.54,1133.04 1263,1116.5C 1252.68,1108.18 1243.01,1099.18 1234,1089.5C 1213.67,1054.83 1193.33,1020.17 1173,985.5C 1164.97,972.784 1155.97,960.784 1146,949.5C 1121.14,924.303 1096.64,898.803 1072.5,873C 1060.22,863.717 1048.88,853.384 1038.5,842C 1016.04,823.207 993.871,804.04 972,784.5C 971.333,783.5 971.333,782.5 972,781.5C 974.751,775.716 977.585,770.049 980.5,764.5C 1027.49,776.976 1066.65,764.976 1098,728.5C 1115.57,707.547 1121.91,683.547 1117,656.5C 1112.52,645.012 1105.35,635.512 1095.5,628C 1065.01,606.438 1031.01,594.438 993.5,592C 977.833,591.333 962.167,591.333 946.5,592C 945.833,592.667 945.167,593.333 944.5,594C 935.849,594.746 929.349,598.913 925,606.5C 912.616,626.351 905.616,648.018 904,671.5C 903.333,683.5 903.333,695.5 904,707.5C 905.277,714.166 907.444,720.499 910.5,726.5C 906.498,725.011 903.164,722.511 900.5,719C 890.318,713.154 880.985,706.154 872.5,698C 858.167,689.667 843.833,681.333 829.5,673C 814.34,659.843 803.84,643.676 798,624.5C 797.656,607.98 797.656,591.313 798,574.5C 798.546,568.649 799.879,562.982 802,557.5C 810.329,541.5 819.662,526.167 830,511.5C 839.381,500.455 848.381,489.121 857,477.5C 863.883,470.649 871.05,464.149 878.5,458C 896.182,446.493 913.515,434.493 930.5,422C 952.954,410.69 975.454,399.523 998,388.5C 995.526,394.988 996.526,400.988 1001,406.5C 1000.98,402.036 1002.14,397.703 1004.5,393.5C 1013.34,387.244 1022.67,381.744 1032.5,377C 1057.6,368.286 1083.43,364.452 1110,365.5C 1128.09,366.326 1146.26,366.826 1164.5,367C 1177.93,368.349 1191.26,370.349 1204.5,373C 1230.98,379.287 1257.65,384.62 1284.5,389C 1315.53,389.046 1346.53,389.713 1377.5,391C 1394.45,393.651 1410.12,399.651 1424.5,409C 1434.62,413.147 1444.62,417.48 1454.5,422C 1428.63,449.212 1407.46,479.712 1391,513.5C 1389.79,517.312 1390.79,520.312 1394,522.5C 1408.47,493.691 1425.8,466.691 1446,441.5C 1451.51,435.791 1457.01,430.124 1462.5,424.5C 1470.21,427.569 1477.87,430.736 1485.5,434C 1511.97,441.934 1538.3,450.267 1564.5,459C 1637.38,492.103 1710.04,525.77 1782.5,560C 1806.09,570.195 1829.75,580.195 1853.5,590C 1881.5,605.327 1908.83,621.66 1935.5,639C 1961.01,652.921 1986.67,666.588 2012.5,680C 2037.33,694.699 2059.5,712.866 2079,734.5C 2106.93,766.367 2131.93,800.367 2154,836.5C 2188.36,883.208 2225.36,927.874 2265,970.5C 2291.88,1004.72 2317.22,1040.05 2341,1076.5C 2351.92,1094.33 2361.25,1113 2369,1132.5C 2379.64,1171.08 2389.98,1209.75 2400,1248.5C 2407.15,1286.27 2414.82,1323.94 2423,1361.5C 2431.94,1392.64 2442.27,1423.31 2454,1453.5C 2459.69,1470.89 2464.35,1488.56 2468,1506.5C 2473.76,1540.49 2479.43,1574.49 2485,1608.5C 2485.67,1633.17 2485.67,1657.83 2485,1682.5C 2484.22,1689.2 2483.22,1695.87 2482,1702.5C 2476.36,1721.08 2471.02,1739.74 2466,1758.5C 2463.76,1777.76 2462.43,1797.09 2462,1816.5C 2460.41,1828.53 2457.41,1840.19 2453,1851.5C 2440.61,1877.33 2428.61,1903.33 2417,1929.5C 2397.16,1961.84 2377.83,1994.5 2359,2027.5C 2349.33,2045.5 2339.67,2063.5 2330,2081.5C 2320.27,2092.24 2309.1,2101.07 2296.5,2108C 2260.67,2125.19 2225.34,2143.19 2190.5,2162C 2183.67,2164.61 2176.67,2166.61 2169.5,2168C 2127.1,2169.36 2084.77,2168.36 2042.5,2165C 2031.58,2163.82 2020.91,2161.48 2010.5,2158C 1988.71,2148.27 1967.05,2138.27 1945.5,2128C 1932.53,2121.43 1921.36,2112.6 1912,2101.5C 1906.29,2093.41 1901.62,2084.74 1898,2075.5C 1897.5,2068.17 1897.33,2060.84 1897.5,2053.5C 1957.68,2050.37 2017.68,2045.2 2077.5,2038C 2095.14,2033.21 2112.81,2028.54 2130.5,2024C 2138.67,2020.09 2146.33,2015.42 2153.5,2010C 2163.5,2005.33 2173.5,2000.67 2183.5,1996C 2198.42,1984.62 2213.26,1973.12 2228,1961.5C 2240.54,1944.62 2254.21,1928.62 2269,1913.5C 2277.29,1901.27 2284.29,1888.27 2290,1874.5C 2292.13,1868.33 2293.46,1862 2294,1855.5C 2300.09,1829.07 2294.09,1806.07 2276,1786.5C 2265.17,1776.33 2254.33,1766.17 2243.5,1756C 2229.98,1745.82 2214.98,1738.48 2198.5,1734C 2163.04,1730.7 2128.04,1733.37 2093.5,1742C 2070.39,1744.89 2047.39,1748.56 2024.5,1753C 2012.26,1757.97 1999.76,1762.13 1987,1765.5C 1983.79,1765.51 1983.12,1764.51 1985,1762.5C 1985.67,1760.5 1985.67,1758.5 1985,1756.5C 1982.61,1753.61 1980.44,1750.61 1978.5,1747.5C 1981.64,1738.93 1984.47,1730.26 1987,1721.5C 1987.67,1717.83 1987.67,1714.17 1987,1710.5C 1984.73,1709.07 1982.73,1709.4 1981,1711.5C 1979.76,1720.78 1977.43,1729.78 1974,1738.5C 1972.33,1740.5 1970.67,1742.5 1969,1744.5C 1969.63,1749.01 1968.63,1753.34 1966,1757.5C 1957.19,1758.86 1948.36,1758.69 1939.5,1757C 1943.21,1754.49 1944.38,1750.99 1943,1746.5C 1942.46,1744.13 1941.3,1742.13 1939.5,1740.5C 1938.67,1741.5 1937.83,1742.5 1937,1743.5C 1928.15,1727.28 1923.15,1709.94 1922,1691.5C 1920.93,1686.62 1919.26,1681.95 1917,1677.5C 1908.62,1668.12 1900.62,1658.46 1893,1648.5C 1875.77,1614.03 1854.11,1582.7 1828,1554.5C 1812.24,1520.32 1795.91,1486.32 1779,1452.5C 1771.58,1440 1763.92,1427.67 1756,1415.5C 1747.18,1404.52 1738.84,1393.19 1731,1381.5C 1720.63,1363.25 1710.13,1345.08 1699.5,1327C 1712.19,1319.32 1723.35,1309.82 1733,1298.5C 1742.77,1284.77 1747.27,1269.44 1746.5,1252.5C 1746.63,1232.04 1740.46,1213.71 1728,1197.5C 1705.87,1166.5 1675.7,1149 1637.5,1145C 1619.52,1143.88 1601.52,1143.21 1583.5,1143C 1588.32,1138.76 1593.32,1134.76 1598.5,1131C 1603.18,1129.72 1607.85,1129.39 1612.5,1130C 1605.77,1123.52 1598.44,1122.85 1590.5,1128C 1583.87,1132.96 1577.54,1138.29 1571.5,1144C 1564.87,1144.57 1558.54,1146.24 1552.5,1149C 1545.38,1154.67 1543.38,1161.67 1546.5,1170C 1542.64,1175.03 1538.97,1180.19 1535.5,1185.5C 1534.5,1184.83 1533.5,1184.17 1532.5,1183.5C 1531.81,1184.03 1531.31,1184.69 1531,1185.5C 1524.91,1181.41 1519.41,1176.58 1514.5,1171C 1508.63,1165.07 1501.63,1161.23 1493.5,1159.5C 1493.17,1159.83 1492.83,1160.17 1492.5,1160.5C 1494.92,1162.75 1496.75,1165.42 1498,1168.5C 1507.5,1176.67 1517,1184.83 1526.5,1193C 1528.17,1193.33 1529.83,1193.67 1531.5,1194C 1518.97,1219.02 1514.13,1245.52 1517,1273.5C 1518.88,1286.73 1525.05,1297.56 1535.5,1306C 1557.81,1322.33 1582.81,1332 1610.5,1335C 1633.91,1338.55 1657.24,1338.22 1680.5,1334C 1684.9,1333.09 1689.07,1331.59 1693,1329.5C 1709.7,1364.51 1730.03,1397.18 1754,1427.5C 1760.92,1438.33 1767.58,1449.33 1774,1460.5C 1785.84,1485.51 1798.17,1510.17 1811,1534.5C 1813.22,1542.48 1816.22,1550.15 1820,1557.5C 1846.44,1586.37 1868.44,1618.37 1886,1653.5C 1893.96,1663.79 1902.29,1673.79 1911,1683.5C 1912.53,1687.09 1913.86,1690.76 1915,1694.5C 1915.29,1701.21 1915.96,1707.87 1917,1714.5C 1921.4,1728.91 1927.24,1742.57 1934.5,1755.5 Z M 941.5,599.5 C 943.582,599.472 945.416,600.139 947,601.5C 986.65,596.073 1025.82,601.907 1064.5,619C 1080.9,626.609 1094.73,637.442 1106,651.5C 1111.68,662.96 1113.01,674.96 1110,687.5C 1106.93,701.311 1100.93,713.644 1092,724.5C 1079.28,739.432 1063.78,750.265 1045.5,757C 1024.11,760.393 1002.78,760.06 981.5,756C 982.654,755.086 982.487,754.253 981,753.5C 980.196,754.804 979.029,755.471 977.5,755.5C 955.056,751.032 935.89,740.698 920,724.5C 912.328,714.676 909.162,703.509 910.5,691C 909.787,661.346 916.954,633.846 932,608.5C 934.406,604.592 937.572,601.592 941.5,599.5 Z M 683.5,1263.5 C 678.468,1268.76 676.302,1275.09 677,1282.5C 677.739,1283.57 678.739,1284.24 680,1284.5C 682.281,1283.22 684.281,1281.56 686,1279.5C 688.606,1274.56 691.606,1269.9 695,1265.5C 696.667,1260.83 698.333,1256.17 700,1251.5C 705.034,1241.81 710.034,1232.15 715,1222.5C 722.551,1197.09 729.217,1171.42 735,1145.5C 738.081,1139.67 741.415,1134 745,1128.5C 753.243,1110.02 760.91,1091.35 768,1072.5C 771.35,1059.72 773.016,1046.72 773,1033.5C 773.384,1029.35 774.384,1025.35 776,1021.5C 789.288,1000.64 799.288,978.302 806,954.5C 809.385,950.783 812.385,946.783 815,942.5C 829.054,928.446 843.054,914.446 857,900.5C 864.833,890 872.667,879.5 880.5,869C 895.988,857.09 911.655,845.423 927.5,834C 936.663,825.836 945.497,817.336 954,808.5C 972.079,820.602 985.079,836.935 993,857.5C 996.33,868.513 1001,878.846 1007,888.5C 1008.82,893.44 1010.49,898.44 1012,903.5C 1026.67,928.833 1041.33,954.167 1056,979.5C 1060.7,998.023 1066.04,1016.36 1072,1034.5C 1073.81,1046.53 1075.81,1058.53 1078,1070.5C 1082.13,1083.57 1087.8,1095.9 1095,1107.5C 1105.27,1122.37 1116.27,1136.71 1128,1150.5C 1137.28,1165.47 1145.28,1181.13 1152,1197.5C 1158.69,1219.59 1165.69,1241.59 1173,1263.5C 1178.03,1276.55 1184.36,1288.89 1192,1300.5C 1196.8,1306.3 1201.97,1311.8 1207.5,1317C 1229.05,1332.94 1250.05,1349.61 1270.5,1367C 1311.71,1391.1 1351.38,1417.43 1389.5,1446C 1403,1454.92 1416.66,1463.58 1430.5,1472C 1424.63,1482.23 1418.13,1492.06 1411,1501.5C 1404.16,1502.93 1398.82,1506.59 1395,1512.5C 1394.19,1514.9 1394.35,1517.24 1395.5,1519.5C 1396.45,1520.33 1397.45,1520.49 1398.5,1520C 1410.12,1506.59 1421.62,1493.09 1433,1479.5C 1434.49,1477.67 1436.32,1476.83 1438.5,1477C 1450.34,1485.09 1462.01,1493.42 1473.5,1502C 1498.47,1523.96 1523.13,1546.3 1547.5,1569C 1564.46,1582.29 1581.12,1595.96 1597.5,1610C 1625.36,1630.11 1655.03,1647.44 1686.5,1662C 1709.51,1676.17 1732.17,1690.84 1754.5,1706C 1773.81,1715.32 1792.48,1725.65 1810.5,1737C 1826.86,1745.04 1841.86,1755.04 1855.5,1767C 1866.71,1771.3 1878.04,1775.3 1889.5,1779C 1894.09,1780.23 1898.75,1780.73 1903.5,1780.5C 1905.49,1796.96 1908.33,1813.3 1912,1829.5C 1912.64,1837.07 1913.48,1844.57 1914.5,1852C 1914.17,1852.17 1913.83,1852.33 1913.5,1852.5C 1900.77,1838.06 1888.27,1823.39 1876,1808.5C 1872.06,1804.29 1870.06,1799.29 1870,1793.5C 1868.52,1790.01 1866.52,1789.67 1864,1792.5C 1862.7,1798.92 1863.7,1804.92 1867,1810.5C 1878.12,1824.63 1889.62,1838.46 1901.5,1852C 1875.82,1852.81 1850.15,1852.48 1824.5,1851C 1811.86,1848.01 1799.2,1845.01 1786.5,1842C 1760.17,1841.67 1733.83,1841.33 1707.5,1841C 1688.84,1838.33 1670.17,1835.67 1651.5,1833C 1636.5,1832.67 1621.5,1832.33 1606.5,1832C 1605.17,1831.67 1603.83,1831.33 1602.5,1831C 1600.7,1828.53 1598.37,1826.86 1595.5,1826C 1570.01,1820.28 1544.68,1813.95 1519.5,1807C 1490.08,1797.23 1460.41,1788.23 1430.5,1780C 1423.23,1778.53 1415.9,1777.53 1408.5,1777C 1395.8,1776.82 1383.13,1776.15 1370.5,1775C 1340.96,1767.2 1311.29,1759.86 1281.5,1753C 1277.13,1752.83 1272.8,1752.33 1268.5,1751.5C 1264.26,1729.86 1253.93,1711.69 1237.5,1697C 1212.88,1673.67 1183.54,1660.33 1149.5,1657C 1135.83,1656.26 1122.16,1655.43 1108.5,1654.5C 1111.76,1650.07 1115.76,1646.57 1120.5,1644C 1124.82,1643.1 1129.15,1642.76 1133.5,1643C 1135.22,1647.26 1136.55,1646.76 1137.5,1641.5C 1136.93,1638.76 1135.26,1637.26 1132.5,1637C 1126.72,1634.95 1121.05,1635.29 1115.5,1638C 1109.12,1642.71 1103.79,1648.38 1099.5,1655C 1089.38,1655.32 1079.71,1657.65 1070.5,1662C 1057.78,1671.35 1054.28,1683.51 1060,1698.5C 1060.75,1700.33 1061.75,1702 1063,1703.5C 1062.38,1693.18 1064.04,1683.18 1068,1673.5C 1074.99,1666.29 1083.49,1663.46 1093.5,1665C 1072.35,1704.74 1064.85,1746.91 1071,1791.5C 1073.64,1802.44 1078.64,1812.11 1086,1820.5C 1093.9,1829.07 1102.4,1836.9 1111.5,1844C 1135.77,1858.27 1161.77,1862.6 1189.5,1857C 1212.49,1850.92 1231.99,1839.09 1248,1821.5C 1263.75,1803.21 1270.92,1781.88 1269.5,1757.5C 1272.05,1758.94 1274.72,1760.11 1277.5,1761C 1307.6,1767.92 1337.6,1775.26 1367.5,1783C 1380.13,1784.15 1392.8,1784.82 1405.5,1785C 1412.9,1785.53 1420.23,1786.53 1427.5,1788C 1457.4,1796.22 1487.06,1805.22 1516.5,1815C 1541.62,1822.22 1566.96,1828.56 1592.5,1834C 1594.79,1835.29 1596.79,1836.96 1598.5,1839C 1600.17,1839.33 1601.83,1839.67 1603.5,1840C 1618.83,1840.33 1634.17,1840.67 1649.5,1841C 1667.51,1843.67 1685.51,1846.34 1703.5,1849C 1730.5,1849.33 1757.5,1849.67 1784.5,1850C 1796.83,1853.17 1809.16,1856.17 1821.5,1859C 1850.48,1860.17 1879.48,1860.84 1908.5,1861C 1910.33,1862.83 1912.17,1864.67 1914,1866.5C 1914.62,1867.45 1914.45,1868.28 1913.5,1869C 1892.38,1877.72 1871.38,1886.72 1850.5,1896C 1849.56,1898.38 1849.23,1900.88 1849.5,1903.5C 1855.81,1904.34 1861.14,1902.51 1865.5,1898C 1881.38,1890.56 1897.38,1883.39 1913.5,1876.5C 1914.8,1888.35 1914.8,1900.19 1913.5,1912C 1913.17,1912.5 1912.83,1913 1912.5,1913.5C 1908.16,1911.04 1903.49,1910.04 1898.5,1910.5C 1898.76,1913.02 1899.59,1915.35 1901,1917.5C 1904.15,1919.83 1907.65,1921.5 1911.5,1922.5C 1911.43,1933.19 1910.26,1943.86 1908,1954.5C 1902.35,1975.75 1897.02,1997.09 1892,2018.5C 1890.25,2028.09 1889.42,2037.76 1889.5,2047.5C 1867.83,2051.6 1846.16,2055.77 1824.5,2060C 1778.09,2060.3 1731.75,2062.3 1685.5,2066C 1622.13,2066.49 1558.96,2066.66 1496,2066.5C 1466.86,2066.07 1437.7,2064.9 1408.5,2063C 1370.48,2057.83 1332.81,2050.83 1295.5,2042C 1259.62,2030.82 1224.62,2017.49 1190.5,2002C 1153.67,1980.75 1117.33,1958.75 1081.5,1936C 1048.25,1920.38 1016.25,1902.71 985.5,1883C 925.068,1853.95 865.734,1823.12 807.5,1790.5C 818.04,1791.11 828.373,1789.94 838.5,1787C 834.954,1785.48 831.288,1784.15 827.5,1783C 820.115,1782.8 812.782,1782.13 805.5,1781C 802.062,1780.08 799.062,1778.41 796.5,1776C 790.814,1770.12 785.98,1763.62 782,1756.5C 773.549,1741.26 765.882,1725.6 759,1709.5C 755.985,1705.76 752.818,1705.59 749.5,1709C 750.451,1709.72 750.617,1710.55 750,1711.5C 746.85,1715.62 743.35,1719.45 739.5,1723C 727.515,1731.99 715.181,1740.49 702.5,1748.5C 697.84,1746.51 693.506,1744.01 689.5,1741C 695.481,1731.69 703.814,1725.85 714.5,1723.5C 702.638,1724.93 692.971,1730.26 685.5,1739.5C 662.598,1726.42 640.931,1711.59 620.5,1695C 578.528,1652.7 537.028,1610.2 496,1567.5C 487.266,1557.03 479.266,1546.03 472,1534.5C 451.145,1498.12 430.812,1461.46 411,1424.5C 395.165,1393.33 383.499,1360.66 376,1326.5C 375.333,1273.83 375.333,1221.17 376,1168.5C 377.048,1150.16 380.048,1132.16 385,1114.5C 393.933,1090.03 402.266,1065.37 410,1040.5C 412.897,1031.8 416.564,1023.47 421,1015.5C 433.333,993.5 445.667,971.5 458,949.5C 471.084,930.338 483.417,910.672 495,890.5C 506.718,875.784 518.051,860.784 529,845.5C 540.038,834.397 550.372,822.73 560,810.5C 634.905,735.388 725.071,708.388 830.5,729.5C 832.5,729.833 834.5,730.167 836.5,730.5C 836.865,731.902 837.699,732.902 839,733.5C 846.241,735.747 852.074,739.914 856.5,746C 858.087,746.862 859.754,747.529 861.5,748C 867.193,755.653 874.193,761.987 882.5,767C 883.167,768 883.833,769 884.5,770C 888.644,771.236 892.31,773.236 895.5,776C 890.055,783.116 884.221,789.949 878,796.5C 877.171,802.898 879.338,804.065 884.5,800C 891.048,792.956 897.381,785.79 903.5,778.5C 912.01,783.255 920.676,787.755 929.5,792C 935.327,796.75 941.66,800.75 948.5,804C 940.137,812.697 931.47,821.031 922.5,829C 907.167,840.333 891.833,851.667 876.5,863C 867.726,873.385 859.559,884.219 852,895.5C 837.748,909.752 823.414,924.086 809,938.5C 805.333,943.5 801.667,948.5 798,953.5C 796.261,962.455 793.595,971.122 790,979.5C 783.507,993.979 776.173,1007.98 768,1021.5C 767.178,1023.79 766.511,1026.12 766,1028.5C 765.962,1043.76 763.962,1058.76 760,1073.5C 753.882,1089.74 747.215,1105.74 740,1121.5C 736,1128.83 732,1136.17 728,1143.5C 723.617,1160.42 719.617,1177.42 716,1194.5C 712.051,1211.69 705.385,1227.69 696,1242.5C 693,1249.83 690,1257.17 687,1264.5C 682.979,1271.4 681.812,1271.07 683.5,1263.5 Z M 928.5,744.5 C 942.701,753.427 958.034,759.927 974.5,764C 972,768.5 969.5,773 967,777.5C 966.282,778.451 965.449,778.617 964.5,778C 957.394,770.625 949.728,763.959 941.5,758C 937.636,752.971 933.303,748.471 928.5,744.5 Z M 966.5,791.5 C 1001.3,821.218 1035.63,851.384 1069.5,882C 1094.67,908.5 1119.83,935 1145,961.5C 1152.82,971.145 1160.16,981.145 1167,991.5C 1185.93,1023.7 1204.6,1056.04 1223,1088.5C 1230.79,1099.96 1240.29,1109.79 1251.5,1118C 1261.23,1127.06 1270.23,1136.73 1278.5,1147C 1296.07,1161.23 1312.73,1176.56 1328.5,1193C 1361.92,1220.08 1394.75,1247.92 1427,1276.5C 1435.24,1287.32 1443.24,1298.32 1451,1309.5C 1453.37,1317.61 1456.7,1325.28 1461,1332.5C 1472.24,1348.41 1484.24,1363.74 1497,1378.5C 1496.37,1381.48 1496.54,1384.48 1497.5,1387.5C 1498.32,1384.87 1499.98,1383.7 1502.5,1384C 1518.94,1398.44 1534.77,1413.6 1550,1429.5C 1559.2,1443.04 1569.53,1455.7 1581,1467.5C 1589.73,1484.45 1603.23,1495.61 1621.5,1501C 1628.13,1503.63 1633.63,1507.8 1638,1513.5C 1649.32,1528.14 1659.66,1543.48 1669,1559.5C 1674.67,1566.5 1681,1572.83 1688,1578.5C 1688.35,1580.85 1689.51,1582.68 1691.5,1584C 1704.07,1588.31 1716.74,1592.31 1729.5,1596C 1743.99,1603.41 1758.33,1611.08 1772.5,1619C 1777.19,1624.35 1782.52,1629.02 1788.5,1633C 1796.69,1636.6 1804.69,1640.43 1812.5,1644.5C 1814.65,1647.15 1816.98,1649.65 1819.5,1652C 1840.17,1665 1860,1679.17 1879,1694.5C 1883.6,1702.71 1887.94,1711.04 1892,1719.5C 1893.8,1723.69 1894.47,1728.02 1894,1732.5C 1887.5,1729.18 1881.66,1730.02 1876.5,1735C 1877.83,1736 1879.17,1737 1880.5,1738C 1886.89,1738.02 1892.39,1740.18 1897,1744.5C 1898.77,1753.53 1900.61,1762.53 1902.5,1771.5C 1899.16,1772.56 1895.82,1772.39 1892.5,1771C 1881.41,1767.19 1870.41,1763.19 1859.5,1759C 1855.5,1755.67 1851.5,1752.33 1847.5,1749C 1832.17,1739.33 1816.83,1729.67 1801.5,1720C 1786.95,1712.89 1772.61,1705.56 1758.5,1698C 1721.64,1672.18 1682.98,1649.18 1642.5,1629C 1632.23,1623.06 1622.23,1616.73 1612.5,1610C 1569.1,1576.95 1527.77,1541.28 1488.5,1503C 1475.37,1492.27 1461.7,1482.27 1447.5,1473C 1445.99,1472.16 1445.49,1471 1446,1469.5C 1449.18,1467.65 1451.68,1465.15 1453.5,1462C 1452.13,1458.15 1449.8,1457.49 1446.5,1460C 1443.69,1461.98 1441.02,1464.14 1438.5,1466.5C 1428.63,1460.14 1418.63,1453.97 1408.5,1448C 1365.19,1416.37 1320.52,1386.7 1274.5,1359C 1253.79,1341.95 1232.79,1325.29 1211.5,1309C 1198.89,1296.05 1189.06,1281.21 1182,1264.5C 1173.07,1239.38 1164.74,1214.04 1157,1188.5C 1150.37,1173.23 1142.7,1158.57 1134,1144.5C 1122.76,1130.35 1111.76,1116.01 1101,1101.5C 1093.43,1089.36 1087.76,1076.36 1084,1062.5C 1082.41,1050.76 1080.41,1039.09 1078,1027.5C 1072.41,1009.57 1067.08,991.571 1062,973.5C 1050.76,952.672 1038.76,932.339 1026,912.5C 1020.89,903.621 1016.89,894.287 1014,884.5C 1007.51,873.057 1002.18,861.057 998,848.5C 992.205,836.4 985.038,825.233 976.5,815C 971.013,810.424 965.347,806.091 959.5,802C 962.216,798.729 964.549,795.229 966.5,791.5 Z M 1575.5,1151.5 C 1595.19,1151.19 1614.86,1151.69 1634.5,1153C 1686.76,1159.61 1721.26,1187.77 1738,1237.5C 1743.58,1267.09 1734.75,1291.26 1711.5,1310C 1693.49,1324.51 1672.82,1331.01 1649.5,1329.5C 1623.13,1329.57 1597.46,1325.4 1572.5,1317C 1558.08,1311.23 1545.25,1303.07 1534,1292.5C 1527.62,1285.4 1524.28,1277.07 1524,1267.5C 1521.81,1223.4 1536.64,1186.23 1568.5,1156C 1570.76,1154.21 1573.09,1152.71 1575.5,1151.5 Z M 1559.5,1154.5 C 1555.88,1159.29 1552.05,1163.96 1548,1168.5C 1548.41,1163.52 1550.57,1159.36 1554.5,1156C 1556.02,1154.99 1557.69,1154.49 1559.5,1154.5 Z M 1102.5,1663.5 C 1130.86,1661.81 1158.53,1665.31 1185.5,1674C 1216.14,1686.3 1239.64,1706.8 1256,1735.5C 1268.97,1776.27 1258.13,1809.1 1223.5,1834C 1199.93,1849.75 1174.26,1854.75 1146.5,1849C 1131.36,1845.84 1118.03,1839.17 1106.5,1829C 1095.38,1819.56 1086.54,1808.39 1080,1795.5C 1071.51,1748.79 1079.01,1704.79 1102.5,1663.5 Z M 790.5,1782.5 C 779.818,1778.44 769.151,1774.27 758.5,1770C 760.677,1764.97 761.344,1759.8 760.5,1754.5C 758.278,1754.18 756.444,1754.84 755,1756.5C 753.958,1760.48 752.458,1764.15 750.5,1767.5C 736.892,1763.02 723.558,1757.85 710.5,1752C 727.13,1742.6 740.964,1730.1 752,1714.5C 759.279,1731.72 767.612,1748.39 777,1764.5C 780.947,1770.94 785.447,1776.94 790.5,1782.5 Z M 2149.5,1740.5 C 2175.23,1737.09 2199.56,1741.25 2222.5,1753C 2228.17,1756.67 2233.83,1760.33 2239.5,1764C 2252.75,1775.91 2265.25,1788.41 2277,1801.5C 2280.51,1806.51 2283.51,1811.84 2286,1817.5C 2286.67,1831.83 2286.67,1846.17 2286,1860.5C 2284.8,1866.31 2283.13,1871.98 2281,1877.5C 2275.51,1888.49 2269.51,1899.16 2263,1909.5C 2247.71,1925.12 2233.54,1941.62 2220.5,1959C 2207.32,1968.76 2194.32,1978.76 2181.5,1989C 2166.12,1994.86 2151.78,2002.52 2138.5,2012C 2133.4,2014.88 2128.07,2017.22 2122.5,2019C 2107.76,2022.35 2093.09,2026.02 2078.5,2030C 2063.17,2032 2047.83,2034 2032.5,2036C 1987.56,2038.89 1942.73,2042.39 1898,2046.5C 1897.21,2038.12 1897.55,2029.79 1899,2021.5C 1903.92,2000.06 1909.26,1978.73 1915,1957.5C 1917.07,1947.24 1918.57,1936.91 1919.5,1926.5C 1926.13,1926.32 1926.13,1925.82 1919.5,1925C 1925.5,1924.67 1931.5,1924.33 1937.5,1924C 1940.34,1922.25 1941.01,1919.91 1939.5,1917C 1933.78,1916.79 1928.12,1916.29 1922.5,1915.5C 1921.17,1901.17 1921.17,1886.83 1922.5,1872.5C 1926.81,1870.55 1928.48,1867.21 1927.5,1862.5C 1921.27,1862.97 1920.6,1862.14 1925.5,1860C 1927.83,1857.21 1927.66,1854.38 1925,1851.5C 1923.99,1850.66 1922.82,1850.33 1921.5,1850.5C 1918.81,1827.06 1915.48,1803.73 1911.5,1780.5C 1929.83,1779.96 1948.16,1779.46 1966.5,1779C 1971.88,1778.13 1977.04,1776.63 1982,1774.5C 1982.33,1775.5 1982.67,1776.5 1983,1777.5C 1984.21,1788.45 1984.88,1799.45 1985,1810.5C 1985.23,1813.46 1986.4,1815.96 1988.5,1818C 1976.1,1829.64 1966.27,1843.14 1959,1858.5C 1953.19,1874.47 1950.36,1890.97 1950.5,1908C 1948.31,1939.1 1956.15,1967.26 1974,1992.5C 1988.6,2012.05 2008.1,2023.22 2032.5,2026C 2068.55,2031.39 2101.88,2024.39 2132.5,2005C 2147.89,1994.94 2161.39,1982.77 2173,1968.5C 2185.79,1949.45 2190.79,1928.45 2188,1905.5C 2187.1,1891.12 2182.43,1878.12 2174,1866.5C 2146.89,1832.85 2111.73,1813.02 2068.5,1807C 2050.88,1805.18 2033.22,1804.18 2015.5,1804C 2021.22,1799.28 2027.22,1794.95 2033.5,1791C 2037.65,1789.06 2041.98,1787.73 2046.5,1787C 2053.53,1786.66 2060.53,1786 2067.5,1785C 2049.45,1780.1 2032.78,1783.1 2017.5,1794C 2009.67,1799.83 2001.83,1805.67 1994,1811.5C 1992.96,1810.38 1992.29,1809.04 1992,1807.5C 1991.67,1799.17 1991.33,1790.83 1991,1782.5C 1989.96,1779.59 1988.8,1776.76 1987.5,1774C 1999.72,1770.22 2011.72,1765.89 2023.5,1761C 2039.88,1758.26 2056.21,1755.26 2072.5,1752C 2098.19,1747.58 2123.86,1743.75 2149.5,1740.5 Z M 685.5,1749.5 C 693.286,1752 693.286,1754 685.5,1755.5C 685.5,1753.5 685.5,1751.5 685.5,1749.5 Z M 1905.5,1751.5 C 1905.56,1750.96 1905.89,1750.62 1906.5,1750.5C 1913.67,1754.92 1921,1759.09 1928.5,1763C 1940.95,1766.27 1953.62,1767.27 1966.5,1766C 1970.4,1764.39 1973.07,1761.55 1974.5,1757.5C 1975.48,1757.98 1976.31,1758.64 1977,1759.5C 1977.73,1761.87 1978.57,1764.2 1979.5,1766.5C 1978.91,1767.8 1977.91,1768.63 1976.5,1769C 1973.53,1769.79 1970.53,1770.46 1967.5,1771C 1948.5,1771.69 1929.5,1772.03 1910.5,1772C 1908.88,1765.06 1907.22,1758.23 1905.5,1751.5 Z M 2008.5,1812.5 C 2048.09,1809.21 2085.76,1816.04 2121.5,1833C 2144.62,1845.78 2162.78,1863.62 2176,1886.5C 2177.94,1890.65 2179.27,1894.98 2180,1899.5C 2185.25,1930.07 2177.08,1956.24 2155.5,1978C 2114.66,2017.44 2066.99,2028.77 2012.5,2012C 1992.67,2002.83 1978.17,1988.33 1969,1968.5C 1960.82,1950.57 1957.32,1931.74 1958.5,1912C 1955.76,1880.9 1964.92,1854.06 1986,1831.5C 1986.71,1836.35 1988.05,1841.02 1990,1845.5C 1991.21,1837.39 1992.87,1829.39 1995,1821.5C 1998.13,1819.37 2000.96,1816.87 2003.5,1814C 2005.38,1813.8 2007.05,1813.3 2008.5,1812.5 Z M 1459.5,1842.5 C 1456.01,1841.85 1454.85,1839.85 1456,1836.5C 1457.42,1838.4 1458.59,1840.4 1459.5,1842.5 Z"/></g>
<g><path style="opacity:0.154" fill="#000000" d="M 1064.5,358.5 C 1065.25,357.427 1066.25,357.26 1067.5,358C 1066.55,358.483 1065.55,358.649 1064.5,358.5 Z"/></g>
<g><path style="opacity:0.891" fill="#000000" d="M 1364.5,484.5 C 1366.45,484.227 1367.95,484.893 1369,486.5C 1369.67,489.833 1369.67,493.167 1369,496.5C 1364.87,509.219 1360.54,521.886 1356,534.5C 1353.37,544.887 1351.87,555.387 1351.5,566C 1376.5,566.333 1401.5,566.667 1426.5,567C 1442.79,568.655 1458.45,572.655 1473.5,579C 1477.19,582.395 1478.69,586.562 1478,591.5C 1461.05,582.383 1442.89,576.883 1423.5,575C 1397.5,574.667 1371.5,574.333 1345.5,574C 1343.97,562.468 1344.47,550.968 1347,539.5C 1353.38,521.202 1359.21,502.869 1364.5,484.5 Z"/></g>
<g><path style="opacity:0.875" fill="#000000" d="M 965.5,638.5 C 970.294,641.389 973.127,645.722 974,651.5C 976.923,673.783 981.257,695.783 987,717.5C 987.667,719.833 987.667,722.167 987,724.5C 983.847,725.402 981.847,724.069 981,720.5C 979.511,715.543 978.178,710.543 977,705.5C 973.23,684.896 969.896,664.23 967,643.5C 965.025,641.369 962.859,640.369 960.5,640.5C 962.291,639.83 963.958,639.163 965.5,638.5 Z"/></g>
<g><path style="opacity:0.898" fill="#000000" d="M 1513.5,1106.5 C 1509.93,1104.77 1507.1,1102.1 1505,1098.5C 1502.67,1093.83 1500.33,1089.17 1498,1084.5C 1497.73,1079.35 1496.73,1074.35 1495,1069.5C 1489.42,1056.74 1483.09,1044.41 1476,1032.5C 1466.19,1022.93 1456.19,1013.6 1446,1004.5C 1426.65,981.48 1405.65,960.146 1383,940.5C 1371.25,928.087 1360.25,915.087 1350,901.5C 1333.09,885.257 1315.59,869.757 1297.5,855C 1284.15,840.166 1268.49,828.499 1250.5,820C 1237.25,810.085 1224.58,799.418 1212.5,788C 1200.29,779.726 1188.63,770.726 1177.5,761C 1159.64,743.137 1142.14,724.97 1125,706.5C 1123.27,703.361 1122.11,700.028 1121.5,696.5C 1122.72,693.136 1124.89,692.136 1128,693.5C 1128.72,695.949 1129.72,698.283 1131,700.5C 1147.86,718.027 1164.69,735.527 1181.5,753C 1191.14,761.151 1201.14,768.818 1211.5,776C 1224.25,788.083 1237.58,799.417 1251.5,810C 1262.67,816.415 1273.67,823.082 1284.5,830C 1299.08,844.605 1314.41,858.272 1330.5,871C 1339.43,879.385 1348.26,887.885 1357,896.5C 1366.91,909.753 1377.58,922.419 1389,934.5C 1413.48,955.979 1436.31,979.146 1457.5,1004C 1469.1,1012.59 1478.93,1022.76 1487,1034.5C 1491.73,1044.96 1496.73,1055.29 1502,1065.5C 1503.42,1076.33 1507.08,1086.33 1513,1095.5C 1515.02,1093.03 1514.86,1090.86 1512.5,1089C 1516.09,1088.55 1518.59,1090.05 1520,1093.5C 1520.67,1097.17 1520.67,1100.83 1520,1104.5C 1518.1,1106.02 1515.94,1106.68 1513.5,1106.5 Z"/></g>
<g><path style="opacity:0.887" fill="#000000" d="M 1120.5,734.5 C 1121.82,734.33 1122.99,734.663 1124,735.5C 1125.09,738.044 1125.76,740.711 1126,743.5C 1136.64,753.41 1141.64,765.41 1141,779.5C 1139.33,779.167 1137.67,778.833 1136,778.5C 1133.43,766.679 1127.76,756.679 1119,748.5C 1116.52,743.41 1117.02,738.743 1120.5,734.5 Z"/></g>
<g><path style="opacity:0.875" fill="#000000" d="M 1162.5,811.5 C 1156.5,807.835 1150.17,804.668 1143.5,802C 1138.19,798.024 1138.19,794.191 1143.5,790.5C 1149.84,795.003 1156.5,799.003 1163.5,802.5C 1165.09,804.67 1166.42,807.004 1167.5,809.5C 1165.71,810.17 1164.04,810.837 1162.5,811.5 Z"/></g>
<g><path style="opacity:0.805" fill="#000000" d="M 1162.5,811.5 C 1167.96,816.464 1173.3,821.63 1178.5,827C 1182.59,828.333 1184.93,831.167 1185.5,835.5C 1189.55,838.194 1193.89,840.361 1198.5,842C 1201.96,845.413 1204.46,849.246 1206,853.5C 1205.1,852.299 1203.93,851.465 1202.5,851C 1194.56,850.034 1187.23,847.367 1180.5,843C 1176.58,839.346 1175.58,835.012 1177.5,830C 1172.64,823.65 1167.64,817.484 1162.5,811.5 Z"/></g>
<g><path style="opacity:0.849" fill="#000000" d="M 821.5,865.5 C 830.849,854.977 839.682,843.977 848,832.5C 850.528,827.249 852.861,821.916 855,816.5C 857.737,815.39 860.571,815.223 863.5,816C 862.069,816.465 860.903,817.299 860,818.5C 854.038,835.58 844.205,850.08 830.5,862C 827.995,863.753 825.329,865.253 822.5,866.5C 821.893,866.376 821.56,866.043 821.5,865.5 Z"/></g>
<g><path style="opacity:0.852" fill="#000000" d="M 821.5,865.5 C 819.549,866.716 818.049,868.382 817,870.5C 815.329,878.517 811.163,884.85 804.5,889.5C 803.052,891.667 801.885,894 801,896.5C 800.262,892.739 800.595,889.072 802,885.5C 805.527,879.779 808.527,873.779 811,867.5C 813.162,863.632 816.328,862.132 820.5,863C 821.252,863.671 821.586,864.504 821.5,865.5 Z"/></g>
<g><path style="opacity:0.848" fill="#000000" d="M 1229.5,878.5 C 1231.14,878.286 1232.64,878.62 1234,879.5C 1239.11,888.149 1241.77,897.483 1242,907.5C 1234.99,900.987 1230.16,893.153 1227.5,884C 1227.76,881.991 1228.42,880.157 1229.5,878.5 Z"/></g>
<g><path style="opacity:0.835" fill="#000000" d="M 791.5,921.5 C 793.646,921.696 793.812,922.696 792,924.5C 780.932,932.957 773.599,943.957 770,957.5C 766.739,946.597 769.239,937.097 777.5,929C 782.317,926.578 786.984,924.078 791.5,921.5 Z"/></g>
<g><path style="opacity:0.881" fill="#000000" d="M 1268.5,929.5 C 1271.75,929.293 1273.75,930.793 1274.5,934C 1279.72,937.779 1285.39,940.779 1291.5,943C 1295.37,945.602 1297.54,949.102 1298,953.5C 1297.1,952.299 1295.93,951.465 1294.5,951C 1283.66,950.495 1274.49,946.328 1267,938.5C 1266.07,935.177 1266.57,932.177 1268.5,929.5 Z"/></g>
<g><path style="opacity:0.845" fill="#000000" d="M 1321.5,987.5 C 1321.44,988.043 1321.11,988.376 1320.5,988.5C 1317.62,987.184 1314.62,986.184 1311.5,985.5C 1309.57,983.898 1307.41,982.565 1305,981.5C 1304.33,978.833 1304.33,976.167 1305,973.5C 1306.34,972.235 1307.84,971.735 1309.5,972C 1322.45,983.61 1335.45,995.276 1348.5,1007C 1352.83,1008 1357.17,1009 1361.5,1010C 1363.02,1011.9 1363.68,1014.06 1363.5,1016.5C 1356.36,1016.95 1349.36,1016.28 1342.5,1014.5C 1341.1,1012.03 1340.27,1009.36 1340,1006.5C 1334.33,999.663 1328.16,993.329 1321.5,987.5 Z"/></g>
<g><path style="opacity:0.682" fill="#000000" d="M 751.5,996.5 C 752.44,993.286 753.94,990.286 756,987.5C 759.487,983.858 762.487,979.858 765,975.5C 766.439,973.986 767.939,973.653 769.5,974.5C 765.338,983.33 759.338,990.663 751.5,996.5 Z"/></g>
<g><path style="opacity:0.663" fill="#000000" d="M 744.5,1004.5 C 745.552,1004.35 746.552,1004.52 747.5,1005C 743.421,1007.08 739.921,1009.91 737,1013.5C 732.191,1023.79 726.857,1033.79 721,1043.5C 720.83,1041.15 721.163,1038.82 722,1036.5C 725.044,1029.41 728.378,1022.41 732,1015.5C 735.742,1011.25 739.908,1007.59 744.5,1004.5 Z"/></g>
<g><path style="opacity:0.901" fill="#000000" d="M 1513.5,1106.5 C 1518.45,1107.99 1523.45,1109.66 1528.5,1111.5C 1529.48,1111.02 1530.31,1110.36 1531,1109.5C 1543.35,1088.04 1552.68,1065.71 1559,1042.5C 1559.83,1042.67 1560.67,1042.83 1561.5,1043C 1562.63,1047.08 1562.8,1051.25 1562,1055.5C 1556.68,1074.79 1549.01,1093.12 1539,1110.5C 1536.04,1115.48 1531.7,1118.48 1526,1119.5C 1517.23,1116.77 1508.4,1114.27 1499.5,1112C 1488.43,1106.13 1478.43,1098.8 1469.5,1090C 1465.77,1088.03 1461.77,1087.03 1457.5,1087C 1453.9,1084.46 1454.24,1082.13 1458.5,1080C 1462.93,1079.21 1467.26,1079.54 1471.5,1081C 1478.99,1087.24 1486.65,1093.24 1494.5,1099C 1500.2,1103.18 1506.53,1105.68 1513.5,1106.5 Z"/></g>
<g><path style="opacity:0.84" fill="#000000" d="M 1387.5,1049.5 C 1392.1,1048.1 1396.77,1048.27 1401.5,1050C 1402.11,1052.15 1402.78,1054.31 1403.5,1056.5C 1410.01,1058.52 1414.35,1062.68 1416.5,1069C 1416.17,1069.83 1415.83,1070.67 1415.5,1071.5C 1412.89,1070.77 1410.22,1070.27 1407.5,1070C 1404.83,1063.33 1400.17,1058.67 1393.5,1056C 1391.27,1053.94 1389.27,1051.77 1387.5,1049.5 Z"/></g>
<g><path style="opacity:0.865" fill="#000000" d="M 710.5,1050.5 C 711.873,1050.34 713.207,1050.51 714.5,1051C 707.177,1064.69 699.344,1078.19 691,1091.5C 690.39,1085.26 691.39,1079.26 694,1073.5C 698.063,1064.67 703.563,1057 710.5,1050.5 Z"/></g>
<g><path style="opacity:0.876" fill="#000000" d="M 1423.5,1088.5 C 1433,1090.94 1442.33,1094.11 1451.5,1098C 1455.61,1099.09 1457.78,1101.59 1458,1105.5C 1456.45,1106.97 1454.61,1107.97 1452.5,1108.5C 1443.57,1103.91 1434.24,1100.41 1424.5,1098C 1421.06,1095.17 1420.72,1092 1423.5,1088.5 Z"/></g>
<g><path style="opacity:0.864" fill="#000000" d="M 674.5,1119.5 C 675.5,1119.5 676.5,1119.5 677.5,1119.5C 677.663,1121.86 677.497,1124.19 677,1126.5C 667.918,1138.99 659.585,1151.99 652,1165.5C 650.005,1167.75 647.505,1168.75 644.5,1168.5C 652.695,1151.12 662.695,1134.79 674.5,1119.5 Z"/></g>
<g><path style="opacity:0.864" fill="#000000" d="M 1474.5,1124.5 C 1476.17,1124.5 1477.83,1124.5 1479.5,1124.5C 1479.74,1127.26 1481.08,1129.43 1483.5,1131C 1486.89,1132.12 1490.06,1133.62 1493,1135.5C 1494.01,1139.38 1492.51,1141.72 1488.5,1142.5C 1483.64,1140.82 1479.14,1138.49 1475,1135.5C 1472.29,1131.77 1472.12,1128.11 1474.5,1124.5 Z"/></g>
<g><path style="opacity:0.902" fill="#000000" d="M 1637.5,1179.5 C 1646.06,1179.35 1654.39,1180.52 1662.5,1183C 1664.67,1185.17 1666.83,1187.33 1669,1189.5C 1677.54,1211.08 1673.04,1229.25 1655.5,1244C 1646.57,1250.63 1636.91,1255.96 1626.5,1260C 1630.77,1261.03 1635.11,1261.7 1639.5,1262C 1656.83,1262.33 1674.17,1262.67 1691.5,1263C 1694.39,1264.81 1697.06,1264.64 1699.5,1262.5C 1700.28,1264.33 1699.62,1265.83 1697.5,1267C 1695.5,1268 1693.5,1269 1691.5,1270C 1673.5,1270.67 1655.5,1270.67 1637.5,1270C 1627.99,1269.48 1618.66,1267.98 1609.5,1265.5C 1608.02,1262.39 1608.35,1259.56 1610.5,1257C 1629.89,1252.93 1646.39,1243.76 1660,1229.5C 1666.41,1218.16 1667.07,1206.49 1662,1194.5C 1660.06,1191.89 1657.56,1190.06 1654.5,1189C 1631.05,1185.97 1608.38,1188.97 1586.5,1198C 1588.3,1198.97 1589.97,1200.14 1591.5,1201.5C 1588.24,1202.24 1585.08,1203.24 1582,1204.5C 1577.55,1201.05 1577.38,1197.22 1581.5,1193C 1599.31,1184.38 1617.98,1179.88 1637.5,1179.5 Z"/></g>
<g><path style="opacity:0.88" fill="#000000" d="M 635.5,1196.5 C 637.288,1196.21 638.955,1196.55 640.5,1197.5C 636.493,1209.18 631.66,1220.51 626,1231.5C 621.784,1240.1 615.617,1246.94 607.5,1252C 604.967,1252.85 602.967,1252.19 601.5,1250C 607.685,1244.48 613.185,1238.31 618,1231.5C 623.878,1219.74 629.711,1208.08 635.5,1196.5 Z"/></g>
<g><path style="opacity:0.883" fill="#000000" d="M 659.5,1226.5 C 662.516,1226.84 665.182,1228.01 667.5,1230C 663.843,1230.66 662.009,1232.82 662,1236.5C 661.5,1256.16 661.333,1275.83 661.5,1295.5C 689.112,1306.33 717.778,1310.49 747.5,1308C 753.227,1309.29 753.894,1311.96 749.5,1316C 716.576,1319.09 684.909,1314.26 654.5,1301.5C 653.345,1280.88 653.179,1260.21 654,1239.5C 654.452,1236.12 655.118,1232.79 656,1229.5C 657.145,1228.36 658.312,1227.36 659.5,1226.5 Z"/></g>
<g><path style="opacity:0.906" fill="#000000" d="M 514.5,1230.5 C 524.172,1230.33 533.839,1230.5 543.5,1231C 546.548,1231.61 549.048,1233.11 551,1235.5C 551.315,1236.91 550.982,1238.24 550,1239.5C 537.576,1238.35 525.076,1238.18 512.5,1239C 490.185,1245.49 470.185,1256.16 452.5,1271C 436.323,1285.84 428.49,1304.34 429,1326.5C 421.979,1375.41 441.812,1407.24 488.5,1422C 498.357,1424.5 508.357,1426.17 518.5,1427C 535.206,1427.91 551.873,1427.57 568.5,1426C 592.717,1421.82 609.217,1408.32 618,1385.5C 627.698,1350.6 618.864,1321.43 591.5,1298C 562.85,1273.51 529.85,1263.67 492.5,1268.5C 484.985,1282.6 482.152,1297.6 484,1313.5C 486.863,1316.52 490.363,1318.35 494.5,1319C 501.112,1320.21 507.778,1320.71 514.5,1320.5C 514.564,1312.06 516.397,1304.06 520,1296.5C 522.317,1293.9 525.15,1293.07 528.5,1294C 524.753,1295.99 522.919,1299.15 523,1303.5C 522.333,1330.83 522.333,1358.17 523,1385.5C 525.215,1395.04 531.048,1401.2 540.5,1404C 529.822,1409.22 522.322,1406.39 518,1395.5C 516.149,1389.99 515.149,1384.33 515,1378.5C 514.5,1361.84 514.333,1345.17 514.5,1328.5C 502.658,1329.58 491.325,1327.75 480.5,1323C 479.789,1321.75 478.956,1320.58 478,1319.5C 475.33,1304.91 476.33,1290.57 481,1276.5C 482.123,1273.75 483.623,1271.25 485.5,1269C 480.727,1268.98 477.227,1271.14 475,1275.5C 474.362,1268.42 477.529,1263.59 484.5,1261C 541.197,1252.28 586.031,1271.11 619,1317.5C 625.951,1330.64 629.117,1344.64 628.5,1359.5C 627.491,1404.02 604.824,1429.18 560.5,1435C 538.046,1436.34 515.713,1435.34 493.5,1432C 435.936,1417.01 412.103,1379.84 422,1320.5C 423.262,1294.13 434.762,1273.63 456.5,1259C 474.193,1245.99 493.527,1236.49 514.5,1230.5 Z"/></g>
<g><path style="opacity:0.154" fill="#000000" d="M 683.5,1263.5 C 683.461,1262.24 683.961,1261.24 685,1260.5C 685.585,1262 685.085,1263 683.5,1263.5 Z"/></g>
<g><path style="opacity:0.887" fill="#000000" d="M 1746.5,1304.5 C 1748.02,1304.51 1749.18,1305.18 1750,1306.5C 1751.11,1311.77 1751.77,1317.1 1752,1322.5C 1757.62,1333.45 1764.79,1343.29 1773.5,1352C 1777.39,1355.11 1781.72,1357.44 1786.5,1359C 1794.3,1367.25 1792.97,1369.92 1782.5,1367C 1770.54,1361.71 1761.04,1353.54 1754,1342.5C 1747.35,1334.56 1743.85,1325.4 1743.5,1315C 1743.2,1311.06 1744.2,1307.56 1746.5,1304.5 Z"/></g>
<g><path style="opacity:0.893" fill="#000000" d="M 634.5,1351.5 C 638.879,1360.35 644.879,1368.19 652.5,1375C 665.767,1387.29 679.767,1398.63 694.5,1409C 731.096,1430.47 768.762,1450.13 807.5,1468C 814.167,1472 820.833,1476 827.5,1480C 856.684,1493.76 885.684,1507.76 914.5,1522C 926.224,1530.72 938.224,1539.06 950.5,1547C 974.127,1568.63 999.46,1587.97 1026.5,1605C 1030.47,1607.96 1034.13,1611.3 1037.5,1615C 1040.31,1616.82 1043.31,1618.16 1046.5,1619C 1048.02,1620.35 1049.35,1621.85 1050.5,1623.5C 1051.58,1622.64 1051.75,1621.64 1051,1620.5C 1046.75,1615.01 1042.75,1609.34 1039,1603.5C 1029.42,1585.34 1019.09,1567.67 1008,1550.5C 1007.01,1547.87 1006.67,1545.21 1007,1542.5C 1008.47,1540.68 1010.3,1540.18 1012.5,1541C 1023.37,1558.89 1033.87,1577.05 1044,1595.5C 1050.2,1605.02 1056.36,1614.52 1062.5,1624C 1061.87,1624.75 1061.37,1625.58 1061,1626.5C 1043.06,1634.06 1025.56,1642.56 1008.5,1652C 1002.3,1654.27 995.963,1656.11 989.5,1657.5C 992.833,1658.67 996.167,1659.83 999.5,1661C 1018.41,1681.84 1017.75,1682.51 997.5,1663C 992.378,1660.04 987.045,1659.04 981.5,1660C 977.952,1658.06 974.286,1656.39 970.5,1655C 966.352,1650.51 967.019,1647.67 972.5,1646.5C 975.29,1647.6 978.123,1648.6 981,1649.5C 987.512,1648.82 994.012,1647.99 1000.5,1647C 1013.81,1641.01 1026.81,1634.51 1039.5,1627.5C 1018.23,1610.4 996.226,1594.23 973.5,1579C 953.022,1560.09 931.022,1543.09 907.5,1528C 861.537,1507.19 816.537,1484.52 772.5,1460C 735.624,1443.9 700.957,1424.24 668.5,1401C 657.571,1390.95 646.738,1380.78 636,1370.5C 632.311,1365.41 630.977,1359.74 632,1353.5C 632.995,1352.93 633.828,1352.27 634.5,1351.5 Z"/></g>
<g><path style="opacity:0.862" fill="#000000" d="M 1790.5,1377.5 C 1792.37,1377.86 1793.87,1378.86 1795,1380.5C 1795.33,1383.5 1795.67,1386.5 1796,1389.5C 1801.67,1393.83 1806.67,1398.83 1811,1404.5C 1813.54,1409.76 1816.71,1414.59 1820.5,1419C 1815.84,1416.16 1810.84,1413.5 1805.5,1411C 1801,1405.17 1795.83,1400 1790,1395.5C 1786.62,1389.27 1786.79,1383.27 1790.5,1377.5 Z"/></g>
<g><path style="opacity:0.837" fill="#000000" d="M 1489.5,1401.5 C 1490.5,1401.5 1491.5,1401.5 1492.5,1401.5C 1492.63,1403.65 1492.13,1405.65 1491,1407.5C 1488.37,1409.13 1486.04,1411.13 1484,1413.5C 1476.05,1428.4 1467.89,1443.07 1459.5,1457.5C 1458.22,1458.64 1456.89,1458.64 1455.5,1457.5C 1453,1453.79 1453.16,1450.12 1456,1446.5C 1458.83,1443.67 1461.67,1440.83 1464.5,1438C 1465.79,1437.51 1467.13,1437.34 1468.5,1437.5C 1472.21,1428.74 1475.38,1419.74 1478,1410.5C 1481.48,1406.87 1485.32,1403.87 1489.5,1401.5 Z"/></g>
<g><path style="opacity:0.857" fill="#000000" d="M 640.5,1414.5 C 646.619,1415.89 652.285,1418.39 657.5,1422C 660.926,1426.28 662.759,1431.12 663,1436.5C 655.223,1430.9 647.057,1425.9 638.5,1421.5C 638.023,1420.52 637.357,1419.69 636.5,1419C 638.041,1417.63 639.375,1416.13 640.5,1414.5 Z"/></g>
<g><path style="opacity:0.887" fill="#000000" d="M 1839.5,1441.5 C 1840.82,1441.33 1841.99,1441.66 1843,1442.5C 1843.34,1449.53 1844,1456.53 1845,1463.5C 1848.12,1471.74 1851.79,1479.74 1856,1487.5C 1857.54,1492.07 1858.21,1496.74 1858,1501.5C 1842.26,1485.7 1835.26,1466.7 1837,1444.5C 1837.7,1443.31 1838.53,1442.31 1839.5,1441.5 Z"/></g>
<g><path style="opacity:0.869" fill="#000000" d="M 689.5,1451.5 C 699.328,1455.41 708.994,1459.91 718.5,1465C 721.317,1467.64 723.65,1470.64 725.5,1474C 721.818,1474.22 718.152,1473.89 714.5,1473C 705.763,1468.88 697.263,1464.38 689,1459.5C 688.398,1456.78 688.565,1454.11 689.5,1451.5 Z"/></g>
<g><path style="opacity:0.857" fill="#000000" d="M 771.5,1505.5 C 767.44,1504.99 763.44,1504.16 759.5,1503C 755.783,1499.62 751.783,1496.62 747.5,1494C 744.454,1489.77 745.121,1486.27 749.5,1483.5C 754.832,1487.99 760.332,1492.33 766,1496.5C 767.856,1499.56 769.689,1502.56 771.5,1505.5 Z"/></g>
<g><path style="opacity:0.884" fill="#000000" d="M 1880.5,1526.5 C 1882.29,1526.21 1883.95,1526.55 1885.5,1527.5C 1886.23,1530.11 1886.73,1532.78 1887,1535.5C 1895.64,1545.06 1898.47,1556.06 1895.5,1568.5C 1893.74,1567.87 1892.24,1566.87 1891,1565.5C 1889.79,1560.89 1888.79,1556.22 1888,1551.5C 1885.33,1547.5 1882.67,1543.5 1880,1539.5C 1877.91,1535.01 1878.07,1530.68 1880.5,1526.5 Z"/></g>
<g><path style="opacity:0.839" fill="#000000" d="M 1338.5,1592.5 C 1342.09,1587.06 1345.92,1581.73 1350,1576.5C 1349.71,1561.1 1356.54,1549.93 1370.5,1543C 1373.49,1542.13 1376.49,1541.8 1379.5,1542C 1373.97,1547.87 1368.14,1553.37 1362,1558.5C 1357.75,1563.34 1355.42,1569.01 1355,1575.5C 1350,1581.67 1344.5,1587.34 1338.5,1592.5 Z"/></g>
<g><path style="opacity:0.856" fill="#000000" d="M 839.5,1565.5 C 837.196,1563.74 834.529,1562.57 831.5,1562C 828.377,1558.39 825.044,1555.05 821.5,1552C 819.35,1550.59 817.016,1549.76 814.5,1549.5C 814.261,1547.53 814.594,1545.7 815.5,1544C 819.696,1543.38 823.696,1544.05 827.5,1546C 833.695,1550.86 838.362,1556.86 841.5,1564C 840.584,1564.28 839.918,1564.78 839.5,1565.5 Z"/></g>
<g><path style="opacity:0.826" fill="#000000" d="M 847.5,1573.5 C 850.748,1575.4 853.748,1577.74 856.5,1580.5C 864.277,1579.36 871.61,1580.86 878.5,1585C 880.582,1588.33 882.248,1591.83 883.5,1595.5C 875.597,1592.81 867.597,1589.97 859.5,1587C 855.663,1582.33 851.663,1577.83 847.5,1573.5 Z"/></g>
<g><path style="opacity:0.881" fill="#000000" d="M 1340.5,1577.5 C 1342.29,1577.21 1343.95,1577.55 1345.5,1578.5C 1342.85,1581.65 1340.02,1584.65 1337,1587.5C 1335.6,1589.81 1335.44,1592.15 1336.5,1594.5C 1334.49,1596.17 1332.16,1596.84 1329.5,1596.5C 1328.61,1587.42 1332.27,1581.09 1340.5,1577.5 Z"/></g>
<g><path style="opacity:0.886" fill="#000000" d="M 1900.5,1582.5 C 1901.98,1582.24 1903.31,1582.57 1904.5,1583.5C 1905.23,1586.85 1906.06,1590.19 1907,1593.5C 1911.96,1600.13 1917.29,1606.46 1923,1612.5C 1924.94,1619.32 1924.61,1625.99 1922,1632.5C 1920.3,1627.79 1918.64,1623.12 1917,1618.5C 1910.58,1612.08 1904.91,1605.08 1900,1597.5C 1897.85,1592.37 1898.02,1587.37 1900.5,1582.5 Z"/></g>
<g><path style="opacity:0.872" fill="#000000" d="M 1313.5,1594.5 C 1315.53,1594.34 1317.53,1594.5 1319.5,1595C 1311.2,1602.81 1302.54,1610.14 1293.5,1617C 1291.03,1619.44 1289.2,1622.27 1288,1625.5C 1285.25,1621.67 1284.91,1617.67 1287,1613.5C 1294.92,1605.72 1303.75,1599.39 1313.5,1594.5 Z"/></g>
<g><path style="opacity:0.825" fill="#000000" d="M 917.5,1619.5 C 919.888,1619.34 922.388,1619 925,1618.5C 929.862,1619.09 934.696,1619.92 939.5,1621C 943.531,1625.24 946.364,1630.08 948,1635.5C 946.59,1634.21 945.09,1633.05 943.5,1632C 934.623,1628.06 925.957,1623.89 917.5,1619.5 Z"/></g>
<g><path style="opacity:0.839" fill="#000000" d="M 1250.5,1632.5 C 1254.79,1632.74 1255.46,1634.41 1252.5,1637.5C 1245.25,1643.58 1237.58,1649.08 1229.5,1654C 1228.5,1654.67 1227.5,1654.67 1226.5,1654C 1227.31,1651.37 1228.65,1649.04 1230.5,1647C 1237.35,1642.3 1244.01,1637.47 1250.5,1632.5 Z"/></g>
<g><path style="opacity:0.866" fill="#000000" d="M 1920.5,1634.5 C 1922.14,1634.29 1923.64,1634.62 1925,1635.5C 1926.07,1639.08 1926.74,1642.75 1927,1646.5C 1931.56,1654.39 1936.89,1661.73 1943,1668.5C 1944.48,1672.07 1945.15,1675.74 1945,1679.5C 1941.33,1676.83 1937.67,1674.17 1934,1671.5C 1928.93,1665.69 1924.59,1659.35 1921,1652.5C 1918.16,1646.49 1917.99,1640.49 1920.5,1634.5 Z"/></g>
<g><path style="opacity:0.82" fill="#000000" d="M 1041.5,1700.5 C 1036.16,1701.82 1033.5,1699.82 1033.5,1694.5C 1036.58,1694.26 1039.58,1694.59 1042.5,1695.5C 1045.06,1697.64 1044.73,1699.3 1041.5,1700.5 Z"/></g>
<g><path style="opacity:0.884" fill="#000000" d="M 1952.5,1695.5 C 1953.79,1696.29 1954.96,1697.29 1956,1698.5C 1955.63,1708.09 1959.29,1715.75 1967,1721.5C 1967.51,1726.19 1965.34,1728.02 1960.5,1727C 1952.75,1720.5 1948.75,1712.17 1948.5,1702C 1949.21,1699.41 1950.54,1697.25 1952.5,1695.5 Z"/></g>
<g><path style="opacity:0.468" fill="#000000" d="M 1041.5,1700.5 C 1044.93,1701.38 1047.93,1703.05 1050.5,1705.5C 1049.64,1706.58 1048.64,1706.75 1047.5,1706C 1045.24,1704.38 1043.24,1702.55 1041.5,1700.5 Z"/></g>
<g><path style="opacity:0.904" fill="#000000" d="M 1135.5,1740.5 C 1146.51,1740.33 1157.51,1740.5 1168.5,1741C 1172.24,1745.48 1173.41,1750.65 1172,1756.5C 1170.17,1759.67 1167.67,1762.17 1164.5,1764C 1158.88,1767.32 1152.88,1769.65 1146.5,1771C 1137.54,1772.63 1128.54,1773.97 1119.5,1775C 1122.18,1778.01 1125.18,1780.68 1128.5,1783C 1143.78,1791.62 1157.28,1802.45 1169,1815.5C 1170.03,1817.59 1170.86,1819.75 1171.5,1822C 1170.66,1823.77 1169.33,1825.1 1167.5,1826C 1142.2,1829.56 1118.2,1825.56 1095.5,1814C 1089.09,1810.59 1088.92,1807.09 1095,1803.5C 1114.87,1815.67 1136.37,1820.34 1159.5,1817.5C 1146.49,1805.65 1132.49,1795.15 1117.5,1786C 1112.11,1781.5 1110.61,1776 1113,1769.5C 1114.17,1768.11 1115.67,1767.27 1117.5,1767C 1130.89,1766.69 1143.89,1764.36 1156.5,1760C 1161.29,1758.96 1164.29,1756.13 1165.5,1751.5C 1165.39,1750.56 1165.06,1749.72 1164.5,1749C 1142.41,1746.57 1121.07,1749.57 1100.5,1758C 1101.5,1758.33 1102.5,1758.67 1103.5,1759C 1099.17,1759.58 1094.83,1760.08 1090.5,1760.5C 1089.38,1755.94 1091.05,1753.11 1095.5,1752C 1108.69,1747.21 1122.02,1743.37 1135.5,1740.5 Z"/></g>
<g><path style="opacity:0.889" fill="#000000" d="M 1270.5,1798.5 C 1288.12,1796.72 1304.79,1799.89 1320.5,1808C 1324.19,1808.56 1327.85,1809.23 1331.5,1810C 1333.12,1810.62 1334.45,1811.62 1335.5,1813C 1332.43,1815.45 1328.93,1816.95 1325,1817.5C 1314.99,1814.94 1305.16,1811.78 1295.5,1808C 1286.88,1806.83 1278.22,1806.16 1269.5,1806C 1268.08,1803.26 1268.42,1800.76 1270.5,1798.5 Z"/></g>
<g><path style="opacity:0.888" fill="#000000" d="M 1359.5,1822.5 C 1376.11,1834.62 1394.77,1842.12 1415.5,1845C 1421.1,1846.8 1426.43,1849.13 1431.5,1852C 1404.6,1854.65 1380.1,1848.15 1358,1832.5C 1356.23,1828.93 1356.73,1825.6 1359.5,1822.5 Z"/></g>
<g><path style="opacity:0.803" fill="#000000" d="M 1450.5,1831.5 C 1451.98,1831.24 1453.31,1831.57 1454.5,1832.5C 1456.81,1835.97 1459.31,1839.31 1462,1842.5C 1465.33,1845.17 1468.67,1847.83 1472,1850.5C 1472.67,1851.17 1472.67,1851.83 1472,1852.5C 1471.28,1851.55 1470.45,1851.38 1469.5,1852C 1473.31,1857.31 1477.31,1862.48 1481.5,1867.5C 1490.82,1868.33 1500.15,1868.83 1509.5,1869C 1510.5,1870 1511.5,1871 1512.5,1872C 1510.41,1873.03 1508.25,1873.86 1506,1874.5C 1497.54,1873.71 1489.04,1873.21 1480.5,1873C 1476.33,1865.66 1471.66,1858.66 1466.5,1852C 1460.5,1852.23 1455,1850.73 1450,1847.5C 1447.85,1842 1448.02,1836.67 1450.5,1831.5 Z M 1459.5,1842.5 C 1458.59,1840.4 1457.42,1838.4 1456,1836.5C 1454.85,1839.85 1456.01,1841.85 1459.5,1842.5 Z"/></g>
<g><path style="opacity:0.899" fill="#000000" d="M 2051.5,1860.5 C 2054.19,1860.34 2056.85,1860.5 2059.5,1861C 2080.17,1870.67 2101.83,1874 2124.5,1871C 2129.17,1869.17 2133.17,1866.33 2136.5,1862.5C 2138.11,1863.55 2139.11,1865.05 2139.5,1867C 2137.12,1872.38 2133.12,1876.05 2127.5,1878C 2101.75,1882.85 2077.25,1879.35 2054,1867.5C 2052.83,1865.67 2051.67,1863.83 2050.5,1862C 2051.06,1861.62 2051.39,1861.12 2051.5,1860.5 Z"/></g>
<g><path style="opacity:0.794" fill="#000000" d="M 1547.5,1875.5 C 1552.81,1875.32 1557.81,1876.49 1562.5,1879C 1552.44,1883.43 1542.44,1883.43 1532.5,1879C 1533.83,1878.33 1535.17,1877.67 1536.5,1877C 1540.36,1876.82 1544.02,1876.32 1547.5,1875.5 Z"/></g>
<g><path style="opacity:0.916" fill="#000000" d="M 1582.5,1879.5 C 1595.5,1879.33 1608.5,1879.5 1621.5,1880C 1625.48,1882.1 1625.15,1883.76 1620.5,1885C 1607.5,1885.67 1594.5,1885.67 1581.5,1885C 1580.5,1884.17 1579.5,1883.33 1578.5,1882.5C 1579.9,1881.48 1581.23,1880.48 1582.5,1879.5 Z"/></g>
<g><path style="opacity:0.897" fill="#000000" d="M 2055.5,1880.5 C 2062.1,1878.96 2066.43,1881.29 2068.5,1887.5C 2068.17,1887.83 2067.83,1888.17 2067.5,1888.5C 2065.12,1886.28 2062.45,1885.94 2059.5,1887.5C 2059.42,1895.28 2060.25,1902.95 2062,1910.5C 2068.84,1922.17 2076.17,1933.51 2084,1944.5C 2085.51,1947.33 2085.68,1950.16 2084.5,1953C 2080.57,1954.93 2076.41,1955.76 2072,1955.5C 2047.87,1954.93 2026.87,1946.6 2009,1930.5C 2007.25,1926.78 2007.25,1923.11 2009,1919.5C 2011.4,1918.4 2013.9,1918.23 2016.5,1919C 2015.69,1919.31 2015.03,1919.81 2014.5,1920.5C 2014.98,1922.95 2015.98,1925.12 2017.5,1927C 2029.51,1936 2042.84,1942.34 2057.5,1946C 2063.48,1947 2069.48,1947.33 2075.5,1947C 2067.44,1935.72 2060.27,1923.88 2054,1911.5C 2052.48,1902.22 2052.15,1892.89 2053,1883.5C 2054.04,1882.63 2054.88,1881.63 2055.5,1880.5 Z"/></g>
<g><path style="opacity:0.731" fill="#000000" d="M 1645.5,1883.5 C 1647.3,1882.84 1649.3,1882.5 1651.5,1882.5C 1658.84,1883.29 1666.17,1884.12 1673.5,1885C 1677.88,1885.85 1681.21,1888.19 1683.5,1892C 1670.88,1889.28 1658.21,1886.45 1645.5,1883.5 Z"/></g>
<g><path style="opacity:0.781" fill="#000000" d="M 1714.5,1895.5 C 1722.51,1895.33 1730.51,1895.5 1738.5,1896C 1739.31,1896.31 1739.97,1896.81 1740.5,1897.5C 1738.94,1899.13 1736.94,1899.96 1734.5,1900C 1729.17,1900.67 1723.83,1900.67 1718.5,1900C 1716.25,1899.25 1714.92,1897.75 1714.5,1895.5 Z"/></g>
<g><path style="opacity:0.729" fill="#000000" d="M 1771.5,1901.5 C 1777.36,1900.4 1783.36,1900.57 1789.5,1902C 1793.38,1902.61 1796.71,1904.27 1799.5,1907C 1790.18,1905.37 1780.84,1903.54 1771.5,1901.5 Z"/></g>
<g><path style="opacity:0.897" fill="#000000" d="M 1814.5,1902.5 C 1837.32,1909.22 1860.65,1912.72 1884.5,1913C 1887.4,1916.23 1886.73,1918.56 1882.5,1920C 1859.23,1921.18 1836.56,1918.01 1814.5,1910.5C 1812.24,1907.68 1812.24,1905.01 1814.5,1902.5 Z"/></g>
<g><path style="opacity:0.896" fill="#000000" d="M 676.5,2131.5 C 678.752,2131.92 680.252,2133.25 681,2135.5C 684.706,2155.35 687.206,2175.35 688.5,2195.5C 695.936,2194.97 703.103,2194.63 710,2194.5C 728.764,2195.49 747.597,2196.32 766.5,2197C 770.522,2199.67 770.189,2202 765.5,2204C 740.173,2203.87 714.839,2203.7 689.5,2203.5C 689.399,2209.36 689.733,2215.19 690.5,2221C 690.148,2225.39 688.982,2229.56 687,2233.5C 685.619,2231.37 684.619,2229.03 684,2226.5C 683.162,2218.77 681.995,2211.1 680.5,2203.5C 680.167,2204.83 679.833,2206.17 679.5,2207.5C 677.269,2204.76 674.436,2203.09 671,2202.5C 669.703,2198.85 670.703,2196.18 674,2194.5C 676.093,2195.25 678.093,2195.58 680,2195.5C 679.589,2176.22 677.756,2157.06 674.5,2138C 674.482,2135.59 675.149,2133.42 676.5,2131.5 Z"/></g>
<g><path style="opacity:0.896" fill="#000000" d="M 563.5,2169.5 C 561.415,2172.5 560.248,2175.84 560,2179.5C 567.221,2173.97 575.054,2169.64 583.5,2166.5C 585.107,2166.64 586.441,2167.3 587.5,2168.5C 588.133,2178.67 588.633,2189.01 589,2199.5C 596.963,2189.61 607.129,2183.44 619.5,2181C 626.215,2179.75 632.548,2180.75 638.5,2184C 646.892,2193.72 655.225,2203.38 663.5,2213C 660.378,2214.9 657.045,2215.57 653.5,2215C 646.51,2206.34 639.177,2198.01 631.5,2190C 622.792,2187.64 614.458,2188.64 606.5,2193C 596.909,2199.91 589.576,2208.58 584.5,2219C 583.207,2219.49 581.873,2219.66 580.5,2219.5C 579.914,2203.11 580.914,2186.78 583.5,2170.5C 581.143,2170.34 578.81,2170.5 576.5,2171C 571.333,2174.17 566.167,2177.33 561,2180.5C 563.076,2196.77 565.076,2213.11 567,2229.5C 567.333,2230.5 567.667,2231.5 568,2232.5C 569,2230.5 570,2228.5 571,2226.5C 571.167,2227.17 571.333,2227.83 571.5,2228.5C 571.145,2233.25 570.645,2237.92 570,2242.5C 564.855,2246.77 561.855,2245.44 561,2238.5C 559.077,2221.04 556.411,2203.71 553,2186.5C 541.474,2199.26 527.307,2203.09 510.5,2198C 506.594,2197.03 504.427,2194.53 504,2190.5C 501.904,2176.5 503.904,2163.17 510,2150.5C 515.543,2144.58 522.377,2142.42 530.5,2144C 540.107,2144.77 546.774,2149.61 550.5,2158.5C 554.675,2160 556.675,2163 556.5,2167.5C 558.833,2168.17 561.167,2168.83 563.5,2169.5 Z M 519.5,2151.5 C 537.912,2150.75 546.912,2159.58 546.5,2178C 544.16,2188.78 537.327,2193.28 526,2191.5C 521.764,2191.51 517.598,2191.01 513.5,2190C 512.667,2189.17 511.833,2188.33 511,2187.5C 509.995,2176.87 511.329,2166.53 515,2156.5C 516.025,2154.31 517.525,2152.65 519.5,2151.5 Z M 550.5,2174.5 C 551.621,2176.09 551.454,2177.76 550,2179.5C 549.616,2177.8 549.782,2176.14 550.5,2174.5 Z"/></g>
<g><path style="opacity:0.106" fill="#000000" d="M 563.5,2168.5 C 564.833,2169.17 564.833,2169.17 563.5,2168.5 Z"/></g>
<g><path style="opacity:0.896" fill="#000000" d="M 798.5,2171.5 C 813.504,2171.33 828.504,2171.5 843.5,2172C 860.154,2173.22 875.487,2178.22 889.5,2187C 896.049,2192.63 899.549,2199.8 900,2208.5C 902.611,2223.33 898.445,2235.83 887.5,2246C 873.328,2257.59 857.328,2265.75 839.5,2270.5C 866.234,2280.55 893.901,2286.05 922.5,2287C 925.942,2287.43 927.442,2289.26 927,2292.5C 924.848,2293.89 922.515,2294.89 920,2295.5C 895.357,2294.17 871.19,2290 847.5,2283C 840.791,2281.14 834.457,2278.48 828.5,2275C 825.764,2271.24 826.097,2267.9 829.5,2265C 850.609,2261.36 869.109,2252.53 885,2238.5C 896.44,2223.52 896.273,2208.69 884.5,2194C 871.021,2185.73 856.354,2181.06 840.5,2180C 826.167,2179.67 811.833,2179.33 797.5,2179C 796.083,2176.26 796.416,2173.76 798.5,2171.5 Z"/></g>
</svg>
