<?xml version="1.0" encoding="UTF-8"?>
<!DOCTYPE svg PUBLIC "-//W3C//DTD SVG 1.1//EN" "http://www.w3.org/Graphics/SVG/1.1/DTD/svg11.dtd">
<svg xmlns="http://www.w3.org/2000/svg" version="1.1" width="2550px" height="2550px" style="shape-rendering:geometricPrecision; text-rendering:geometricPrecision; image-rendering:optimizeQuality; fill-rule:evenodd; clip-rule:evenodd" xmlns:xlink="http://www.w3.org/1999/xlink">
<g><path style="opacity:0.918" fill="#000000" d="M 998.5,442.5 C 1001.32,442.316 1002.99,443.649 1003.5,446.5C 1003.02,447.478 1002.36,448.311 1001.5,449C 1015.49,454.661 1025.99,464.161 1033,477.5C 1033.67,485.5 1033.67,493.5 1033,501.5C 1029.56,515.605 1020.73,524.438 1006.5,528C 997.944,530.411 989.277,532.244 980.5,533.5C 980.343,534.873 980.51,536.207 981,537.5C 984.581,542.328 987.915,547.328 991,552.5C 992.73,559.786 989.896,564.286 982.5,566C 960.141,570.967 949.975,562.134 952,539.5C 956.795,533.83 962.962,530.496 970.5,529.5C 970.333,513.83 970.5,498.163 971,482.5C 971.907,471.433 975.74,461.6 982.5,453C 977.833,452.333 973.167,452.333 968.5,453C 966.239,455.772 964.739,458.938 964,462.5C 961.183,455.282 963.016,449.448 969.5,445C 976.864,444.235 984.197,444.402 991.5,445.5C 994.176,445.061 996.509,444.061 998.5,442.5 Z M 990.5,454.5 C 1005.57,458.733 1017.4,467.4 1026,480.5C 1027.54,490.925 1026.2,500.925 1022,510.5C 1015.93,516.286 1008.76,520.119 1000.5,522C 992.885,523.823 985.218,525.323 977.5,526.5C 977.118,510.794 977.618,495.128 979,479.5C 980.158,469.855 983.992,461.522 990.5,454.5 Z M 970.5,536.5 C 971.376,536.369 972.043,536.702 972.5,537.5C 974.984,543.804 978.484,549.47 983,554.5C 983.49,555.793 983.657,557.127 983.5,558.5C 977.824,558.666 972.157,558.499 966.5,558C 960.15,554.292 957.65,548.792 959,541.5C 962.876,539.716 966.709,538.049 970.5,536.5 Z"/></g>
<g><path style="opacity:0.902" fill="#000000" d="M 703.5,1149.5 C 697.022,1147.23 690.356,1147.06 683.5,1149C 680.048,1149.89 677.048,1151.56 674.5,1154C 637.617,1197.37 625.117,1246.87 637,1302.5C 645.954,1314.12 656.787,1323.62 669.5,1331C 700.726,1350.64 734.726,1358.64 771.5,1355C 788.783,1350.56 803.45,1341.72 815.5,1328.5C 834.763,1308.33 840.596,1284.66 833,1257.5C 824.497,1240.65 812.663,1226.49 797.5,1215C 787.365,1207.54 776.699,1200.88 765.5,1195C 761.945,1194.94 758.611,1195.78 755.5,1197.5C 755.221,1194.88 754.554,1192.38 753.5,1190C 728.56,1181.22 702.893,1177.88 676.5,1180C 670.289,1181.88 666.456,1186.05 665,1192.5C 662.004,1201.98 659.838,1211.65 658.5,1221.5C 655.727,1210.09 655.894,1198.75 659,1187.5C 662.56,1178.64 669.06,1173.47 678.5,1172C 699.766,1170.42 720.766,1172.08 741.5,1177C 746.842,1178.43 752.009,1180.26 757,1182.5C 763.42,1173.66 770.753,1165.66 779,1158.5C 783.807,1147.75 788.807,1137.08 794,1126.5C 815.254,1088.33 836.254,1049.99 857,1011.5C 880.085,975.662 903.418,939.996 927,904.5C 952.749,860.658 979.749,817.658 1008,775.5C 1009.32,772.594 1009.65,769.594 1009,766.5C 981.503,746.79 971.17,720.124 978,686.5C 979.339,676.153 982.673,666.486 988,657.5C 993.423,649.655 999.089,641.989 1005,634.5C 1012.15,627.178 1019.32,620.178 1026.5,613.5C 1026.66,616.187 1026.5,618.854 1026,621.5C 1014.57,634.256 1003.91,647.589 994,661.5C 985.368,679.54 982.368,698.54 985,718.5C 988.909,734.647 997.576,747.647 1011,757.5C 1011.22,755.616 1011.88,753.949 1013,752.5C 1013.8,755.543 1014.96,758.376 1016.5,761C 1036.97,770.728 1057.97,772.395 1079.5,766C 1101.42,756.078 1118.26,740.578 1130,719.5C 1136.76,704.014 1135.43,689.347 1126,675.5C 1101.38,646.545 1071.88,624.045 1037.5,608C 1028.18,603.891 1018.51,602.391 1008.5,603.5C 1005.49,611.547 1004.16,619.88 1004.5,628.5C 1002.67,625.865 1001.51,622.865 1001,619.5C 999.462,613.449 999.462,607.449 1001,601.5C 1002.27,597.9 1004.77,595.733 1008.5,595C 1023.29,594.198 1037.29,597.198 1050.5,604C 1080.06,620.048 1106.23,640.548 1129,665.5C 1136.91,675.391 1141.41,686.724 1142.5,699.5C 1148.66,702.164 1154.99,704.33 1161.5,706C 1206.18,714.204 1250.85,722.537 1295.5,731C 1325.77,734.149 1356.1,736.482 1386.5,738C 1400.3,741.894 1414.3,744.894 1428.5,747C 1442.05,751.774 1455.38,757.107 1468.5,763C 1479.53,767.092 1490.87,769.925 1502.5,771.5C 1506.17,770.885 1509.84,770.719 1513.5,771C 1514.13,771.75 1514.63,772.584 1515,773.5C 1527.59,763.871 1541.59,757.205 1557,753.5C 1574.65,753.932 1592.49,755.098 1610.5,757C 1629.58,760.782 1645.08,770.282 1657,785.5C 1678.38,813.284 1683.71,843.95 1673,877.5C 1661.84,891.168 1647.34,898.668 1629.5,900C 1617.83,900.333 1606.17,900.667 1594.5,901C 1595.14,903.411 1595.47,905.911 1595.5,908.5C 1593.81,945.527 1591.64,982.527 1589,1019.5C 1587.92,1097.16 1587.59,1174.83 1588,1252.5C 1596.68,1284.96 1599.68,1317.96 1597,1351.5C 1594.13,1356.79 1593.29,1362.29 1594.5,1368C 1614.48,1376.98 1631.98,1389.48 1647,1405.5C 1665.01,1424.86 1679.01,1446.86 1689,1471.5C 1692.73,1482.36 1694.23,1493.53 1693.5,1505C 1694.72,1517.18 1692.55,1528.68 1687,1539.5C 1664.73,1566.72 1635.89,1580.05 1600.5,1579.5C 1584.4,1579.85 1568.74,1577.52 1553.5,1572.5C 1532.03,1622.78 1508.86,1672.45 1484,1721.5C 1475.58,1734.01 1467.91,1747.01 1461,1760.5C 1453.94,1784.41 1446.1,1808.08 1437.5,1831.5C 1444.97,1840.11 1449.47,1850.11 1451,1861.5C 1451.67,1875.83 1451.67,1890.17 1451,1904.5C 1449.52,1924.96 1442.19,1942.96 1429,1958.5C 1386.47,2006.15 1335.3,2018.31 1275.5,1995C 1238.11,1975.65 1214.27,1945.81 1204,1905.5C 1200.11,1906.46 1196.27,1907.63 1192.5,1909C 1184.32,1913.59 1175.99,1917.92 1167.5,1922C 1159.7,1924.76 1151.7,1926.76 1143.5,1928C 1107.43,1932.9 1071.43,1938.23 1035.5,1944C 1018.88,1946.53 1002.22,1947.03 985.5,1945.5C 985.982,1989.71 965.648,2019.87 924.5,2036C 909.807,2040.2 894.807,2042.04 879.5,2041.5C 845.893,2042.68 814.226,2035.51 784.5,2020C 739.226,1991.12 718.226,1949.62 721.5,1895.5C 721.086,1868.49 727.252,1843.16 740,1819.5C 755.325,1797.16 776.492,1785.66 803.5,1785C 768.099,1790.73 745.599,1810.9 736,1845.5C 728.913,1875.55 727.579,1905.88 732,1936.5C 741.384,1972.45 762.551,1998.95 795.5,2016C 824.748,2029.04 855.415,2034.88 887.5,2033.5C 932.248,2036.9 962.748,2017.9 979,1976.5C 981.209,1966.63 982.042,1956.63 981.5,1946.5C 974.992,1946.41 974.992,1945.74 981.5,1944.5C 981.501,1934.5 979.001,1925.17 974,1916.5C 950.583,1884.38 920.75,1860.21 884.5,1844C 863.679,1836.23 842.345,1834.23 820.5,1838C 808.623,1842.04 799.623,1849.54 793.5,1860.5C 813.464,1883.98 836.798,1903.15 863.5,1918C 868.043,1922.48 867.377,1925.82 861.5,1928C 849.798,1928.8 838.132,1928.47 826.5,1927C 809.852,1923.12 793.852,1917.45 778.5,1910C 776.605,1906.27 777.605,1903.77 781.5,1902.5C 799.097,1910.63 817.43,1916.46 836.5,1920C 841.167,1920.67 845.833,1920.67 850.5,1920C 827.534,1906.59 807.367,1889.76 790,1869.5C 788.123,1876 787.123,1882.67 787,1889.5C 785.908,1886.96 785.241,1884.29 785,1881.5C 785.632,1871.37 783.966,1861.71 780,1852.5C 773.881,1829.17 782.715,1817.67 806.5,1818C 810.648,1818.46 811.481,1820.29 809,1823.5C 808.481,1822.48 807.647,1821.82 806.5,1821.5C 786.211,1824.37 780.378,1835.37 789,1854.5C 802.351,1835.24 820.851,1826.24 844.5,1827.5C 844.666,1817.83 844.5,1808.16 844,1798.5C 841.068,1795.4 839.068,1791.73 838,1787.5C 830.356,1762.26 823.023,1736.92 816,1711.5C 793.104,1641.14 768.437,1571.47 742,1502.5C 733.654,1479.8 726.32,1456.8 720,1433.5C 719.23,1411.87 719.563,1390.54 721,1369.5C 723.133,1366.47 723.966,1363.31 723.5,1360C 690.353,1352.84 661.519,1337.68 637,1314.5C 631.548,1308.93 628.214,1302.26 627,1294.5C 621.152,1246.55 632.485,1203.22 661,1164.5C 665.167,1159 670,1154.17 675.5,1150C 683.707,1145.23 692.373,1144.23 701.5,1147C 702.381,1147.71 703.047,1148.54 703.5,1149.5 Z M 1140.5,708.5 C 1190.83,719.999 1241.5,730.166 1292.5,739C 1324.49,741.962 1356.49,744.629 1388.5,747C 1400.59,750.773 1412.93,753.44 1425.5,755C 1439.58,760.471 1453.58,766.138 1467.5,772C 1480.6,776.314 1493.93,779.481 1507.5,781.5C 1506.67,782.451 1506.51,783.451 1507,784.5C 1511.49,780.921 1516.16,777.588 1521,774.5C 1507.21,798.487 1501.55,824.487 1504,852.5C 1504.08,864.441 1508.58,874.275 1517.5,882C 1530.23,891.58 1544.56,897.246 1560.5,899C 1570.16,899.912 1579.82,900.746 1589.5,901.5C 1586.88,937.121 1584.38,972.788 1582,1008.5C 1580.84,1090.83 1580.51,1173.16 1581,1255.5C 1589.08,1286.33 1592.08,1317.66 1590,1349.5C 1587.49,1354.19 1586.32,1359.19 1586.5,1364.5C 1574.06,1361.2 1561.4,1359.36 1548.5,1359C 1552.15,1352.33 1557.65,1348.5 1565,1347.5C 1566.89,1347.79 1568.22,1348.79 1569,1350.5C 1569.72,1348.89 1569.55,1347.39 1568.5,1346C 1563.31,1343.71 1558.31,1344.04 1553.5,1347C 1549.46,1350.7 1545.8,1354.7 1542.5,1359C 1516.4,1359.62 1496.9,1371.12 1484,1393.5C 1479.41,1404.06 1477.74,1415.06 1479,1426.5C 1482.26,1406.28 1491.76,1389.78 1507.5,1377C 1516.22,1370.59 1525.89,1367.76 1536.5,1368.5C 1505.82,1418.74 1496.32,1472.74 1508,1530.5C 1515.42,1547.25 1527.25,1559.75 1543.5,1568C 1544.99,1568.75 1545.99,1569.91 1546.5,1571.5C 1527.82,1613.86 1508.32,1655.86 1488,1697.5C 1477.09,1718.98 1465.43,1739.98 1453,1760.5C 1446.77,1782.42 1439.77,1804.08 1432,1825.5C 1416.88,1811.9 1399.04,1804.73 1378.5,1804C 1362.83,1803.33 1347.17,1803.33 1331.5,1804C 1309.35,1805.33 1290.52,1813.83 1275,1829.5C 1269.53,1835.62 1266.36,1842.78 1265.5,1851C 1265.43,1855.24 1266.93,1858.74 1270,1861.5C 1272.63,1840.39 1283.8,1825.89 1303.5,1818C 1311.75,1814.22 1320.41,1812.22 1329.5,1812C 1347.86,1811.13 1366.2,1811.46 1384.5,1813C 1401.54,1815.19 1416.21,1822.19 1428.5,1834C 1427.2,1836.76 1426.04,1839.59 1425,1842.5C 1424.58,1841.33 1423.91,1840.33 1423,1839.5C 1422.28,1844.29 1421.11,1848.95 1419.5,1853.5C 1420.25,1854.74 1420.58,1856.07 1420.5,1857.5C 1424.15,1857.38 1426.98,1855.71 1429,1852.5C 1430.48,1848.38 1432.15,1844.38 1434,1840.5C 1442.71,1853.45 1446.21,1867.79 1444.5,1883.5C 1446.7,1920.77 1433.04,1950.6 1403.5,1973C 1377.58,1994.19 1347.91,2002.19 1314.5,1997C 1279.37,1991.19 1251.21,1974.02 1230,1945.5C 1220.92,1933.67 1215.42,1920.34 1213.5,1905.5C 1219.51,1905.67 1225.51,1905.5 1231.5,1905C 1236.68,1900.92 1236.68,1896.59 1231.5,1892C 1225.88,1890.37 1220.21,1890.37 1214.5,1892C 1216.83,1893.67 1219.17,1895.33 1221.5,1897C 1218.52,1897.5 1215.52,1897.66 1212.5,1897.5C 1208.23,1865.13 1217.9,1837.97 1241.5,1816C 1249.5,1810 1257.5,1804 1265.5,1798C 1274,1793.61 1282.66,1789.61 1291.5,1786C 1294.98,1781.97 1295.48,1777.47 1293,1772.5C 1292.67,1775.5 1292.33,1778.5 1292,1781.5C 1291.69,1782.31 1291.19,1782.97 1290.5,1783.5C 1260.88,1790.55 1237.05,1806.21 1219,1830.5C 1211.49,1841.7 1207.16,1854.03 1206,1867.5C 1205.22,1877.77 1204.72,1887.93 1204.5,1898C 1199.65,1898.71 1194.98,1900.05 1190.5,1902C 1178.09,1909.87 1164.76,1915.54 1150.5,1919C 1115.74,1923.68 1081.07,1929.02 1046.5,1935C 1026.06,1936.24 1005.89,1939.07 986,1943.5C 985.765,1924.45 979.431,1907.79 967,1893.5C 947.255,1871.07 924.088,1853.24 897.5,1840C 882.289,1832.86 866.289,1828.86 849.5,1828C 850,1827.5 850.5,1827 851,1826.5C 851.5,1814.84 851.667,1803.17 851.5,1791.5C 848.405,1791.37 846.572,1789.71 846,1786.5C 835.667,1752.17 825.333,1717.83 815,1683.5C 802.873,1650.45 791.54,1617.12 781,1583.5C 763.016,1537.22 746.016,1490.55 730,1443.5C 727.108,1432.53 725.941,1421.36 726.5,1410C 726.474,1398.13 727.141,1386.29 728.5,1374.5C 728.136,1370.01 727.136,1365.68 725.5,1361.5C 774.835,1369.62 811.669,1351.95 836,1308.5C 846.425,1280.4 842.759,1254.4 825,1230.5C 809.155,1211.49 789.988,1196.82 767.5,1186.5C 767.285,1181.11 769.619,1176.94 774.5,1174C 774.167,1173.67 773.833,1173.33 773.5,1173C 777.633,1169.87 781.466,1166.37 785,1162.5C 791.744,1148.01 798.744,1133.68 806,1119.5C 826.599,1081.25 847.599,1043.25 869,1005.5C 908.748,947.018 946.748,887.352 983,826.5C 992.667,812.167 1002.33,797.833 1012,783.5C 1014.35,779.797 1015.85,775.797 1016.5,771.5C 1050.62,784.026 1081.62,778.86 1109.5,756C 1121.54,745.735 1131.04,733.569 1138,719.5C 1139.31,715.93 1140.14,712.263 1140.5,708.5 Z M 1566.5,762.5 C 1572.63,761.908 1578.46,762.575 1584,764.5C 1610.43,761.321 1632.43,769.988 1650,790.5C 1670.37,815.045 1676.04,842.712 1667,873.5C 1657.96,884.771 1646.13,890.937 1631.5,892C 1611.83,892.667 1592.17,892.667 1572.5,892C 1552.24,891.033 1534.41,884.2 1519,871.5C 1512.39,862.63 1509.89,852.63 1511.5,841.5C 1510.36,818.668 1515.86,797.668 1528,778.5C 1531.5,775 1535,771.5 1538.5,768C 1547.74,764.964 1557.07,763.131 1566.5,762.5 Z M 1542.5,1367.5 C 1574.56,1366.7 1602.56,1376.87 1626.5,1398C 1650.07,1418.9 1668.24,1443.74 1681,1472.5C 1688.3,1493.54 1688.3,1514.54 1681,1535.5C 1660.71,1560.47 1634.38,1572.47 1602,1571.5C 1585.02,1571.59 1568.52,1568.92 1552.5,1563.5C 1553.04,1559.46 1552.21,1555.79 1550,1552.5C 1548.94,1555.03 1548.1,1557.7 1547.5,1560.5C 1526.93,1549.44 1514.77,1532.44 1511,1509.5C 1508.01,1474.43 1512.68,1440.43 1525,1407.5C 1530.59,1394 1536.42,1380.66 1542.5,1367.5 Z"/></g>
<g><path style="opacity:0.907" fill="#000000" d="M 1631.5,611.5 C 1654.38,614.355 1673.88,624.021 1690,640.5C 1699.8,663.132 1693.3,678.632 1670.5,687C 1661.43,689.343 1652.43,691.677 1643.5,694C 1646.84,700.234 1646.17,705.901 1641.5,711C 1626.05,716.893 1612.88,713.726 1602,701.5C 1599.34,696.723 1600.17,692.89 1604.5,690C 1613.8,688.7 1623.13,687.7 1632.5,687C 1629.8,682.915 1628.3,678.415 1628,673.5C 1627.11,663.772 1627.44,654.106 1629,644.5C 1632.97,634.083 1640.47,627.749 1651.5,625.5C 1646.33,622.174 1640.83,620.507 1635,620.5C 1634.59,624.213 1634.59,627.879 1635,631.5C 1632.55,626.38 1630.72,621.046 1629.5,615.5C 1630.18,614.14 1630.85,612.807 1631.5,611.5 Z M 1652.5,628.5 C 1656.46,628.089 1660.13,628.922 1663.5,631C 1671.14,635.073 1677.97,640.24 1684,646.5C 1684.67,647.833 1685.33,649.167 1686,650.5C 1686.67,655.833 1686.67,661.167 1686,666.5C 1683.74,672.245 1679.57,676.078 1673.5,678C 1662.82,682.088 1651.82,684.422 1640.5,685C 1637.69,680.888 1635.86,676.388 1635,671.5C 1634.16,662.78 1634.49,654.113 1636,645.5C 1639.02,637.316 1644.52,631.649 1652.5,628.5 Z M 1630.5,694.5 C 1632.5,694.5 1634.5,694.5 1636.5,694.5C 1637.24,698.119 1637.58,701.785 1637.5,705.5C 1626.58,707.581 1617.25,704.748 1609.5,697C 1616.69,696.547 1623.69,695.714 1630.5,694.5 Z"/></g>
<g><path style="opacity:0.031" fill="#000000" d="M 1004.5,628.5 C 1005.83,629.167 1005.83,629.167 1004.5,628.5 Z"/></g>
<g><path style="opacity:0.899" fill="#000000" d="M 1040.5,647.5 C 1041.75,647.577 1042.58,648.244 1043,649.5C 1044.68,663.525 1048.68,676.859 1055,689.5C 1058.17,701.331 1061.33,713.164 1064.5,725C 1060.86,730.495 1058.03,730.328 1056,724.5C 1052.55,707.48 1047.88,690.813 1042,674.5C 1040.47,668.395 1039.3,662.229 1038.5,656C 1039.12,653.116 1039.78,650.283 1040.5,647.5 Z"/></g>
<g><path style="opacity:0.899" fill="#000000" d="M 1548.5,812.5 C 1565.17,812.333 1581.84,812.5 1598.5,813C 1601.66,814.48 1603.5,816.98 1604,820.5C 1605.75,827.564 1604.25,833.731 1599.5,839C 1595.23,842.429 1590.56,845.262 1585.5,847.5C 1584.48,848.002 1584.31,848.668 1585,849.5C 1599.5,853.585 1614.34,855.751 1629.5,856C 1631.5,857 1633.5,858 1635.5,859C 1630.17,862.291 1624.34,863.791 1618,863.5C 1607.05,862.84 1596.21,861.34 1585.5,859C 1576.73,857.073 1573.9,851.907 1577,843.5C 1583.88,840.98 1590.04,837.313 1595.5,832.5C 1598.49,828.283 1598.15,824.449 1594.5,821C 1578.5,820.667 1562.5,820.333 1546.5,820C 1543.77,819.002 1542.1,817.168 1541.5,814.5C 1544.07,814.279 1546.4,813.612 1548.5,812.5 Z"/></g>
<g><path style="opacity:0.176" fill="#000000" d="M 703.5,1149.5 C 704.525,1149.9 704.692,1150.56 704,1151.5C 703.536,1150.91 703.369,1150.24 703.5,1149.5 Z"/></g>
<g><path style="opacity:0.898" fill="#000000" d="M 709.5,1202.5 C 712.518,1202.34 715.518,1202.5 718.5,1203C 721.764,1204.58 722.264,1206.74 720,1209.5C 713.745,1208.7 708.411,1210.7 704,1215.5C 686.095,1236.89 678.429,1261.55 681,1289.5C 684.62,1295.44 689.787,1299.61 696.5,1302C 708.971,1305.27 721.638,1306.27 734.5,1305C 739.662,1302.84 740.662,1299.5 737.5,1295C 726.787,1290.08 715.621,1288.24 704,1289.5C 700.596,1288.93 697.763,1287.43 695.5,1285C 696.28,1281.27 698.613,1279.44 702.5,1279.5C 714.836,1279.83 726.836,1282 738.5,1286C 744.147,1287.98 747.147,1291.98 747.5,1298C 746.555,1306.94 741.555,1311.94 732.5,1313C 718.757,1314.37 705.257,1313.2 692,1309.5C 683.478,1306.98 677.478,1301.64 674,1293.5C 669.704,1260.06 679.204,1231.22 702.5,1207C 704.76,1205.21 707.093,1203.71 709.5,1202.5 Z"/></g>
<g><path style="opacity:0.897" fill="#000000" d="M 514.5,1210.5 C 518.198,1210.55 521.865,1210.89 525.5,1211.5C 525.343,1212.87 525.51,1214.21 526,1215.5C 531.422,1220.58 536.422,1225.92 541,1231.5C 543,1239.5 543,1247.5 541,1255.5C 538.795,1258.04 536.295,1260.21 533.5,1262C 527.879,1263.82 522.212,1265.49 516.5,1267C 522.721,1274.89 528.555,1283.05 534,1291.5C 535.525,1294.72 536.192,1298.05 536,1301.5C 534.786,1303.05 533.286,1304.22 531.5,1305C 520.167,1305.67 508.833,1305.67 497.5,1305C 488.884,1303.28 481.717,1299.11 476,1292.5C 474.455,1287.95 474.121,1283.29 475,1278.5C 476.5,1275.67 478.667,1273.5 481.5,1272C 488.862,1268.21 496.529,1265.21 504.5,1263C 500.918,1259.26 499.085,1254.76 499,1249.5C 497.156,1237.55 499.489,1226.55 506,1216.5C 508.671,1214.1 511.505,1212.1 514.5,1210.5 Z M 517.5,1220.5 C 523.429,1224.92 528.929,1229.92 534,1235.5C 534.667,1241.17 534.667,1246.83 534,1252.5C 532.421,1254.04 530.587,1255.21 528.5,1256C 523.167,1257.5 517.833,1259 512.5,1260.5C 509.511,1258.66 507.344,1255.99 506,1252.5C 505.333,1245.5 505.333,1238.5 506,1231.5C 506.774,1227.95 508.107,1224.62 510,1221.5C 510.841,1226.53 511.841,1231.53 513,1236.5C 514.492,1231.2 515.992,1225.87 517.5,1220.5 Z M 506.5,1269.5 C 508.39,1269.3 509.89,1269.96 511,1271.5C 517.417,1279.42 523.251,1287.75 528.5,1296.5C 519.184,1297.67 509.851,1297.83 500.5,1297C 493.059,1295.7 486.892,1292.2 482,1286.5C 481.218,1283.74 481.718,1281.24 483.5,1279C 491.065,1275.32 498.732,1272.15 506.5,1269.5 Z"/></g>
<g><path style="opacity:0.905" fill="#000000" d="M 1749.5,1335.5 C 1762.17,1335.33 1774.84,1335.5 1787.5,1336C 1794.63,1336.48 1800.13,1339.65 1804,1345.5C 1808.36,1362.81 1802.86,1375.64 1787.5,1384C 1776.8,1389.02 1766.14,1394.02 1755.5,1399C 1761.64,1403.15 1767.14,1407.98 1772,1413.5C 1774.28,1418.96 1774.95,1424.63 1774,1430.5C 1772.07,1432.1 1769.9,1433.27 1767.5,1434C 1749.82,1435.93 1732.15,1435.93 1714.5,1434C 1710.31,1431.84 1708.31,1428.34 1708.5,1423.5C 1710.44,1416.39 1714.78,1411.22 1721.5,1408C 1727.83,1404.33 1734.17,1400.67 1740.5,1397C 1735.41,1392.98 1732.24,1387.81 1731,1381.5C 1729.88,1370.36 1730.55,1359.36 1733,1348.5C 1734.57,1345.47 1737.07,1344.13 1740.5,1344.5C 1746.87,1345.07 1753.2,1345.9 1759.5,1347C 1763.21,1348.69 1764.38,1351.52 1763,1355.5C 1762.84,1353.32 1762,1351.49 1760.5,1350C 1753.48,1349.38 1746.48,1349.54 1739.5,1350.5C 1737.25,1361.14 1737.08,1371.81 1739,1382.5C 1741.96,1386.47 1745.3,1390.13 1749,1393.5C 1757.76,1389.54 1766.59,1385.7 1775.5,1382C 1781.91,1379.38 1787.75,1375.88 1793,1371.5C 1797.25,1364.78 1798.58,1357.44 1797,1349.5C 1793.56,1346.13 1789.39,1344.29 1784.5,1344C 1772.83,1343.67 1761.17,1343.33 1749.5,1343C 1746.91,1340.51 1746.91,1338.01 1749.5,1335.5 Z M 1745.5,1402.5 C 1751.77,1406.93 1757.94,1411.59 1764,1416.5C 1766.26,1419.44 1767.42,1422.77 1767.5,1426.5C 1752.18,1427.55 1736.85,1427.71 1721.5,1427C 1715.65,1425.41 1714.98,1422.41 1719.5,1418C 1728.06,1412.56 1736.73,1407.39 1745.5,1402.5 Z"/></g>
<g><path style="opacity:0.904" fill="#000000" d="M 1551.5,1436.5 C 1571.5,1436.33 1591.5,1436.5 1611.5,1437C 1617.41,1437.89 1623.08,1439.56 1628.5,1442C 1635.05,1450.72 1633.38,1457.39 1623.5,1462C 1612.73,1466.11 1601.73,1469.44 1590.5,1472C 1605.98,1479.15 1619.82,1488.65 1632,1500.5C 1633.04,1503.64 1632.21,1506.14 1629.5,1508C 1609.16,1510.58 1588.83,1513.25 1568.5,1516C 1565.37,1516.39 1562.37,1517.23 1559.5,1518.5C 1556.73,1515.45 1557.07,1512.62 1560.5,1510C 1580.15,1506.62 1599.81,1503.62 1619.5,1501C 1607.85,1491.5 1595.18,1483.5 1581.5,1477C 1577.52,1473.99 1576.52,1470.16 1578.5,1465.5C 1594.04,1463.7 1609.04,1459.87 1623.5,1454C 1626,1452.22 1626,1450.55 1623.5,1449C 1618.63,1447.2 1613.63,1445.86 1608.5,1445C 1589.5,1444.5 1570.5,1444.33 1551.5,1444.5C 1551.5,1445.5 1551.5,1446.5 1551.5,1447.5C 1552.55,1447.35 1553.55,1447.52 1554.5,1448C 1544.64,1452.8 1541.8,1449.97 1546,1439.5C 1547.88,1438.39 1549.71,1437.39 1551.5,1436.5 Z"/></g>
<g><path style="opacity:0.894" fill="#000000" d="M 627.5,1823.5 C 637.461,1823.21 646.128,1826.38 653.5,1833C 663.924,1840.75 673.757,1849.25 683,1858.5C 686.858,1867.21 687.524,1876.21 685,1885.5C 683.207,1888.3 681.04,1890.8 678.5,1893C 671.997,1897.09 665.33,1900.92 658.5,1904.5C 663.305,1906.99 667.472,1910.33 671,1914.5C 673.659,1918.7 672.825,1921.87 668.5,1924C 653.888,1925.6 639.222,1925.93 624.5,1925C 618.355,1921.47 617.021,1916.63 620.5,1910.5C 627.047,1907.7 633.714,1905.2 640.5,1903C 630.971,1898.44 625.471,1890.94 624,1880.5C 623.706,1871.58 624.206,1862.75 625.5,1854C 622.375,1845.33 621.875,1836.49 624,1827.5C 625.102,1826.05 626.269,1824.72 627.5,1823.5 Z M 630.5,1831.5 C 635.965,1832.57 640.965,1834.73 645.5,1838C 656.293,1846.46 666.793,1855.29 677,1864.5C 678.576,1870.39 678.909,1876.39 678,1882.5C 676.878,1884.62 675.378,1886.46 673.5,1888C 665.891,1892.64 657.891,1896.47 649.5,1899.5C 643.325,1896.5 637.825,1892.5 633,1887.5C 632.333,1886.17 631.667,1884.83 631,1883.5C 630.259,1873.83 629.925,1864.16 630,1854.5C 630.864,1847.63 634.697,1844.46 641.5,1845C 639.884,1843.92 638.051,1843.42 636,1843.5C 633.648,1843.3 631.648,1843.97 630,1845.5C 630.226,1840.88 630.393,1836.21 630.5,1831.5 Z M 646.5,1908.5 C 652.381,1910.77 658.048,1913.61 663.5,1917C 651.071,1917.96 638.737,1917.63 626.5,1916C 633.304,1913.57 639.971,1911.07 646.5,1908.5 Z"/></g>
<g><path style="opacity:0.91" fill="#000000" d="M 1331.5,1835.5 C 1334.11,1835.28 1335.78,1836.44 1336.5,1839C 1335.4,1844.88 1335.9,1850.71 1338,1856.5C 1343,1872.18 1348,1887.84 1353,1903.5C 1358.72,1901.04 1364.56,1899.2 1370.5,1898C 1367.31,1904.43 1362.31,1908.76 1355.5,1911C 1356.87,1913.58 1358.37,1916.08 1360,1918.5C 1361.32,1920.49 1363.15,1921.65 1365.5,1922C 1369.76,1925.47 1369.09,1927.8 1363.5,1929C 1358.92,1929.46 1355.42,1927.62 1353,1923.5C 1351.17,1919.83 1349.33,1916.17 1347.5,1912.5C 1331.86,1911.97 1316.19,1911.47 1300.5,1911C 1290.06,1909.88 1282.56,1904.71 1278,1895.5C 1275.76,1880.76 1276.09,1866.1 1279,1851.5C 1283.06,1844.53 1288.23,1843.7 1294.5,1849C 1295.5,1850 1296.5,1851 1297.5,1852C 1294.51,1851.87 1291.51,1851.87 1288.5,1852C 1286.46,1853.24 1285.29,1855.07 1285,1857.5C 1282.67,1869.63 1283.01,1881.63 1286,1893.5C 1290.76,1899.31 1296.93,1902.48 1304.5,1903C 1312.69,1903.24 1320.86,1903.74 1329,1904.5C 1334.19,1903.95 1339.36,1903.45 1344.5,1903C 1339.88,1887.47 1335.04,1871.97 1330,1856.5C 1328.67,1850.55 1328.34,1844.55 1329,1838.5C 1329.7,1837.31 1330.53,1836.31 1331.5,1835.5 Z"/></g>
<g><path style="opacity:0.893" fill="#000000" d="M 821.5,1867.5 C 832.172,1867.33 842.839,1867.5 853.5,1868C 867.931,1870.52 882.265,1873.52 896.5,1877C 905.091,1878.66 913.757,1879.66 922.5,1880C 926.64,1883.28 925.973,1885.61 920.5,1887C 915.5,1887.67 910.5,1887.67 905.5,1887C 889.09,1884.05 872.756,1880.72 856.5,1877C 845.203,1875.84 833.87,1875.17 822.5,1875C 821.422,1874.33 820.755,1873.33 820.5,1872C 820.773,1870.47 821.106,1868.97 821.5,1867.5 Z"/></g>
<g><path style="opacity:0.906" fill="#000000" d="M 1528.5,1884.5 C 1539.53,1884.33 1550.53,1884.83 1561.5,1886C 1568.23,1886.43 1572.06,1889.93 1573,1896.5C 1573.61,1902.87 1573.27,1909.21 1572,1915.5C 1571.12,1918.1 1569.62,1920.27 1567.5,1922C 1563.33,1924.59 1558.99,1926.92 1554.5,1929C 1540.09,1934.14 1525.76,1939.47 1511.5,1945C 1516.23,1956.18 1517.39,1967.68 1515,1979.5C 1513.42,1981.04 1511.59,1982.21 1509.5,1983C 1499.91,1984.59 1490.24,1984.92 1480.5,1984C 1475.56,1981.3 1472.73,1977.14 1472,1971.5C 1470.98,1965.32 1471.48,1959.32 1473.5,1953.5C 1482.34,1948.41 1491.67,1944.41 1501.5,1941.5C 1496.61,1928.48 1495.44,1915.15 1498,1901.5C 1502.55,1896.49 1507.38,1891.82 1512.5,1887.5C 1517.89,1886.14 1523.23,1885.14 1528.5,1884.5 Z M 1521.5,1893.5 C 1533.17,1893.33 1544.84,1893.5 1556.5,1894C 1557.13,1894.75 1557.63,1895.58 1558,1896.5C 1560.04,1894.03 1562.21,1894.03 1564.5,1896.5C 1565.66,1901.8 1565.83,1907.14 1565,1912.5C 1564.73,1914.33 1563.89,1915.83 1562.5,1917C 1544.82,1924.73 1526.82,1931.56 1508.5,1937.5C 1504.71,1926.5 1503.54,1915.17 1505,1903.5C 1510.01,1899.25 1515.51,1895.91 1521.5,1893.5 Z M 1503.5,1947.5 C 1508.14,1956.19 1509.64,1965.52 1508,1975.5C 1499.91,1976.65 1491.75,1976.81 1483.5,1976C 1479.12,1970.98 1477.62,1965.15 1479,1958.5C 1487.09,1954.53 1495.26,1950.86 1503.5,1947.5 Z"/></g>
</svg>
