<?xml version="1.0" encoding="UTF-8"?>
<!DOCTYPE svg PUBLIC "-//W3C//DTD SVG 1.1//EN" "http://www.w3.org/Graphics/SVG/1.1/DTD/svg11.dtd">
<svg xmlns="http://www.w3.org/2000/svg" version="1.1" width="2550px" height="2550px" style="shape-rendering:geometricPrecision; text-rendering:geometricPrecision; image-rendering:optimizeQuality; fill-rule:evenodd; clip-rule:evenodd" xmlns:xlink="http://www.w3.org/1999/xlink">
<g><path style="opacity:0.908" fill="#000000" d="M 627.5,509.5 C 636.568,509.119 645.568,509.619 654.5,511C 657.418,512.709 660.252,514.542 663,516.5C 663.311,518.556 663.811,520.556 664.5,522.5C 663.443,522.906 662.109,522.906 660.5,522.5C 660.714,520.856 660.38,519.356 659.5,518C 646.785,517.103 634.118,517.436 621.5,519C 600.259,530.925 588.759,549.092 587,573.5C 580.699,621.107 600.533,651.274 646.5,664C 666.175,667.194 685.842,667.194 705.5,664C 724.539,659.236 740.705,649.736 754,635.5C 760.314,623.626 759.98,611.96 753,600.5C 728.274,573.544 697.774,556.544 661.5,549.5C 661.384,556.874 661.884,564.208 663,571.5C 666.432,589.427 669.432,607.427 672,625.5C 672.667,622.833 673.333,620.167 674,617.5C 674.333,617.833 674.667,618.167 675,618.5C 675.463,622.838 675.963,627.171 676.5,631.5C 676.077,637.056 673.077,639.223 667.5,638C 666.874,637.25 666.374,636.416 666,635.5C 662.874,613.077 659.207,590.744 655,568.5C 654.5,561.508 654.334,554.508 654.5,547.5C 648.185,546.89 641.851,546.557 635.5,546.5C 635.875,549.907 634.875,550.407 632.5,548C 629.566,544.58 629.9,541.58 633.5,539C 675.221,539.461 712.221,552.794 744.5,579C 749.7,583.865 754.533,589.032 759,594.5C 766.005,607.202 767.338,620.535 763,634.5C 749.717,651.754 732.55,663.587 711.5,670C 691.373,674.581 671.04,675.581 650.5,673C 618.123,668.606 595.623,651.44 583,621.5C 581.683,616.9 580.683,612.234 580,607.5C 579.333,594.167 579.333,580.833 580,567.5C 584.461,538.565 600.294,519.232 627.5,509.5 Z"/></g>
<g><path style="opacity:0.905" fill="#000000" d="M 1879.5,535.5 C 1885.21,535.313 1890.88,535.646 1896.5,536.5C 1897.11,541.611 1895.28,545.611 1891,548.5C 1891.94,546.326 1892.77,543.993 1893.5,541.5C 1882.89,541.057 1874.39,545.057 1868,553.5C 1839.13,588.129 1828.13,627.795 1835,672.5C 1839.65,682.819 1846.82,690.986 1856.5,697C 1871.15,706.319 1887.15,711.652 1904.5,713C 1946.33,720.531 1980.49,708.031 2007,675.5C 2019.31,655.625 2018.31,636.625 2004,618.5C 1977.74,593.178 1946.24,579.678 1909.5,578C 1897.17,577.5 1884.84,577.333 1872.5,577.5C 1871.72,582.866 1870.72,588.2 1869.5,593.5C 1865.98,587.659 1864.81,581.326 1866,574.5C 1866.95,572.43 1868.45,570.93 1870.5,570C 1900.45,567.298 1929.78,570.298 1958.5,579C 1981.63,587.481 2000.8,601.315 2016,620.5C 2026.24,642.71 2024.24,663.71 2010,683.5C 1980.67,715.982 1944.17,728.482 1900.5,721C 1872.52,718.761 1849.68,706.928 1832,685.5C 1829.74,681.05 1828.07,676.383 1827,671.5C 1820.38,621.362 1834.55,578.196 1869.5,542C 1872.73,539.56 1876.06,537.394 1879.5,535.5 Z"/></g>
<g><path style="opacity:0.204" fill="#000000" d="M 1888.5,548.5 C 1889.83,549.167 1889.83,549.167 1888.5,548.5 Z"/></g>
<g><path style="opacity:0.881" fill="#000000" d="M 780.5,592.5 C 794.609,595.846 808.942,597.346 823.5,597C 825.332,597.748 826.999,598.748 828.5,600C 825.223,602.315 821.556,603.649 817.5,604C 803.764,605.606 790.43,604.106 777.5,599.5C 776.118,596.198 777.118,593.865 780.5,592.5 Z"/></g>
<g><path style="opacity:0.008" fill="#000000" d="M 1869.5,594.5 C 1870.83,595.167 1870.83,595.167 1869.5,594.5 Z"/></g>
<g><path style="opacity:0.882" fill="#000000" d="M 1568.5,599.5 C 1572.26,600.385 1573.26,602.552 1571.5,606C 1562.67,611.748 1553,615.248 1542.5,616.5C 1537.83,616.169 1533.5,614.836 1529.5,612.5C 1531.79,610.52 1534.46,609.353 1537.5,609C 1548.88,608.925 1559.22,605.759 1568.5,599.5 Z"/></g>
<g><path style="opacity:0.895" fill="#000000" d="M 886.5,600.5 C 890.54,600.19 893.873,601.524 896.5,604.5C 892.813,606.844 888.813,608.344 884.5,609C 874.833,609.667 865.167,609.667 855.5,609C 851.185,606.831 850.852,604.497 854.5,602C 865.341,601.83 876.008,601.33 886.5,600.5 Z"/></g>
<g><path style="opacity:0.872" fill="#000000" d="M 926.5,600.5 C 939.171,600.333 951.838,600.5 964.5,601C 965.797,603.545 965.631,606.045 964,608.5C 951.979,608.607 939.812,608.44 927.5,608C 917.392,606.128 917.059,603.628 926.5,600.5 Z"/></g>
<g><path style="opacity:0.884" fill="#000000" d="M 1608.5,604.5 C 1618.52,604.168 1628.52,604.501 1638.5,605.5C 1639.86,607.306 1639.53,608.806 1637.5,610C 1626.83,610.667 1616.17,610.667 1605.5,610C 1604.09,609.632 1603.09,608.799 1602.5,607.5C 1604.44,606.199 1606.44,605.199 1608.5,604.5 Z"/></g>
<g><path style="opacity:0.91" fill="#000000" d="M 1127.5,605.5 C 1132.24,605.161 1133.57,607.161 1131.5,611.5C 1128.54,613.812 1125.21,615.312 1121.5,616C 1109.83,616.667 1098.17,616.667 1086.5,616C 1084.67,615.252 1083,614.252 1081.5,613C 1083.89,611.139 1086.55,609.806 1089.5,609C 1100.5,608.667 1111.5,608.333 1122.5,608C 1124.49,607.626 1126.16,606.793 1127.5,605.5 Z"/></g>
<g><path style="opacity:0.918" fill="#000000" d="M 1226.5,605.5 C 1230.18,605.335 1233.85,605.501 1237.5,606C 1239.3,607.387 1239.97,608.887 1239.5,610.5C 1244.1,609.345 1248.76,608.512 1253.5,608C 1272.5,607.333 1291.5,607.333 1310.5,608C 1314.03,608.951 1317.36,610.284 1320.5,612C 1316.45,612.794 1312.45,613.794 1308.5,615C 1278.11,616.082 1247.77,615.249 1217.5,612.5C 1219.27,608.462 1222.27,606.129 1226.5,605.5 Z"/></g>
<g><path style="opacity:0.91" fill="#000000" d="M 1380.5,605.5 C 1384.01,604.994 1387.17,605.66 1390,607.5C 1390.67,608.5 1390.67,609.5 1390,610.5C 1385.57,613.004 1380.74,614.504 1375.5,615C 1366.59,615.816 1357.76,615.65 1349,614.5C 1348.09,611.648 1348.92,609.481 1351.5,608C 1359.83,607.667 1368.17,607.333 1376.5,607C 1378.06,606.79 1379.39,606.29 1380.5,605.5 Z"/></g>
<g><path style="opacity:0.854" fill="#000000" d="M 1492.5,606.5 C 1493.98,606.238 1495.31,606.571 1496.5,607.5C 1494.91,610.256 1492.58,612.089 1489.5,613C 1481.59,613.814 1473.75,613.647 1466,612.5C 1465.25,613.126 1464.42,613.626 1463.5,614C 1455.17,614.667 1446.83,614.667 1438.5,614C 1435.7,611.315 1436.36,609.648 1440.5,609C 1449.8,607.969 1458.97,608.469 1468,610.5C 1474.81,609.76 1481.64,609.26 1488.5,609C 1490.07,608.392 1491.4,607.558 1492.5,606.5 Z"/></g>
<g><path style="opacity:0.903" fill="#000000" d="M 1854.5,608.5 C 1878.5,608.333 1902.5,608.5 1926.5,609C 1931.84,611.007 1935,614.841 1936,620.5C 1936.67,626.833 1936.67,633.167 1936,639.5C 1931.57,646.647 1925.4,651.814 1917.5,655C 1909.03,658.284 1900.36,660.951 1891.5,663C 1899.05,665.177 1906.72,666.844 1914.5,668C 1931.48,669.128 1948.48,669.794 1965.5,670C 1968.4,673.229 1967.73,675.563 1963.5,677C 1942.04,678.29 1920.71,677.29 1899.5,674C 1893.28,673.096 1887.61,670.93 1882.5,667.5C 1880.72,663.461 1881.38,659.961 1884.5,657C 1893.15,654.67 1901.82,652.337 1910.5,650C 1916.7,647.984 1922.2,644.817 1927,640.5C 1930.28,633.527 1930.28,626.527 1927,619.5C 1926.1,618.299 1924.93,617.465 1923.5,617C 1900.5,616.667 1877.5,616.333 1854.5,616C 1853.35,613.541 1853.35,611.041 1854.5,608.5 Z"/></g>
<g><path style="opacity:0.879" fill="#000000" d="M 1054.5,609.5 C 1059.75,609.374 1061.09,611.374 1058.5,615.5C 1046.79,621.054 1034.46,623.221 1021.5,622C 1018.72,619.216 1019.38,617.549 1023.5,617C 1034.37,616.199 1044.7,613.699 1054.5,609.5 Z"/></g>
<g><path style="opacity:0.886" fill="#000000" d="M 1761.5,609.5 C 1771.2,609.353 1780.87,609.853 1790.5,611C 1795,615.077 1794.33,617.911 1788.5,619.5C 1779.23,618.04 1769.9,617.207 1760.5,617C 1759.31,615.981 1758.31,614.814 1757.5,613.5C 1758.87,612.16 1760.2,610.827 1761.5,609.5 Z"/></g>
<g><path style="opacity:0.883" fill="#000000" d="M 1698.5,610.5 C 1702.51,610.014 1704.34,611.68 1704,615.5C 1700.63,618.269 1696.8,620.102 1692.5,621C 1684.83,621.667 1677.17,621.667 1669.5,621C 1664.17,618.667 1664.17,616.333 1669.5,614C 1677.83,613.667 1686.17,613.333 1694.5,613C 1696.07,612.392 1697.4,611.558 1698.5,610.5 Z"/></g>
<g><path style="opacity:0.878" fill="#000000" d="M 1186.5,611.5 C 1189.25,611.187 1191.91,611.52 1194.5,612.5C 1196.02,616.186 1194.69,618.353 1190.5,619C 1181.95,621.242 1173.29,621.909 1164.5,621C 1159.56,619.49 1159.23,617.157 1163.5,614C 1171.41,613.976 1179.08,613.143 1186.5,611.5 Z"/></g>
<g><path style="opacity:0.906" fill="#000000" d="M 1769.5,662.5 C 1771.53,662.338 1773.53,662.505 1775.5,663C 1776.1,664.062 1776.43,665.228 1776.5,666.5C 1770.14,686.337 1766.47,706.67 1765.5,727.5C 1763.88,729.439 1762.04,729.772 1760,728.5C 1759.35,716.766 1759.68,705.1 1761,693.5C 1750.22,706.062 1739.22,718.396 1728,730.5C 1719.22,745.95 1708.88,760.284 1697,773.5C 1679.85,788.811 1664.68,805.811 1651.5,824.5C 1635.59,836.907 1620.76,850.573 1607,865.5C 1606,867.5 1605,869.5 1604,871.5C 1593.03,882.798 1584.03,895.465 1577,909.5C 1568.25,921.998 1560.25,934.998 1553,948.5C 1551.76,954.843 1550.43,961.176 1549,967.5C 1538.28,980.548 1527.95,993.881 1518,1007.5C 1516.58,1014.24 1512.91,1019.24 1507,1022.5C 1502.78,1030.95 1499.11,1039.61 1496,1048.5C 1494.17,1063.47 1492.5,1078.47 1491,1093.5C 1488.42,1105 1484.42,1116 1479,1126.5C 1470.33,1140.5 1461.67,1154.5 1453,1168.5C 1447.16,1175.37 1441,1181.87 1434.5,1188C 1419.83,1199.33 1405.17,1210.67 1390.5,1222C 1368.54,1244.19 1346.37,1266.03 1324,1287.5C 1323.5,1288.5 1323,1289.5 1322.5,1290.5C 1335.52,1300.02 1346.69,1311.35 1356,1324.5C 1362.65,1318.01 1369.15,1311.35 1375.5,1304.5C 1376.65,1306.76 1376.81,1309.1 1376,1311.5C 1371.63,1318.88 1366.13,1325.38 1359.5,1331C 1368.1,1345.25 1371.77,1360.75 1370.5,1377.5C 1371.89,1393.71 1368.39,1408.71 1360,1422.5C 1352.24,1431.8 1342.41,1437.63 1330.5,1440C 1295.73,1442.63 1261.07,1441.63 1226.5,1437C 1203.15,1433.55 1181.81,1425.22 1162.5,1412C 1146.1,1397.83 1138.44,1379.83 1139.5,1358C 1138.72,1335.77 1142.22,1314.27 1150,1293.5C 1153.98,1285.51 1159.48,1278.68 1166.5,1273C 1178.04,1264.39 1190.37,1257.06 1203.5,1251C 1211.84,1249.58 1220.18,1249.91 1228.5,1252C 1236.33,1255.77 1236.17,1256.94 1228,1255.5C 1218.74,1256.52 1209.57,1258.02 1200.5,1260C 1222.01,1259.59 1243.34,1261.26 1264.5,1265C 1282.94,1269.25 1300.1,1276.42 1316,1286.5C 1317.67,1284.17 1319.33,1281.83 1321,1279.5C 1343.11,1259.39 1364.61,1238.56 1385.5,1217C 1400.17,1205.67 1414.83,1194.33 1429.5,1183C 1434.33,1178.17 1439.17,1173.33 1444,1168.5C 1458.13,1147.91 1470.47,1126.24 1481,1103.5C 1484.9,1087.76 1486.9,1071.76 1487,1055.5C 1489.14,1042.22 1493.8,1029.89 1501,1018.5C 1502.9,1016.47 1505.06,1014.8 1507.5,1013.5C 1516.69,996.46 1527.86,980.793 1541,966.5C 1543.39,959.68 1545.06,952.68 1546,945.5C 1552.58,933.328 1559.92,921.661 1568,910.5C 1570.27,906.286 1572.27,901.953 1574,897.5C 1584.69,883.478 1595.36,869.478 1606,855.5C 1620.33,842.5 1634.67,829.5 1649,816.5C 1660.91,799.056 1674.91,783.39 1691,769.5C 1702.88,756.284 1713.22,741.95 1722,726.5C 1732.3,714.534 1742.96,702.867 1754,691.5C 1756.35,685.103 1760.35,680.103 1766,676.5C 1766.4,675.128 1766.9,673.795 1767.5,672.5C 1767,672.167 1766.5,671.833 1766,671.5C 1747.92,673.974 1729.75,674.807 1711.5,674C 1710.17,673.333 1708.83,672.667 1707.5,672C 1709.21,669.957 1711.21,668.29 1713.5,667C 1727.85,666.604 1742.18,665.938 1756.5,665C 1761.13,664.95 1765.46,664.117 1769.5,662.5 Z M 1190.5,1268.5 C 1217.17,1266.93 1243.5,1269.09 1269.5,1275C 1282.61,1278.87 1294.95,1284.37 1306.5,1291.5C 1304.74,1293.56 1304.41,1295.73 1305.5,1298C 1309,1298.7 1312.33,1298.2 1315.5,1296.5C 1338.42,1311.25 1353.92,1331.58 1362,1357.5C 1364.33,1373.96 1363.66,1390.29 1360,1406.5C 1354.45,1422.37 1343.29,1431.2 1326.5,1433C 1294.03,1434.55 1261.7,1433.22 1229.5,1429C 1206.39,1425.75 1185.39,1417.41 1166.5,1404C 1156.06,1395.62 1149.89,1384.79 1148,1371.5C 1146.99,1354.09 1147.66,1336.76 1150,1319.5C 1151.81,1304.21 1158.14,1291.21 1169,1280.5C 1168.57,1284.59 1168.07,1288.76 1167.5,1293C 1168.33,1303.5 1169.17,1314 1170,1324.5C 1170.94,1308.86 1173.61,1293.53 1178,1278.5C 1180.32,1272.67 1184.48,1269.33 1190.5,1268.5 Z"/></g>
<g><path style="opacity:0.758" fill="#000000" d="M 753.5,719.5 C 746.793,721.35 740.459,720.183 734.5,716C 725.008,709.847 717.674,701.847 712.5,692C 713.249,690.266 713.749,688.433 714,686.5C 716.401,685.398 718.901,685.231 721.5,686C 741.327,703.828 760.494,722.328 779,741.5C 783.321,747.132 785.654,753.465 786,760.5C 778.053,748.886 769.719,737.552 761,726.5C 758.63,723.961 756.13,721.628 753.5,719.5 Z M 753.5,719.5 C 742.168,712.681 731.501,704.848 721.5,696C 718.38,693.592 717.047,690.426 717.5,686.5C 730.673,695.997 742.673,706.997 753.5,719.5 Z"/></g>
<g><path style="opacity:0.888" fill="#000000" d="M 607.5,694.5 C 609.467,694.261 611.301,694.594 613,695.5C 613.667,700.5 613.667,705.5 613,710.5C 608.335,721.496 604.668,732.829 602,744.5C 600.926,748.319 599.093,751.652 596.5,754.5C 595.337,749.198 595.171,743.864 596,738.5C 598.197,729.243 601.197,720.243 605,711.5C 606.043,705.848 606.877,700.181 607.5,694.5 Z"/></g>
<g><path style="opacity:0.927" fill="#000000" d="M 661.5,694.5 C 663.911,694.137 665.411,695.137 666,697.5C 666.333,706.167 666.667,714.833 667,723.5C 668.217,726.994 669.717,730.327 671.5,733.5C 664.513,736.346 660.68,734.013 660,726.5C 659.333,716.833 659.333,707.167 660,697.5C 660.513,696.473 661.013,695.473 661.5,694.5 Z"/></g>
<g><path style="opacity:0.891" fill="#000000" d="M 1835.5,719.5 C 1836.98,719.238 1838.31,719.571 1839.5,720.5C 1838.25,723.329 1836.75,725.995 1835,728.5C 1824.13,739.036 1812.97,749.202 1801.5,759C 1795.24,765.032 1789.58,771.532 1784.5,778.5C 1782.55,780.095 1780.55,780.595 1778.5,780C 1775.12,784.59 1771.62,789.09 1768,793.5C 1758.69,803.142 1749.02,812.475 1739,821.5C 1738.31,820.975 1737.81,820.308 1737.5,819.5C 1738.39,816.716 1739.56,814.05 1741,811.5C 1750.1,800.397 1759.93,789.897 1770.5,780C 1772.72,778.725 1775.05,777.725 1777.5,777C 1782.66,767.832 1789.33,759.832 1797.5,753C 1810.43,742.051 1823.09,730.885 1835.5,719.5 Z"/></g>
<g><path style="opacity:0.92" fill="#000000" d="M 1990.5,731.5 C 1993.17,732.457 1994.67,734.457 1995,737.5C 1995.17,747.542 1995.83,757.542 1997,767.5C 1999.03,772.438 2002.53,775.938 2007.5,778C 1998.05,784.197 1992.22,781.697 1990,770.5C 1987.84,757.424 1988,744.424 1990.5,731.5 Z"/></g>
<g><path style="opacity:0.846" fill="#000000" d="M 697.5,802.5 C 682.838,797.476 676.171,787.143 677.5,771.5C 677.199,764.982 678.032,758.649 680,752.5C 681.163,754.285 681.83,756.285 682,758.5C 682.224,766.543 682.891,774.543 684,782.5C 688.747,789.066 693.247,795.732 697.5,802.5 Z"/></g>
<g><path style="opacity:0.913" fill="#000000" d="M 594.5,777.5 C 595.586,777.62 596.253,778.287 596.5,779.5C 595.266,785.106 594.433,790.772 594,796.5C 593.848,809.203 593.182,821.869 592,834.5C 589.957,832.792 588.29,830.792 587,828.5C 586.333,816.833 586.333,805.167 587,793.5C 588.265,787.513 590.765,782.179 594.5,777.5 Z"/></g>
<g><path style="opacity:0.901" fill="#000000" d="M 1133.5,1692.5 C 1134.63,1690.87 1135.96,1689.37 1137.5,1688C 1111.56,1669.91 1087.23,1649.74 1064.5,1627.5C 1061.91,1623.32 1059.08,1619.32 1056,1615.5C 1051.86,1606.55 1047.19,1597.88 1042,1589.5C 1034.93,1581.03 1028.6,1572.03 1023,1562.5C 1018.05,1556.76 1013.21,1550.93 1008.5,1545C 1006.62,1545.51 1004.79,1545.34 1003,1544.5C 1002.63,1542.1 1002.63,1539.77 1003,1537.5C 995.751,1526.38 987.084,1516.38 977,1507.5C 973.715,1502.55 970.048,1497.88 966,1493.5C 950.87,1478.5 935.37,1463.84 919.5,1449.5C 902.725,1431.23 886.892,1412.23 872,1392.5C 866.425,1381.01 860.091,1370.01 853,1359.5C 849.045,1353.88 844.712,1348.54 840,1343.5C 834.503,1333.17 828.503,1323.17 822,1313.5C 818.16,1302.15 813.494,1291.15 808,1280.5C 799.991,1257.47 792.991,1234.14 787,1210.5C 782.617,1198.07 777.951,1185.73 773,1173.5C 770.425,1168.59 767.425,1163.92 764,1159.5C 748.384,1126.93 731.717,1094.93 714,1063.5C 710.356,1052.26 707.023,1040.92 704,1029.5C 701.393,1024.62 699.06,1019.62 697,1014.5C 693.675,997.907 690.675,981.241 688,964.5C 685.915,955.661 683.248,946.994 680,938.5C 678.225,928.853 676.559,919.186 675,909.5C 668.621,889.27 662.621,868.937 657,848.5C 656.333,846.5 656.333,844.5 657,842.5C 659.149,841.348 660.982,839.848 662.5,838C 667.686,836.868 672.853,836.701 678,837.5C 683.155,835.288 688.322,835.122 693.5,837C 685.26,840.533 676.76,843.366 668,845.5C 666.743,845.85 666.409,846.517 667,847.5C 684.5,865.667 702,883.833 719.5,902C 725.291,906.981 731.791,910.814 739,913.5C 739.667,914.833 739.667,916.167 739,917.5C 737.333,918.5 735.667,919.5 734,920.5C 729.18,919.007 724.68,916.84 720.5,914C 703.36,898.194 686.86,881.694 671,864.5C 673.086,878.839 676.752,892.839 682,906.5C 683.96,922.268 687.626,937.602 693,952.5C 696.765,971.09 700.098,989.757 703,1008.5C 710.476,1023.06 715.81,1038.4 719,1054.5C 732.603,1079.37 745.936,1104.37 759,1129.5C 764.123,1143.08 770.789,1155.75 779,1167.5C 787.13,1185.56 793.464,1204.22 798,1223.5C 805.965,1252.73 816.298,1281.06 829,1308.5C 834.919,1318 840.586,1327.67 846,1337.5C 850.712,1342.54 855.045,1347.88 859,1353.5C 866.505,1365.17 873.505,1377.17 880,1389.5C 892.953,1406.39 906.619,1422.72 921,1438.5C 939.607,1455.11 957.607,1472.44 975,1490.5C 981.551,1500.06 989.218,1508.72 998,1516.5C 1001.83,1521.67 1005.67,1526.83 1009.5,1532C 1012.54,1531.67 1015.21,1530.34 1017.5,1528C 1023.92,1521.58 1029.59,1514.58 1034.5,1507C 1039.65,1503.04 1042.15,1504.21 1042,1510.5C 1037.65,1515.19 1033.65,1520.19 1030,1525.5C 1025.3,1530.43 1020.13,1534.76 1014.5,1538.5C 1032.82,1560.48 1048.66,1584.14 1062,1609.5C 1069.05,1619.56 1077.22,1628.73 1086.5,1637C 1104.49,1652.66 1123.32,1667.16 1143,1680.5C 1148.49,1677.02 1153.99,1673.52 1159.5,1670C 1165.16,1667.32 1170.83,1664.99 1176.5,1663C 1166.83,1670 1157.17,1677 1147.5,1684C 1162.53,1694.85 1177.19,1706.18 1191.5,1718C 1196.67,1721.42 1202,1724.59 1207.5,1727.5C 1221.38,1720.39 1235.38,1713.56 1249.5,1707C 1271.24,1698.97 1292.57,1689.97 1313.5,1680C 1328.08,1669.79 1342.91,1659.96 1358,1650.5C 1341.6,1636.21 1322.43,1626.38 1300.5,1621C 1298.17,1619.76 1297.5,1618.09 1298.5,1616C 1314.74,1615.86 1329.74,1620.19 1343.5,1629C 1351.5,1634.67 1359.83,1639.83 1368.5,1644.5C 1389.67,1632.08 1411,1619.91 1432.5,1608C 1442.4,1600.43 1450.9,1591.6 1458,1581.5C 1460.8,1577.7 1463.96,1574.2 1467.5,1571C 1485.96,1558.36 1503.96,1545.19 1521.5,1531.5C 1532.29,1524.55 1542.95,1517.39 1553.5,1510C 1589.44,1478.74 1620.28,1443.24 1646,1403.5C 1653.22,1389.73 1659.88,1375.73 1666,1361.5C 1679.58,1340.67 1692.92,1319.67 1706,1298.5C 1718.41,1276 1731.08,1253.67 1744,1231.5C 1758.77,1198.18 1774.1,1165.18 1790,1132.5C 1799.81,1102.88 1811.81,1074.22 1826,1046.5C 1832.51,1036.15 1839.51,1026.15 1847,1016.5C 1855.58,1000.34 1864.91,984.671 1875,969.5C 1880.99,956.532 1885.99,943.199 1890,929.5C 1901.42,910.333 1913.08,891.333 1925,872.5C 1932.74,856.677 1940.74,841.01 1949,825.5C 1952.61,817.279 1955.94,808.946 1959,800.5C 1960.27,795.246 1960.77,789.913 1960.5,784.5C 1957.48,784.665 1954.48,784.498 1951.5,784C 1956.51,783.805 1961.18,782.805 1965.5,781C 1967.95,788.365 1968.12,795.865 1966,803.5C 1955.68,828.473 1944.01,852.806 1931,876.5C 1917.66,896.505 1905.33,917.172 1894,938.5C 1891.06,950.713 1886.72,962.38 1881,973.5C 1870.91,988.671 1861.58,1004.34 1853,1020.5C 1836.67,1041.49 1823.67,1064.49 1814,1089.5C 1800.9,1127.14 1784.9,1163.47 1766,1198.5C 1762,1208.5 1758,1218.5 1754,1228.5C 1740.75,1251.34 1727.75,1274.34 1715,1297.5C 1704.58,1312.66 1694.91,1328.33 1686,1344.5C 1683.38,1348.78 1680.38,1352.78 1677,1356.5C 1669.68,1371.8 1662.35,1387.14 1655,1402.5C 1630.41,1442.78 1600.25,1478.61 1564.5,1510C 1533.83,1532 1503.17,1554 1472.5,1576C 1467.23,1581.26 1462.73,1587.1 1459,1593.5C 1449.02,1604.15 1437.85,1613.32 1425.5,1621C 1408.68,1629.24 1392.35,1638.24 1376.5,1648C 1382.97,1650.62 1389.64,1652.62 1396.5,1654C 1411.02,1661.11 1409.69,1663.78 1392.5,1662C 1383.33,1659.5 1374.33,1656.83 1365.5,1654C 1348.17,1665.33 1330.83,1676.67 1313.5,1688C 1280.57,1701.8 1247.9,1716.13 1215.5,1731C 1235.34,1742.18 1256.01,1751.51 1277.5,1759C 1296.49,1769.99 1316.16,1779.66 1336.5,1788C 1347.41,1795.79 1359.41,1801.45 1372.5,1805C 1403.32,1820.74 1434.65,1835.41 1466.5,1849C 1489.74,1859.95 1512.4,1871.95 1534.5,1885C 1564.77,1898.14 1594.77,1911.8 1624.5,1926C 1657.35,1933.13 1690.35,1939.46 1723.5,1945C 1736.17,1948.33 1748.83,1951.67 1761.5,1955C 1784.26,1958.02 1806.93,1961.68 1829.5,1966C 1867.81,1967.28 1906.14,1967.95 1944.5,1968C 1963.39,1972.84 1982.39,1977.18 2001.5,1981C 2017.84,1981.17 2034.18,1981.67 2050.5,1982.5C 2053.01,1984.59 2052.68,1986.42 2049.5,1988C 2036.59,1989.3 2023.59,1989.96 2010.5,1990C 2013.17,1992.33 2013.17,1994.67 2010.5,1997C 1979.39,2000.29 1948.72,1997.96 1918.5,1990C 1912.17,1989.27 1905.84,1988.6 1899.5,1988C 1898.5,1987 1897.5,1986 1896.5,1985C 1903.03,1983.16 1909.7,1982.5 1916.5,1983C 1919.17,1984.67 1919.17,1986.33 1916.5,1988C 1926.1,1989.93 1935.77,1991.43 1945.5,1992.5C 1965.8,1991.07 1986.14,1990.24 2006.5,1990C 1984.59,1986.49 1962.93,1981.82 1941.5,1976C 1902.81,1975.92 1864.15,1975.26 1825.5,1974C 1802.97,1969.47 1780.3,1965.8 1757.5,1963C 1743.58,1959.02 1729.58,1955.35 1715.5,1952C 1683.68,1946.79 1652.01,1940.79 1620.5,1934C 1593.87,1920.9 1566.87,1908.57 1539.5,1897C 1499.18,1874.51 1457.85,1854.17 1415.5,1836C 1394.21,1824.36 1372.21,1814.36 1349.5,1806C 1336.34,1797.42 1322.34,1790.42 1307.5,1785C 1289.38,1773.51 1270.04,1764.51 1249.5,1758C 1235.21,1750.74 1220.88,1743.57 1206.5,1736.5C 1194,1744.25 1181.33,1751.75 1168.5,1759C 1166.46,1761.37 1164.13,1763.37 1161.5,1765C 1147.58,1770.42 1133.92,1776.42 1120.5,1783C 1092.18,1803.16 1063.51,1822.83 1034.5,1842C 992.319,1867.95 946.986,1886.29 898.5,1897C 872.558,1909.93 845.224,1916.09 816.5,1915.5C 815.071,1912.17 816.071,1909.67 819.5,1908C 835.285,1906.9 850.952,1904.9 866.5,1902C 877.407,1898.25 888.074,1893.92 898.5,1889C 946.214,1878.43 990.881,1860.43 1032.5,1835C 1061.83,1815 1091.17,1795 1120.5,1775C 1133.38,1769.06 1146.38,1763.39 1159.5,1758C 1161.54,1755.63 1163.87,1753.63 1166.5,1752C 1177,1746.25 1187.33,1740.25 1197.5,1734C 1198.83,1733.33 1198.83,1732.67 1197.5,1732C 1192.83,1729 1188.17,1726 1183.5,1723C 1168.94,1711.14 1154.1,1699.64 1139,1688.5C 1137.55,1690.46 1135.72,1691.8 1133.5,1692.5 Z M 1246.5,1127.5 C 1262.86,1126.44 1277.03,1131.44 1289,1142.5C 1292.29,1163.22 1283.96,1176.88 1264,1183.5C 1257.07,1175.23 1250.07,1166.89 1243,1158.5C 1242.33,1150.83 1242.33,1143.17 1243,1135.5C 1244.45,1132.93 1245.62,1130.26 1246.5,1127.5 Z M 1190.5,1268.5 C 1184.48,1269.33 1180.32,1272.67 1178,1278.5C 1173.61,1293.53 1170.94,1308.86 1170,1324.5C 1169.17,1314 1168.33,1303.5 1167.5,1293C 1168.07,1288.76 1168.57,1284.59 1169,1280.5C 1158.14,1291.21 1151.81,1304.21 1150,1319.5C 1147.66,1336.76 1146.99,1354.09 1148,1371.5C 1149.89,1384.79 1156.06,1395.62 1166.5,1404C 1185.39,1417.41 1206.39,1425.75 1229.5,1429C 1261.7,1433.22 1294.03,1434.55 1326.5,1433C 1343.29,1431.2 1354.45,1422.37 1360,1406.5C 1363.66,1390.29 1364.33,1373.96 1362,1357.5C 1353.92,1331.58 1338.42,1311.25 1315.5,1296.5C 1312.33,1298.2 1309,1298.7 1305.5,1298C 1304.41,1295.73 1304.74,1293.56 1306.5,1291.5C 1294.95,1284.37 1282.61,1278.87 1269.5,1275C 1243.5,1269.09 1217.17,1266.93 1190.5,1268.5 Z"/></g>
<g><path style="opacity:0.865" fill="#000000" d="M 809.5,781.5 C 811.199,781.34 812.866,781.506 814.5,782C 813.643,782.689 812.977,783.522 812.5,784.5C 813.168,790.177 814.002,795.844 815,801.5C 819.633,807.135 824.633,812.468 830,817.5C 832.245,820.89 833.245,824.557 833,828.5C 820.571,823.072 811.904,814.072 807,801.5C 805.881,794.476 806.715,787.809 809.5,781.5 Z"/></g>
<g><path style="opacity:0.891" fill="#000000" d="M 2010.5,785.5 C 2013.72,789.489 2015.39,794.156 2015.5,799.5C 2013.82,811.786 2012.65,824.119 2012,836.5C 2011,838.833 2010,841.167 2009,843.5C 2007.75,841.999 2006.75,840.332 2006,838.5C 2005.83,834.667 2005.67,830.833 2005.5,827C 2006.39,816.177 2007.22,805.344 2008,794.5C 2008.74,791.454 2009.57,788.454 2010.5,785.5 Z"/></g>
<g><path style="opacity:0.894" fill="#000000" d="M 1909.5,798.5 C 1912.31,798.588 1913.64,800.088 1913.5,803C 1909.95,810.962 1906.79,819.129 1904,827.5C 1903.06,831.114 1902.39,834.781 1902,838.5C 1895.48,847.533 1888.48,856.199 1881,864.5C 1878.7,862.662 1878.03,860.328 1879,857.5C 1882.98,849.531 1886.98,841.531 1891,833.5C 1892.11,831.963 1893.61,831.297 1895.5,831.5C 1897.85,819.441 1902.51,808.441 1909.5,798.5 Z"/></g>
<g><path style="opacity:0.125" fill="#000000" d="M 697.5,802.5 C 698.167,802.5 698.5,802.833 698.5,803.5C 698.167,803.167 697.833,802.833 697.5,802.5 Z"/></g>
<g><path style="opacity:0.176" fill="#000000" d="M 698.5,803.5 C 699.833,804.167 699.833,804.167 698.5,803.5 Z"/></g>
<g><path style="opacity:0.834" fill="#000000" d="M 700.5,809.5 C 705.569,813.215 710.902,816.715 716.5,820C 721.738,824.392 725.072,829.892 726.5,836.5C 725.8,840.969 724.633,845.303 723,849.5C 721.333,844.5 719.667,839.5 718,834.5C 712.808,827.462 707.141,820.795 701,814.5C 700.506,812.866 700.34,811.199 700.5,809.5 Z"/></g>
<g><path style="opacity:0.883" fill="#000000" d="M 649.5,832.5 C 652.739,832.413 655.739,833.08 658.5,834.5C 658.5,835.5 658.5,836.5 658.5,837.5C 654.464,838.02 651.297,840.02 649,843.5C 631.459,867.98 620.292,894.98 615.5,924.5C 621.398,921.107 626.565,916.774 631,911.5C 631.667,912.167 631.667,912.833 631,913.5C 624.953,921.092 618.786,928.592 612.5,936C 610.598,937.301 608.598,937.968 606.5,938C 605.834,929.789 606.667,921.622 609,913.5C 616.177,883.146 629.677,856.146 649.5,832.5 Z"/></g>
<g><path style="opacity:0.873" fill="#000000" d="M 1724.5,835.5 C 1725.38,835.369 1726.04,835.702 1726.5,836.5C 1719.45,848.583 1710.95,859.583 1701,869.5C 1697.84,873.156 1695.17,877.156 1693,881.5C 1690.71,875.802 1691.38,870.469 1695,865.5C 1701.37,858.794 1707.37,851.794 1713,844.5C 1716.18,840.462 1720.02,837.462 1724.5,835.5 Z"/></g>
<g><path style="opacity:0.853" fill="#000000" d="M 856.5,846.5 C 861.272,850.415 866.272,854.248 871.5,858C 875.98,863.078 877.647,868.911 876.5,875.5C 869.804,868.638 862.638,862.305 855,856.5C 852.739,852.654 853.239,849.32 856.5,846.5 Z"/></g>
<g><path style="opacity:0.89" fill="#000000" d="M 2014.5,863.5 C 2015.5,863.414 2016.33,863.748 2017,864.5C 2022.32,877.921 2026.48,891.755 2029.5,906C 2028.47,910.27 2027.13,914.437 2025.5,918.5C 2024.19,917.088 2023.36,915.421 2023,913.5C 2021.23,901.529 2018.23,889.862 2014,878.5C 2013.34,873.463 2013.5,868.463 2014.5,863.5 Z"/></g>
<g><path style="opacity:0.831" fill="#000000" d="M 600.5,870.5 C 600.256,872.837 600.589,875.337 601.5,878C 601.129,880.856 600.629,883.689 600,886.5C 595.82,896.855 591.653,907.189 587.5,917.5C 585.876,917.64 584.71,916.973 584,915.5C 583.333,913.5 583.333,911.5 584,909.5C 587.924,901.314 591.591,892.981 595,884.5C 596.157,879.44 597.991,874.773 600.5,870.5 Z"/></g>
<g><path style="opacity:0.871" fill="#000000" d="M 745.5,879.5 C 746.601,880.848 747.601,882.348 748.5,884C 761.444,890.368 767.944,900.868 768,915.5C 768.667,922.167 768.667,928.833 768,935.5C 766.289,933.044 764.956,930.377 764,927.5C 761.709,918.368 759.042,909.368 756,900.5C 751.648,897.145 747.648,893.479 744,889.5C 743.153,885.928 743.653,882.594 745.5,879.5 Z"/></g>
<g><path style="opacity:0.451" fill="#000000" d="M 1843.5,934.5 C 1849.73,921.378 1855.4,908.045 1860.5,894.5C 1861.65,897.106 1861.82,899.773 1861,902.5C 1855.25,913.318 1849.41,923.985 1843.5,934.5 Z"/></g>
<g><path style="opacity:0.846" fill="#000000" d="M 1685.5,902.5 C 1686.38,902.369 1687.04,902.702 1687.5,903.5C 1685.11,908.927 1683.27,914.593 1682,920.5C 1678.49,925.537 1674.99,930.537 1671.5,935.5C 1670.91,935.291 1670.41,934.957 1670,934.5C 1668.32,927.53 1670.32,921.863 1676,917.5C 1677.94,913.952 1679.61,910.286 1681,906.5C 1682.67,905.267 1684.17,903.933 1685.5,902.5 Z"/></g>
<g><path style="opacity:0.869" fill="#000000" d="M 906.5,907.5 C 907.497,907.47 908.164,907.97 908.5,909C 908.979,914.013 910.146,918.846 912,923.5C 916.536,928.612 921.536,933.279 927,937.5C 927.273,939.329 928.107,940.829 929.5,942C 926.234,943.923 922.9,943.923 919.5,942C 910.012,937.361 904.679,929.861 903.5,919.5C 903.498,915.156 904.498,911.156 906.5,907.5 Z"/></g>
<g><path style="opacity:0.304" fill="#000000" d="M 1843.5,934.5 C 1843.62,936.484 1842.95,938.15 1841.5,939.5C 1839.91,936.83 1840.58,935.163 1843.5,934.5 Z"/></g>
<g><path style="opacity:0.862" fill="#000000" d="M 2035.5,934.5 C 2037.02,934.511 2038.18,935.177 2039,936.5C 2043.22,944.824 2046.05,953.657 2047.5,963C 2046.15,966.708 2044.99,970.542 2044,974.5C 2043.25,972.668 2042.25,971.001 2041,969.5C 2037.68,957.937 2035.85,946.27 2035.5,934.5 Z"/></g>
<g><path style="opacity:0.853" fill="#000000" d="M 586.5,936.5 C 592.244,950.949 591.744,965.282 585,979.5C 583.264,989.868 580.43,999.868 576.5,1009.5C 573.907,994.867 575.741,980.867 582,967.5C 583.975,957.225 585.475,946.892 586.5,936.5 Z"/></g>
<g><path style="opacity:0.864" fill="#000000" d="M 944.5,950.5 C 946.637,951.942 948.97,953.109 951.5,954C 957,958.833 962.5,963.667 968,968.5C 972.339,975.154 972.339,981.821 968,988.5C 966,983.833 964,979.167 962,974.5C 953.715,969.549 947.548,962.716 943.5,954C 943.989,952.862 944.322,951.695 944.5,950.5 Z"/></g>
<g><path style="opacity:0.22" fill="#000000" d="M 1818.5,963.5 C 1818.46,962.244 1818.96,961.244 1820,960.5C 1820.58,961.998 1820.08,962.998 1818.5,963.5 Z"/></g>
<g><path style="opacity:0.797" fill="#000000" d="M 1818.5,963.5 C 1817.91,978.662 1812.41,991.662 1802,1002.5C 1801.6,1001.13 1801.1,999.795 1800.5,998.5C 1805.73,989.649 1809.9,980.316 1813,970.5C 1814.37,967.734 1816.2,965.401 1818.5,963.5 Z"/></g>
<g><path style="opacity:0.306" fill="#000000" d="M 1656.5,964.5 C 1657.83,965.167 1657.83,965.167 1656.5,964.5 Z"/></g>
<g><path style="opacity:0.883" fill="#000000" d="M 1656.5,965.5 C 1650.65,977.843 1642.82,988.843 1633,998.5C 1630.06,995.501 1629.73,992.167 1632,988.5C 1637.86,981.941 1643.36,975.108 1648.5,968C 1650.91,966.293 1653.58,965.46 1656.5,965.5 Z"/></g>
<g><path style="opacity:0.811" fill="#000000" d="M 788.5,971.5 C 791.388,971.22 792.888,972.553 793,975.5C 793.195,988.918 793.862,1002.25 795,1015.5C 785.046,1001.77 782.879,987.102 788.5,971.5 Z"/></g>
<g><path style="opacity:0.889" fill="#000000" d="M 2042.5,1017.5 C 2043.73,1018.15 2044.39,1019.32 2044.5,1021C 2045.82,1027.26 2046.49,1033.6 2046.5,1040C 2045.39,1059.59 2043.73,1078.76 2041.5,1097.5C 2039.53,1096.69 2038.03,1095.36 2037,1093.5C 2036.83,1089.17 2036.67,1084.83 2036.5,1080.5C 2037.82,1062.86 2038.65,1045.19 2039,1027.5C 2039.57,1023.88 2040.73,1020.54 2042.5,1017.5 Z"/></g>
<g><path style="opacity:0.883" fill="#000000" d="M 975.5,1021.5 C 976.552,1021.35 977.552,1021.52 978.5,1022C 983.667,1027.83 988.833,1033.67 994,1039.5C 998.259,1045.49 999.092,1051.82 996.5,1058.5C 990.291,1048.45 983.124,1039.12 975,1030.5C 974.727,1028.9 974.227,1027.4 973.5,1026C 974.582,1024.67 975.249,1023.17 975.5,1021.5 Z"/></g>
<g><path style="opacity:0.896" fill="#000000" d="M 1599.5,1027.5 C 1600.87,1027.34 1602.21,1027.51 1603.5,1028C 1603,1032.48 1601.5,1036.65 1599,1040.5C 1592.99,1049.72 1586.15,1058.22 1578.5,1066C 1576.05,1066.78 1574.38,1065.94 1573.5,1063.5C 1574.33,1061.83 1575.17,1060.17 1576,1058.5C 1584.46,1048.55 1592.3,1038.22 1599.5,1027.5 Z"/></g>
<g><path style="opacity:0.78" fill="#000000" d="M 575.5,1029.5 C 576.765,1030.51 577.431,1032.01 577.5,1034C 579.737,1051.53 577.237,1068.37 570,1084.5C 567.437,1087.32 565.604,1086.82 564.5,1083C 572.041,1066 575.708,1048.16 575.5,1029.5 Z"/></g>
<g><path style="opacity:0.858" fill="#000000" d="M 1775.5,1035.5 C 1776.46,1035.95 1777.29,1036.62 1778,1037.5C 1778.67,1039.83 1778.67,1042.17 1778,1044.5C 1769.16,1059.51 1760.83,1074.85 1753,1090.5C 1753.14,1095.35 1750.97,1097.85 1746.5,1098C 1744.18,1091.95 1745.51,1086.62 1750.5,1082C 1752.1,1081.73 1753.6,1081.23 1755,1080.5C 1760.55,1066.01 1766.38,1051.68 1772.5,1037.5C 1773.6,1036.82 1774.6,1036.16 1775.5,1035.5 Z"/></g>
<g><path style="opacity:0.844" fill="#000000" d="M 810.5,1036.5 C 812.39,1036.3 813.89,1036.96 815,1038.5C 817.866,1043.57 820.199,1048.9 822,1054.5C 822.496,1059.21 822.162,1063.87 821,1068.5C 816.239,1060.89 812.239,1052.89 809,1044.5C 808.282,1041.59 808.782,1038.93 810.5,1036.5 Z"/></g>
<g><path style="opacity:0.876" fill="#000000" d="M 1572.5,1070.5 C 1569,1085.96 1561.34,1099.46 1549.5,1111C 1547.65,1112.13 1545.65,1112.63 1543.5,1112.5C 1543.34,1110.47 1543.5,1108.47 1544,1106.5C 1551.61,1099.89 1557.28,1091.89 1561,1082.5C 1565.04,1078.63 1568.87,1074.63 1572.5,1070.5 Z"/></g>
<g><path style="opacity:0.885" fill="#000000" d="M 995.5,1072.5 C 996.496,1072.41 997.329,1072.75 998,1073.5C 1001.93,1080.37 1006.6,1086.7 1012,1092.5C 1012.83,1095.17 1013.67,1097.84 1014.5,1100.5C 1014,1100.83 1013.5,1101.17 1013,1101.5C 1010.89,1100.53 1008.72,1099.69 1006.5,1099C 1001.95,1094.12 997.787,1088.96 994,1083.5C 993.112,1079.6 993.612,1075.93 995.5,1072.5 Z"/></g>
<g><path style="opacity:0.805" fill="#000000" d="M 566.5,1089.5 C 568.379,1092.86 568.879,1096.52 568,1100.5C 564.358,1112.31 561.358,1124.31 559,1136.5C 553.897,1122.22 555.897,1108.89 565,1096.5C 565.977,1094.26 566.477,1091.93 566.5,1089.5 Z"/></g>
<g><path style="opacity:0.899" fill="#000000" d="M 851.5,1101.5 C 852.822,1101.33 853.989,1101.66 855,1102.5C 859.438,1111.31 861.938,1120.65 862.5,1130.5C 862.939,1140.24 860.772,1140.91 856,1132.5C 855.116,1125.96 853.449,1119.63 851,1113.5C 850.306,1109.45 850.473,1105.45 851.5,1101.5 Z"/></g>
<g><path style="opacity:0.814" fill="#000000" d="M 2050.5,1105.5 C 2053.82,1116.14 2054.99,1127.14 2054,1138.5C 2051.39,1143.73 2049.05,1143.73 2047,1138.5C 2046.21,1127.25 2047.38,1116.25 2050.5,1105.5 Z"/></g>
<g><path style="opacity:0.91" fill="#000000" d="M 1253.5,1108.5 C 1256.86,1107.79 1259.2,1108.96 1260.5,1112C 1257.5,1113.67 1255.17,1116 1253.5,1119C 1268.28,1119.48 1281.45,1124.32 1293,1133.5C 1298.65,1144.9 1298.98,1156.56 1294,1168.5C 1287.59,1177.97 1279.09,1184.97 1268.5,1189.5C 1268.17,1190 1267.83,1190.5 1267.5,1191C 1270.97,1195.81 1269.97,1199.15 1264.5,1201C 1255.5,1201.67 1246.5,1201.67 1237.5,1201C 1232.48,1199.48 1227.48,1197.98 1222.5,1196.5C 1220.67,1193.33 1221.34,1190.83 1224.5,1189C 1232.17,1188.67 1239.83,1188.33 1247.5,1188C 1250.04,1187.86 1252.38,1187.19 1254.5,1186C 1249.38,1179.21 1243.88,1172.71 1238,1166.5C 1233.71,1154.66 1233.38,1142.66 1237,1130.5C 1241.32,1122.17 1246.82,1114.83 1253.5,1108.5 Z M 1246.5,1127.5 C 1245.62,1130.26 1244.45,1132.93 1243,1135.5C 1242.33,1143.17 1242.33,1150.83 1243,1158.5C 1250.07,1166.89 1257.07,1175.23 1264,1183.5C 1283.96,1176.88 1292.29,1163.22 1289,1142.5C 1277.03,1131.44 1262.86,1126.44 1246.5,1127.5 Z"/></g>
<g><path style="opacity:0.894" fill="#000000" d="M 1542.5,1114.5 C 1543.04,1114.56 1543.38,1114.89 1543.5,1115.5C 1535.74,1130.35 1525.57,1143.35 1513,1154.5C 1510.12,1159.6 1507.78,1164.93 1506,1170.5C 1504.11,1173.84 1501.27,1175.18 1497.5,1174.5C 1499.68,1164.81 1503.51,1155.81 1509,1147.5C 1517.95,1139.56 1525.78,1130.72 1532.5,1121C 1536.07,1119.06 1539.4,1116.89 1542.5,1114.5 Z"/></g>
<g><path style="opacity:0.859" fill="#000000" d="M 1041.5,1125.5 C 1041.17,1124.17 1040.83,1124.17 1040.5,1125.5C 1037.5,1122.68 1034.83,1119.52 1032.5,1116C 1045.64,1114.23 1054.31,1119.56 1058.5,1132C 1057.72,1135.03 1056.55,1137.86 1055,1140.5C 1052.69,1135.39 1049.53,1130.89 1045.5,1127C 1044.26,1126.21 1042.92,1125.71 1041.5,1125.5 Z"/></g>
<g><path style="opacity:0.616" fill="#000000" d="M 1040.5,1125.5 C 1040.83,1125.5 1041.17,1125.5 1041.5,1125.5C 1041.5,1125.83 1041.5,1126.17 1041.5,1126.5C 1041.17,1126.17 1040.83,1125.83 1040.5,1125.5 Z"/></g>
<g><path style="opacity:0.886" fill="#000000" d="M 1727.5,1125.5 C 1727.17,1133.7 1725.01,1141.7 1721,1149.5C 1718,1153.83 1715,1158.17 1712,1162.5C 1706.43,1168.54 1704.09,1167.54 1705,1159.5C 1713.17,1150.7 1718.5,1140.37 1721,1128.5C 1723.53,1128.05 1725.7,1127.05 1727.5,1125.5 Z"/></g>
<g><path style="opacity:0.793" fill="#000000" d="M 1041.5,1126.5 C 1049.36,1135.69 1057.36,1144.85 1065.5,1154C 1076.01,1157.01 1085.84,1161.51 1095,1167.5C 1098.01,1172.51 1097.85,1177.51 1094.5,1182.5C 1092.78,1178.89 1090.44,1175.72 1087.5,1173C 1080.09,1169.55 1072.93,1165.72 1066,1161.5C 1057.59,1149.94 1049.42,1138.27 1041.5,1126.5 Z"/></g>
<g><path style="opacity:0.793" fill="#000000" d="M 557.5,1159.5 C 558.496,1159.41 559.329,1159.75 560,1160.5C 560.667,1168.17 560.667,1175.83 560,1183.5C 556.316,1187.99 554.483,1187.32 554.5,1181.5C 555.875,1174.21 556.875,1166.88 557.5,1159.5 Z"/></g>
<g><path style="opacity:0.853" fill="#000000" d="M 895.5,1170.5 C 898.226,1170.26 900.559,1171.1 902.5,1173C 908.435,1177.93 913.268,1183.77 917,1190.5C 917.61,1193.83 918.11,1197.16 918.5,1200.5C 921.114,1200.28 922.781,1201.44 923.5,1204C 921.914,1207.13 919.58,1207.97 916.5,1206.5C 915.764,1204.21 915.598,1201.87 916,1199.5C 909.684,1191.92 902.684,1184.92 895,1178.5C 894.691,1177.23 894.191,1176.07 893.5,1175C 894.582,1173.67 895.249,1172.17 895.5,1170.5 Z"/></g>
<g><path style="opacity:0.86" fill="#000000" d="M 1475.5,1189.5 C 1476.93,1189.88 1477.76,1190.88 1478,1192.5C 1479.18,1196.45 1479.52,1200.45 1479,1204.5C 1475.83,1210.17 1472.67,1215.83 1469.5,1221.5C 1467.51,1223.33 1465.18,1224.33 1462.5,1224.5C 1462.35,1221.39 1462.85,1218.39 1464,1215.5C 1470.29,1207.93 1474.12,1199.26 1475.5,1189.5 Z"/></g>
<g><path style="opacity:0.849" fill="#000000" d="M 1681.5,1194.5 C 1684.24,1194.08 1685.58,1195.24 1685.5,1198C 1684.86,1203.61 1682.19,1207.94 1677.5,1211C 1674.47,1213.24 1671.81,1212.91 1669.5,1210C 1670.58,1206.59 1672.74,1204.09 1676,1202.5C 1677.13,1199.21 1678.96,1196.54 1681.5,1194.5 Z"/></g>
<g><path style="opacity:0.91" fill="#000000" d="M 2058.5,1194.5 C 2062.7,1195.86 2065.87,1198.53 2068,1202.5C 2068.83,1209.86 2068.66,1217.19 2067.5,1224.5C 2065.71,1226.02 2063.88,1226.35 2062,1225.5C 2062.18,1214.97 2061.01,1204.63 2058.5,1194.5 Z"/></g>
<g><path style="opacity:0.843" fill="#000000" d="M 1119.5,1202.5 C 1129.7,1202.2 1138.2,1205.86 1145,1213.5C 1145.69,1217.79 1144.86,1221.79 1142.5,1225.5C 1138.9,1218.35 1133.23,1213.52 1125.5,1211C 1121.99,1209.16 1118.32,1208.16 1114.5,1208C 1131.33,1222.83 1148.17,1237.67 1165,1252.5C 1166.2,1254.68 1166.7,1257.01 1166.5,1259.5C 1164.14,1259.66 1161.81,1259.5 1159.5,1259C 1155.71,1254.94 1151.37,1251.61 1146.5,1249C 1145.77,1247.6 1145.27,1246.1 1145,1244.5C 1133.35,1231.35 1121.52,1218.35 1109.5,1205.5C 1113.02,1204.71 1116.35,1203.71 1119.5,1202.5 Z"/></g>
<g><path style="opacity:0.876" fill="#000000" d="M 550.5,1220.5 C 552.429,1220.23 554.095,1220.73 555.5,1222C 552.546,1229.42 549.713,1236.92 547,1244.5C 544.386,1252.29 543.053,1260.29 543,1268.5C 537.599,1274.47 535.099,1273.31 535.5,1265C 536.448,1248.67 541.448,1233.84 550.5,1220.5 Z"/></g>
<g><path style="opacity:0.878" fill="#000000" d="M 934.5,1230.5 C 942.035,1239.4 947.369,1249.57 950.5,1261C 946.802,1261.32 943.636,1260.16 941,1257.5C 938.861,1251.89 936.194,1246.55 933,1241.5C 932.116,1237.57 932.616,1233.9 934.5,1230.5 Z"/></g>
<g><path style="opacity:0.868" fill="#000000" d="M 1448.5,1230.5 C 1455.66,1229.48 1457.16,1231.81 1453,1237.5C 1449.48,1240.72 1446.32,1244.22 1443.5,1248C 1441.65,1249.13 1439.65,1249.63 1437.5,1249.5C 1437.34,1247.47 1437.5,1245.47 1438,1243.5C 1441.71,1239.29 1445.21,1234.96 1448.5,1230.5 Z"/></g>
<g><path style="opacity:0.828" fill="#000000" d="M 1651.5,1236.5 C 1653.69,1244.68 1650.86,1251.02 1643,1255.5C 1635.85,1253.43 1635.85,1251.09 1643,1248.5C 1644.16,1243.12 1647,1239.12 1651.5,1236.5 Z"/></g>
<g><path style="opacity:0.89" fill="#000000" d="M 1420.5,1256.5 C 1421.68,1256.28 1422.68,1256.61 1423.5,1257.5C 1422.81,1259.44 1422.31,1261.44 1422,1263.5C 1415.95,1270.55 1410.28,1277.88 1405,1285.5C 1403.02,1287.66 1400.69,1289.32 1398,1290.5C 1395.88,1288.23 1395.55,1285.9 1397,1283.5C 1403.98,1273.69 1411.81,1264.69 1420.5,1256.5 Z"/></g>
<g><path style="opacity:0.899" fill="#000000" d="M 2068.5,1259.5 C 2070.26,1262.5 2071.43,1265.84 2072,1269.5C 2071.91,1277.71 2073.08,1285.71 2075.5,1293.5C 2074.08,1296.97 2071.75,1297.97 2068.5,1296.5C 2064.53,1284.15 2064.53,1271.82 2068.5,1259.5 Z"/></g>
<g><path style="opacity:0.864" fill="#000000" d="M 538.5,1282.5 C 539.117,1282.61 539.617,1282.94 540,1283.5C 540.436,1285.85 540.936,1288.18 541.5,1290.5C 539.375,1301.35 535.875,1311.68 531,1321.5C 530.211,1329.85 528.211,1337.85 525,1345.5C 522.635,1338 521.968,1330.33 523,1322.5C 526.565,1312.46 530.898,1302.8 536,1293.5C 537.154,1289.9 537.987,1286.23 538.5,1282.5 Z"/></g>
<g><path style="opacity:0.917" fill="#000000" d="M 1208.5,1293.5 C 1232.5,1293.33 1256.5,1293.5 1280.5,1294C 1284.11,1300.11 1282.77,1304.78 1276.5,1308C 1262.46,1314.08 1247.79,1317.74 1232.5,1319C 1252.12,1325.98 1271.12,1334.31 1289.5,1344C 1295.92,1348.59 1298.42,1354.76 1297,1362.5C 1296.07,1364.55 1294.57,1366.05 1292.5,1367C 1287.02,1369.12 1281.35,1370.45 1275.5,1371C 1248.15,1371.75 1220.82,1371.58 1193.5,1370.5C 1192.05,1364.93 1194.38,1362.26 1200.5,1362.5C 1226.15,1363.63 1251.82,1363.8 1277.5,1363C 1282.07,1362.61 1286.4,1361.44 1290.5,1359.5C 1288.36,1354.2 1284.7,1350.36 1279.5,1348C 1261.58,1340.14 1243.58,1332.47 1225.5,1325C 1220.32,1320.41 1220.32,1316.08 1225.5,1312C 1242.46,1311.01 1258.8,1307.34 1274.5,1301C 1247.11,1300.64 1219.78,1301.3 1192.5,1303C 1189.93,1300.38 1189.93,1297.72 1192.5,1295C 1198.02,1294.83 1203.35,1294.33 1208.5,1293.5 Z"/></g>
<g><path style="opacity:0.873" fill="#000000" d="M 1603.5,1295.5 C 1604.04,1295.56 1604.38,1295.89 1604.5,1296.5C 1604.03,1304.16 1600.7,1310.32 1594.5,1315C 1592.87,1315.49 1591.2,1315.66 1589.5,1315.5C 1589.46,1312.58 1590.29,1309.91 1592,1307.5C 1595.36,1302.97 1599.2,1298.97 1603.5,1295.5 Z"/></g>
<g><path style="opacity:0.857" fill="#000000" d="M 991.5,1302.5 C 993.017,1302.51 994.184,1303.18 995,1304.5C 996.516,1309.52 998.016,1314.52 999.5,1319.5C 1004.6,1319.54 1009.26,1321.04 1013.5,1324C 1018.92,1328.96 1019.76,1334.8 1016,1341.5C 1015.34,1339.19 1014.84,1336.85 1014.5,1334.5C 1013.45,1334.65 1012.45,1334.48 1011.5,1334C 1006.95,1329.6 1001.62,1326.77 995.5,1325.5C 995.66,1323.8 995.494,1322.13 995,1320.5C 989.281,1315.43 988.114,1309.43 991.5,1302.5 Z"/></g>
<g><path style="opacity:0.803" fill="#000000" d="M 2084.5,1323.5 C 2085.97,1324.35 2086.8,1325.68 2087,1327.5C 2087.67,1336.17 2087.67,1344.83 2087,1353.5C 2086.71,1355.04 2086.04,1356.38 2085,1357.5C 2081.93,1346.25 2081.77,1334.91 2084.5,1323.5 Z"/></g>
<g><path style="opacity:0.874" fill="#000000" d="M 1564.5,1350.5 C 1566.88,1351.43 1567.88,1353.26 1567.5,1356C 1565.33,1365.01 1559.99,1371.51 1551.5,1375.5C 1550.78,1372.76 1551.28,1370.09 1553,1367.5C 1557.34,1362.15 1561.17,1356.48 1564.5,1350.5 Z"/></g>
<g><path style="opacity:0.718" fill="#000000" d="M 524.5,1372.5 C 526.379,1375.86 526.879,1379.52 526,1383.5C 520.402,1401.89 515.736,1420.56 512,1439.5C 513.139,1425.52 514.472,1411.52 516,1397.5C 517.443,1392.61 519.443,1387.94 522,1383.5C 522.409,1379.7 523.243,1376.03 524.5,1372.5 Z"/></g>
<g><path style="opacity:0.817" fill="#000000" d="M 1043.5,1393.5 C 1048.54,1396.05 1052.04,1400.05 1054,1405.5C 1054.85,1411.25 1054.52,1416.92 1053,1422.5C 1051.36,1414.22 1048.36,1406.56 1044,1399.5C 1043.5,1397.53 1043.34,1395.53 1043.5,1393.5 Z"/></g>
<g><path style="opacity:0.869" fill="#000000" d="M 1522.5,1404.5 C 1526.27,1407.91 1526.44,1411.57 1523,1415.5C 1519.5,1418.33 1516,1421.17 1512.5,1424C 1510.32,1425.2 1507.99,1425.7 1505.5,1425.5C 1505.32,1423.41 1505.65,1421.41 1506.5,1419.5C 1512.75,1415.39 1518.09,1410.39 1522.5,1404.5 Z"/></g>
<g><path style="opacity:0.889" fill="#000000" d="M 2088.5,1413.5 C 2090.02,1413.51 2091.18,1414.18 2092,1415.5C 2093.65,1422.48 2094.15,1429.48 2093.5,1436.5C 2089.92,1438.4 2087.75,1437.4 2087,1433.5C 2085.96,1426.6 2086.46,1419.93 2088.5,1413.5 Z"/></g>
<g><path style="opacity:0.883" fill="#000000" d="M 1375.5,1422.5 C 1390.47,1427.65 1405.47,1432.82 1420.5,1438C 1425.19,1442.09 1427.02,1446.93 1426,1452.5C 1421.31,1450.48 1417.14,1447.65 1413.5,1444C 1401.11,1440.93 1389.11,1436.76 1377.5,1431.5C 1375.38,1428.69 1374.71,1425.69 1375.5,1422.5 Z"/></g>
<g><path style="opacity:0.878" fill="#000000" d="M 1144.5,1428.5 C 1148.14,1428.96 1149.64,1430.96 1149,1434.5C 1141.28,1439.21 1134.45,1445.04 1128.5,1452C 1124.07,1453.63 1120.23,1456.13 1117,1459.5C 1116.33,1457.83 1116.33,1456.17 1117,1454.5C 1125.1,1444.56 1134.27,1435.89 1144.5,1428.5 Z"/></g>
<g><path style="opacity:0.582" fill="#000000" d="M 511.5,1445.5 C 512.268,1446.26 512.768,1447.26 513,1448.5C 513.667,1454.83 513.667,1461.17 513,1467.5C 512.167,1468.5 511.333,1469.5 510.5,1470.5C 510.167,1470 509.833,1469.5 509.5,1469C 510.219,1461.17 510.886,1453.34 511.5,1445.5 Z"/></g>
<g><path style="opacity:0.888" fill="#000000" d="M 1467.5,1459.5 C 1469.38,1460.66 1469.88,1462.33 1469,1464.5C 1466.59,1468.92 1463.42,1472.75 1459.5,1476C 1467.3,1480.82 1475.63,1484.49 1484.5,1487C 1488.07,1489.8 1488.73,1492.97 1486.5,1496.5C 1479.09,1494.3 1471.75,1491.8 1464.5,1489C 1460.1,1487.09 1456.1,1484.59 1452.5,1481.5C 1451.83,1481.83 1451.17,1482.17 1450.5,1482.5C 1449.72,1481.27 1449.22,1479.94 1449,1478.5C 1443.92,1475.26 1440.09,1470.92 1437.5,1465.5C 1440.91,1464.18 1444.25,1464.34 1447.5,1466C 1449.98,1467.64 1452.31,1469.48 1454.5,1471.5C 1458.96,1467.37 1463.29,1463.37 1467.5,1459.5 Z"/></g>
<g><path style="opacity:0.735" fill="#000000" d="M 2103.5,1463.5 C 2105.05,1467.9 2105.88,1472.57 2106,1477.5C 2106.67,1497.5 2106.67,1517.5 2106,1537.5C 2105.6,1542.87 2104.93,1548.2 2104,1553.5C 2102.12,1547.05 2101.12,1540.39 2101,1533.5C 2100.33,1516.17 2100.33,1498.83 2101,1481.5C 2101.1,1475.34 2101.93,1469.34 2103.5,1463.5 Z"/></g>
<g><path style="opacity:0.875" fill="#000000" d="M 1094.5,1464.5 C 1103.35,1466.67 1111.51,1470.34 1119,1475.5C 1121.35,1478.77 1120.85,1481.44 1117.5,1483.5C 1113.24,1479.75 1108.58,1476.58 1103.5,1474C 1102.17,1473.33 1100.83,1473.33 1099.5,1474C 1088.26,1480.79 1077.93,1488.79 1068.5,1498C 1065.39,1499.64 1062.23,1501.14 1059,1502.5C 1058.5,1502.17 1058,1501.83 1057.5,1501.5C 1061.23,1495.27 1065.9,1489.77 1071.5,1485C 1078.81,1479.01 1086.48,1473.51 1094.5,1468.5C 1095.29,1467.3 1095.29,1465.97 1094.5,1464.5 Z"/></g>
<g><path style="opacity:0.882" fill="#000000" d="M 1521.5,1531.5 C 1506.73,1528.53 1493.57,1522.2 1482,1512.5C 1480.73,1509.33 1480.73,1506.33 1482,1503.5C 1483.56,1501.48 1485.39,1501.15 1487.5,1502.5C 1488.09,1504.38 1488.76,1506.22 1489.5,1508C 1496.89,1513.36 1504.89,1517.7 1513.5,1521C 1517.15,1523.81 1519.82,1527.31 1521.5,1531.5 Z"/></g>
<g><path style="opacity:0.863" fill="#000000" d="M 505.5,1503.5 C 507.35,1506.51 508.35,1510.01 508.5,1514C 507.636,1520.65 506.136,1527.15 504,1533.5C 502.266,1535.45 500.099,1536.45 497.5,1536.5C 497.927,1524.93 500.593,1513.93 505.5,1503.5 Z"/></g>
<g><path style="opacity:0.832" fill="#000000" d="M 1179.5,1532.5 C 1174.73,1530.62 1170.07,1528.45 1165.5,1526C 1162.5,1525.7 1159.5,1525.86 1156.5,1526.5C 1147.29,1526.09 1143.96,1521.42 1146.5,1512.5C 1149.77,1513.87 1152.77,1515.7 1155.5,1518C 1159.29,1518.16 1162.95,1518.83 1166.5,1520C 1171.29,1523.72 1175.63,1527.89 1179.5,1532.5 Z"/></g>
<g><path style="opacity:0.81" fill="#000000" d="M 1371.5,1550.5 C 1377.21,1543.62 1384.21,1538.46 1392.5,1535C 1394.02,1533.65 1395.35,1532.15 1396.5,1530.5C 1398.07,1529.69 1399.74,1529.36 1401.5,1529.5C 1401.89,1532.93 1401.23,1536.1 1399.5,1539C 1394.93,1543.15 1389.93,1543.99 1384.5,1541.5C 1380.28,1544.77 1375.95,1547.77 1371.5,1550.5 Z"/></g>
<g><path style="opacity:0.349" fill="#000000" d="M 1179.5,1532.5 C 1180.83,1533.17 1180.83,1533.17 1179.5,1532.5 Z"/></g>
<g><path style="opacity:0.329" fill="#000000" d="M 1371.5,1550.5 C 1370.83,1551.17 1370.83,1551.17 1371.5,1550.5 Z"/></g>
<g><path style="opacity:0.851" fill="#000000" d="M 1543.5,1550.5 C 1548.15,1551.33 1552.15,1553.49 1555.5,1557C 1559.71,1559.27 1564.05,1561.27 1568.5,1563C 1569.97,1566.04 1569.63,1568.87 1567.5,1571.5C 1564.69,1570.09 1562.02,1569.42 1559.5,1569.5C 1564.89,1578.12 1571.56,1585.62 1579.5,1592C 1586.1,1595.37 1593.1,1597.37 1600.5,1598C 1604.12,1600.38 1605.45,1603.54 1604.5,1607.5C 1602.93,1608.63 1601.26,1608.8 1599.5,1608C 1591.65,1605.75 1583.98,1602.92 1576.5,1599.5C 1569.53,1588.7 1562.36,1578.03 1555,1567.5C 1551.18,1564.26 1547.18,1561.26 1543,1558.5C 1540.94,1555.59 1541.11,1552.92 1543.5,1550.5 Z"/></g>
<g><path style="opacity:0.895" fill="#000000" d="M 993.5,1551.5 C 998.123,1550.41 999.956,1552.07 999,1556.5C 986.219,1568.61 973.386,1580.78 960.5,1593C 954.825,1595.97 952.992,1594.8 955,1589.5C 967.809,1576.52 980.642,1563.86 993.5,1551.5 Z"/></g>
<g><path style="opacity:0.584" fill="#000000" d="M 1370.5,1551.5 C 1369.83,1552.17 1369.83,1552.17 1370.5,1551.5 Z"/></g>
<g><path style="opacity:0.218" fill="#000000" d="M 1369.5,1552.5 C 1368.74,1554.26 1367.4,1555.26 1365.5,1555.5C 1366.26,1553.74 1367.6,1552.74 1369.5,1552.5 Z"/></g>
<g><path style="opacity:0.122" fill="#000000" d="M 1365.5,1555.5 C 1364.83,1556.17 1364.83,1556.17 1365.5,1555.5 Z"/></g>
<g><path style="opacity:0.506" fill="#000000" d="M 1364.5,1556.5 C 1363.83,1557.17 1363.83,1557.17 1364.5,1556.5 Z"/></g>
<g><path style="opacity:0.247" fill="#000000" d="M 1363.5,1557.5 C 1362.83,1558.17 1362.83,1558.17 1363.5,1557.5 Z"/></g>
<g><path style="opacity:0.146" fill="#000000" d="M 1362.5,1558.5 C 1362.03,1559.91 1361.03,1560.57 1359.5,1560.5C 1359.97,1559.09 1360.97,1558.43 1362.5,1558.5 Z"/></g>
<g><path style="opacity:0.247" fill="#000000" d="M 1359.5,1560.5 C 1358.83,1561.17 1358.83,1561.17 1359.5,1560.5 Z"/></g>
<g><path style="opacity:0.122" fill="#000000" d="M 1358.5,1561.5 C 1357.83,1562.17 1357.83,1562.17 1358.5,1561.5 Z"/></g>
<g><path style="opacity:0.882" fill="#000000" d="M 1242.5,1562.5 C 1250.04,1562.22 1257.54,1562.55 1265,1563.5C 1268.5,1566.34 1269.84,1570.01 1269,1574.5C 1266.66,1572.23 1263.82,1571.06 1260.5,1571C 1255.17,1570.67 1249.83,1570.33 1244.5,1570C 1242.39,1567.69 1241.72,1565.19 1242.5,1562.5 Z"/></g>
<g><path style="opacity:0.824" fill="#000000" d="M 1348.5,1562.5 C 1350.12,1563.84 1351.12,1565.67 1351.5,1568C 1349.55,1572.28 1346.55,1575.61 1342.5,1578C 1341.06,1578.78 1339.72,1578.61 1338.5,1577.5C 1341.89,1572.46 1345.23,1567.46 1348.5,1562.5 Z"/></g>
<g><path style="opacity:0.322" fill="#000000" d="M 1357.5,1562.5 C 1356.83,1563.17 1356.83,1563.17 1357.5,1562.5 Z"/></g>
<g><path style="opacity:0.094" fill="#000000" d="M 1354.5,1564.5 C 1355.83,1565.17 1355.83,1565.17 1354.5,1564.5 Z"/></g>
<g><path style="opacity:0.165" fill="#000000" d="M 1352.5,1565.5 C 1353.83,1566.17 1353.83,1566.17 1352.5,1565.5 Z"/></g>
<g><path style="opacity:0.897" fill="#000000" d="M 2106.5,1566.5 C 2107.22,1566.92 2107.72,1567.58 2108,1568.5C 2110.01,1581.74 2111.01,1595.08 2111,1608.5C 2115.31,1618.01 2117.15,1627.68 2116.5,1637.5C 2114.82,1635.49 2112.82,1633.82 2110.5,1632.5C 2108.95,1625.63 2106.78,1618.96 2104,1612.5C 2103.33,1601.17 2103.33,1589.83 2104,1578.5C 2104.33,1574.35 2105.16,1570.35 2106.5,1566.5 Z"/></g>
<g><path style="opacity:0.89" fill="#000000" d="M 499.5,1570.5 C 502.83,1571.45 504.496,1573.78 504.5,1577.5C 501.838,1591.81 499.338,1606.15 497,1620.5C 495.54,1623.21 493.54,1623.88 491,1622.5C 490.333,1617.83 490.333,1613.17 491,1608.5C 493.27,1595.64 496.104,1582.97 499.5,1570.5 Z"/></g>
<g><path style="opacity:0.812" fill="#000000" d="M 1282.5,1608.5 C 1283.84,1611.32 1283.17,1613.82 1280.5,1616C 1274.86,1619.38 1268.86,1620.21 1262.5,1618.5C 1262.71,1617.91 1263.04,1617.41 1263.5,1617C 1270.99,1616.4 1277.33,1613.57 1282.5,1608.5 Z"/></g>
<g><path style="opacity:0.869" fill="#000000" d="M 908.5,1609.5 C 911.881,1608.89 914.214,1610.05 915.5,1613C 911.047,1620.74 906.213,1628.24 901,1635.5C 896.903,1639.8 892.069,1642.96 886.5,1645C 885,1646.5 883.5,1648 882,1649.5C 882.497,1651.2 882.33,1652.87 881.5,1654.5C 868.335,1663.16 856.502,1673.49 846,1685.5C 845.419,1678.98 847.419,1673.32 852,1668.5C 859.712,1660.4 868.546,1653.9 878.5,1649C 885.39,1641.45 892.223,1633.95 899,1626.5C 902.179,1620.81 905.345,1615.14 908.5,1609.5 Z"/></g>
<g><path style="opacity:0.865" fill="#000000" d="M 1622.5,1623.5 C 1632.38,1626.3 1642.05,1629.8 1651.5,1634C 1654.11,1635.94 1655.94,1638.44 1657,1641.5C 1658.42,1645.63 1659.75,1649.63 1661,1653.5C 1655.86,1650.36 1651.36,1646.52 1647.5,1642C 1640.25,1638.8 1632.91,1635.8 1625.5,1633C 1622.84,1630.14 1621.84,1626.97 1622.5,1623.5 Z"/></g>
<g><path style="opacity:0.856" fill="#000000" d="M 1225.5,1632.5 C 1227.29,1632.21 1228.95,1632.55 1230.5,1633.5C 1231.83,1634.5 1231.83,1635.5 1230.5,1636.5C 1225.92,1640.79 1220.59,1643.46 1214.5,1644.5C 1214.34,1643.13 1214.51,1641.79 1215,1640.5C 1218.4,1637.59 1221.9,1634.92 1225.5,1632.5 Z"/></g>
<g><path style="opacity:0.883" fill="#000000" d="M 2119.5,1651.5 C 2121.62,1654.36 2123.79,1657.36 2126,1660.5C 2127.13,1664.89 2128.46,1669.23 2130,1673.5C 2130.67,1677.17 2130.67,1680.83 2130,1684.5C 2128.58,1687.22 2126.58,1687.88 2124,1686.5C 2123.17,1678.67 2121.5,1671 2119,1663.5C 2118.39,1659.46 2118.56,1655.46 2119.5,1651.5 Z"/></g>
<g><path style="opacity:0.885" fill="#000000" d="M 493.5,1655.5 C 496.214,1660.02 497.548,1665.02 497.5,1670.5C 496.399,1680.51 495.233,1690.51 494,1700.5C 489.782,1704.98 487.282,1704.14 486.5,1698C 488.227,1686.25 489.727,1674.41 491,1662.5C 491.379,1659.97 492.213,1657.64 493.5,1655.5 Z"/></g>
<g><path style="opacity:0.878" fill="#000000" d="M 1676.5,1656.5 C 1688.42,1656.53 1699.26,1659.86 1709,1666.5C 1710.88,1670.52 1712.38,1674.69 1713.5,1679C 1713.15,1680.26 1712.48,1680.59 1711.5,1680C 1706.5,1676.33 1701.5,1672.67 1696.5,1669C 1689.37,1666.44 1682.04,1664.77 1674.5,1664C 1671.76,1660.71 1672.43,1658.21 1676.5,1656.5 Z"/></g>
<g><path style="opacity:0.883" fill="#000000" d="M 1419.5,1676.5 C 1436.97,1680.3 1454.64,1684.47 1472.5,1689C 1484.58,1693.12 1484.08,1695.96 1471,1697.5C 1456.59,1693.61 1442.09,1690.11 1427.5,1687C 1423.94,1686.26 1420.77,1684.76 1418,1682.5C 1417.25,1680.16 1417.75,1678.16 1419.5,1676.5 Z"/></g>
<g><path style="opacity:0.864" fill="#000000" d="M 816.5,1686.5 C 817.995,1686.41 818.995,1687.08 819.5,1688.5C 812.422,1704.24 801.089,1715.58 785.5,1722.5C 785.351,1721.45 785.517,1720.45 786,1719.5C 795.799,1712.04 803.799,1703.04 810,1692.5C 812.063,1690.27 814.229,1688.27 816.5,1686.5 Z"/></g>
<g><path style="opacity:0.298" fill="#000000" d="M 1133.5,1692.5 C 1132.83,1693.17 1132.83,1693.17 1133.5,1692.5 Z"/></g>
<g><path style="opacity:0.173" fill="#000000" d="M 1132.5,1693.5 C 1131.83,1694.17 1131.83,1694.17 1132.5,1693.5 Z"/></g>
<g><path style="opacity:0.016" fill="#000000" d="M 1131.5,1694.5 C 1130.83,1695.17 1130.83,1695.17 1131.5,1694.5 Z"/></g>
<g><path style="opacity:0.227" fill="#000000" d="M 1130.5,1695.5 C 1129.83,1696.17 1129.83,1696.17 1130.5,1695.5 Z"/></g>
<g><path style="opacity:0.063" fill="#000000" d="M 1127.5,1697.5 C 1128.83,1698.17 1128.83,1698.17 1127.5,1697.5 Z"/></g>
<g><path style="opacity:0.837" fill="#000000" d="M 1122.5,1699.5 C 1124.83,1699.5 1127.17,1699.5 1129.5,1699.5C 1129.26,1702.26 1127.92,1704.43 1125.5,1706C 1121.67,1708 1117.84,1709.83 1114,1711.5C 1113.74,1708.98 1114.41,1706.65 1116,1704.5C 1118.07,1702.56 1120.24,1700.9 1122.5,1699.5 Z"/></g>
<g><path style="opacity:0.872" fill="#000000" d="M 1500.5,1701.5 C 1509.76,1705.8 1518.76,1710.63 1527.5,1716C 1531.37,1721.3 1533.87,1727.13 1535,1733.5C 1529.34,1729.92 1524.17,1725.76 1519.5,1721C 1513.5,1718 1507.5,1715 1501.5,1712C 1499.07,1709.8 1497.4,1707.14 1496.5,1704C 1497.86,1703.07 1499.19,1702.23 1500.5,1701.5 Z"/></g>
<g><path style="opacity:0.945" fill="#000000" d="M 2129.5,1703.5 C 2131.51,1705.67 2132.68,1708.33 2133,1711.5C 2133.19,1726.03 2133.69,1740.53 2134.5,1755C 2132.49,1758.63 2129.99,1759.13 2127,1756.5C 2126.33,1741.83 2126.33,1727.17 2127,1712.5C 2127.4,1709.34 2128.23,1706.34 2129.5,1703.5 Z"/></g>
<g><path style="opacity:0.883" fill="#000000" d="M 1749.5,1710.5 C 1762.53,1711.28 1775.53,1712.44 1788.5,1714C 1790.77,1716.62 1790.77,1719.12 1788.5,1721.5C 1778.53,1720.98 1768.19,1720.14 1757.5,1719C 1752.71,1718.79 1749.71,1716.46 1748.5,1712C 1749.06,1711.62 1749.39,1711.12 1749.5,1710.5 Z"/></g>
<g><path style="opacity:0.871" fill="#000000" d="M 775.5,1711.5 C 778.85,1711.33 782.183,1711.5 785.5,1712C 775.777,1719.39 765.777,1726.39 755.5,1733C 753.284,1737.22 750.284,1740.89 746.5,1744C 736.292,1750.94 725.625,1757.1 714.5,1762.5C 713.22,1760.28 713.553,1758.28 715.5,1756.5C 723.3,1751.86 730.967,1747.03 738.5,1742C 741.569,1740.15 744.902,1739.15 748.5,1739C 749.264,1736.93 749.764,1734.76 750,1732.5C 757.816,1724.5 766.316,1717.5 775.5,1711.5 Z"/></g>
<g><path style="opacity:0.329" fill="#000000" d="M 1074.5,1732.5 C 1074.9,1731.47 1075.56,1731.31 1076.5,1732C 1075.91,1732.46 1075.24,1732.63 1074.5,1732.5 Z"/></g>
<g><path style="opacity:0.851" fill="#000000" d="M 1074.5,1732.5 C 1055.81,1745.18 1035.47,1754.68 1013.5,1761C 1006.17,1766.33 998.504,1771.17 990.5,1775.5C 990.51,1772.66 991.843,1770.16 994.5,1768C 997.789,1765.52 1001.46,1763.86 1005.5,1763C 1009.31,1759.26 1013.64,1756.26 1018.5,1754C 1031.85,1749.16 1044.85,1743.49 1057.5,1737C 1063.14,1735.34 1068.81,1733.84 1074.5,1732.5 Z"/></g>
<g><path style="opacity:0.827" fill="#000000" d="M 1818.5,1739.5 C 1816.18,1738.67 1814.18,1737.34 1812.5,1735.5C 1813.09,1734.2 1814.09,1733.37 1815.5,1733C 1823.5,1732.33 1831.5,1732.33 1839.5,1733C 1842.13,1735.07 1842.8,1737.57 1841.5,1740.5C 1833.62,1738.58 1825.62,1737.75 1817.5,1738C 1818.06,1738.38 1818.39,1738.88 1818.5,1739.5 Z"/></g>
<g><path style="opacity:0.839" fill="#000000" d="M 487.5,1735.5 C 488.222,1735.92 488.722,1736.58 489,1737.5C 490.696,1747.14 490.696,1756.81 489,1766.5C 486.798,1772.77 484.798,1779.11 483,1785.5C 477.963,1791.15 475.629,1790.15 476,1782.5C 482.005,1767.33 485.838,1751.66 487.5,1735.5 Z"/></g>
<g><path style="opacity:0.313" fill="#000000" d="M 1818.5,1739.5 C 1820.75,1740.08 1822.42,1741.41 1823.5,1743.5C 1821.25,1742.92 1819.58,1741.59 1818.5,1739.5 Z"/></g>
<g><path style="opacity:0.854" fill="#000000" d="M 1823.5,1743.5 C 1832.44,1749.98 1841.44,1756.48 1850.5,1763C 1866.42,1770.96 1881.75,1779.96 1896.5,1790C 1900.05,1793.55 1903.55,1797.05 1907,1800.5C 1910.32,1809.53 1908.15,1811.36 1900.5,1806C 1896.8,1801.96 1892.8,1798.3 1888.5,1795C 1877.67,1788.08 1866.67,1781.42 1855.5,1775C 1852.74,1770.82 1849.74,1766.82 1846.5,1763C 1838.64,1756.64 1830.98,1750.14 1823.5,1743.5 Z"/></g>
<g><path style="opacity:0.885" fill="#000000" d="M 1547.5,1744.5 C 1558.91,1744.89 1570.25,1746.06 1581.5,1748C 1583.87,1748.73 1586.2,1749.57 1588.5,1750.5C 1590.99,1753.09 1590.99,1755.76 1588.5,1758.5C 1576.82,1755.71 1564.82,1753.21 1552.5,1751C 1549.51,1749.84 1547.84,1747.67 1547.5,1744.5 Z"/></g>
<g><path style="opacity:0.819" fill="#000000" d="M 2137.5,1748.5 C 2139.12,1749.59 2139.95,1751.26 2140,1753.5C 2141.38,1763.47 2141.71,1773.47 2141,1783.5C 2139.45,1785.15 2137.78,1785.48 2136,1784.5C 2135.09,1772.42 2135.59,1760.42 2137.5,1748.5 Z"/></g>
<g><path style="opacity:0.833" fill="#000000" d="M 680.5,1758.5 C 686.59,1758.38 692.59,1759.04 698.5,1760.5C 679.017,1765.23 662.351,1773.89 648.5,1786.5C 649.025,1787.19 649.692,1787.69 650.5,1788C 644.826,1790.66 639.993,1794.5 636,1799.5C 629.182,1807.13 623.348,1815.47 618.5,1824.5C 617.409,1825.89 616.076,1826.39 614.5,1826C 621.187,1812.3 629.853,1799.97 640.5,1789C 642.5,1788.33 644.5,1787.67 646.5,1787C 645.041,1783.05 645.874,1779.55 649,1776.5C 658.569,1768.8 669.069,1762.8 680.5,1758.5 Z"/></g>
<g><path style="opacity:0.856" fill="#000000" d="M 1602.5,1772.5 C 1603.27,1773.17 1603.93,1774.01 1604.5,1775C 1615.5,1773.96 1624.67,1777.46 1632,1785.5C 1634.5,1791.66 1632.67,1793.49 1626.5,1791C 1619.82,1785.43 1612.16,1781.76 1603.5,1780C 1601.29,1777.76 1600.95,1775.26 1602.5,1772.5 Z"/></g>
<g><path style="opacity:0.849" fill="#000000" d="M 890.5,1804.5 C 893.943,1802.18 897.776,1800.51 902,1799.5C 908.189,1797.91 914.355,1796.24 920.5,1794.5C 922.797,1795.65 925.13,1796.82 927.5,1798C 915.693,1802.85 903.36,1805.01 890.5,1804.5 Z"/></g>
<g><path style="opacity:0.214" fill="#000000" d="M 890.5,1804.5 C 890.103,1805.53 889.437,1805.69 888.5,1805C 889.094,1804.54 889.761,1804.37 890.5,1804.5 Z"/></g>
<g><path style="opacity:0.846" fill="#000000" d="M 590.5,1811.5 C 593.166,1811.07 594.333,1812.07 594,1814.5C 591.294,1816.87 588.961,1819.54 587,1822.5C 583.135,1832.56 578.468,1842.23 573,1851.5C 570.709,1855.75 567.709,1859.42 564,1862.5C 563.5,1862.17 563,1861.83 562.5,1861.5C 569.193,1848.11 575.359,1834.44 581,1820.5C 583.406,1816.59 586.572,1813.59 590.5,1811.5 Z"/></g>
<g><path style="opacity:0.817" fill="#000000" d="M 851.5,1812.5 C 853.288,1812.21 854.955,1812.55 856.5,1813.5C 857.641,1814.43 857.641,1815.26 856.5,1816C 846.937,1819.8 837.27,1823.3 827.5,1826.5C 826.718,1824.67 827.384,1823.17 829.5,1822C 836.975,1818.91 844.309,1815.74 851.5,1812.5 Z"/></g>
<g><path style="opacity:0.851" fill="#000000" d="M 2145.5,1813.5 C 2147.13,1815.03 2147.96,1817.03 2148,1819.5C 2149.29,1827.8 2149.62,1836.13 2149,1844.5C 2147.32,1846.7 2145.32,1847.37 2143,1846.5C 2141.94,1835.3 2142.78,1824.3 2145.5,1813.5 Z"/></g>
<g><path style="opacity:0.314" fill="#000000" d="M 1655.5,1816.5 C 1654.83,1815.17 1654.83,1815.17 1655.5,1816.5 Z"/></g>
<g><path style="opacity:0.588" fill="#000000" d="M 1655.5,1816.5 C 1658.82,1817.31 1661.48,1819.14 1663.5,1822C 1676.65,1828.08 1689.65,1834.41 1702.5,1841C 1700.83,1841.67 1699.17,1841.67 1697.5,1841C 1686.92,1835.81 1676.25,1830.81 1665.5,1826C 1661.31,1823.64 1657.98,1820.47 1655.5,1816.5 Z"/></g>
<g><path style="opacity:0.893" fill="#000000" d="M 1925.5,1816.5 C 1929.07,1815.91 1931.07,1817.41 1931.5,1821C 1941.11,1826.76 1951.45,1830.76 1962.5,1833C 1967.24,1838.71 1965.91,1841.38 1958.5,1841C 1946.27,1838.48 1935.1,1833.65 1925,1826.5C 1922.88,1823.02 1923.04,1819.68 1925.5,1816.5 Z"/></g>
<g><path style="opacity:0.908" fill="#000000" d="M 447.5,1829.5 C 463.481,1828.16 478.481,1831.33 492.5,1839C 519.822,1855.65 542.656,1877.15 561,1903.5C 572.234,1930.29 566.568,1952.62 544,1970.5C 543.333,1971.17 543.333,1971.83 544,1972.5C 557.04,1986.87 571.873,1999.04 588.5,2009C 601.108,2015.54 614.441,2019.87 628.5,2022C 651.203,2022.23 673.87,2023.23 696.5,2025C 807.165,2026.16 917.832,2026.5 1028.5,2026C 1054.2,2023.74 1079.87,2021.08 1105.5,2018C 1212.88,2016.28 1320.21,2017.62 1427.5,2022C 1436.17,2023.34 1444.84,2024.67 1453.5,2026C 1499.83,2026.33 1546.17,2026.67 1592.5,2027C 1614.09,2029.61 1635.75,2030.94 1657.5,2031C 1683.15,2033.5 1708.82,2035.83 1734.5,2038C 1761.21,2041.51 1787.54,2046.84 1813.5,2054C 1833.93,2058.47 1854.6,2061.14 1875.5,2062C 1889.15,2064.11 1902.82,2066.11 1916.5,2068C 1949.43,2068.27 1982.09,2069.44 2014.5,2071.5C 2016.36,2074.63 2015.69,2077.13 2012.5,2079C 2004.21,2079.74 1996.05,2079.24 1988,2077.5C 1981.96,2077.96 1976.29,2078.29 1971,2078.5C 1967.54,2077.78 1964.04,2077.28 1960.5,2077C 1931.21,2078.09 1902.21,2075.76 1873.5,2070C 1839.51,2068.22 1806.18,2062.56 1773.5,2053C 1753.63,2049.13 1733.63,2046.13 1713.5,2044C 1672.55,2040.23 1631.55,2037.23 1590.5,2035C 1543.83,2034.67 1497.17,2034.33 1450.5,2034C 1441.79,2032.92 1433.12,2031.59 1424.5,2030C 1317.55,2025.62 1210.55,2024.28 1103.5,2026C 1077.87,2029.08 1052.2,2031.74 1026.5,2034C 916.165,2034.51 805.832,2034.17 695.5,2033C 672.201,2031.26 648.868,2030.26 625.5,2030C 609.842,2027.76 595.176,2022.76 581.5,2015C 569.597,2007.1 558.264,1998.43 547.5,1989C 542.917,1985.09 539.083,1980.59 536,1975.5C 520.815,1984.2 504.482,1988.2 487,1987.5C 459.151,1989.11 435.484,1980.11 416,1960.5C 407.631,1948.02 403.797,1934.19 404.5,1919C 404.061,1894.96 412.561,1874.8 430,1858.5C 429.274,1848.44 432.441,1839.94 439.5,1833C 442.158,1831.52 444.825,1830.36 447.5,1829.5 Z M 446.5,1837.5 C 462.301,1836.28 476.968,1839.78 490.5,1848C 512.823,1862.99 532.656,1880.82 550,1901.5C 558.912,1915.16 560.912,1929.82 556,1945.5C 552.15,1953.69 546.483,1960.35 539,1965.5C 536.861,1964.23 534.695,1964.23 532.5,1965.5C 533.645,1966.89 533.645,1968.22 532.5,1969.5C 518.786,1976.9 504.119,1980.23 488.5,1979.5C 466.244,1980.25 446.244,1974.08 428.5,1961C 416.2,1949.95 410.867,1936.11 412.5,1919.5C 411.663,1899.84 417.497,1882.51 430,1867.5C 435.134,1861.36 440.634,1855.53 446.5,1850C 452.639,1847.99 458.973,1846.99 465.5,1847C 464.5,1846 463.5,1845 462.5,1844C 452.893,1841.68 444.559,1843.85 437.5,1850.5C 438.36,1844.93 441.36,1840.59 446.5,1837.5 Z"/></g>
<g><path style="opacity:0.823" fill="#000000" d="M 771.5,1840.5 C 775.131,1840.16 778.464,1840.99 781.5,1843C 771.437,1846.19 761.437,1849.69 751.5,1853.5C 750.062,1853.28 748.729,1852.78 747.5,1852C 755.411,1847.91 763.411,1844.07 771.5,1840.5 Z"/></g>
<g><path style="opacity:0.874" fill="#000000" d="M 1989.5,1851.5 C 1992.61,1851.35 1995.61,1851.85 1998.5,1853C 2006.16,1858.5 2014.16,1863.5 2022.5,1868C 2025.41,1871.58 2024.74,1874.42 2020.5,1876.5C 2011.7,1872.94 2003.7,1868.1 1996.5,1862C 1993.75,1860.25 1990.75,1859.25 1987.5,1859C 1986.71,1857.91 1986.04,1856.75 1985.5,1855.5C 1986.87,1854.16 1988.2,1852.83 1989.5,1851.5 Z"/></g>
<g><path style="opacity:0.884" fill="#000000" d="M 726.5,1854.5 C 730.547,1855.02 734.547,1855.85 738.5,1857C 726.327,1863.26 713.66,1868.09 700.5,1871.5C 698.667,1870.95 697,1870.11 695.5,1869C 705.893,1864.13 716.227,1859.3 726.5,1854.5 Z"/></g>
<g><path style="opacity:0.717" fill="#000000" d="M 1719.5,1854.5 C 1725.88,1854.25 1731.22,1856.42 1735.5,1861C 1740.39,1863.28 1745.39,1865.28 1750.5,1867C 1770.17,1867.94 1789.84,1868.94 1809.5,1870C 1811.89,1870.29 1814.22,1870.79 1816.5,1871.5C 1817.43,1872.69 1817.76,1874.02 1817.5,1875.5C 1795.16,1873.43 1772.83,1871.26 1750.5,1869C 1741.14,1864.48 1731.47,1860.82 1721.5,1858C 1720.18,1857.18 1719.51,1856.02 1719.5,1854.5 Z"/></g>
<g><path style="opacity:0.896" fill="#000000" d="M 827.5,1855.5 C 828.496,1855.41 829.329,1855.75 830,1856.5C 830.837,1858.35 831.671,1860.18 832.5,1862C 823.353,1876.49 812.687,1889.82 800.5,1902C 794.796,1905.85 789.13,1909.68 783.5,1913.5C 800.379,1919.63 817.379,1925.46 834.5,1931C 842.163,1934.83 849.496,1939.16 856.5,1944C 859.473,1945.51 862.473,1945.84 865.5,1945C 862.529,1949.99 858.196,1952.33 852.5,1952C 844.999,1946.5 836.999,1941.84 828.5,1938C 811.452,1932.49 794.452,1926.82 777.5,1921C 773.632,1918.84 772.132,1915.67 773,1911.5C 780.415,1906.54 787.915,1901.71 795.5,1897C 808.233,1884.67 818.9,1870.84 827.5,1855.5 Z"/></g>
<g><path style="opacity:0.874" fill="#000000" d="M 663.5,1868.5 C 668.179,1868.33 672.845,1868.5 677.5,1869C 670.167,1873.33 662.833,1877.67 655.5,1882C 651.837,1883.71 648.004,1884.87 644,1885.5C 641.594,1885.3 639.594,1884.3 638,1882.5C 637.493,1881 637.993,1879.84 639.5,1879C 648.665,1877.91 656.665,1874.41 663.5,1868.5 Z"/></g>
<g><path style="opacity:0.909" fill="#000000" d="M 2137.5,1868.5 C 2197.1,1865.89 2244.27,1888.56 2279,1936.5C 2288.38,1954.5 2291.05,1973.5 2287,1993.5C 2283.44,2003.05 2277.61,2010.89 2269.5,2017C 2238.69,2039.74 2204.69,2056.07 2167.5,2066C 2143.49,2070.17 2119.82,2068.83 2096.5,2062C 2069.58,2051.32 2056.24,2031.49 2056.5,2002.5C 2055.35,1973.24 2061.35,1945.57 2074.5,1919.5C 2071.35,1904.1 2076.02,1891.6 2088.5,1882C 2103.49,1872.34 2119.82,1867.84 2137.5,1868.5 Z M 2135.5,1877.5 C 2190.43,1873.55 2234.93,1893.21 2269,1936.5C 2280.3,1952.86 2283.97,1970.86 2280,1990.5C 2276.16,2000.69 2269.66,2008.85 2260.5,2015C 2232.65,2034.42 2202.32,2048.76 2169.5,2058C 2145.02,2062.45 2121.02,2060.78 2097.5,2053C 2080.1,2045.61 2069.27,2032.78 2065,2014.5C 2059,1963.1 2074.17,1920.27 2110.5,1886C 2117.65,1880.88 2125.65,1878.88 2134.5,1880C 2137.47,1881.76 2139.64,1884.26 2141,1887.5C 2141.87,1882.59 2140.04,1879.25 2135.5,1877.5 Z M 2103.5,1882.5 C 2095.42,1890.08 2088.25,1898.41 2082,1907.5C 2081.51,1902.64 2082.84,1898.31 2086,1894.5C 2090.46,1888.36 2096.3,1884.36 2103.5,1882.5 Z M 2147.5,2009.5 C 2132.92,2007.96 2118.59,2005.13 2104.5,2001C 2096.9,1998.96 2094.06,1994.13 2096,1986.5C 2096.95,1984.54 2098.29,1982.88 2100,1981.5C 2105.55,1986.05 2111.39,1990.22 2117.5,1994C 2127.72,1998.94 2137.72,2004.11 2147.5,2009.5 Z"/></g>
<g><path style="opacity:0.846" fill="#000000" d="M 1848.5,1876.5 C 1858.21,1877.19 1867.87,1878.36 1877.5,1880C 1882.54,1882.25 1885.54,1886.08 1886.5,1891.5C 1875.04,1887.57 1863.37,1884.07 1851.5,1881C 1848.78,1880.2 1847.78,1878.7 1848.5,1876.5 Z"/></g>
<g><path style="opacity:0.866" fill="#000000" d="M 620.5,1885.5 C 621.675,1885.28 622.675,1885.61 623.5,1886.5C 621.833,1887.67 620.167,1888.83 618.5,1890C 609.682,1893.91 601.348,1898.57 593.5,1904C 589.912,1904.61 588.746,1903.11 590,1899.5C 598.792,1891.69 608.958,1887.02 620.5,1885.5 Z"/></g>
<g><path style="opacity:0.871" fill="#000000" d="M 2039.5,1890.5 C 2047.78,1890.31 2054.45,1893.48 2059.5,1900C 2061.79,1900.82 2064.12,1901.49 2066.5,1902C 2067.76,1903.81 2067.76,1905.65 2066.5,1907.5C 2059.49,1910.22 2053.82,1908.39 2049.5,1902C 2045.27,1900.05 2040.93,1898.38 2036.5,1897C 2035.48,1895.95 2035.32,1894.78 2036,1893.5C 2037.15,1892.36 2038.31,1891.36 2039.5,1890.5 Z"/></g>
<g><path style="opacity:0.908" fill="#000000" d="M 431.5,1891.5 C 433.527,1891.34 435.527,1891.5 437.5,1892C 438.126,1892.75 438.626,1893.58 439,1894.5C 439.999,1904.48 440.666,1914.48 441,1924.5C 449.333,1925.83 457.667,1925.83 466,1924.5C 465.481,1915.2 465.481,1905.86 466,1896.5C 467.041,1894.41 468.541,1892.75 470.5,1891.5C 471.532,1900.48 472.365,1909.48 473,1918.5C 473.308,1919.31 473.808,1919.97 474.5,1920.5C 476.712,1919.45 478.046,1920.28 478.5,1923C 477.361,1925.63 476.028,1928.13 474.5,1930.5C 475.49,1938.94 476.99,1947.27 479,1955.5C 479.5,1957.33 480.667,1958.5 482.5,1959C 486.5,1960.33 490.5,1961.67 494.5,1963C 488.958,1967.19 482.958,1968.19 476.5,1966C 475.333,1964.83 474.167,1963.67 473,1962.5C 470.196,1952.67 468.362,1942.67 467.5,1932.5C 456.821,1933.79 446.154,1933.79 435.5,1932.5C 434.361,1922.17 434.361,1911.84 435.5,1901.5C 435.167,1899.17 434.833,1896.83 434.5,1894.5C 433.205,1893.9 431.872,1893.4 430.5,1893C 431.056,1892.62 431.389,1892.12 431.5,1891.5 Z"/></g>
<g><path style="opacity:0.89" fill="#000000" d="M 1902.5,1913.5 C 1915.35,1916.61 1928.01,1920.45 1940.5,1925C 1955.76,1926.98 1971.09,1927.98 1986.5,1928C 1989.4,1931.23 1988.73,1933.56 1984.5,1935C 1955.56,1938.6 1928.39,1933.43 1903,1919.5C 1902.5,1917.53 1902.34,1915.53 1902.5,1913.5 Z"/></g>
<g><path style="opacity:0.901" fill="#000000" d="M 2112.5,1971.5 C 2110.68,1973.14 2108.68,1974.64 2106.5,1976C 2127.96,1990.07 2150.63,2002.07 2174.5,2012C 2176.22,2015.09 2175.55,2017.42 2172.5,2019C 2170.58,2019.81 2168.58,2020.31 2166.5,2020.5C 2146.64,2018.56 2126.98,2015.4 2107.5,2011C 2091.44,2008.36 2085.27,1999.2 2089,1983.5C 2090.83,1980.33 2093.33,1977.83 2096.5,1976C 2095.81,1974.93 2095.31,1973.77 2095,1972.5C 2091.28,1954.17 2096.12,1938.67 2109.5,1926C 2113.38,1924.73 2115.71,1922.06 2116.5,1918C 2119.43,1917.22 2122.26,1917.39 2125,1918.5C 2128.64,1916.99 2132.47,1916.32 2136.5,1916.5C 2142.97,1916.57 2149.3,1917.4 2155.5,1919C 2144.84,1920 2135.84,1921.67 2128.5,1924C 2148.84,1931.57 2169.84,1935.73 2191.5,1936.5C 2190.62,1930.57 2187.62,1926.07 2182.5,1923C 2189.74,1920.7 2194.9,1922.87 2198,1929.5C 2198.67,1933.5 2198.67,1937.5 2198,1941.5C 2197.1,1942.7 2195.93,1943.53 2194.5,1944C 2172.55,1944.81 2151.22,1941.48 2130.5,1934C 2126.36,1932.73 2122.52,1930.9 2119,1928.5C 2108.82,1934.18 2103.16,1942.85 2102,1954.5C 2101.03,1960.65 2101.53,1966.65 2103.5,1972.5C 2103.83,1972.83 2104.17,1973.17 2104.5,1973.5C 2107.02,1972.21 2109.69,1971.55 2112.5,1971.5 Z M 2147.5,2009.5 C 2137.72,2004.11 2127.72,1998.94 2117.5,1994C 2111.39,1990.22 2105.55,1986.05 2100,1981.5C 2098.29,1982.88 2096.95,1984.54 2096,1986.5C 2094.06,1994.13 2096.9,1998.96 2104.5,2001C 2118.59,2005.13 2132.92,2007.96 2147.5,2009.5 Z"/></g>
<g><path style="opacity:0.881" fill="#000000" d="M 593.5,1939.5 C 607.434,1939.47 621.434,1939.64 635.5,1940C 639.637,1940.93 643.637,1942.27 647.5,1944C 644.167,1945 640.833,1946 637.5,1947C 624.5,1947.67 611.5,1947.67 598.5,1947C 595.834,1945.17 594.168,1942.67 593.5,1939.5 Z"/></g>
<g><path style="opacity:0.886" fill="#000000" d="M 2019.5,1945.5 C 2031.03,1947.83 2042.7,1948.99 2054.5,1949C 2057.4,1952.23 2056.73,1954.56 2052.5,1956C 2037.6,1957.79 2023.27,1955.79 2009.5,1950C 2012.56,1947.63 2015.9,1946.13 2019.5,1945.5 Z"/></g>
<g><path style="opacity:0.879" fill="#000000" d="M 790.5,1946.5 C 795.883,1945.61 800.549,1946.94 804.5,1950.5C 800.046,1953.69 795.046,1955.19 789.5,1955C 782.051,1962.55 773.718,1963.55 764.5,1958C 765.328,1957.09 766.328,1956.42 767.5,1956C 772.005,1955.74 776.339,1954.74 780.5,1953C 783.491,1950.15 786.824,1947.99 790.5,1946.5 Z"/></g>
<g><path style="opacity:0.898" fill="#000000" d="M 720.5,1950.5 C 723.187,1950.34 725.854,1950.5 728.5,1951C 730.421,1952.24 730.754,1953.74 729.5,1955.5C 725.413,1957.69 721.079,1959.19 716.5,1960C 710.112,1963.86 703.446,1967.19 696.5,1970C 693.697,1970.75 691.03,1970.42 688.5,1969C 690.871,1966.29 693.537,1963.96 696.5,1962C 704.439,1957.86 712.439,1954.03 720.5,1950.5 Z"/></g>
<g><path style="opacity:0.897" fill="#000000" d="M 1265.5,1955.5 C 1273.43,1954.97 1281.09,1956.13 1288.5,1959C 1297.83,1959.33 1307.17,1959.67 1316.5,1960C 1322.31,1960.82 1327.64,1962.82 1332.5,1966C 1317.53,1967.48 1302.53,1967.81 1287.5,1967C 1286.81,1964.77 1286.48,1962.6 1286.5,1960.5C 1271.03,1962.36 1255.69,1965.19 1240.5,1969C 1236.17,1969.67 1231.83,1969.67 1227.5,1969C 1224.66,1965.84 1225.33,1963.51 1229.5,1962C 1241.92,1961.41 1253.92,1959.25 1265.5,1955.5 Z"/></g>
<g><path style="opacity:0.865" fill="#000000" d="M 1190.5,1961.5 C 1195.24,1961.16 1196.57,1963.16 1194.5,1967.5C 1185.43,1973.81 1175.76,1974.97 1165.5,1971C 1164.5,1970 1163.5,1969 1162.5,1968C 1169.06,1966.37 1175.73,1965.37 1182.5,1965C 1185.37,1964.06 1188.04,1962.89 1190.5,1961.5 Z"/></g>
<g><path style="opacity:0.871" fill="#000000" d="M 883.5,1962.5 C 887.514,1962.33 891.514,1962.5 895.5,1963C 898.215,1964.91 901.215,1966.24 904.5,1967C 892.906,1969.97 881.073,1971.8 869,1972.5C 862.616,1972.78 856.782,1971.28 851.5,1968C 854.44,1966.85 857.44,1965.85 860.5,1965C 868.409,1964.98 876.075,1964.14 883.5,1962.5 Z"/></g>
<g><path style="opacity:0.893" fill="#000000" d="M 1483.5,1962.5 C 1487.18,1962.33 1490.85,1962.5 1494.5,1963C 1497.34,1966.16 1496.67,1968.49 1492.5,1970C 1488.83,1970.33 1485.17,1970.67 1481.5,1971C 1488.13,1972.22 1494.8,1973.22 1501.5,1974C 1522.83,1974.33 1544.17,1974.67 1565.5,1975C 1567.84,1975.84 1569.84,1977.17 1571.5,1979C 1568.83,1980 1566.17,1981 1563.5,1982C 1544.47,1982.91 1525.47,1982.57 1506.5,1981C 1491.8,1976.83 1477.14,1972.66 1462.5,1968.5C 1463.78,1966.85 1465.45,1965.69 1467.5,1965C 1473,1964.34 1478.34,1963.51 1483.5,1962.5 Z"/></g>
<g><path style="opacity:0.895" fill="#000000" d="M 1135.5,1963.5 C 1139.16,1963 1142.16,1964.17 1144.5,1967C 1143.17,1968 1141.83,1969 1140.5,1970C 1131.54,1972.49 1122.54,1974.82 1113.5,1977C 1106.17,1977.67 1098.83,1977.67 1091.5,1977C 1087.6,1974.7 1087.94,1972.7 1092.5,1971C 1107.37,1970.86 1121.71,1968.36 1135.5,1963.5 Z"/></g>
<g><path style="opacity:0.894" fill="#000000" d="M 1425.5,1967.5 C 1430.72,1967.47 1435.39,1968.97 1439.5,1972C 1438.83,1972.33 1438.17,1972.67 1437.5,1973C 1422.54,1975.77 1407.54,1978.44 1392.5,1981C 1384.17,1981.67 1375.83,1981.67 1367.5,1981C 1355.5,1979 1355.5,1977 1367.5,1975C 1387.18,1974.1 1406.51,1971.6 1425.5,1967.5 Z"/></g>
<g><path style="opacity:0.819" fill="#000000" d="M 1049.5,1969.5 C 1053.52,1970.4 1054.19,1972.23 1051.5,1975C 1042.56,1977.3 1034.23,1980.97 1026.5,1986C 1013.36,1985.79 1013.36,1984.45 1026.5,1982C 1033.09,1975.71 1040.75,1971.54 1049.5,1969.5 Z"/></g>
<g><path style="opacity:0.893" fill="#000000" d="M 946.5,1973.5 C 955.839,1973.33 965.173,1973.5 974.5,1974C 975.687,1975.02 976.687,1976.19 977.5,1977.5C 975.664,1978.92 973.664,1980.09 971.5,1981C 963.5,1981.67 955.5,1981.67 947.5,1981C 944.342,1978.75 944.009,1976.25 946.5,1973.5 Z"/></g>
<g><path style="opacity:0.889" fill="#000000" d="M 1860.5,1978.5 C 1863.52,1978.34 1866.52,1978.5 1869.5,1979C 1870.17,1980 1870.83,1981 1871.5,1982C 1869.84,1983.83 1867.84,1985.16 1865.5,1986C 1859.72,1987.26 1854.05,1988.93 1848.5,1991C 1838.95,1993.57 1829.29,1994.07 1819.5,1992.5C 1818.91,1991.2 1817.91,1990.37 1816.5,1990C 1818.5,1988.67 1820.5,1987.33 1822.5,1986C 1835.98,1986.96 1848.65,1984.46 1860.5,1978.5 Z"/></g>
<g><path style="opacity:0.905" fill="#000000" d="M 1573.5,1979.5 C 1580.51,1979.33 1587.51,1979.5 1594.5,1980C 1596.61,1983.73 1599.94,1985.39 1604.5,1985C 1624.15,1986.11 1643.82,1986.77 1663.5,1987C 1665.35,1988.42 1667.35,1989.59 1669.5,1990.5C 1666.72,1991.39 1664.05,1992.56 1661.5,1994C 1646.5,1994.67 1631.5,1994.67 1616.5,1994C 1605.9,1991.18 1595.23,1988.68 1584.5,1986.5C 1581,1986.64 1577.83,1986.98 1575,1987.5C 1571,1985.5 1570.5,1982.83 1573.5,1979.5 Z"/></g>
<g><path style="opacity:0.891" fill="#000000" d="M 1733.5,1984.5 C 1735.86,1984.34 1738.19,1984.5 1740.5,1985C 1743.32,1987.72 1742.99,1990.05 1739.5,1992C 1721.67,1995.72 1703.67,1997.05 1685.5,1996C 1681.89,1993.47 1681.89,1991.14 1685.5,1989C 1694.5,1988.67 1703.5,1988.33 1712.5,1988C 1719.77,1987.64 1726.77,1986.48 1733.5,1984.5 Z"/></g>
<g><path style="opacity:0.854" fill="#000000" d="M 1749.5,1990.5 C 1755.84,1990.33 1762.18,1990.5 1768.5,1991C 1769.17,1991.67 1769.83,1992.33 1770.5,1993C 1769,1994.25 1767.33,1995.25 1765.5,1996C 1760.83,1996.67 1756.17,1996.67 1751.5,1996C 1749.42,1994.4 1748.75,1992.57 1749.5,1990.5 Z"/></g>
<g><path style="opacity:0.574" fill="#000000" d="M 2027.5,1995.5 C 2035.82,1996.29 2036.16,1997.29 2028.5,1998.5C 2024.93,1998.25 2024.6,1997.25 2027.5,1995.5 Z"/></g>
<g><path style="opacity:0.89" fill="#000000" d="M 1960.5,2020.5 C 1962.53,2020.34 1964.53,2020.5 1966.5,2021C 1981.35,2031.59 1997.69,2039.26 2015.5,2044C 2023.5,2047.67 2031.5,2051.33 2039.5,2055C 2042.01,2059.86 2041.84,2064.69 2039,2069.5C 2027.42,2085.66 2016.09,2101.99 2005,2118.5C 2006.36,2127.87 2005.02,2136.87 2001,2145.5C 1997.75,2149.48 1993.75,2150.81 1989,2149.5C 1988.14,2143.41 1988.47,2137.41 1990,2131.5C 2000.26,2111.97 2012.26,2093.64 2026,2076.5C 2029.01,2072.49 2031.51,2068.16 2033.5,2063.5C 2027.52,2059.51 2021.19,2056.01 2014.5,2053C 1995.57,2047.7 1978.07,2039.53 1962,2028.5C 1961.18,2025.88 1960.68,2023.22 1960.5,2020.5 Z M 2003.5,2122.5 C 2002.49,2128.19 2000.15,2133.19 1996.5,2137.5C 1997.51,2131.82 1999.84,2126.82 2003.5,2122.5 Z"/></g>
</svg>
