<?xml version="1.0" encoding="UTF-8"?>
<!DOCTYPE svg PUBLIC "-//W3C//DTD SVG 1.1//EN" "http://www.w3.org/Graphics/SVG/1.1/DTD/svg11.dtd">
<svg xmlns="http://www.w3.org/2000/svg" version="1.1" width="2550px" height="2550px" style="shape-rendering:geometricPrecision; text-rendering:geometricPrecision; image-rendering:optimizeQuality; fill-rule:evenodd; clip-rule:evenodd" xmlns:xlink="http://www.w3.org/1999/xlink">
<g><path style="opacity:0.833" fill="#000000" d="M 1074.5,67.5 C 1137.69,64.8825 1198.02,76.7158 1255.5,103C 1258.58,105.29 1261.75,107.457 1265,109.5C 1265.5,112.146 1265.66,114.813 1265.5,117.5C 1252.67,113.605 1240,108.772 1227.5,103C 1193.17,90.583 1157.83,82.583 1121.5,79C 1063.74,73.8119 1015.58,92.6452 977,135.5C 960.153,159.87 948.153,186.537 941,215.5C 934.161,239.04 931.161,263.04 932,287.5C 932.386,293.71 933.719,299.71 936,305.5C 942.225,317.737 950.725,328.237 961.5,337C 986.497,355.502 1013.83,369.835 1043.5,380C 1135.26,410.738 1229.59,425.904 1326.5,425.5C 1364.98,429.794 1400.64,421.96 1433.5,402C 1456.96,384.597 1471.46,361.43 1477,332.5C 1482.26,305.521 1479.26,279.521 1468,254.5C 1435.6,190.334 1383.43,153.834 1311.5,145C 1297.9,142.772 1284.23,141.105 1270.5,140C 1237.59,138.864 1204.76,137.364 1172,135.5C 1164.92,136.48 1157.75,136.813 1150.5,136.5C 1150.4,132.425 1152.4,129.925 1156.5,129C 1190.13,126.703 1223.8,126.036 1257.5,127C 1298.27,127.851 1337.94,134.851 1376.5,148C 1436.26,173.427 1474.1,217.593 1490,280.5C 1495.07,312.558 1490.74,343.225 1477,372.5C 1459.52,402.192 1434.02,421.692 1400.5,431C 1394.25,432.717 1387.91,434.05 1381.5,435C 1283.47,440.482 1186.8,431.482 1091.5,408C 1060.37,399.513 1030.04,388.846 1000.5,376C 982.507,367.647 965.841,357.314 950.5,345C 938.971,335.143 930.138,323.31 924,309.5C 921.076,298.543 919.909,287.376 920.5,276C 921.309,229.592 932.809,186.092 955,145.5C 971.151,118.016 993.651,97.5155 1022.5,84C 1039.16,75.9462 1056.49,70.4462 1074.5,67.5 Z M 1186.5,211.5 C 1195.03,210.43 1203.03,211.93 1210.5,216C 1211.74,217.154 1212.74,218.488 1213.5,220C 1208.5,221.144 1203.34,221.644 1198,221.5C 1190.35,221.813 1182.85,220.979 1175.5,219C 1178.25,215.068 1181.92,212.568 1186.5,211.5 Z"/></g>
<g><path style="opacity:0.885" fill="#000000" d="M 1033.5,171.5 C 1036.36,171.055 1038.86,171.722 1041,173.5C 1040.81,183.136 1041.31,192.803 1042.5,202.5C 1046.24,200.309 1050.24,198.809 1054.5,198C 1094.11,189.356 1118.27,204.523 1127,243.5C 1130.04,255.854 1130.04,268.188 1127,280.5C 1124.09,283.394 1120.59,284.227 1116.5,283C 1115.3,282.097 1114.47,280.931 1114,279.5C 1113.53,261.465 1109.86,244.132 1103,227.5C 1099.5,220.508 1094,216.008 1086.5,214C 1078.5,213.333 1070.5,213.333 1062.5,214C 1055.1,215.058 1049.6,218.891 1046,225.5C 1036.91,240.705 1032.07,257.205 1031.5,275C 1030.05,277.39 1027.89,278.557 1025,278.5C 1022.02,278.919 1019.69,277.919 1018,275.5C 1015.08,266.258 1014.75,256.925 1017,247.5C 1019.07,239.619 1021.74,231.952 1025,224.5C 1027.91,207.579 1030.24,190.579 1032,173.5C 1032.72,172.956 1033.22,172.289 1033.5,171.5 Z"/></g>
<g><path style="opacity:0.869" fill="#000000" d="M 1347.5,182.5 C 1352.81,181.308 1355.81,183.308 1356.5,188.5C 1353.79,204.065 1352.96,219.732 1354,235.5C 1366.41,237.607 1378.91,239.44 1391.5,241C 1397.85,241.775 1403.19,244.442 1407.5,249C 1408.35,251.77 1408.68,254.603 1408.5,257.5C 1390.38,256.035 1372.38,253.701 1354.5,250.5C 1353.66,261.866 1352.5,273.199 1351,284.5C 1349.67,288.5 1348.33,292.5 1347,296.5C 1344.67,297.833 1342.33,297.833 1340,296.5C 1339.83,293 1339.67,289.5 1339.5,286C 1340.42,273.51 1341.08,261.01 1341.5,248.5C 1335.49,248.199 1329.49,247.699 1323.5,247C 1321.01,243.353 1320.84,239.519 1323,235.5C 1323.75,234.874 1324.58,234.374 1325.5,234C 1330.82,233.501 1336.16,233.334 1341.5,233.5C 1340.9,217.343 1342.07,201.343 1345,185.5C 1345.7,184.309 1346.53,183.309 1347.5,182.5 Z"/></g>
<g><path style="opacity:0.884" fill="#000000" d="M 1184.5,196.5 C 1197.08,195.148 1208.75,197.648 1219.5,204C 1228.18,211.228 1230.35,220.062 1226,230.5C 1224.42,232.041 1222.59,233.208 1220.5,234C 1206.18,235.873 1191.85,235.873 1177.5,234C 1167.09,229.381 1162.59,232.881 1164,244.5C 1171.72,250.107 1180.22,254.274 1189.5,257C 1200.65,260.231 1211.99,262.564 1223.5,264C 1226.99,265.95 1227.32,268.283 1224.5,271C 1207.12,275.619 1189.45,277.285 1171.5,276C 1141.27,268.707 1131.77,250.54 1143,221.5C 1146.46,216.373 1150.63,211.873 1155.5,208C 1164.84,202.986 1174.5,199.153 1184.5,196.5 Z M 1186.5,211.5 C 1181.92,212.568 1178.25,215.068 1175.5,219C 1182.85,220.979 1190.35,221.813 1198,221.5C 1203.34,221.644 1208.5,221.144 1213.5,220C 1212.74,218.488 1211.74,217.154 1210.5,216C 1203.03,211.93 1195.03,210.43 1186.5,211.5 Z"/></g>
<g><path style="opacity:0.889" fill="#000000" d="M 1258.5,196.5 C 1271.17,195.468 1283.5,196.968 1295.5,201C 1299.1,202.334 1300.27,204.834 1299,208.5C 1296.09,210.61 1292.92,210.944 1289.5,209.5C 1282.87,210.66 1276.21,211.493 1269.5,212C 1266.51,220.218 1267.34,228.052 1272,235.5C 1275.13,239.633 1278.63,243.466 1282.5,247C 1290.43,253.258 1297.26,260.425 1303,268.5C 1304.94,274.89 1303.11,279.723 1297.5,283C 1282.63,286.613 1267.63,287.279 1252.5,285C 1246,283.415 1240,280.748 1234.5,277C 1227.56,271.564 1225.73,264.731 1229,256.5C 1232.42,253.82 1236.26,252.987 1240.5,254C 1246.21,257.855 1252.21,261.188 1258.5,264C 1265.45,265.397 1272.45,265.73 1279.5,265C 1270.96,258.129 1263.46,250.296 1257,241.5C 1252.83,231.6 1251.16,221.267 1252,210.5C 1252.74,205.089 1254.91,200.423 1258.5,196.5 Z"/></g>
<g><path style="opacity:0.726" fill="#000000" d="M 1893.5,245.5 C 1903.47,243.805 1907.14,247.805 1904.5,257.5C 1905.31,259.955 1906.31,262.289 1907.5,264.5C 1906.9,267.246 1905.24,268.08 1902.5,267C 1899.33,264.5 1896.17,262 1893,259.5C 1889.67,254.671 1889.84,250.005 1893.5,245.5 Z"/></g>
<g><path style="opacity:0.833" fill="#000000" d="M 865.5,303.5 C 872.342,301.743 874.675,304.076 872.5,310.5C 862.9,317.263 853.734,324.597 845,332.5C 841.99,339.843 837.157,345.677 830.5,350C 828.577,350.808 826.577,351.308 824.5,351.5C 820.447,350.93 816.78,349.596 813.5,347.5C 813.609,342.951 814.609,338.618 816.5,334.5C 820.318,331.182 823.985,327.682 827.5,324C 833.677,321.081 839.344,317.414 844.5,313C 851.357,309.334 858.357,306.167 865.5,303.5 Z"/></g>
<g><path style="opacity:0.904" fill="#000000" d="M 1858.5,313.5 C 1862.55,313.176 1866.55,313.509 1870.5,314.5C 1873.99,317.473 1876.49,321.14 1878,325.5C 1881.79,341.286 1880.96,356.786 1875.5,372C 1881.83,372.667 1888.17,372.667 1894.5,372C 1888.47,368.306 1884.3,363.139 1882,356.5C 1881.33,348.833 1881.33,341.167 1882,333.5C 1884.86,326.514 1890.19,323.181 1898,323.5C 1908.38,323.723 1918.55,325.223 1928.5,328C 1932.33,330.5 1935.5,333.667 1938,337.5C 1938.94,340.792 1938.44,343.792 1936.5,346.5C 1926.12,345.836 1915.79,346.503 1905.5,348.5C 1906.64,351.947 1908.64,354.781 1911.5,357C 1921.25,363.957 1931.08,370.79 1941,377.5C 1943.78,383.134 1942.61,387.634 1937.5,391C 1917.17,396.305 1896.5,398.305 1875.5,397C 1872.6,395.899 1869.93,394.399 1867.5,392.5C 1865.58,396.017 1863.91,399.684 1862.5,403.5C 1856.31,410.148 1849.31,411.148 1841.5,406.5C 1839.7,404.869 1838.54,402.869 1838,400.5C 1837.33,396.5 1837.33,392.5 1838,388.5C 1842.33,377.5 1846.67,366.5 1851,355.5C 1853.26,343.611 1854.59,331.611 1855,319.5C 1856.13,317.395 1857.3,315.395 1858.5,313.5 Z"/></g>
<g><path style="opacity:0.91" fill="#000000" d="M 2071.5,324.5 C 2080.84,324.334 2090.17,324.5 2099.5,325C 2104.01,325.263 2108.34,326.263 2112.5,328C 2116.99,331.192 2118.49,335.358 2117,340.5C 2122.91,332.46 2130.74,329.294 2140.5,331C 2149.37,335.557 2151.87,342.39 2148,351.5C 2145,354.167 2142,356.833 2139,359.5C 2130.11,375.721 2126.78,393.054 2129,411.5C 2133.88,417.104 2137.05,423.604 2138.5,431C 2136.59,435.223 2133.26,437.557 2128.5,438C 2114.47,439.226 2105.31,433.06 2101,419.5C 2099.37,409.517 2099.04,399.517 2100,389.5C 2084.52,396.962 2069.02,397.129 2053.5,390C 2041.65,381.45 2037.48,369.95 2041,355.5C 2045.29,339.38 2055.45,329.046 2071.5,324.5 Z M 2115.5,342.5 C 2110.17,350.475 2106.17,359.141 2103.5,368.5C 2102.97,369.192 2102.31,369.692 2101.5,370C 2097.82,370.835 2094.15,371.668 2090.5,372.5C 2084.26,370.363 2077.92,368.53 2071.5,367C 2070.09,366.632 2069.09,365.799 2068.5,364.5C 2069.27,359.208 2071.94,355.041 2076.5,352C 2080.5,349.333 2084.5,346.667 2088.5,344C 2097.45,343.395 2106.45,342.895 2115.5,342.5 Z"/></g>
<g><path style="opacity:0.862" fill="#000000" d="M 1519.5,340.5 C 1537.02,343.619 1553.69,349.452 1569.5,358C 1575.73,363.192 1576.06,368.692 1570.5,374.5C 1566.54,375.66 1562.54,375.827 1558.5,375C 1543.78,369.477 1530.45,361.643 1518.5,351.5C 1516.95,347.579 1517.28,343.912 1519.5,340.5 Z"/></g>
<g><path style="opacity:0.84" fill="#000000" d="M 1804.5,365.5 C 1810.84,365.334 1817.18,365.5 1823.5,366C 1825.03,367.648 1825.7,369.648 1825.5,372C 1825.7,374.352 1825.03,376.352 1823.5,378C 1814.09,378.936 1805.09,381.269 1796.5,385C 1794.67,385.167 1792.83,385.333 1791,385.5C 1788.7,385.4 1786.7,384.733 1785,383.5C 1774.69,388.404 1764.19,392.904 1753.5,397C 1684.98,418.266 1619.65,446.599 1557.5,482C 1504.48,514.517 1450.48,545.517 1395.5,575C 1338.25,603.293 1280.25,629.959 1221.5,655C 1216.02,657.121 1210.35,658.454 1204.5,659C 1199.64,665.696 1194.97,672.53 1190.5,679.5C 1211.84,679.577 1233.18,680.077 1254.5,681C 1266.9,688.142 1268.23,696.808 1258.5,707C 1256.09,707.935 1253.59,708.435 1251,708.5C 1224.15,707.745 1197.32,706.578 1170.5,705C 1160.3,702.149 1157.46,695.982 1162,686.5C 1163.58,684.945 1165.42,683.778 1167.5,683C 1178.94,669.967 1188.77,655.8 1197,640.5C 1200.61,629.517 1202.45,618.35 1202.5,607C 1204.9,606.289 1207.23,606.456 1209.5,607.5C 1211.14,609.925 1212.31,612.592 1213,615.5C 1215.93,627.169 1214.76,638.336 1209.5,649C 1210.5,649.667 1211.5,649.667 1212.5,649C 1276.68,617.077 1341.01,585.411 1405.5,554C 1457.46,525.023 1508.79,495.023 1559.5,464C 1578.36,453.159 1597.69,443.159 1617.5,434C 1617.96,433.586 1618.29,433.086 1618.5,432.5C 1605.44,422.621 1595.61,410.287 1589,395.5C 1587.67,394.833 1586.33,394.167 1585,393.5C 1584.25,392.365 1584.42,391.365 1585.5,390.5C 1589.8,387.877 1594.47,387.043 1599.5,388C 1602.64,391.401 1606.3,394.067 1610.5,396C 1619.43,406.26 1628.93,415.76 1639,424.5C 1673.71,409.374 1709.21,396.207 1745.5,385C 1755.5,380.667 1765.5,376.333 1775.5,372C 1785.06,368.688 1794.73,366.522 1804.5,365.5 Z"/></g>
<g><path style="opacity:0.795" fill="#000000" d="M 752.5,383.5 C 764.417,384.091 765.751,388.591 756.5,397C 745.721,405.778 734.388,413.778 722.5,421C 711.436,422.848 708.436,418.681 713.5,408.5C 726.272,399.712 739.272,391.379 752.5,383.5 Z"/></g>
<g><path style="opacity:0.843" fill="#000000" d="M 1174.5,444.5 C 1177.81,444.063 1180.81,444.73 1183.5,446.5C 1185.29,454.755 1185.79,463.088 1185,471.5C 1182.41,481.283 1179.41,490.95 1176,500.5C 1172.4,503.964 1168.56,504.297 1164.5,501.5C 1163.03,499.808 1162.36,497.808 1162.5,495.5C 1164.29,486.643 1166.79,477.976 1170,469.5C 1170.56,462.157 1171.22,454.823 1172,447.5C 1173.04,446.627 1173.88,445.627 1174.5,444.5 Z"/></g>
<g><path style="opacity:0.726" fill="#000000" d="M 666.5,456.5 C 669.32,456.248 671.986,456.748 674.5,458C 675.554,459.388 675.72,460.888 675,462.5C 668.336,465.354 662.67,469.687 658,475.5C 648.513,487.137 640.013,499.471 632.5,512.5C 629.85,514.494 626.85,515.494 623.5,515.5C 623.545,511.654 624.378,507.987 626,504.5C 636.505,488.337 648.338,473.17 661.5,459C 663.315,458.243 664.981,457.41 666.5,456.5 Z"/></g>
<g><path style="opacity:0.785" fill="#000000" d="M 1685.5,460.5 C 1691.4,460.035 1695.9,462.368 1699,467.5C 1704.09,473.997 1708.42,480.997 1712,488.5C 1714.83,496.124 1713.66,502.957 1708.5,509C 1706.23,509.758 1704.06,509.591 1702,508.5C 1701.41,507.101 1701.57,505.768 1702.5,504.5C 1697.84,492.996 1691.67,482.329 1684,472.5C 1682.99,468.198 1683.49,464.198 1685.5,460.5 Z"/></g>
<g><path style="opacity:0.891" fill="#000000" d="M 1900.5,460.5 C 1903.93,460.107 1907.1,460.773 1910,462.5C 1912.04,486.934 1911.21,511.267 1907.5,535.5C 1936.97,534.066 1952.64,548.066 1954.5,577.5C 1954.43,583.606 1953.59,589.606 1952,595.5C 1949.45,601.605 1945.11,603.939 1939,602.5C 1937.57,590.505 1936.24,578.505 1935,566.5C 1929.71,552.772 1919.88,547.939 1905.5,552C 1900.98,564.348 1893.32,574.348 1882.5,582C 1875.71,585.822 1869.38,585.322 1863.5,580.5C 1859.88,567.544 1863.54,557.044 1874.5,549C 1879.83,544.999 1885.5,541.499 1891.5,538.5C 1893.27,531.274 1894.44,523.941 1895,516.5C 1896.42,498.516 1897.59,480.516 1898.5,462.5C 1899.52,462.145 1900.19,461.478 1900.5,460.5 Z"/></g>
<g><path style="opacity:0.882" fill="#000000" d="M 1813.5,488.5 C 1819.18,488.334 1824.84,488.501 1830.5,489C 1843.1,491.362 1848.43,498.862 1846.5,511.5C 1844.47,511.662 1842.47,511.495 1840.5,511C 1836.31,503.796 1830.97,502.796 1824.5,508C 1819.21,513.573 1817.71,520.073 1820,527.5C 1833.84,547.355 1840.17,569.355 1839,593.5C 1834.96,600.199 1829.12,604.699 1821.5,607C 1802.25,613.813 1785.42,609.98 1771,595.5C 1767.37,587.902 1767.87,580.569 1772.5,573.5C 1776.77,569.399 1780.77,569.566 1784.5,574C 1789.39,575.894 1794.06,578.228 1798.5,581C 1807.36,582.42 1816.02,584.587 1824.5,587.5C 1825.65,587.182 1826.48,586.516 1827,585.5C 1827.5,577.002 1825.17,569.335 1820,562.5C 1810.71,553.921 1803.38,543.921 1798,532.5C 1795.73,522.345 1796.06,512.345 1799,502.5C 1802.43,496.231 1807.27,491.564 1813.5,488.5 Z"/></g>
<g><path style="opacity:0.897" fill="#000000" d="M 2151.5,508.5 C 2155.11,508.206 2158.28,509.206 2161,511.5C 2162.15,515.091 2162.98,518.758 2163.5,522.5C 2161.48,543.571 2156.48,563.904 2148.5,583.5C 2153.95,588.068 2159.95,591.902 2166.5,595C 2176.58,598.546 2186.74,601.712 2197,604.5C 2204.09,589.206 2215.92,580.039 2232.5,577C 2250.64,575.126 2268.31,577.126 2285.5,583C 2293.1,586.382 2299.94,590.882 2306,596.5C 2307.74,599.957 2308.74,603.623 2309,607.5C 2318.21,596.321 2329.71,593.155 2343.5,598C 2352.5,604.352 2355.5,612.686 2352.5,623C 2346.73,622.477 2341.07,621.143 2335.5,619C 2334.33,617.833 2333.17,616.667 2332,615.5C 2326.17,618.909 2321.17,623.242 2317,628.5C 2307.72,642.775 2298.06,656.775 2288,670.5C 2285.68,674.019 2282.51,676.019 2278.5,676.5C 2276.31,676.674 2274.47,676.007 2273,674.5C 2273.73,654.72 2281.23,638.053 2295.5,624.5C 2295.17,624.167 2294.83,623.833 2294.5,623.5C 2272.66,627.611 2250.99,626.778 2229.5,621C 2224.89,619.361 2220.55,617.194 2216.5,614.5C 2214.29,616.99 2213.12,619.99 2213,623.5C 2212.78,628.22 2212.28,632.887 2211.5,637.5C 2212.1,638.795 2212.6,640.128 2213,641.5C 2220.65,648.886 2229.81,652.886 2240.5,653.5C 2240.71,655.144 2240.38,656.644 2239.5,658C 2236.93,658.958 2234.26,659.458 2231.5,659.5C 2224.51,658.876 2217.51,658.376 2210.5,658C 2201.84,655.934 2196,650.768 2193,642.5C 2192.67,635.167 2192.33,627.833 2192,620.5C 2172.47,622.438 2154.8,617.438 2139,605.5C 2135.49,610.51 2132.49,615.843 2130,621.5C 2127.5,624 2125,626.5 2122.5,629C 2119.45,629.821 2116.45,629.655 2113.5,628.5C 2112.39,623.554 2112.22,618.554 2113,613.5C 2116.96,605.744 2120.79,597.91 2124.5,590C 2122.74,586.376 2119.74,584.709 2115.5,585C 2109.17,584.333 2102.83,584.333 2096.5,585C 2092.21,586.396 2088.71,588.896 2086,592.5C 2076.6,608.64 2068.26,625.307 2061,642.5C 2059.35,644.028 2057.35,644.695 2055,644.5C 2052.65,644.695 2050.65,644.028 2049,642.5C 2047.43,636.947 2047.1,631.281 2048,625.5C 2050.66,612.207 2054.32,599.207 2059,586.5C 2067.73,566.878 2082.9,557.545 2104.5,558.5C 2109.49,559.09 2114.49,559.59 2119.5,560C 2124.9,561.368 2129.57,563.701 2133.5,567C 2139.31,550.271 2143.48,533.105 2146,515.5C 2146.97,512.379 2148.8,510.046 2151.5,508.5 Z M 2236.5,595.5 C 2250.26,595.015 2263.92,595.849 2277.5,598C 2283.91,599.124 2289.41,601.957 2294,606.5C 2294.48,607.448 2294.65,608.448 2294.5,609.5C 2279.16,610.899 2263.83,610.732 2248.5,609C 2240.4,607.982 2233.07,605.149 2226.5,600.5C 2229.18,597.402 2232.51,595.735 2236.5,595.5 Z"/></g>
<g><path style="opacity:0.779" fill="#000000" d="M 1698.5,519.5 C 1701.65,519.211 1704.65,519.711 1707.5,521C 1712.85,529.212 1717.02,538.046 1720,547.5C 1720.67,552.806 1720.17,557.973 1718.5,563C 1716.83,563.667 1715.17,563.667 1713.5,563C 1707.78,552.884 1702.61,542.384 1698,531.5C 1697.24,527.413 1697.4,523.413 1698.5,519.5 Z"/></g>
<g><path style="opacity:0.8" fill="#000000" d="M 1164.5,532.5 C 1166.5,532.5 1168.5,532.5 1170.5,532.5C 1170.73,537.248 1170.23,541.915 1169,546.5C 1163.38,561.34 1158.55,576.34 1154.5,591.5C 1151.67,592.974 1149.17,592.64 1147,590.5C 1144.95,572.761 1148.28,556.094 1157,540.5C 1159.03,537.308 1161.53,534.641 1164.5,532.5 Z"/></g>
<g><path style="opacity:0.863" fill="#000000" d="M 781.5,543.5 C 798.734,541.791 815.401,543.957 831.5,550C 840.218,553.605 844.218,560.105 843.5,569.5C 841.712,569.785 840.045,569.452 838.5,568.5C 833.955,561.055 827.288,556.888 818.5,556C 800.011,552.756 782.011,554.423 764.5,561C 698.387,589.803 656.22,639.303 638,709.5C 630.405,739.763 628.071,770.43 631,801.5C 635.951,829.73 647.617,854.73 666,876.5C 698.39,911.789 738.223,934.289 785.5,944C 820.163,951.078 855.163,953.412 890.5,951C 919.133,947.686 944.8,937.353 967.5,920C 1014.91,886.196 1041.91,840.196 1048.5,782C 1048.76,764.305 1044.6,747.805 1036,732.5C 1017.58,703.418 992.411,682.252 960.5,669C 945.635,662.601 930.301,657.601 914.5,654C 889.625,648.684 864.625,644.018 839.5,640C 826.132,637.88 813.798,633.213 802.5,626C 797.415,620.27 796.248,613.77 799,606.5C 800.171,605.107 801.671,604.273 803.5,604C 807.833,603.333 812.167,603.333 816.5,604C 825.133,608.076 834.133,611.076 843.5,613C 876.848,618.003 909.848,624.67 942.5,633C 986.218,646.252 1022.05,670.752 1050,706.5C 1069.29,734.698 1074.29,765.364 1065,798.5C 1047.19,873.297 1003.03,925.797 932.5,956C 919.895,960.588 906.895,963.254 893.5,964C 845.919,967.269 799.253,962.269 753.5,949C 701.542,932.696 661.709,901.196 634,854.5C 620.768,829.119 615.268,802.119 617.5,773.5C 617.493,711.008 636.993,655.675 676,607.5C 704.95,575.781 740.116,554.448 781.5,543.5 Z"/></g>
<g><path style="opacity:0.89" fill="#000000" d="M 2006.5,543.5 C 2022.16,540.698 2035.33,545.031 2046,556.5C 2053.16,571.043 2053.16,585.71 2046,600.5C 2030.58,616.53 2011.75,623.03 1989.5,620C 1985.19,618.604 1982.36,615.771 1981,611.5C 1977.32,587.032 1983.49,565.532 1999.5,547C 2002.17,546.33 2004.51,545.163 2006.5,543.5 Z M 2013.5,559.5 C 2021.53,562.357 2028.36,567.023 2034,573.5C 2038.13,584.783 2034.96,593.283 2024.5,599C 2017.38,603.266 2009.71,605.266 2001.5,605C 1998.4,588.117 2002.4,572.951 2013.5,559.5 Z"/></g>
<g><path style="opacity:0.78" fill="#000000" d="M 600.5,544.5 C 603.127,545.092 605.794,545.425 608.5,545.5C 608.5,547.833 608.5,550.167 608.5,552.5C 605.689,552.826 603.022,553.659 600.5,555C 596.405,558.704 592.905,562.871 590,567.5C 585.052,581.015 579.719,594.349 574,607.5C 570.688,609.645 567.854,612.312 565.5,615.5C 559.707,618.072 557.207,616.405 558,610.5C 565.105,595.86 571.438,580.86 577,565.5C 582.251,555.405 590.084,548.405 600.5,544.5 Z"/></g>
<g><path style="opacity:0.806" fill="#000000" d="M 1151.5,597.5 C 1154.36,597.055 1156.86,597.722 1159,599.5C 1161.6,611.853 1160.6,623.853 1156,635.5C 1154.15,638.041 1151.65,639.041 1148.5,638.5C 1147.21,626.824 1147.38,615.158 1149,603.5C 1150.12,601.593 1150.96,599.593 1151.5,597.5 Z"/></g>
<g><path style="opacity:0.79" fill="#000000" d="M 1729.5,610.5 C 1733.6,609.769 1737.1,610.769 1740,613.5C 1746.42,626.371 1749.09,640.037 1748,654.5C 1746.89,658.754 1744.06,660.42 1739.5,659.5C 1737.81,649.52 1735.98,639.52 1734,629.5C 1732.61,625.714 1730.94,622.048 1729,618.5C 1728.28,615.739 1728.44,613.073 1729.5,610.5 Z"/></g>
<g><path style="opacity:0.799" fill="#000000" d="M 541.5,641.5 C 543.792,641.244 545.959,641.577 548,642.5C 552.302,658.341 550.969,673.674 544,688.5C 541.848,691.634 540.182,694.968 539,698.5C 536.408,699.982 534.075,699.648 532,697.5C 530.607,692.905 530.274,688.239 531,683.5C 532.607,678.012 534.607,672.678 537,667.5C 537.388,658.575 538.888,649.908 541.5,641.5 Z"/></g>
<g><path style="opacity:0.864" fill="#000000" d="M 1859.5,661.5 C 1870.55,659.794 1879.72,663.128 1887,671.5C 1905.6,692.03 1913.27,716.03 1910,743.5C 1905.92,750.466 1899.76,754.299 1891.5,755C 1877.34,758.168 1863.68,756.834 1850.5,751C 1844.91,746.894 1843.57,741.894 1846.5,736C 1849.17,735.333 1851.83,735.333 1854.5,736C 1858.05,737.941 1861.71,739.607 1865.5,741C 1872.83,741.667 1880.17,741.667 1887.5,741C 1893.48,740.71 1896.82,737.71 1897.5,732C 1897.21,728.681 1896.38,725.515 1895,722.5C 1885.55,710.044 1875.71,697.877 1865.5,686C 1864.5,685.333 1863.5,685.333 1862.5,686C 1859.07,689.042 1856.23,692.542 1854,696.5C 1849.29,705.293 1844.95,714.293 1841,723.5C 1834.99,743.913 1829.99,764.58 1826,785.5C 1823.04,795.408 1819.54,805.074 1815.5,814.5C 1812.29,815.787 1809.12,815.787 1806,814.5C 1805.99,838.575 1804.66,862.575 1802,886.5C 1801.31,889.936 1800.31,893.27 1799,896.5C 1798.67,910.5 1798.33,924.5 1798,938.5C 1797.39,941.032 1795.89,941.865 1793.5,941C 1792,939.509 1791.16,937.676 1791,935.5C 1790.83,927.833 1790.67,920.167 1790.5,912.5C 1793.01,871.534 1794.68,830.534 1795.5,789.5C 1797.92,789.192 1800.26,789.526 1802.5,790.5C 1803.84,794.384 1804.67,798.384 1805,802.5C 1808.87,791.218 1812.54,779.884 1816,768.5C 1820.04,746.878 1823.71,725.212 1827,703.5C 1831.67,697.511 1835.33,690.844 1838,683.5C 1841.25,679.341 1844.25,675.008 1847,670.5C 1850.65,666.609 1854.82,663.609 1859.5,661.5 Z"/></g>
<g><path style="opacity:0.797" fill="#000000" d="M 1143.5,683.5 C 1145.5,683.5 1147.5,683.5 1149.5,683.5C 1154.71,699.211 1153.21,714.211 1145,728.5C 1143.36,731.311 1141.19,733.644 1138.5,735.5C 1137.72,740.76 1134.72,743.093 1129.5,742.5C 1129.34,737.434 1129.84,732.434 1131,727.5C 1133.13,720.588 1135.79,713.921 1139,707.5C 1138.67,699.092 1140.17,691.092 1143.5,683.5 Z"/></g>
<g><path style="opacity:0.808" fill="#000000" d="M 1761.5,702.5 C 1768.03,702.355 1772.53,705.355 1775,711.5C 1776.23,726.8 1777.06,742.133 1777.5,757.5C 1775.14,757.663 1772.81,757.497 1770.5,757C 1769.08,753.491 1767.58,749.991 1766,746.5C 1764.98,737.193 1764.32,727.86 1764,718.5C 1762.25,715 1761.08,711.333 1760.5,707.5C 1760.59,705.742 1760.92,704.076 1761.5,702.5 Z"/></g>
<g><path style="opacity:0.898" fill="#000000" d="M 2085.5,719.5 C 2095.68,718.852 2100.35,723.685 2099.5,734C 2099.33,736.5 2099.17,739 2099,741.5C 2095.78,750.28 2092.28,758.946 2088.5,767.5C 2095.45,768.529 2100.95,771.863 2105,777.5C 2109.33,768.167 2113.67,758.833 2118,749.5C 2119.27,743.511 2121.27,737.844 2124,732.5C 2135.82,728.646 2141.15,732.979 2140,745.5C 2133.88,764.907 2125.71,783.407 2115.5,801C 2130.22,802.72 2138.72,810.887 2141,825.5C 2144.94,846.683 2138.77,864.183 2122.5,878C 2107.43,883.558 2100.6,878.391 2102,862.5C 2104.83,856.178 2108.16,850.178 2112,844.5C 2113.71,839.216 2113.88,833.883 2112.5,828.5C 2105.01,829.327 2098.85,832.661 2094,838.5C 2090.2,847.276 2085.03,855.11 2078.5,862C 2059.58,864.724 2053.42,856.891 2060,838.5C 2066.91,826.923 2075.91,817.256 2087,809.5C 2089.93,804.966 2092.27,800.3 2094,795.5C 2087.56,796.149 2081.06,796.816 2074.5,797.5C 2067.44,814.137 2057.11,828.303 2043.5,840C 2041.83,840.167 2040.17,840.333 2038.5,840.5C 2036.36,840.387 2034.53,839.72 2033,838.5C 2032.01,831.332 2032.68,824.332 2035,817.5C 2038.49,808.349 2042.66,799.516 2047.5,791C 2036,788.148 2031.5,780.981 2034,769.5C 2040.39,760.038 2048.73,758.038 2059,763.5C 2065.89,750.715 2072.56,737.715 2079,724.5C 2080.8,722.174 2082.97,720.508 2085.5,719.5 Z"/></g>
<g><path style="opacity:0.803" fill="#000000" d="M 529.5,728.5 C 532.365,728.055 534.865,728.722 537,730.5C 537.667,736.833 537.667,743.167 537,749.5C 532.699,766.702 529.033,784.035 526,801.5C 524.789,805.462 522.789,806.129 520,803.5C 518.921,784.163 520.921,765.163 526,746.5C 526.333,741.5 526.667,736.5 527,731.5C 527.698,730.309 528.531,729.309 529.5,728.5 Z"/></g>
<g><path style="opacity:0.898" fill="#000000" d="M 1959.5,732.5 C 1971.61,731.7 1981.78,735.7 1990,744.5C 1990.33,747.5 1990.67,750.5 1991,753.5C 1994.21,748.618 1998.38,744.785 2003.5,742C 2016.5,740.665 2022,746.498 2020,759.5C 2011.2,774.958 2007.53,791.625 2009,809.5C 2006.42,818.414 2000.59,821.914 1991.5,820C 1984.17,817.527 1980.67,812.36 1981,804.5C 1980.75,797.487 1980.75,790.487 1981,783.5C 1971.74,791.757 1961.24,797.923 1949.5,802C 1918.98,806.787 1908.81,794.621 1919,765.5C 1927.93,748.719 1941.43,737.719 1959.5,732.5 Z M 1975.5,753.5 C 1976.55,753.351 1977.55,753.517 1978.5,754C 1979.77,758.612 1982.77,760.945 1987.5,761C 1986.69,763.088 1985.69,765.088 1984.5,767C 1976.7,771.237 1968.7,774.903 1960.5,778C 1955.38,778.709 1950.38,778.209 1945.5,776.5C 1948.93,770.905 1952.93,765.738 1957.5,761C 1963.34,757.887 1969.34,755.387 1975.5,753.5 Z"/></g>
<g><path style="opacity:0.775" fill="#000000" d="M 1128.5,772.5 C 1132.49,771.616 1135.32,772.949 1137,776.5C 1140.56,787.65 1140.23,798.65 1136,809.5C 1132.94,816.621 1129.61,823.621 1126,830.5C 1124.6,837.023 1122.6,843.357 1120,849.5C 1116.22,853.768 1114.05,852.935 1113.5,847C 1116.1,829.637 1120.6,812.804 1127,796.5C 1129.4,789.474 1129.57,782.474 1127.5,775.5C 1127.69,774.416 1128.02,773.416 1128.5,772.5 Z"/></g>
<g><path style="opacity:0.847" fill="#000000" d="M 1524.5,813.5 C 1565.57,817.184 1605.24,826.684 1643.5,842C 1680.82,856.985 1707.65,882.819 1724,919.5C 1725.84,924.703 1727.17,930.036 1728,935.5C 1741.44,1040.58 1699.94,1114.08 1603.5,1156C 1581.32,1164.96 1558.32,1170.63 1534.5,1173C 1487.58,1176.51 1440.91,1174.51 1394.5,1167C 1353.68,1159.19 1317.34,1142.19 1285.5,1116C 1270.24,1102.64 1259.07,1086.47 1252,1067.5C 1242.07,1022.8 1249.74,981.467 1275,943.5C 1304.49,898.342 1343.99,865.175 1393.5,844C 1409.11,839.05 1425.11,836.883 1441.5,837.5C 1474.71,835.63 1504.71,844.297 1531.5,863.5C 1536.48,868.216 1539.15,874.05 1539.5,881C 1539.16,888.739 1537.66,896.239 1535,903.5C 1533.37,908.147 1530.37,909.48 1526,907.5C 1527.31,901.596 1528.64,895.596 1530,889.5C 1530.67,885.167 1530.67,880.833 1530,876.5C 1524.26,869.206 1517.1,863.706 1508.5,860C 1492.44,852.067 1475.44,847.734 1457.5,847C 1437.4,845.099 1417.74,847.099 1398.5,853C 1338.29,877.205 1295.13,919.039 1269,978.5C 1256.8,1008.06 1255.46,1038.06 1265,1068.5C 1278.06,1093.56 1296.9,1113.06 1321.5,1127C 1360.78,1147.99 1402.78,1159.66 1447.5,1162C 1476.19,1164.17 1504.86,1163.83 1533.5,1161C 1582.01,1154.4 1624.67,1135.4 1661.5,1104C 1691.64,1074.55 1709.14,1038.71 1714,996.5C 1716.28,975.775 1715.95,955.109 1713,934.5C 1706.86,915.362 1695.69,899.862 1679.5,888C 1649.57,867.705 1616.9,853.372 1581.5,845C 1554.65,838.763 1527.65,833.43 1500.5,829C 1497.9,822.861 1499.56,818.528 1505.5,816C 1512,815.309 1518.33,814.476 1524.5,813.5 Z"/></g>
<g><path style="opacity:0.796" fill="#000000" d="M 512.5,839.5 C 514.833,839.5 517.167,839.5 519.5,839.5C 519.507,842.038 519.841,844.538 520.5,847C 519.715,859.478 519.215,871.978 519,884.5C 518.587,887.232 517.92,889.899 517,892.5C 515,893.833 513,893.833 511,892.5C 510.913,874.807 511.413,857.14 512.5,839.5 Z"/></g>
<g><path style="opacity:0.874" fill="#000000" d="M 1865.5,909.5 C 1879.9,907.027 1892.4,910.694 1903,920.5C 1905.86,924.38 1907.03,928.713 1906.5,933.5C 1904.14,933.663 1901.81,933.497 1899.5,933C 1894.8,929.986 1889.8,927.486 1884.5,925.5C 1880.53,926.197 1876.53,926.697 1872.5,927C 1867.19,938.762 1869.19,949.096 1878.5,958C 1892.67,968.833 1906.83,979.667 1921,990.5C 1923.83,995.343 1924.17,1000.34 1922,1005.5C 1912.4,1009.37 1902.56,1012.87 1892.5,1016C 1880.51,1017.07 1868.51,1017.4 1856.5,1017C 1845.58,1013.17 1841.92,1005.83 1845.5,995C 1848.82,989.556 1853.65,987.39 1860,988.5C 1870.71,990.719 1881.55,991.885 1892.5,992C 1896.8,993.494 1901.13,994.494 1905.5,995C 1895.5,989.333 1885.5,983.667 1875.5,978C 1867.63,971.795 1860.79,964.628 1855,956.5C 1849.93,942.884 1850.6,929.55 1857,916.5C 1859.46,913.519 1862.3,911.186 1865.5,909.5 Z"/></g>
<g><path style="opacity:0.765" fill="#000000" d="M 1105.5,920.5 C 1107.6,920.201 1109.6,920.534 1111.5,921.5C 1112.02,922.607 1112.36,923.774 1112.5,925C 1111.2,929.903 1109.7,934.736 1108,939.5C 1107.05,948.556 1105.72,957.556 1104,966.5C 1103.06,969.993 1101.72,973.326 1100,976.5C 1097.96,977.423 1095.79,977.756 1093.5,977.5C 1095.58,964.242 1097.08,950.909 1098,937.5C 1100.54,931.767 1103.04,926.1 1105.5,920.5 Z"/></g>
<g><path style="opacity:0.825" fill="#000000" d="M 509.5,939.5 C 514.886,939.194 517.386,941.86 517,947.5C 517.757,962.524 517.424,977.524 516,992.5C 513.547,996.434 511.047,996.434 508.5,992.5C 506.551,977.562 506.051,962.562 507,947.5C 507.272,944.618 508.106,941.951 509.5,939.5 Z"/></g>
<g><path style="opacity:0.906" fill="#000000" d="M 2122.5,951.5 C 2141.84,948.66 2159.01,953.327 2174,965.5C 2186.62,955.947 2200.78,952.78 2216.5,956C 2228.68,958.504 2239.18,964.004 2248,972.5C 2253.22,979.679 2254.89,987.679 2253,996.5C 2253.11,1005.19 2249.94,1012.36 2243.5,1018C 2232.13,1020.76 2220.63,1022.92 2209,1024.5C 2198.58,1023.97 2188.75,1021.31 2179.5,1016.5C 2175.52,1029.14 2179.86,1036.97 2192.5,1040C 2204.17,1042.79 2215.5,1046.46 2226.5,1051C 2228.29,1053.11 2228.96,1055.61 2228.5,1058.5C 2213.21,1065.21 2197.21,1067.71 2180.5,1066C 2159.85,1059.68 2149.52,1045.68 2149.5,1024C 2148.75,1006.33 2153.41,990.328 2163.5,976C 2162.39,975.362 2161.22,974.862 2160,974.5C 2147.35,976.962 2134.68,978.962 2122,980.5C 2111.34,1000.19 2104.34,1021.19 2101,1043.5C 2097.83,1046.61 2094.16,1047.27 2090,1045.5C 2088.14,1042.24 2086.98,1038.74 2086.5,1035C 2082.48,1015.53 2080.15,995.86 2079.5,976C 2079.48,969.454 2079.98,962.954 2081,956.5C 2083.72,953.93 2086.38,953.93 2089,956.5C 2089.57,969.919 2090.74,983.252 2092.5,996.5C 2093.63,986.38 2095.46,976.38 2098,966.5C 2103.82,957.521 2111.98,952.521 2122.5,951.5 Z M 2215.5,981.5 C 2229.82,981.151 2237.49,988.151 2238.5,1002.5C 2238.57,1006.26 2236.74,1008.26 2233,1008.5C 2222.16,1006.33 2211.32,1004.16 2200.5,1002C 2195.47,1000.4 2190.97,997.902 2187,994.5C 2187.2,992.255 2188.36,990.422 2190.5,989C 2192.67,987.414 2195,986.08 2197.5,985C 2203.58,983.503 2209.58,982.336 2215.5,981.5 Z"/></g>
<g><path style="opacity:0.868" fill="#000000" d="M 1976.5,956.5 C 2005.04,955.556 2016.54,969.222 2011,997.5C 2008.99,1004.18 2004.82,1009.01 1998.5,1012C 1978.87,1019.4 1960.21,1017.73 1942.5,1007C 1933.42,999.191 1930.25,989.357 1933,977.5C 1939.04,963.225 1949.87,957.392 1965.5,960C 1969.1,958.243 1972.77,957.076 1976.5,956.5 Z M 1979.5,967.5 C 1989,967.336 1996.5,971.336 2002,979.5C 2005.08,988.02 2003.58,995.52 1997.5,1002C 1996.17,1002.67 1994.83,1003.33 1993.5,1004C 1978.4,1004.2 1964.9,999.697 1953,990.5C 1951.77,986.409 1952.61,982.909 1955.5,980C 1964.12,978.127 1972.79,976.461 1981.5,975C 1983.15,971.792 1982.48,969.292 1979.5,967.5 Z"/></g>
<g><path style="opacity:0.74" fill="#000000" d="M 1791.5,981.5 C 1793.53,981.338 1795.53,981.505 1797.5,982C 1807.01,993.529 1812.01,1006.86 1812.5,1022C 1812.14,1024.45 1811.47,1026.78 1810.5,1029C 1808.56,1029.74 1806.73,1029.58 1805,1028.5C 1803.63,1017.95 1801.3,1007.62 1798,997.5C 1795.28,994.443 1792.94,991.11 1791,987.5C 1790.32,985.402 1790.49,983.402 1791.5,981.5 Z"/></g>
<g><path style="opacity:0.796" fill="#000000" d="M 1104.5,1001.5 C 1108.18,1000.73 1110.68,1002.06 1112,1005.5C 1111.89,1017.49 1111.56,1029.49 1111,1041.5C 1108.02,1054.1 1105.35,1066.77 1103,1079.5C 1097.87,1082.98 1095.04,1081.64 1094.5,1075.5C 1096.89,1062.07 1099.72,1048.74 1103,1035.5C 1103.19,1024.09 1103.69,1012.76 1104.5,1001.5 Z"/></g>
<g><path style="opacity:0.836" fill="#000000" d="M 509.5,1005.5 C 511.792,1005.24 513.959,1005.58 516,1006.5C 516.794,1009.47 517.461,1012.47 518,1015.5C 518.884,1038.37 520.384,1061.21 522.5,1084C 521.895,1093.73 520.895,1103.57 519.5,1113.5C 520.363,1117.59 521.53,1121.59 523,1125.5C 525.001,1143.83 525.334,1162.16 524,1180.5C 523.473,1183.23 521.806,1184.56 519,1184.5C 517.342,1184.32 516.009,1183.66 515,1182.5C 514.298,1167.32 514.465,1152.16 515.5,1137C 513.581,1108.14 511.081,1079.3 508,1050.5C 507.333,1037.5 507.333,1024.5 508,1011.5C 508.315,1009.41 508.815,1007.41 509.5,1005.5 Z"/></g>
<g><path style="opacity:0.891" fill="#000000" d="M 2301.5,1005.5 C 2308.24,1005.17 2314.91,1005.67 2321.5,1007C 2333.38,1011.86 2344.88,1017.36 2356,1023.5C 2362.74,1030.72 2362.9,1037.88 2356.5,1045C 2351.36,1047.25 2346.03,1047.91 2340.5,1047C 2326.67,1041.62 2313.34,1035.28 2300.5,1028C 2293.65,1023.71 2291.82,1017.88 2295,1010.5C 2296.8,1008.17 2298.97,1006.51 2301.5,1005.5 Z"/></g>
<g><path style="opacity:0.725" fill="#000000" d="M 1919.5,1080.5 C 1922.78,1080.22 1925.94,1080.55 1929,1081.5C 1932.17,1087.41 1933.01,1093.57 1931.5,1100C 1928.01,1100.86 1925.67,1099.53 1924.5,1096C 1919.24,1095.16 1916.91,1091.99 1917.5,1086.5C 1917.36,1084.16 1918.03,1082.16 1919.5,1080.5 Z"/></g>
<g><path style="opacity:0.793" fill="#000000" d="M 1821.5,1088.5 C 1824.25,1088.27 1826.92,1088.61 1829.5,1089.5C 1831.79,1100.72 1830.29,1111.39 1825,1121.5C 1820.79,1128.59 1817.12,1135.92 1814,1143.5C 1809.21,1145.75 1807.05,1144.25 1807.5,1139C 1808.43,1126.55 1811.59,1114.72 1817,1103.5C 1817.99,1099.56 1818.66,1095.56 1819,1091.5C 1819.7,1090.31 1820.53,1089.31 1821.5,1088.5 Z"/></g>
<g><path style="opacity:0.797" fill="#000000" d="M 1098.5,1096.5 C 1101.12,1096.23 1103.62,1096.56 1106,1097.5C 1107.53,1101.71 1107.87,1106.04 1107,1110.5C 1104.2,1122.4 1101.87,1134.4 1100,1146.5C 1097.27,1153.36 1094.93,1160.36 1093,1167.5C 1090.98,1169.73 1088.64,1170.06 1086,1168.5C 1085.83,1167.17 1085.67,1165.83 1085.5,1164.5C 1088.33,1147.9 1090.83,1131.23 1093,1114.5C 1094.22,1108.27 1096.06,1102.27 1098.5,1096.5 Z"/></g>
<g><path style="opacity:0.894" fill="#000000" d="M 2179.5,1257.5 C 2173.76,1269.39 2164.43,1277.23 2151.5,1281C 2132.32,1285.38 2112.99,1286.38 2093.5,1284C 2068.72,1274 2062.22,1256.84 2074,1232.5C 2075.79,1229.7 2077.96,1227.2 2080.5,1225C 2069.26,1226.22 2057.93,1226.72 2046.5,1226.5C 2044.4,1238.18 2042.23,1249.85 2040,1261.5C 2036.7,1264.59 2032.87,1265.26 2028.5,1263.5C 2027.63,1254.37 2027.63,1245.37 2028.5,1236.5C 2027.95,1233.17 2027.45,1229.84 2027,1226.5C 2019.7,1222.96 2017.7,1217.29 2021,1209.5C 2022.53,1207.44 2024.53,1206.1 2027,1205.5C 2027.2,1191.11 2028.2,1176.77 2030,1162.5C 2032.14,1143.34 2042.64,1135.18 2061.5,1138C 2072.71,1140.87 2080.55,1147.71 2085,1158.5C 2087.34,1166.76 2088.18,1175.09 2087.5,1183.5C 2085.47,1183.66 2083.47,1183.5 2081.5,1183C 2075.83,1174.67 2068.83,1167.67 2060.5,1162C 2058.83,1161.33 2057.17,1161.33 2055.5,1162C 2051.82,1176.24 2049.49,1190.74 2048.5,1205.5C 2066.57,1205.68 2084.24,1208.35 2101.5,1213.5C 2101.5,1214.83 2101.5,1216.17 2101.5,1217.5C 2105.18,1217.33 2108.85,1217.5 2112.5,1218C 2124.08,1220.05 2134.75,1224.22 2144.5,1230.5C 2145.35,1232.41 2145.68,1234.41 2145.5,1236.5C 2140.37,1236.92 2135.53,1235.92 2131,1233.5C 2123.45,1235.46 2115.95,1237.63 2108.5,1240C 2093.29,1248.59 2093.96,1255.25 2110.5,1260C 2121.86,1264.01 2133.53,1265.67 2145.5,1265C 2157.65,1264.17 2164.65,1257.84 2166.5,1246C 2166.67,1242.87 2165.84,1240.04 2164,1237.5C 2160.56,1234.22 2156.73,1231.55 2152.5,1229.5C 2151.23,1227.31 2151.23,1225.14 2152.5,1223C 2157.5,1222.33 2162.5,1222.33 2167.5,1223C 2173.33,1224.83 2177.17,1228.67 2179,1234.5C 2179.5,1242.16 2179.67,1249.83 2179.5,1257.5 Z"/></g>
<g><path style="opacity:0.865" fill="#000000" d="M 1887.5,1143.5 C 1890.97,1142.87 1893.8,1143.87 1896,1146.5C 1897.96,1155.83 1897.96,1165.16 1896,1174.5C 1891.2,1188.93 1884.7,1202.43 1876.5,1215C 1873.5,1215.67 1870.5,1215.67 1867.5,1215C 1866.3,1214.1 1865.47,1212.93 1865,1211.5C 1864.33,1207.5 1864.33,1203.5 1865,1199.5C 1869.33,1189.83 1873.67,1180.17 1878,1170.5C 1880.3,1163.31 1881.96,1155.98 1883,1148.5C 1884.02,1146.31 1885.52,1144.65 1887.5,1143.5 Z"/></g>
<g><path style="opacity:0.759" fill="#000000" d="M 1093.5,1177.5 C 1098.13,1176.7 1101.96,1178.03 1105,1181.5C 1110.11,1192.05 1115.44,1202.39 1121,1212.5C 1121.5,1214.81 1121.66,1217.14 1121.5,1219.5C 1115.36,1219.51 1110.19,1217.18 1106,1212.5C 1099.98,1202.29 1095.48,1191.46 1092.5,1180C 1092.74,1179.1 1093.08,1178.26 1093.5,1177.5 Z"/></g>
<g><path style="opacity:0.878" fill="#000000" d="M 1935.5,1177.5 C 1937.14,1177.29 1938.64,1177.62 1940,1178.5C 1941.71,1183.11 1941.88,1187.78 1940.5,1192.5C 1961.77,1188.87 1974.6,1197.54 1979,1218.5C 1979.67,1225.5 1979.67,1232.5 1979,1239.5C 1977.66,1243.7 1975.5,1247.37 1972.5,1250.5C 1970.26,1251.47 1967.92,1251.81 1965.5,1251.5C 1964.3,1247.75 1962.8,1244.08 1961,1240.5C 1960.76,1232.79 1960.1,1225.12 1959,1217.5C 1955.16,1209.84 1948.99,1207.34 1940.5,1210C 1936.32,1210.76 1932.32,1212.09 1928.5,1214C 1924.26,1220.91 1919.26,1227.24 1913.5,1233C 1908.09,1235.46 1903.25,1234.63 1899,1230.5C 1895.47,1217.06 1899.97,1207.23 1912.5,1201C 1917.77,1197.74 1923.44,1195.58 1929.5,1194.5C 1931.89,1189.01 1933.89,1183.35 1935.5,1177.5 Z"/></g>
<g><path style="opacity:0.784" fill="#000000" d="M 1820.5,1179.5 C 1822.59,1179.32 1824.59,1179.65 1826.5,1180.5C 1828.2,1198.4 1825.7,1215.73 1819,1232.5C 1814.34,1244.18 1809.5,1255.68 1804.5,1267C 1800.45,1268.48 1798.45,1267.15 1798.5,1263C 1799.33,1258.17 1800.17,1253.33 1801,1248.5C 1805.2,1236.91 1809.2,1225.24 1813,1213.5C 1816.16,1202.22 1818.66,1190.89 1820.5,1179.5 Z"/></g>
<g><path style="opacity:0.89" fill="#000000" d="M 2179.5,1257.5 C 2182.45,1247.38 2184.95,1237.05 2187,1226.5C 2194.14,1214.52 2204.64,1210.02 2218.5,1213C 2227.2,1213.45 2234.37,1216.95 2240,1223.5C 2240.69,1226.39 2241.53,1229.22 2242.5,1232C 2241.25,1236.48 2238.41,1237.64 2234,1235.5C 2227.64,1238.95 2220.8,1240.79 2213.5,1241C 2212,1241.83 2210.83,1243 2210,1244.5C 2203.64,1260.26 2199.64,1276.59 2198,1293.5C 2191.56,1299.17 2185.73,1298.67 2180.5,1292C 2179.53,1280.54 2179.2,1269.04 2179.5,1257.5 Z"/></g>
<g><path style="opacity:0.743" fill="#000000" d="M 513.5,1215.5 C 515.467,1215.26 517.301,1215.59 519,1216.5C 525.536,1228.49 527.369,1241.16 524.5,1254.5C 522.833,1254.5 521.167,1254.5 519.5,1254.5C 518.125,1244.87 515.625,1235.54 512,1226.5C 511.013,1222.53 511.513,1218.86 513.5,1215.5 Z"/></g>
<g><path style="opacity:0.911" fill="#000000" d="M 2365.5,1236.5 C 2380.55,1236.01 2394.55,1239.51 2407.5,1247C 2419.17,1256.81 2421.67,1268.64 2415,1282.5C 2411.79,1287.38 2407.62,1291.21 2402.5,1294C 2385.89,1299.15 2368.89,1300.82 2351.5,1299C 2349.57,1298.75 2347.73,1298.25 2346,1297.5C 2346.05,1301.25 2347.55,1304.42 2350.5,1307C 2358.04,1311.63 2366.04,1315.29 2374.5,1318C 2378.77,1321.43 2383.44,1324.26 2388.5,1326.5C 2389.47,1328.74 2389.81,1331.08 2389.5,1333.5C 2362.51,1347.45 2340.01,1342.12 2322,1317.5C 2310.48,1287.41 2317.64,1262.91 2343.5,1244C 2350.45,1239.96 2357.78,1237.46 2365.5,1236.5 Z M 2386.5,1263.5 C 2392.5,1264.22 2398,1266.22 2403,1269.5C 2405.11,1274.96 2403.28,1278.79 2397.5,1281C 2394.24,1281.94 2390.9,1282.44 2387.5,1282.5C 2374.69,1281.99 2362.03,1280.49 2349.5,1278C 2352.61,1272.89 2356.94,1269.22 2362.5,1267C 2370.61,1265.64 2378.61,1264.47 2386.5,1263.5 Z"/></g>
<g><path style="opacity:0.768" fill="#000000" d="M 1141.5,1242.5 C 1148.6,1241.71 1153.6,1244.55 1156.5,1251C 1164.75,1254.24 1172.25,1258.74 1179,1264.5C 1179.5,1266.81 1179.66,1269.14 1179.5,1271.5C 1173.56,1271.12 1168.23,1268.95 1163.5,1265C 1146.48,1266.81 1139.14,1259.31 1141.5,1242.5 Z"/></g>
<g><path style="opacity:0.885" fill="#000000" d="M 2289.5,1243.5 C 2295.18,1243.33 2300.84,1243.5 2306.5,1244C 2315.1,1245.25 2318.6,1250.09 2317,1258.5C 2315.44,1260.77 2313.28,1261.93 2310.5,1262C 2291.56,1260.22 2277.06,1267.39 2267,1283.5C 2263.54,1289.06 2261.87,1295.06 2262,1301.5C 2263.42,1302.46 2264.92,1303.29 2266.5,1304C 2276.05,1306.8 2285.71,1309.14 2295.5,1311C 2297.28,1312.07 2297.78,1313.57 2297,1315.5C 2282.63,1321.09 2267.8,1322.92 2252.5,1321C 2244.78,1319.61 2239.95,1315.11 2238,1307.5C 2234.76,1291.89 2238.43,1278.22 2249,1266.5C 2260.33,1254.76 2273.83,1247.09 2289.5,1243.5 Z"/></g>
<g><path style="opacity:0.852" fill="#000000" d="M 1830.5,1286.5 C 1833.65,1285.96 1836.15,1286.96 1838,1289.5C 1839.53,1310.81 1839.86,1332.14 1839,1353.5C 1837.65,1356.96 1835.15,1358.12 1831.5,1357C 1830.3,1356.1 1829.47,1354.93 1829,1353.5C 1828.33,1331.83 1828.33,1310.17 1829,1288.5C 1829.72,1287.96 1830.22,1287.29 1830.5,1286.5 Z"/></g>
<g><path style="opacity:0.747" fill="#000000" d="M 1252.5,1297.5 C 1257.74,1297.02 1262.74,1297.86 1267.5,1300C 1269.56,1304.34 1268.23,1307 1263.5,1308C 1255.8,1308.57 1248.14,1308.24 1240.5,1307C 1238.35,1304.93 1238.02,1302.59 1239.5,1300C 1243.97,1300.06 1248.3,1299.22 1252.5,1297.5 Z"/></g>
<g><path style="opacity:0.788" fill="#000000" d="M 1282.5,1299.5 C 1285.94,1299.3 1289.27,1299.8 1292.5,1301C 1299.57,1305.73 1306.91,1310.07 1314.5,1314C 1321.56,1319.45 1323.23,1326.12 1319.5,1334C 1317.17,1334.67 1314.83,1334.67 1312.5,1334C 1310.13,1331.96 1308.13,1329.63 1306.5,1327C 1300.5,1323.33 1294.5,1319.67 1288.5,1316C 1282.64,1311.81 1280.64,1306.31 1282.5,1299.5 Z"/></g>
<g><path style="opacity:0.793" fill="#000000" d="M 525.5,1307.5 C 528.547,1306.86 530.713,1307.86 532,1310.5C 536.566,1327.89 539.399,1345.56 540.5,1363.5C 535.939,1364.42 533.105,1362.75 532,1358.5C 529.598,1342.76 526.765,1327.09 523.5,1311.5C 523.803,1309.89 524.47,1308.55 525.5,1307.5 Z"/></g>
<g><path style="opacity:0.884" fill="#000000" d="M 1882.5,1325.5 C 1887.77,1325.58 1891.27,1328.25 1893,1333.5C 1897.77,1353.55 1900.1,1373.88 1900,1394.5C 1900.31,1395.77 1900.81,1396.93 1901.5,1398C 1912.48,1400.09 1923.48,1402.09 1934.5,1404C 1938.29,1405.39 1941.95,1407.06 1945.5,1409C 1949.77,1411.58 1952.77,1410.58 1954.5,1406C 1955.12,1402.52 1955.62,1399.02 1956,1395.5C 1955.92,1385.5 1955.92,1375.5 1956,1365.5C 1959.33,1362.83 1962.67,1362.83 1966,1365.5C 1970.63,1377.37 1972.8,1389.7 1972.5,1402.5C 1981.17,1402.33 1989.84,1402.5 1998.5,1403C 2011.85,1407.87 2018.02,1417.37 2017,1431.5C 2016.33,1440.09 2011.83,1442.93 2003.5,1440C 1998.12,1436.29 1993.79,1431.62 1990.5,1426C 1984.45,1425.34 1978.45,1425.67 1972.5,1427C 1971.33,1427.5 1970.5,1428.33 1970,1429.5C 1967.73,1437.65 1965.06,1445.65 1962,1453.5C 1957.91,1457.3 1953.08,1458.47 1947.5,1457C 1944.97,1455.46 1943.13,1453.3 1942,1450.5C 1941.25,1441.47 1941.42,1432.47 1942.5,1423.5C 1928.26,1426.21 1914.09,1425.88 1900,1422.5C 1899.02,1433.44 1896.02,1443.77 1891,1453.5C 1887.55,1457.12 1884.05,1460.46 1880.5,1463.5C 1877.25,1463.75 1875.92,1462.25 1876.5,1459C 1879.2,1447.07 1882.2,1435.23 1885.5,1423.5C 1885.17,1422.17 1884.83,1420.83 1884.5,1419.5C 1879.94,1417.93 1875.44,1416.26 1871,1414.5C 1870.72,1428.19 1870.06,1441.85 1869,1455.5C 1868.08,1461.33 1866.58,1467 1864.5,1472.5C 1862.14,1472.66 1859.81,1472.5 1857.5,1472C 1856.73,1469.59 1856.23,1467.09 1856,1464.5C 1855.79,1442.47 1856.46,1420.47 1858,1398.5C 1858.5,1397.33 1859.33,1396.5 1860.5,1396C 1864.58,1395.77 1868.58,1395.1 1872.5,1394C 1877.2,1393.35 1881.87,1393.52 1886.5,1394.5C 1886.07,1374.02 1884.07,1353.69 1880.5,1333.5C 1880.29,1330.51 1880.96,1327.85 1882.5,1325.5 Z"/></g>
<g><path style="opacity:0.874" fill="#000000" d="M 1075.5,1330.5 C 1096.53,1330.11 1117.53,1330.61 1138.5,1332C 1148.23,1334.2 1157.56,1337.53 1166.5,1342C 1208.87,1344.87 1249.87,1353.87 1289.5,1369C 1340.79,1393.02 1370.62,1433.19 1379,1489.5C 1388.76,1571.17 1356.93,1629.67 1283.5,1665C 1229.84,1690.11 1173.5,1699.11 1114.5,1692C 1065.79,1688.33 1019.12,1676.66 974.5,1657C 910.024,1624.21 884.191,1571.71 897,1499.5C 898.681,1470.77 905.681,1443.44 918,1417.5C 930.551,1395.28 948.051,1378.12 970.5,1366C 1003.68,1348.44 1038.68,1336.61 1075.5,1330.5 Z M 1084.5,1341.5 C 1100.84,1341.33 1117.17,1341.5 1133.5,1342C 1125.66,1343.52 1123.49,1348.02 1127,1355.5C 1128.17,1356.89 1129.67,1357.73 1131.5,1358C 1176.65,1360.47 1220.98,1367.8 1264.5,1380C 1324.01,1397.19 1357.17,1436.69 1364,1498.5C 1370.58,1565.18 1344.75,1614.35 1286.5,1646C 1226.33,1677.64 1162.67,1687.3 1095.5,1675C 1057.85,1670.17 1021.52,1660.51 986.5,1646C 924.026,1616.56 898.86,1567.4 911,1498.5C 912.996,1465.17 923.33,1434.84 942,1407.5C 953.356,1394.74 966.523,1384.24 981.5,1376C 1014.13,1358.96 1048.46,1347.46 1084.5,1341.5 Z"/></g>
<g><path style="opacity:0.728" fill="#000000" d="M 1341.5,1344.5 C 1343.53,1344.34 1345.53,1344.5 1347.5,1345C 1355.98,1353.81 1364.81,1362.31 1374,1370.5C 1377.85,1375.78 1378.35,1381.28 1375.5,1387C 1373.74,1387.8 1372.07,1387.63 1370.5,1386.5C 1369.54,1381.78 1367.7,1377.44 1365,1373.5C 1356.65,1366.48 1348.65,1359.15 1341,1351.5C 1340.3,1349.07 1340.46,1346.74 1341.5,1344.5 Z"/></g>
<g><path style="opacity:0.903" fill="#000000" d="M 2127.5,1378.5 C 2131.18,1378.33 2134.85,1378.5 2138.5,1379C 2140.38,1380.54 2141.88,1382.38 2143,1384.5C 2144.99,1399.85 2144.83,1415.19 2142.5,1430.5C 2156.9,1430.68 2170.56,1433.85 2183.5,1440C 2190.09,1444.01 2194.09,1449.84 2195.5,1457.5C 2195.37,1459.6 2194.37,1461.1 2192.5,1462C 2187.55,1462.94 2182.55,1463.44 2177.5,1463.5C 2163.47,1462.05 2149.47,1460.38 2135.5,1458.5C 2132.03,1475.75 2125.53,1491.75 2116,1506.5C 2111.98,1509.44 2108.32,1509.11 2105,1505.5C 2104.43,1497.45 2104.43,1489.45 2105,1481.5C 2097.54,1484.52 2092.54,1482.18 2090,1474.5C 2088.96,1471.25 2088.3,1467.91 2088,1464.5C 2081.12,1472.69 2072.62,1478.52 2062.5,1482C 2052.71,1484.29 2044.54,1481.79 2038,1474.5C 2032.27,1455.14 2037.1,1438.98 2052.5,1426C 2056.83,1423 2061.17,1420 2065.5,1417C 2076.06,1412.46 2085.22,1414.29 2093,1422.5C 2093.67,1426.17 2093.67,1429.83 2093,1433.5C 2088.25,1434.31 2083.42,1434.81 2078.5,1435C 2074.01,1437.83 2070.51,1441.66 2068,1446.5C 2065.93,1449.97 2064.43,1453.64 2063.5,1457.5C 2067.25,1457.61 2070.91,1457.11 2074.5,1456C 2079.01,1453.25 2083.67,1450.75 2088.5,1448.5C 2091.02,1440.16 2095.85,1433.49 2103,1428.5C 2108.24,1426.34 2113.58,1426.01 2119,1427.5C 2121.07,1413.25 2122.41,1398.91 2123,1384.5C 2124.33,1382.34 2125.83,1380.34 2127.5,1378.5 Z"/></g>
<g><path style="opacity:0.794" fill="#000000" d="M 1381.5,1401.5 C 1385.82,1400.68 1388.15,1402.35 1388.5,1406.5C 1387.9,1418.16 1387.23,1429.83 1386.5,1441.5C 1384.03,1443.01 1381.86,1442.67 1380,1440.5C 1379.33,1428.17 1379.33,1415.83 1380,1403.5C 1380.72,1402.96 1381.22,1402.29 1381.5,1401.5 Z"/></g>
<g><path style="opacity:0.848" fill="#000000" d="M 567.5,1418.5 C 569.792,1418.24 571.959,1418.58 574,1419.5C 578.785,1453.71 582.452,1488.04 585,1522.5C 589.645,1529.89 587.811,1532.56 579.5,1530.5C 574.304,1526.44 571.471,1521.11 571,1514.5C 568.977,1490.18 567.144,1465.84 565.5,1441.5C 565.425,1433.72 566.092,1426.05 567.5,1418.5 Z"/></g>
<g><path style="opacity:0.886" fill="#000000" d="M 2254.5,1424.5 C 2261.98,1423.65 2265.65,1426.98 2265.5,1434.5C 2264.27,1446.18 2262.27,1457.68 2259.5,1469C 2270.73,1471.06 2281.73,1473.89 2292.5,1477.5C 2293.61,1469.15 2294.78,1460.82 2296,1452.5C 2298.19,1446.56 2301.85,1445.23 2307,1448.5C 2307.54,1451.17 2307.04,1453.67 2305.5,1456C 2307.45,1468.67 2306.11,1481 2301.5,1493C 2301.83,1493.5 2302.17,1494 2302.5,1494.5C 2326.83,1488.33 2336.99,1497.66 2333,1522.5C 2332.28,1527.77 2330.12,1532.27 2326.5,1536C 2323.1,1538.04 2319.94,1537.87 2317,1535.5C 2315.81,1527.9 2315.14,1520.23 2315,1512.5C 2314.16,1511.38 2312.99,1510.71 2311.5,1510.5C 2305.79,1511.24 2300.46,1513.07 2295.5,1516C 2292.28,1520.79 2289.28,1525.63 2286.5,1530.5C 2275.45,1533.05 2270.95,1528.72 2273,1517.5C 2274.67,1512.81 2277.34,1508.81 2281,1505.5C 2283.3,1500.94 2284.96,1496.27 2286,1491.5C 2283.35,1493.05 2280.51,1494.22 2277.5,1495C 2269.51,1495.5 2261.51,1495.67 2253.5,1495.5C 2248.78,1514.77 2241.44,1532.94 2231.5,1550C 2226.9,1553.6 2221.9,1554.27 2216.5,1552C 2212.68,1546.81 2211.51,1540.97 2213,1534.5C 2219.42,1519.57 2225.26,1504.4 2230.5,1489C 2221.77,1484.88 2213.93,1479.38 2207,1472.5C 2203.04,1456.8 2208.87,1450.63 2224.5,1454C 2229.22,1457.2 2234.22,1459.53 2239.5,1461C 2243.73,1450.32 2247.56,1439.49 2251,1428.5C 2252.1,1427.05 2253.27,1425.72 2254.5,1424.5 Z"/></g>
<g><path style="opacity:0.829" fill="#000000" d="M 2417.5,1433.5 C 2431.66,1432.48 2436.83,1438.81 2433,1452.5C 2427.83,1457 2423,1461.83 2418.5,1467C 2401.47,1470.64 2395.64,1464.14 2401,1447.5C 2405.23,1441.09 2410.73,1436.42 2417.5,1433.5 Z"/></g>
<g><path style="opacity:0.821" fill="#000000" d="M 1416.5,1481.5 C 1418.79,1481.24 1420.96,1481.58 1423,1482.5C 1424.91,1497.18 1424.91,1511.85 1423,1526.5C 1420.81,1530.87 1417.81,1531.54 1414,1528.5C 1413.3,1526.72 1412.8,1524.89 1412.5,1523C 1413.28,1512.19 1413.78,1501.36 1414,1490.5C 1414.06,1487.19 1414.89,1484.19 1416.5,1481.5 Z"/></g>
<g><path style="opacity:0.689" fill="#000000" d="M 1995.5,1484.5 C 2000.26,1484.38 2004.6,1485.71 2008.5,1488.5C 2009.35,1490.41 2009.68,1492.41 2009.5,1494.5C 2004.14,1494.74 1998.81,1494.9 1993.5,1495C 1990.31,1490.62 1990.98,1487.12 1995.5,1484.5 Z"/></g>
<g><path style="opacity:0.839" fill="#000000" d="M 1860.5,1517.5 C 1867.25,1515.77 1871.25,1518.27 1872.5,1525C 1871.72,1535.48 1871.22,1545.98 1871,1556.5C 1869.34,1565.65 1867.17,1574.65 1864.5,1583.5C 1861.88,1583.77 1859.38,1583.44 1857,1582.5C 1856.67,1579.83 1856.33,1577.17 1856,1574.5C 1855.88,1557.17 1856.21,1539.83 1857,1522.5C 1858,1520.68 1859.16,1519.01 1860.5,1517.5 Z"/></g>
<g><path style="opacity:0.889" fill="#000000" d="M 2410.5,1529.5 C 2417.51,1529.33 2424.51,1529.5 2431.5,1530C 2437.23,1531.36 2442.73,1533.19 2448,1535.5C 2448.9,1538.03 2448.4,1540.19 2446.5,1542C 2438.82,1544.18 2431.15,1546.35 2423.5,1548.5C 2420.64,1563.72 2423.47,1577.72 2432,1590.5C 2435.24,1602.28 2430.74,1609.11 2418.5,1611C 2411.64,1612.03 2405.31,1610.7 2399.5,1607C 2388.98,1598.13 2383.15,1586.96 2382,1573.5C 2383.51,1571.12 2385.68,1570.12 2388.5,1570.5C 2393.08,1571.03 2397.41,1572.36 2401.5,1574.5C 2402.36,1571.86 2402.19,1569.19 2401,1566.5C 2400.33,1557.83 2400.33,1549.17 2401,1540.5C 2402.63,1535.38 2405.79,1531.72 2410.5,1529.5 Z"/></g>
<g><path style="opacity:0.826" fill="#000000" d="M 2369.5,1530.5 C 2377.19,1529.16 2381.19,1532.33 2381.5,1540C 2379.9,1555.14 2374.24,1568.47 2364.5,1580C 2361.97,1580.9 2359.81,1580.4 2358,1578.5C 2357.33,1574.17 2357.33,1569.83 2358,1565.5C 2362.83,1555.35 2365.83,1544.69 2367,1533.5C 2367.7,1532.31 2368.53,1531.31 2369.5,1530.5 Z"/></g>
<g><path style="opacity:0.869" fill="#000000" d="M 1953.5,1546.5 C 1956.19,1546.34 1958.85,1546.5 1961.5,1547C 1962.52,1547.52 1963.18,1548.35 1963.5,1549.5C 1964.74,1559.17 1964.57,1568.84 1963,1578.5C 1959.87,1593.81 1956.87,1609.14 1954,1624.5C 1953.12,1626.98 1951.62,1628.98 1949.5,1630.5C 1945.88,1631.66 1942.21,1631.83 1938.5,1631C 1936.35,1629.68 1934.85,1627.85 1934,1625.5C 1935.24,1599.22 1940.9,1573.88 1951,1549.5C 1952.04,1548.63 1952.88,1547.63 1953.5,1546.5 Z"/></g>
<g><path style="opacity:0.687" fill="#000000" d="M 589.5,1550.5 C 592.187,1550.34 594.854,1550.5 597.5,1551C 599.193,1554.22 601.027,1557.38 603,1560.5C 608.759,1576.87 613.259,1593.54 616.5,1610.5C 610.795,1610.31 607.295,1607.31 606,1601.5C 602.734,1589.04 599.067,1576.7 595,1564.5C 593.374,1561.87 591.374,1559.54 589,1557.5C 588.444,1555.12 588.61,1552.78 589.5,1550.5 Z"/></g>
<g><path style="opacity:0.901" fill="#000000" d="M 2003.5,1550.5 C 2012.97,1550.04 2022.3,1550.88 2031.5,1553C 2035.95,1555.78 2040.12,1558.95 2044,1562.5C 2044.5,1564.47 2044.66,1566.47 2044.5,1568.5C 2040.05,1570.89 2035.38,1573.06 2030.5,1575C 2024.12,1575.76 2017.79,1576.76 2011.5,1578C 2005.3,1581.23 2002.63,1586.4 2003.5,1593.5C 2003.71,1597 2004.54,1600.33 2006,1603.5C 2008.33,1606.83 2010.67,1610.17 2013,1613.5C 2018.38,1618.54 2024.04,1623.21 2030,1627.5C 2038.7,1642.29 2035.53,1653.46 2020.5,1661C 2003.58,1666.52 1986.58,1666.86 1969.5,1662C 1960.95,1656.01 1959.29,1648.51 1964.5,1639.5C 1966.27,1638.91 1968.11,1638.58 1970,1638.5C 1986.15,1641.7 2002.32,1643.04 2018.5,1642.5C 2018.65,1641.45 2018.48,1640.45 2018,1639.5C 2010.81,1633.32 2002.65,1628.82 1993.5,1626C 1979.53,1616.65 1973.53,1603.48 1975.5,1586.5C 1977.03,1568.31 1986.37,1556.31 2003.5,1550.5 Z"/></g>
<g><path style="opacity:0.787" fill="#000000" d="M 1402.5,1575.5 C 1404.14,1575.29 1405.64,1575.62 1407,1576.5C 1408.31,1580.21 1409.15,1584.04 1409.5,1588C 1408.21,1592.83 1408.21,1597.66 1409.5,1602.5C 1407.58,1615.28 1405.08,1627.94 1402,1640.5C 1399.38,1646.91 1395.88,1652.75 1391.5,1658C 1389.19,1658.5 1386.86,1658.66 1384.5,1658.5C 1384.66,1656.8 1384.49,1655.13 1384,1653.5C 1374.5,1663.33 1365,1673.17 1355.5,1683C 1348.71,1689.36 1340.71,1692.36 1331.5,1692C 1330.25,1689.79 1330.42,1687.62 1332,1685.5C 1348.14,1669.03 1364.64,1652.86 1381.5,1637C 1387.36,1635.19 1389.86,1637.35 1389,1643.5C 1393.31,1627.67 1396.97,1611.67 1400,1595.5C 1400.01,1588.67 1400.84,1582 1402.5,1575.5 Z"/></g>
<g><path style="opacity:0.845" fill="#000000" d="M 2138.5,1591.5 C 2142.6,1591.23 2146.6,1591.73 2150.5,1593C 2156.42,1598.09 2155.75,1601.42 2148.5,1603C 2146.71,1603.78 2145.21,1604.95 2144,1606.5C 2137.91,1617.38 2134.41,1628.88 2133.5,1641C 2138.2,1643.68 2142.87,1646.35 2147.5,1649C 2148.58,1650.73 2148.74,1652.56 2148,1654.5C 2141.27,1658.13 2134.1,1660.47 2126.5,1661.5C 2120.16,1677.01 2113.16,1692.18 2105.5,1707C 2103.53,1707.5 2101.53,1707.66 2099.5,1707.5C 2099.33,1704.15 2099.5,1700.82 2100,1697.5C 2104.55,1684.36 2108.38,1671.03 2111.5,1657.5C 2103.93,1656.42 2097.26,1653.42 2091.5,1648.5C 2087.23,1639.1 2090.06,1633.43 2100,1631.5C 2105.65,1632.66 2111.15,1634.33 2116.5,1636.5C 2119.67,1623.16 2124.5,1610.5 2131,1598.5C 2133.4,1595.93 2135.9,1593.6 2138.5,1591.5 Z"/></g>
<g><path style="opacity:0.77" fill="#000000" d="M 1870.5,1604.5 C 1872.53,1604.34 1874.53,1604.5 1876.5,1605C 1877.13,1605.75 1877.63,1606.58 1878,1607.5C 1878.85,1614.9 1878.51,1622.23 1877,1629.5C 1871.02,1643.62 1863.86,1657.12 1855.5,1670C 1852.14,1671.29 1850.14,1670.29 1849.5,1667C 1853.23,1652.02 1859.07,1637.86 1867,1624.5C 1868.5,1617.85 1869.66,1611.19 1870.5,1604.5 Z"/></g>
<g><path style="opacity:0.903" fill="#000000" d="M 2165.5,1610.5 C 2169.08,1610.21 2172.24,1611.21 2175,1613.5C 2176.14,1618.08 2176.81,1622.75 2177,1627.5C 2188.47,1619.19 2201.3,1616.02 2215.5,1618C 2226.82,1618.73 2234.65,1624.23 2239,1634.5C 2238.72,1645.28 2236.39,1655.61 2232,1665.5C 2223.74,1674.55 2213.58,1680.38 2201.5,1683C 2195.95,1684.68 2190.28,1685.51 2184.5,1685.5C 2184.88,1689.6 2186.38,1693.27 2189,1696.5C 2193.62,1699.6 2198.62,1701.93 2204,1703.5C 2207.25,1701.87 2210.75,1701.2 2214.5,1701.5C 2214.42,1708.16 2211.75,1713.66 2206.5,1718C 2193.22,1728.44 2180.39,1727.94 2168,1716.5C 2160.91,1707.73 2156.41,1697.73 2154.5,1686.5C 2150.68,1691.16 2146.34,1695.32 2141.5,1699C 2131.66,1699.81 2128.83,1695.65 2133,1686.5C 2142.22,1676.6 2149.89,1665.6 2156,1653.5C 2159.78,1641.13 2161.45,1628.47 2161,1615.5C 2162.02,1613.31 2163.52,1611.65 2165.5,1610.5 Z M 2202.5,1646.5 C 2208.51,1646.33 2214.51,1646.5 2220.5,1647C 2222.04,1654.51 2219.37,1660.17 2212.5,1664C 2203.26,1668.36 2193.59,1671.19 2183.5,1672.5C 2184.05,1659.34 2190.38,1650.67 2202.5,1646.5 Z"/></g>
<g><path style="opacity:0.786" fill="#000000" d="M 625.5,1628.5 C 631.549,1627.05 635.049,1629.39 636,1635.5C 641.712,1648.57 644.212,1662.23 643.5,1676.5C 641.167,1676.5 638.833,1676.5 636.5,1676.5C 630.943,1664.64 626.443,1652.31 623,1639.5C 622.333,1636.5 622.333,1633.5 623,1630.5C 623.995,1629.93 624.828,1629.27 625.5,1628.5 Z"/></g>
<g><path style="opacity:0.867" fill="#000000" d="M 1306.5,1682.5 C 1310.18,1682.33 1313.85,1682.5 1317.5,1683C 1319.19,1686.53 1318.52,1689.53 1315.5,1692C 1310.22,1696.21 1304.22,1698.87 1297.5,1700C 1280.28,1702.12 1263.11,1704.62 1246,1707.5C 1241.85,1707.55 1240.52,1705.55 1242,1701.5C 1246.24,1697.96 1250.74,1694.8 1255.5,1692C 1272.56,1688.43 1289.56,1685.26 1306.5,1682.5 Z"/></g>
<g><path style="opacity:0.847" fill="#000000" d="M 1202.5,1699.5 C 1209.38,1698.59 1215.71,1699.93 1221.5,1703.5C 1222.49,1706.77 1222.82,1710.1 1222.5,1713.5C 1215.83,1713.89 1209.16,1714.39 1202.5,1715C 1191.4,1717.88 1180.74,1721.88 1170.5,1727C 1166.18,1727.76 1161.85,1728.43 1157.5,1729C 1154.07,1739.11 1148.24,1747.61 1140,1754.5C 1138.88,1757.89 1137.38,1761.06 1135.5,1764C 1134.17,1764.67 1132.83,1764.67 1131.5,1764C 1129.46,1749.51 1132.3,1736.01 1140,1723.5C 1142.29,1720.42 1144.46,1717.25 1146.5,1714C 1152.29,1712.01 1156.12,1713.84 1158,1719.5C 1162.56,1715.13 1167.73,1711.63 1173.5,1709C 1183.11,1705.3 1192.77,1702.13 1202.5,1699.5 Z"/></g>
<g><path style="opacity:0.78" fill="#000000" d="M 1858.5,1714.5 C 1860.47,1714.26 1862.3,1714.59 1864,1715.5C 1865.26,1723.47 1865.6,1731.47 1865,1739.5C 1861.26,1748.65 1857.26,1757.65 1853,1766.5C 1850.94,1767.59 1848.77,1767.76 1846.5,1767C 1845.38,1763.59 1845.21,1760.09 1846,1756.5C 1848.17,1749.98 1850.84,1743.65 1854,1737.5C 1855.29,1730.55 1856.29,1723.55 1857,1716.5C 1857.72,1715.96 1858.22,1715.29 1858.5,1714.5 Z"/></g>
<g><path style="opacity:0.782" fill="#000000" d="M 658.5,1724.5 C 660.722,1724.18 662.556,1724.84 664,1726.5C 664.723,1731.9 665.723,1737.23 667,1742.5C 679.504,1762.33 685.671,1783.83 685.5,1807C 682.173,1807.97 680.007,1806.8 679,1803.5C 673.554,1782.61 665.887,1762.61 656,1743.5C 654.831,1736.79 655.664,1730.46 658.5,1724.5 Z"/></g>
<g><path style="opacity:0.899" fill="#000000" d="M 1927.5,1733.5 C 1960.09,1731.71 1985.26,1744.38 2003,1771.5C 2005,1776.17 2007,1780.83 2009,1785.5C 2019.1,1782.81 2028.1,1784.81 2036,1791.5C 2036.5,1793.81 2036.66,1796.14 2036.5,1798.5C 2026.65,1797.84 2018.15,1800.84 2011,1807.5C 2009.88,1812.7 2007.72,1817.37 2004.5,1821.5C 2011.23,1824.96 2018.23,1825.79 2025.5,1824C 2031.45,1822.03 2036.78,1819.03 2041.5,1815C 2044.06,1812.56 2046.39,1809.89 2048.5,1807C 2057.17,1803.97 2062,1807.13 2063,1816.5C 2063.58,1825.1 2062.25,1833.43 2059,1841.5C 2056.37,1849.06 2051.2,1851.56 2043.5,1849C 2042,1847.5 2040.5,1846 2039,1844.5C 2037.99,1839.21 2037.16,1833.88 2036.5,1828.5C 2025.53,1837.37 2013.03,1842.7 1999,1844.5C 1992.46,1844.44 1986.3,1842.94 1980.5,1840C 1978.26,1838.26 1976.59,1836.09 1975.5,1833.5C 1965.47,1832.87 1955.47,1832.03 1945.5,1831C 1933.77,1827.3 1928.6,1819.47 1930,1807.5C 1931.85,1801 1936.01,1798.84 1942.5,1801C 1943.17,1802 1943.83,1803 1944.5,1804C 1955.25,1807.37 1966.25,1808.37 1977.5,1807C 1980.26,1802.8 1983.26,1798.8 1986.5,1795C 1982.23,1782.06 1974.23,1772.06 1962.5,1765C 1952.58,1758.9 1941.92,1756.73 1930.5,1758.5C 1929.81,1759.03 1929.31,1759.69 1929,1760.5C 1928.36,1778.72 1926.02,1796.72 1922,1814.5C 1917.11,1833.73 1911.44,1852.73 1905,1871.5C 1901.11,1877.96 1895.94,1879.12 1889.5,1875C 1887.5,1870.73 1887,1866.23 1888,1861.5C 1893.3,1847.59 1897.8,1833.42 1901.5,1819C 1898.76,1797.88 1896.93,1776.72 1896,1755.5C 1897.89,1748.61 1901.73,1743.11 1907.5,1739C 1913.99,1735.99 1920.66,1734.16 1927.5,1733.5 Z"/></g>
<g><path style="opacity:0.858" fill="#000000" d="M 1575.5,1747.5 C 1604.84,1747.75 1634.17,1748.25 1663.5,1749C 1688.33,1749.94 1711,1757.28 1731.5,1771C 1748.06,1783.9 1759.56,1800.4 1766,1820.5C 1776.88,1848.98 1781.71,1878.48 1780.5,1909C 1780.79,1929.37 1778.95,1949.54 1775,1969.5C 1770.83,1987.72 1761.99,2003.22 1748.5,2016C 1729.34,2032.58 1707.34,2043.91 1682.5,2050C 1657.33,2057.17 1631.66,2060.5 1605.5,2060C 1550.23,2061.79 1495.23,2058.79 1440.5,2051C 1411.41,2046.98 1383.08,2039.98 1355.5,2030C 1293.45,2004.39 1271.62,1958.89 1290,1893.5C 1298.35,1859.83 1317.85,1835 1348.5,1819C 1379.23,1803.2 1411.23,1790.53 1444.5,1781C 1460.11,1778.12 1475.78,1777.79 1491.5,1780C 1500.48,1781.46 1509.48,1782.8 1518.5,1784C 1520.73,1786.02 1521.06,1788.36 1519.5,1791C 1516.96,1792.05 1514.29,1792.55 1511.5,1792.5C 1499.71,1790.78 1487.87,1789.45 1476,1788.5C 1455.68,1788.79 1436.18,1792.95 1417.5,1801C 1391.58,1810.75 1366.58,1822.42 1342.5,1836C 1314.46,1856.56 1299.29,1884.4 1297,1919.5C 1291.19,1965.38 1309.35,1997.55 1351.5,2016C 1388.77,2030.92 1427.43,2040.26 1467.5,2044C 1487.45,2046.33 1507.45,2048 1527.5,2049C 1561.17,2049.67 1594.83,2049.67 1628.5,2049C 1660.55,2046.07 1690.88,2037.41 1719.5,2023C 1747.24,2006.05 1762.74,1981.22 1766,1948.5C 1767.54,1927.53 1767.87,1906.53 1767,1885.5C 1764.56,1855.85 1755.89,1828.18 1741,1802.5C 1729.73,1785.9 1714.23,1775.73 1694.5,1772C 1684.9,1770.41 1675.23,1769.41 1665.5,1769C 1641.99,1767.96 1618.49,1767.79 1595,1768.5C 1575.45,1768.13 1555.95,1767.3 1536.5,1766C 1529.59,1764.45 1526.76,1760.28 1528,1753.5C 1528.5,1751.67 1529.67,1750.5 1531.5,1750C 1546.27,1748.88 1560.94,1748.05 1575.5,1747.5 Z"/></g>
<g><path style="opacity:0.892" fill="#000000" d="M 2098.5,1775.5 C 2101.93,1775.11 2105.1,1775.77 2108,1777.5C 2111.82,1791.68 2112.15,1806.01 2109,1820.5C 2107.42,1826.9 2105.26,1833.07 2102.5,1839C 2110.63,1843.66 2116.96,1842 2121.5,1834C 2123.11,1833.28 2124.61,1833.45 2126,1834.5C 2128.8,1828.77 2130.8,1822.77 2132,1816.5C 2132.93,1805.8 2134.1,1795.13 2135.5,1784.5C 2139.38,1781.88 2143.21,1781.88 2147,1784.5C 2153.13,1801.57 2152.96,1818.57 2146.5,1835.5C 2158.66,1833.73 2168.16,1838.06 2175,1848.5C 2183.38,1863.08 2186.38,1878.74 2184,1895.5C 2180.97,1903.74 2175.13,1906.91 2166.5,1905C 2162.03,1903.19 2158.86,1900.03 2157,1895.5C 2157.17,1885.5 2155.5,1875.84 2152,1866.5C 2150.64,1863.64 2148.47,1861.64 2145.5,1860.5C 2137.26,1862.08 2132.6,1866.91 2131.5,1875C 2125.68,1881.69 2119.34,1882.19 2112.5,1876.5C 2111.75,1875.62 2111.25,1874.62 2111,1873.5C 2110.6,1868.23 2110.43,1863.23 2110.5,1858.5C 2105,1860.46 2099.34,1861.62 2093.5,1862C 2091.48,1868.57 2087.48,1873.4 2081.5,1876.5C 2079.63,1876.61 2078.13,1875.94 2077,1874.5C 2076.03,1868.37 2076.86,1862.54 2079.5,1857C 2073.24,1852.74 2068.4,1847.24 2065,1840.5C 2064.22,1829.29 2069.38,1824.79 2080.5,1827C 2082.91,1827.75 2085.08,1828.91 2087,1830.5C 2087.5,1830.17 2088,1829.83 2088.5,1829.5C 2091.25,1822.4 2093.09,1815.07 2094,1807.5C 2094.18,1798.12 2094.85,1788.79 2096,1779.5C 2097.09,1778.31 2097.93,1776.97 2098.5,1775.5 Z"/></g>
<g><path style="opacity:0.781" fill="#000000" d="M 1126.5,1776.5 C 1128.53,1776.34 1130.53,1776.5 1132.5,1777C 1133.19,1778.07 1133.69,1779.23 1134,1780.5C 1134.9,1793.55 1134.57,1806.55 1133,1819.5C 1130.48,1822.33 1128.48,1821.99 1127,1818.5C 1124.18,1804.46 1124.01,1790.46 1126.5,1776.5 Z"/></g>
<g><path style="opacity:0.907" fill="#000000" d="M 2337.5,1785.5 C 2353.14,1783.96 2358.64,1790.63 2354,1805.5C 2318.02,1844.47 2284.68,1885.47 2254,1928.5C 2251.17,1931.33 2248.33,1934.17 2245.5,1937C 2238.5,1939.82 2232.33,1938.65 2227,1933.5C 2224.45,1925.66 2225.45,1918.33 2230,1911.5C 2251.67,1883.5 2273.33,1855.5 2295,1827.5C 2305.5,1816.33 2316,1805.17 2326.5,1794C 2330.09,1790.89 2333.76,1788.06 2337.5,1785.5 Z"/></g>
<g><path style="opacity:0.785" fill="#000000" d="M 1852.5,1795.5 C 1855.08,1795.08 1857.25,1795.75 1859,1797.5C 1859.67,1803.83 1859.67,1810.17 1859,1816.5C 1856.46,1821.76 1853.29,1826.59 1849.5,1831C 1847.19,1831.5 1844.86,1831.66 1842.5,1831.5C 1841.29,1824.53 1843.12,1818.53 1848,1813.5C 1849.13,1809.25 1849.79,1804.92 1850,1800.5C 1850.85,1798.81 1851.68,1797.14 1852.5,1795.5 Z"/></g>
<g><path style="opacity:0.742" fill="#000000" d="M 700.5,1819.5 C 704.192,1818.97 707.358,1819.97 710,1822.5C 711.139,1826.11 712.806,1829.45 715,1832.5C 720.911,1839.99 726.577,1847.66 732,1855.5C 733.237,1859.06 733.737,1862.73 733.5,1866.5C 731.396,1866.8 729.396,1866.47 727.5,1865.5C 725.525,1862.39 723.192,1859.56 720.5,1857C 710.861,1850.25 703.694,1841.42 699,1830.5C 698.013,1826.53 698.513,1822.86 700.5,1819.5 Z"/></g>
<g><path style="opacity:0.828" fill="#000000" d="M 1127.5,1832.5 C 1130.27,1832.22 1132.77,1832.89 1135,1834.5C 1137.14,1848.3 1137.98,1862.14 1137.5,1876C 1138.99,1881.39 1139.82,1886.89 1140,1892.5C 1148.39,1906.74 1151.73,1922.07 1150,1938.5C 1149.63,1939.42 1149.13,1940.25 1148.5,1941C 1145.12,1941.82 1141.78,1941.66 1138.5,1940.5C 1137.9,1939.21 1137.4,1937.87 1137,1936.5C 1137.23,1927.18 1137.23,1917.84 1137,1908.5C 1133.67,1896.52 1130.34,1884.52 1127,1872.5C 1124.82,1859.91 1124.15,1847.24 1125,1834.5C 1125.99,1833.93 1126.83,1833.27 1127.5,1832.5 Z"/></g>
<g><path style="opacity:0.793" fill="#000000" d="M 1833.5,1880.5 C 1835.5,1880.5 1837.5,1880.5 1839.5,1880.5C 1838.83,1890.38 1836.99,1900.05 1834,1909.5C 1829.74,1919.95 1826.07,1930.62 1823,1941.5C 1820.79,1946.67 1817.45,1947.67 1813,1944.5C 1812.33,1939.83 1812.33,1935.17 1813,1930.5C 1817.94,1912.96 1824.78,1896.29 1833.5,1880.5 Z"/></g>
<g><path style="opacity:0.889" fill="#000000" d="M 1914.5,1881.5 C 1930.25,1880.15 1945.58,1881.98 1960.5,1887C 1962.24,1888.62 1964.07,1890.12 1966,1891.5C 1967.92,1897.38 1966.09,1901.55 1960.5,1904C 1949.22,1908.21 1937.56,1910.05 1925.5,1909.5C 1930.46,1917.42 1934.96,1925.75 1939,1934.5C 1940.76,1937.02 1942.76,1939.35 1945,1941.5C 1948.98,1948.46 1952.15,1955.8 1954.5,1963.5C 1960.26,1952.24 1968.59,1943.41 1979.5,1937C 1983.31,1935.23 1987.31,1934.4 1991.5,1934.5C 2000.88,1935.35 2010.22,1936.51 2019.5,1938C 2033.74,1943.91 2042.57,1954.41 2046,1969.5C 2047.48,1999.38 2035.64,2022.22 2010.5,2038C 2004.41,2040.56 1998.07,2042.06 1991.5,2042.5C 1988.44,2063.05 1984.61,2083.39 1980,2103.5C 1988.59,2108.88 1997.09,2114.38 2005.5,2120C 2012.18,2126.18 2017.52,2133.35 2021.5,2141.5C 2024.67,2139.91 2028,2138.91 2031.5,2138.5C 2035.49,2139.68 2039.49,2140.51 2043.5,2141C 2041.54,2129.3 2046.54,2124.63 2058.5,2127C 2073.57,2133.92 2081.23,2145.76 2081.5,2162.5C 2082.5,2175.01 2078.5,2185.51 2069.5,2194C 2053.46,2208.35 2034.8,2214.01 2013.5,2211C 2002.56,2206.06 1997.89,2197.56 1999.5,2185.5C 1998.81,2170.9 2003.31,2158.23 2013,2147.5C 2012.05,2144.2 2009.89,2141.7 2006.5,2140C 1994.84,2134.33 1983.67,2127.83 1973,2120.5C 1970.36,2127.11 1967.19,2133.45 1963.5,2139.5C 1953.23,2142.63 1947.73,2138.96 1947,2128.5C 1949.23,2127.81 1951.4,2127.48 1953.5,2127.5C 1955.5,2122.17 1957.5,2116.83 1959.5,2111.5C 1955.49,2107.49 1951.15,2103.82 1946.5,2100.5C 1944.01,2093.49 1946.51,2089.82 1954,2089.5C 1958.14,2089.94 1961.97,2091.27 1965.5,2093.5C 1974.67,2078.85 1980.51,2062.85 1983,2045.5C 1983.5,2043.67 1984.67,2042.5 1986.5,2042C 1965.25,2038.75 1952.42,2026.58 1948,2005.5C 1947.41,1998.42 1947.41,1991.42 1948,1984.5C 1925.11,1994.2 1901.61,1996.03 1877.5,1990C 1868.66,1982.3 1868.32,1974.3 1876.5,1966C 1879.45,1964.35 1882.62,1963.52 1886,1963.5C 1896.46,1965.03 1906.96,1966.2 1917.5,1967C 1924.64,1967.86 1931.64,1969.36 1938.5,1971.5C 1940.45,1970.84 1942.45,1970.51 1944.5,1970.5C 1944.08,1965.81 1942.58,1961.48 1940,1957.5C 1935.17,1954 1931,1949.83 1927.5,1945C 1917.71,1940.68 1909.21,1934.51 1902,1926.5C 1896.33,1916.77 1894.99,1906.44 1898,1895.5C 1901.58,1888.4 1907.08,1883.74 1914.5,1881.5 Z M 1999.5,1951.5 C 2004.94,1958.35 2011.11,1964.69 2018,1970.5C 2024.16,1981.48 2023.83,1992.15 2017,2002.5C 2012.76,2007.41 2007.92,2011.58 2002.5,2015C 1985.2,2018.71 1976.2,2011.88 1975.5,1994.5C 1975.87,1985 1978.71,1976.33 1984,1968.5C 1989.05,1962.62 1994.22,1956.95 1999.5,1951.5 Z M 2045.5,2144.5 C 2049.13,2148.31 2052.63,2152.31 2056,2156.5C 2059.51,2165.76 2057.68,2173.59 2050.5,2180C 2043.86,2185.81 2036.2,2187.81 2027.5,2186C 2027.11,2174.92 2028.95,2164.09 2033,2153.5C 2036.64,2150.6 2040.81,2149.27 2045.5,2149.5C 2045.5,2147.83 2045.5,2146.17 2045.5,2144.5 Z"/></g>
<g><path style="opacity:0.881" fill="#000000" d="M 2082.5,1918.5 C 2093.62,1917.41 2098.46,1922.41 2097,1933.5C 2094.36,1941.4 2092.03,1949.4 2090,1957.5C 2083.82,1988.42 2078.15,2019.42 2073,2050.5C 2071.63,2054.13 2069.8,2057.47 2067.5,2060.5C 2064.17,2061.83 2060.83,2061.83 2057.5,2060.5C 2055.47,2057.78 2053.97,2054.78 2053,2051.5C 2052.24,2041.46 2052.58,2031.46 2054,2021.5C 2058.18,1993.61 2063.51,1965.94 2070,1938.5C 2071.72,1933.39 2073.72,1928.39 2076,1923.5C 2077.8,1921.17 2079.97,1919.51 2082.5,1918.5 Z"/></g>
<g><path style="opacity:0.715" fill="#000000" d="M 776.5,1927.5 C 778.199,1927.34 779.866,1927.51 781.5,1928C 790.498,1936.01 796.664,1945.84 800,1957.5C 800.667,1960.83 800.667,1964.17 800,1967.5C 797.598,1970.26 795.598,1969.92 794,1966.5C 791.804,1961.58 789.804,1956.58 788,1951.5C 783.667,1945.83 779.333,1940.17 775,1934.5C 774.167,1931.83 774.667,1929.5 776.5,1927.5 Z"/></g>
<g><path style="opacity:0.875" fill="#000000" d="M 2222.5,1945.5 C 2230.19,1944.63 2233.19,1948.13 2231.5,1956C 2230.76,1974.96 2227.09,1993.29 2220.5,2011C 2227.46,2012.82 2234.46,2014.49 2241.5,2016C 2247,2018.91 2252.33,2022.08 2257.5,2025.5C 2258.83,2022.18 2260.17,2018.84 2261.5,2015.5C 2265.01,2013.03 2268.68,2012.86 2272.5,2015C 2274.97,2019.71 2275.13,2024.55 2273,2029.5C 2267.98,2046.6 2263.98,2063.93 2261,2081.5C 2259.13,2088.62 2255.46,2089.95 2250,2085.5C 2248.44,2081.99 2247.61,2078.33 2247.5,2074.5C 2248.63,2061.18 2251.3,2048.18 2255.5,2035.5C 2253.72,2033.77 2251.72,2032.27 2249.5,2031C 2238.6,2030 2227.77,2028.5 2217,2026.5C 2215.52,2027.44 2214.52,2028.78 2214,2030.5C 2211.33,2038.51 2208.66,2046.51 2206,2054.5C 2203.23,2063.29 2197.4,2067.12 2188.5,2066C 2182.33,2059.2 2180.83,2051.37 2184,2042.5C 2186,2034.99 2188.5,2027.66 2191.5,2020.5C 2189.51,2017.11 2189.01,2013.44 2190,2009.5C 2191.67,2007.37 2193.83,2006.04 2196.5,2005.5C 2203.06,1988.04 2209.9,1970.71 2217,1953.5C 2218.13,1950.21 2219.96,1947.54 2222.5,1945.5 Z"/></g>
<g><path style="opacity:0.796" fill="#000000" d="M 1820.5,1964.5 C 1822.79,1964.24 1824.96,1964.58 1827,1965.5C 1827.67,1972.17 1827.67,1978.83 1827,1985.5C 1820.28,2002.61 1813.28,2019.61 1806,2036.5C 1804.25,2041 1801.75,2045 1798.5,2048.5C 1791.8,2066.58 1782.96,2083.58 1772,2099.5C 1767.42,2104.07 1762.25,2107.91 1756.5,2111C 1753.5,2111.67 1750.5,2111.67 1747.5,2111C 1746.45,2109.61 1746.28,2108.11 1747,2106.5C 1753.35,2100.81 1759.02,2094.48 1764,2087.5C 1771.39,2073.86 1779.89,2061.03 1789.5,2049C 1788.75,2041.32 1789.92,2033.82 1793,2026.5C 1798.69,2011.46 1805.69,1997.13 1814,1983.5C 1816.63,1977.3 1818.8,1970.97 1820.5,1964.5 Z"/></g>
<g><path style="opacity:0.807" fill="#000000" d="M 1133.5,1970.5 C 1135.79,1970.24 1137.96,1970.58 1140,1971.5C 1140.85,1980.85 1141.85,1990.19 1143,1999.5C 1143.83,2005.53 1143.66,2011.53 1142.5,2017.5C 1133.4,2021.75 1129.06,2018.75 1129.5,2008.5C 1130.16,1998.84 1130.66,1989.18 1131,1979.5C 1131.2,1976.28 1132.03,1973.28 1133.5,1970.5 Z"/></g>
<g><path style="opacity:0.878" fill="#000000" d="M 2109.5,1975.5 C 2112.19,1975.34 2114.85,1975.5 2117.5,1976C 2119.64,1978.18 2119.97,1980.68 2118.5,1983.5C 2116.39,1984.03 2114.55,1985.03 2113,1986.5C 2110.07,2003.53 2110.41,2020.53 2114,2037.5C 2121.52,2031.74 2128.85,2025.74 2136,2019.5C 2137.67,2013.84 2139.33,2008.18 2141,2002.5C 2148.67,1994.5 2156.33,1994.5 2164,2002.5C 2166.41,2008.61 2167.08,2014.95 2166,2021.5C 2162.46,2032.45 2159.13,2043.45 2156,2054.5C 2148.96,2062.05 2141.63,2062.38 2134,2055.5C 2132.47,2051.91 2131.14,2048.24 2130,2044.5C 2125.61,2050.23 2120.11,2054.4 2113.5,2057C 2109.5,2057.67 2105.5,2057.67 2101.5,2057C 2098.8,2056.31 2096.64,2054.81 2095,2052.5C 2093.42,2043.24 2093.08,2033.91 2094,2024.5C 2095.73,2012.88 2097.06,2001.21 2098,1989.5C 2099.27,1982.58 2103.1,1977.92 2109.5,1975.5 Z"/></g>
<g><path style="opacity:0.866" fill="#000000" d="M 2304.5,1985.5 C 2306.92,1985.29 2309.25,1985.63 2311.5,1986.5C 2312.17,1988.83 2312.83,1991.17 2313.5,1993.5C 2320.43,1997.93 2326.6,2003.26 2332,2009.5C 2332.67,2012.17 2332.67,2014.83 2332,2017.5C 2329.46,2019.7 2327.29,2022.2 2325.5,2025C 2338.29,2022.15 2348.45,2025.98 2356,2036.5C 2360.4,2062.62 2351.9,2083.46 2330.5,2099C 2292.53,2116.99 2277.03,2105.49 2284,2064.5C 2290.25,2042.61 2301.75,2024.11 2318.5,2009C 2313.57,2004.62 2308.74,2000.12 2304,1995.5C 2301.87,1991.98 2302.04,1988.64 2304.5,1985.5 Z M 2320.5,2032.5 C 2321.1,2036.43 2322.76,2039.93 2325.5,2043C 2331.04,2044.4 2336.21,2046.57 2341,2049.5C 2343.62,2057.69 2342.62,2065.36 2338,2072.5C 2332.98,2078.86 2326.81,2083.69 2319.5,2087C 2315.14,2087.53 2310.81,2087.37 2306.5,2086.5C 2305.86,2067.06 2310.53,2049.06 2320.5,2032.5 Z"/></g>
<g><path style="opacity:0.751" fill="#000000" d="M 809.5,1996.5 C 812.93,1996.11 816.096,1996.77 819,1998.5C 819.711,2000.9 819.544,2003.23 818.5,2005.5C 828.534,2023.04 838.367,2040.71 848,2058.5C 851.394,2066.68 854.394,2075.01 857,2083.5C 857.498,2086.48 857.665,2089.48 857.5,2092.5C 855.208,2092.76 853.041,2092.42 851,2091.5C 847.803,2083.58 844.803,2075.58 842,2067.5C 831.368,2047.23 820.368,2027.23 809,2007.5C 808.245,2003.74 808.411,2000.08 809.5,1996.5 Z"/></g>
<g><path style="opacity:0.889" fill="#000000" d="M 2380.5,2049.5 C 2382.47,2049.26 2384.3,2049.59 2386,2050.5C 2386.5,2053 2387,2055.5 2387.5,2058C 2386.57,2061.14 2386.41,2064.31 2387,2067.5C 2399.24,2060.65 2412.08,2059.15 2425.5,2063C 2431.27,2067.11 2435.11,2072.61 2437,2079.5C 2438.49,2090.46 2438.82,2101.46 2438,2112.5C 2435.61,2125.91 2427.78,2132.08 2414.5,2131C 2409.06,2128.84 2406.4,2124.84 2406.5,2119C 2409.16,2108.7 2410.16,2098.2 2409.5,2087.5C 2406.69,2087.83 2404.02,2088.66 2401.5,2090C 2386.78,2099.05 2375.12,2111.05 2366.5,2126C 2349.58,2130.08 2343.41,2123.58 2348,2106.5C 2350.08,2102.66 2352.42,2099 2355,2095.5C 2364.02,2087.13 2371.35,2077.46 2377,2066.5C 2377.84,2060.72 2379.01,2055.05 2380.5,2049.5 Z"/></g>
<g><path style="opacity:0.875" fill="#000000" d="M 1062.5,2050.5 C 1137.58,2049.98 1212.58,2052.14 1287.5,2057C 1311.29,2058.43 1334.29,2063.43 1356.5,2072C 1383.5,2084.34 1401.33,2104.84 1410,2133.5C 1412.79,2141.64 1414.79,2149.98 1416,2158.5C 1417.93,2192.16 1417.93,2225.83 1416,2259.5C 1415.42,2272.75 1412.42,2285.41 1407,2297.5C 1398.75,2313.67 1388.75,2328.67 1377,2342.5C 1361.78,2366.38 1345.78,2389.72 1329,2412.5C 1324.13,2417.7 1318.97,2422.53 1313.5,2427C 1308.77,2429.47 1303.77,2431.13 1298.5,2432C 1227.86,2431.34 1158.52,2421.34 1090.5,2402C 1048.77,2389.63 1009.77,2371.63 973.5,2348C 955.735,2335.53 940.235,2320.7 927,2303.5C 909.074,2279.13 902.074,2251.8 906,2221.5C 909.706,2188.14 924.873,2161.31 951.5,2141C 994.435,2110.02 1042.1,2099.69 1094.5,2110C 1108.83,2113 1123.17,2116 1137.5,2119C 1139.25,2120.29 1141.08,2121.46 1143,2122.5C 1143.5,2124.47 1143.66,2126.47 1143.5,2128.5C 1122.59,2124.35 1101.59,2120.52 1080.5,2117C 1032.88,2112.55 990.542,2125.21 953.5,2155C 923.091,2182.68 911.591,2216.85 919,2257.5C 928.918,2287.59 946.752,2311.93 972.5,2330.5C 973.903,2313.18 975.07,2295.85 976,2278.5C 977.357,2263.4 981.357,2249.07 988,2235.5C 997.573,2221.75 1010.74,2215.91 1027.5,2218C 1029.84,2218.84 1031.84,2220.17 1033.5,2222C 1045.79,2224.62 1054.95,2231.45 1061,2242.5C 1061.5,2245.82 1061.67,2249.15 1061.5,2252.5C 1060.02,2252.76 1058.69,2252.43 1057.5,2251.5C 1053.64,2245.48 1048.64,2240.64 1042.5,2237C 1037.78,2235.62 1033.78,2236.62 1030.5,2240C 1023.36,2240.88 1017.2,2243.71 1012,2248.5C 1008.6,2255.19 1006.1,2262.19 1004.5,2269.5C 1014.29,2269.02 1023.96,2269.86 1033.5,2272C 1038.37,2274.61 1042.71,2277.94 1046.5,2282C 1048.35,2283.13 1050.35,2283.63 1052.5,2283.5C 1051.6,2277.4 1054.26,2274.4 1060.5,2274.5C 1067.95,2275.46 1074.45,2278.46 1080,2283.5C 1087.26,2271.52 1097.76,2267.35 1111.5,2271C 1117.35,2271.23 1121.35,2273.9 1123.5,2279C 1123.55,2283.15 1121.55,2284.48 1117.5,2283C 1115.99,2282.15 1114.49,2281.32 1113,2280.5C 1108.46,2281.12 1103.96,2281.95 1099.5,2283C 1098.07,2283.47 1096.9,2284.3 1096,2285.5C 1094.63,2288.41 1093.13,2291.25 1091.5,2294C 1094.18,2296.19 1095.68,2299.03 1096,2302.5C 1097.24,2311.41 1096.41,2320.08 1093.5,2328.5C 1100.89,2337.64 1110.56,2341.97 1122.5,2341.5C 1132.31,2342 1140.81,2339 1148,2332.5C 1150.51,2329.18 1151.51,2325.51 1151,2321.5C 1147.7,2318.43 1143.87,2316.27 1139.5,2315C 1129.22,2312.77 1118.88,2310.94 1108.5,2309.5C 1104.22,2300.42 1107.22,2296.08 1117.5,2296.5C 1130.86,2296.72 1143.52,2299.72 1155.5,2305.5C 1165.18,2291.22 1178.35,2286.55 1195,2291.5C 1196.44,2270.33 1200.44,2249.66 1207,2229.5C 1210.86,2219.61 1216.36,2210.77 1223.5,2203C 1225.81,2202.5 1228.14,2202.34 1230.5,2202.5C 1229.54,2209.12 1227.37,2215.46 1224,2221.5C 1216.77,2242.57 1212.43,2264.24 1211,2286.5C 1209.61,2305.82 1209.28,2325.15 1210,2344.5C 1213,2343.5 1216,2342.5 1219,2341.5C 1221.43,2348.27 1218.93,2352.27 1211.5,2353.5C 1213.01,2355.65 1214.01,2357.99 1214.5,2360.5C 1213.9,2363.97 1211.9,2365.14 1208.5,2364C 1204.74,2362.41 1201.74,2359.91 1199.5,2356.5C 1183.53,2357.35 1169.53,2352.68 1157.5,2342.5C 1153.98,2345.85 1150.31,2349.02 1146.5,2352C 1129.37,2356.96 1112.37,2356.63 1095.5,2351C 1090.06,2347.73 1085.4,2343.57 1081.5,2338.5C 1073.65,2341.61 1065.49,2342.95 1057,2342.5C 1023.72,2343.52 1011.72,2327.86 1021,2295.5C 1022.38,2290.79 1025.21,2287.29 1029.5,2285C 1024.69,2283.13 1019.69,2282.3 1014.5,2282.5C 1009.82,2282.75 1005.15,2283.08 1000.5,2283.5C 1000.66,2285.2 1000.49,2286.87 1000,2288.5C 995.734,2298.96 992.067,2309.63 989,2320.5C 987.603,2327.45 987.27,2334.45 988,2341.5C 1001.82,2350.78 1016.32,2358.95 1031.5,2366C 1083.22,2389.1 1137.22,2404.43 1193.5,2412C 1221.68,2416.56 1250.02,2419.73 1278.5,2421.5C 1288.87,2422.19 1298.54,2420.03 1307.5,2415C 1314.07,2409.1 1319.91,2402.6 1325,2395.5C 1343,2368.84 1360,2341.5 1376,2313.5C 1382.46,2299.8 1387.12,2285.46 1390,2270.5C 1394.62,2231.82 1394.62,2193.15 1390,2154.5C 1384,2119.51 1363.84,2097.67 1329.5,2089C 1316.64,2085.91 1303.64,2083.58 1290.5,2082C 1234.16,2078.5 1177.83,2074.83 1121.5,2071C 1094.24,2066.84 1066.91,2063.34 1039.5,2060.5C 1039.05,2057.64 1039.72,2055.14 1041.5,2053C 1048.63,2052.04 1055.63,2051.21 1062.5,2050.5 Z M 1067.5,2295.5 C 1071.39,2295.55 1074.05,2297.38 1075.5,2301C 1074.22,2308.52 1074.22,2316.02 1075.5,2323.5C 1074.62,2324.25 1073.62,2324.75 1072.5,2325C 1064.5,2325.67 1056.5,2325.67 1048.5,2325C 1042.45,2325.16 1039.11,2322.33 1038.5,2316.5C 1039.04,2310.07 1040.04,2303.73 1041.5,2297.5C 1050.34,2297.18 1059.01,2296.51 1067.5,2295.5 Z M 1189.5,2303.5 C 1191.17,2303.5 1192.83,2303.5 1194.5,2303.5C 1194.27,2316.19 1194.6,2328.86 1195.5,2341.5C 1187.26,2340.7 1179.59,2338.2 1172.5,2334C 1168.7,2329.91 1167.53,2325.08 1169,2319.5C 1171.88,2308.99 1178.71,2303.65 1189.5,2303.5 Z"/></g>
<g><path style="opacity:0.836" fill="#000000" d="M 873.5,2111.5 C 877.605,2111.23 881.605,2111.73 885.5,2113C 889.333,2116.83 893.167,2120.67 897,2124.5C 901.997,2131.32 902.83,2138.65 899.5,2146.5C 895.752,2146.91 892.086,2147.24 888.5,2147.5C 877.602,2145.11 869.768,2138.78 865,2128.5C 863.621,2120.59 866.454,2114.92 873.5,2111.5 Z"/></g>
<g><path style="opacity:0.858" fill="#000000" d="M 1720.5,2120.5 C 1724.79,2120.03 1728.79,2120.87 1732.5,2123C 1734.66,2128.95 1733,2133.45 1727.5,2136.5C 1719.54,2155.33 1705.21,2165 1684.5,2165.5C 1682.91,2175.92 1676.91,2180.42 1666.5,2179C 1663.24,2177.79 1660.41,2175.96 1658,2173.5C 1651.21,2177.95 1644.71,2182.79 1638.5,2188C 1630.14,2193.01 1621.14,2195.34 1611.5,2195C 1603.58,2190.87 1603.58,2186.54 1611.5,2182C 1623.84,2178.33 1634.84,2172.33 1644.5,2164C 1648.42,2162.9 1652.42,2162.23 1656.5,2162C 1660.72,2152.23 1668.05,2148.89 1678.5,2152C 1682.41,2150.09 1685.74,2147.43 1688.5,2144C 1694.56,2142.14 1700.23,2139.47 1705.5,2136C 1710,2130.33 1715,2125.16 1720.5,2120.5 Z"/></g>
<g><path style="opacity:0.895" fill="#000000" d="M 2192.5,2140.5 C 2196.85,2140.33 2201.18,2140.5 2205.5,2141C 2207.03,2143.33 2206.7,2145.33 2204.5,2147C 2200.36,2147.42 2196.52,2148.59 2193,2150.5C 2187.87,2159.24 2184.04,2168.41 2181.5,2178C 2202.05,2174.57 2219.39,2180.91 2233.5,2197C 2236.23,2197.82 2238.89,2197.65 2241.5,2196.5C 2252.57,2171.13 2271.9,2160.63 2299.5,2165C 2310.12,2167.12 2315.45,2173.62 2315.5,2184.5C 2315.55,2202.95 2306.55,2214.12 2288.5,2218C 2280.84,2218.5 2273.17,2218.67 2265.5,2218.5C 2265.33,2224.18 2265.5,2229.84 2266,2235.5C 2266.47,2237.25 2267.14,2238.91 2268,2240.5C 2275.33,2243.6 2282.16,2247.43 2288.5,2252C 2290.81,2252.66 2293.15,2253.16 2295.5,2253.5C 2295.8,2255.6 2295.47,2257.6 2294.5,2259.5C 2288.31,2262.43 2282.31,2265.59 2276.5,2269C 2256.36,2271.67 2243.53,2263.17 2238,2243.5C 2236.91,2234.76 2236.41,2226.09 2236.5,2217.5C 2223.21,2246.31 2201.21,2256.48 2170.5,2248C 2162.26,2243.09 2157.1,2235.92 2155,2226.5C 2151.96,2206.02 2155.29,2186.69 2165,2168.5C 2168.75,2164 2171.75,2159 2174,2153.5C 2178.95,2147.29 2185.12,2142.95 2192.5,2140.5 Z M 2291.5,2179.5 C 2294.69,2179.02 2297.52,2179.69 2300,2181.5C 2301.52,2187.93 2300.02,2193.43 2295.5,2198C 2294.27,2198.78 2292.94,2199.28 2291.5,2199.5C 2284.53,2198.74 2277.53,2198.24 2270.5,2198C 2275.57,2189.42 2282.57,2183.25 2291.5,2179.5 Z M 2180.5,2186.5 C 2181.27,2187.17 2181.93,2188.01 2182.5,2189C 2195.85,2194.78 2209.02,2200.95 2222,2207.5C 2222.4,2211.32 2221.73,2214.98 2220,2218.5C 2214.84,2227.16 2207.34,2232.5 2197.5,2234.5C 2191.09,2232.55 2185.59,2229.22 2181,2224.5C 2179.85,2215.04 2179.02,2205.54 2178.5,2196C 2178.85,2192.73 2179.52,2189.56 2180.5,2186.5 Z"/></g>
<g><path style="opacity:0.848" fill="#000000" d="M 1456.5,2191.5 C 1459.85,2191.33 1463.18,2191.5 1466.5,2192C 1472.3,2194.9 1478.3,2197.24 1484.5,2199C 1490.46,2201.57 1491.96,2205.74 1489,2211.5C 1483.37,2215.78 1477.2,2216.61 1470.5,2214C 1463.6,2211.77 1457.77,2207.94 1453,2202.5C 1451.66,2197.96 1452.83,2194.29 1456.5,2191.5 Z"/></g>
<g><path style="opacity:0.825" fill="#000000" d="M 1534.5,2195.5 C 1544.56,2196.01 1554.56,2197.18 1564.5,2199C 1568.65,2200.45 1569.32,2202.78 1566.5,2206C 1555.47,2206.42 1544.8,2209.09 1534.5,2214C 1525.33,2215.5 1521.5,2211.67 1523,2202.5C 1523.47,2201.07 1524.3,2199.9 1525.5,2199C 1528.57,2197.7 1531.57,2196.54 1534.5,2195.5 Z"/></g>
<g><path style="opacity:0.566" fill="#000000" d="M 1228.5,2224.5 C 1232.53,2224.68 1235.36,2226.68 1237,2230.5C 1238.66,2233.29 1238.83,2236.12 1237.5,2239C 1231.44,2238.44 1228.11,2234.94 1227.5,2228.5C 1227.62,2227.08 1227.96,2225.74 1228.5,2224.5 Z"/></g>
<g><path style="opacity:0.885" fill="#000000" d="M 1848.5,2235.5 C 1865.15,2233.33 1880.48,2236.83 1894.5,2246C 1900.56,2251.43 1899.56,2254.43 1891.5,2255C 1880.68,2261.27 1869.01,2264.27 1856.5,2264C 1851.54,2270.49 1848.54,2277.83 1847.5,2286C 1849.83,2286.33 1852.17,2286.67 1854.5,2287C 1865.22,2293.69 1876.89,2298.02 1889.5,2300C 1896.71,2302.85 1903.88,2305.68 1911,2308.5C 1917.26,2307.04 1923.43,2307.37 1929.5,2309.5C 1931.02,2305.44 1933.69,2302.44 1937.5,2300.5C 1953.13,2295.99 1965.97,2299.99 1976,2312.5C 1980.4,2332.98 1974.56,2350.14 1958.5,2364C 1941.65,2377.84 1923.32,2380.17 1903.5,2371C 1896.35,2364.39 1893.69,2356.22 1895.5,2346.5C 1894.75,2336.32 1896.59,2326.65 1901,2317.5C 1901.83,2316.67 1902.67,2315.83 1903.5,2315C 1887.91,2315.69 1872.91,2313.02 1858.5,2307C 1853.41,2305.04 1848.91,2302.21 1845,2298.5C 1844.28,2313.16 1843.61,2327.83 1843,2342.5C 1840.67,2346.51 1837.34,2347.51 1833,2345.5C 1832.58,2344.33 1831.91,2343.33 1831,2342.5C 1827.09,2317.96 1825.09,2293.3 1825,2268.5C 1826.52,2252.72 1834.36,2241.72 1848.5,2235.5 Z M 1927.5,2318.5 C 1930.66,2317.96 1933.33,2318.8 1935.5,2321C 1943.7,2323.05 1952.03,2324.39 1960.5,2325C 1965.03,2326.7 1967.36,2330.04 1967.5,2335C 1959.45,2358.59 1943.45,2366.59 1919.5,2359C 1917.71,2358.22 1916.21,2357.05 1915,2355.5C 1913.89,2350.78 1913.39,2345.94 1913.5,2341C 1913.42,2335.75 1913.92,2330.58 1915,2325.5C 1915.47,2324.07 1916.3,2322.9 1917.5,2322C 1920.98,2320.9 1924.31,2319.73 1927.5,2318.5 Z"/></g>
<g><path style="opacity:0.881" fill="#000000" d="M 2018.5,2262.5 C 2024.46,2261.63 2028.63,2263.96 2031,2269.5C 2031.17,2272.33 2031.33,2275.17 2031.5,2278C 2028.38,2300.88 2024.88,2323.71 2021,2346.5C 2020.24,2357.06 2019.4,2367.56 2018.5,2378C 2019.79,2378.49 2021.13,2378.66 2022.5,2378.5C 2023.91,2386.65 2020.58,2390.32 2012.5,2389.5C 2005.26,2389.45 2001.1,2385.78 2000,2378.5C 1998.94,2361.09 1999.61,2343.76 2002,2326.5C 2005.84,2307.47 2009.84,2288.47 2014,2269.5C 2015.35,2267 2016.85,2264.67 2018.5,2262.5 Z"/></g>
<g><path style="opacity:0.914" fill="#000000" d="M 2435.5,2272.5 C 2445.21,2272.05 2450.88,2276.55 2452.5,2286C 2441.87,2332.21 2431.04,2378.38 2420,2424.5C 2418.5,2428.67 2415.67,2431.5 2411.5,2433C 2407.13,2433.36 2402.8,2433.36 2398.5,2433C 2378.29,2446.42 2360.79,2443.59 2346,2424.5C 2341.28,2415.45 2338.94,2405.79 2339,2395.5C 2336.35,2397.05 2333.51,2398.22 2330.5,2399C 2322.51,2399.5 2314.51,2399.67 2306.5,2399.5C 2306.35,2403.39 2307.35,2406.89 2309.5,2410C 2313.95,2411.73 2318.29,2413.73 2322.5,2416C 2324.5,2416.67 2326.5,2416.67 2328.5,2416C 2337.75,2411.65 2339.91,2414.15 2335,2423.5C 2322.73,2440.08 2307.9,2442.91 2290.5,2432C 2280.21,2422.22 2276.21,2410.22 2278.5,2396C 2276.61,2371.43 2286.94,2354.43 2309.5,2345C 2323.65,2339.75 2337.99,2339.42 2352.5,2344C 2358.95,2347.04 2362.28,2352.21 2362.5,2359.5C 2376.63,2351.23 2391.63,2349.23 2407.5,2353.5C 2412.17,2329.65 2417.67,2305.98 2424,2282.5C 2426.57,2277.64 2430.4,2274.31 2435.5,2272.5 Z M 2339.5,2361.5 C 2340.68,2361.28 2341.68,2361.61 2342.5,2362.5C 2339.1,2369.39 2334.44,2375.23 2328.5,2380C 2321.58,2381.55 2314.58,2381.88 2307.5,2381C 2309.36,2375.81 2312.69,2371.81 2317.5,2369C 2324.67,2365.68 2332,2363.18 2339.5,2361.5 Z M 2401.5,2367.5 C 2402.24,2367.37 2402.91,2367.54 2403.5,2368C 2398.24,2384.81 2394.57,2401.98 2392.5,2419.5C 2384.51,2417.92 2377.34,2414.59 2371,2409.5C 2363.66,2391.33 2369.16,2378.5 2387.5,2371C 2390.83,2370.67 2394.17,2370.33 2397.5,2370C 2399.32,2369.8 2400.65,2368.97 2401.5,2367.5 Z"/></g>
<g><path style="opacity:0.877" fill="#000000" d="M 2060.5,2276.5 C 2065.81,2275.74 2069.65,2277.74 2072,2282.5C 2073.53,2292.11 2073.86,2301.78 2073,2311.5C 2069.69,2332.05 2065.36,2352.39 2060,2372.5C 2056.97,2379.73 2051.8,2381.9 2044.5,2379C 2042.62,2377.46 2041.12,2375.62 2040,2373.5C 2039.33,2366.83 2039.33,2360.17 2040,2353.5C 2043.35,2338.09 2047.02,2322.76 2051,2307.5C 2052.3,2298.09 2053.97,2288.75 2056,2279.5C 2057.65,2278.6 2059.15,2277.6 2060.5,2276.5 Z"/></g>
<g><path style="opacity:0.894" fill="#000000" d="M 2095.5,2312.5 C 2101.5,2311.17 2103.83,2313.5 2102.5,2319.5C 2105.86,2321.5 2109.52,2323 2113.5,2324C 2125.13,2324.95 2136.46,2327.28 2147.5,2331C 2153,2333.17 2156.83,2337 2159,2342.5C 2161.07,2356.2 2159.07,2369.2 2153,2381.5C 2139.84,2402 2122.34,2417.5 2100.5,2428C 2092.79,2428.76 2085.12,2428.43 2077.5,2427C 2071.91,2424.65 2070.07,2420.48 2072,2414.5C 2072.83,2413.67 2073.67,2412.83 2074.5,2412C 2079.27,2411.74 2083.93,2412.07 2088.5,2413C 2096.66,2406.75 2104.99,2400.75 2113.5,2395C 2125.18,2386.33 2133.34,2375.17 2138,2361.5C 2138.74,2358.44 2138.57,2355.44 2137.5,2352.5C 2125.51,2351.67 2113.51,2351.17 2101.5,2351C 2100.23,2350.69 2099.07,2350.19 2098,2349.5C 2094.24,2365.41 2090.9,2381.41 2088,2397.5C 2084.22,2408.31 2077.89,2410.31 2069,2403.5C 2067.03,2399.07 2066.19,2394.4 2066.5,2389.5C 2069.21,2366.21 2076.04,2344.21 2087,2323.5C 2089.36,2319.44 2092.19,2315.78 2095.5,2312.5 Z"/></g>
<g><path style="opacity:0.876" fill="#000000" d="M 2266.5,2329.5 C 2280.31,2329.16 2285.47,2335.83 2282,2349.5C 2272.86,2377.78 2259.53,2403.78 2242,2427.5C 2233.71,2438.2 2223.21,2441.36 2210.5,2437C 2205.03,2432.11 2202.36,2425.94 2202.5,2418.5C 2203.53,2408.85 2203.69,2399.18 2203,2389.5C 2198.09,2399.49 2191.59,2408.32 2183.5,2416C 2179.41,2418.22 2175.07,2418.89 2170.5,2418C 2168,2416.83 2166.17,2415 2165,2412.5C 2164.81,2404.16 2165.14,2395.83 2166,2387.5C 2167.85,2372.77 2175.35,2362.11 2188.5,2355.5C 2192.11,2354.51 2195.77,2354.18 2199.5,2354.5C 2199.66,2356.86 2199.5,2359.19 2199,2361.5C 2193.94,2362.23 2190.27,2364.89 2188,2369.5C 2186,2374.83 2184,2380.17 2182,2385.5C 2180.68,2389.43 2180.34,2393.43 2181,2397.5C 2197.24,2384.36 2209.07,2368.02 2216.5,2348.5C 2217.03,2347.81 2217.69,2347.31 2218.5,2347C 2226.8,2344.15 2230.47,2346.99 2229.5,2355.5C 2226.46,2371.36 2225.29,2387.36 2226,2403.5C 2239.64,2382.21 2250.64,2359.54 2259,2335.5C 2261.13,2332.85 2263.63,2330.85 2266.5,2329.5 Z"/></g>
</svg>
