<?xml version="1.0" standalone="no"?>
<!DOCTYPE svg PUBLIC "-//W3C//DTD SVG 20010904//EN"
 "http://www.w3.org/TR/2001/REC-SVG-20010904/DTD/svg10.dtd">
<svg version="1.0" xmlns="http://www.w3.org/2000/svg"
 width="2550.000000pt" height="2550.000000pt" viewBox="0 0 2550.000000 2550.000000"
 preserveAspectRatio="xMidYMid meet">

<g transform="translate(0.000000,2550.000000) scale(0.100000,-0.100000)"
fill="#000000" stroke="none">
<path d="M6194 20369 c-106 -40 -256 -193 -319 -324 -55 -116 -66 -171 -72
-375 -6 -204 3 -290 41 -400 66 -189 250 -370 454 -448 134 -52 176 -57 452
-57 294 0 333 7 516 94 182 87 315 195 364 296 20 42 24 65 25 150 0 128 -19
183 -94 278 -206 259 -713 497 -1114 524 -102 6 -127 -4 -127 -51 0 -33 23
-51 40 -31 12 14 20 14 148 -1 l42 -5 0 -83 c0 -46 9 -135 20 -197 11 -63 38
-223 59 -357 22 -133 45 -249 51 -257 18 -22 37 -18 66 10 26 26 26 26 7 133
l-6 37 -12 -40 -12 -40 -13 90 c-7 50 -28 178 -47 285 -19 107 -37 243 -40
302 l-5 107 88 -24 c304 -81 591 -238 765 -418 80 -82 111 -144 117 -232 7
-110 -15 -172 -87 -244 -99 -99 -283 -199 -441 -239 -91 -23 -492 -23 -597 1
-162 36 -274 98 -399 223 -72 71 -99 106 -127 165 -60 125 -70 185 -64 414 5
220 16 278 80 400 38 71 152 189 222 231 50 29 50 29 243 32 187 3 192 3 192
-17 0 -18 17 -38 24 -30 2 2 1 19 -1 37 -5 27 -14 37 -54 57 -45 23 -59 25
-191 24 -117 0 -152 -4 -194 -20z"/>
<path d="M18770 20116 c-95 -50 -254 -245 -339 -413 -122 -242 -171 -446 -171
-713 0 -141 17 -239 55 -316 32 -65 128 -163 215 -220 205 -132 430 -182 769
-171 247 8 385 48 556 162 169 112 298 260 344 396 27 79 37 205 22 284 -27
149 -141 294 -332 421 -277 185 -601 263 -1042 252 -138 -3 -139 -3 -163 -31
-29 -34 -31 -72 -7 -148 l16 -54 15 65 c8 36 16 71 18 79 4 11 47 13 252 8
259 -6 345 -17 512 -67 263 -79 553 -287 636 -456 27 -55 29 -67 28 -174 0
-94 -4 -125 -22 -171 -62 -158 -243 -332 -437 -420 -124 -56 -224 -72 -455
-72 -172 0 -222 4 -309 22 -278 58 -499 203 -569 374 -24 56 -27 77 -30 225
-3 122 0 188 13 264 17 103 73 281 125 395 68 151 246 380 323 416 34 17 157
34 157 23 0 -4 -5 -17 -11 -29 -10 -22 -10 -22 6 -2 22 27 30 64 17 77 -6 6
-41 12 -79 14 -57 4 -75 1 -113 -20z"/>
<path d="M7786 19541 c-27 -30 -10 -44 75 -65 87 -21 334 -22 384 -2 19 8 35
18 35 21 0 3 -16 13 -35 21 -23 9 -73 14 -152 14 -65 1 -138 5 -163 11 -103
22 -124 22 -144 0z"/>
<path d="M8721 19480 c-150 -4 -175 -7 -185 -22 -8 -13 -7 -21 4 -33 12 -12
47 -15 177 -16 144 0 167 2 209 21 45 19 46 21 28 34 -29 21 -47 22 -233 16z"/>
<path d="M9248 19474 c-27 -8 -48 -17 -48 -20 0 -3 16 -12 35 -20 49 -20 383
-20 411 0 15 12 17 18 8 33 -10 16 -29 18 -185 20 -130 1 -186 -2 -221 -13z"/>
<path d="M15607 19453 c-56 -24 -102 -37 -160 -43 -45 -5 -98 -15 -117 -23
l-35 -15 30 -14 c18 -7 67 -13 120 -13 83 0 96 3 170 38 99 47 118 63 104 88
-13 25 -20 24 -112 -18z"/>
<path d="M16087 19440 c-21 -4 -43 -12 -49 -18 -20 -20 66 -33 203 -30 114 3
133 5 143 21 8 14 8 20 -4 27 -17 11 -236 11 -293 0z"/>
<path d="M11261 19425 c-24 -11 -73 -15 -181 -15 -110 0 -161 -4 -199 -17 -28
-9 -51 -20 -51 -24 0 -5 14 -16 31 -25 26 -13 60 -15 203 -12 155 3 175 5 214
26 48 26 60 45 42 67 -15 18 -16 18 -59 0z"/>
<path d="M12285 19435 c-5 -2 -22 -6 -37 -9 -26 -6 -68 -41 -68 -57 0 -8 194
-16 600 -25 254 -5 281 -4 350 14 55 15 70 22 55 27 -11 4 -37 13 -58 21 -54
20 -498 20 -622 -1 -106 -17 -118 -18 -110 -6 16 26 -62 52 -110 36z"/>
<path d="M13800 19430 c-14 -4 -80 -8 -146 -9 -105 -1 -125 -4 -145 -20 -20
-16 -22 -23 -13 -38 16 -26 186 -30 298 -7 88 17 106 27 106 54 0 29 -45 38
-100 20z"/>
<path d="M14919 19415 c-25 -14 -90 -16 -396 -12 -88 1 -126 -3 -135 -12 -11
-10 -9 -15 7 -27 16 -12 42 -14 135 -9 63 3 169 5 235 5 108 -1 124 2 159 22
62 36 58 67 -5 33z"/>
<path d="M18556 19394 c-9 -8 -16 -18 -16 -22 1 -29 23 -31 358 -34 l342 -3
27 -28 c25 -24 28 -36 31 -106 4 -75 3 -79 -26 -113 -44 -49 -148 -96 -291
-131 -140 -34 -167 -51 -157 -100 3 -16 11 -36 17 -43 16 -20 93 -42 224 -64
155 -27 527 -40 574 -20 35 14 41 44 14 59 -10 5 -128 11 -263 14 -197 4 -264
9 -342 26 -154 34 -154 34 -37 64 190 50 325 133 350 217 17 56 8 177 -17 224
-39 75 -44 76 -431 76 -297 0 -344 -2 -357 -16z"/>
<path d="M17608 19382 c-34 -20 -34 -23 -6 -41 24 -15 278 -35 311 -25 9 3 17
13 17 22 0 37 -17 45 -107 53 -139 12 -185 10 -215 -9z"/>
<path d="M10465 19364 c-44 -14 -115 -28 -159 -33 -91 -11 -128 -33 -82 -51
37 -14 74 -13 185 5 110 18 184 51 189 83 3 18 -1 22 -25 21 -15 -1 -64 -12
-108 -25z"/>
<path d="M11888 19374 c-4 -3 -61 -9 -128 -13 -92 -5 -124 -11 -137 -24 -13
-13 -14 -19 -3 -31 18 -23 207 -21 275 2 42 14 50 21 50 42 0 19 -6 26 -25 28
-14 2 -29 0 -32 -4z"/>
<path d="M16965 19370 c-11 -5 -72 -9 -135 -9 -94 -1 -120 -5 -143 -19 -26
-18 -27 -19 -9 -35 15 -14 41 -17 145 -17 109 0 134 3 172 21 51 24 58 31 49
53 -7 17 -46 20 -79 6z"/>
<path d="M7701 18943 c-19 -16 -22 -23 -13 -39 10 -19 98 -54 136 -54 10 0 23
-14 31 -33 7 -18 23 -41 34 -51 11 -10 25 -32 30 -50 25 -76 61 -285 61 -355
0 -66 12 -186 26 -259 3 -13 11 -25 19 -28 21 -8 64 28 55 46 -14 27 -30 158
-30 239 0 43 -7 116 -16 161 -8 45 -13 84 -11 86 2 3 21 -16 42 -41 50 -62
238 -212 296 -237 69 -29 198 -169 294 -316 44 -68 108 -163 142 -210 34 -48
82 -120 105 -160 24 -40 67 -105 97 -145 30 -39 83 -115 118 -167 36 -52 79
-116 97 -141 18 -26 49 -97 71 -165 22 -65 53 -137 70 -160 68 -94 95 -130
114 -155 41 -53 205 -366 248 -472 69 -171 121 -270 303 -579 16 -25 31 -57
35 -70 21 -65 91 -153 274 -347 122 -129 224 -245 454 -519 62 -74 84 -122
102 -220 8 -45 18 -89 23 -99 6 -10 24 -67 42 -128 35 -122 94 -266 176 -425
84 -164 307 -420 457 -526 91 -64 204 -158 267 -223 25 -25 69 -67 97 -92 l51
-46 -56 -27 c-96 -47 -244 -151 -314 -220 -153 -152 -206 -322 -215 -697 -7
-260 3 -329 64 -450 104 -207 381 -364 771 -434 204 -37 306 -45 642 -51 353
-7 437 2 549 58 82 41 170 128 205 201 49 104 60 174 60 382 0 211 -13 284
-75 407 l-30 60 63 67 c83 86 112 133 103 168 l-6 27 -17 -25 c-9 -13 -53 -59
-98 -102 l-81 -78 -29 38 c-131 173 -307 315 -519 421 -237 118 -427 163 -753
178 l-153 7 32 19 c23 14 53 20 114 21 60 1 81 5 78 14 -7 19 -67 33 -166 40
l-87 6 -128 122 c-134 127 -251 226 -349 293 -32 22 -81 64 -110 94 -95 98
-244 282 -284 350 -61 104 -155 323 -189 441 -17 58 -37 121 -45 140 -8 19
-19 65 -25 103 -14 93 -66 196 -138 275 -33 35 -110 125 -171 199 -62 74 -170
196 -240 270 -221 234 -231 247 -291 364 -37 72 -58 110 -187 333 -39 67 -94
180 -123 250 -58 143 -94 216 -183 378 -60 110 -85 149 -183 280 -41 56 -59
94 -90 190 -23 72 -51 137 -71 165 -18 25 -65 92 -105 150 -39 58 -91 131
-115 162 -24 31 -60 86 -81 122 -20 36 -65 105 -100 153 -34 49 -103 150 -152
225 -108 165 -237 306 -313 342 -60 28 -214 147 -272 210 -22 24 -69 76 -103
115 l-64 71 29 11 c45 17 182 -11 304 -62 l104 -44 135 0 c129 0 180 10 180
34 0 16 -34 23 -155 31 -107 7 -131 12 -224 49 -126 51 -218 71 -320 71 -71 0
-82 3 -137 36 -75 45 -147 56 -183 27z m4364 -6043 c4 -6 -9 -10 -32 -9 -30 0
-34 2 -18 9 27 12 43 12 50 0z m500 -120 c217 -46 411 -126 585 -240 117 -77
315 -272 349 -342 13 -27 26 -48 30 -48 10 0 76 -142 91 -195 6 -22 14 -104
17 -181 14 -341 -66 -518 -267 -590 -78 -28 -334 -39 -603 -25 -362 17 -572
51 -772 121 -286 102 -449 246 -500 445 -18 70 -21 363 -5 495 24 194 84 351
164 430 l46 44 -6 -60 c-4 -34 -3 -124 1 -200 l8 -139 13 104 c17 133 49 274
76 330 15 32 32 48 62 63 38 18 60 19 326 14 243 -3 300 -7 385 -26z"/>
<path d="M12054 12553 c-121 -4 -149 -16 -138 -60 7 -26 60 -36 124 -22 25 5
196 11 380 14 295 5 332 4 310 -8 -65 -38 -235 -79 -388 -93 -93 -8 -128 -33
-117 -82 9 -43 44 -62 294 -162 112 -44 226 -92 253 -106 61 -31 138 -100 138
-124 0 -40 -43 -44 -505 -48 -293 -2 -443 -7 -452 -14 -7 -6 -13 -21 -13 -33
l0 -23 228 -7 c125 -4 319 -5 432 -2 171 4 216 9 272 26 73 23 108 56 108 99
0 39 -37 107 -73 135 -51 39 -178 99 -361 171 -164 65 -230 95 -212 96 54 2
237 37 300 57 152 48 201 84 192 142 -3 19 -11 38 -18 43 -12 7 -501 8 -754 1z"/>
<path d="M20280 18865 c0 -8 31 -52 70 -96 88 -103 112 -154 145 -314 26 -123
55 -216 125 -390 17 -43 52 -144 76 -223 52 -167 169 -424 283 -622 140 -242
160 -292 213 -528 l33 -147 0 -340 c0 -332 -1 -343 -27 -465 -15 -69 -29 -138
-32 -155 -3 -16 -10 -124 -16 -240 -6 -115 -15 -237 -21 -270 -16 -88 -24
-921 -10 -1015 17 -112 30 -255 41 -445 5 -93 14 -255 20 -360 16 -288 29
-468 45 -595 8 -63 19 -224 25 -358 10 -261 24 -397 45 -471 8 -25 39 -131 70
-236 30 -104 64 -235 75 -290 23 -116 37 -374 50 -880 9 -349 9 -350 44 -500
55 -240 93 -381 122 -448 14 -34 41 -105 59 -157 18 -52 52 -135 75 -185 23
-49 50 -108 60 -130 10 -22 48 -163 84 -313 37 -150 84 -323 106 -385 21 -62
48 -146 60 -187 12 -41 37 -112 56 -157 31 -75 34 -91 34 -185 1 -57 5 -121
10 -143 4 -22 14 -68 21 -102 13 -68 24 -78 60 -59 35 17 37 77 5 151 -23 50
-26 72 -26 164 -1 82 -5 118 -21 161 -83 222 -180 532 -239 770 -67 270 -91
342 -151 461 -15 31 -46 108 -68 170 -21 63 -50 139 -63 169 -21 47 -64 206
-133 495 -13 53 -19 150 -25 400 -12 462 -28 765 -45 870 -16 96 -97 407 -139
527 -33 96 -44 194 -57 483 -5 132 -16 299 -25 370 -19 170 -31 323 -45 580
-26 489 -45 746 -59 800 -16 68 -13 838 5 990 9 72 20 218 25 325 9 201 15
249 53 410 20 88 22 119 22 435 -1 315 -2 348 -23 450 -57 274 -94 374 -222
595 -132 228 -224 433 -305 670 -40 118 -92 265 -115 325 -23 61 -53 162 -66
225 -37 178 -63 241 -129 318 -51 59 -155 111 -155 77z"/>
<path d="M7152 18628 c-7 -7 -12 -28 -12 -48 0 -29 10 -48 48 -91 102 -119
198 -183 287 -193 l60 -7 -31 20 c-18 10 -33 23 -35 28 -2 5 -29 26 -60 46
-73 48 -205 161 -220 188 -6 12 -9 32 -6 45 5 26 -11 32 -31 12z"/>
<path d="M6080 18531 c-5 -11 -10 -44 -10 -73 0 -38 -12 -82 -40 -153 -58
-147 -74 -221 -63 -292 l9 -58 21 41 c12 22 31 78 42 123 12 46 37 122 57 170
55 133 59 261 8 261 -7 0 -18 -9 -24 -19z"/>
<path d="M6619 18539 c-11 -6 -14 -41 -14 -166 0 -132 3 -163 18 -190 15 -28
23 -33 52 -33 41 0 42 3 15 61 -16 36 -20 66 -20 164 0 66 -3 130 -6 142 -7
25 -25 35 -45 22z"/>
<path d="M7335 18510 c10 -11 20 -20 23 -20 3 0 -3 9 -13 20 -10 11 -20 20
-23 20 -3 0 3 -9 13 -20z"/>
<path d="M7486 18365 c67 -66 134 -140 149 -164 15 -25 47 -65 70 -90 23 -25
68 -82 100 -126 52 -72 57 -77 51 -45 -17 90 -99 191 -324 400 -163 151 -187
164 -46 25z"/>
<path d="M18345 18285 c-16 -8 -52 -39 -80 -69 -27 -29 -104 -100 -170 -158
-151 -132 -283 -270 -297 -308 -5 -17 -15 -30 -22 -30 -30 0 -84 -46 -209
-177 -127 -132 -177 -200 -177 -238 0 -8 4 -15 8 -15 13 0 303 296 351 358 30
37 48 52 65 52 17 0 35 14 59 48 44 58 162 173 324 316 123 108 157 145 187
204 19 37 9 41 -39 17z"/>
<path d="M19905 18145 c-24 -57 -17 -307 11 -379 31 -81 82 -104 138 -63 19
14 18 16 -21 40 -25 16 -45 39 -53 59 -7 18 -16 98 -20 178 -5 102 -11 154
-23 175 l-16 30 -16 -40z"/>
<path d="M6796 17939 c-14 -47 -19 -233 -7 -275 19 -69 85 -149 143 -173 l50
-21 -18 27 c-9 15 -37 51 -60 80 -64 79 -67 88 -75 218 -4 66 -11 131 -16 144
l-10 25 -7 -25z"/>
<path d="M5937 17693 c-8 -10 -26 -40 -38 -68 -21 -45 -24 -69 -27 -226 -4
-176 -4 -176 21 -205 14 -16 28 -26 32 -22 4 4 11 105 16 225 4 120 11 239 15
266 7 52 5 56 -19 30z"/>
<path d="M8100 17662 c-20 -16 -22 -28 -23 -107 -2 -108 7 -127 99 -224 57
-61 147 -121 161 -108 12 13 -36 89 -96 152 -37 38 -75 84 -83 100 -20 39 -30
179 -15 194 19 19 -18 13 -43 -7z"/>
<path d="M20101 17593 c-14 -38 -26 -146 -37 -348 -6 -95 -4 -116 11 -145 l18
-35 16 35 c8 19 18 80 22 135 4 55 10 143 14 196 8 102 3 154 -18 183 -11 15
-14 13 -26 -21z"/>
<path d="M19104 17502 c-27 -18 -87 -135 -116 -227 -23 -73 -38 -105 -53 -111
-29 -13 -149 -254 -140 -283 10 -34 28 -25 82 42 122 150 153 198 153 231 0
41 33 143 71 220 37 76 39 152 3 128z"/>
<path d="M19724 17382 c-19 -16 -19 -18 -4 -35 9 -9 26 -17 38 -17 19 0 22 -6
22 -39 0 -35 -9 -48 -111 -157 -61 -66 -136 -153 -166 -194 -31 -41 -74 -95
-97 -118 -40 -43 -186 -170 -236 -206 l-25 -18 32 6 c40 7 210 122 281 190 30
28 78 83 107 121 30 39 90 108 134 155 l80 85 1 -66 c0 -36 -5 -91 -10 -121
-6 -31 -17 -105 -24 -165 -8 -59 -25 -140 -39 -178 -31 -88 -52 -196 -67 -350
-17 -169 -82 -367 -150 -460 -21 -27 -54 -77 -75 -110 -20 -32 -71 -101 -111
-152 -110 -138 -190 -273 -224 -377 -7 -22 -30 -72 -52 -112 -26 -49 -43 -97
-53 -152 -22 -125 -33 -161 -85 -257 -45 -84 -80 -179 -95 -251 -3 -17 -37
-84 -76 -150 -45 -77 -78 -149 -95 -204 -13 -47 -54 -143 -90 -215 -41 -84
-68 -151 -74 -190 -6 -33 -15 -70 -20 -83 -21 -48 -318 -473 -415 -592 -56
-69 -124 -159 -152 -200 -53 -79 -160 -187 -306 -309 -98 -81 -121 -112 -131
-173 -10 -60 -31 -94 -115 -183 -274 -289 -458 -514 -672 -823 -35 -51 -89
-129 -121 -173 -31 -45 -112 -140 -180 -213 -68 -72 -169 -189 -225 -261 -55
-71 -121 -150 -147 -174 l-45 -44 -73 37 c-116 61 -164 102 -230 198 -21 32
-51 64 -66 72 -15 8 -59 40 -99 73 -39 32 -117 83 -174 113 -122 66 -228 160
-296 263 -107 163 -220 313 -303 403 -48 52 -116 135 -151 186 l-62 91 34 -6
c73 -13 369 -18 466 -9 126 13 232 55 233 94 0 15 -33 38 -56 38 -28 0 -76
-28 -69 -40 10 -16 -106 -22 -332 -17 -158 3 -242 9 -273 19 l-45 14 -7 63
c-10 87 -44 123 -82 85 -14 -14 -16 -73 -16 -504 0 -269 3 -495 6 -504 8 -21
27 -20 47 2 15 17 17 57 17 372 0 302 2 351 14 341 8 -7 39 -49 70 -94 30 -45
94 -125 142 -177 108 -118 151 -174 298 -390 106 -155 168 -212 333 -304 56
-31 125 -75 153 -99 29 -23 72 -55 96 -72 24 -16 63 -58 87 -93 52 -75 112
-127 201 -173 36 -19 66 -37 66 -41 0 -5 -24 -38 -54 -75 -30 -37 -59 -83 -65
-102 -9 -29 -34 -54 -126 -123 -101 -78 -117 -87 -139 -78 -30 11 -49 -7 -44
-44 2 -20 -24 -52 -147 -176 -83 -83 -175 -171 -205 -194 -52 -41 -170 -106
-532 -296 -160 -84 -308 -176 -455 -282 -65 -47 -86 -57 -100 -50 -10 5 -61
21 -113 36 -117 33 -222 84 -365 176 -188 121 -262 150 -462 177 -56 8 -63 7
-63 -8 0 -19 -6 -16 160 -76 135 -48 205 -83 339 -170 147 -97 256 -146 400
-183 l44 -12 -149 -67 c-146 -65 -245 -116 -514 -261 -185 -101 -511 -253
-606 -285 -44 -14 -133 -37 -199 -51 -66 -14 -171 -37 -233 -51 -392 -85 -774
-228 -999 -374 -51 -33 -133 -80 -181 -103 -48 -24 -132 -65 -186 -91 -121
-59 -275 -160 -376 -246 -87 -74 -96 -78 -335 -154 -349 -111 -391 -126 -480
-169 -50 -24 -119 -66 -155 -92 -99 -74 -127 -84 -237 -84 -128 0 -398 -34
-518 -65 -54 -14 -148 -46 -209 -71 -146 -60 -141 -59 -291 -89 -71 -15 -184
-44 -250 -65 -104 -34 -344 -101 -500 -140 -27 -7 -120 -16 -205 -19 -140 -6
-161 -9 -213 -33 -66 -31 -161 -46 -337 -54 -69 -3 -195 -19 -280 -34 -132
-24 -193 -29 -410 -35 -175 -5 -262 -11 -279 -19 -22 -12 -15 -14 65 -20 146
-11 495 -9 544 3 120 28 279 50 409 56 153 6 228 20 301 54 38 17 65 21 172
21 73 0 163 7 210 16 114 21 367 88 518 136 125 40 329 88 374 88 13 0 58 16
100 36 108 49 268 100 373 118 132 23 362 46 451 46 94 0 139 17 227 86 95 75
237 135 556 237 163 52 310 102 328 111 18 10 74 52 124 94 127 107 228 169
440 271 100 48 220 112 267 143 261 170 611 294 1141 403 235 49 340 86 591
207 205 99 249 122 533 275 72 39 189 96 260 128 187 82 276 131 327 178 76
69 353 239 548 337 147 73 376 198 430 233 25 17 127 111 226 210 l182 179 29
-16 c20 -10 68 -72 146 -189 127 -190 133 -196 253 -216 27 -5 64 -16 81 -25
38 -20 53 -14 53 18 0 44 -31 67 -106 82 -38 7 -94 24 -125 38 -57 25 -80 49
-208 213 l-32 43 42 -15 c54 -19 66 -19 74 4 10 33 -6 51 -72 81 -36 16 -63
34 -61 39 1 6 54 50 117 98 94 72 116 94 124 123 9 34 45 87 100 147 l30 32
181 -91 c99 -49 235 -121 302 -159 101 -58 131 -71 186 -77 58 -7 73 -14 144
-68 79 -59 167 -113 404 -246 180 -102 355 -216 510 -332 74 -57 146 -109 160
-116 14 -7 113 -99 220 -205 263 -259 275 -270 366 -310 210 -95 240 -117 361
-264 48 -58 135 -160 193 -226 58 -66 128 -151 155 -190 169 -242 234 -321
353 -429 122 -111 196 -156 415 -252 217 -96 347 -168 507 -283 72 -52 176
-112 297 -173 181 -90 263 -146 263 -180 0 -8 -27 -35 -59 -61 -32 -25 -73
-66 -90 -91 -40 -58 -65 -153 -58 -225 3 -45 0 -65 -18 -102 -39 -77 -93 -243
-116 -356 -30 -149 -39 -505 -15 -606 40 -171 154 -300 341 -387 146 -68 188
-75 470 -74 236 0 255 2 345 26 144 39 316 109 506 207 200 104 309 170 420
257 137 107 185 177 205 306 14 88 6 249 -17 333 -58 216 -285 470 -578 644
-180 106 -361 168 -562 192 -135 16 -533 7 -604 -14 -30 -9 -65 -19 -77 -23
-18 -5 -24 0 -36 28 -23 55 -84 98 -279 195 -101 50 -225 121 -274 156 -193
139 -312 204 -584 323 -156 68 -249 126 -345 215 -132 123 -190 192 -320 379
-40 58 -112 150 -160 205 -47 55 -139 163 -204 241 -65 77 -141 157 -169 177
-27 21 -111 66 -185 101 l-136 65 -226 223 c-125 123 -241 232 -258 243 -18
11 -97 69 -177 128 -158 119 -411 280 -585 372 -129 69 -256 149 -338 213 -50
40 -67 47 -124 54 -57 6 -86 19 -197 82 -72 41 -201 109 -286 151 -85 43 -157
79 -159 81 -3 3 20 30 51 62 30 31 97 111 147 176 51 66 146 176 211 245 112
118 146 162 301 386 215 310 314 433 635 782 122 131 134 151 163 259 9 35 28
56 129 141 170 145 233 209 284 288 25 39 94 131 155 205 60 74 154 200 208
280 54 80 127 186 161 236 58 86 84 152 84 215 0 11 29 75 64 143 35 67 75
163 90 212 17 57 51 131 95 209 49 85 77 148 96 215 15 52 48 136 75 185 52
97 75 164 90 265 12 74 23 107 61 171 14 25 32 63 39 85 34 106 109 231 229
384 45 58 94 125 108 150 15 25 42 64 60 87 62 78 151 312 164 433 24 223 33
280 55 357 13 47 31 97 38 111 7 15 17 68 21 117 4 50 11 113 17 140 6 28 14
111 18 185 l7 135 1 -161 c1 -108 7 -176 17 -210 18 -60 164 -324 187 -338 12
-7 24 -6 43 4 23 13 26 19 23 64 -3 48 -4 51 -31 51 -26 1 -34 11 -84 100 -82
149 -83 152 -83 359 0 215 -2 226 -40 226 -16 0 -31 -6 -33 -12 -3 -7 -6 -1
-6 14 -2 50 -10 58 -60 58 -29 -1 -54 -7 -67 -18z m2090 -10682 c126 -27 199
-51 311 -105 306 -146 598 -428 666 -643 40 -127 36 -337 -8 -430 -82 -173
-715 -531 -1074 -607 -100 -22 -361 -30 -474 -16 -207 25 -319 76 -446 201
-123 123 -132 148 -137 399 -4 211 6 312 43 464 29 113 82 257 96 257 5 0 9 7
9 17 0 38 147 239 251 343 89 89 131 111 230 117 73 5 79 4 103 -20 35 -35 33
-11 -1 26 l-28 30 180 -6 c124 -4 211 -13 279 -27z m-822 -88 c-42 -42 -99
-108 -127 -145 -27 -38 -51 -63 -53 -58 -2 6 4 35 12 65 20 69 88 141 172 185
32 16 62 30 66 31 3 0 -28 -35 -70 -78z"/>
<path d="M21285 6321 c-11 -5 -37 -7 -57 -4 -41 6 -68 -8 -68 -36 0 -9 -20
-29 -45 -44 -72 -46 -125 -124 -151 -222 -16 -59 -18 -195 -4 -246 10 -35 8
-38 -30 -77 -38 -38 -40 -43 -40 -101 0 -110 42 -157 170 -195 110 -33 436
-88 550 -93 107 -5 116 -4 133 15 12 13 16 26 10 35 -4 9 -138 81 -298 161
-266 133 -385 203 -385 224 0 5 12 14 26 21 36 16 25 24 -15 10 -47 -17 -55
-2 -59 101 -4 102 12 171 57 242 35 55 113 107 135 89 31 -26 301 -104 456
-132 36 -6 113 -12 171 -13 92 -1 110 2 128 18 44 39 16 172 -39 187 -14 4
-41 7 -60 8 -34 1 -34 1 -12 -15 24 -16 62 -83 62 -109 0 -32 -199 -14 -395
35 -115 30 -247 72 -241 78 8 7 83 22 181 35 68 10 84 14 64 20 -44 12 -223
18 -244 8z m-175 -716 c25 -16 126 -71 225 -122 99 -51 173 -92 165 -93 -28 0
-294 50 -374 71 -88 22 -111 32 -143 62 -31 28 -32 103 -2 141 l22 27 31 -28
c17 -16 51 -42 76 -58z"/>
<path d="M7020 17371 c0 -9 16 -33 36 -52 19 -18 45 -50 56 -69 12 -19 35 -53
53 -75 17 -22 39 -68 50 -103 l18 -63 19 58 c23 72 14 112 -39 172 -51 59
-193 156 -193 132z"/>
<path d="M17204 17110 c-16 -11 -54 -50 -84 -87 -30 -38 -83 -99 -117 -137
-66 -72 -88 -121 -75 -170 l8 -28 31 49 c17 27 58 78 90 113 122 134 203 244
203 275 0 11 -26 4 -56 -15z"/>
<path d="M8550 17001 c-15 -28 2 -64 46 -98 21 -15 67 -57 103 -92 l66 -63 3
28 c6 48 -16 100 -57 135 -138 119 -143 122 -161 90z"/>
<path d="M20151 16829 c-18 -51 -14 -81 29 -220 22 -72 40 -145 41 -162 0 -18
8 -57 18 -87 l17 -55 17 49 c9 27 17 70 17 94 0 52 -52 236 -86 304 -13 26
-24 55 -24 65 0 10 -4 24 -9 31 -6 10 -11 5 -20 -19z"/>
<path d="M5994 16760 c-6 -14 -21 -56 -34 -95 -13 -38 -43 -110 -67 -159 -42
-87 -57 -166 -35 -180 10 -6 12 -3 81 149 59 131 73 182 69 255 -3 50 -4 53
-14 30z"/>
<path d="M7450 16668 c-19 -40 -1 -77 62 -125 61 -47 68 -60 98 -183 26 -107
61 -204 69 -193 13 16 -5 247 -24 303 -24 75 -45 101 -119 154 -35 25 -66 51
-69 58 -3 8 -9 2 -17 -14z"/>
<path d="M18600 16521 c0 -11 -14 -49 -30 -87 -17 -37 -29 -69 -26 -71 2 -2
18 22 36 54 34 63 50 123 31 123 -6 0 -11 -9 -11 -19z"/>
<path d="M16833 16438 c-12 -13 -28 -41 -37 -63 -10 -22 -29 -56 -45 -75 -50
-63 -65 -113 -42 -148 8 -13 28 8 66 69 6 8 20 31 32 50 13 19 25 50 28 69 3
19 11 54 19 78 15 47 9 53 -21 20z"/>
<path d="M9063 16398 c-16 -20 -23 -113 -12 -153 12 -42 76 -117 131 -151 35
-23 108 -33 108 -16 0 13 -40 72 -49 72 -5 0 -34 23 -65 50 -56 52 -69 79 -81
163 -6 48 -15 57 -32 35z"/>
<path d="M20371 16063 c3 -48 14 -115 23 -148 9 -32 16 -68 16 -80 0 -25 39
-78 40 -54 0 9 6 29 14 45 15 32 12 67 -19 186 -12 44 -29 81 -49 104 l-31 36
6 -89z"/>
<path d="M5870 16115 c-3 -111 -41 -303 -71 -365 -18 -35 -24 -75 -32 -187
-10 -129 -7 -167 8 -151 8 8 65 219 65 241 0 10 14 53 31 95 30 76 31 79 26
208 -2 72 -9 140 -15 150 -6 10 -12 15 -12 9z"/>
<path d="M9450 15965 c0 -44 62 -122 145 -184 17 -13 44 -51 61 -89 l31 -67
12 28 c29 73 4 149 -68 201 -25 19 -57 46 -71 61 -22 23 -89 65 -105 65 -3 0
-5 -7 -5 -15z"/>
<path d="M16510 15822 c-22 -10 -50 -40 -75 -78 -22 -33 -59 -82 -83 -109 -33
-38 -42 -56 -40 -79 4 -38 20 -43 46 -14 77 87 103 121 137 178 21 36 47 77
57 93 22 32 10 35 -42 9z"/>
<path d="M18152 15808 c-11 -18 -34 -71 -51 -118 -17 -46 -42 -101 -56 -122
-14 -21 -25 -49 -25 -64 0 -25 2 -24 45 23 53 57 93 151 104 242 5 36 7 67 6
69 -2 2 -12 -12 -23 -30z"/>
<path d="M7869 15743 c-7 -17 -9 -67 -6 -128 6 -101 22 -156 69 -229 l20 -31
-6 35 c-4 19 -9 107 -12 195 -3 88 -7 166 -9 173 -8 23 -45 13 -56 -15z"/>
<path d="M20424 15299 c-21 -26 -26 -64 -34 -254 -5 -104 -12 -254 -16 -333
-6 -129 -5 -144 11 -162 23 -26 31 -25 40 3 10 29 23 234 30 477 5 149 3 205
-7 239 -10 35 -16 41 -24 30z"/>
<path d="M9762 15268 c-28 -28 -13 -66 58 -147 38 -44 77 -95 86 -113 22 -43
60 -88 68 -81 3 4 6 27 6 52 0 56 -34 119 -116 211 -71 81 -87 93 -102 78z"/>
<path d="M15988 15203 c-9 -10 -43 -58 -76 -108 -33 -49 -83 -118 -111 -153
-85 -103 -60 -158 28 -63 54 56 155 196 182 249 35 67 17 121 -23 75z"/>
<path d="M5752 15048 c-10 -107 -19 -153 -52 -249 -22 -65 -40 -127 -40 -138
0 -23 22 -28 37 -8 14 16 50 125 68 201 16 65 21 326 7 326 -4 0 -13 -59 -20
-132z"/>
<path d="M8112 15118 c-19 -19 -14 -75 12 -126 13 -26 31 -63 40 -82 9 -19 25
-46 36 -60 l20 -25 0 71 c0 62 -5 80 -40 152 -21 45 -43 82 -48 82 -4 0 -13
-5 -20 -12z"/>
<path d="M17700 15044 c-22 -48 -40 -90 -40 -93 0 -3 -22 -62 -49 -131 -43
-112 -52 -127 -82 -141 -40 -20 -69 -70 -69 -122 0 -47 25 -61 52 -28 10 13
18 30 18 39 0 21 154 325 185 366 67 88 92 196 45 196 -14 0 -29 -22 -60 -86z"/>
<path d="M18330 14965 c-18 -21 -5 -47 22 -43 31 4 40 58 10 58 -11 0 -25 -7
-32 -15z"/>
<path d="M15683 14738 c-28 -29 -73 -89 -98 -133 -26 -44 -69 -103 -96 -132
-54 -57 -53 -56 -39 -84 9 -17 14 -18 34 -7 66 35 179 203 218 322 11 34 25
67 30 74 25 29 -2 8 -49 -40z"/>
<path d="M9955 14746 c-25 -37 -14 -76 42 -149 26 -34 53 -68 60 -75 15 -16
72 -36 79 -29 13 12 -10 71 -40 106 -49 56 -96 119 -96 128 0 4 -7 16 -15 26
-13 18 -14 17 -30 -7z"/>
<path d="M5671 14565 c-1 -11 -16 -45 -34 -75 -52 -87 -61 -117 -61 -210 -1
-133 15 -140 42 -17 13 56 34 139 48 184 21 65 24 88 16 110 -8 22 -11 23 -11
8z"/>
<path d="M8522 14468 c-19 -19 -14 -76 13 -161 14 -43 25 -89 25 -102 0 -14
13 -39 29 -57 l29 -33 7 28 c12 45 -5 146 -38 241 -33 91 -43 106 -65 84z"/>
<path d="M20491 14345 c-16 -111 -15 -261 3 -268 8 -3 22 3 32 14 13 15 17 36
16 101 -2 92 -21 228 -32 228 -4 0 -13 -34 -19 -75z"/>
<path d="M10340 14331 c0 -16 64 -75 112 -102 32 -19 54 -42 73 -78 33 -60 46
-56 52 16 5 42 1 53 -22 82 -41 48 -122 91 -172 91 -24 0 -43 -4 -43 -9z"/>
<path d="M15378 14311 c-25 -16 -66 -55 -91 -87 -25 -33 -66 -79 -92 -104 -87
-84 -127 -140 -171 -241 -42 -96 -46 -129 -19 -129 23 0 56 43 85 113 21 49
48 88 97 140 120 127 257 316 241 332 -2 3 -25 -8 -50 -24z"/>
<path d="M17218 14203 c-8 -10 -21 -40 -27 -67 -15 -63 -43 -117 -97 -189 -40
-54 -54 -94 -38 -110 12 -11 58 24 89 66 75 104 105 170 124 270 8 45 7 47
-14 47 -12 0 -29 -8 -37 -17z"/>
<path d="M10500 14126 c0 -3 38 -57 84 -121 46 -63 86 -119 88 -124 2 -5 53
-34 115 -65 96 -48 115 -61 137 -98 l25 -42 10 28 c18 46 13 90 -11 113 -30
27 -218 121 -252 126 -28 3 -95 63 -157 140 -22 27 -39 46 -39 43z"/>
<path d="M5590 13899 c-1 -2 -8 -44 -16 -94 -29 -181 -29 -165 -6 -165 12 0
26 9 32 19 11 21 8 226 -3 238 -4 3 -7 4 -7 2z"/>
<path d="M8955 13759 c-7 -29 -3 -36 43 -78 28 -25 67 -68 86 -94 20 -26 49
-59 65 -73 25 -21 29 -30 24 -59 -4 -26 -2 -35 9 -35 46 0 65 62 20 68 -18 3
-22 10 -22 42 0 54 -11 78 -69 147 -52 63 -91 96 -128 107 -18 6 -22 2 -28
-25z"/>
<path d="M14752 13539 c-7 -28 -37 -92 -67 -143 -58 -96 -68 -136 -37 -136 10
0 25 6 34 13 25 20 106 163 110 194 3 36 -11 123 -21 123 -4 0 -13 -23 -19
-51z"/>
<path d="M20596 13523 c4 -15 11 -38 15 -51 5 -13 9 -65 9 -115 0 -109 7 -126
44 -109 25 11 26 14 26 109 0 110 -13 144 -69 176 l-32 19 7 -29z"/>
<path d="M16792 13508 c-16 -30 -32 -48 -66 -76 -9 -7 -16 -22 -16 -32 0 -28
49 -27 84 1 32 25 71 102 62 124 -10 26 -46 17 -64 -17z"/>
<path d="M11185 13459 c-16 -5 -43 -10 -58 -11 l-28 -1 33 -36 c18 -20 74 -79
123 -131 125 -131 201 -221 209 -246 4 -12 24 -33 45 -47 21 -14 53 -39 72
-56 36 -33 76 -41 85 -16 9 23 -33 81 -89 122 -61 44 -439 385 -433 390 6 7
130 -44 189 -77 39 -22 64 -44 76 -68 l18 -35 17 33 c9 18 16 41 16 51 0 28
-40 65 -107 99 -69 35 -122 44 -168 29z"/>
<path d="M5499 13269 c-34 -34 -78 -138 -105 -250 -26 -102 -36 -220 -22 -235
5 -4 19 -2 33 4 20 9 25 19 25 49 0 66 49 255 85 331 38 80 45 122 20 122 -8
0 -24 -9 -36 -21z"/>
<path d="M14440 13119 c-60 -71 -73 -106 -41 -117 20 -7 151 135 151 164 0 19
-5 24 -24 24 -18 0 -41 -20 -86 -71z"/>
<path d="M9341 13161 c-18 -33 -13 -52 36 -153 46 -92 70 -118 109 -118 17 0
12 28 -22 114 -23 56 -85 159 -104 171 -5 3 -14 -3 -19 -14z"/>
<path d="M16493 13105 c-12 -8 -29 -34 -38 -58 -10 -27 -27 -49 -48 -61 l-32
-19 33 -10 c24 -7 39 -7 56 3 32 16 58 77 54 123 -3 36 -4 37 -25 22z"/>
<path d="M14188 12905 c-51 -34 -218 -250 -218 -281 0 -33 31 -31 64 4 14 15
64 76 111 136 61 79 85 117 85 138 0 15 -1 28 -3 28 -1 0 -19 -11 -39 -25z"/>
<path d="M20676 12841 c-20 -67 -21 -178 -1 -250 17 -67 26 -76 55 -61 18 10
21 18 16 48 -3 21 -10 82 -15 137 -5 55 -16 118 -24 140 l-14 40 -17 -54z"/>
<path d="M5385 12619 c-4 -23 -24 -74 -45 -113 -20 -39 -43 -89 -50 -111 -7
-22 -24 -62 -36 -90 -18 -37 -24 -67 -23 -115 1 -67 22 -148 32 -120 25 71 37
119 37 147 0 19 13 62 30 97 37 80 72 205 78 275 5 67 -13 91 -23 30z"/>
<path d="M16005 12502 c-44 -38 -93 -104 -100 -135 -6 -22 -4 -27 12 -27 49 0
126 99 121 154 l-3 34 -30 -26z"/>
<path d="M9919 12454 c-23 -27 -17 -104 10 -125 12 -10 27 -34 32 -54 6 -22
16 -35 27 -35 9 0 52 -22 94 -49 61 -40 77 -55 80 -78 3 -20 6 -11 12 31 5 36
5 65 -1 75 -13 21 -123 81 -149 81 -16 0 -26 13 -43 56 -11 31 -21 61 -21 68
0 7 -6 20 -13 30 -12 17 -14 17 -28 0z"/>
<path d="M20846 12229 c-15 -70 -16 -226 -3 -264 l14 -40 13 41 c15 51 10 258
-7 275 -9 9 -13 6 -17 -12z"/>
<path d="M15635 11958 c-94 -135 -108 -158 -120 -196 -7 -23 -7 -23 25 -7 74
39 149 148 136 199 -8 32 -20 33 -41 4z"/>
<path d="M5248 11744 c-5 -4 -8 -19 -8 -34 0 -14 -16 -59 -36 -100 -33 -67
-38 -85 -45 -191 -4 -64 -10 -129 -13 -145 -4 -22 -3 -20 6 6 6 19 28 87 49
150 20 63 43 147 49 185 12 72 11 143 -2 129z"/>
<path d="M10444 11518 c3 -17 13 -40 22 -49 9 -10 29 -55 44 -101 l28 -83 7
59 c9 72 -4 119 -47 169 -42 47 -63 49 -54 5z"/>
<path d="M15191 11401 c-24 -28 -61 -63 -84 -79 -69 -46 -57 -103 13 -67 44
23 120 94 131 123 6 16 5 32 -4 49 l-14 25 -42 -51z"/>
<path d="M20890 11345 c-19 -23 -25 -143 -10 -189 12 -38 25 -44 54 -23 16 11
16 20 5 105 -6 50 -17 99 -23 108 -11 14 -13 14 -26 -1z"/>
<path d="M13760 11246 c0 -49 18 -64 127 -106 59 -23 143 -51 186 -63 45 -12
89 -30 103 -44 14 -13 41 -30 60 -38 31 -13 34 -12 34 3 0 9 -9 36 -20 59 -22
50 -41 60 -235 123 -71 23 -147 51 -167 61 -45 23 -88 25 -88 5z"/>
<path d="M11344 11123 c-96 -86 -174 -175 -174 -200 0 -14 2 -14 18 -2 9 8 33
22 52 31 19 9 73 52 120 95 47 44 95 85 108 92 32 17 26 55 -9 59 -20 2 -45
-14 -115 -75z"/>
<path d="M5121 10955 c-1 -44 -5 -97 -10 -118 -7 -27 -6 -37 2 -34 22 7 30 65
20 149 l-10 83 -2 -80z"/>
<path d="M14611 10830 l-53 -60 -36 28 c-21 16 -47 34 -59 41 -27 14 -73 14
-73 1 0 -25 32 -68 69 -95 28 -19 41 -35 41 -51 0 -17 4 -22 15 -18 9 4 33 -6
55 -21 43 -30 259 -115 291 -115 13 0 19 7 19 21 0 40 -20 57 -105 88 -87 31
-140 55 -163 74 -9 7 -3 20 28 53 57 62 76 114 41 114 -10 0 -42 -27 -70 -60z"/>
<path d="M10950 10841 c0 -5 5 -13 11 -17 6 -3 -7 -16 -31 -30 -50 -29 -144
-99 -223 -168 -54 -46 -132 -145 -123 -154 10 -10 99 49 193 127 57 48 135
106 173 129 l70 42 52 -31 c29 -17 63 -40 76 -52 17 -16 27 -19 39 -11 28 18
26 34 -9 67 -46 42 -228 121 -228 98z"/>
<path d="M21034 10825 c-11 -24 -12 -810 -1 -821 4 -4 10 -4 15 0 11 11 15
768 4 807 -8 30 -10 32 -18 14z"/>
<path d="M14850 10473 c-40 -16 -40 -71 -1 -116 53 -60 361 -203 361 -168 0 5
-10 23 -23 42 -16 24 -50 48 -117 82 -133 67 -169 93 -186 133 -8 19 -15 34
-17 33 -1 0 -9 -3 -17 -6z"/>
<path d="M5040 10406 c-20 -47 -60 -212 -60 -248 0 -23 32 -24 53 0 35 38 62
243 37 282 -7 11 -14 3 -30 -34z"/>
<path d="M10348 10413 c-14 -16 -43 -53 -65 -83 -49 -66 -87 -103 -173 -167
-64 -48 -80 -74 -65 -110 5 -14 11 -11 38 14 18 16 46 38 62 48 67 40 133 97
166 142 18 27 53 72 77 101 24 30 41 60 38 68 -9 23 -50 16 -78 -13z"/>
<path d="M11466 10362 c-9 -15 13 -96 30 -109 11 -8 47 -13 93 -13 55 0 84 -5
106 -18 17 -10 43 -23 59 -30 27 -12 28 -12 15 4 -8 10 -40 39 -72 66 -50 41
-64 48 -101 48 -32 0 -54 8 -84 30 -23 16 -43 26 -46 22z"/>
<path d="M13961 10174 c-12 -15 -42 -37 -69 -49 -26 -12 -67 -41 -92 -65 l-45
-42 44 30 c37 27 50 30 86 25 70 -9 141 43 133 99 -4 33 -32 34 -57 2z"/>
<path d="M9743 9787 c-136 -135 -193 -199 -193 -215 0 -56 60 -11 265 198 72
72 142 139 158 148 43 26 31 62 -21 62 -8 0 -102 -87 -209 -193z"/>
<path d="M12430 9852 c0 -43 22 -53 129 -62 57 -5 109 -14 116 -20 22 -18 27
6 11 45 -20 46 -46 55 -162 55 -84 0 -94 -2 -94 -18z"/>
<path d="M13472 9848 c-7 -7 -12 -17 -12 -22 0 -6 -16 -31 -35 -55 -39 -48
-43 -61 -20 -61 30 0 95 73 102 113 6 39 -10 50 -35 25z"/>
<path d="M21066 9809 c-29 -79 -36 -404 -11 -453 8 -16 24 -63 35 -105 11 -44
27 -81 37 -88 10 -7 24 -17 31 -23 29 -26 -1 180 -36 247 -7 13 -12 69 -12
139 0 98 -22 279 -36 293 -2 2 -6 -2 -8 -10z"/>
<path d="M5000 9775 c-16 -20 -90 -393 -90 -457 0 -41 3 -48 19 -48 30 0 51
28 51 68 0 20 14 102 30 182 32 160 38 241 16 259 -10 9 -16 8 -26 -4z"/>
<path d="M12805 9385 c-30 -25 -55 -35 -133 -55 -23 -6 -40 -15 -37 -20 9 -15
65 -12 124 6 45 13 55 21 67 51 9 19 14 37 12 39 -2 2 -17 -8 -33 -21z"/>
<path d="M9098 9390 c-10 -6 -34 -43 -55 -82 -24 -46 -70 -106 -125 -166 -49
-51 -95 -104 -104 -117 -9 -14 -21 -25 -28 -25 -20 0 -144 -88 -211 -152 -65
-61 -115 -138 -115 -178 0 -26 17 -26 25 0 8 24 182 178 271 239 49 34 64 50
64 68 0 30 13 44 87 87 32 19 77 54 100 78 48 50 145 213 141 237 -4 19 -27
24 -50 11z"/>
<path d="M16234 9218 c8 -40 22 -52 100 -78 87 -30 136 -58 206 -118 34 -29
64 -51 67 -49 4 5 -14 51 -48 122 -11 22 -28 46 -39 53 -36 22 -247 102 -270
102 -20 0 -22 -4 -16 -32z"/>
<path d="M12216 9135 c-73 -50 -85 -75 -37 -75 39 0 126 59 126 85 0 32 -35
28 -89 -10z"/>
<path d="M21197 8939 c-7 -25 6 -104 28 -173 8 -27 15 -63 15 -81 0 -17 7 -40
15 -51 15 -19 15 -19 35 5 27 31 25 78 -4 174 -22 71 -62 147 -77 147 -4 0 -9
-9 -12 -21z"/>
<path d="M4930 8905 c-12 -30 -50 -332 -50 -393 0 -38 24 -53 48 -28 24 24 55
303 42 371 -15 73 -26 86 -40 50z"/>
<path d="M16748 8910 c-43 -26 -14 -54 67 -63 84 -10 183 -46 223 -81 50 -43
92 -69 92 -56 0 43 -26 103 -56 130 -62 54 -278 100 -326 70z"/>
<path d="M11675 8826 c-115 -54 -285 -172 -285 -197 0 -19 39 -8 76 22 22 17
84 62 139 100 104 71 154 109 145 108 -3 0 -36 -15 -75 -33z"/>
<path d="M14190 8695 c0 -38 32 -52 216 -95 93 -21 196 -46 229 -54 73 -20
113 -20 155 -3 l31 14 -25 17 c-35 22 -525 146 -580 146 -21 0 -26 -5 -26 -25z"/>
<path d="M8148 8610 c-9 -6 -41 -45 -71 -88 -30 -43 -85 -106 -123 -140 -115
-106 -126 -141 -22 -72 87 59 151 122 209 207 61 90 64 126 7 93z"/>
<path d="M11210 8480 c-21 -10 -43 -33 -53 -54 -9 -20 -15 -36 -13 -36 2 0 22
7 45 15 58 20 101 53 101 76 0 25 -33 25 -80 -1z"/>
<path d="M14984 8457 c-13 -36 15 -65 117 -117 56 -29 121 -69 143 -89 41 -37
100 -81 109 -81 12 0 -48 128 -71 152 -32 31 -247 148 -274 148 -10 0 -21 -6
-24 -13z"/>
<path d="M21297 8443 c-3 -5 -10 -33 -17 -63 -13 -60 -11 -453 2 -466 5 -4 19
-2 33 4 l25 12 0 210 c0 123 -5 230 -11 256 -11 44 -23 62 -32 47z"/>
<path d="M17500 8373 c1 -51 63 -70 251 -79 127 -7 139 -6 145 11 16 40 -7 49
-142 61 -71 7 -157 15 -191 18 -56 6 -63 5 -63 -11z"/>
<path d="M7695 8328 c-43 -29 -104 -78 -136 -109 -47 -45 -59 -63 -59 -88 0
-30 -6 -35 -42 -32 -20 2 -273 -151 -300 -182 -46 -50 -5 -49 87 2 134 76 259
166 276 199 11 22 59 62 141 120 69 48 140 99 159 114 l34 28 -41 0 c-33 0
-56 -10 -119 -52z"/>
<path d="M10645 8141 c-49 -16 -143 -53 -207 -84 -64 -31 -152 -70 -196 -87
-43 -16 -105 -50 -138 -75 -32 -24 -69 -45 -81 -45 -24 0 -122 -84 -111 -95 8
-8 138 64 138 76 0 16 95 61 165 79 117 30 418 173 505 240 14 11 23 19 20 19
-3 0 -45 -13 -95 -28z"/>
<path d="M18156 8157 c-49 -21 -11 -34 114 -39 63 -3 123 -9 133 -13 22 -9 24
27 1 49 -19 20 -203 22 -248 3z"/>
<path d="M4881 8130 c-17 -139 -30 -199 -66 -314 -46 -143 -56 -206 -32 -206
29 0 47 29 78 120 27 81 32 114 36 225 3 77 1 140 -6 155 -5 14 -10 23 -10 20z"/>
<path d="M22841 7993 c-53 -105 -63 -117 -273 -336 -221 -230 -242 -247 -313
-247 -50 0 -54 2 -117 63 -54 52 -70 75 -97 142 -100 251 -226 423 -255 349
-11 -30 -6 -47 28 -84 44 -49 96 -139 131 -225 55 -139 80 -180 146 -247 l66
-68 72 0 c40 0 87 6 107 15 40 17 203 172 384 367 97 105 137 156 170 218 45
87 48 130 10 130 -15 0 -30 -20 -59 -77z"/>
<path d="M15490 8033 c0 -24 31 -41 102 -56 40 -8 109 -23 153 -32 155 -34
174 -31 154 22 -14 37 -153 69 -326 75 -59 2 -83 0 -83 -9z"/>
<path d="M18371 7952 c69 -55 124 -110 175 -179 12 -15 59 -50 105 -77 181
-107 234 -141 291 -190 122 -105 148 -117 148 -66 0 55 -104 149 -280 253 -52
31 -127 76 -165 101 -39 24 -83 48 -98 51 -16 4 -76 43 -134 86 -58 44 -108
79 -110 79 -3 0 28 -26 68 -58z"/>
<path d="M21374 7954 c-4 -22 -8 -97 -8 -169 -1 -123 0 -130 19 -130 28 0 33
42 25 190 -8 133 -23 177 -36 109z"/>
<path d="M6768 7886 c-34 -12 -74 -28 -88 -36 -58 -30 -169 -111 -189 -136
-22 -28 -37 -71 -28 -80 7 -8 57 7 54 16 -2 10 87 80 148 115 56 34 223 102
269 110 51 10 34 21 -41 28 -48 4 -75 0 -125 -17z"/>
<path d="M16026 7745 c-10 -27 9 -42 90 -69 42 -14 98 -41 125 -61 27 -19 61
-35 75 -35 24 0 25 3 19 28 -16 64 -94 111 -207 123 -45 5 -85 14 -89 20 -4 7
-9 4 -13 -6z"/>
<path d="M6398 7586 c-57 -44 -161 -189 -204 -286 -26 -58 -29 -69 -13 -50 12
14 35 48 51 77 16 28 46 71 66 95 21 23 54 64 74 89 21 26 59 61 84 78 47 31
47 31 17 31 -19 0 -47 -13 -75 -34z"/>
<path d="M9110 7520 c-97 -26 -195 -59 -188 -65 2 -1 55 1 118 5 90 5 128 12
174 32 l60 26 -30 14 c-27 14 -37 13 -134 -12z"/>
<path d="M5858 7333 c-41 -43 -56 -72 -93 -169 -14 -38 -48 -111 -75 -162 -28
-51 -50 -103 -50 -115 1 -20 3 -19 31 13 50 58 126 191 160 279 19 49 49 103
76 136 l44 55 -28 0 c-20 0 -40 -11 -65 -37z"/>
<path d="M8440 7331 c-147 -58 -202 -91 -148 -91 42 1 273 94 273 110 0 24
-25 20 -125 -19z"/>
<path d="M21457 7335 c-12 -39 -27 -161 -27 -228 0 -73 11 -88 49 -67 16 8 21
20 21 53 0 54 -20 214 -30 241 -7 20 -7 20 -13 1z"/>
<path d="M19262 7318 c-20 -20 -14 -72 11 -95 35 -33 135 -79 233 -108 49 -15
96 -29 104 -31 8 -3 24 2 35 9 16 12 17 19 8 39 -9 19 -30 30 -104 52 -125 37
-218 83 -238 118 -17 30 -30 35 -49 16z"/>
<path d="M16605 7283 c22 -20 76 -53 120 -73 231 -107 287 -132 291 -127 7 7
-26 24 -208 107 -81 37 -165 81 -186 99 -54 42 -66 39 -17 -6z"/>
<path d="M4474 7190 c-91 -21 -154 -105 -154 -205 0 -54 -2 -60 -53 -118 -161
-186 -207 -311 -207 -567 0 -217 31 -316 135 -429 100 -107 223 -176 391 -218
92 -23 470 -25 554 -4 211 54 409 201 483 358 29 62 32 78 35 185 5 135 -14
216 -69 303 -142 225 -534 561 -760 652 -108 44 -271 64 -355 43z m218 -81
c67 -14 197 -74 276 -128 244 -166 523 -442 587 -584 56 -122 53 -276 -7 -389
-62 -117 -236 -244 -388 -282 -139 -35 -451 -28 -592 13 -137 40 -241 102
-325 194 -89 98 -116 184 -115 375 0 182 24 277 103 408 50 82 183 240 228
270 34 22 104 39 186 44 6 0 1 7 -9 15 -12 9 -42 15 -78 15 -66 0 -115 -20
-175 -73 l-37 -32 34 63 c49 93 65 102 171 102 48 0 112 -5 141 -11z"/>
<path d="M4326 6571 c-3 -5 4 -11 16 -14 21 -6 21 -8 14 -184 -4 -112 -3 -184
3 -193 12 -18 228 -27 284 -12 l36 10 6 -42 c37 -245 49 -280 103 -303 37 -15
55 -13 117 13 l39 16 -39 15 c-22 8 -50 17 -62 20 -40 9 -54 39 -74 150 -24
143 -24 170 2 183 29 16 22 54 -12 58 -25 3 -27 7 -33 70 -3 37 -6 90 -6 117
0 54 -8 95 -19 95 -4 0 -15 -14 -25 -32 -17 -28 -18 -46 -13 -165 l6 -133
-129 0 -130 0 -1 48 c-1 118 -16 261 -28 276 -15 17 -46 21 -55 7z"/>
<path d="M7693 7074 c-23 -9 -77 -35 -120 -60 -63 -35 -72 -44 -50 -44 15 0
55 11 89 25 35 13 90 32 123 41 78 22 82 24 54 40 -30 17 -43 16 -96 -2z"/>
<path d="M19880 6955 c-19 -23 -3 -55 28 -55 17 0 71 -29 142 -75 63 -42 125
-78 137 -81 29 -8 52 1 60 22 8 21 -3 30 -157 129 -95 62 -122 75 -156 75 -24
0 -47 -6 -54 -15z"/>
<path d="M17210 6940 c0 -12 22 -25 70 -43 66 -24 80 -22 50 8 -24 24 -120 52
-120 35z"/>
<path d="M7155 6894 c-55 -25 -122 -54 -148 -66 -41 -18 -46 -23 -32 -31 36
-20 119 0 269 64 148 63 149 64 110 71 -73 13 -99 8 -199 -38z"/>
<path d="M17410 6850 c8 -5 20 -10 25 -10 6 0 3 5 -5 10 -8 5 -19 10 -25 10
-5 0 -3 -5 5 -10z"/>
<path d="M17480 6823 c47 -20 116 -30 310 -43 91 -5 212 -16 270 -24 101 -13
136 -8 114 14 -20 20 -131 30 -379 36 -174 4 -263 10 -294 20 -57 18 -66 17
-21 -3z"/>
<path d="M6570 6765 c-47 -24 -103 -47 -124 -52 -45 -9 -70 -38 -46 -54 8 -5
38 -8 66 -6 40 3 75 17 172 72 125 71 134 85 57 85 -28 -1 -66 -14 -125 -45z"/>
<path d="M18500 6708 c8 -8 58 -27 110 -42 52 -15 118 -37 145 -48 28 -11 65
-23 84 -26 l34 -5 -19 33 c-40 69 -82 84 -258 95 -96 6 -109 5 -96 -7z"/>
<path d="M6088 6606 c-62 -25 -143 -70 -170 -94 -34 -29 -12 -75 22 -47 8 7
78 45 155 85 77 40 142 74 144 76 2 2 -18 4 -45 4 -28 0 -73 -10 -106 -24z"/>
<path d="M20375 6564 c-22 -22 -7 -36 61 -58 28 -9 62 -28 75 -42 48 -52 115
-69 155 -40 26 20 10 44 -40 61 -21 8 -53 27 -70 42 -17 16 -44 35 -59 41 -40
17 -103 15 -122 -4z"/>
<path d="M19034 6349 c-11 -18 7 -48 41 -69 51 -31 250 -100 335 -116 76 -13
423 -20 454 -8 9 3 16 14 16 23 0 36 -20 41 -175 41 -206 1 -275 12 -455 71
-208 68 -209 69 -216 58z"/>
<path d="M5950 6084 c0 -6 11 -23 25 -38 l24 -26 173 0 c137 0 186 4 238 18
l64 19 -34 13 c-46 18 -490 31 -490 14z"/>
<path d="M7907 6020 c-16 -5 -43 -20 -61 -33 -32 -25 -78 -41 -148 -52 -38 -6
-49 -19 -25 -28 8 -3 42 -8 78 -12 60 -6 67 -5 109 24 25 17 56 31 70 31 14 0
47 8 74 19 l50 19 -42 21 c-44 22 -61 24 -105 11z"/>
<path d="M20143 6019 c-18 -5 -33 -13 -33 -18 0 -24 154 -60 287 -66 123 -6
158 4 158 45 0 25 0 25 -125 31 -69 4 -154 10 -190 13 -36 3 -80 1 -97 -5z"/>
<path d="M7195 5976 c-55 -18 -261 -125 -281 -147 -9 -10 -13 -23 -9 -28 13
-22 57 -10 151 39 53 28 122 57 153 66 31 9 67 23 79 31 23 14 23 15 6 34 -20
22 -42 23 -99 5z"/>
<path d="M12665 5933 c-16 -2 -66 -14 -110 -25 -44 -11 -122 -23 -173 -27 -66
-6 -98 -13 -110 -24 -15 -16 -15 -18 1 -34 25 -26 139 -21 264 11 56 14 128
26 160 26 32 0 83 7 113 15 72 19 86 19 71 1 -9 -11 -10 -20 -1 -35 10 -20 19
-21 158 -20 81 1 179 4 217 8 l70 6 -45 22 c-60 29 -162 45 -290 43 -78 -1
-123 4 -175 19 -70 20 -92 22 -150 14z"/>
<path d="M8857 5864 c-3 -3 -61 -10 -129 -14 -127 -9 -203 -24 -193 -40 25
-40 331 -38 439 3 l40 15 -42 21 c-39 20 -102 28 -115 15z"/>
<path d="M11876 5859 c-10 -6 -48 -15 -85 -21 -157 -22 -155 -21 -135 -39 29
-25 106 -40 155 -30 69 13 144 53 144 76 0 15 -7 21 -30 22 -16 2 -38 -2 -49
-8z"/>
<path d="M14805 5858 c-109 -9 -155 -22 -162 -45 -3 -7 8 -15 24 -18 28 -6
183 -47 348 -92 82 -23 113 -26 341 -30 219 -5 258 -3 303 12 28 9 51 21 51
26 0 6 -16 17 -35 25 -29 12 -92 14 -340 14 -248 -1 -325 2 -417 16 l-113 18
60 7 c76 8 95 16 95 40 0 15 -31 43 -42 38 -2 -1 -52 -6 -113 -11z"/>
<path d="M11270 5829 c-65 -16 -163 -32 -225 -37 -60 -5 -121 -14 -134 -21
-22 -12 -22 -14 -7 -29 12 -13 40 -18 105 -20 75 -3 111 2 235 32 80 20 158
43 172 53 l26 17 -22 18 c-27 22 -11 23 -150 -13z"/>
<path d="M14040 5780 c-91 -16 -203 -30 -250 -30 -92 -2 -181 -19 -181 -35 0
-16 90 -33 183 -34 56 -1 152 10 263 29 97 17 188 30 203 30 37 0 132 28 132
39 0 16 -62 31 -124 30 -34 0 -135 -14 -226 -29z"/>
<path d="M10419 5767 c-30 -13 -77 -40 -104 -60 -27 -21 -60 -40 -74 -43 -14
-3 -35 -9 -46 -13 -17 -7 -16 -9 14 -16 28 -6 47 0 115 34 44 23 110 51 146
64 41 14 65 28 65 37 0 24 -54 22 -116 -3z"/>
<path d="M9470 5745 c-21 -26 -7 -49 35 -58 67 -14 218 -4 250 17 l28 19 -24
18 c-20 16 -43 19 -150 19 -99 0 -129 -3 -139 -15z"/>
<path d="M18530 5674 c-81 -27 -128 -37 -205 -41 -115 -7 -153 -23 -126 -55
25 -29 166 -25 277 8 49 15 114 34 144 43 30 9 65 22 78 29 23 13 23 14 6 33
-24 26 -53 23 -174 -17z"/>
<path d="M15736 5685 c-37 -37 -13 -52 94 -58 61 -4 138 -17 215 -39 119 -32
122 -32 345 -33 197 0 230 2 264 18 l38 18 -33 18 c-30 16 -73 19 -334 25
-343 7 -363 9 -367 40 -3 20 -9 21 -104 24 -83 2 -105 0 -118 -13z"/>
<path d="M19090 5663 c-19 -2 -55 -6 -79 -9 -41 -5 -43 -7 -27 -22 12 -12 43
-19 109 -23 51 -4 160 -23 244 -43 125 -29 185 -38 335 -46 230 -14 420 -5
443 20 9 10 13 24 9 35 -7 17 -23 18 -293 9 -157 -4 -326 -8 -376 -8 -87 0
-303 32 -277 41 30 11 -4 56 -40 51 -7 0 -29 -3 -48 -5z"/>
<path d="M17270 5629 c-64 -11 -162 -18 -251 -18 -159 -1 -187 -9 -175 -49 7
-21 12 -22 164 -22 159 0 343 20 392 44 14 6 25 20 25 31 0 29 -40 33 -155 14z"/>
<path d="M3052 5594 c-39 -9 -92 -68 -92 -103 0 -42 25 -41 66 4 17 19 36 35
42 35 6 0 12 -41 14 -101 l3 -100 50 -47 c28 -26 76 -70 108 -99 31 -29 57
-56 57 -60 0 -4 -57 -19 -128 -32 -202 -38 -252 -62 -252 -123 0 -28 42 -72
83 -87 38 -15 464 -15 505 0 35 12 48 39 33 68 -6 11 -43 48 -82 83 l-71 63
70 12 c94 15 126 33 146 83 34 85 21 123 -72 213 -148 145 -229 187 -372 192
-47 2 -95 1 -108 -1z m235 -80 c63 -22 179 -102 242 -169 56 -59 65 -98 36
-154 -15 -30 -49 -42 -157 -57 l-47 -6 -98 87 c-151 134 -143 122 -143 226 l0
89 60 0 c32 0 81 -7 107 -16z m139 -501 c46 -43 84 -82 84 -89 0 -17 -60 -24
-205 -23 -186 0 -276 11 -314 38 -35 25 -40 55 -12 71 14 7 241 58 359 79 2 1
41 -34 88 -76z"/>
<path d="M17513 5583 c-17 -6 -16 -18 3 -37 17 -18 77 -21 137 -7 48 11 53 17
37 36 -9 11 -32 15 -89 14 -42 0 -82 -3 -88 -6z"/>
<path d="M20265 5520 c3 -5 15 -10 25 -10 10 0 22 5 25 10 4 6 -7 10 -25 10
-18 0 -29 -4 -25 -10z"/>
</g>
</svg>
