<?xml version="1.0" standalone="no"?>
<!DOCTYPE svg PUBLIC "-//W3C//DTD SVG 20010904//EN"
 "http://www.w3.org/TR/2001/REC-SVG-20010904/DTD/svg10.dtd">
<svg version="1.0" xmlns="http://www.w3.org/2000/svg"
 width="2550.000000pt" height="2550.000000pt" viewBox="0 0 2550.000000 2550.000000"
 preserveAspectRatio="xMidYMid meet">

<g transform="translate(0.000000,2550.000000) scale(0.100000,-0.100000)"
fill="#000000" stroke="none">
<path d="M11574 20760 c-35 -14 -38 -30 -11 -58 46 -48 79 -194 132 -587 9
-66 21 -127 26 -137 9 -17 12 -17 39 -3 30 16 30 16 30 108 0 88 -10 130 -27
114 -4 -4 -15 47 -25 115 -33 231 -75 401 -110 438 -21 22 -23 23 -54 10z"/>
<path d="M12009 20400 c-72 -76 -117 -176 -127 -275 -9 -103 -1 -159 27 -189
54 -57 207 -96 378 -96 174 0 195 25 201 243 4 113 1 146 -13 182 -29 78 -105
125 -249 157 -169 37 -161 38 -217 -22z m251 -66 c71 -21 126 -57 146 -95 21
-41 17 -286 -5 -312 -10 -13 -31 -17 -95 -17 -163 1 -333 50 -357 103 -15 34
4 174 31 228 l21 40 21 -26 21 -27 13 32 c8 18 14 45 14 61 l0 29 68 0 c38 0
92 -7 122 -16z"/>
<path d="M6263 20340 c-23 -12 -74 -55 -112 -96 l-71 -74 -59 0 c-41 0 -65 -5
-75 -16 -20 -19 -21 -99 -2 -133 l14 -25 16 32 c9 17 16 40 16 52 0 14 6 20
24 20 l24 0 -28 -72 c-56 -144 -62 -196 -67 -543 -4 -268 -2 -331 11 -388 43
-184 150 -302 321 -353 86 -25 335 -26 420 0 269 80 475 325 475 563 0 53 0
53 28 47 88 -19 151 -39 178 -56 54 -32 160 -153 214 -245 102 -172 121 -190
165 -157 17 12 21 29 24 101 3 92 -4 100 -34 33 -10 -22 -21 -40 -24 -40 -4 0
-31 41 -60 90 -29 50 -72 115 -97 145 l-44 54 33 -7 c17 -4 291 -7 607 -7
l575 0 120 28 c288 67 291 67 1050 67 516 0 734 4 865 15 262 22 2469 22 2650
0 162 -20 302 -23 1755 -35 704 -6 1264 -15 1325 -22 58 -5 155 -23 216 -39
l112 -29 586 0 c588 -1 626 1 626 34 0 37 -14 38 -602 37 l-573 -1 -94 25
c-137 37 -255 53 -441 60 -91 4 -736 11 -1435 15 -1200 8 -1281 9 -1470 30
-196 21 -224 21 -1380 16 -799 -3 -1203 -8 -1250 -15 -44 -7 -368 -15 -870
-19 l-800 -8 -205 -45 -205 -44 -550 0 c-534 1 -553 1 -655 23 -90 20 -115 30
-175 71 -38 27 -71 53 -72 58 -2 5 65 41 149 80 293 135 339 166 290 192 -15
8 -37 2 -103 -31 -46 -22 -160 -76 -254 -119 l-170 -78 -5 112 c-5 98 -9 119
-35 171 -58 114 -207 220 -404 286 -137 46 -217 59 -399 67 l-163 6 43 44 c60
62 84 72 198 83 117 11 145 4 165 -42 17 -39 19 -28 4 24 -14 54 -48 68 -172
74 -91 5 -107 3 -144 -16z m257 -266 c258 -45 489 -174 556 -311 26 -51 28
-67 32 -213 7 -227 -8 -334 -58 -437 -69 -141 -204 -255 -348 -294 -77 -22
-287 -26 -374 -8 -151 32 -264 142 -304 298 -13 54 -15 111 -11 385 4 343 12
403 67 531 35 82 25 78 200 70 85 -3 193 -13 240 -21z m664 -619 c3 -8 1 -15
-4 -15 -6 0 -10 7 -10 15 0 8 2 15 4 15 2 0 6 -7 10 -15z"/>
<path d="M6432 19964 l-22 -15 0 -465 c0 -297 4 -472 10 -484 9 -16 14 -18 35
-8 13 6 25 16 27 22 9 31 -8 946 -17 955 -8 8 -18 6 -33 -5z"/>
<path d="M17702 19878 c-24 -24 -13 -55 33 -92 73 -60 110 -103 222 -256 58
-80 126 -168 149 -197 l44 -51 -83 -30 c-186 -67 -315 -148 -430 -270 -65 -69
-87 -113 -87 -172 0 -32 4 -40 18 -40 25 0 52 31 52 60 0 35 35 83 107 150
115 105 174 137 422 231 72 27 124 69 119 96 -2 10 -24 28 -50 40 -39 19 -62
45 -154 170 -140 193 -203 267 -272 326 -60 50 -71 54 -90 35z"/>
<path d="M18633 19819 c-48 -25 -58 -70 -58 -259 0 -139 4 -184 17 -219 14
-38 15 -52 5 -95 -7 -31 -12 -128 -12 -246 1 -210 7 -241 61 -323 23 -34 23
-39 9 -54 -9 -8 -14 -22 -11 -30 3 -8 6 -18 6 -22 0 -5 23 -11 51 -14 29 -4
61 -13 73 -22 189 -139 302 -173 606 -182 151 -4 215 -2 284 10 249 44 515
258 630 509 42 91 56 163 56 293 0 180 -45 280 -169 379 -163 130 -346 206
-621 257 -101 18 -162 21 -510 25 -279 3 -401 1 -417 -7z m227 -125 c-84 -81
-142 -159 -198 -266 -33 -64 -42 -75 -37 -48 3 19 9 107 14 196 4 88 11 166
15 172 5 8 48 12 141 12 l133 0 -68 -66z m460 56 c385 -29 677 -133 851 -302
97 -95 104 -116 104 -298 0 -145 -2 -159 -26 -218 -47 -110 -92 -174 -189
-273 -140 -141 -274 -213 -421 -226 l-66 -6 5 32 c3 22 -1 38 -13 51 -23 26
-45 25 -45 0 0 -12 -7 -20 -17 -20 -31 0 -251 38 -433 75 -96 19 -179 35 -183
35 -5 0 40 25 100 54 196 99 369 221 397 280 39 82 7 194 -71 253 -87 65 -129
73 -373 73 -193 0 -220 -2 -228 -16 -5 -9 -7 -25 -5 -35 4 -16 24 -18 226 -21
211 -3 225 -5 271 -27 27 -14 66 -41 87 -61 35 -33 39 -42 39 -86 0 -45 -4
-53 -42 -91 -90 -86 -398 -258 -484 -270 -36 -5 -41 -2 -72 36 -71 88 -77 114
-77 331 0 176 2 202 24 270 55 177 189 372 311 454 29 19 127 21 330 6z m-120
-1290 c155 -30 187 -38 130 -34 -115 8 -201 22 -273 44 -37 12 -67 23 -67 25
0 6 -28 11 210 -35z"/>
<path d="M6892 18764 c-42 -29 -21 -132 34 -171 45 -32 172 -68 379 -108 222
-43 354 -50 382 -22 14 13 15 21 7 35 -9 13 -31 18 -110 23 -108 7 -433 68
-528 100 -90 31 -116 52 -116 98 0 49 -18 66 -48 45z"/>
<path d="M6805 18647 c-11 -27 -14 -97 -15 -328 0 -162 -1 -302 0 -312 0 -13
6 -17 22 -15 42 6 48 38 48 281 l0 228 78 -68 c234 -203 655 -616 819 -803
113 -129 207 -223 303 -301 36 -29 103 -87 150 -129 47 -42 133 -116 192 -164
123 -100 188 -159 413 -371 88 -84 203 -189 255 -235 52 -46 183 -167 290
-270 107 -102 224 -213 259 -246 35 -32 120 -120 188 -194 127 -137 209 -252
383 -533 47 -76 115 -177 152 -225 90 -116 100 -135 108 -214 9 -79 32 -126
162 -338 141 -228 151 -242 246 -341 50 -52 101 -107 113 -124 13 -16 49 -59
79 -95 31 -36 83 -103 115 -150 32 -47 78 -114 103 -150 25 -36 51 -69 58 -73
8 -4 14 -13 14 -18 0 -27 57 -128 88 -155 25 -22 34 -35 29 -48 -15 -38 -344
-173 -552 -226 -104 -27 -115 -33 -115 -67 0 -25 0 -25 88 -21 71 2 93 7 119
26 17 12 76 38 130 58 54 19 172 71 263 115 91 43 177 79 191 79 14 0 35 9 48
21 27 25 23 61 -16 166 -44 118 -63 196 -69 278 -8 117 -10 125 -39 125 -18 0
-26 -7 -31 -26 -14 -56 10 -226 50 -349 5 -15 4 -15 -5 3 -20 37 -31 28 -54
-43 -5 -17 -10 -13 -29 26 -13 25 -27 56 -31 70 -4 13 -22 41 -39 61 -17 20
-58 75 -91 123 -124 179 -251 337 -360 450 -100 103 -120 132 -247 340 -142
234 -148 245 -148 293 0 72 -26 128 -112 244 -47 62 -126 181 -177 263 -183
295 -212 335 -393 541 -48 54 -115 124 -150 154 -34 30 -162 150 -283 265
-121 116 -278 262 -350 326 -71 64 -200 183 -285 264 -85 81 -202 187 -259
234 -58 47 -141 118 -185 156 -44 39 -127 110 -185 159 -144 121 -194 169
-333 326 -67 74 -171 187 -232 250 -166 172 -685 650 -705 650 -4 0 -13 18
-20 40 -16 53 -29 58 -46 17z m4761 -5327 c5 -22 2 -28 -15 -33 -20 -5 -21 -1
-20 61 l1 67 14 -34 c8 -18 17 -46 20 -61z"/>
<path d="M5940 18435 c-48 -59 -55 -63 -64 -40 -3 8 -10 15 -15 15 -12 0 -41
-74 -41 -104 0 -16 -19 -42 -61 -80 -55 -52 -64 -56 -107 -56 -65 0 -92 -20
-92 -70 0 -32 5 -43 28 -57 15 -9 29 -18 31 -20 3 -2 -9 -17 -25 -34 -26 -28
-26 -30 -6 -20 13 7 45 19 72 27 61 18 77 36 62 69 -7 14 -20 25 -29 25 -10 0
2 11 27 26 25 14 57 37 73 52 l27 26 0 -397 c0 -373 -1 -406 -25 -564 -14 -92
-37 -215 -50 -273 -13 -58 -29 -143 -35 -190 -15 -114 -44 -244 -68 -305 -48
-122 -85 -378 -97 -675 -13 -320 -38 -507 -130 -965 -31 -156 -61 -338 -70
-430 -9 -88 -22 -200 -30 -250 -8 -49 -19 -144 -25 -210 -12 -149 -13 -1234 0
-1330 5 -38 12 -349 16 -690 7 -685 11 -635 -61 -820 -28 -73 -50 -152 -64
-235 -12 -69 -26 -141 -32 -161 -5 -19 -18 -96 -29 -170 -11 -74 -31 -180 -45
-237 -20 -84 -25 -129 -25 -240 0 -105 -5 -157 -21 -222 -11 -47 -25 -131 -29
-188 -5 -57 -18 -154 -29 -215 -17 -91 -22 -180 -29 -477 -8 -332 -11 -370
-29 -420 -35 -91 -90 -281 -103 -350 -29 -163 -78 -331 -115 -403 -8 -16 -15
-40 -15 -53 0 -23 -3 -25 -37 -22 l-37 3 -12 67 c-17 93 -65 177 -148 261
-117 119 -299 189 -216 84 11 -14 50 -48 88 -75 72 -54 163 -158 186 -213 8
-19 20 -63 26 -99 21 -109 10 -103 178 -98 l147 5 262 76 c144 42 284 87 311
101 56 28 106 81 98 103 -4 8 -6 19 -6 24 0 5 -11 9 -23 9 -16 0 -28 -9 -35
-26 -8 -15 -32 -34 -65 -49 -73 -33 -526 -163 -598 -171 l-60 -7 21 53 c11 29
25 61 31 72 12 23 73 267 89 358 6 36 36 143 66 238 63 198 62 189 69 602 4
252 8 323 25 409 11 57 25 154 30 215 5 61 17 136 25 166 10 35 18 113 21 215
4 120 11 187 30 266 13 58 31 153 39 211 25 180 94 502 119 559 13 30 36 92
51 139 l27 85 -6 625 c-4 344 -11 657 -16 695 -13 95 -12 1203 0 1340 6 61 17
153 25 205 8 52 19 149 25 215 13 147 27 232 80 490 85 419 111 618 125 960
12 285 43 489 99 653 23 68 55 222 71 347 4 28 15 84 26 126 10 42 32 163 49
269 30 191 30 192 30 624 l0 433 46 77 c25 42 50 78 55 81 11 7 12 65 2 65 -5
0 -28 -25 -53 -55z"/>
<path d="M19045 18305 c-27 -8 -106 -24 -175 -36 -176 -30 -293 -61 -395 -105
-130 -56 -180 -115 -141 -166 18 -24 19 -23 41 18 35 65 227 138 455 174 41 6
124 23 184 36 60 13 113 24 117 24 21 0 8 -75 -22 -124 l-31 -51 31 29 31 30
0 -28 c0 -37 -67 -134 -127 -183 -26 -21 -88 -69 -138 -105 -49 -37 -101 -79
-115 -93 -14 -15 -56 -48 -95 -73 -38 -24 -92 -64 -120 -87 -27 -23 -69 -52
-92 -63 -24 -13 -59 -45 -85 -79 -58 -76 -128 -131 -290 -227 -298 -177 -431
-261 -495 -316 -38 -32 -135 -114 -218 -183 -82 -68 -211 -182 -285 -253 -74
-71 -155 -147 -180 -167 -77 -65 -283 -290 -360 -393 -41 -55 -143 -166 -226
-249 -191 -190 -275 -297 -398 -508 -15 -27 -85 -110 -154 -185 -211 -228
-229 -249 -298 -355 -101 -153 -287 -398 -357 -469 -101 -102 -218 -201 -380
-321 -186 -139 -239 -183 -392 -327 -250 -235 -445 -400 -589 -494 l-89 -58
-71 6 c-39 3 -95 6 -125 6 -46 0 -52 2 -46 18 16 42 36 139 60 297 14 94 30
172 36 173 13 5 0 22 -17 22 -20 0 -30 -29 -74 -221 -21 -92 -53 -202 -69
-245 -17 -44 -31 -85 -31 -91 0 -8 -12 -13 -29 -13 -16 0 -39 -8 -51 -18 l-23
-19 20 -20 c19 -19 31 -20 176 -17 136 3 161 6 198 25 51 26 79 24 309 -20
211 -40 276 -46 306 -30 28 15 31 44 7 57 -10 5 -47 12 -83 14 -56 5 -331 52
-369 64 -7 2 25 31 74 66 100 72 345 282 514 441 147 139 257 231 396 331 318
230 512 437 759 814 37 57 116 155 174 218 198 214 254 279 280 324 120 206
209 319 402 510 81 80 180 190 221 245 81 110 253 296 360 390 37 33 136 124
218 201 127 120 313 279 496 424 24 19 126 84 227 144 372 221 479 299 526
378 9 17 33 38 52 48 19 10 64 41 99 70 35 28 89 67 120 87 31 19 76 54 101
78 25 23 90 75 145 116 55 40 121 93 147 117 l48 45 0 -84 c0 -46 -7 -129 -15
-184 -20 -139 -20 -359 0 -379 13 -13 7 -20 -55 -61 -70 -46 -252 -136 -345
-170 -66 -24 -77 -33 -73 -64 3 -24 6 -26 43 -23 96 8 435 164 597 275 51 35
108 69 127 75 19 7 50 24 69 39 30 23 34 24 28 7 -13 -33 -96 -390 -96 -412 0
-11 -20 -62 -45 -114 -31 -65 -48 -119 -58 -179 -15 -89 -102 -306 -153 -380
-39 -58 -64 -135 -71 -220 -6 -75 -9 -83 -60 -156 -29 -43 -72 -105 -94 -138
-24 -35 -98 -110 -177 -180 -203 -181 -306 -303 -401 -478 -23 -43 -66 -115
-95 -160 -30 -45 -80 -129 -111 -187 -32 -58 -72 -130 -90 -160 -32 -54 -58
-117 -69 -172 -4 -15 -27 -46 -54 -70 -165 -149 -235 -234 -259 -317 -8 -31
-24 -68 -34 -82 -20 -28 -28 -35 -384 -300 -252 -187 -356 -282 -428 -389 -28
-41 -80 -108 -115 -149 -35 -40 -78 -102 -94 -138 -35 -74 -30 -70 -336 -278
-228 -155 -364 -264 -442 -355 -42 -49 -108 -98 -309 -233 -264 -176 -476
-331 -593 -434 -70 -60 -209 -228 -324 -390 l-67 -94 -216 -144 c-119 -78
-281 -192 -360 -252 -79 -59 -153 -114 -163 -122 -17 -12 -23 -10 -61 20 -95
75 -189 166 -302 291 -66 73 -181 198 -256 278 -75 80 -139 155 -143 168 -20
69 -58 62 337 62 329 0 356 1 377 18 18 14 21 23 13 36 -9 17 -35 18 -402 17
-272 -2 -391 1 -391 9 0 6 -10 8 -22 5 -13 -3 -35 -2 -50 2 l-28 8 36 50 c19
28 72 111 116 185 45 74 110 175 145 224 88 125 105 181 111 374 6 222 -10
252 -201 377 -229 149 -411 212 -692 242 l-80 8 80 5 80 5 -27 18 c-54 37
-346 50 -463 22 -33 -8 -92 -14 -132 -15 -88 0 -118 -11 -141 -50 -11 -17 -40
-44 -65 -61 -66 -43 -179 -160 -227 -232 -53 -81 -96 -194 -115 -302 -18 -102
-20 -396 -4 -494 30 -189 180 -407 342 -500 137 -78 329 -125 583 -143 302
-21 384 3 537 154 49 49 90 88 92 88 1 0 5 -9 8 -19 2 -11 17 -22 35 -25 22
-5 31 -14 35 -34 3 -15 17 -44 31 -65 23 -33 28 -55 36 -155 5 -64 10 -186 10
-269 0 -142 1 -153 18 -153 31 0 52 33 52 82 0 25 7 65 15 89 13 39 13 42 0
25 -14 -18 -15 -16 -15 35 0 30 -3 92 -6 139 l-5 85 38 -41 c21 -22 79 -85
128 -139 50 -54 137 -150 195 -213 99 -109 220 -222 275 -258 l25 -16 -57 -62
c-31 -33 -81 -99 -112 -146 -95 -147 -251 -338 -337 -415 -46 -41 -171 -140
-277 -220 l-194 -145 -233 0 -232 0 6 30 c11 56 59 139 130 227 40 49 80 101
91 118 25 40 33 171 12 200 -15 19 -17 19 -203 -18 -104 -20 -217 -41 -251
-46 -58 -9 -103 -25 -103 -37 0 -7 96 4 287 32 222 33 213 34 213 -20 0 -64
-8 -79 -98 -189 -116 -143 -165 -256 -144 -332 l8 -30 207 -5 207 -5 -103 -75
c-56 -41 -130 -98 -164 -127 -34 -29 -65 -53 -68 -53 -8 0 -296 193 -360 240
-142 106 -337 309 -533 553 -213 266 -297 390 -357 527 -25 58 -63 125 -83
150 -64 77 -88 113 -110 163 -12 27 -40 71 -62 99 -22 28 -40 54 -40 58 0 16
88 87 152 123 68 38 142 111 179 177 19 33 35 46 83 68 4 3 6 -80 2 -184 -16
-516 -18 -656 -8 -666 8 -8 18 -6 35 5 l25 16 6 238 c3 131 9 328 12 438 l6
200 34 28 c19 16 34 34 34 40 0 7 9 23 20 37 44 56 13 85 -55 52 l-44 -21 -7
32 c-3 18 -15 49 -25 70 l-19 37 -153 -1 c-174 0 -294 -17 -314 -45 -32 -44 0
-54 112 -37 50 7 139 12 200 11 107 -3 110 -4 122 -29 7 -14 15 -51 19 -81 l7
-56 -57 -33 c-44 -24 -67 -47 -101 -98 -52 -79 -70 -96 -155 -147 -36 -21 -86
-58 -111 -81 l-47 -44 -89 113 c-49 62 -129 160 -177 218 -103 123 -226 284
-356 465 -220 307 -338 428 -700 716 -80 63 -221 176 -315 250 -93 74 -233
182 -310 241 -222 167 -366 296 -773 693 -245 239 -588 630 -800 912 -237 314
-352 554 -426 888 -15 66 -36 154 -47 195 -36 138 -91 436 -120 650 -4 30 -8
211 -8 402 -1 337 -2 348 -21 360 -16 10 -20 24 -20 73 -1 33 -7 74 -14 90
l-13 30 -20 -33 c-17 -28 -21 -56 -26 -190 -4 -121 -11 -180 -31 -258 -27
-108 -54 -184 -65 -184 -13 0 -41 -69 -35 -85 15 -37 72 2 109 75 10 19 28 71
40 115 l22 80 6 -255 c4 -159 12 -282 21 -327 8 -39 24 -136 36 -215 11 -78
32 -186 45 -238 14 -52 36 -144 49 -205 71 -325 131 -493 248 -700 144 -255
333 -497 748 -960 165 -184 198 -216 596 -592 198 -187 269 -247 454 -387 80
-61 219 -169 310 -241 91 -72 233 -185 315 -250 368 -291 451 -377 716 -741
159 -218 249 -334 384 -495 44 -52 113 -138 154 -189 l73 -94 -49 -45 c-27
-25 -104 -95 -171 -156 -158 -142 -307 -305 -379 -414 -31 -47 -110 -142 -174
-211 -64 -69 -148 -164 -185 -212 -38 -47 -107 -131 -152 -185 -46 -54 -95
-118 -110 -143 -28 -49 -47 -72 -161 -200 -134 -150 -183 -199 -235 -238 -343
-258 -941 -665 -1186 -807 -70 -41 -149 -79 -175 -85 -64 -14 -205 -70 -306
-120 -97 -48 -389 -223 -534 -320 -56 -37 -123 -79 -150 -95 -236 -135 -323
-226 -495 -520 -97 -165 -238 -335 -329 -398 -42 -29 -55 -32 -151 -38 -58 -3
-106 -5 -108 -4 -2 2 13 33 32 70 33 62 36 73 36 153 0 93 -33 267 -55 291
-11 11 -15 10 -24 -8 -8 -15 -9 -38 -1 -83 5 -35 10 -111 10 -170 0 -104 -1
-110 -35 -174 -94 -177 -5 -234 390 -249 155 -6 185 -10 213 -27 27 -17 38
-18 58 -9 36 16 30 44 -17 77 -41 28 -43 29 -243 36 -110 4 -217 12 -236 17
-34 9 -34 9 18 10 79 2 142 38 247 145 101 101 180 203 245 316 92 159 190
298 249 351 33 30 99 78 148 108 48 30 156 98 238 151 374 241 636 379 784
414 31 7 79 25 106 38 117 60 433 259 630 397 50 34 163 113 252 174 337 232
435 308 557 431 138 141 251 272 288 336 15 25 64 89 110 143 45 54 115 138
153 187 39 48 121 141 183 207 62 65 139 159 171 209 75 116 291 346 446 474
22 19 61 54 87 79 l48 45 24 -23 c14 -13 41 -55 62 -95 20 -39 67 -111 104
-161 37 -49 73 -106 80 -125 24 -63 82 -174 123 -235 161 -239 510 -654 670
-797 71 -63 187 -148 352 -258 61 -40 111 -74 113 -75 7 -6 -179 -178 -256
-239 -44 -35 -174 -121 -288 -191 -314 -194 -476 -298 -577 -373 -259 -192
-688 -400 -1031 -498 -221 -64 -312 -100 -651 -259 -347 -162 -863 -377 -1009
-419 -81 -24 -224 -81 -386 -156 -286 -132 -389 -173 -554 -221 -193 -56 -314
-97 -531 -176 -124 -46 -167 -56 -249 -64 -55 -5 -102 -13 -106 -19 -9 -15
-60 27 -60 49 0 10 15 34 33 53 47 51 136 177 211 302 60 98 66 114 66 163 0
59 -13 93 -34 93 -17 0 -24 -16 -32 -82 -4 -40 -21 -78 -66 -154 -72 -121
-184 -275 -221 -304 -23 -18 -27 -29 -27 -69 0 -33 6 -56 20 -74 48 -61 424
-317 465 -317 51 0 59 47 12 75 -17 10 -97 61 -177 114 l-145 96 85 7 c70 5
116 17 260 71 197 72 330 116 535 177 141 42 281 99 564 229 84 39 223 95 310
125 285 98 701 270 1031 426 310 146 452 204 645 259 99 29 221 68 270 88 261
104 616 291 775 408 112 83 262 180 560 365 281 174 352 225 503 368 61 56
114 102 118 102 5 0 75 -44 156 -98 424 -283 513 -338 738 -462 94 -51 211
-116 260 -145 50 -28 161 -91 248 -139 145 -81 157 -90 157 -116 0 -37 15 -46
44 -27 21 14 28 13 102 -27 142 -76 164 -93 164 -125 0 -75 29 -96 148 -107
76 -7 106 -22 262 -129 58 -40 130 -85 160 -100 30 -15 114 -60 185 -100 72
-40 186 -101 255 -137 240 -125 295 -157 350 -204 30 -26 78 -61 105 -79 105
-66 493 -264 549 -280 32 -10 78 -32 102 -50 24 -18 67 -42 96 -53 59 -22 358
-99 512 -133 55 -11 137 -34 182 -50 45 -16 91 -29 101 -29 10 0 28 -7 40 -15
36 -25 178 -53 404 -79 142 -16 230 -30 254 -42 20 -9 45 -17 54 -17 9 0 57
-10 107 -23 50 -12 190 -35 310 -49 268 -32 333 -45 384 -79 22 -15 55 -29 73
-33 18 -3 55 -27 83 -52 l51 -46 -148 -77 c-149 -77 -238 -132 -316 -195 -24
-19 -44 -29 -48 -23 -19 31 -69 -5 -97 -72 l-13 -31 -660 6 c-363 4 -694 11
-735 16 -218 28 -289 33 -560 40 l-295 8 -135 42 c-164 50 -270 71 -600 115
-330 45 -434 53 -915 71 -220 9 -467 23 -550 31 -191 19 -545 24 -2045 31
-932 4 -1250 2 -1365 -7 -105 -9 -543 -15 -1460 -20 -1472 -7 -1355 -1 -1750
-86 l-170 -37 -677 -4 -677 -5 -65 39 c-36 21 -64 42 -63 47 4 12 161 107 270
162 102 52 128 74 120 103 -6 22 -46 30 -58 11 -4 -6 -43 -29 -87 -51 -45 -23
-97 -51 -117 -63 -20 -13 -67 -42 -106 -66 -99 -62 -115 -78 -115 -116 0 -31
5 -35 72 -71 105 -54 188 -141 273 -287 72 -123 156 -226 207 -252 22 -12 33
-12 51 -3 45 24 53 69 11 69 -42 0 -131 99 -212 235 -39 66 -78 129 -87 139
-8 11 -12 22 -9 25 3 3 290 8 637 12 l632 5 200 42 c388 80 287 75 1745 82
832 4 1379 11 1510 19 320 19 3158 -4 3325 -27 44 -7 296 -21 560 -32 521 -22
571 -26 900 -71 310 -42 423 -63 560 -105 191 -58 241 -64 503 -64 154 -1 279
-6 357 -16 210 -27 499 -36 1400 -43 l880 -6 42 -29 c55 -37 126 -51 363 -71
286 -24 467 -54 477 -81 8 -22 85 -18 110 5 25 24 32 19 66 -47 44 -86 39
-100 -50 -164 -43 -31 -99 -78 -124 -105 -76 -79 -226 -254 -239 -279 -15 -27
-7 -54 16 -54 19 0 35 17 191 200 54 63 128 137 163 163 138 102 132 93 131
170 0 44 -6 75 -16 90 -8 12 -20 39 -25 59 -9 31 -18 40 -63 61 -63 29 -81 50
-206 242 -126 194 -121 182 -121 264 0 38 -3 76 -6 85 -8 22 -41 20 -54 -3
-13 -25 -13 -145 0 -190 8 -27 102 -177 231 -369 31 -46 31 -46 -21 -32 -74
20 -214 40 -391 55 -298 25 -332 32 -399 76 l-58 39 -301 0 c-181 0 -300 4
-297 9 10 16 153 121 224 164 37 22 166 90 287 150 121 60 228 116 238 125 21
19 22 44 1 85 -25 49 -157 187 -292 305 -40 35 -79 77 -87 93 -17 31 -49 39
-59 13 -21 -54 13 -106 133 -203 49 -39 109 -95 135 -123 26 -29 60 -67 77
-84 16 -17 29 -36 29 -42 0 -10 -89 -62 -105 -62 -3 0 -5 7 -5 15 0 8 -15 21
-32 29 -18 7 -48 30 -67 50 -22 22 -48 38 -70 42 -20 4 -52 17 -71 30 -47 30
-127 49 -290 69 -235 28 -347 45 -426 65 -42 11 -87 20 -100 20 -13 0 -25 4
-28 9 -10 16 -97 32 -290 52 -205 21 -307 40 -371 69 -22 10 -58 22 -80 28
-22 6 -85 24 -140 40 -55 17 -211 57 -347 90 -250 61 -330 89 -381 135 -15 14
-51 31 -80 38 -59 13 -95 30 -334 156 -177 94 -275 155 -353 222 -25 21 -148
93 -275 159 -126 66 -295 156 -375 200 -147 80 -350 209 -350 221 1 3 20 15
43 27 28 14 52 36 72 69 28 45 30 55 29 139 -1 115 -15 148 -98 235 l-65 67
14 49 c21 69 21 325 0 365 -41 78 -221 38 -320 -72 -43 -47 -58 -103 -53 -198
6 -121 36 -156 117 -135 l26 8 -28 12 c-42 17 -47 31 -47 130 0 107 13 135 86
183 40 27 57 32 106 32 l58 0 0 -134 c0 -73 -3 -147 -6 -165 l-6 -31 -26 20
c-28 23 -65 26 -80 7 -17 -20 -4 -50 29 -69 16 -9 29 -23 29 -30 0 -13 -65
-91 -181 -215 -32 -35 -60 -63 -63 -63 -5 0 -215 116 -222 123 -2 2 12 50 32
107 69 201 105 372 111 518 4 91 2 137 -6 145 -18 18 -23 3 -32 -90 -12 -120
-141 -607 -168 -636 -5 -4 -35 7 -67 26 -105 61 -445 252 -574 322 -171 93
-302 172 -450 270 -69 45 -196 129 -282 185 -87 56 -158 106 -158 111 0 10
113 98 515 398 176 131 354 271 397 310 81 75 232 264 319 396 59 92 132 181
160 196 16 8 38 -3 132 -67 197 -135 472 -360 560 -458 104 -115 202 -213 347
-347 184 -168 219 -199 330 -289 58 -46 159 -129 225 -185 66 -55 203 -166
305 -247 102 -80 200 -164 218 -186 34 -43 155 -145 331 -277 58 -44 151 -119
207 -165 55 -47 154 -123 220 -169 65 -47 162 -117 214 -156 52 -39 108 -79
124 -89 119 -76 365 -205 690 -362 209 -102 411 -207 448 -232 37 -26 130 -90
205 -144 85 -59 206 -131 313 -185 96 -49 206 -109 245 -133 99 -61 357 -202
515 -281 74 -37 149 -77 165 -88 17 -12 46 -21 68 -21 21 0 59 -11 85 -23 26
-13 112 -49 192 -80 155 -61 325 -155 380 -212 18 -19 45 -56 59 -82 33 -59
66 -83 119 -86 49 -2 54 2 61 51 l6 37 33 -36 32 -37 -71 -45 c-85 -55 -184
-97 -310 -133 -106 -30 -131 -46 -127 -83 3 -23 8 -26 46 -29 33 -2 51 2 75
21 18 13 79 41 136 62 109 40 246 117 295 164 40 40 30 69 -60 182 -41 52 -82
112 -93 134 -27 57 -61 213 -61 277 0 65 -17 94 -48 84 -20 -7 -22 -14 -22
-71 0 -129 48 -311 104 -394 27 -39 29 -47 14 -43 -15 3 -18 -1 -18 -27 0 -51
-26 -35 -63 40 -49 96 -196 193 -447 295 -96 39 -189 78 -207 87 -18 10 -49
17 -69 17 -24 0 -56 12 -93 35 -32 19 -88 48 -127 65 -81 37 -372 195 -529
289 -60 36 -178 99 -260 141 -90 45 -208 115 -293 175 -79 55 -173 121 -210
146 -37 26 -242 132 -457 236 -459 224 -631 319 -803 446 -70 51 -176 129
-237 172 -60 44 -153 116 -205 160 -52 44 -143 116 -201 160 -190 144 -285
223 -323 269 -20 25 -121 112 -224 193 -103 81 -227 181 -277 223 -49 42 -155
130 -235 194 -130 105 -419 365 -525 471 -22 22 -88 92 -147 156 -112 122
-372 337 -576 477 l-103 71 76 60 c102 81 230 171 467 329 108 72 208 146 222
164 13 18 67 89 118 158 125 168 191 245 265 309 110 95 312 242 573 416 145
97 272 189 295 214 129 142 227 221 539 431 203 138 251 179 267 228 15 46 37
80 109 162 31 36 78 97 104 137 25 39 77 100 114 135 67 63 291 237 507 393
165 119 207 165 234 253 18 61 32 84 84 140 34 37 91 94 127 126 90 81 97 90
104 138 4 24 19 68 34 98 50 100 184 334 232 405 25 38 70 113 99 166 29 52
76 126 104 164 60 80 202 224 329 332 48 42 107 103 130 138 176 257 160 228
169 318 10 102 21 141 57 198 16 24 56 106 90 181 46 102 65 160 77 230 12 66
28 115 56 171 24 46 45 108 53 150 22 118 69 317 74 312 3 -2 28 -98 57 -212
121 -479 144 -529 250 -553 28 -6 48 -5 72 5 31 13 34 18 31 52 -3 43 -33 58
-55 27 -12 -17 -15 -17 -47 -2 -47 23 -75 86 -131 289 -77 284 -117 468 -115
534 3 87 4 85 -35 85 -35 0 -177 -65 -295 -135 -44 -26 -63 -31 -94 -27 l-38
4 7 112 c3 61 11 138 16 171 6 33 13 140 16 238 l6 179 78 66 c63 54 78 72 79
96 l0 28 -79 -3 -80 -4 -8 30 c-8 28 -12 30 -58 32 -28 1 -72 -5 -100 -12z
m185 -129 c0 -3 -4 -8 -10 -11 -5 -3 -10 -1 -10 4 0 6 5 11 10 11 6 0 10 -2
10 -4z m-7048 -5162 c220 -22 412 -51 498 -74 152 -42 449 -212 519 -297 l31
-38 0 -128 c0 -185 -16 -247 -96 -361 -34 -50 -91 -138 -125 -196 -165 -278
-291 -433 -404 -493 -36 -20 -59 -22 -212 -25 -372 -8 -656 72 -812 226 -81
81 -135 161 -175 261 -29 75 -30 80 -34 286 -3 181 -1 223 16 308 30 144 83
245 183 351 89 94 150 139 157 116 3 -9 10 -6 23 11 25 34 129 67 211 68 37 1
136 -6 220 -15z m-892 -1371 c0 -5 -4 -14 -9 -21 -7 -11 -9 -11 -14 1 -3 8 -3
18 0 21 9 8 23 7 23 -1z m3287 -3277 c62 -66 73 -91 73 -173 0 -56 -20 -104
-55 -131 -22 -17 -41 -22 -88 -22 -57 0 -66 3 -149 58 -48 31 -88 61 -88 65 0
4 37 47 83 95 45 48 98 106 116 130 19 23 38 42 42 42 3 0 34 -29 66 -64z"/>
<path d="M12022 12440 c-73 -10 -171 -37 -189 -52 -7 -6 -13 -24 -13 -40 0
-24 4 -29 18 -25 120 38 133 40 330 44 178 4 205 3 228 -12 33 -21 54 -72 54
-130 0 -40 -3 -47 -26 -55 -14 -6 -85 -10 -159 -10 -151 0 -181 -7 -191 -46
-14 -55 4 -75 132 -144 134 -73 200 -119 258 -179 l39 -40 -234 -3 c-257 -3
-292 -11 -305 -64 -10 -40 10 -52 49 -29 29 18 54 20 287 23 164 2 263 7 278
14 32 17 27 49 -16 105 -77 96 -160 160 -311 239 l-75 39 120 8 c192 13 232
43 222 171 -7 79 -39 142 -88 170 -31 19 -54 21 -190 23 -85 1 -183 -3 -218
-7z"/>
<path d="M19801 18289 c-6 -18 -11 -66 -11 -107 0 -63 -4 -83 -27 -121 -31
-54 -94 -138 -176 -236 -71 -85 -93 -123 -78 -138 22 -22 128 82 244 241 l46
63 6 -38 c22 -126 79 -393 104 -483 69 -245 162 -623 181 -733 20 -117 30
-253 50 -647 5 -113 10 -639 10 -1170 0 -796 3 -979 14 -1045 8 -44 46 -208
85 -365 165 -674 251 -1110 281 -1435 21 -227 43 -350 109 -615 35 -138 140
-736 155 -880 3 -30 11 -183 16 -340 6 -157 25 -429 41 -605 29 -298 32 -360
38 -905 4 -322 10 -592 14 -600 16 -40 30 -271 37 -625 7 -387 7 -391 34 -469
15 -43 25 -83 24 -87 -2 -5 -46 23 -98 62 -150 110 -211 131 -261 90 -34 -28
-16 -54 43 -61 28 -4 62 -17 87 -35 146 -105 207 -145 218 -145 7 0 18 -9 25
-20 13 -21 58 -28 58 -9 0 5 13 22 29 37 16 15 47 67 68 117 49 115 137 263
217 369 77 100 82 109 89 167 4 32 2 52 -8 65 -22 30 -48 6 -60 -57 -9 -43
-26 -73 -81 -146 -74 -98 -177 -271 -215 -363 -12 -30 -25 -58 -29 -62 -3 -5
-20 43 -38 106 l-32 114 0 284 c0 268 -17 558 -40 703 -5 33 -10 247 -10 475
0 476 -10 693 -44 1045 -14 138 -30 383 -36 545 -12 341 -20 423 -59 650 -16
91 -39 225 -51 299 -12 74 -44 224 -71 334 -53 216 -82 375 -99 557 -34 365
-132 862 -303 1532 l-71 283 -7 1080 c-6 1081 -16 1441 -45 1675 -22 176 -40
259 -144 650 -87 332 -154 633 -167 750 -4 45 -1 64 16 98 23 44 41 48 41 8 0
-61 65 -180 148 -268 62 -66 129 -100 213 -106 77 -5 112 8 107 41 -3 19 -12
23 -71 29 -116 13 -171 49 -253 163 -60 85 -76 126 -83 220 -6 74 -8 80 -30
83 -17 3 -34 -8 -66 -42 l-42 -46 -7 50 c-8 57 -19 64 -35 19z"/>
<path d="M5945 18251 c-19 -8 -19 -8 2 -19 31 -17 95 -141 137 -264 69 -208
146 -360 219 -430 50 -49 89 -62 115 -36 22 22 13 43 -28 66 -22 13 -55 42
-72 65 -43 58 -118 220 -167 360 -83 238 -124 290 -206 258z"/>
<path d="M6622 17348 c-29 -29 -1 -80 56 -104 60 -25 540 -144 583 -144 41 0
99 23 99 40 0 23 -34 40 -83 40 -51 0 -401 81 -523 121 -34 11 -70 29 -79 39
-21 23 -36 25 -53 8z"/>
<path d="M10038 16619 c-25 -14 -22 -45 5 -53 12 -3 67 -6 122 -6 186 -1 304
-36 388 -113 31 -29 37 -41 37 -76 0 -48 -9 -55 -120 -97 -41 -15 -81 -32 -87
-37 -8 -5 -13 -31 -13 -59 l0 -50 141 -139 140 -139 -174 0 c-187 0 -187 0
-187 -51 0 -18 10 -19 218 -19 181 0 221 3 240 16 12 8 22 23 22 33 0 10 -75
92 -172 186 -164 161 -171 169 -147 178 99 40 186 89 198 110 22 41 10 138
-21 179 -35 46 -94 85 -175 116 -62 24 -83 26 -233 28 -94 2 -173 -2 -182 -7z"/>
<path d="M15570 16303 c-14 -2 -65 -17 -115 -33 -49 -16 -119 -32 -155 -36
-70 -7 -90 -17 -90 -44 0 -42 86 -40 230 5 61 19 132 35 157 35 l45 0 -4 -92
c-3 -72 -10 -103 -28 -138 -28 -54 -118 -145 -228 -228 -97 -74 -132 -117
-139 -172 -9 -62 4 -70 111 -70 118 1 155 10 306 76 175 77 170 74 170 101 0
41 -35 35 -180 -32 -63 -29 -142 -58 -174 -64 -68 -13 -166 -15 -166 -3 1 16
60 73 152 146 113 90 179 160 216 231 24 46 27 60 27 168 0 113 -1 120 -24
138 -22 18 -54 22 -111 12z"/>
<path d="M5912 12835 c-36 -45 -102 -317 -117 -480 -7 -71 -12 -85 -41 -119
-48 -56 -64 -113 -64 -228 0 -108 13 -155 51 -182 22 -15 109 -23 109 -9 0 3
-18 22 -39 42 -25 23 -43 51 -50 78 -13 48 -5 161 14 208 12 29 12 28 20 -38
16 -142 102 -198 284 -185 122 9 180 80 184 226 2 90 -9 119 -56 148 -28 17
-52 19 -191 19 l-158 0 6 57 c13 111 76 440 87 454 11 13 5 34 -11 34 -5 0
-17 -11 -28 -25z m255 -612 c26 -19 28 -26 27 -85 -3 -122 -44 -155 -174 -142
-77 7 -126 32 -147 74 -7 14 -13 57 -13 97 0 60 3 72 18 77 9 3 72 4 139 2
107 -2 126 -5 150 -23z"/>
<path d="M21104 12731 c-48 -22 -94 -75 -132 -151 -24 -48 -27 -69 -31 -173
-4 -138 1 -147 67 -147 66 0 127 34 205 113 38 38 66 61 63 50 -3 -10 -14 -64
-26 -120 -22 -111 -29 -368 -10 -403 14 -26 83 -43 139 -35 53 8 104 32 96 45
-6 9 -88 28 -140 33 l-30 2 -3 128 c-2 105 2 149 23 249 38 187 32 282 -18
262 -8 -3 -28 -24 -43 -47 -74 -113 -158 -189 -221 -201 l-33 -5 0 82 c1 91
14 138 56 199 31 44 75 68 123 68 24 0 29 -4 33 -31 3 -21 -2 -39 -15 -56
l-20 -25 32 16 c51 27 71 52 71 92 0 63 -13 74 -83 74 -39 0 -77 -7 -103 -19z"/>
<path d="M15575 10371 c-11 -34 17 -70 94 -119 101 -66 140 -85 240 -116 65
-21 207 -44 274 -46 18 0 1 -36 -70 -146 -42 -66 -78 -120 -78 -121 -1 -2 -39
14 -86 34 -70 31 -98 37 -172 41 -81 4 -90 3 -112 -18 -35 -33 -17 -50 54 -50
72 -1 127 -14 206 -49 l63 -29 -53 -103 c-29 -57 -60 -132 -69 -165 -18 -69
-21 -209 -6 -219 14 -9 88 36 124 76 l30 31 -47 -3 -47 -4 0 36 c0 46 28 127
80 231 23 46 43 85 45 86 2 2 38 -8 80 -22 177 -60 345 -60 345 -2 0 29 -31
38 -127 41 -93 2 -210 29 -237 55 -5 5 22 57 67 124 78 120 96 170 78 218 -8
22 -18 28 -53 32 -166 19 -213 28 -269 47 -35 12 -85 32 -110 45 -61 30 -172
104 -182 121 -12 20 -55 16 -62 -6z"/>
<path d="M12629 10322 c-32 -28 -34 -34 -37 -107 -4 -65 -1 -81 16 -104 13
-18 21 -48 24 -93 6 -97 7 -98 157 -98 101 0 134 4 166 19 71 33 80 49 83 170
4 135 -9 163 -92 205 -52 26 -71 30 -171 34 l-112 4 -34 -30z m71 -49 c0 -5
-9 -19 -20 -33 l-20 -25 0 26 c0 14 3 29 7 32 9 9 33 9 33 0z m132 -40 l1 -38
4 38 c4 34 7 37 26 31 46 -14 63 -23 85 -43 20 -19 22 -31 22 -110 0 -70 -3
-91 -17 -102 -11 -10 -53 -15 -135 -18 l-118 -3 0 71 c0 100 36 177 95 201 32
14 35 12 37 -27z"/>
<path d="M7874 9769 c-72 -21 -124 -107 -110 -183 7 -38 15 -42 47 -26 13 8
19 21 19 46 0 36 15 73 34 86 6 4 32 8 58 8 59 0 61 -6 57 -167 -4 -117 -4
-119 -47 -195 -29 -53 -42 -89 -42 -115 0 -71 -17 -68 347 -68 l328 0 53 30
c62 33 92 67 92 101 0 34 -19 30 -76 -13 l-49 -38 -312 -3 c-221 -2 -313 0
-313 8 0 6 18 44 41 85 38 70 41 80 46 183 11 210 -12 273 -99 271 -24 0 -57
-5 -74 -10z"/>
<path d="M7426 9691 c-29 -32 -16 -93 46 -228 31 -65 72 -161 92 -213 44 -116
70 -160 94 -160 29 0 42 21 42 68 0 38 -2 43 -15 32 -17 -14 -22 -4 -77 145
-16 44 -54 134 -84 200 -31 66 -61 133 -67 148 l-13 29 -18 -21z"/>
<path d="M4305 7340 c-134 -28 -249 -110 -303 -217 -46 -90 -52 -231 -13 -318
l17 -40 13 110 c18 155 29 200 65 253 41 61 104 108 174 129 83 25 323 22 453
-5 217 -45 383 -136 549 -302 176 -175 201 -247 181 -507 -13 -160 -37 -240
-105 -342 -52 -77 -101 -121 -170 -152 -93 -41 -566 -35 -739 10 -142 37 -258
105 -293 172 -20 39 -19 270 2 380 19 100 80 258 136 353 44 75 161 204 214
237 45 27 230 41 245 18 7 -10 9 -7 7 11 -3 21 -10 26 -48 32 -165 25 -239 0
-360 -122 -86 -86 -131 -154 -189 -292 -74 -172 -84 -227 -85 -443 -1 -215 1
-223 75 -290 49 -44 177 -106 264 -129 111 -28 247 -38 491 -34 l239 3 69 34
c124 61 227 188 284 350 25 73 26 85 27 286 0 209 0 210 -28 270 -97 207 -366
422 -632 504 -143 45 -420 65 -540 41z"/>
<path d="M4549 6728 c0 -2 -3 -114 -6 -250 -6 -299 -10 -288 116 -288 l80 0 6
-47 c12 -90 29 -155 45 -175 14 -18 19 -19 38 -7 25 16 27 29 8 84 -7 22 -16
63 -20 92 l-6 51 45 22 c24 12 56 35 70 52 50 59 9 91 -51 39 -19 -17 -44 -31
-54 -31 -18 0 -20 7 -20 75 0 89 -24 214 -51 266 -17 33 -25 39 -75 49 -70 15
-78 8 -19 -14 25 -10 45 -18 45 -19 0 -1 6 -38 14 -82 8 -44 16 -125 17 -180
3 -113 4 -112 -76 -101 l-42 7 -5 197 c-4 158 -8 203 -22 230 -13 26 -33 42
-37 30z"/>
<path d="M21153 6694 c-50 -25 -83 -101 -83 -188 1 -39 7 -84 14 -101 l12 -30
16 45 c9 25 20 76 26 113 6 37 16 75 22 82 12 15 141 22 172 10 10 -4 -5 -26
-52 -73 -166 -170 -259 -358 -305 -619 -21 -121 -21 -383 1 -446 32 -95 157
-199 276 -232 52 -14 98 -16 255 -13 l191 3 106 54 c126 63 230 154 304 264
26 40 76 140 112 222 62 147 64 152 68 256 9 212 7 214 -533 514 -16 9 -22 14
-12 11 23 -7 22 9 -3 32 -26 24 -78 40 -175 52 -42 5 -107 19 -143 31 -93 28
-227 35 -269 13z m412 -144 c176 -70 535 -272 607 -342 l48 -47 0 -94 c0 -104
-8 -134 -84 -307 -81 -184 -172 -296 -311 -378 -107 -63 -168 -75 -365 -70
-155 4 -169 6 -227 32 -92 42 -96 54 -15 44 37 -4 148 -7 248 -7 199 -1 222 5
211 51 -11 41 -125 139 -227 193 -119 63 -208 128 -220 161 -6 14 -10 56 -10
94 0 62 3 73 28 99 27 29 82 50 82 31 0 -5 8 -10 19 -10 13 0 21 -10 26 -32
l8 -33 4 28 c6 36 22 35 111 -8 101 -48 163 -65 267 -71 80 -5 93 -3 115 15
20 16 23 23 14 38 -9 15 -30 19 -115 24 -117 8 -132 12 -244 65 -75 36 -86 38
-166 37 -96 -1 -131 -14 -172 -62 -42 -50 -48 -191 -11 -263 19 -37 86 -87
217 -161 60 -34 126 -76 146 -94 l36 -32 -96 -1 c-121 0 -254 11 -239 20 12 8
-86 30 -131 30 -15 0 -31 -4 -34 -10 -19 -31 -48 20 -59 105 -11 82 10 319 39
433 47 185 108 303 229 444 101 118 142 129 271 78z"/>
<path d="M11949 5644 c-11 -14 -15 -96 -17 -453 -3 -475 -2 -488 48 -461 21
11 22 17 17 72 l-5 60 26 -7 c109 -28 172 -35 320 -35 156 0 196 6 213 33 29
43 -75 130 -336 280 -125 72 -147 94 -152 152 -6 62 10 124 41 157 19 22 39
28 115 38 51 7 88 17 84 21 -5 5 -43 14 -85 20 -72 10 -80 10 -122 -11 -51
-24 -83 -68 -95 -132 -7 -36 -9 -24 -12 72 -2 63 -3 132 -4 152 0 47 -16 65
-36 42z m103 -498 c22 -19 81 -58 132 -87 107 -61 246 -151 246 -159 0 -3 -24
-4 -52 -3 -29 1 -89 2 -133 3 -54 2 -70 5 -50 9 25 6 19 8 -35 13 -36 4 -89
12 -117 19 l-53 12 1 151 c1 120 3 143 11 113 6 -23 25 -50 50 -71z"/>
<path d="M12228 5443 c-11 -13 -13 -25 -7 -40 7 -20 16 -23 59 -23 27 0 92 -7
142 -16 53 -10 153 -17 230 -18 119 -1 139 1 155 17 14 13 15 21 7 35 -9 14
-35 18 -170 24 -87 3 -199 13 -249 22 -115 20 -148 20 -167 -1z"/>
</g>
</svg>
