<?xml version="1.0" standalone="no"?>
<!DOCTYPE svg PUBLIC "-//W3C//DTD SVG 20010904//EN"
 "http://www.w3.org/TR/2001/REC-SVG-20010904/DTD/svg10.dtd">
<svg version="1.0" xmlns="http://www.w3.org/2000/svg"
 width="2550.000000pt" height="2550.000000pt" viewBox="0 0 2550.000000 2550.000000"
 preserveAspectRatio="xMidYMid meet">

<g transform="translate(0.000000,2550.000000) scale(0.100000,-0.100000)"
fill="#000000" stroke="none">
<path d="M12880 21643 c-84 -8 -376 -71 -367 -79 2 -2 60 7 128 20 227 45 288
46 311 3 6 -12 13 -65 15 -117 4 -82 2 -99 -16 -127 -21 -34 -205 -149 -276
-173 -53 -18 -69 -33 -61 -57 6 -17 18 -21 89 -26 53 -4 139 -22 242 -52 88
-25 205 -53 260 -62 91 -14 104 -14 138 0 68 29 40 55 -75 69 -76 9 -133 22
-390 91 l-86 23 86 70 c47 38 95 82 106 97 39 53 31 262 -12 300 -21 19 -48
24 -92 20z"/>
<path d="M14774 20995 c-58 -24 -122 -124 -143 -223 -15 -70 -14 -254 1 -287
6 -14 28 -36 47 -48 32 -19 52 -22 175 -26 155 -3 188 3 259 50 70 46 98 101
104 203 11 167 -19 226 -141 286 -86 41 -252 66 -302 45z m254 -110 c34 -15
76 -43 92 -62 28 -32 30 -39 30 -120 0 -104 -20 -155 -77 -193 -35 -24 -44
-25 -177 -25 -213 0 -226 13 -207 199 13 128 50 212 94 209 19 -1 27 3 27 14
0 27 141 13 218 -22z"/>
<path d="M10420 20898 c-36 -19 -81 -42 -100 -53 -19 -10 -42 -21 -50 -25 -8
-4 -22 -21 -32 -38 -9 -17 -37 -55 -61 -85 -62 -76 -129 -187 -186 -307 -120
-258 -159 -495 -102 -625 24 -54 108 -130 184 -165 237 -111 690 -115 938 -8
l47 19 53 -27 c30 -15 119 -48 199 -74 80 -26 188 -66 240 -88 52 -22 144 -52
203 -67 92 -22 144 -45 355 -152 234 -118 423 -203 454 -203 8 0 51 -18 95
-39 45 -22 109 -47 143 -55 35 -9 84 -26 109 -37 48 -21 196 -59 234 -59 12 0
49 -12 82 -25 33 -14 134 -46 225 -71 91 -24 190 -53 220 -63 86 -29 145 -41
275 -57 66 -8 155 -26 198 -40 44 -13 125 -31 180 -39 56 -8 143 -21 192 -29
50 -8 128 -20 175 -26 47 -5 118 -21 158 -35 41 -14 85 -25 98 -25 43 0 120
-47 160 -97 88 -111 134 -143 188 -129 51 13 42 61 -13 76 -29 8 -53 28 -105
90 -68 82 -139 130 -190 130 -13 0 -57 11 -98 25 -40 14 -122 32 -183 40 -103
14 -169 24 -390 60 -49 8 -119 24 -154 35 -34 12 -127 30 -205 40 -77 10 -154
23 -171 28 -126 40 -188 58 -317 92 -81 21 -168 48 -195 60 -26 12 -95 30
-153 41 -57 11 -130 31 -161 45 -32 13 -93 33 -136 45 -43 12 -96 32 -118 45
-22 12 -83 37 -135 54 -53 17 -224 94 -386 175 -248 123 -308 149 -405 174
-63 16 -161 49 -219 74 -58 24 -163 63 -235 86 -71 23 -140 47 -153 54 -23 13
-23 13 20 42 156 102 227 215 228 361 0 133 -80 298 -217 443 -202 216 -401
312 -698 339 l-80 7 36 23 c24 15 65 26 120 33 73 9 85 8 95 -6 11 -14 12 -14
18 1 11 30 -11 38 -112 42 -94 4 -99 3 -162 -30z m230 -182 c232 -50 445 -200
583 -407 69 -104 97 -185 97 -278 0 -144 -83 -231 -330 -345 -133 -62 -343
-89 -572 -75 -238 16 -404 83 -454 186 -25 52 -23 200 5 306 46 175 159 399
283 558 l63 82 130 -6 c71 -4 159 -13 195 -21z"/>
<path d="M10624 20489 c-97 -11 -261 -64 -274 -89 -6 -12 -7 -33 -1 -57 5 -21
9 -30 10 -20 1 12 9 17 29 17 15 0 61 12 102 26 82 28 281 49 313 32 20 -10
21 -28 7 -80 -13 -46 -106 -134 -224 -213 -75 -49 -86 -61 -86 -86 0 -48 20
-52 264 -47 122 2 227 7 234 12 9 5 -1 17 -35 39 -45 30 -54 32 -155 35 -60 2
-108 7 -108 10 0 4 19 21 41 37 136 100 197 230 154 331 -25 61 -92 74 -271
53z"/>
<path d="M15752 20758 c-16 -16 -15 -30 4 -88 13 -40 15 -85 12 -247 l-3 -198
-44 -132 c-42 -127 -46 -163 -19 -163 29 1 46 31 87 155 l44 130 5 200 c4 164
1 212 -12 264 -22 87 -43 110 -74 79z"/>
<path d="M15324 20475 c19 -14 36 -12 36 6 0 5 -12 9 -27 9 -27 -1 -27 -1 -9
-15z"/>
<path d="M11552 19948 c-17 -17 -15 -63 2 -78 38 -31 237 -61 275 -41 54 30 8
68 -105 88 -49 8 -101 21 -116 29 -33 17 -41 17 -56 2z"/>
<path d="M6617 19868 c-12 -9 -18 -23 -15 -39 3 -23 5 -24 103 -26 55 -2 110
-5 123 -8 32 -8 52 -61 52 -139 l0 -64 -57 -34 c-49 -29 -58 -39 -61 -66 l-3
-32 314 0 c334 0 344 1 335 47 -3 17 -22 18 -252 21 l-249 2 19 21 c16 18 19
37 19 118 -1 107 -18 160 -64 189 -34 23 -237 30 -264 10z"/>
<path d="M5896 19759 c-15 -25 -17 -43 -13 -89 9 -80 28 -134 108 -296 38 -77
69 -151 69 -163 0 -31 28 -38 53 -13 19 19 19 24 8 64 -7 23 -40 95 -72 159
-68 137 -99 223 -99 278 0 39 -17 91 -29 91 -4 0 -15 -14 -25 -31z"/>
<path d="M12123 19760 c-30 -12 -29 -44 2 -68 51 -41 185 -53 198 -19 10 25
-22 48 -99 72 -44 14 -79 24 -79 24 0 0 -10 -4 -22 -9z"/>
<path d="M12383 19653 c-7 -2 -13 -18 -13 -34 0 -23 10 -36 53 -67 28 -22 71
-55 95 -75 39 -33 109 -63 121 -52 9 10 -33 86 -68 121 -40 40 -148 114 -165
113 -6 0 -17 -3 -23 -6z"/>
<path d="M9812 19572 c-13 -15 -56 -67 -96 -117 -78 -94 -179 -199 -214 -218
-40 -24 -133 -99 -138 -112 -3 -8 -3 -19 1 -24 6 -11 95 54 125 92 10 12 60
58 111 102 165 141 280 257 277 280 -4 30 -39 29 -66 -3z"/>
<path d="M10599 19473 c-11 -12 -14 -63 -15 -222 0 -118 3 -211 9 -218 16 -21
45 -15 63 13 24 37 30 194 10 317 -18 120 -36 149 -67 110z"/>
<path d="M12776 19441 c-12 -19 7 -40 52 -59 98 -41 257 -57 268 -27 10 26
-14 42 -75 49 -33 4 -91 16 -130 26 -78 22 -107 25 -115 11z"/>
<path d="M6416 19427 c-23 -17 -17 -51 10 -55 11 -2 29 7 39 18 19 22 19 22 0
36 -23 17 -27 17 -49 1z"/>
<path d="M13332 19273 c4 -19 126 -71 171 -72 60 -2 16 36 -82 69 -74 25 -94
25 -89 3z"/>
<path d="M13621 19222 c-59 -20 145 -72 224 -58 40 8 47 32 13 45 -24 9 -218
19 -237 13z"/>
<path d="M9896 19111 c-106 -67 -196 -102 -278 -109 -57 -4 -71 -9 -94 -33
l-26 -28 37 -7 c98 -18 269 31 381 112 l49 34 21 -36 22 -37 -46 -32 c-26 -17
-52 -40 -58 -51 -18 -33 -257 -271 -300 -298 -23 -15 -65 -57 -95 -94 -86
-107 -240 -257 -289 -282 -74 -37 -128 -78 -229 -173 -53 -49 -132 -113 -176
-142 -133 -87 -178 -128 -237 -216 -57 -85 -159 -186 -220 -219 -78 -41 -209
-132 -303 -209 -68 -56 -130 -97 -195 -127 -52 -25 -158 -77 -235 -116 -159
-80 -177 -86 -260 -94 -33 -3 -73 -13 -90 -23 -36 -21 -54 -64 -38 -90 10 -16
0 -30 -81 -107 -51 -49 -136 -128 -188 -176 -53 -48 -127 -127 -164 -175 -38
-48 -90 -108 -115 -134 -71 -71 -122 -144 -179 -254 -28 -55 -68 -122 -89
-150 -20 -27 -48 -68 -61 -90 -13 -22 -88 -106 -167 -188 -79 -81 -143 -153
-143 -159 0 -6 -42 -53 -94 -104 -95 -92 -186 -205 -186 -229 0 -7 -8 -19 -17
-26 -9 -8 -50 -59 -90 -114 -41 -55 -106 -134 -144 -175 -39 -41 -101 -120
-137 -175 -58 -87 -77 -106 -142 -150 -115 -76 -145 -104 -202 -187 -29 -42
-98 -127 -152 -188 -54 -61 -122 -139 -150 -174 -88 -109 -207 -249 -248 -293
l-39 -43 -67 26 c-139 52 -422 117 -702 160 -52 8 -119 19 -149 24 -89 16
-110 13 -123 -16 -11 -23 -10 -29 11 -45 13 -11 34 -19 47 -19 42 0 34 -17
-26 -54 -135 -84 -260 -235 -299 -362 -58 -186 -51 -406 16 -543 31 -65 143
-181 230 -240 128 -86 309 -162 458 -192 86 -17 296 -15 376 4 292 70 586 359
644 633 17 78 19 194 6 240 l-9 32 107 -35 c195 -64 231 -72 359 -82 70 -6
165 -20 210 -31 46 -11 143 -27 215 -36 180 -21 244 -41 349 -113 48 -32 100
-62 115 -65 16 -4 64 -18 108 -31 75 -23 167 -44 360 -82 44 -8 113 -26 153
-40 40 -13 112 -28 160 -34 48 -5 134 -18 192 -29 166 -29 252 -39 444 -50
156 -9 189 -14 266 -40 115 -39 217 -57 375 -65 157 -8 229 -22 411 -79 76
-24 194 -53 261 -65 68 -12 142 -28 164 -36 23 -8 50 -15 61 -15 34 0 350 -71
518 -116 113 -31 182 -55 220 -78 30 -19 102 -58 159 -87 77 -40 111 -64 130
-91 32 -45 74 -66 96 -48 26 21 17 45 -37 103 -40 42 -82 70 -173 118 -65 34
-134 72 -151 84 -35 24 -273 93 -452 131 -284 61 -341 73 -402 87 -36 9 -99
21 -140 27 -41 7 -139 32 -218 56 -202 63 -246 71 -437 84 -93 7 -178 16 -187
21 -9 5 -30 9 -47 9 -17 0 -60 11 -96 25 -91 34 -153 43 -360 55 -99 5 -246
21 -327 35 -81 14 -194 31 -251 39 -57 8 -128 24 -158 35 -30 11 -79 24 -109
29 -95 16 -302 63 -380 87 -41 12 -90 26 -109 30 -19 4 -73 33 -120 65 -110
74 -174 96 -341 115 -74 9 -175 25 -225 36 -49 12 -154 27 -232 34 -117 12
-164 22 -265 56 -105 35 -130 40 -174 34 l-51 -6 -27 45 c-36 61 -120 133
-221 190 -77 43 -84 50 -72 65 36 42 217 261 262 315 27 34 91 108 143 166 52
58 115 134 140 170 61 88 108 136 162 167 85 49 143 106 207 205 34 54 95 131
135 172 40 41 96 108 123 148 28 40 67 90 88 111 20 21 37 44 37 51 0 23 83
127 159 201 40 39 86 87 101 108 15 20 87 99 159 175 72 75 150 166 174 202
23 36 59 88 79 115 20 28 43 67 51 87 32 76 102 185 152 233 27 28 77 86 110
130 64 85 146 170 396 406 167 158 200 184 245 195 16 4 110 48 209 98 99 50
212 105 250 123 41 18 106 62 155 103 93 78 182 141 305 215 44 26 92 59 106
74 15 14 42 40 61 57 18 17 59 69 91 115 58 86 93 118 227 207 41 27 123 95
183 150 71 66 132 113 180 138 78 41 213 166 327 304 35 41 83 89 109 106 25
18 76 63 113 100 36 38 106 109 155 159 l88 90 6 -170 c9 -222 29 -281 84
-242 18 14 18 16 2 67 -13 41 -17 91 -17 235 l0 183 -31 58 c-34 65 -56 94
-73 94 -7 0 -47 -22 -90 -49z m-5917 -5521 c176 -36 376 -94 398 -115 8 -8 23
-15 32 -15 48 0 213 -92 284 -159 27 -25 61 -68 75 -96 25 -46 27 -60 27 -160
-1 -131 -20 -193 -91 -297 -95 -140 -308 -306 -449 -351 -61 -19 -92 -22 -235
-22 -191 0 -258 15 -418 90 -180 85 -320 202 -370 309 -34 70 -45 177 -33 305
17 182 60 271 186 389 67 63 176 131 244 153 45 15 190 2 350 -31z"/>
<path d="M3887 13352 c-15 -16 -17 -54 -17 -329 0 -299 1 -311 21 -337 25 -32
70 -35 116 -6 25 15 36 32 52 86 33 106 29 114 -30 50 -28 -31 -55 -56 -60
-56 -5 0 -9 122 -9 283 0 240 -2 286 -16 305 -18 27 -36 28 -57 4z"/>
<path d="M14143 19113 c-23 -8 -15 -61 10 -78 35 -23 192 -41 212 -25 40 33 9
58 -92 74 -43 7 -87 17 -98 23 -11 6 -26 8 -32 6z"/>
<path d="M14628 18919 c-26 -15 -23 -57 5 -68 142 -57 158 -61 250 -61 96 0
117 8 117 41 0 33 -39 49 -118 49 -55 0 -87 6 -132 25 -64 27 -95 30 -122 14z"/>
<path d="M10620 18899 c-14 -26 -8 -287 8 -344 7 -22 15 -53 18 -70 l7 -30 8
30 c4 17 15 57 23 91 22 84 22 291 0 322 -19 28 -50 28 -64 1z"/>
<path d="M16235 18874 c-55 -16 -74 -79 -33 -109 21 -14 24 -14 36 2 12 16 32
18 230 15 447 -5 685 -63 822 -201 92 -93 120 -179 120 -370 0 -353 -124 -636
-322 -737 -90 -46 -147 -54 -371 -54 -402 0 -623 62 -782 218 -82 81 -99 124
-103 263 -10 296 66 395 480 630 192 109 216 119 297 122 39 1 71 6 71 10 0
18 -79 39 -150 40 -73 2 -79 0 -189 -56 -132 -68 -302 -171 -383 -233 -164
-127 -223 -266 -216 -515 3 -129 5 -138 36 -201 22 -46 53 -85 101 -131 113
-106 240 -167 434 -208 94 -20 106 -25 111 -45 7 -27 97 -164 157 -239 69 -87
112 -158 135 -221 13 -33 37 -87 55 -120 58 -105 68 -130 95 -230 25 -94 32
-111 62 -143 18 -19 73 -127 94 -186 23 -64 95 -204 118 -230 10 -11 25 -36
32 -55 8 -19 37 -60 65 -90 93 -104 130 -170 185 -340 15 -47 50 -115 93 -180
227 -349 255 -388 382 -525 157 -170 179 -189 373 -335 195 -146 271 -214 563
-504 252 -249 262 -260 323 -377 21 -41 59 -101 84 -134 25 -33 68 -89 95
-125 27 -36 74 -90 106 -120 31 -30 78 -86 104 -125 27 -38 64 -86 83 -106 43
-46 50 -88 61 -369 7 -172 12 -215 30 -265 12 -33 37 -103 55 -156 39 -112 50
-135 81 -169 13 -14 44 -66 69 -116 36 -71 48 -109 56 -170 6 -42 9 -79 7 -80
-1 -2 -20 1 -42 6 -52 12 -361 13 -403 1 -42 -12 -122 -63 -119 -75 7 -24 37
-30 69 -16 24 11 85 15 233 18 l201 3 59 -32 c33 -18 80 -48 104 -68 38 -31
51 -36 109 -39 76 -5 124 14 141 57 13 34 66 239 81 314 8 39 18 60 31 68 12
6 18 17 15 24 -5 15 26 8 148 -35 77 -26 136 -26 169 0 24 19 77 139 122 278
9 28 18 52 19 52 2 0 25 -28 51 -62 76 -95 112 -128 143 -128 16 0 33 5 40 12
17 17 14 69 -4 93 -13 17 -16 18 -25 5 -11 -17 -23 -5 -121 124 -57 76 -59 81
-52 120 13 66 10 98 -8 109 -22 14 -48 -7 -48 -39 0 -17 -6 -24 -19 -24 -54 0
-65 -31 -31 -88 17 -28 19 -39 10 -80 -17 -79 -82 -253 -93 -249 -14 4 -159
208 -197 277 -17 30 -49 84 -70 120 -22 36 -44 74 -49 85 -5 11 -47 58 -95
104 -47 47 -108 117 -134 157 -52 76 -130 271 -152 379 -15 73 -49 142 -137
277 -89 137 -151 208 -243 278 -95 73 -194 179 -227 245 -32 62 -165 196 -338
337 -134 110 -217 195 -322 333 -64 84 -224 251 -383 399 -135 126 -202 207
-261 316 -28 52 -68 122 -87 155 -20 33 -66 119 -102 190 -141 279 -231 434
-277 477 -47 45 -75 94 -112 194 -14 37 -43 85 -72 120 -28 33 -80 106 -115
164 -145 234 -282 400 -475 575 -78 72 -157 144 -173 160 l-31 30 140 6 c112
5 152 11 200 29 212 81 339 246 411 533 21 82 27 136 31 272 5 152 3 179 -16
254 -26 104 -58 160 -133 233 -105 103 -278 170 -524 203 -112 15 -553 29
-589 19z m435 -1580 c0 -41 -6 -34 199 -219 142 -128 231 -228 330 -367 34
-48 65 -90 70 -93 5 -3 37 -51 71 -108 33 -56 82 -128 109 -159 34 -40 59 -85
86 -153 31 -80 48 -108 98 -161 59 -64 91 -118 244 -414 36 -69 92 -174 125
-235 171 -309 189 -334 373 -506 168 -159 314 -310 377 -394 102 -135 194
-231 332 -342 172 -140 297 -265 330 -331 32 -64 145 -185 235 -251 79 -59
137 -125 220 -250 83 -126 127 -210 135 -260 7 -47 60 -204 100 -299 34 -81
120 -198 212 -287 39 -39 87 -99 108 -135 20 -36 41 -72 46 -80 5 -8 23 -40
41 -70 18 -30 65 -101 106 -158 77 -107 91 -132 76 -132 -5 0 -49 13 -99 29
-127 41 -231 61 -322 61 -88 0 -116 -12 -110 -51 3 -24 5 -24 116 -27 108 -3
123 -7 103 -27 -5 -6 -17 -41 -25 -80 -9 -38 -30 -125 -48 -192 l-31 -123 -54
0 c-48 0 -60 5 -101 37 -26 21 -48 37 -48 38 -1 0 4 32 12 70 25 129 15 193
-26 168 -25 -16 -30 -16 -30 1 0 24 -90 196 -121 231 -18 20 -44 73 -64 132
-18 54 -44 123 -56 153 -19 48 -23 82 -30 255 -11 289 -30 391 -74 417 -7 5
-45 53 -85 108 -40 55 -89 115 -109 133 -70 60 -234 278 -282 376 -49 98 -61
113 -249 302 -349 351 -468 456 -791 696 -57 42 -263 255 -341 353 -24 30 -69
93 -99 140 -31 47 -92 141 -136 210 -90 139 -99 156 -139 284 -31 95 -83 183
-159 268 -27 29 -56 72 -66 94 -10 23 -26 47 -34 54 -16 14 -107 194 -120 240
-10 34 -84 170 -106 195 -10 11 -27 58 -39 105 -12 47 -48 139 -80 205 -32 66
-74 154 -93 195 -19 41 -63 113 -98 159 -85 112 -158 214 -158 224 -1 4 37 7
84 7 l85 0 0 -36z"/>
<path d="M9111 18780 c-57 -65 -101 -133 -101 -159 0 -20 106 44 163 98 52 49
58 59 55 90 -2 30 -7 36 -28 39 -20 2 -38 -12 -89 -68z"/>
<path d="M15198 18709 c-10 -5 -18 -16 -18 -23 0 -8 -7 -19 -15 -26 -9 -8 -15
-30 -15 -59 l0 -46 166 -164 c140 -138 168 -170 179 -209 10 -31 11 -50 4 -58
-5 -7 -67 -38 -137 -69 -140 -63 -387 -206 -396 -230 -7 -19 3 -45 18 -45 6 0
76 38 155 85 79 46 183 100 230 120 96 40 164 78 192 106 20 20 27 93 10 103
-5 3 -12 22 -15 41 -6 29 -38 67 -177 204 -93 93 -169 175 -169 183 0 21 126
11 166 -13 37 -22 83 -25 109 -5 19 14 19 14 1 35 -11 12 -43 35 -72 51 -44
26 -61 30 -125 30 -41 0 -82 -5 -91 -11z"/>
<path d="M4053 18543 c-20 -48 -13 -195 17 -367 21 -122 49 -200 94 -258 13
-18 28 -45 31 -60 12 -47 65 -30 65 19 0 27 -22 74 -56 119 -13 17 -31 50 -39
75 -20 53 -55 284 -55 356 0 60 -20 153 -32 153 -5 0 -16 -17 -25 -37z"/>
<path d="M15640 18545 c-26 -32 21 -103 87 -131 64 -27 153 -12 153 27 0 20
-42 49 -71 49 -34 0 -61 12 -102 46 -33 28 -50 30 -67 9z"/>
<path d="M4393 18475 c-18 -12 -23 -26 -23 -59 0 -34 5 -47 23 -59 21 -14 22
-13 32 22 10 35 13 36 60 39 43 3 48 1 34 -10 -37 -29 -120 -165 -139 -226
-22 -70 -27 -190 -10 -239 17 -47 66 -65 196 -71 175 -8 268 27 333 125 51 76
66 135 66 255 0 93 -3 110 -21 135 -52 69 -137 93 -359 100 -147 4 -173 3
-192 -12z m374 -81 c53 -11 80 -23 104 -45 l32 -30 -5 -92 c-7 -131 -51 -222
-128 -262 -58 -30 -288 -25 -326 6 -21 17 -18 138 5 205 11 30 40 83 65 119
46 64 55 92 35 112 -14 14 126 6 218 -13z"/>
<path d="M16426 18428 c-13 -19 -14 -25 -2 -43 13 -19 25 -20 287 -25 274 -5
274 -5 277 -27 2 -16 -6 -28 -30 -43 -40 -25 -198 -75 -282 -91 -73 -13 -93
-23 -101 -49 -11 -36 19 -63 136 -123 63 -31 128 -69 144 -83 l30 -25 -145 5
c-158 5 -191 12 -292 58 -57 26 -70 29 -83 18 -25 -21 -14 -62 24 -87 19 -13
71 -35 115 -50 73 -23 100 -26 273 -31 167 -4 196 -2 218 12 68 45 -12 142
-198 242 l-58 31 86 28 c105 35 192 82 219 119 32 43 29 118 -7 153 l-27 28
-284 3 -284 3 -16 -23z"/>
<path d="M10667 18332 c-25 -27 -23 -128 3 -167 11 -16 30 -45 41 -62 12 -18
23 -33 26 -33 4 0 3 50 -1 112 -9 145 -31 193 -69 150z"/>
<path d="M8658 18292 c-41 -27 -140 -140 -133 -152 17 -28 93 10 158 79 52 55
61 91 25 91 -13 0 -35 -8 -50 -18z"/>
<path d="M8310 17904 c-50 -28 -155 -126 -174 -164 -7 -14 -16 -44 -20 -67
l-6 -42 36 22 c66 40 203 178 209 211 4 17 9 39 11 49 7 22 -1 21 -56 -9z"/>
<path d="M10792 17841 c-7 -17 -33 -60 -58 -97 -24 -38 -44 -78 -44 -91 0 -26
36 -67 50 -58 16 10 110 159 110 174 0 19 -33 101 -40 101 -3 0 -11 -13 -18
-29z"/>
<path d="M15375 17547 l-70 -31 -190 -1 c-207 0 -285 8 -285 30 0 7 6 16 13
18 9 4 9 6 -1 6 -17 1 -62 -44 -62 -62 0 -52 72 -67 320 -67 144 1 184 4 225
19 28 10 59 21 70 25 l20 8 -20 -13 c-41 -25 -131 -114 -161 -158 -43 -63
-109 -122 -180 -160 -86 -46 -152 -107 -245 -229 -45 -59 -103 -129 -130 -157
-83 -88 -179 -209 -199 -252 -10 -22 -24 -63 -30 -90 -7 -26 -37 -99 -67 -161
-59 -119 -102 -169 -250 -291 -74 -61 -133 -136 -167 -211 -40 -91 -363 -500
-667 -845 -34 -38 -85 -109 -113 -156 -28 -48 -72 -117 -97 -155 -25 -38 -57
-101 -71 -140 -34 -94 -196 -323 -346 -489 -36 -38 -72 -86 -81 -105 -9 -19
-27 -52 -39 -73 -13 -20 -38 -73 -56 -116 -22 -54 -49 -97 -84 -136 -88 -96
-193 -237 -226 -305 -18 -36 -56 -100 -84 -144 -29 -43 -52 -84 -52 -91 0 -6
-17 -38 -38 -71 -21 -32 -62 -104 -91 -159 -101 -188 -165 -290 -217 -345 -61
-65 -86 -112 -113 -210 -29 -104 -65 -175 -125 -249 -69 -85 -120 -188 -140
-283 -6 -25 -11 -28 -50 -28 -30 0 -65 -11 -112 -35 -60 -30 -79 -35 -144 -35
-126 -1 -190 -46 -190 -134 0 -38 8 -66 19 -66 4 0 21 20 39 45 29 42 72 70
94 63 5 -2 -18 -34 -51 -72 -236 -268 -381 -609 -381 -899 0 -175 48 -280 171
-374 162 -124 346 -169 647 -160 225 7 310 29 476 126 154 91 276 214 310 316
22 64 26 287 7 365 -30 124 -123 269 -267 416 -133 136 -281 236 -451 305 -70
28 -83 36 -83 56 0 22 4 23 64 23 36 0 76 -4 90 -10 14 -5 26 -6 26 -1 0 17
-53 43 -113 55 -54 11 -62 16 -65 37 -4 35 79 190 145 269 59 71 111 171 138
265 25 86 58 147 100 184 42 37 153 208 215 331 23 47 59 110 78 140 20 30 49
82 65 115 16 33 45 82 64 108 19 27 52 84 74 126 39 76 132 200 233 312 35 37
57 74 71 114 11 32 35 84 53 114 19 31 40 71 47 89 8 18 38 58 68 90 139 148
332 414 366 507 26 70 56 124 100 179 17 22 50 72 72 113 22 40 68 104 102
142 286 320 632 758 673 850 35 79 86 143 172 214 153 128 183 164 244 287 32
63 63 138 69 165 23 98 72 171 225 335 23 25 81 95 128 156 98 128 120 148
227 210 81 47 174 132 204 188 10 17 30 41 46 54 l29 23 -15 -42 c-8 -23 -15
-67 -15 -99 0 -48 4 -60 26 -80 33 -32 42 -17 41 69 0 54 6 81 37 154 42 102
55 169 36 192 -17 20 -25 19 -105 -18z m-4055 -5961 c0 -9 -8 -12 -27 -8 -25
5 -25 6 -8 13 29 11 35 10 35 -5z m8 -112 c100 -29 231 -94 332 -165 154 -108
336 -317 409 -469 36 -75 36 -76 36 -210 0 -173 -12 -207 -99 -287 -97 -88
-289 -192 -427 -230 -93 -26 -420 -26 -534 0 -167 39 -312 132 -369 238 -55
100 -47 307 21 511 62 189 199 411 349 565 l81 84 59 -7 c32 -4 96 -17 142
-30z"/>
<path d="M11356 11224 c-29 -29 -87 -142 -116 -228 -54 -160 -50 -250 13 -283
21 -10 67 -18 129 -21 l97 -5 -5 -111 c-6 -135 2 -159 60 -164 21 -2 45 -1 54
3 15 5 14 9 -7 24 -22 17 -23 22 -20 129 3 61 7 113 10 116 3 3 41 11 84 16
86 11 125 30 125 60 0 31 -31 40 -119 33 l-82 -6 5 24 c4 13 7 62 9 108 3 104
-14 120 -38 34 -9 -32 -24 -83 -33 -113 l-17 -55 -56 -3 c-31 -2 -78 1 -105 5
l-49 9 3 54 c5 70 52 214 98 297 29 52 34 66 24 78 -16 19 -45 19 -64 -1z"/>
<path d="M15973 17309 c-85 -88 -98 -111 -83 -140 21 -39 54 -23 139 67 81 85
95 116 69 142 -24 24 -49 10 -125 -69z"/>
<path d="M7814 17331 c-111 -53 -160 -120 -99 -135 18 -5 47 6 110 40 84 45
106 66 120 112 6 19 3 22 -22 22 -16 0 -65 -17 -109 -39z"/>
<path d="M10812 17350 c-6 -14 -21 -53 -33 -88 -13 -36 -38 -81 -61 -107 -44
-50 -59 -89 -47 -123 16 -44 42 -29 123 73 64 81 74 115 53 182 -9 26 -17 57
-20 68 -3 18 -5 18 -15 -5z"/>
<path d="M17342 17308 c-30 -30 -10 -59 53 -80 68 -23 189 -197 242 -350 30
-86 38 -98 69 -98 40 0 46 30 23 107 -46 151 -180 360 -262 407 -46 28 -105
34 -125 14z"/>
<path d="M10074 17288 c-5 -7 -10 -73 -12 -145 l-4 -133 -188 0 -188 0 -7 78
c-8 97 -13 124 -24 117 -10 -5 -27 -183 -23 -225 5 -47 21 -50 237 -50 l202 0
6 -159 c3 -88 10 -168 16 -180 15 -26 41 -27 69 -1 22 20 22 20 2 40 -17 17
-20 34 -20 117 0 121 -19 466 -29 512 -7 37 -24 50 -37 29z"/>
<path d="M9278 17078 c-14 -18 -31 -44 -38 -58 l-13 -25 30 28 c16 15 32 27
36 27 4 0 7 -101 7 -224 0 -146 4 -227 10 -231 6 -4 22 1 35 9 l25 16 0 220
c0 120 -4 230 -10 244 -14 38 -51 34 -82 -6z"/>
<path d="M15828 17073 c-56 -59 -169 -209 -175 -232 -7 -29 7 -55 34 -59 15
-2 45 29 124 128 57 72 105 137 107 146 5 21 -17 44 -42 44 -12 0 -34 -12 -48
-27z"/>
<path d="M18874 16855 c-15 -59 31 -71 286 -80 96 -4 185 -8 198 -11 21 -4 22
-8 22 -117 0 -61 -5 -130 -11 -152 -5 -22 -17 -64 -25 -92 l-15 -53 -117 0
c-101 0 -122 -3 -152 -21 l-34 -21 23 -19 c20 -16 41 -19 143 -19 l120 0 -6
-27 c-11 -54 -26 -198 -26 -248 0 -64 10 -80 44 -71 25 6 26 10 26 74 0 60 10
149 25 240 l6 32 105 0 c107 0 164 15 164 43 0 30 -25 37 -138 37 -105 0 -114
1 -107 18 3 9 15 53 26 97 23 96 27 320 7 348 -19 24 -102 37 -252 38 -119 1
-184 6 -273 25 -29 5 -33 3 -39 -21z"/>
<path d="M10659 16664 c-15 -18 -15 -53 -1 -199 11 -123 26 -155 73 -155 16 0
10 213 -7 282 -22 87 -38 104 -65 72z"/>
<path d="M6836 16633 c-58 -45 -91 -86 -81 -102 4 -8 15 -3 33 15 15 14 50 40
77 57 49 32 64 59 35 64 -8 2 -37 -14 -64 -34z"/>
<path d="M17748 16610 c-38 -23 -7 -61 62 -74 92 -19 100 -24 100 -67 0 -22 7
-55 14 -74 30 -72 81 -26 80 71 0 68 -18 101 -69 126 -46 24 -160 35 -187 18z"/>
<path d="M15427 16562 c-10 -10 -17 -34 -17 -53 0 -72 -50 -197 -127 -318 -19
-29 -32 -55 -29 -58 9 -10 108 52 138 86 65 74 134 284 110 336 -14 30 -51 34
-75 7z"/>
<path d="M18208 16309 c-25 -14 -22 -42 8 -70 37 -34 50 -66 57 -131 5 -53 32
-118 48 -118 4 0 15 17 24 37 36 74 14 192 -45 254 -37 40 -61 47 -92 28z"/>
<path d="M10923 16267 c-4 -6 -8 -66 -8 -132 0 -93 -5 -130 -19 -165 -19 -44
-19 -46 1 -90 l19 -45 17 30 c75 137 79 150 75 248 -2 73 -7 97 -23 119 -28
37 -52 51 -62 35z"/>
<path d="M15675 16260 c-43 -9 -61 -21 -115 -74 -80 -79 -94 -117 -98 -282
l-4 -142 37 -40 c52 -58 103 -75 212 -71 80 4 94 7 126 32 96 73 147 200 147
364 0 101 -1 106 -27 132 -28 27 -149 75 -213 83 -19 3 -49 2 -65 -2z m5 -39
c-12 -24 -13 -91 -1 -110 6 -10 12 -3 21 24 l12 37 53 -4 c28 -2 74 -15 101
-29 l49 -24 3 -90 c3 -104 -11 -160 -64 -242 -44 -69 -84 -88 -171 -80 -77 8
-137 37 -159 79 -13 26 -15 51 -11 137 3 58 11 123 18 143 16 48 76 127 118
155 41 28 45 28 31 4z"/>
<path d="M6372 16203 c-15 -27 -47 -67 -72 -90 -52 -50 -43 -55 22 -14 50 32
68 54 93 114 14 33 14 37 0 37 -9 0 -28 -21 -43 -47z"/>
<path d="M16851 15959 c-8 -25 -14 -30 -28 -24 -10 5 -49 10 -88 12 -61 4 -74
2 -105 -19 -19 -13 -52 -48 -72 -77 -31 -45 -38 -63 -38 -103 0 -44 3 -50 28
-59 32 -13 152 -3 197 15 16 7 45 25 63 40 20 17 32 23 32 14 1 -169 7 -298
12 -303 4 -4 19 -5 33 -1 l25 6 -2 263 c-3 259 -3 262 -24 265 -17 2 -24 -5
-33 -29z m-16 -66 c-14 -58 -56 -114 -98 -134 -46 -20 -167 -27 -167 -9 0 21
40 88 70 118 22 22 43 33 78 37 26 3 54 8 62 9 8 2 26 4 39 5 20 1 22 -2 16
-26z"/>
<path d="M15042 15878 c-5 -7 -17 -28 -26 -45 -9 -18 -30 -46 -46 -63 -35 -36
-38 -55 -11 -70 31 -16 48 -12 85 20 65 58 86 170 32 170 -13 0 -28 -6 -34
-12z"/>
<path d="M5934 15840 c-42 -17 -101 -116 -81 -136 9 -9 145 65 161 87 31 44
-18 74 -80 49z"/>
<path d="M18491 15791 c-29 -54 12 -142 97 -207 55 -42 88 -44 104 -8 12 25 9
29 -41 73 -29 26 -68 71 -85 101 -35 60 -59 72 -75 41z"/>
<path d="M16358 15619 c-29 -11 -43 -35 -27 -45 6 -4 25 8 42 25 33 32 30 36
-15 20z"/>
<path d="M10952 15558 c-17 -17 -17 -329 0 -346 19 -19 56 -14 68 9 7 13 10
72 8 164 -3 124 -6 146 -22 164 -22 24 -37 26 -54 9z"/>
<path d="M18897 15384 c-19 -19 14 -139 53 -195 26 -36 132 -109 158 -109 27
0 45 25 37 50 -4 11 -31 39 -61 61 -45 33 -62 54 -92 117 -30 63 -42 78 -62
80 -14 2 -29 0 -33 -4z"/>
<path d="M5385 15363 c-34 -18 -45 -31 -45 -55 0 -24 31 -23 79 2 47 23 73 48
66 61 -9 14 -67 10 -100 -8z"/>
<path d="M14649 15312 c-9 -9 -37 -37 -63 -61 -81 -75 -84 -113 -5 -62 82 53
139 132 99 137 -8 2 -22 -5 -31 -14z"/>
<path d="M14525 15116 c-17 -7 -61 -47 -99 -89 -55 -61 -67 -81 -64 -104 2
-21 9 -29 27 -31 42 -6 181 159 181 215 0 26 -4 27 -45 9z"/>
<path d="M19196 15074 c-3 -9 -6 -24 -6 -33 0 -25 72 -175 109 -231 17 -25 31
-54 31 -65 0 -46 48 -60 74 -23 24 34 19 60 -24 127 -22 34 -53 90 -68 124
-18 39 -42 72 -65 90 -42 32 -43 32 -51 11z"/>
<path d="M2489 15043 c-22 -57 15 -633 45 -690 19 -37 32 -43 69 -30 33 11 36
40 5 61 -19 13 -23 32 -35 158 -8 79 -17 229 -21 333 -7 187 -7 190 -29 193
-17 3 -26 -4 -34 -25z"/>
<path d="M5115 15031 c-75 -34 -118 -110 -80 -141 16 -13 18 -11 29 40 3 14
27 42 56 65 70 56 68 70 -5 36z"/>
<path d="M11071 14992 c-4 -9 -11 -105 -13 -213 -4 -173 -1 -213 17 -237 7 -9
38 15 52 42 13 23 18 66 21 175 4 133 3 147 -18 192 -25 53 -45 67 -59 41z"/>
<path d="M1678 14978 c19 -24 41 -173 47 -318 10 -257 34 -330 103 -315 38 8
38 10 12 53 -22 36 -25 46 -10 37 7 -4 9 2 5 17 -6 22 -2 26 37 37 86 26 324
123 361 147 20 13 37 31 37 39 0 26 -54 17 -162 -26 -106 -43 -300 -111 -303
-106 -1 1 -9 63 -18 137 -16 127 -52 264 -78 296 -6 8 -18 14 -26 14 -11 0
-13 -4 -5 -12z"/>
<path d="M1359 14707 c-51 -27 -130 -120 -156 -184 -16 -39 -21 -44 -48 -42
-16 0 -68 0 -115 -2 l-85 -3 110 -5 c91 -5 109 -9 106 -21 -2 -8 -6 -48 -9
-87 -4 -62 -2 -74 12 -79 31 -12 56 24 56 80 1 62 33 145 85 215 43 60 78 81
133 81 46 0 75 -25 128 -107 19 -29 39 -53 45 -53 19 0 49 20 49 33 0 21 -98
163 -124 181 -39 25 -133 21 -187 -7z"/>
<path d="M4890 14704 c-50 -22 -70 -43 -70 -76 0 -51 27 -46 91 18 32 32 59
62 59 66 0 13 -42 8 -80 -8z"/>
<path d="M14170 14572 c0 -5 -37 -46 -83 -93 -46 -46 -89 -99 -95 -117 l-11
-33 32 6 c96 19 203 154 181 228 -5 17 -24 24 -24 9z"/>
<path d="M656 14540 c-75 -23 -119 -112 -120 -243 -1 -113 6 -121 116 -115 94
6 139 31 188 109 l34 52 19 -57 c23 -69 73 -126 111 -126 33 0 82 24 89 44 4
10 -5 16 -31 21 -85 16 -104 50 -140 255 -7 44 -8 45 -47 46 -41 1 -148 12
-175 19 -8 2 -28 -1 -44 -5z m190 -72 c-10 -50 -62 -154 -90 -183 -22 -22 -34
-25 -92 -25 l-67 0 5 63 c6 65 38 144 64 154 19 7 110 20 153 22 33 1 33 0 27
-31z"/>
<path d="M11041 14446 c-10 -11 -9 -21 3 -45 25 -47 21 -158 -9 -243 -14 -39
-25 -79 -25 -89 0 -26 27 -48 50 -42 25 7 41 37 70 130 29 95 26 248 -4 282
-22 24 -68 28 -85 7z"/>
<path d="M4578 14435 c-76 -28 -110 -64 -87 -92 11 -13 35 -15 27 -2 -6 12 27
41 73 65 79 39 70 60 -13 29z"/>
<path d="M9373 14425 c-14 -10 -19 -22 -16 -35 4 -15 0 -20 -15 -20 -29 0 -89
-54 -115 -104 -16 -32 -21 -59 -21 -128 -1 -59 3 -91 12 -100 9 -9 49 -13 140
-13 109 0 131 3 156 20 39 26 56 72 56 152 -1 108 -24 156 -98 206 -51 34 -74
39 -99 22z m107 -137 c14 -24 20 -51 20 -95 0 -96 4 -93 -121 -93 l-109 0 0
43 c1 76 38 148 85 168 11 4 39 8 63 8 37 1 45 -3 62 -31z"/>
<path d="M10272 14427 c-7 -8 -12 -30 -13 -48 0 -19 -2 -88 -5 -154 -5 -101
-3 -125 12 -152 16 -31 98 -103 116 -103 4 0 8 -4 8 -8 0 -5 -33 -14 -72 -21
-40 -7 -82 -15 -92 -18 -15 -4 -18 -1 -13 12 6 14 1 13 -31 -6 -45 -28 -51
-36 -45 -60 7 -26 57 -25 210 5 214 43 236 76 98 150 -61 32 -113 79 -126 113
-12 31 -12 190 0 197 5 3 42 -1 83 -9 40 -8 138 -21 218 -29 122 -12 150 -12
178 0 24 9 32 19 32 37 0 34 -25 54 -45 37 -12 -10 -40 -10 -138 -1 -151 15
-299 40 -292 51 3 4 -5 8 -18 7 -12 0 -29 3 -38 7 -9 4 -21 1 -27 -7z"/>
<path d="M19472 14408 c-19 -19 -14 -60 12 -119 14 -30 35 -94 47 -144 36
-147 49 -166 90 -129 28 25 22 85 -21 214 -55 168 -90 216 -128 178z"/>
<path d="M20615 14314 c-14 -15 -34 -52 -47 -83 -19 -48 -22 -76 -23 -193 0
-131 1 -137 24 -162 14 -15 47 -33 75 -41 66 -20 218 -20 255 0 76 39 115 136
109 267 -3 77 -4 81 -40 113 -38 36 -118 65 -176 65 -25 0 -41 8 -62 30 -37
39 -81 41 -115 4z m97 -40 c-15 -11 -22 -25 -22 -50 0 -42 22 -54 50 -29 18
16 26 17 74 6 30 -7 70 -22 88 -34 31 -22 33 -26 36 -92 4 -81 -17 -148 -54
-172 -33 -21 -176 -13 -231 13 l-38 19 -3 99 c-4 152 36 256 100 256 l22 0
-22 -16z"/>
<path d="M21790 14240 c-85 -20 -132 -144 -99 -263 12 -46 38 -70 111 -108 52
-26 96 -45 253 -105 l50 -19 -180 -5 -180 -5 -3 -32 -3 -33 248 0 c209 0 252
2 271 16 59 41 7 85 -192 159 -274 102 -316 130 -316 212 0 52 23 113 43 113
8 0 19 -12 25 -26 15 -31 76 -59 162 -73 84 -14 365 -14 391 -1 38 21 18 132
-24 129 -21 -1 -93 -37 -76 -38 9 -1 23 -8 30 -17 13 -16 3 -17 -131 -11 -140
5 -250 21 -250 36 0 4 5 12 11 18 21 21 1 50 -39 57 -44 7 -56 7 -102 -4z"/>
<path d="M4387 14177 c-77 -61 -290 -264 -298 -284 -10 -28 -2 -53 18 -53 18
0 200 156 250 214 41 48 88 146 70 146 -7 -1 -25 -11 -40 -23z"/>
<path d="M9822 14148 c-19 -19 -15 -48 7 -48 24 0 43 23 35 44 -7 19 -25 21
-42 4z"/>
<path d="M13693 14057 c-49 -60 -128 -195 -120 -204 3 -2 17 6 33 19 16 13 46
32 67 42 21 11 60 47 88 80 39 48 49 68 47 91 -3 25 -8 30 -33 33 -26 2 -37
-6 -82 -61z"/>
<path d="M14400 13994 c-6 -14 -10 -114 -10 -222 0 -108 -5 -215 -11 -237 -23
-87 -23 -95 0 -95 30 0 59 32 68 77 10 48 11 439 0 476 -9 34 -34 35 -47 1z"/>
<path d="M10970 13960 c-17 -17 -20 -34 -20 -126 0 -77 4 -115 16 -140 23 -49
31 -50 54 -5 16 33 20 59 20 141 0 56 -4 109 -10 119 -15 29 -38 33 -60 11z"/>
<path d="M14744 13959 c-39 -11 -72 -45 -57 -60 12 -12 21 -12 145 -3 109 8
128 1 128 -47 0 -67 -44 -123 -188 -236 -90 -71 -102 -86 -102 -133 0 -24 6
-33 26 -40 24 -9 339 -30 444 -30 58 1 85 20 76 55 -4 16 -12 25 -19 22 -20
-8 -430 12 -439 21 -5 5 7 19 24 32 86 62 182 149 209 189 26 40 29 53 29 123
0 111 -8 118 -142 117 -57 0 -117 -5 -134 -10z"/>
<path d="M19750 13918 c0 -41 20 -75 94 -158 32 -36 71 -93 88 -127 16 -34 36
-64 44 -67 37 -14 63 28 50 82 -11 45 -72 128 -159 217 -90 93 -117 105 -117
53z"/>
<path d="M21258 13909 c-12 -6 -18 -22 -18 -44 0 -28 4 -35 19 -35 11 0 22 4
25 9 3 4 19 11 36 15 35 6 48 29 30 51 -14 17 -66 19 -92 4z"/>
<path d="M1569 13760 c-95 -17 -212 -85 -248 -144 -26 -42 -29 -161 -6 -206
23 -45 48 -54 108 -39 l51 12 -34 11 c-50 17 -73 54 -73 120 0 74 17 97 104
140 64 32 80 36 150 36 l79 0 0 -92 c0 -51 -5 -112 -10 -135 -13 -56 -90 -223
-103 -223 -6 0 -18 -7 -28 -16 -13 -12 -16 -22 -9 -39 5 -14 4 -37 -5 -63 -23
-65 -35 -159 -35 -270 0 -193 17 -206 295 -210 l190 -3 55 33 c92 55 122 152
88 286 -26 106 -226 245 -391 273 l-74 12 39 87 c48 109 61 178 56 302 -4 119
-12 131 -95 134 -32 2 -79 -1 -104 -6z m202 -613 c115 -35 259 -132 291 -197
22 -43 24 -140 3 -179 -25 -49 -67 -61 -219 -61 -151 0 -226 12 -251 40 -15
17 -17 36 -12 157 3 91 10 153 21 183 9 25 18 51 21 58 6 16 90 16 146 -1z"/>
<path d="M13355 13554 c-75 -80 -114 -139 -100 -152 3 -4 15 -1 25 6 11 7 26
12 33 12 26 0 108 63 143 108 43 57 45 105 4 109 -20 2 -41 -15 -105 -83z"/>
<path d="M11121 13447 c0 -11 -10 -30 -21 -44 -18 -23 -20 -41 -20 -187 0
-113 4 -166 12 -174 18 -18 56 -14 68 7 5 11 10 85 10 169 0 132 -2 152 -19
173 -10 14 -21 36 -24 49 -3 16 -5 18 -6 7z"/>
<path d="M20123 13434 c-8 -22 11 -59 66 -123 27 -31 58 -75 70 -98 12 -24 28
-43 36 -43 8 0 15 -4 15 -9 0 -5 17 -33 37 -62 21 -30 54 -85 73 -124 36 -71
58 -88 85 -65 39 32 4 117 -89 220 -40 45 -70 89 -76 110 -20 74 -139 210
-184 210 -15 0 -29 -7 -33 -16z"/>
<path d="M12951 13086 c-48 -25 -208 -195 -217 -231 -7 -30 12 -65 34 -65 22
0 42 19 42 38 0 8 28 44 61 80 78 83 157 203 133 202 -5 -1 -29 -11 -53 -24z"/>
<path d="M4993 12815 c-25 -18 -30 -47 -10 -63 6 -5 35 -13 62 -16 28 -4 93
-19 145 -32 128 -34 255 -42 297 -20 18 9 34 20 38 26 11 18 -69 47 -150 53
-44 4 -121 18 -171 31 -132 36 -184 41 -211 21z"/>
<path d="M11077 12723 c-31 -141 -18 -243 32 -243 35 0 44 26 38 103 -6 79
-35 217 -46 217 -3 0 -14 -35 -24 -77z"/>
<path d="M20574 12746 c-7 -30 11 -63 79 -146 54 -66 85 -82 113 -60 24 21 17
37 -58 135 -60 80 -76 95 -100 95 -21 0 -29 -6 -34 -24z"/>
<path d="M5572 12748 c-34 -34 10 -70 140 -112 59 -19 125 -44 148 -56 24 -12
55 -20 73 -18 28 3 32 7 32 33 0 26 -7 34 -54 59 -61 33 -273 106 -306 106
-11 0 -26 -5 -33 -12z"/>
<path d="M12628 12729 c-10 -5 -43 -41 -73 -79 -30 -38 -84 -92 -120 -122 -36
-29 -68 -64 -72 -77 -7 -28 7 -55 30 -59 19 -4 168 118 213 175 86 107 99 208
22 162z"/>
<path d="M6028 12639 c-55 -21 -38 -71 28 -83 19 -4 64 -20 101 -37 82 -37
107 -35 111 7 4 38 -14 55 -98 87 -84 33 -109 38 -142 26z"/>
<path d="M9993 12498 c-47 -61 -26 -99 168 -320 167 -189 290 -342 342 -424
l25 -41 -61 -43 c-64 -46 -301 -271 -318 -303 -6 -10 -7 -27 -4 -39 6 -17 13
-19 42 -15 54 9 86 34 79 62 -5 20 9 38 96 119 57 53 134 117 173 143 38 27
71 56 73 66 8 43 -140 245 -391 530 -116 132 -170 201 -179 230 -14 44 -29 55
-45 35z"/>
<path d="M6388 12479 c-21 -12 -24 -52 -5 -67 6 -5 57 -18 112 -27 55 -10 117
-26 138 -37 42 -21 67 -13 67 22 0 55 -33 74 -171 101 -114 22 -118 22 -141 8z"/>
<path d="M11058 12288 c-9 -16 -13 -72 -13 -186 0 -159 1 -164 23 -182 16 -14
29 -17 45 -11 21 8 22 12 22 172 -1 170 -6 198 -45 219 -16 8 -22 6 -32 -12z"/>
<path d="M6920 12285 c-23 -27 0 -54 93 -106 51 -29 110 -67 131 -85 35 -30
99 -54 111 -42 3 2 0 20 -6 40 -13 47 -72 99 -182 161 -89 49 -126 57 -147 32z"/>
<path d="M12304 12185 c-3 -8 -40 -39 -83 -68 -91 -64 -146 -123 -156 -166 -4
-18 -28 -53 -58 -84 -29 -28 -81 -99 -117 -157 -35 -58 -88 -138 -117 -179
-29 -41 -53 -85 -53 -97 0 -13 1 -24 3 -24 17 0 94 47 120 74 40 39 186 269
223 349 18 41 31 57 45 57 12 0 24 11 31 28 7 15 34 52 61 82 58 66 127 167
127 186 0 19 -19 18 -26 -1z"/>
<path d="M443 12130 c-88 -21 -116 -68 -117 -200 -1 -153 27 -184 283 -314
165 -83 166 -84 166 -117 l0 -33 -194 -63 c-107 -34 -198 -68 -203 -75 -12
-20 -9 -58 5 -58 6 0 100 29 207 64 l195 63 13 -35 c23 -66 54 -89 140 -102
162 -26 269 45 308 205 11 44 12 46 13 17 1 -21 10 -42 26 -57 22 -23 32 -25
106 -25 99 0 151 25 187 89 13 23 27 41 31 41 5 0 11 -19 14 -42 9 -61 54
-214 82 -275 25 -55 54 -78 85 -68 27 9 26 19 -15 100 -46 91 -83 225 -96 350
-5 55 -16 106 -23 113 -20 21 -43 4 -61 -46 -32 -85 -74 -160 -101 -181 -21
-16 -41 -21 -89 -21 -87 0 -89 4 -82 153 6 129 35 253 63 264 8 3 14 11 14 19
0 10 -13 14 -42 14 -24 0 -68 2 -98 5 -58 5 -48 0 38 -16 l52 -10 -20 -26
c-23 -29 -59 -140 -61 -187 -1 -17 -5 3 -10 44 -12 101 -32 151 -85 205 -49
51 -92 73 -148 77 -20 1 -42 8 -48 15 -27 33 -92 -4 -130 -74 -37 -68 -57
-149 -59 -244 -1 -43 -4 -79 -6 -79 -21 0 -312 160 -345 190 -40 35 -42 40
-46 101 -2 37 2 81 10 104 13 39 14 40 68 45 56 6 100 23 100 40 0 16 -43 40
-70 39 -14 -1 -40 -4 -57 -9z m543 -240 c12 -12 14 -11 14 13 0 19 5 27 18 27
34 0 112 -61 140 -109 25 -42 27 -56 31 -170 4 -144 -14 -228 -58 -282 -25
-29 -34 -33 -89 -37 -81 -6 -129 4 -158 33 -27 27 -31 67 -9 85 21 18 19 73
-5 103 -44 56 -6 320 57 389 15 17 17 16 30 -10 8 -15 21 -34 29 -42z"/>
<path d="M6251 12071 c-6 -10 -15 -36 -20 -57 -5 -22 -22 -68 -38 -104 -27
-63 -28 -70 -28 -241 0 -134 3 -180 14 -192 12 -15 10 -24 -8 -68 -27 -62 -25
-114 4 -114 19 0 33 20 56 83 11 30 15 33 38 27 14 -3 78 -9 142 -12 100 -5
120 -3 143 12 53 35 27 101 -50 131 -65 25 -200 26 -237 1 -38 -25 -40 -16
-35 160 3 141 5 151 36 220 33 74 40 120 22 154 -13 24 -26 24 -39 0z m162
-598 c-18 -2 -48 -2 -65 0 -18 2 -4 4 32 4 36 0 50 -2 33 -4z"/>
<path d="M7608 12079 c-10 -5 -18 -21 -18 -34 0 -27 25 -45 64 -45 18 0 50
-21 99 -63 95 -82 120 -97 161 -97 65 0 55 44 -25 101 -24 18 -65 52 -92 76
-71 66 -143 89 -189 62z"/>
<path d="M21320 11994 c-138 -29 -321 -141 -436 -267 -147 -161 -210 -332
-221 -602 -9 -223 31 -376 141 -530 121 -168 270 -246 502 -263 284 -21 470
16 724 143 210 105 361 249 431 412 48 112 63 282 33 384 -66 220 -353 387
-836 485 -106 21 -163 27 -278 28 -166 1 -187 -6 -215 -76 -18 -47 -7 -101 26
-118 16 -9 21 -5 33 23 7 19 17 43 20 55 10 30 42 36 168 29 222 -13 531 -92
713 -184 205 -103 282 -193 292 -342 16 -252 -126 -460 -419 -611 -53 -28
-152 -69 -220 -92 l-123 -42 -182 -4 c-216 -5 -310 10 -416 65 -111 58 -224
197 -272 333 -27 76 -39 248 -26 380 28 295 140 471 402 635 100 62 222 125
243 125 24 0 30 22 11 37 -11 7 -21 13 -24 12 -3 0 -35 -7 -71 -15z"/>
<path d="M8079 11951 c-36 -29 -17 -49 87 -94 49 -20 122 -54 162 -74 77 -39
104 -39 110 3 5 32 -46 70 -164 122 -143 64 -164 68 -195 43z"/>
<path d="M2028 11896 c-34 -7 -68 -22 -83 -36 -24 -23 -25 -27 -25 -160 0 -75
3 -198 7 -273 5 -119 8 -137 23 -137 9 0 25 9 34 19 17 18 17 34 5 239 -6 120
-9 230 -6 244 9 33 35 38 199 38 96 0 137 4 158 15 34 18 37 27 14 49 -12 13
-39 16 -142 15 -70 0 -153 -6 -184 -13z"/>
<path d="M8524 11735 c-12 -30 23 -62 96 -89 72 -26 137 -35 158 -22 16 10 15
51 0 63 -21 16 -183 63 -217 63 -19 0 -34 -6 -37 -15z"/>
<path d="M2385 11726 c-44 -19 -123 -108 -151 -171 -39 -85 -56 -185 -57 -350
-2 -173 2 -186 71 -218 42 -20 64 -22 203 -22 l156 0 42 29 c44 31 58 49 71
96 l8 27 -49 -33 c-76 -51 -108 -58 -233 -50 -135 7 -158 12 -187 39 -21 20
-22 25 -16 156 11 225 44 329 132 410 52 48 138 72 182 52 27 -12 27 -12 10 6
-16 18 -97 44 -135 43 -9 -1 -30 -7 -47 -14z"/>
<path d="M2904 11731 c-91 -23 -138 -107 -155 -277 -14 -139 -5 -302 20 -358
41 -94 139 -156 255 -164 59 -4 75 -1 94 14 45 37 11 64 -81 64 -62 0 -105 19
-160 69 -50 46 -67 93 -67 185 l0 56 98 0 c78 0 108 5 153 23 73 31 126 72
161 126 24 38 28 55 28 113 0 80 -16 118 -57 137 -33 16 -242 24 -289 12z
m251 -83 c22 -10 25 -17 25 -67 0 -72 -28 -116 -101 -156 -48 -26 -65 -30
-162 -33 l-109 -4 7 58 c10 86 34 166 58 192 19 20 29 22 138 22 68 0 129 -5
144 -12z"/>
<path d="M8839 11639 c-16 -30 10 -51 96 -79 39 -13 101 -38 140 -57 75 -36
116 -41 135 -18 24 29 1 53 -95 99 -161 77 -254 96 -276 55z"/>
<path d="M21151 11540 c-68 -11 -84 -37 -78 -130 4 -62 15 -98 60 -206 30 -72
62 -145 72 -163 l17 -33 -33 18 c-17 11 -62 47 -98 81 -36 35 -74 63 -83 63
-23 0 -40 -34 -32 -64 13 -53 170 -168 360 -265 110 -55 125 -59 148 -35 26
25 19 53 -16 72 -55 30 -118 94 -158 161 -53 90 -150 333 -150 375 0 33 1 34
48 38 43 3 52 0 105 -39 89 -65 192 -95 350 -101 112 -4 130 -2 147 13 25 23
25 40 -1 66 -18 18 -28 20 -107 14 -137 -10 -245 18 -358 96 -22 15 -58 30
-80 34 -21 4 -46 8 -54 10 -8 1 -35 -1 -59 -5z"/>
<path d="M9413 11359 c-22 -23 -15 -57 15 -73 41 -21 174 -48 218 -44 33 3 39
7 42 29 4 36 -11 45 -118 70 -137 31 -144 32 -157 18z"/>
<path d="M9873 11243 c-13 -2 -23 -8 -23 -12 0 -15 84 -65 170 -102 47 -20
113 -48 147 -64 65 -29 106 -29 117 0 11 31 -10 49 -113 97 -171 80 -226 95
-298 81z"/>
<path d="M8197 11042 c-42 -20 -59 -34 -64 -52 -3 -14 -14 -36 -23 -50 -29
-43 -40 -90 -40 -176 0 -107 8 -114 135 -114 99 0 138 15 172 66 23 35 31 200
12 245 -14 35 -73 68 -124 69 -26 1 -27 3 -10 10 11 5 39 9 63 9 26 1 41 5 37
11 -12 19 -99 10 -158 -18z m114 -105 c19 -11 20 -20 17 -100 -4 -107 -12
-117 -103 -117 -89 0 -100 11 -92 93 3 36 16 85 27 108 l22 42 54 -7 c30 -3
64 -12 75 -19z"/>
<path d="M19252 10954 c-25 -18 -29 -59 -6 -68 9 -3 82 -6 163 -6 156 0 171 4
171 47 0 35 -34 43 -178 43 -99 0 -132 -3 -150 -16z"/>
<path d="M9215 10900 c-18 -35 -21 -282 -4 -345 14 -52 45 -85 81 -85 35 0 35
5 1 65 -24 44 -27 59 -34 219 -4 94 -7 172 -8 174 -4 11 -23 -3 -36 -28z"/>
<path d="M15658 10920 c-32 -5 -68 -15 -80 -21 -21 -11 -21 -12 -3 -25 24 -18
86 -26 174 -22 57 2 76 7 85 20 26 41 -63 65 -176 48z"/>
<path d="M16133 10905 c-74 -32 -11 -66 137 -72 121 -6 160 4 160 40 0 13 -5
28 -12 35 -18 18 -243 15 -285 -3z"/>
<path d="M16733 10905 c-22 -9 -33 -21 -33 -34 0 -29 54 -41 193 -41 104 0
119 2 137 20 26 26 25 35 -2 54 -30 21 -248 22 -295 1z"/>
<path d="M17204 10909 c-17 -5 -37 -15 -43 -23 -10 -12 -7 -18 15 -33 23 -14
53 -19 156 -22 161 -4 178 0 178 39 0 19 -7 33 -19 40 -24 12 -244 12 -287 -1z"/>
<path d="M15148 10888 c-27 -11 -48 -24 -48 -27 0 -20 76 -41 148 -41 83 0
102 9 102 47 0 46 -118 59 -202 21z"/>
<path d="M20290 10867 c-28 -14 -38 -48 -18 -64 15 -11 231 -53 276 -53 34 0
65 24 60 48 -5 25 -42 38 -168 61 -134 25 -119 24 -150 8z"/>
<path d="M17833 10849 c-59 -14 -72 -33 -37 -55 34 -23 255 -34 279 -14 22 18
18 46 -7 64 -26 18 -163 21 -235 5z"/>
<path d="M18560 10847 c-14 -7 -25 -21 -25 -32 0 -11 11 -25 25 -32 32 -16
230 -17 265 -1 33 15 30 47 -5 65 -34 17 -227 17 -260 0z"/>
<path d="M14691 10811 c-51 -14 -53 -63 -4 -82 45 -17 198 -7 223 16 24 22 25
38 4 59 -12 12 -36 16 -107 15 -51 -1 -103 -4 -116 -8z"/>
<path d="M19890 10759 c-25 -4 -95 -8 -157 -8 -87 -1 -115 -4 -127 -17 -20
-19 -20 -29 0 -48 25 -25 58 -29 198 -24 140 6 196 21 217 60 25 46 -17 58
-131 37z"/>
<path d="M14375 10743 c-22 -6 -55 -32 -55 -44 0 -4 7 -15 16 -23 12 -13 40
-16 134 -16 94 0 122 3 134 16 46 46 -1 74 -119 73 -49 -1 -99 -4 -110 -6z"/>
<path d="M13796 10720 c-34 -11 -66 -38 -66 -57 0 -25 43 -31 183 -25 101 3
142 9 153 19 19 19 18 29 -6 53 -18 18 -33 20 -127 19 -60 0 -121 -5 -137 -9z"/>
<path d="M8645 10661 c-10 -33 4 -49 43 -49 51 0 55 5 30 39 -25 33 -63 39
-73 10z"/>
<path d="M13064 10652 c-37 -4 -67 -32 -58 -55 12 -33 70 -40 278 -35 173 4
207 8 246 25 48 21 78 49 66 61 -7 7 -468 10 -532 4z"/>
<path d="M12575 10611 c-266 -69 -331 -97 -290 -127 10 -8 30 -14 44 -14 49 0
338 68 377 88 43 22 90 67 77 74 -23 13 -110 4 -208 -21z"/>
<path d="M17710 10548 c-30 -16 -38 -67 -17 -116 l14 -33 13 41 c12 35 17 40
43 40 68 0 205 -100 243 -177 27 -55 27 -286 0 -328 l-18 -27 -106 4 c-127 5
-180 27 -253 105 l-46 49 -6 92 c-5 73 -4 100 8 122 18 35 26 41 90 57 l50 13
-58 -3 c-62 -4 -95 -22 -131 -71 -17 -22 -22 -46 -25 -117 -3 -80 0 -95 23
-143 26 -54 91 -114 163 -150 46 -23 167 -39 240 -31 47 5 71 13 95 33 50 42
58 75 58 240 0 138 -2 151 -25 199 -66 131 -268 246 -355 201z"/>
<path d="M15071 10419 c-12 -34 -16 -665 -5 -706 7 -25 33 -30 52 -11 9 9 12
104 12 364 0 194 -3 359 -6 368 -11 28 -41 18 -53 -15z"/>
<path d="M15455 10413 c-5 -10 -10 -93 -13 -186 l-4 -167 36 -34 c25 -24 63
-44 129 -65 51 -17 103 -38 116 -47 33 -24 24 -55 -24 -79 -57 -28 -236 -35
-282 -10 -41 23 -63 14 -63 -25 0 -23 7 -35 33 -51 28 -18 44 -20 142 -16 94
3 119 7 173 32 77 35 112 73 112 124 0 68 -35 95 -187 145 -132 44 -127 36
-133 227 -3 107 -9 164 -16 166 -6 2 -15 -4 -19 -14z"/>
<path d="M18706 10397 c-11 -8 -17 -23 -14 -38 l3 -24 258 -5 c306 -6 287 3
287 -130 0 -78 -3 -91 -27 -128 -16 -22 -74 -81 -130 -131 -56 -50 -104 -100
-108 -111 -4 -11 -3 -34 0 -51 13 -56 43 -62 365 -67 289 -4 345 0 364 31 24
38 0 42 -329 47 -206 3 -318 9 -325 16 -8 8 20 38 99 107 147 129 164 164 159
311 -3 119 -19 152 -79 173 -50 18 -499 18 -523 0z"/>
<path d="M16111 10371 c-12 -12 -21 -28 -21 -36 0 -32 -38 -37 -234 -32 -137
3 -208 9 -250 22 -32 9 -69 14 -82 11 -21 -6 -22 -9 -13 -36 18 -50 77 -62
327 -68 233 -4 254 -1 297 50 45 53 22 135 -24 89z"/>
<path d="M21669 10173 c-11 -12 -15 -70 -17 -247 l-3 -232 -81 8 c-98 9 -131
-3 -175 -65 -59 -83 -68 -129 -68 -359 l0 -208 26 -25 c19 -20 42 -28 93 -36
118 -16 212 10 293 83 19 18 23 18 45 4 47 -31 103 -35 196 -16 73 15 82 19
57 24 -16 4 -52 13 -80 21 -27 8 -63 17 -80 20 -16 4 -40 13 -52 21 -19 12
-21 18 -12 41 10 26 9 26 -9 10 -19 -17 -20 -16 -41 33 -37 85 -41 141 -41
531 0 207 -3 384 -6 393 -8 21 -28 20 -45 -1z m-19 -622 c0 -150 15 -259 45
-335 l24 -59 -22 -18 c-50 -42 -101 -59 -178 -59 -103 0 -122 12 -132 80 -12
87 7 325 32 391 34 90 73 114 194 118 l37 1 0 -119z"/>
<path d="M1635 10163 c-108 -14 -261 -85 -303 -141 -22 -29 -27 -48 -30 -106
-3 -61 -1 -75 17 -98 22 -27 128 -106 181 -133 38 -20 90 -19 118 1 l23 16
-49 23 c-56 26 -193 117 -213 141 -8 9 -13 35 -13 58 3 90 139 157 346 171
144 9 148 8 148 -63 0 -99 -12 -122 -132 -254 -61 -68 -121 -127 -135 -133
-13 -5 -26 -20 -29 -35 -3 -14 -17 -52 -32 -85 -35 -79 -42 -203 -15 -255 39
-74 169 -110 404 -110 152 0 157 1 183 25 32 30 35 89 7 151 -36 79 -188 182
-375 254 l-68 26 106 115 c137 147 151 174 151 302 0 133 -5 138 -154 136 -58
-1 -119 -4 -136 -6z m165 -685 c146 -65 260 -161 260 -220 l0 -31 -157 6
c-172 6 -265 26 -309 68 -34 32 -34 123 1 197 l24 52 63 -24 c35 -13 88 -35
118 -48z"/>
<path d="M18494 10065 c-9 -36 6 -49 40 -34 36 17 32 53 -6 57 -22 3 -29 -2
-34 -23z"/>
<path d="M23888 9968 c-9 -17 -14 -93 -16 -270 l-4 -248 -33 0 c-44 0 -80 -29
-71 -58 6 -19 15 -22 55 -22 l49 0 4 -118 c3 -105 7 -125 32 -176 33 -67 102
-127 167 -145 37 -10 50 -10 83 4 34 14 37 18 24 31 -7 8 -37 23 -65 33 -73
26 -118 65 -148 124 -21 43 -25 64 -25 143 l0 91 223 -4 c190 -4 225 -3 242
10 16 13 18 19 9 34 -10 16 -32 19 -195 24 -101 4 -206 10 -232 14 l-49 8 3
271 c3 270 3 271 -18 274 -14 2 -26 -5 -35 -20z"/>
<path d="M22665 9879 c-98 -15 -179 -61 -276 -158 -52 -52 -97 -108 -115 -143
-18 -37 -35 -58 -46 -58 -25 0 -41 -37 -34 -79 4 -20 6 -88 6 -151 -1 -101 2
-120 22 -160 41 -81 135 -110 358 -110 201 0 297 29 465 139 44 29 81 54 83
56 2 2 -76 -23 -174 -55 -165 -54 -188 -59 -289 -63 -226 -9 -363 19 -385 79
-6 14 -10 60 -10 103 l0 77 163 -4 c256 -7 364 20 490 123 75 61 107 126 107
218 0 71 -8 96 -43 135 -40 43 -202 69 -322 51z m194 -80 c28 -6 62 -19 76
-30 22 -18 25 -28 25 -83 0 -52 -5 -70 -28 -104 -61 -92 -160 -140 -310 -153
-111 -10 -299 -3 -323 11 -10 7 -4 25 25 85 64 129 197 251 300 276 48 11 179
10 235 -2z"/>
<path d="M23395 9748 c-88 -33 -169 -124 -181 -205 -10 -65 0 -173 19 -209 35
-69 130 -133 309 -211 l111 -48 -39 -7 c-21 -4 -91 -7 -154 -7 l-115 0 55 29
c30 16 53 29 50 29 -3 1 -52 -12 -109 -28 -102 -29 -126 -43 -116 -69 3 -8 5
-18 5 -24 0 -7 76 -9 238 -6 194 4 245 8 279 22 87 36 63 76 -84 141 -186 82
-297 143 -338 185 -38 39 -40 44 -43 114 -5 95 8 135 62 184 37 35 52 41 102
47 120 12 224 27 224 32 0 26 -221 52 -275 31z"/>
<path d="M2677 8783 c-4 -3 -7 -88 -7 -187 0 -166 7 -226 35 -337 5 -22 3 -27
-18 -33 -71 -17 -187 -69 -192 -85 -13 -43 2 -51 94 -51 82 1 85 2 59 16 -16
8 -28 17 -28 19 0 6 65 33 96 41 19 5 23 -1 33 -42 19 -73 75 -189 102 -208
23 -16 24 -16 27 4 2 11 -6 36 -17 56 -20 33 -81 196 -81 215 0 5 5 9 10 9 6
0 83 34 173 76 89 41 177 82 195 90 37 16 40 29 13 44 -36 19 -65 10 -232 -70
-92 -44 -171 -80 -177 -80 -25 0 -51 194 -52 388 0 111 -3 142 -13 142 -8 0
-17 -3 -20 -7z"/>
<path d="M3341 8630 c-97 -26 -135 -49 -139 -83 -4 -34 2 -34 97 -1 60 21 101
27 206 31 166 7 216 0 259 -37 41 -36 56 -86 56 -182 0 -69 -2 -78 -27 -103
-16 -15 -69 -47 -120 -71 -72 -34 -94 -48 -99 -68 -8 -35 3 -63 29 -70 12 -3
118 -9 235 -12 223 -7 262 -2 262 36 0 36 -19 40 -219 40 l-196 0 51 28 c138
76 159 111 152 254 -6 127 -39 199 -107 235 -41 21 -55 23 -205 22 -126 0
-177 -4 -235 -19z"/>
<path d="M1401 8440 c-97 -42 -241 -186 -262 -262 -12 -48 -7 -124 10 -141 6
-6 43 -13 81 -15 106 -6 170 18 248 93 35 34 64 59 66 56 2 -3 7 -20 11 -38 8
-41 41 -83 65 -83 23 0 70 20 70 30 0 4 -11 15 -25 24 -39 26 -50 55 -55 151
-5 87 -6 90 -29 90 -19 0 -30 -12 -55 -58 -37 -69 -107 -152 -144 -171 -27
-14 -70 -19 -144 -17 -34 1 -38 4 -38 26 0 44 26 91 83 148 75 75 130 105 223
122 43 9 80 18 83 20 23 23 -141 45 -188 25z"/>
<path d="M1763 8403 c9 -2 25 -2 35 0 9 3 1 5 -18 5 -19 0 -27 -2 -17 -5z"/>
<path d="M1853 8385 c21 -7 39 -15 41 -17 12 -19 48 -161 55 -217 5 -40 12
-75 15 -79 3 -3 17 1 31 8 23 12 25 19 25 76 0 126 65 158 330 158 169 1 194
-4 252 -46 13 -10 22 -9 42 2 35 18 33 33 -11 69 -54 44 -113 54 -303 49 -191
-5 -246 -19 -315 -80 -23 -21 -45 -38 -48 -38 -2 0 -12 21 -22 46 -19 50 -62
84 -105 84 -21 -1 -18 -3 13 -15z"/>
</g>
</svg>
