<?xml version="1.0" standalone="no"?>
<!DOCTYPE svg PUBLIC "-//W3C//DTD SVG 20010904//EN"
 "http://www.w3.org/TR/2001/REC-SVG-20010904/DTD/svg10.dtd">
<svg version="1.0" xmlns="http://www.w3.org/2000/svg"
 width="2550.000000pt" height="2550.000000pt" viewBox="0 0 2550.000000 2550.000000"
 preserveAspectRatio="xMidYMid meet">

<g transform="translate(0.000000,2550.000000) scale(0.100000,-0.100000)"
fill="#000000" stroke="none">
<path d="M12445 16389 c-88 -4 -711 -13 -1385 -19 -674 -6 -1252 -13 -1285
-15 -33 -3 -141 -10 -240 -15 -99 -6 -398 -29 -665 -50 -267 -22 -595 -44
-730 -50 -135 -5 -814 -10 -1510 -10 -753 0 -1322 -4 -1405 -10 -262 -19 -467
-46 -1095 -145 -223 -35 -583 -89 -800 -120 -217 -31 -496 -73 -620 -95 -306
-54 -359 -58 -706 -64 -263 -3 -305 -6 -328 -21 -26 -17 -34 -39 -17 -49 5 -3
12 -43 16 -88 8 -92 58 -301 80 -335 21 -31 51 -38 81 -18 33 21 31 48 -19
240 -20 77 -37 147 -37 156 0 14 24 15 228 11 265 -5 397 5 676 53 111 18 350
52 531 75 311 39 495 66 1187 174 354 56 648 93 838 106 85 6 675 10 1430 10
707 0 1386 5 1510 10 124 6 443 28 710 50 892 72 1087 80 2137 80 487 0 993 5
1180 12 180 7 551 13 823 13 l495 0 205 -37 c276 -50 482 -77 680 -89 91 -5
212 -16 270 -24 58 -7 186 -17 285 -20 245 -9 320 -19 366 -51 81 -56 269 -91
532 -100 128 -5 180 -11 247 -30 112 -31 331 -58 645 -80 50 -3 122 -12 162
-20 40 -8 75 -14 78 -14 10 0 4 -87 -16 -235 -11 -82 -23 -207 -26 -276 -5
-119 -4 -128 16 -148 24 -24 49 -27 77 -7 16 12 20 32 25 133 4 65 19 208 34
318 14 110 25 221 22 248 -6 68 -24 83 -111 91 -40 4 -88 11 -107 17 -19 5
-99 14 -179 19 -222 14 -459 39 -520 55 -30 8 -80 22 -110 30 -30 8 -88 15
-130 15 -237 0 -499 39 -568 85 -68 45 -122 55 -357 66 -121 5 -274 16 -340
24 -66 9 -192 20 -280 25 -209 12 -457 45 -730 97 -138 26 -147 27 -615 28
-261 1 -547 -2 -635 -6z"/>
<path d="M17135 14690 c-15 -17 -20 -47 -27 -153 -5 -73 -12 -161 -16 -197
l-7 -65 -50 2 c-28 1 -109 6 -180 12 -162 13 -7700 4 -8255 -9 -206 -5 -625
-25 -930 -45 -305 -19 -775 -46 -1045 -60 -269 -14 -578 -32 -685 -40 -107 -8
-251 -20 -320 -25 -161 -12 -1137 -12 -1570 0 -728 21 -1018 30 -1330 41 -394
15 -678 3 -778 -30 -34 -12 -63 -21 -65 -21 -2 0 -7 78 -10 173 -8 223 -26
297 -76 297 -44 -1 -44 6 -42 -458 2 -487 9 -591 38 -630 27 -36 46 -46 76
-38 41 10 52 40 32 89 -14 34 -18 88 -23 274 l-5 232 27 11 c94 35 467 49 857
31 625 -28 1381 -45 2094 -45 689 -1 773 1 1035 21 157 13 465 32 685 43 220
12 681 39 1025 61 425 27 761 43 1050 49 234 5 2149 11 4255 14 3197 4 3858 3
3998 -9 93 -7 171 -16 174 -19 3 -3 -2 -70 -12 -148 -12 -100 -19 -242 -23
-475 -4 -297 -3 -336 12 -358 22 -33 69 -34 99 -1 43 46 87 145 87 195 0 25
-4 53 -10 61 -8 12 -11 12 -27 -1 -47 -41 -46 -47 -40 192 5 209 31 505 46
521 3 4 110 1 236 -7 127 -8 370 -21 540 -30 337 -17 978 -59 1170 -76 109 -9
292 -32 725 -89 85 -11 207 -29 270 -40 188 -32 590 -80 758 -91 86 -6 333
-14 547 -19 215 -4 478 -12 585 -16 157 -5 214 -4 295 9 167 27 234 29 576 22
l329 -8 0 -234 0 -234 25 -24 c33 -34 79 -33 101 0 14 22 15 32 5 63 -13 38
-12 110 3 716 4 153 5 289 2 302 -13 52 -84 75 -106 35 -5 -11 -11 -89 -11
-173 -1 -84 -4 -196 -8 -248 l-6 -95 -395 0 c-339 0 -413 -3 -522 -19 -120
-19 -144 -19 -476 -6 -193 7 -386 10 -430 6 -182 -15 -862 41 -1257 104 -66
10 -172 26 -235 34 -63 8 -200 27 -305 41 -104 14 -296 32 -425 40 -129 9
-406 26 -615 40 -209 13 -490 29 -625 35 -348 14 -626 29 -688 36 l-53 6 8
101 c12 155 7 294 -12 323 -19 29 -46 31 -70 4z"/>
<path d="M1795 13143 c-11 -2 -36 -10 -55 -18 -19 -7 -55 -16 -80 -19 -32 -3
-51 -12 -67 -31 -26 -30 -28 -49 -9 -85 11 -22 10 -30 -6 -62 -55 -112 -88
-242 -88 -348 0 -78 1 -83 30 -112 31 -30 32 -30 118 -26 109 6 152 25 333
146 172 115 199 144 199 215 0 41 -6 63 -29 99 -35 55 -116 122 -187 155 -31
14 -55 33 -62 48 -10 22 -50 47 -70 44 -4 -1 -16 -3 -27 -6z m109 -199 c73
-35 148 -107 144 -137 -2 -14 -39 -46 -118 -100 -134 -92 -241 -147 -287 -147
-32 0 -33 1 -33 43 0 83 52 235 112 328 l33 51 47 -6 c26 -3 72 -17 102 -32z"/>
<path d="M16345 13092 c-40 -26 -155 -148 -155 -164 0 -7 -19 -50 -41 -95 -35
-68 -43 -94 -47 -157 -5 -86 6 -114 61 -143 41 -21 233 -30 295 -14 92 25 149
131 122 230 -13 50 -76 122 -150 173 -27 18 -50 38 -50 44 0 24 51 58 92 60
32 1 44 7 52 23 15 34 -11 51 -85 57 -53 4 -69 2 -94 -14z m24 -276 c70 -52
94 -82 94 -117 0 -52 -31 -69 -122 -69 -115 0 -124 5 -118 52 7 50 67 168 85
168 8 0 35 -15 61 -34z"/>
<path d="M23216 13018 c-9 -5 -27 -33 -40 -61 -34 -75 -78 -130 -141 -177 -45
-33 -55 -46 -55 -70 0 -20 8 -35 25 -46 32 -21 71 -8 143 46 l52 40 0 -220 0
-220 -85 0 c-72 0 -88 -3 -105 -20 -27 -27 -25 -55 6 -79 22 -17 41 -21 99
-21 66 0 74 -2 89 -25 20 -31 69 -34 92 -6 16 18 18 19 69 1 50 -17 173 -40
292 -55 47 -6 55 -4 78 19 31 31 32 50 0 81 -19 20 -34 25 -73 25 -60 0 -190
24 -278 51 l-64 20 -1 292 c0 273 -2 296 -22 356 -23 67 -47 88 -81 69z"/>
<path d="M17072 12934 c-14 -10 -22 -26 -22 -44 0 -53 25 -60 207 -60 116 0
163 -3 163 -12 0 -6 -19 -44 -42 -84 l-43 -74 -173 0 c-170 0 -173 0 -197 -25
-30 -29 -31 -36 -6 -66 18 -23 25 -24 176 -27 l157 -3 -6 -32 c-3 -18 -9 -102
-12 -189 l-7 -156 26 -26 c35 -35 88 -35 122 -1 32 31 33 72 3 77 -21 3 -23 9
-26 68 -3 62 12 213 24 245 5 12 27 15 106 15 55 0 108 5 119 10 18 10 19 6
19 -138 0 -267 64 -431 147 -377 37 25 38 41 7 124 l-28 76 -5 326 c-6 353 -8
359 -61 359 -50 0 -60 -24 -60 -151 l0 -115 -87 4 c-49 2 -89 5 -90 6 -1 1 11
28 27 60 24 47 30 72 30 122 0 56 -3 65 -26 83 -25 20 -40 21 -223 21 -162 0
-200 -3 -219 -16z"/>
<path d="M16719 12656 c-26 -13 -45 -55 -36 -79 3 -9 18 -24 32 -33 25 -16 27
-16 53 3 67 50 24 146 -49 109z"/>
<path d="M23301 11811 c-30 -30 -36 -142 -11 -221 12 -41 22 -109 26 -181 7
-116 7 -117 -17 -130 -18 -10 -90 -15 -281 -19 -247 -5 -257 -6 -280 -27 -23
-22 -25 -22 -93 -7 -274 60 -232 56 -605 51 -190 -3 -446 -11 -570 -17 -314
-16 -1098 -8 -1240 14 -144 21 -717 22 -955 1 -284 -25 -600 -36 -1295 -46
-366 -5 -707 -12 -757 -15 l-93 -5 0 168 c0 179 -8 213 -50 213 -44 0 -50 -31
-50 -247 0 -264 -4 -259 196 -249 60 3 411 10 779 15 691 9 983 20 1285 46
245 21 766 20 920 -1 168 -24 889 -31 1305 -13 176 8 453 14 615 14 290 0 297
0 405 -28 61 -15 135 -30 165 -33 48 -5 60 -3 93 20 l38 26 224 0 224 0 76 30
c42 17 83 30 93 30 31 0 62 29 62 59 0 30 -27 61 -52 61 -12 0 -16 22 -22 115
-3 63 -13 134 -21 157 -9 24 -20 79 -26 123 -14 106 -44 140 -88 96z"/>
</g>
</svg>
