<?xml version="1.0" encoding="UTF-8"?>
<!DOCTYPE svg PUBLIC "-//W3C//DTD SVG 1.1//EN" "http://www.w3.org/Graphics/SVG/1.1/DTD/svg11.dtd">
<svg xmlns="http://www.w3.org/2000/svg" version="1.1" width="2550px" height="2550px" style="shape-rendering:geometricPrecision; text-rendering:geometricPrecision; image-rendering:optimizeQuality; fill-rule:evenodd; clip-rule:evenodd" xmlns:xlink="http://www.w3.org/1999/xlink">
<g><path style="opacity:0.83" fill="#000000" d="M 2150.5,292.5 C 2156.91,291.407 2160.75,294.073 2162,300.5C 2170.03,335.66 2178.7,370.66 2188,405.5C 2188.79,403.413 2189.96,401.579 2191.5,400C 2194.83,398.667 2198.17,397.333 2201.5,396C 2240.61,390.012 2279.94,388.012 2319.5,390C 2326.05,390.589 2328.55,394.089 2327,400.5C 2326.1,401.701 2324.93,402.535 2323.5,403C 2280.14,403.544 2236.8,404.711 2193.5,406.5C 2193.5,408.167 2193.5,409.833 2193.5,411.5C 2192.32,411.281 2191.32,411.614 2190.5,412.5C 2195.78,425.736 2202.62,438.069 2211,449.5C 2212.36,450.38 2213.86,450.714 2215.5,450.5C 2215.58,451.93 2215.25,453.264 2214.5,454.5C 2206.53,457.043 2199.7,455.376 2194,449.5C 2182.5,433.491 2174.5,415.824 2170,396.5C 2161.24,363.478 2154.08,330.145 2148.5,296.5C 2148.75,294.927 2149.42,293.594 2150.5,292.5 Z"/></g>
<g><path style="opacity:0.807" fill="#000000" d="M 496.5,319.5 C 499.97,318.875 502.804,319.875 505,322.5C 506.189,342.172 507.522,361.839 509,381.5C 509.202,383.256 509.702,384.922 510.5,386.5C 547.169,378.635 584.169,376.468 621.5,380C 624.167,381 626.833,382 629.5,383C 631.037,384.11 631.703,385.61 631.5,387.5C 627.832,388.556 624.165,389.722 620.5,391C 587.611,390.972 554.944,393.639 522.5,399C 521.692,399.308 521.025,399.808 520.5,400.5C 525.189,407.058 528.022,414.391 529,422.5C 530.749,430.539 530.749,438.539 529,446.5C 528.196,447.804 527.029,448.471 525.5,448.5C 514.102,446.271 506.602,439.605 503,428.5C 500.586,421.681 498.919,414.681 498,407.5C 495.47,382.632 492.97,357.799 490.5,333C 491.82,329.655 492.82,326.155 493.5,322.5C 494.548,321.452 495.548,320.452 496.5,319.5 Z M 511.5,401.5 C 513.786,402.316 515.786,403.65 517.5,405.5C 526.157,416.83 528.824,429.496 525.5,443.5C 521.287,437.067 518.121,430.067 516,422.5C 513.668,415.672 512.168,408.672 511.5,401.5 Z"/></g>
<g><path style="opacity:0.824" fill="#000000" d="M 129.5,322.5 C 132.97,321.875 135.804,322.875 138,325.5C 138.71,356.203 140.043,386.87 142,417.5C 142.333,417.833 142.667,418.167 143,418.5C 146.66,395.534 154.993,374.534 168,355.5C 176.455,346.943 186.622,344.11 198.5,347C 203.178,348.676 207.011,351.509 210,355.5C 215.641,364.117 219.641,373.45 222,383.5C 223.837,397.384 227.004,410.884 231.5,424C 231.167,424.5 230.833,425 230.5,425.5C 224.974,427.503 220.141,426.503 216,422.5C 212.788,409.237 209.788,395.904 207,382.5C 205.448,376.511 203.115,370.844 200,365.5C 193.414,358.048 186.414,357.715 179,364.5C 169.311,379.552 162.644,395.886 159,413.5C 156.948,422.092 155.282,430.758 154,439.5C 151.465,449.603 145.798,451.937 137,446.5C 134.196,442.557 132.196,438.223 131,433.5C 127.395,418.046 125.561,402.38 125.5,386.5C 126.231,366.508 126.731,346.508 127,326.5C 127.662,325.016 128.496,323.683 129.5,322.5 Z"/></g>
<g><path style="opacity:0.826" fill="#000000" d="M 1444.5,327.5 C 1450.34,326.579 1454.01,328.913 1455.5,334.5C 1454.37,348.807 1454.2,363.141 1455,377.5C 1455.15,381.991 1455.98,386.324 1457.5,390.5C 1480.24,382.876 1503.58,379.709 1527.5,381C 1533.63,382.618 1536.97,386.451 1537.5,392.5C 1535.86,392.714 1534.36,392.38 1533,391.5C 1531.58,392.46 1530.08,393.293 1528.5,394C 1505,394.286 1482,397.786 1459.5,404.5C 1462.51,417.202 1466.68,429.535 1472,441.5C 1473.02,445.44 1473.52,449.44 1473.5,453.5C 1468.04,453.249 1463.54,450.916 1460,446.5C 1452.71,434.785 1447.87,422.119 1445.5,408.5C 1440.84,408.511 1438.51,406.178 1438.5,401.5C 1439.04,398.1 1440.37,395.1 1442.5,392.5C 1439.82,372.209 1439.32,351.876 1441,331.5C 1442.38,330.295 1443.54,328.962 1444.5,327.5 Z"/></g>
<g><path style="opacity:0.815" fill="#000000" d="M 314.5,328.5 C 324.647,327.915 334.647,328.748 344.5,331C 349.214,333.051 353.381,335.885 357,339.5C 359.165,348.349 357.832,356.682 353,364.5C 343.992,375.084 332.825,382.251 319.5,386C 301.876,387.112 284.209,387.945 266.5,388.5C 264.509,397.046 267.843,402.546 276.5,405C 279.774,406.202 283.107,407.202 286.5,408C 296.463,409.129 306.463,409.796 316.5,410C 323.905,410.714 331.238,411.881 338.5,413.5C 340.459,413.125 342.293,412.459 344,411.5C 345.982,413.832 345.482,415.665 342.5,417C 332.001,422.301 320.835,424.801 309,424.5C 293.012,425.032 277.846,421.865 263.5,415C 253.229,407.797 249.395,397.963 252,385.5C 254.08,377.34 257.747,370.007 263,363.5C 276.878,346.754 294.045,335.087 314.5,328.5 Z M 333.5,340.5 C 351.768,339.247 355.602,346.247 345,361.5C 337.478,369.675 328.311,374.842 317.5,377C 302.156,377.833 286.822,377.666 271.5,376.5C 287.081,355.554 307.748,343.554 333.5,340.5 Z"/></g>
<g><path style="opacity:0.833" fill="#000000" d="M 2034.5,328.5 C 2049.17,328.333 2063.84,328.5 2078.5,329C 2091.06,328.523 2102.56,331.69 2113,338.5C 2115.82,343.388 2114.65,346.388 2109.5,347.5C 2109.5,346.167 2109.5,344.833 2109.5,343.5C 2086.52,342.588 2063.52,342.254 2040.5,342.5C 2041.33,350.519 2044.99,357.019 2051.5,362C 2068,373.167 2084.5,384.333 2101,395.5C 2102.33,397.5 2103.67,399.5 2105,401.5C 2106.72,407.246 2105.22,411.746 2100.5,415C 2080.17,416.018 2059.84,416.852 2039.5,417.5C 2032.46,416.97 2029.29,413.303 2030,406.5C 2030.93,404.448 2032.43,402.948 2034.5,402C 2051.17,401.667 2067.83,401.333 2084.5,401C 2069.15,392.327 2054.48,382.661 2040.5,372C 2029.41,362.655 2024.91,350.822 2027,336.5C 2028.35,332.65 2030.85,329.983 2034.5,328.5 Z"/></g>
<g><path style="opacity:0.825" fill="#000000" d="M 370.5,333.5 C 380.758,332.641 389.591,335.641 397,342.5C 397.495,344.473 397.662,346.473 397.5,348.5C 390.565,346.506 383.565,346.173 376.5,347.5C 374.747,355.907 375.914,363.907 380,371.5C 390.351,382.423 402.851,389.256 417.5,392C 424.586,388.86 431.586,385.526 438.5,382C 441.089,380.686 443.756,380.019 446.5,380C 445.743,381.512 444.743,382.846 443.5,384C 436.67,387.581 430.003,391.414 423.5,395.5C 430.229,398.02 436.729,401.02 443,404.5C 445.085,408.174 444.585,411.507 441.5,414.5C 431.496,417.966 421.163,419.799 410.5,420C 398.736,420.957 387.07,420.623 375.5,419C 372.872,415.132 372.872,411.299 375.5,407.5C 380.609,403.612 386.275,400.779 392.5,399C 381.096,393.258 371.929,385.091 365,374.5C 360.366,362.124 360.366,349.79 365,337.5C 366.812,336.023 368.645,334.69 370.5,333.5 Z"/></g>
<g><path style="opacity:0.851" fill="#000000" d="M 1122.5,340.5 C 1125.48,340.104 1128.15,340.771 1130.5,342.5C 1131.84,353.458 1132.67,364.458 1133,375.5C 1136.74,367.066 1142.41,365.399 1150,370.5C 1151.44,372.275 1152.44,374.275 1153,376.5C 1156.47,394.568 1162.13,411.901 1170,428.5C 1176.63,439.795 1185.3,449.129 1196,456.5C 1196.48,457.448 1196.65,458.448 1196.5,459.5C 1185.16,462.992 1175.66,460.325 1168,451.5C 1157.78,438.72 1150.44,424.387 1146,408.5C 1145.67,422.5 1145.33,436.5 1145,450.5C 1141.15,457.466 1136.49,458.133 1131,452.5C 1123.44,436.717 1119.44,420.05 1119,402.5C 1118.5,382.479 1119,362.479 1120.5,342.5C 1121.52,342.145 1122.19,341.478 1122.5,340.5 Z"/></g>
<g><path style="opacity:0.831" fill="#000000" d="M 1953.5,345.5 C 1967.83,345.177 1981.83,347.01 1995.5,351C 2005.18,355.046 2009.52,362.379 2008.5,373C 2008.04,382.806 2003.04,389.139 1993.5,392C 1990.9,392.92 1988.23,393.587 1985.5,394C 1973.17,394.5 1960.84,394.667 1948.5,394.5C 1947.24,404.9 1950.57,413.4 1958.5,420C 1966.59,423.377 1974.25,427.21 1981.5,431.5C 1959.8,441.411 1944.63,435.078 1936,412.5C 1934.84,406.555 1934.34,400.555 1934.5,394.5C 1924.16,394.666 1913.83,394.5 1903.5,394C 1901.12,393.489 1898.79,392.822 1896.5,392C 1894.59,387.206 1896.25,384.206 1901.5,383C 1912.49,382.5 1923.49,382.333 1934.5,382.5C 1933.3,369.06 1937.64,357.893 1947.5,349C 1949.73,348.059 1951.73,346.892 1953.5,345.5 Z M 1962.5,357.5 C 1969.84,357.334 1977.17,357.5 1984.5,358C 1988.01,358.422 1991.34,359.422 1994.5,361C 1998.72,366.609 1998.38,371.942 1993.5,377C 1990.13,379.184 1986.47,380.517 1982.5,381C 1971.19,382.302 1959.86,382.635 1948.5,382C 1949.11,376.097 1950.28,370.263 1952,364.5C 1954.71,360.791 1958.21,358.457 1962.5,357.5 Z"/></g>
<g><path style="opacity:0.827" fill="#000000" d="M 1375.5,347.5 C 1382.59,347.116 1389.59,347.616 1396.5,349C 1399.81,352.628 1400.47,356.794 1398.5,361.5C 1397.17,361.5 1395.83,361.5 1394.5,361.5C 1394.66,360.127 1394.49,358.793 1394,357.5C 1390.21,358.331 1386.37,359.164 1382.5,360C 1377.78,364.692 1377.28,369.859 1381,375.5C 1385.88,380.046 1391.04,384.213 1396.5,388C 1409.83,395.667 1423.17,403.333 1436.5,411C 1440.24,415.517 1441.41,420.684 1440,426.5C 1435.28,431.478 1429.45,433.978 1422.5,434C 1405.19,435.189 1387.85,436.022 1370.5,436.5C 1365.42,436.581 1360.42,436.081 1355.5,435C 1351.25,430.199 1351.58,425.866 1356.5,422C 1368.5,421.667 1380.5,421.333 1392.5,421C 1398.03,420.148 1403.2,418.315 1408,415.5C 1408.71,417.367 1408.21,418.867 1406.5,420C 1411.89,420.692 1417.22,420.359 1422.5,419C 1403.56,409.955 1386.06,398.788 1370,385.5C 1364.82,377.942 1363.15,369.609 1365,360.5C 1367.23,355.107 1370.73,350.774 1375.5,347.5 Z"/></g>
<g><path style="opacity:0.817" fill="#000000" d="M 1760.5,348.5 C 1765.16,348.748 1768.99,350.748 1772,354.5C 1778.62,365.015 1783.28,376.348 1786,388.5C 1788.67,401.169 1791.33,413.836 1794,426.5C 1794.91,431.651 1796.91,436.318 1800,440.5C 1802.58,435.773 1804.58,430.773 1806,425.5C 1809.29,412.05 1812.96,398.717 1817,385.5C 1821.73,375.046 1829.89,370.046 1841.5,370.5C 1850.72,370.072 1858.72,372.905 1865.5,379C 1872.74,385.672 1878.91,393.172 1884,401.5C 1886.3,407.308 1885.8,412.808 1882.5,418C 1881.5,418.667 1880.5,418.667 1879.5,418C 1874.06,412.287 1869.23,406.12 1865,399.5C 1860.8,394.966 1856.3,390.799 1851.5,387C 1846.25,385.494 1840.92,385.161 1835.5,386C 1832.62,387.251 1830.79,389.417 1830,392.5C 1826.69,403.742 1823.69,415.075 1821,426.5C 1818.92,433.734 1816.26,440.734 1813,447.5C 1811.5,450.333 1809.33,452.5 1806.5,454C 1798.42,456.302 1791.92,454.135 1787,447.5C 1784.81,444.446 1783.14,441.112 1782,437.5C 1777.51,415.72 1772.51,394.053 1767,372.5C 1765.44,367.722 1763.61,363.055 1761.5,358.5C 1760.31,357.571 1758.98,357.238 1757.5,357.5C 1757.74,354.185 1758.74,351.185 1760.5,348.5 Z"/></g>
<g><path style="opacity:0.84" fill="#000000" d="M 1222.5,360.5 C 1238.77,359.484 1254.77,360.984 1270.5,365C 1287.31,371.109 1292.14,382.276 1285,398.5C 1273.86,408.664 1260.69,414.164 1245.5,415C 1232.14,415.547 1218.81,415.547 1205.5,415C 1212.05,419.938 1219.38,423.272 1227.5,425C 1249.94,427.144 1272.28,430.144 1294.5,434C 1295.83,434.667 1295.83,435.333 1294.5,436C 1279.49,439.287 1264.32,441.454 1249,442.5C 1234.66,442.071 1220.82,439.238 1207.5,434C 1198.43,430.052 1191.93,423.552 1188,414.5C 1187.41,409.273 1186.08,404.273 1184,399.5C 1183.33,396.833 1183.33,394.167 1184,391.5C 1189.36,384.654 1194.86,377.821 1200.5,371C 1207.01,365.578 1214.34,362.078 1222.5,360.5 Z M 1227.5,374.5 C 1238.25,374.26 1248.92,375.093 1259.5,377C 1263.73,378.115 1267.73,379.781 1271.5,382C 1274.72,383.99 1275.22,386.49 1273,389.5C 1265.79,395.128 1257.63,398.628 1248.5,400C 1234.08,402.298 1219.74,401.965 1205.5,399C 1206.79,398.51 1208.13,398.343 1209.5,398.5C 1209.76,397.022 1209.43,395.689 1208.5,394.5C 1206.61,393.396 1204.94,392.063 1203.5,390.5C 1209.16,381.482 1217.16,376.149 1227.5,374.5 Z"/></g>
<g><path style="opacity:0.817" fill="#000000" d="M 262.5,548.5 C 267.474,548.299 270.64,550.632 272,555.5C 277.606,583.234 278.606,611.234 275,639.5C 274.399,642.637 273.399,645.637 272,648.5C 268.925,651.059 265.925,651.059 263,648.5C 261.948,644.587 261.448,640.587 261.5,636.5C 262.177,619.334 262.843,602.167 263.5,585C 263.187,574.43 262.187,563.93 260.5,553.5C 260.437,551.486 261.103,549.819 262.5,548.5 Z"/></g>
<g><path style="opacity:0.848" fill="#000000" d="M 1991.5,550.5 C 1994.79,550.073 1997.79,550.74 2000.5,552.5C 2001.77,556.597 2002.77,560.764 2003.5,565C 2002.68,605.804 2002.18,646.638 2002,687.5C 2000.61,704.852 1999.28,722.185 1998,739.5C 1994.29,743.487 1990.62,743.487 1987,739.5C 1985.9,733.746 1985.4,727.913 1985.5,722C 1985.92,708.476 1986.76,694.976 1988,681.5C 1988.33,642.833 1988.67,604.167 1989,565.5C 1989.43,560.412 1990.26,555.412 1991.5,550.5 Z"/></g>
<g><path style="opacity:0.828" fill="#000000" d="M 1199.5,596.5 C 1203.66,596.143 1206.83,597.81 1209,601.5C 1217.31,641.443 1221.15,681.776 1220.5,722.5C 1219.9,727.621 1218.73,732.621 1217,737.5C 1215.92,741.112 1213.75,742.112 1210.5,740.5C 1207.31,735.291 1205.81,729.624 1206,723.5C 1205.67,707.833 1205.33,692.167 1205,676.5C 1202.49,653.124 1199.66,629.79 1196.5,606.5C 1196.36,602.798 1197.36,599.465 1199.5,596.5 Z"/></g>
<g><path style="opacity:0.74" fill="#000000" d="M 271.5,661.5 C 273.833,661.5 276.167,661.5 278.5,661.5C 277.713,670.938 276.213,680.271 274,689.5C 269.702,703.691 266.202,718.024 263.5,732.5C 261.856,732.714 260.356,732.38 259,731.5C 257.984,726.437 256.817,721.437 255.5,716.5C 259.012,700.45 262.846,684.45 267,668.5C 267.53,665.415 269.03,663.082 271.5,661.5 Z"/></g>
<g><path style="opacity:0.764" fill="#000000" d="M 2022.5,764.5 C 2024.17,764.5 2025.83,764.5 2027.5,764.5C 2032.88,792.858 2032.38,821.191 2026,849.5C 2023.81,852.436 2021.81,855.436 2020,858.5C 2019.23,858.355 2018.56,858.022 2018,857.5C 2017.75,854.823 2016.75,852.49 2015,850.5C 2014.02,847.759 2013.52,844.925 2013.5,842C 2016.98,816.195 2019.98,790.361 2022.5,764.5 Z"/></g>
<g><path style="opacity:0.756" fill="#000000" d="M 259.5,765.5 C 260.833,765.5 262.167,765.5 263.5,765.5C 264.704,767.734 265.87,770.067 267,772.5C 268.532,788.468 268.866,804.468 268,820.5C 266.177,830.77 265.01,841.103 264.5,851.5C 262.856,851.714 261.356,851.38 260,850.5C 257.699,841.292 256.032,831.959 255,822.5C 254.122,805.135 254.455,787.802 256,770.5C 257.669,769.154 258.836,767.487 259.5,765.5 Z"/></g>
<g><path style="opacity:0.805" fill="#000000" d="M 1235.5,782.5 C 1239.32,781.826 1242.15,783.159 1244,786.5C 1242.94,804.853 1241.27,823.187 1239,841.5C 1235.16,859.522 1231.33,877.522 1227.5,895.5C 1228.9,897.982 1229.73,900.648 1230,903.5C 1230.67,911.167 1230.67,918.833 1230,926.5C 1227.77,936.417 1224.77,946.084 1221,955.5C 1217.67,960.833 1214.33,960.833 1211,955.5C 1210.83,953.667 1210.67,951.833 1210.5,950C 1212.25,940.756 1214.41,931.59 1217,922.5C 1217.65,915.155 1217.98,907.822 1218,900.5C 1216.67,899.833 1215.67,898.833 1215,897.5C 1214.33,892.5 1214.33,887.5 1215,882.5C 1218.72,867.586 1222.05,852.586 1225,837.5C 1226.55,819.993 1229.22,802.659 1233,785.5C 1233.7,784.309 1234.53,783.309 1235.5,782.5 Z"/></g>
<g><path style="opacity:0.773" fill="#000000" d="M 273.5,871.5 C 278.181,870.456 281.348,872.123 283,876.5C 283.667,890.167 283.667,903.833 283,917.5C 280.77,924.077 277.104,925.077 272,920.5C 271.333,904.833 271.333,889.167 272,873.5C 272.717,872.956 273.217,872.289 273.5,871.5 Z"/></g>
<g><path style="opacity:0.737" fill="#000000" d="M 2024.5,871.5 C 2025.83,871.5 2027.17,871.5 2028.5,871.5C 2034.08,881.052 2035.92,891.385 2034,902.5C 2029.3,910.427 2024.97,910.094 2021,901.5C 2020.43,891.296 2021.6,881.296 2024.5,871.5 Z"/></g>
<g><path style="opacity:0.609" fill="#000000" d="M 280.5,933.5 C 281.833,933.5 283.167,933.5 284.5,933.5C 285.946,937.963 286.78,942.629 287,947.5C 288.47,950.796 290.637,953.463 293.5,955.5C 289.558,957.71 285.558,957.543 281.5,955C 280.299,954.097 279.465,952.931 279,951.5C 278.177,945.371 278.677,939.371 280.5,933.5 Z"/></g>
<g><path style="opacity:0.707" fill="#000000" d="M 2026.5,936.5 C 2028.14,936.286 2029.64,936.62 2031,937.5C 2034.29,947.55 2035.95,957.883 2036,968.5C 2037.55,969.966 2039.39,970.966 2041.5,971.5C 2042.43,972.689 2042.76,974.022 2042.5,975.5C 2038.14,975.756 2033.8,975.923 2029.5,976C 2026.54,975.608 2024.38,974.108 2023,971.5C 2022.33,966.833 2022.33,962.167 2023,957.5C 2024.37,950.505 2025.53,943.505 2026.5,936.5 Z"/></g>
<g><path style="opacity:0.838" fill="#000000" d="M 901.5,948.5 C 918.19,948.26 934.857,948.76 951.5,950C 956.323,950.742 960.989,952.075 965.5,954C 967.359,955.558 968.859,957.391 970,959.5C 975.323,957.46 980.823,955.96 986.5,955C 1080.12,941.286 1120.95,981.452 1109,1075.5C 1105.89,1108.84 1095.22,1139.51 1077,1167.5C 1056.55,1198.31 1027.72,1213.81 990.5,1214C 945.691,1215.77 901.024,1214.11 856.5,1209C 826.504,1206.12 799.504,1195.79 775.5,1178C 756.064,1160.78 747.064,1139.11 748.5,1113C 748.033,1051.21 774.7,1005.54 828.5,976C 851.469,962.834 875.802,953.667 901.5,948.5 Z M 937.5,960.5 C 944.688,960.53 951.688,961.363 958.5,963C 950.888,966.139 943.554,969.806 936.5,974C 932.964,977.201 929.797,980.701 927,984.5C 922.778,998.377 927.944,1005.04 942.5,1004.5C 941.563,1002.16 940.23,999.995 938.5,998C 939.104,995.476 939.771,992.976 940.5,990.5C 949.658,982.919 959.992,977.419 971.5,974C 992.741,967.847 1014.41,965.847 1036.5,968C 1069.9,971.726 1089.4,990.226 1095,1023.5C 1100.49,1070.27 1091.49,1113.93 1068,1154.5C 1054.24,1177.92 1034.08,1192.42 1007.5,1198C 967.176,1201.09 926.842,1201.09 886.5,1198C 857.748,1196.25 830.081,1189.92 803.5,1179C 769.433,1160.57 756.267,1132.07 764,1093.5C 769.332,1047 792.498,1012.5 833.5,990C 854.557,977.982 876.89,969.316 900.5,964C 912.956,962.544 925.29,961.378 937.5,960.5 Z"/></g>
<g><path style="opacity:0.724" fill="#000000" d="M 2073.5,974.5 C 2076.48,974.104 2079.15,974.771 2081.5,976.5C 2084.83,980.492 2087.66,984.825 2090,989.5C 2095.19,994.6 2099.36,1000.27 2102.5,1006.5C 2099.8,1006.53 2097.3,1005.87 2095,1004.5C 2089.95,1005.82 2085.61,1004.48 2082,1000.5C 2078.33,994.5 2074.67,988.5 2071,982.5C 2069.84,979.029 2070.67,976.362 2073.5,974.5 Z"/></g>
<g><path style="opacity:0.684" fill="#000000" d="M 1219.5,990.5 C 1221.12,990.36 1222.29,991.027 1223,992.5C 1224.14,1003 1225.31,1013.5 1226.5,1024C 1225.84,1028.14 1225.34,1032.31 1225,1036.5C 1223.27,1040.36 1221.93,1044.36 1221,1048.5C 1218.85,1050.44 1216.35,1050.94 1213.5,1050C 1212.11,1049.04 1211.44,1047.71 1211.5,1046C 1213.81,1038.55 1215.98,1031.05 1218,1023.5C 1219.12,1012.53 1219.62,1001.53 1219.5,990.5 Z"/></g>
<g><path style="opacity:0.708" fill="#000000" d="M 343.5,1009.5 C 351.986,1008.8 357.82,1012.47 361,1020.5C 361.789,1024.09 361.622,1027.59 360.5,1031C 359.5,1031.67 358.5,1031.67 357.5,1031C 352.976,1027.14 349.142,1022.64 346,1017.5C 344.293,1015.09 343.46,1012.42 343.5,1009.5 Z"/></g>
<g><path style="opacity:0.756" fill="#000000" d="M 2124.5,1021.5 C 2133.4,1022.91 2142.4,1024.41 2151.5,1026C 2155.17,1027.38 2158.51,1029.21 2161.5,1031.5C 2152.41,1037.66 2142.41,1039.16 2131.5,1036C 2122.87,1033.93 2120.53,1029.1 2124.5,1021.5 Z"/></g>
<g><path style="opacity:0.82" fill="#000000" d="M 2209.5,1028.5 C 2213.55,1028.39 2217.55,1028.73 2221.5,1029.5C 2220.91,1034.27 2218.24,1037.44 2213.5,1039C 2204.17,1039.67 2194.83,1039.67 2185.5,1039C 2182.69,1037.69 2181.86,1035.53 2183,1032.5C 2183.75,1031.87 2184.58,1031.37 2185.5,1031C 2193.74,1030.99 2201.74,1030.15 2209.5,1028.5 Z"/></g>
<g><path style="opacity:0.78" fill="#000000" d="M 2252.5,1033.5 C 2261.17,1033.33 2269.84,1033.5 2278.5,1034C 2283.74,1037.62 2283.4,1040.95 2277.5,1044C 2268.71,1045 2260.04,1044.5 2251.5,1042.5C 2248.61,1039 2248.94,1036 2252.5,1033.5 Z"/></g>
<g><path style="opacity:0.803" fill="#000000" d="M 1905.5,1044.5 C 1938.21,1045.21 1970.88,1045.71 2003.5,1046C 2008.88,1046.31 2014.22,1046.97 2019.5,1048C 2020.97,1048.71 2021.64,1049.88 2021.5,1051.5C 1978.46,1049.88 1935.46,1050.71 1892.5,1054C 1854.09,1059.47 1818.75,1072.8 1786.5,1094C 1756.22,1118.36 1736.39,1149.53 1727,1187.5C 1723.67,1204.51 1723.67,1221.51 1727,1238.5C 1732.07,1251.92 1740.57,1262.75 1752.5,1271C 1778.27,1288.04 1806.6,1298.37 1837.5,1302C 1858.41,1304.79 1879.41,1306.45 1900.5,1307C 1957.45,1309.8 2014.11,1307.14 2070.5,1299C 2137.82,1288.07 2204.49,1274.07 2270.5,1257C 2281.56,1252.91 2286.22,1244.91 2284.5,1233C 2284.74,1218.39 2280.57,1205.22 2272,1193.5C 2253.81,1170.99 2231.31,1154.16 2204.5,1143C 2182.21,1134.35 2159.21,1128.35 2135.5,1125C 2057.12,1114.92 1978.45,1110.59 1899.5,1112C 1902.63,1112.39 1905.63,1113.23 1908.5,1114.5C 1907.97,1115.19 1907.31,1115.69 1906.5,1116C 1900.17,1116.67 1893.83,1116.67 1887.5,1116C 1884.28,1109.75 1885.94,1105.08 1892.5,1102C 1895.42,1101.01 1898.42,1100.35 1901.5,1100C 1964.96,1099.52 2028.29,1102.19 2091.5,1108C 2129.15,1110.61 2165.81,1117.94 2201.5,1130C 2234.03,1141.9 2260.87,1161.4 2282,1188.5C 2293.72,1206.14 2297.72,1225.48 2294,1246.5C 2291.66,1256.51 2285.5,1263.01 2275.5,1266C 2198.83,1286.53 2121.17,1302.2 2042.5,1313C 2031.17,1314 2019.83,1315 2008.5,1316C 1963.49,1316.87 1918.49,1316.54 1873.5,1315C 1832.23,1314.21 1793.23,1304.55 1756.5,1286C 1739.56,1276.4 1726.73,1262.9 1718,1245.5C 1709.63,1206.74 1715.63,1170.41 1736,1136.5C 1756.29,1102.22 1785.12,1078.05 1822.5,1064C 1849.72,1054.99 1877.39,1048.49 1905.5,1044.5 Z"/></g>
<g><path style="opacity:0.703" fill="#000000" d="M 2311.5,1048.5 C 2318.26,1048.12 2324.92,1048.62 2331.5,1050C 2334.52,1052.26 2335.19,1055.1 2333.5,1058.5C 2342.31,1064.43 2351.98,1066.1 2362.5,1063.5C 2367.92,1063.69 2372.42,1065.69 2376,1069.5C 2376.67,1072.17 2376.67,1074.83 2376,1077.5C 2372.98,1079.02 2371.15,1078.02 2370.5,1074.5C 2368.61,1073.39 2366.61,1072.56 2364.5,1072C 2349.91,1071.21 2336.24,1067.21 2323.5,1060C 2319.83,1059.67 2316.17,1059.33 2312.5,1059C 2308.79,1057.31 2307.62,1054.48 2309,1050.5C 2309.99,1049.93 2310.83,1049.27 2311.5,1048.5 Z"/></g>
<g><path style="opacity:0.837" fill="#000000" d="M 179.5,1055.5 C 192.16,1056.06 204.827,1056.56 217.5,1057C 227.193,1058.02 236.193,1061.02 244.5,1066C 248.012,1069.74 248.345,1073.74 245.5,1078C 290.149,1077.66 322.315,1097.49 342,1137.5C 343.616,1141.35 344.616,1145.35 345,1149.5C 348.716,1176.89 345.05,1203.22 334,1228.5C 319.972,1257.35 296.972,1268.68 265,1262.5C 238.321,1262.51 211.821,1260.35 185.5,1256C 157.369,1251.76 132.369,1240.76 110.5,1223C 95.3388,1208.83 88.3388,1191.33 89.5,1170.5C 90.2597,1130.82 105.26,1097.65 134.5,1071C 147.618,1060.14 162.618,1054.98 179.5,1055.5 Z M 169.5,1070.5 C 183.837,1070.33 198.171,1070.5 212.5,1071C 220.574,1071.9 228.574,1073.23 236.5,1075C 238.5,1075.67 239.833,1077 240.5,1079C 230.115,1078.79 220.949,1081.96 213,1088.5C 209.676,1093.32 208.676,1098.66 210,1104.5C 210.833,1105.33 211.667,1106.17 212.5,1107C 217.777,1109.1 222.944,1110.6 228,1111.5C 228.617,1110.55 228.451,1109.72 227.5,1109C 224.816,1108.22 222.483,1106.89 220.5,1105C 221.807,1099.69 225.14,1096.36 230.5,1095C 274.181,1086.92 306.681,1102.42 328,1141.5C 335.86,1172.81 331.86,1202.47 316,1230.5C 310.849,1238.65 303.682,1244.15 294.5,1247C 251.967,1250.29 209.967,1246.96 168.5,1237C 147.685,1231.85 129.852,1221.68 115,1206.5C 106.981,1196.11 103.147,1184.27 103.5,1171C 104.988,1132.02 120.988,1100.69 151.5,1077C 157.299,1073.92 163.299,1071.75 169.5,1070.5 Z"/></g>
<g><path style="opacity:0.557" fill="#000000" d="M 377.5,1056.5 C 383.59,1057.08 387.423,1060.41 389,1066.5C 389.497,1068.81 389.663,1071.14 389.5,1073.5C 386.465,1073.48 384.132,1072.15 382.5,1069.5C 379.976,1065.46 378.31,1061.13 377.5,1056.5 Z"/></g>
<g><path style="opacity:0.724" fill="#000000" d="M 1214.5,1058.5 C 1215.83,1058.5 1217.17,1058.5 1218.5,1058.5C 1216.03,1085.72 1211.53,1112.72 1205,1139.5C 1203.36,1144.76 1200.36,1145.76 1196,1142.5C 1196.25,1125.92 1198.58,1109.59 1203,1093.5C 1205.27,1084.97 1208.6,1076.97 1213,1069.5C 1214.11,1065.91 1214.61,1062.25 1214.5,1058.5 Z"/></g>
<g><path style="opacity:0.594" fill="#000000" d="M 2390.5,1105.5 C 2401.87,1106.03 2409.37,1111.7 2413,1122.5C 2412.51,1130.01 2415.01,1136.51 2420.5,1142C 2420.24,1143.95 2419.24,1144.61 2417.5,1144C 2415,1142.17 2412.83,1140 2411,1137.5C 2408.59,1131.68 2405.92,1126.02 2403,1120.5C 2398.81,1117.07 2394.81,1113.4 2391,1109.5C 2390.51,1108.21 2390.34,1106.87 2390.5,1105.5 Z"/></g>
<g><path style="opacity:0.602" fill="#000000" d="M 416.5,1107.5 C 418.144,1107.29 419.644,1107.62 421,1108.5C 422.861,1110.89 424.194,1113.55 425,1116.5C 425.964,1123.96 425.464,1131.29 423.5,1138.5C 425.505,1142.19 424.505,1144.19 420.5,1144.5C 418.807,1132.21 417.474,1119.88 416.5,1107.5 Z"/></g>
<g><path style="opacity:0.612" fill="#000000" d="M 1197.5,1162.5 C 1198.83,1162.5 1200.17,1162.5 1201.5,1162.5C 1203.14,1176.84 1203.31,1191.17 1202,1205.5C 1200.9,1209.61 1199.74,1213.61 1198.5,1217.5C 1197.17,1217.5 1195.83,1217.5 1194.5,1217.5C 1193.35,1211.42 1193.85,1205.42 1196,1199.5C 1196.62,1187.17 1197.12,1174.84 1197.5,1162.5 Z"/></g>
<g><path style="opacity:0.647" fill="#000000" d="M 2449.5,1170.5 C 2450.82,1170.33 2451.99,1170.66 2453,1171.5C 2454.08,1176.67 2456.41,1181 2460,1184.5C 2462.33,1187.47 2462.83,1190.63 2461.5,1194C 2468.27,1214.78 2469.94,1235.95 2466.5,1257.5C 2465.17,1257.5 2463.83,1257.5 2462.5,1257.5C 2461.8,1243.82 2460.8,1230.15 2459.5,1216.5C 2460.96,1209.63 2460.13,1202.96 2457,1196.5C 2454.08,1192.33 2451.42,1188 2449,1183.5C 2448.23,1179.08 2448.4,1174.75 2449.5,1170.5 Z"/></g>
<g><path style="opacity:0.679" fill="#000000" d="M 437.5,1184.5 C 440.238,1183.96 442.072,1184.96 443,1187.5C 444.305,1194.13 444.638,1200.79 444,1207.5C 437.852,1222.44 433.019,1237.78 429.5,1253.5C 428.178,1253.67 427.011,1253.34 426,1252.5C 425.333,1246.17 425.333,1239.83 426,1233.5C 428.938,1223.35 432.271,1213.35 436,1203.5C 437.107,1197.21 437.607,1190.88 437.5,1184.5 Z"/></g>
<g><path style="opacity:0.748" fill="#000000" d="M 1194.5,1221.5 C 1195.83,1221.5 1197.17,1221.5 1198.5,1221.5C 1203.1,1248.63 1204.93,1275.97 1204,1303.5C 1201.55,1309.62 1199.89,1315.95 1199,1322.5C 1197.67,1323.83 1196.33,1323.83 1195,1322.5C 1194.77,1316.57 1193.43,1310.9 1191,1305.5C 1190.83,1299.33 1190.67,1293.17 1190.5,1287C 1191.1,1265.11 1192.44,1243.28 1194.5,1221.5 Z"/></g>
<g><path style="opacity:0.695" fill="#000000" d="M 424.5,1263.5 C 426.167,1263.5 427.833,1263.5 429.5,1263.5C 426.484,1281.88 420.484,1299.22 411.5,1315.5C 410.914,1315.29 410.414,1314.96 410,1314.5C 409.333,1309.17 409.333,1303.83 410,1298.5C 412.403,1288.96 415.403,1279.63 419,1270.5C 420.666,1268 422.5,1265.67 424.5,1263.5 Z"/></g>
<g><path style="opacity:0.701" fill="#000000" d="M 2480.5,1281.5 C 2481.83,1281.5 2483.17,1281.5 2484.5,1281.5C 2485.94,1285.67 2487.11,1290.01 2488,1294.5C 2489.08,1301.05 2488.41,1307.39 2486,1313.5C 2482.88,1315.91 2480.04,1318.58 2477.5,1321.5C 2476.31,1322.43 2474.98,1322.76 2473.5,1322.5C 2476.52,1311.72 2478.02,1300.72 2478,1289.5C 2479.71,1287.09 2480.54,1284.42 2480.5,1281.5 Z"/></g>
<g><path style="opacity:0.722" fill="#000000" d="M 403.5,1332.5 C 404.833,1332.5 406.167,1332.5 407.5,1332.5C 407.628,1334.65 407.128,1336.65 406,1338.5C 396.665,1351.16 388.332,1364.49 381,1378.5C 377.187,1383.81 372.52,1384.81 367,1381.5C 366.245,1378.7 366.578,1376.03 368,1373.5C 374.281,1364.22 380.948,1355.22 388,1346.5C 393.564,1342.16 398.731,1337.49 403.5,1332.5 Z"/></g>
<g><path style="opacity:0.73" fill="#000000" d="M 1201.5,1337.5 C 1202.83,1337.5 1204.17,1337.5 1205.5,1337.5C 1208.4,1361.19 1209.57,1385.19 1209,1409.5C 1207.34,1411.16 1205.68,1412.83 1204,1414.5C 1201.98,1412.81 1200.31,1410.81 1199,1408.5C 1198.02,1384.76 1198.85,1361.1 1201.5,1337.5 Z"/></g>
<g><path style="opacity:0.784" fill="#000000" d="M 2463.5,1369.5 C 2464.83,1369.5 2466.17,1369.5 2467.5,1369.5C 2462.74,1388.23 2451.07,1394.56 2432.5,1388.5C 2429.44,1384.01 2430.11,1380.18 2434.5,1377C 2445.25,1377.83 2454.92,1375.33 2463.5,1369.5 Z"/></g>
<g><path style="opacity:0.734" fill="#000000" d="M 335.5,1401.5 C 337.527,1401.34 339.527,1401.5 341.5,1402C 342.727,1403.59 342.394,1404.92 340.5,1406C 336.663,1407.17 333.329,1409.17 330.5,1412C 322.504,1419 314.837,1426.33 307.5,1434C 295.853,1440.32 286.52,1448.99 279.5,1460C 278.207,1460.49 276.873,1460.66 275.5,1460.5C 274.292,1450.75 277.625,1442.91 285.5,1437C 298.694,1428.48 311.027,1418.81 322.5,1408C 326.879,1405.68 331.212,1403.51 335.5,1401.5 Z"/></g>
<g><path style="opacity:0.775" fill="#000000" d="M 2416.5,1406.5 C 2418.17,1406.5 2419.83,1406.5 2421.5,1406.5C 2419.3,1415.56 2415.47,1423.9 2410,1431.5C 2401.89,1439.15 2392.39,1441.81 2381.5,1439.5C 2379.42,1436.33 2379.08,1433 2380.5,1429.5C 2386.05,1427.15 2391.71,1424.98 2397.5,1423C 2402.41,1416.88 2408.41,1412.22 2415.5,1409C 2416.25,1408.33 2416.59,1407.5 2416.5,1406.5 Z"/></g>
<g><path style="opacity:0.791" fill="#000000" d="M 2366.5,1439.5 C 2371.43,1438.87 2375.93,1439.87 2380,1442.5C 2381.44,1441.85 2382.94,1441.52 2384.5,1441.5C 2384.53,1443.58 2383.86,1445.42 2382.5,1447C 2366.47,1457.78 2348.81,1461.78 2329.5,1459C 2323.83,1455.33 2323.17,1451 2327.5,1446C 2341.17,1446.97 2354.17,1444.8 2366.5,1439.5 Z"/></g>
<g><path style="opacity:0.682" fill="#000000" d="M 1206.5,1454.5 C 1207.83,1454.5 1209.17,1454.5 1210.5,1454.5C 1212.05,1466.47 1213.39,1478.47 1214.5,1490.5C 1213.45,1498.24 1212.12,1505.91 1210.5,1513.5C 1208.88,1513.64 1207.71,1512.97 1207,1511.5C 1206.83,1507.28 1205.83,1503.28 1204,1499.5C 1203.33,1493.17 1203.33,1486.83 1204,1480.5C 1205.53,1471.9 1206.36,1463.23 1206.5,1454.5 Z"/></g>
<g><path style="opacity:0.743" fill="#000000" d="M 2257.5,1464.5 C 2265.41,1463.5 2272.75,1465 2279.5,1469C 2280.02,1469.56 2280.36,1470.23 2280.5,1471C 2275.71,1478.88 2268.71,1481.54 2259.5,1479C 2255.38,1477.05 2252.05,1474.21 2249.5,1470.5C 2251.48,1467.52 2254.14,1465.52 2257.5,1464.5 Z"/></g>
<g><path style="opacity:0.755" fill="#000000" d="M 2166.5,1471.5 C 2172.51,1471.33 2178.51,1471.5 2184.5,1472C 2185.91,1472.37 2186.91,1473.2 2187.5,1474.5C 2189.05,1475.45 2190.71,1475.79 2192.5,1475.5C 2192.5,1476.83 2192.5,1478.17 2192.5,1479.5C 2189.45,1480.71 2186.78,1482.54 2184.5,1485C 2177.26,1485.27 2170.1,1486.11 2163,1487.5C 2161.29,1487.35 2159.63,1487.02 2158,1486.5C 2155.28,1487.69 2152.44,1488.35 2149.5,1488.5C 2150.01,1484.98 2152.01,1482.65 2155.5,1481.5C 2156.1,1480.21 2156.6,1478.87 2157,1477.5C 2159.84,1474.84 2163.01,1472.84 2166.5,1471.5 Z"/></g>
<g><path style="opacity:0.722" fill="#000000" d="M 288.5,1485.5 C 289.833,1485.5 291.167,1485.5 292.5,1485.5C 295.864,1513.92 297.197,1542.42 296.5,1571C 297.223,1575.5 297.889,1580 298.5,1584.5C 297.178,1584.67 296.011,1584.34 295,1583.5C 292.252,1576.34 289.252,1569.34 286,1562.5C 285.333,1552.17 285.333,1541.83 286,1531.5C 287,1516.17 287.833,1500.84 288.5,1485.5 Z"/></g>
<g><path style="opacity:0.758" fill="#000000" d="M 2111.5,1496.5 C 2112.83,1496.5 2114.17,1496.5 2115.5,1496.5C 2114.96,1499.66 2115.8,1502.33 2118,1504.5C 2117.54,1516.03 2112.87,1525.69 2104,1533.5C 2103.83,1534.5 2103.67,1535.5 2103.5,1536.5C 2106.65,1558.11 2107.15,1579.77 2105,1601.5C 2102.04,1605.89 2098.37,1606.56 2094,1603.5C 2096.29,1581.57 2098.13,1559.57 2099.5,1537.5C 2091.44,1538.08 2088.6,1534.41 2091,1526.5C 2093.3,1523.2 2095.96,1520.2 2099,1517.5C 2102.68,1510.13 2106.85,1503.13 2111.5,1496.5 Z"/></g>
<g><path style="opacity:0.728" fill="#000000" d="M 1214.5,1560.5 C 1215.82,1560.33 1216.99,1560.66 1218,1561.5C 1222.16,1584.45 1222.5,1607.45 1219,1630.5C 1216.33,1633.17 1213.67,1633.17 1211,1630.5C 1210.65,1607.08 1211.82,1583.75 1214.5,1560.5 Z"/></g>
<g><path style="opacity:0.726" fill="#000000" d="M 298.5,1589.5 C 301.346,1589.81 302.846,1591.48 303,1594.5C 304.461,1602.14 305.795,1609.81 307,1617.5C 308.501,1638.85 309.834,1660.18 311,1681.5C 308.205,1684.11 305.371,1684.11 302.5,1681.5C 301.134,1678.31 300.301,1674.97 300,1671.5C 298.854,1644.16 298.354,1616.83 298.5,1589.5 Z"/></g>
<g><path style="opacity:0.631" fill="#000000" d="M 2092.5,1648.5 C 2093.83,1648.5 2095.17,1648.5 2096.5,1648.5C 2096.57,1650.4 2096.23,1652.23 2095.5,1654C 2097.87,1659.29 2098.7,1664.79 2098,1670.5C 2095.5,1674 2092.67,1674.34 2089.5,1671.5C 2088.56,1663.62 2089.56,1655.95 2092.5,1648.5 Z"/></g>
<g><path style="opacity:0.615" fill="#000000" d="M 1216.5,1654.5 C 1217.83,1654.5 1219.17,1654.5 1220.5,1654.5C 1221.53,1670.15 1221.7,1685.82 1221,1701.5C 1220.47,1705.3 1219.47,1708.97 1218,1712.5C 1216.3,1713.41 1214.47,1713.74 1212.5,1713.5C 1213.44,1704.49 1214.61,1695.49 1216,1686.5C 1216.5,1675.84 1216.67,1665.17 1216.5,1654.5 Z"/></g>
<g><path style="opacity:0.675" fill="#000000" d="M 2090.5,1698.5 C 2092.12,1698.36 2093.29,1699.03 2094,1700.5C 2095.95,1716.46 2096.95,1732.46 2097,1748.5C 2095.01,1750.82 2093.84,1753.48 2093.5,1756.5C 2092.5,1756.5 2091.5,1756.5 2090.5,1756.5C 2090.74,1753.77 2089.9,1751.44 2088,1749.5C 2087.94,1732.46 2088.77,1715.46 2090.5,1698.5 Z"/></g>
<g><path style="opacity:0.692" fill="#000000" d="M 309.5,1699.5 C 310.833,1699.5 312.167,1699.5 313.5,1699.5C 315.545,1725.44 316.045,1751.44 315,1777.5C 314.313,1780.43 312.48,1781.76 309.5,1781.5C 308.234,1754.19 308.234,1726.85 309.5,1699.5 Z"/></g>
<g><path style="opacity:0.597" fill="#000000" d="M 1212.5,1748.5 C 1213.83,1748.5 1215.17,1748.5 1216.5,1748.5C 1217.15,1764.49 1217.82,1780.49 1218.5,1796.5C 1218.86,1801.18 1216.86,1803.85 1212.5,1804.5C 1212.25,1785.87 1212.25,1767.21 1212.5,1748.5 Z"/></g>
<g><path style="opacity:0.809" fill="#000000" d="M 309.5,1784.5 C 310.833,1784.5 312.167,1784.5 313.5,1784.5C 315.363,1792.04 316.529,1799.7 317,1807.5C 317.333,1823.83 317.667,1840.17 318,1856.5C 320.625,1878.42 322.292,1900.42 323,1922.5C 337.5,1906.67 352,1890.83 366.5,1875C 376.15,1871.65 379.65,1874.82 377,1884.5C 363.738,1900.43 349.738,1915.77 335,1930.5C 328.694,1939.44 323.694,1949.11 320,1959.5C 318.014,1961.74 315.514,1962.74 312.5,1962.5C 292.785,1957.22 276.618,1946.56 264,1930.5C 260.547,1925.38 256.714,1920.55 252.5,1916C 250.285,1914.96 247.952,1914.29 245.5,1914C 243.987,1911.08 244.32,1908.42 246.5,1906C 251.44,1904.96 256.106,1905.63 260.5,1908C 270.833,1917.67 281.167,1927.33 291.5,1937C 296.868,1941.04 302.701,1944.2 309,1946.5C 311.293,1942.75 313.46,1938.91 315.5,1935C 313.667,1934.5 312.5,1933.33 312,1931.5C 311.048,1913.18 310.381,1894.84 310,1876.5C 309.783,1873.51 308.783,1870.85 307,1868.5C 306.333,1846.17 306.333,1823.83 307,1801.5C 308.052,1795.86 308.885,1790.19 309.5,1784.5 Z"/></g>
<g><path style="opacity:0.706" fill="#000000" d="M 2089.5,1797.5 C 2090.83,1797.5 2092.17,1797.5 2093.5,1797.5C 2095.53,1817.79 2096.36,1838.12 2096,1858.5C 2094.46,1864.6 2093.3,1870.76 2092.5,1877C 2100.47,1894.16 2102.8,1911.99 2099.5,1930.5C 2101.17,1933.31 2100.67,1935.64 2098,1937.5C 2095.68,1933.52 2092.68,1930.18 2089,1927.5C 2088.71,1914.49 2088.21,1901.49 2087.5,1888.5C 2088.83,1875.45 2088.5,1862.45 2086.5,1849.5C 2088.16,1832.2 2089.16,1814.87 2089.5,1797.5 Z"/></g>
<g><path style="opacity:0.611" fill="#000000" d="M 1218.5,1831.5 C 1219.82,1831.33 1220.99,1831.66 1222,1832.5C 1224.49,1850.42 1225.99,1868.42 1226.5,1886.5C 1223.52,1886.76 1221.69,1885.43 1221,1882.5C 1219.09,1865.56 1218.26,1848.56 1218.5,1831.5 Z"/></g>
<g><path style="opacity:0.827" fill="#000000" d="M 1279.5,1854.5 C 1289.15,1853.48 1292.31,1857.48 1289,1866.5C 1275.09,1874.12 1262.42,1883.46 1251,1894.5C 1239.33,1909.18 1231.99,1925.85 1229,1944.5C 1223.86,1947.39 1219.02,1946.89 1214.5,1943C 1201.72,1928.59 1189.05,1914.09 1176.5,1899.5C 1166.53,1890.52 1156.2,1882.02 1145.5,1874C 1144.17,1872 1144.17,1870 1145.5,1868C 1149.17,1867.33 1152.83,1867.33 1156.5,1868C 1162.61,1870.22 1168.28,1873.22 1173.5,1877C 1189.83,1891.85 1204.66,1908.02 1218,1925.5C 1225.82,1900.66 1240.32,1880.83 1261.5,1866C 1267.73,1862.39 1273.73,1858.56 1279.5,1854.5 Z"/></g>
<g><path style="opacity:0.827" fill="#000000" d="M 2155.5,1897.5 C 2160.19,1897.54 2164.86,1897.87 2169.5,1898.5C 2167.18,1901.52 2165.18,1904.85 2163.5,1908.5C 2143.24,1925.32 2128.07,1945.99 2118,1970.5C 2113.39,1983.66 2108.39,1996.66 2103,2009.5C 2096.85,2012.95 2090.35,2013.45 2083.5,2011C 2077.68,2008.25 2072.01,2005.25 2066.5,2002C 2047.5,1988.33 2028.5,1974.67 2009.5,1961C 2001.6,1955.64 1994.43,1949.47 1988,1942.5C 1987.36,1933.72 1991.19,1931.22 1999.5,1935C 2023.78,1952.28 2047.78,1969.95 2071.5,1988C 2078.13,1991.9 2084.96,1995.4 2092,1998.5C 2100.65,1968.87 2114.31,1941.87 2133,1917.5C 2139.78,1909.88 2147.28,1903.22 2155.5,1897.5 Z"/></g>
<g><path style="opacity:0.822" fill="#000000" d="M 1321.5,1974.5 C 1338.96,1974.44 1349.46,1983.11 1353,2000.5C 1353.9,2008.49 1354.23,2016.49 1354,2024.5C 1352.99,2025.34 1351.82,2025.67 1350.5,2025.5C 1351.45,2013.54 1349.28,2002.2 1344,1991.5C 1333.35,1982.27 1326.02,1984.6 1322,1998.5C 1313.07,2038.25 1317.74,2076.25 1336,2112.5C 1337,2111.5 1338,2110.5 1339,2109.5C 1339.78,2112.26 1339.28,2114.76 1337.5,2117C 1347.18,2132.7 1357.85,2147.7 1369.5,2162C 1372.01,2163.76 1374.68,2165.26 1377.5,2166.5C 1375.47,2168.34 1373.14,2168.84 1370.5,2168C 1356.01,2163.51 1344.51,2155.01 1336,2142.5C 1332.67,2137.17 1329.33,2131.83 1326,2126.5C 1312.28,2136.79 1296.78,2141.13 1279.5,2139.5C 1271.81,2139.41 1264.14,2138.91 1256.5,2138C 1250.1,2137.2 1244.1,2135.2 1238.5,2132C 1233.13,2127.43 1230.3,2121.59 1230,2114.5C 1225.32,2139.45 1210.16,2151.45 1184.5,2150.5C 1176.1,2150.24 1167.77,2149.4 1159.5,2148C 1150.34,2145.84 1143.51,2140.68 1139,2132.5C 1140.57,2149.8 1135.07,2164.3 1122.5,2176C 1116.61,2180.48 1109.94,2182.81 1102.5,2183C 1082.51,2185.27 1064.18,2180.94 1047.5,2170C 1036.47,2160.23 1032.64,2148.07 1036,2133.5C 1038.13,2125.7 1042.3,2119.2 1048.5,2114C 1030.24,2115.33 1011.91,2115.83 993.5,2115.5C 995.726,2127.74 998.892,2139.74 1003,2151.5C 1004.14,2148.42 1005.47,2145.42 1007,2142.5C 1008.01,2141.66 1009.18,2141.33 1010.5,2141.5C 1009.44,2145.59 1008.77,2149.76 1008.5,2154C 1010.02,2158.32 1010.52,2162.82 1010,2167.5C 1006.86,2171.58 1003.03,2172.41 998.5,2170C 996.667,2168.17 994.833,2166.33 993,2164.5C 984.906,2144.88 979.24,2124.55 976,2103.5C 970.538,2073.86 965.204,2044.19 960,2014.5C 959.181,2008.17 958.848,2001.84 959,1995.5C 961.563,1988.53 966.396,1986.36 973.5,1989C 975.977,1990.64 978.31,1992.48 980.5,1994.5C 989.519,2004.35 998.353,2014.35 1007,2024.5C 1009.01,2026.87 1010.01,2029.54 1010,2032.5C 999.338,2021.92 987.505,2012.92 974.5,2005.5C 974.167,2006.17 973.833,2006.83 973.5,2007.5C 978.725,2038.45 984.391,2069.29 990.5,2100C 1015.83,2100.67 1041.17,2100.67 1066.5,2100C 1073.79,2097.35 1081.12,2094.68 1088.5,2092C 1097.39,2089.8 1106.39,2089.13 1115.5,2090C 1116.38,2091.36 1116.71,2092.86 1116.5,2094.5C 1111.67,2094.94 1107.01,2096.11 1102.5,2098C 1118.51,2100.57 1130.01,2109.07 1137,2123.5C 1138.07,2098.54 1150.57,2089.71 1174.5,2097C 1178.19,2098.2 1181.53,2100.03 1184.5,2102.5C 1185.35,2104.41 1185.68,2106.41 1185.5,2108.5C 1176.51,2107.57 1167.51,2107.73 1158.5,2109C 1156.67,2109.27 1155.17,2110.11 1154,2111.5C 1151.59,2117.19 1151.43,2122.86 1153.5,2128.5C 1158.19,2132.12 1163.52,2134.29 1169.5,2135C 1179.57,2135.92 1189.57,2135.59 1199.5,2134C 1211.27,2128.48 1217.27,2119.15 1217.5,2106C 1217.16,2095.66 1212.16,2088.66 1202.5,2085C 1198.56,2083.84 1194.56,2083.01 1190.5,2082.5C 1187.89,2090.28 1190.06,2096.28 1197,2100.5C 1197.75,2101.64 1197.58,2102.64 1196.5,2103.5C 1185.63,2099.8 1179.29,2092.3 1177.5,2081C 1177.72,2072.61 1182.05,2068.45 1190.5,2068.5C 1217.13,2069.96 1230.63,2083.96 1231,2110.5C 1231.96,2104.26 1234.29,2098.59 1238,2093.5C 1255.58,2072.02 1277.91,2064.68 1305,2071.5C 1304.56,2059.03 1304.06,2046.53 1303.5,2034C 1303.61,2023.44 1304.44,2012.94 1306,2002.5C 1307.35,1990.79 1312.51,1981.46 1321.5,1974.5 Z M 1276.5,2084.5 C 1287.5,2084.5 1298.5,2084.5 1309.5,2084.5C 1312.61,2096.67 1316.78,2108.34 1322,2119.5C 1317.35,2121.3 1312.52,2122.46 1307.5,2123C 1290.15,2126.03 1272.82,2126.03 1255.5,2123C 1250.4,2122.46 1246.73,2119.96 1244.5,2115.5C 1245.87,2108.26 1249.2,2102.09 1254.5,2097C 1260.87,2090.99 1268.2,2086.82 1276.5,2084.5 Z M 1088.5,2104.5 C 1089.97,2106.64 1091.63,2108.81 1093.5,2111C 1123.41,2115.32 1131.91,2131.16 1119,2158.5C 1112.74,2166.28 1104.58,2169.95 1094.5,2169.5C 1081.19,2169.26 1068.86,2165.76 1057.5,2159C 1048.66,2150.77 1047.16,2141.27 1053,2130.5C 1063.75,2120.22 1075.58,2111.56 1088.5,2104.5 Z"/></g>
<g><path style="opacity:0.831" fill="#000000" d="M 2247.5,1981.5 C 2250.32,1981.25 2252.99,1981.75 2255.5,1983C 2266.73,1992.96 2273.06,2005.46 2274.5,2020.5C 2273.18,2020.67 2272.01,2020.34 2271,2019.5C 2257.92,1984.59 2253.42,1986.59 2257.5,2025.5C 2256.79,2061.52 2259.96,2097.19 2267,2132.5C 2269.15,2138.07 2271.15,2143.74 2273,2149.5C 2273.87,2158.25 2270.2,2160.59 2262,2156.5C 2246.7,2165.4 2230.2,2168.56 2212.5,2166C 2199.81,2165.78 2188.98,2161.28 2180,2152.5C 2177.58,2147.81 2176.24,2142.81 2176,2137.5C 2163.05,2156.72 2144.89,2165.39 2121.5,2163.5C 2105.9,2164.48 2091.24,2161.31 2077.5,2154C 2075.04,2152.54 2072.87,2150.71 2071,2148.5C 2064.61,2163.89 2053.44,2174.06 2037.5,2179C 2031.06,2180.26 2024.56,2181.09 2018,2181.5C 2004.83,2179.96 1991.66,2178.63 1978.5,2177.5C 1978.5,2176.5 1978.5,2175.5 1978.5,2174.5C 1986.06,2175.03 1986.39,2173.87 1979.5,2171C 1973.17,2164.66 1970.17,2157 1970.5,2148C 1970.8,2141.59 1972.46,2135.59 1975.5,2130C 1966.51,2129.5 1957.51,2129.33 1948.5,2129.5C 1951.01,2143.89 1953.84,2158.22 1957,2172.5C 1958.4,2174.19 1960.23,2174.86 1962.5,2174.5C 1962.54,2176.36 1961.71,2177.69 1960,2178.5C 1959.85,2183.84 1959.85,2189.18 1960,2194.5C 1958.47,2197.09 1956.31,2197.92 1953.5,2197C 1951.34,2195.54 1949.51,2193.71 1948,2191.5C 1941.81,2171.87 1937.14,2151.87 1934,2131.5C 1930.21,2129.44 1926.04,2128.27 1921.5,2128C 1917.95,2124.86 1917.62,2121.36 1920.5,2117.5C 1924.09,2116.57 1927.76,2116.24 1931.5,2116.5C 1928.2,2090.19 1925.04,2063.86 1922,2037.5C 1921.33,2030.17 1921.33,2022.83 1922,2015.5C 1925.32,2009.92 1930.16,2006.42 1936.5,2005C 1968.82,1998 1991.82,2009.33 2005.5,2039C 2005.24,2040.95 2004.24,2041.61 2002.5,2041C 1992.62,2025.39 1978.29,2017.55 1959.5,2017.5C 1951.38,2017.78 1943.38,2018.78 1935.5,2020.5C 1938.08,2052.49 1941.75,2084.33 1946.5,2116C 1959.83,2116.67 1973.17,2116.67 1986.5,2116C 1996.58,2107.46 2008.25,2102.46 2021.5,2101C 2023.32,2099.34 2024.99,2097.51 2026.5,2095.5C 2031.03,2093.19 2035.7,2093.02 2040.5,2095C 2050.76,2098.71 2059.59,2104.54 2067,2112.5C 2069.11,2108.05 2072.28,2104.55 2076.5,2102C 2096.03,2098.98 2114.36,2102.31 2131.5,2112C 2133.04,2113.11 2133.7,2114.61 2133.5,2116.5C 2123.12,2114.56 2112.62,2113.22 2102,2112.5C 2096.14,2113.17 2090.31,2114 2084.5,2115C 2082.48,2115.51 2080.98,2116.68 2080,2118.5C 2078.58,2123.43 2078.25,2128.43 2079,2133.5C 2082.46,2140.17 2087.96,2144.33 2095.5,2146C 2109.36,2149.69 2123.36,2150.36 2137.5,2148C 2155.71,2143.96 2166.05,2132.79 2168.5,2114.5C 2168.55,2111.71 2168.05,2109.04 2167,2106.5C 2157.39,2100.38 2146.89,2098.21 2135.5,2100C 2137.04,2101.11 2137.7,2102.61 2137.5,2104.5C 2135.69,2104.51 2134.02,2104.01 2132.5,2103C 2128.83,2099.18 2127.33,2094.68 2128,2089.5C 2128.83,2088 2130,2086.83 2131.5,2086C 2139.5,2085.33 2147.5,2085.33 2155.5,2086C 2174.44,2088.6 2183.6,2099.43 2183,2118.5C 2189.6,2107.23 2198.77,2098.73 2210.5,2093C 2218.94,2090.82 2227.27,2091.15 2235.5,2094C 2237.65,2096.07 2237.98,2098.41 2236.5,2101C 2226.31,2100.24 2217.31,2103.24 2209.5,2110C 2199.41,2117.73 2193.08,2127.73 2190.5,2140C 2191.1,2142.47 2192.44,2144.47 2194.5,2146C 2199.23,2148.47 2204.23,2150.13 2209.5,2151C 2221.48,2152.04 2233.48,2152.88 2245.5,2153.5C 2249.95,2153.24 2254.28,2152.41 2258.5,2151C 2254.2,2141.98 2251.37,2132.48 2250,2122.5C 2243.84,2077.03 2241.84,2031.37 2244,1985.5C 2245.38,1984.29 2246.54,1982.96 2247.5,1981.5 Z M 2036.5,2110.5 C 2036.56,2109.96 2036.89,2109.62 2037.5,2109.5C 2039.17,2110.33 2040.83,2111.17 2042.5,2112C 2040.3,2112.41 2038.3,2111.91 2036.5,2110.5 Z M 2023.5,2110.5 C 2026.68,2110 2029.35,2110.83 2031.5,2113C 2025.6,2114.51 2019.6,2115.17 2013.5,2115C 2016.89,2113.38 2020.23,2111.88 2023.5,2110.5 Z M 2045.5,2116.5 C 2051.49,2117.31 2055.66,2120.64 2058,2126.5C 2060.18,2147.94 2050.68,2161.11 2029.5,2166C 2018.71,2167.07 2008.04,2166.4 1997.5,2164C 1986.73,2160.74 1982.89,2153.57 1986,2142.5C 1987.53,2136.62 1990.69,2131.79 1995.5,2128C 2012.37,2124.47 2029.03,2120.64 2045.5,2116.5 Z"/></g>
<g><path style="opacity:0.829" fill="#000000" d="M 383.5,2083.5 C 383.5,2084.83 383.5,2086.17 383.5,2087.5C 374.721,2086.22 367.887,2081.88 363,2074.5C 360.741,2066.65 363.575,2062.65 371.5,2062.5C 385.336,2065.16 396.503,2072.16 405,2083.5C 406.667,2086.83 408.333,2090.17 410,2093.5C 413.972,2086.1 420.139,2082.76 428.5,2083.5C 438.503,2083.45 447.669,2086.11 456,2091.5C 445.163,2062.47 441.829,2032.47 446,2001.5C 447.005,1994.65 450.171,1989.15 455.5,1985C 461.284,1983.49 466.117,1984.99 470,1989.5C 470.494,1991.13 470.66,1992.8 470.5,1994.5C 468.143,1994.34 465.81,1994.5 463.5,1995C 459.797,2004.6 458.131,2014.6 458.5,2025C 458.157,2044.11 461.324,2062.61 468,2080.5C 479.729,2114.18 498.562,2143.01 524.5,2167C 527.993,2168.44 531.327,2169.94 534.5,2171.5C 533.562,2172.55 532.395,2173.22 531,2173.5C 512.002,2171.17 497.002,2162.17 486,2146.5C 481.637,2140.3 477.47,2133.97 473.5,2127.5C 464.926,2134.91 455.926,2141.74 446.5,2148C 430.682,2154.34 414.349,2156.01 397.5,2153C 395.919,2152.29 394.419,2151.46 393,2150.5C 390.456,2146.53 388.956,2142.19 388.5,2137.5C 374.054,2142.96 359.721,2142.79 345.5,2137C 339.77,2132.99 337.437,2127.49 338.5,2120.5C 338.663,2104 346.663,2093.5 362.5,2089C 371.873,2088.45 381.207,2088.45 390.5,2089C 388.559,2086.55 386.225,2084.71 383.5,2083.5 Z M 383.5,2083.5 C 380.402,2082.78 377.736,2081.28 375.5,2079C 378.855,2079.18 381.522,2080.68 383.5,2083.5 Z M 429.5,2094.5 C 435.842,2094.33 442.175,2094.5 448.5,2095C 452.403,2095.47 456.07,2096.63 459.5,2098.5C 463.338,2106.49 466.838,2114.49 470,2122.5C 468.833,2123.67 467.667,2124.83 466.5,2126C 449.586,2134.08 431.753,2138.91 413,2140.5C 410.183,2139.97 407.35,2139.64 404.5,2139.5C 405.628,2130.58 408.461,2122.25 413,2114.5C 415.917,2110.33 418.584,2106 421,2101.5C 423.464,2098.52 426.297,2096.19 429.5,2094.5 Z M 393.5,2099.5 C 395.124,2099.36 396.29,2100.03 397,2101.5C 399.195,2110.26 396.361,2116.76 388.5,2121C 377.298,2126.81 365.632,2127.97 353.5,2124.5C 351.553,2113.56 355.887,2106.4 366.5,2103C 375.672,2102.04 384.672,2100.87 393.5,2099.5 Z"/></g>
<g><path style="opacity:0.833" fill="#000000" d="M 174.5,2007.5 C 188.492,2006.39 202.159,2007.89 215.5,2012C 220.652,2013.65 223.319,2017.15 223.5,2022.5C 220.86,2022.05 218.527,2020.88 216.5,2019C 203.851,2019.78 191.184,2020.78 178.5,2022C 169.288,2022.51 162.455,2026.68 158,2034.5C 152.395,2079 158.728,2121.67 177,2162.5C 182.116,2172.41 188.449,2181.41 196,2189.5C 196.67,2196.49 193.503,2199.33 186.5,2198C 183.098,2196.6 180.264,2194.43 178,2191.5C 156.371,2159.95 144.704,2124.95 143,2086.5C 142.333,2069.83 142.333,2053.17 143,2036.5C 143.703,2027.25 147.87,2020.09 155.5,2015C 161.479,2011.33 167.812,2008.83 174.5,2007.5 Z"/></g>
<g><path style="opacity:0.829" fill="#000000" d="M 191.5,2085.5 C 193.167,2085.5 194.833,2085.5 196.5,2085.5C 196.657,2086.87 196.49,2088.21 196,2089.5C 191.994,2092.68 188.16,2096.01 184.5,2099.5C 206.819,2100.87 229.152,2101.37 251.5,2101C 260.015,2100.29 268.348,2098.79 276.5,2096.5C 276.765,2088.02 281.099,2084.85 289.5,2087C 303,2093.83 313.167,2104 320,2117.5C 323.613,2127.34 323.28,2137.01 319,2146.5C 314.534,2151.65 309.034,2155.15 302.5,2157C 282.609,2159.75 262.943,2158.75 243.5,2154C 231.43,2148.13 228.264,2138.96 234,2126.5C 237.477,2121.03 241.644,2116.19 246.5,2112C 234.615,2113.82 222.615,2114.98 210.5,2115.5C 197.794,2115.17 185.127,2114.34 172.5,2113C 163.218,2110.45 160.885,2105.12 165.5,2097C 174.82,2094.5 183.487,2090.67 191.5,2085.5 Z M 280.5,2104.5 C 284.527,2108.18 289.194,2110.85 294.5,2112.5C 295.478,2112.02 296.311,2111.36 297,2110.5C 301.439,2114.94 305.106,2119.94 308,2125.5C 311.491,2135.65 307.991,2141.49 297.5,2143C 284.838,2144.93 272.171,2144.93 259.5,2143C 255.016,2142.13 250.683,2140.8 246.5,2139C 245.724,2137.23 245.89,2135.4 247,2133.5C 252.167,2125.67 258.667,2119.17 266.5,2114C 271.071,2110.58 275.737,2107.41 280.5,2104.5 Z"/></g>
</svg>
