<?xml version="1.0" encoding="UTF-8"?>
<!DOCTYPE svg PUBLIC "-//W3C//DTD SVG 1.1//EN" "http://www.w3.org/Graphics/SVG/1.1/DTD/svg11.dtd">
<svg xmlns="http://www.w3.org/2000/svg" version="1.1" width="2550px" height="2550px" style="shape-rendering:geometricPrecision; text-rendering:geometricPrecision; image-rendering:optimizeQuality; fill-rule:evenodd; clip-rule:evenodd" xmlns:xlink="http://www.w3.org/1999/xlink">
<g><path style="opacity:0.828" fill="#000000" d="M 1302.5,201.5 C 1309.02,200.237 1314.52,201.904 1319,206.5C 1324.02,216.227 1327.02,226.56 1328,237.5C 1330.22,255.8 1332.06,274.133 1333.5,292.5C 1350.49,289.064 1367.66,287.064 1385,286.5C 1391.54,286.521 1398.04,287.021 1404.5,288C 1409.49,289.364 1414.49,290.531 1419.5,291.5C 1419.5,292.833 1419.5,294.167 1419.5,295.5C 1412.21,297.058 1404.88,298.558 1397.5,300C 1377.27,300.362 1357.27,302.696 1337.5,307C 1336.33,307.5 1335.5,308.333 1335,309.5C 1334.67,315.833 1334.33,322.167 1334,328.5C 1333.26,329.574 1332.26,330.241 1331,330.5C 1327.58,325.619 1324.92,320.286 1323,314.5C 1319.96,313.291 1316.8,312.457 1313.5,312C 1308.31,309.087 1307.14,304.92 1310,299.5C 1312.76,297.205 1315.92,296.205 1319.5,296.5C 1317.98,272.676 1315.15,249.009 1311,225.5C 1309.91,221.223 1308.24,217.223 1306,213.5C 1304.14,218.537 1300.64,221.537 1295.5,222.5C 1295.67,214.67 1298,207.67 1302.5,201.5 Z"/></g>
<g><path style="opacity:0.825" fill="#000000" d="M 938.5,230.5 C 941.602,230.154 944.435,230.821 947,232.5C 954.328,249.474 959.328,267.14 962,285.5C 964.333,301.167 966.667,316.833 969,332.5C 969.253,335.79 970.253,338.79 972,341.5C 975.255,324.392 981.255,308.392 990,293.5C 994.383,287.559 1000.22,284.059 1007.5,283C 1034.42,279.543 1054.92,289.376 1069,312.5C 1072.86,289.615 1083.36,270.448 1100.5,255C 1123.34,242.827 1139.17,248.994 1148,273.5C 1149.35,281.797 1149.68,290.13 1149,298.5C 1146.92,303.981 1143.08,307.815 1137.5,310C 1124.82,314.082 1111.82,315.415 1098.5,314C 1089.68,312.51 1088.34,308.676 1094.5,302.5C 1096.17,301.667 1097.83,300.833 1099.5,300C 1107.5,299.667 1115.5,299.333 1123.5,299C 1140.17,296.308 1144.33,287.474 1136,272.5C 1123.93,259.914 1112.59,260.581 1102,274.5C 1091.17,287.171 1085,301.838 1083.5,318.5C 1082.66,328.823 1087.32,334.99 1097.5,337C 1110.72,340.639 1124.05,343.639 1137.5,346C 1138.97,346.71 1139.64,347.876 1139.5,349.5C 1129,350.691 1118.5,352.024 1108,353.5C 1094.29,353.642 1082.96,348.642 1074,338.5C 1070.77,332.584 1068.94,326.25 1068.5,319.5C 1062.92,316.015 1056.92,313.182 1050.5,311C 1044.14,306.156 1037.47,301.823 1030.5,298C 1021.23,295.529 1012.23,296.196 1003.5,300C 1000.37,303.752 997.871,307.919 996,312.5C 990.596,328.713 985.596,345.046 981,361.5C 977.189,364.834 973.022,365.668 968.5,364C 961.642,358.127 957.475,350.627 956,341.5C 952.76,320.485 949.426,299.485 946,278.5C 941.729,264.988 937.895,251.321 934.5,237.5C 934.577,234.335 935.91,232.001 938.5,230.5 Z"/></g>
<g><path style="opacity:0.818" fill="#000000" d="M 1189.5,265.5 C 1196.31,265.099 1202.47,266.766 1208,270.5C 1209.02,272.702 1209.52,275.035 1209.5,277.5C 1209.15,281.565 1208.48,285.565 1207.5,289.5C 1206.17,289.5 1204.83,289.5 1203.5,289.5C 1203.31,285.552 1202.65,281.719 1201.5,278C 1198.1,278.013 1194.77,278.679 1191.5,280C 1186.08,287.854 1184.58,296.354 1187,305.5C 1194.47,311.651 1202.97,315.818 1212.5,318C 1219.5,318.333 1226.5,318.667 1233.5,319C 1240.31,324.406 1239.64,328.739 1231.5,332C 1224.13,332.273 1216.8,332.773 1209.5,333.5C 1208.87,338.657 1207.87,343.657 1206.5,348.5C 1198.95,348.286 1194.95,344.286 1194.5,336.5C 1195.19,333.442 1195.69,330.442 1196,327.5C 1171.52,318.402 1164.85,301.736 1176,277.5C 1178.83,271.493 1183.33,267.493 1189.5,265.5 Z"/></g>
<g><path style="opacity:0.75" fill="#000000" d="M 1138.5,426.5 C 1146.74,424.906 1151.57,428.24 1153,436.5C 1155.42,451.975 1154.75,467.308 1151,482.5C 1150.26,485.545 1148.92,488.211 1147,490.5C 1146.05,490.095 1145.39,489.428 1145,488.5C 1141.16,473.764 1139.5,458.764 1140,443.5C 1139.12,439.405 1137.95,435.405 1136.5,431.5C 1136.44,429.486 1137.1,427.819 1138.5,426.5 Z"/></g>
<g><path style="opacity:0.65" fill="#000000" d="M 1158.5,517.5 C 1160.17,517.5 1161.83,517.5 1163.5,517.5C 1165.73,538.62 1166.06,559.787 1164.5,581C 1164.67,582.5 1164.83,584 1165,585.5C 1166.69,587.24 1167.86,589.24 1168.5,591.5C 1165.41,591.623 1162.75,590.623 1160.5,588.5C 1159.16,584.616 1158.33,580.616 1158,576.5C 1157.36,556.825 1157.52,537.158 1158.5,517.5 Z"/></g>
<g><path style="opacity:0.634" fill="#000000" d="M 1172.5,593.5 C 1173.83,593.5 1175.17,593.5 1176.5,593.5C 1177.48,598.129 1177.65,602.796 1177,607.5C 1173.83,624.865 1170.5,642.198 1167,659.5C 1166.49,661.904 1165.33,662.571 1163.5,661.5C 1162.66,651.508 1162.83,641.508 1164,631.5C 1166.52,618.764 1169.36,606.098 1172.5,593.5 Z"/></g>
<g><path style="opacity:0.697" fill="#000000" d="M 1165.5,672.5 C 1166.83,672.5 1168.17,672.5 1169.5,672.5C 1170.73,684.159 1171.57,695.826 1172,707.5C 1166.3,719.853 1160.63,732.186 1155,744.5C 1153.4,743.114 1152.56,741.281 1152.5,739C 1153.03,734.17 1153.53,729.337 1154,724.5C 1157,715.838 1160,707.171 1163,698.5C 1164.08,689.851 1164.92,681.184 1165.5,672.5 Z"/></g>
<g><path style="opacity:0.67" fill="#000000" d="M 1153.5,773.5 C 1154.5,773.5 1155.5,773.5 1156.5,773.5C 1156.92,777.034 1157.59,780.534 1158.5,784C 1157.95,786.824 1157.45,789.657 1157,792.5C 1147.59,809.257 1143.43,827.257 1144.5,846.5C 1143.18,846.67 1142.01,846.337 1141,845.5C 1139.75,832.518 1139.42,819.518 1140,806.5C 1143.41,799.342 1147.08,792.342 1151,785.5C 1151.33,781.354 1152.16,777.354 1153.5,773.5 Z"/></g>
<g><path style="opacity:0.834" fill="#000000" d="M 763.5,842.5 C 782.968,839.518 797.468,846.518 807,863.5C 808.779,869.443 808.946,875.443 807.5,881.5C 806.5,881.5 805.5,881.5 804.5,881.5C 805.817,864.819 798.151,855.819 781.5,854.5C 774.605,854.517 768.271,856.35 762.5,860C 735.4,892.409 721.233,929.909 720,972.5C 715.33,1004.54 725.83,1030.04 751.5,1049C 771.614,1059.66 793.114,1064.16 816,1062.5C 852.08,1064.03 884.58,1054.19 913.5,1033C 933.261,1016.08 944.094,994.584 946,968.5C 951.361,936.253 942.527,908.753 919.5,886C 903.219,875.254 885.553,872.254 866.5,877C 851.562,881.919 843.396,892.085 842,907.5C 844.646,908.98 844.812,910.313 842.5,911.5C 837.706,910.401 834.872,907.401 834,902.5C 831.302,888.064 836.135,876.898 848.5,869C 862.572,861.417 877.572,858.75 893.5,861C 909.082,862.127 922.416,868.127 933.5,879C 957.679,905.568 966.513,936.735 960,972.5C 954.621,1015.42 932.121,1045.59 892.5,1063C 876.495,1069.83 859.828,1074.17 842.5,1076C 822.136,1076.9 801.803,1076.57 781.5,1075C 752.311,1070.45 730.144,1055.61 715,1030.5C 707.696,1014.85 704.529,998.349 705.5,981C 704.876,932.868 719.376,890.035 749,852.5C 753.325,848.268 758.158,844.935 763.5,842.5 Z"/></g>
<g><path style="opacity:0.586" fill="#000000" d="M 1150.5,853.5 C 1153.83,853.027 1156,854.36 1157,857.5C 1157.61,861.682 1156.94,865.682 1155,869.5C 1150.48,876.545 1146.48,883.878 1143,891.5C 1140.87,893.484 1138.37,894.818 1135.5,895.5C 1133.89,894.68 1133.22,893.346 1133.5,891.5C 1135.39,891.703 1136.89,891.037 1138,889.5C 1139.73,880.301 1143.4,871.967 1149,864.5C 1150.24,860.94 1150.74,857.273 1150.5,853.5 Z"/></g>
<g><path style="opacity:0.591" fill="#000000" d="M 1127.5,896.5 C 1128.5,896.5 1129.5,896.5 1130.5,896.5C 1130.64,898.262 1130.31,899.929 1129.5,901.5C 1125.52,904.984 1121.68,908.651 1118,912.5C 1108.5,925.488 1099.5,938.821 1091,952.5C 1089.64,953.38 1088.14,953.714 1086.5,953.5C 1087.06,949.039 1088.22,944.706 1090,940.5C 1099.19,922.829 1111.69,908.162 1127.5,896.5 Z"/></g>
<g><path style="opacity:0.59" fill="#000000" d="M 1058.5,991.5 C 1063.36,991.954 1068.36,992.121 1073.5,992C 1078.83,993.333 1078.83,994.667 1073.5,996C 1068.83,996.333 1064.17,996.667 1059.5,997C 1054.88,1004.25 1049.54,1010.92 1043.5,1017C 1041.87,1017.49 1040.2,1017.66 1038.5,1017.5C 1038.34,1016.13 1038.51,1014.79 1039,1013.5C 1043.9,1007.38 1048.57,1001.05 1053,994.5C 1054.88,993.391 1056.71,992.391 1058.5,991.5 Z"/></g>
<g><path style="opacity:0.831" fill="#000000" d="M 1151.5,1000.5 C 1181.67,998.543 1209.67,1005.38 1235.5,1021C 1257.02,1033.51 1275.85,1049.34 1292,1068.5C 1307.8,1089.59 1313.47,1113.25 1309,1139.5C 1305.72,1160.73 1297.05,1179.4 1283,1195.5C 1222.51,1258.58 1150.68,1276.08 1067.5,1248C 1043.34,1238.16 1022.84,1223.33 1006,1203.5C 993.065,1187.86 987.232,1169.86 988.5,1149.5C 988.671,1114.51 1000.5,1084.18 1024,1058.5C 1031.86,1050.3 1040.03,1042.47 1048.5,1035C 1054.61,1030.61 1061.28,1027.28 1068.5,1025C 1078.52,1024.51 1088.52,1024.84 1098.5,1026C 1102.97,1026.7 1107.3,1027.87 1111.5,1029.5C 1113.95,1016.54 1121.62,1008.04 1134.5,1004C 1140.23,1002.43 1145.9,1001.27 1151.5,1000.5 Z M 1158.5,1014.5 C 1178.45,1014.4 1197.45,1018.57 1215.5,1027C 1243.87,1040.71 1267.37,1060.21 1286,1085.5C 1294.6,1101.11 1297.6,1117.78 1295,1135.5C 1292.85,1151.8 1286.85,1166.46 1277,1179.5C 1223.91,1240.3 1158.41,1259.47 1080.5,1237C 1056.54,1228.7 1036.04,1215.2 1019,1196.5C 1013.66,1189.83 1009.33,1182.49 1006,1174.5C 998.191,1138.41 1005.52,1105.74 1028,1076.5C 1039.57,1062.93 1052.4,1050.76 1066.5,1040C 1070.53,1037.55 1074.86,1035.88 1079.5,1035C 1087.16,1034.07 1094.83,1033.24 1102.5,1032.5C 1104.5,1033 1106.5,1033.5 1108.5,1034C 1109.42,1038.23 1108.92,1042.39 1107,1046.5C 1103.62,1050.05 1100.12,1053.38 1096.5,1056.5C 1101.31,1057.03 1105.48,1055.36 1109,1051.5C 1111.76,1046.78 1113.76,1041.78 1115,1036.5C 1120.77,1042.97 1127.93,1045.97 1136.5,1045.5C 1133.33,1042.83 1130.5,1039.83 1128,1036.5C 1127.13,1032.04 1127.47,1027.71 1129,1023.5C 1138.06,1017.66 1147.89,1014.66 1158.5,1014.5 Z"/></g>
<g><path style="opacity:0.664" fill="#000000" d="M 1009.5,1019.5 C 1010.83,1019.5 1012.17,1019.5 1013.5,1019.5C 1011.45,1029.94 1008.95,1040.27 1006,1050.5C 998.255,1059.57 990.921,1068.9 984,1078.5C 981.261,1081.12 978.427,1083.62 975.5,1086C 974.552,1086.48 973.552,1086.65 972.5,1086.5C 972.343,1085.13 972.51,1083.79 973,1082.5C 979.731,1075.7 984.398,1067.7 987,1058.5C 991.38,1053.79 995.38,1048.79 999,1043.5C 1002.22,1035.31 1005.72,1027.31 1009.5,1019.5 Z"/></g>
<g><path style="opacity:0.605" fill="#000000" d="M 939.5,1090.5 C 940.5,1090.5 941.5,1090.5 942.5,1090.5C 938.358,1103.03 934.191,1115.69 930,1128.5C 926.447,1137.27 922.114,1145.61 917,1153.5C 910.322,1157.17 907.989,1155.17 910,1147.5C 921.435,1130.96 929.935,1112.96 935.5,1093.5C 936.901,1092.48 938.235,1091.48 939.5,1090.5 Z"/></g>
<g><path style="opacity:0.654" fill="#000000" d="M 920.5,1178.5 C 921.833,1178.5 923.167,1178.5 924.5,1178.5C 927.737,1192.65 925.237,1205.65 917,1217.5C 912.555,1230.28 908.888,1243.28 906,1256.5C 904.667,1257.83 903.333,1257.83 902,1256.5C 901.333,1249.83 901.333,1243.17 902,1236.5C 906.269,1221.63 911.936,1207.29 919,1193.5C 919.912,1188.54 920.412,1183.54 920.5,1178.5 Z"/></g>
<g><path style="opacity:0.836" fill="#000000" d="M 1581.5,1263.5 C 1606.84,1263.33 1632.17,1263.5 1657.5,1264C 1697.15,1264 1735.49,1271 1772.5,1285C 1791.23,1292.74 1806.73,1304.57 1819,1320.5C 1826.31,1334.98 1828.97,1350.31 1827,1366.5C 1824.15,1390.39 1816.15,1412.39 1803,1432.5C 1757.09,1501.42 1698.59,1556.92 1627.5,1599C 1579.36,1625.11 1528.03,1634.44 1473.5,1627C 1450.07,1625.94 1427.07,1622.27 1404.5,1616C 1370.25,1606.74 1345.42,1586.24 1330,1554.5C 1326.09,1544.18 1323.75,1533.51 1323,1522.5C 1320.64,1474.73 1321.97,1427.06 1327,1379.5C 1331.44,1330.07 1355.6,1294.23 1399.5,1272C 1414.15,1268.69 1428.82,1268.69 1443.5,1272C 1445.95,1272.72 1448.28,1273.72 1450.5,1275C 1453.06,1277.93 1453.06,1280.93 1450.5,1284C 1447.49,1284.3 1444.49,1284.13 1441.5,1283.5C 1440.98,1280.23 1438.98,1278.89 1435.5,1279.5C 1427.47,1280.1 1419.47,1280.93 1411.5,1282C 1383.73,1294.11 1363.56,1313.94 1351,1341.5C 1346.75,1353.18 1343.75,1365.18 1342,1377.5C 1339.34,1396.41 1337.67,1415.41 1337,1434.5C 1336.33,1461.5 1336.33,1488.5 1337,1515.5C 1337.99,1548.33 1352.49,1573.16 1380.5,1590C 1407.28,1603.11 1435.62,1610.45 1465.5,1612C 1492.17,1614 1518.83,1614 1545.5,1612C 1572.83,1607.78 1598.49,1598.78 1622.5,1585C 1691.01,1543.49 1747.51,1489.32 1792,1422.5C 1804.68,1402.3 1811.84,1380.3 1813.5,1356.5C 1813.88,1340.1 1807.88,1326.6 1795.5,1316C 1776.18,1301.33 1754.51,1291.66 1730.5,1287C 1692.55,1279.49 1654.21,1276.33 1615.5,1277.5C 1573.96,1276.54 1532.96,1280.71 1492.5,1290C 1489.01,1290.94 1485.67,1292.28 1482.5,1294C 1479.88,1300.03 1477.54,1306.2 1475.5,1312.5C 1476.51,1315.67 1478.51,1318.01 1481.5,1319.5C 1475.01,1320.82 1470.84,1318.16 1469,1311.5C 1463.03,1299.57 1465.19,1289.4 1475.5,1281C 1490.89,1274.72 1506.89,1270.72 1523.5,1269C 1542.9,1266.16 1562.23,1264.33 1581.5,1263.5 Z"/></g>
<g><path style="opacity:0.697" fill="#000000" d="M 907.5,1264.5 C 908.5,1264.5 909.5,1264.5 910.5,1264.5C 912.155,1288.49 913.655,1312.49 915,1336.5C 916.883,1341.58 918.716,1346.58 920.5,1351.5C 919.127,1351.66 917.793,1351.49 916.5,1351C 914.08,1348.39 911.08,1346.72 907.5,1346C 905.898,1344.07 904.731,1341.9 904,1339.5C 904.415,1314.45 905.582,1289.45 907.5,1264.5 Z"/></g>
<g><path style="opacity:0.671" fill="#000000" d="M 928.5,1349.5 C 931.808,1348.97 933.974,1350.31 935,1353.5C 938.368,1358.56 941.368,1363.89 944,1369.5C 946.444,1377.72 949.444,1385.72 953,1393.5C 956.299,1396.98 959.966,1399.98 964,1402.5C 964.483,1403.45 964.649,1404.45 964.5,1405.5C 957.344,1404.76 950.844,1402.43 945,1398.5C 939.652,1382.1 934.152,1365.77 928.5,1349.5 Z"/></g>
<g><path style="opacity:0.691" fill="#000000" d="M 1004.5,1433.5 C 1005.87,1433.34 1007.21,1433.51 1008.5,1434C 1013.66,1441.82 1020.66,1447.49 1029.5,1451C 1035.37,1455.96 1038.03,1462.13 1037.5,1469.5C 1030.51,1463.67 1022.84,1458.83 1014.5,1455C 1008.2,1449.28 1004.86,1442.11 1004.5,1433.5 Z"/></g>
<g><path style="opacity:0.584" fill="#000000" d="M 1073.5,1501.5 C 1077.79,1502.93 1081.45,1505.43 1084.5,1509C 1097.8,1516.3 1109.3,1525.8 1119,1537.5C 1120.91,1540.21 1121.74,1543.21 1121.5,1546.5C 1110.78,1536.63 1099.78,1526.79 1088.5,1517C 1083.9,1514.79 1079.73,1511.95 1076,1508.5C 1074.59,1506.35 1073.76,1504.02 1073.5,1501.5 Z"/></g>
<g><path style="opacity:0.627" fill="#000000" d="M 1170.5,1595.5 C 1171.98,1595.24 1173.31,1595.57 1174.5,1596.5C 1177.82,1605.16 1179.65,1614.16 1180,1623.5C 1180.03,1639.18 1179.53,1654.84 1178.5,1670.5C 1177.17,1670.5 1175.83,1670.5 1174.5,1670.5C 1174.13,1645.44 1172.8,1620.44 1170.5,1595.5 Z"/></g>
<g><path style="opacity:0.685" fill="#000000" d="M 1186.5,1676.5 C 1188.39,1676.3 1189.89,1676.96 1191,1678.5C 1193.84,1686.22 1195.17,1694.22 1195,1702.5C 1195.42,1717.32 1195.59,1731.98 1195.5,1746.5C 1194.98,1750.24 1194.15,1753.91 1193,1757.5C 1191.33,1758.83 1189.67,1758.83 1188,1757.5C 1187.36,1753.52 1186.86,1749.52 1186.5,1745.5C 1187.77,1722.5 1187.77,1699.5 1186.5,1676.5 Z"/></g>
<g><path style="opacity:0.578" fill="#000000" d="M 1201.5,1774.5 C 1202.83,1774.5 1204.17,1774.5 1205.5,1774.5C 1209.47,1792.69 1210.3,1811.03 1208,1829.5C 1207.29,1830.97 1206.12,1831.64 1204.5,1831.5C 1203.97,1812.47 1202.97,1793.47 1201.5,1774.5 Z"/></g>
<g><path style="opacity:0.682" fill="#000000" d="M 1214.5,1861.5 C 1215.83,1861.5 1217.17,1861.5 1218.5,1861.5C 1219.38,1876.48 1219.71,1891.48 1219.5,1906.5C 1217.5,1906.5 1215.5,1906.5 1213.5,1906.5C 1213.22,1891.46 1213.55,1876.46 1214.5,1861.5 Z"/></g>
<g><path style="opacity:0.826" fill="#000000" d="M 1298.5,1910.5 C 1300.17,1910.5 1301.83,1910.5 1303.5,1910.5C 1302.57,1914.13 1301.74,1917.79 1301,1921.5C 1295.74,1931.68 1290.74,1942.01 1286,1952.5C 1279.2,1970.58 1272.2,1988.58 1265,2006.5C 1261.84,2012.58 1256.84,2015.58 1250,2015.5C 1239.2,2014.85 1229.7,2011.02 1221.5,2004C 1210.2,1993.7 1199.2,1983.03 1188.5,1972C 1183.33,1968.17 1178.17,1964.33 1173,1960.5C 1172.25,1957.21 1173.42,1954.71 1176.5,1953C 1180.63,1952.15 1184.63,1952.48 1188.5,1954C 1202.73,1965.23 1216.07,1977.56 1228.5,1991C 1234.82,1996.24 1241.98,1999.74 1250,2001.5C 1251.83,1999.84 1253.16,1997.84 1254,1995.5C 1262.5,1971.32 1272.17,1947.65 1283,1924.5C 1284.92,1921 1287.08,1917.66 1289.5,1914.5C 1292.48,1912.84 1295.48,1911.5 1298.5,1910.5 Z"/></g>
<g><path style="opacity:0.645" fill="#000000" d="M 1226.5,1917.5 C 1227.83,1917.5 1229.17,1917.5 1230.5,1917.5C 1236.2,1937.44 1239.53,1957.77 1240.5,1978.5C 1238.65,1982.1 1236.15,1982.43 1233,1979.5C 1231.65,1958.73 1229.49,1938.06 1226.5,1917.5 Z"/></g>
<g><path style="opacity:0.817" fill="#000000" d="M 1424.5,1978.5 C 1436.13,1977.8 1443.13,1983.14 1445.5,1994.5C 1444.13,1994.66 1442.79,1994.49 1441.5,1994C 1439.43,1991.3 1436.93,1989.14 1434,1987.5C 1431.72,1989.99 1430.38,1992.99 1430,1996.5C 1427.18,2026.29 1430.85,2055.29 1441,2083.5C 1452.86,2123.09 1465.53,2162.42 1479,2201.5C 1481.23,2205.7 1483.4,2209.87 1485.5,2214C 1484.79,2217.87 1482.46,2219.71 1478.5,2219.5C 1474.97,2219.65 1472.13,2218.32 1470,2215.5C 1464.69,2205.23 1460.36,2194.57 1457,2183.5C 1447.8,2154.91 1438.8,2126.24 1430,2097.5C 1429.5,2100.15 1429.34,2102.81 1429.5,2105.5C 1425.47,2105.94 1423.47,2104.11 1423.5,2100C 1412.65,2098.41 1401.98,2099.41 1391.5,2103C 1373.14,2113.02 1358.31,2126.85 1347,2144.5C 1344.03,2150.33 1343.36,2156.33 1345,2162.5C 1352.02,2168.51 1360.18,2172.01 1369.5,2173C 1381.58,2175.21 1393.58,2174.88 1405.5,2172C 1408.75,2169.13 1412.25,2166.63 1416,2164.5C 1416.5,2164.83 1417,2165.17 1417.5,2165.5C 1415.05,2171.11 1411.05,2175.28 1405.5,2178C 1388.82,2185.37 1371.48,2187.37 1353.5,2184C 1332.22,2177.6 1325.05,2163.77 1332,2142.5C 1344.33,2119.84 1362.16,2103 1385.5,2092C 1397.8,2088.76 1410.14,2088.76 1422.5,2092C 1425.1,2092.88 1427.27,2094.38 1429,2096.5C 1425.2,2082.3 1421.53,2067.96 1418,2053.5C 1414.2,2032.54 1413.87,2011.54 1417,1990.5C 1418.28,1985.59 1420.78,1981.59 1424.5,1978.5 Z"/></g>
<g><path style="opacity:0.824" fill="#000000" d="M 1046.5,2015.5 C 1064.32,2015.32 1076.82,2023.32 1084,2039.5C 1084.81,2041.58 1084.64,2043.58 1083.5,2045.5C 1082.57,2046.64 1081.74,2046.64 1081,2045.5C 1078.76,2037.59 1073.59,2032.76 1065.5,2031C 1040.18,2024.23 1024.68,2033.39 1019,2058.5C 1016.8,2072.41 1015.97,2086.41 1016.5,2100.5C 1022.46,2099.24 1028.46,2098.24 1034.5,2097.5C 1034.5,2098.83 1034.5,2100.17 1034.5,2101.5C 1028.81,2102.84 1023.14,2104.34 1017.5,2106C 1015.84,2107.44 1015.18,2109.28 1015.5,2111.5C 1031.8,2112.62 1048.13,2112.79 1064.5,2112C 1080.78,2109.76 1097.11,2107.76 1113.5,2106C 1117.42,2105.21 1121.26,2105.37 1125,2106.5C 1125.27,2108.1 1125.77,2109.6 1126.5,2111C 1125.77,2112.4 1125.27,2113.9 1125,2115.5C 1112.29,2125.69 1099.96,2136.36 1088,2147.5C 1077.42,2162.31 1075.09,2178.31 1081,2195.5C 1094.56,2210.27 1110.73,2214.1 1129.5,2207C 1147.43,2190.79 1152.59,2171.29 1145,2148.5C 1141.53,2144.32 1137.37,2141.49 1132.5,2140C 1134.61,2141.26 1135.61,2143.1 1135.5,2145.5C 1131.31,2145.32 1127.64,2143.82 1124.5,2141C 1120.41,2136.72 1119.58,2131.88 1122,2126.5C 1127.37,2124.01 1132.87,2123.84 1138.5,2126C 1160.48,2136.81 1168.31,2154.31 1162,2178.5C 1158.97,2195.73 1150.47,2209.57 1136.5,2220C 1111.67,2229.83 1089.83,2225.33 1071,2206.5C 1067.86,2201.88 1065.52,2196.88 1064,2191.5C 1059.54,2162.16 1069.71,2139.66 1094.5,2124C 1103.47,2120.52 1111.81,2116.02 1119.5,2110.5C 1119,2110.17 1118.5,2109.83 1118,2109.5C 1100.49,2113.59 1082.99,2117.75 1065.5,2122C 1049.2,2123.35 1032.87,2123.85 1016.5,2123.5C 1015.1,2153 1019.27,2181.67 1029,2209.5C 1030.17,2211.83 1031.33,2214.17 1032.5,2216.5C 1036.23,2219.46 1037.9,2218.46 1037.5,2213.5C 1038.5,2213.5 1039.5,2213.5 1040.5,2213.5C 1040.84,2218.19 1041,2222.85 1041,2227.5C 1035.66,2232.24 1029.83,2232.74 1023.5,2229C 1017.08,2219.74 1012.58,2209.57 1010,2198.5C 1004.14,2173.52 1001.3,2148.19 1001.5,2122.5C 993.039,2121.72 985.039,2119.39 977.5,2115.5C 975.564,2112.79 975.064,2109.79 976,2106.5C 976.5,2105.33 977.333,2104.5 978.5,2104C 986.159,2103.5 993.826,2103.33 1001.5,2103.5C 1001.49,2088.78 1002.33,2074.12 1004,2059.5C 1005.87,2043.57 1013.04,2030.74 1025.5,2021C 1032.26,2017.73 1039.26,2015.89 1046.5,2015.5 Z M 998.5,2109.5 C 999.386,2108.22 1000.39,2108.22 1001.5,2109.5C 1000.77,2110.09 999.767,2110.09 998.5,2109.5 Z"/></g>
<g><path style="opacity:0.813" fill="#000000" d="M 1247.5,2106.5 C 1255.71,2105.74 1263.04,2107.9 1269.5,2113C 1289.3,2129.39 1296.13,2150.22 1290,2175.5C 1287.61,2186.89 1280.78,2194.05 1269.5,2197C 1247.81,2200.33 1228.15,2195.66 1210.5,2183C 1198.95,2172.32 1194.78,2159.15 1198,2143.5C 1203.63,2118.78 1217.8,2112.61 1240.5,2125C 1242.28,2127.14 1242.95,2129.64 1242.5,2132.5C 1233.8,2131.02 1225.3,2131.69 1217,2134.5C 1210.6,2144.8 1209.93,2155.46 1215,2166.5C 1226.76,2178.43 1241.1,2184.09 1258,2183.5C 1268.02,2185.5 1274.19,2181.66 1276.5,2172C 1281.33,2152.71 1276.16,2136.88 1261,2124.5C 1260.52,2125.45 1260.35,2126.45 1260.5,2127.5C 1254.26,2126.45 1249.09,2123.45 1245,2118.5C 1242.52,2113.71 1243.35,2109.71 1247.5,2106.5 Z"/></g>
</svg>
