<?xml version="1.0" encoding="UTF-8"?>
<!DOCTYPE svg PUBLIC "-//W3C//DTD SVG 1.1//EN" "http://www.w3.org/Graphics/SVG/1.1/DTD/svg11.dtd">
<svg xmlns="http://www.w3.org/2000/svg" version="1.1" width="2550px" height="2550px" style="shape-rendering:geometricPrecision; text-rendering:geometricPrecision; image-rendering:optimizeQuality; fill-rule:evenodd; clip-rule:evenodd" xmlns:xlink="http://www.w3.org/1999/xlink">
<g><path style="opacity:0.826" fill="#000000" d="M 572.5,214.5 C 577.963,213.784 581.463,216.117 583,221.5C 584.289,236.509 585.623,251.509 587,266.5C 609.61,259.278 632.777,254.945 656.5,253.5C 660.947,253.396 665.28,253.896 669.5,255C 672.6,259.733 671.934,263.733 667.5,267C 639.873,267.99 613.206,273.156 587.5,282.5C 589.738,294.738 590.905,307.071 591,319.5C 586.22,322.472 582.22,321.472 579,316.5C 577.073,310.271 575.573,303.938 574.5,297.5C 571.698,294.624 569.532,291.29 568,287.5C 561.46,285.224 559.794,280.891 563,274.5C 565.469,272.348 568.302,270.848 571.5,270C 572.059,269.275 572.392,268.442 572.5,267.5C 571.418,256.195 570.585,244.862 570,233.5C 569.304,229.949 568.47,226.449 567.5,223C 567.525,219.105 569.192,216.272 572.5,214.5 Z M 572.5,285.5 C 574.088,286.635 574.421,287.969 573.5,289.5C 572.571,288.311 572.238,286.978 572.5,285.5 Z"/></g>
<g><path style="opacity:0.819" fill="#000000" d="M 320.5,239.5 C 322.936,239.317 325.103,239.984 327,241.5C 330.064,248.691 332.73,256.025 335,263.5C 337.401,262.398 339.901,262.231 342.5,263C 350.174,265.587 357.34,269.087 364,273.5C 366.161,269.876 369.328,268.709 373.5,270C 384.141,281.236 389.308,294.736 389,310.5C 389.667,329.5 389.667,348.5 389,367.5C 386.839,371.124 383.672,372.291 379.5,371C 377.951,369.786 376.785,368.286 376,366.5C 375.856,345.81 375.189,325.144 374,304.5C 372.876,296.462 370.543,288.796 367,281.5C 362.846,277.256 357.846,274.59 352,273.5C 347.229,274.479 342.729,276.145 338.5,278.5C 338.013,279.446 337.68,280.446 337.5,281.5C 339.438,299.781 339.938,318.114 339,336.5C 335.707,341.827 331.707,342.493 327,338.5C 325.031,334.768 324.031,330.768 324,326.5C 323.218,307.819 323.385,289.152 324.5,270.5C 323.653,260.045 321.32,250.045 317.5,240.5C 318.791,240.737 319.791,240.404 320.5,239.5 Z"/></g>
<g><path style="opacity:0.824" fill="#000000" d="M 502.5,245.5 C 508.813,246.937 510.98,250.604 509,256.5C 500.079,263.433 496.579,272.433 498.5,283.5C 508.793,287.321 518.793,291.821 528.5,297C 531.167,300.667 531.167,304.333 528.5,308C 511.765,311.381 495.098,315.215 478.5,319.5C 474.987,318.656 472.32,316.656 470.5,313.5C 461.977,320.524 453.31,327.357 444.5,334C 432.621,336.44 420.621,337.107 408.5,336C 398.601,332.55 394.268,325.55 395.5,315C 396.425,307.832 396.925,300.665 397,293.5C 393.542,291.283 390.542,288.617 388,285.5C 387.333,282.833 387.333,280.167 388,277.5C 393.652,275.494 398.652,276.494 403,280.5C 408.227,267.273 417.393,258.107 430.5,253C 457.181,248.043 469.014,258.877 466,285.5C 461.872,294.598 454.705,299.431 444.5,300C 433.473,300.74 422.473,300.574 411.5,299.5C 410.65,306.799 410.317,314.132 410.5,321.5C 423.223,322.982 435.889,322.482 448.5,320C 457.965,316.773 466.298,311.773 473.5,305C 481.668,303.625 489.668,301.625 497.5,299C 484.355,293.869 479.855,284.369 484,270.5C 485.964,261.736 490.13,254.236 496.5,248C 498.611,247.155 500.611,246.322 502.5,245.5 Z M 445.5,265.5 C 449.694,265.177 453.527,266.177 457,268.5C 457.759,271.626 458.259,274.793 458.5,278C 459.225,284.771 456.225,288.271 449.5,288.5C 438.382,288.049 427.382,286.882 416.5,285C 420.108,278.126 425.108,272.459 431.5,268C 436.294,267.098 440.961,266.265 445.5,265.5 Z"/></g>
<g><path style="opacity:0.836" fill="#000000" d="M 545.5,386.5 C 566.238,385.9 586.905,386.733 607.5,389C 637.22,394.257 659.72,409.757 675,435.5C 678.614,445.85 680.28,456.517 680,467.5C 719.128,494.17 758.294,521.67 797.5,550C 843.995,580.418 892.995,606.418 944.5,628C 995.616,649.391 1046.62,671.058 1097.5,693C 1137.29,707.225 1177.29,720.892 1217.5,734C 1260.5,746.669 1304.16,755.669 1348.5,761C 1351.8,765.3 1355.46,769.3 1359.5,773C 1376.52,779.341 1393.18,786.507 1409.5,794.5C 1419.95,787.443 1431.28,782.277 1443.5,779C 1451.25,778.846 1458.91,779.68 1466.5,781.5C 1468.98,782.307 1470.31,783.974 1470.5,786.5C 1491.17,786.333 1511.84,786.5 1532.5,787C 1564.06,787.288 1591.23,798.122 1614,819.5C 1618.56,824.406 1621.89,830.073 1624,836.5C 1624.67,848.167 1624.67,859.833 1624,871.5C 1623.06,875.762 1621.89,879.928 1620.5,884C 1726.63,919.736 1827.29,966.736 1922.5,1025C 1943.5,1039.16 1962.5,1055.66 1979.5,1074.5C 1993.83,1087.67 2008.17,1100.83 2022.5,1114C 2032.81,1122.49 2043.48,1130.49 2054.5,1138C 2061.19,1143.35 2066.36,1149.85 2070,1157.5C 2075.87,1162.03 2080.2,1167.7 2083,1174.5C 2086.04,1177.2 2088.7,1180.2 2091,1183.5C 2098.08,1190.59 2105.75,1196.92 2114,1202.5C 2117.39,1208.13 2120.89,1213.63 2124.5,1219C 2148.84,1221.67 2171.17,1229.67 2191.5,1243C 2206.52,1255.4 2212.02,1271.23 2208,1290.5C 2205.99,1299.85 2202.32,1308.52 2197,1316.5C 2180.42,1339.99 2164.09,1363.66 2148,1387.5C 2122.84,1413.63 2092,1427.96 2055.5,1430.5C 2056.38,1437.15 2056.55,1443.82 2056,1450.5C 2050.66,1473.22 2046.99,1496.22 2045,1519.5C 2040.96,1555.07 2038.3,1590.74 2037,1626.5C 2033.8,1644.85 2030.46,1663.19 2027,1681.5C 2026.67,1704.5 2026.33,1727.5 2026,1750.5C 2025.07,1758.51 2024.07,1766.51 2023,1774.5C 2020.14,1782.76 2017.47,1791.09 2015,1799.5C 2014.24,1808.83 2013.58,1818.16 2013,1827.5C 2008.26,1844.86 2006.09,1862.52 2006.5,1880.5C 2036.28,1887.11 2060.11,1902.77 2078,1927.5C 2090.26,1969.56 2080.76,2005.72 2049.5,2036C 2039.23,2044.98 2027.23,2049.65 2013.5,2050C 1996.76,2050.85 1980.1,2050.35 1963.5,2048.5C 1961.96,2052.49 1962.46,2056.15 1965,2059.5C 1967.09,2065.39 1965.09,2068.39 1959,2068.5C 1954.31,2068.15 1950.98,2065.82 1949,2061.5C 1947.75,2056.58 1947.25,2051.58 1947.5,2046.5C 1925.69,2044.96 1906.02,2037.79 1888.5,2025C 1872.14,2010.09 1865.81,1991.59 1869.5,1969.5C 1867.32,1969.72 1865.65,1968.88 1864.5,1967C 1846.41,1966.23 1828.41,1967.23 1810.5,1970C 1789.05,1973.02 1767.72,1976.69 1746.5,1981C 1727.53,1985.83 1708.53,1990.49 1689.5,1995C 1672.47,1995.91 1655.47,1997.25 1638.5,1999C 1620.06,2003.59 1601.72,2008.59 1583.5,2014C 1570.17,2015.29 1556.84,2015.12 1543.5,2013.5C 1540.99,2029.35 1533.66,2042.51 1521.5,2053C 1478.42,2086.53 1429.42,2102.36 1374.5,2100.5C 1338.23,2101.96 1303.23,2096.13 1269.5,2083C 1246.89,2073.72 1228.39,2059.22 1214,2039.5C 1204.21,2024.67 1199.87,2008.33 1201,1990.5C 1185.28,1993.7 1169.44,1996.53 1153.5,1999C 1136.39,1999.51 1119.39,2001.18 1102.5,2004C 1041.16,2015.72 979.49,2025.39 917.5,2033C 874.845,2035.95 832.178,2038.62 789.5,2041C 774.167,2044.67 758.833,2048.33 743.5,2052C 722.217,2054.75 700.884,2057.09 679.5,2059C 644.919,2067.85 609.919,2074.52 574.5,2079C 568.196,2079.87 561.862,2080.37 555.5,2080.5C 537.162,2079.63 518.829,2079.13 500.5,2079C 491.462,2098.07 479.462,2115.07 464.5,2130C 427.913,2155.21 387.913,2162.54 344.5,2152C 338.933,2150.22 333.599,2147.88 328.5,2145C 311.481,2133.65 295.981,2120.48 282,2105.5C 269.855,2088.87 261.188,2070.54 256,2050.5C 255.333,2024.17 255.333,1997.83 256,1971.5C 256.555,1961.17 259.889,1951.83 266,1943.5C 289.323,1917.12 317.823,1907.12 351.5,1913.5C 351.167,1914.17 350.833,1914.83 350.5,1915.5C 346.298,1915.02 342.131,1914.68 338,1914.5C 328.268,1917.41 318.768,1920.91 309.5,1925C 297.22,1933.56 286.053,1943.39 276,1954.5C 273.545,1958.53 271.879,1962.86 271,1967.5C 269.409,1993.8 269.076,2020.14 270,2046.5C 275.299,2066.43 284.299,2084.43 297,2100.5C 311.947,2116.12 329.114,2128.62 348.5,2138C 386.115,2147.01 421.115,2141.01 453.5,2120C 467.428,2107.95 477.761,2093.45 484.5,2076.5C 481.794,2076.42 479.127,2076.09 476.5,2075.5C 476.5,2074.17 476.5,2072.83 476.5,2071.5C 480.481,2070.98 484.481,2070.65 488.5,2070.5C 493.738,2052.82 494.904,2034.82 492,2016.5C 484.198,2000.35 473.031,1986.85 458.5,1976C 443.464,1964.81 427.464,1955.15 410.5,1947C 387.128,1938.94 363.128,1936.28 338.5,1939C 327.91,1943.09 319.576,1949.92 313.5,1959.5C 311.658,1975.86 309.658,1992.2 307.5,2008.5C 318.59,2010.13 329.59,2009.8 340.5,2007.5C 341.076,1994.46 341.91,1981.46 343,1968.5C 346.726,1961.43 351.392,1960.77 357,1966.5C 355.975,1978.76 355.475,1991.1 355.5,2003.5C 354.543,2022.14 356.376,2040.48 361,2058.5C 363.06,2063.62 365.393,2068.62 368,2073.5C 372.033,2077.87 376.366,2081.87 381,2085.5C 381.664,2088.18 380.997,2090.51 379,2092.5C 373.978,2094.08 369.145,2093.58 364.5,2091C 353.597,2080.03 346.764,2066.86 344,2051.5C 342.725,2041.87 341.725,2032.2 341,2022.5C 327.86,2023.91 314.693,2023.75 301.5,2022C 297.667,2020.83 295.167,2018.33 294,2014.5C 293.333,2007.83 293.333,2001.17 294,1994.5C 296.497,1982.2 298.497,1969.86 300,1957.5C 303.324,1955.42 306.824,1954.92 310.5,1956C 307.431,1950.15 307.931,1944.65 312,1939.5C 318.121,1932.52 325.621,1927.69 334.5,1925C 346.791,1923.46 359.124,1923.13 371.5,1924C 384.315,1925.5 396.982,1927.5 409.5,1930C 410.147,1924.73 411.98,1919.89 415,1915.5C 419.467,1910.03 424.3,1904.87 429.5,1900C 443.869,1888.81 457.869,1877.14 471.5,1865C 507.624,1828.2 544.957,1792.87 583.5,1759C 603.192,1740.32 621.025,1720.15 637,1698.5C 658.92,1675.31 677.92,1649.98 694,1622.5C 698.333,1617.5 702.667,1612.5 707,1607.5C 720.141,1587.69 734.808,1569.02 751,1551.5C 756,1544.5 761,1537.5 766,1530.5C 771.815,1525.26 777.815,1520.26 784,1515.5C 799.097,1497.73 814.931,1480.57 831.5,1464C 839.737,1457.44 848.737,1452.11 858.5,1448C 862.167,1445.17 865.833,1442.33 869.5,1439.5C 860.954,1433.96 853.788,1426.96 848,1418.5C 842.218,1406.49 837.218,1394.15 833,1381.5C 821.981,1332.23 835.148,1291.07 872.5,1258C 878.108,1254.96 884.108,1253.79 890.5,1254.5C 890.788,1247.44 890.288,1240.44 889,1233.5C 881.897,1201.18 869.897,1170.85 853,1142.5C 844.898,1130.63 837.564,1118.3 831,1105.5C 826.688,1092.92 822.688,1080.25 819,1067.5C 810.349,1049.53 801.683,1031.53 793,1013.5C 783.864,987.757 774.53,962.09 765,936.5C 760.606,926.711 755.939,917.045 751,907.5C 739.333,889.5 727.667,871.5 716,853.5C 699.122,822.743 684.122,791.076 671,758.5C 660.333,731.167 649.667,703.833 639,676.5C 631.083,662.326 622.416,648.66 613,635.5C 605.576,618.988 597.909,602.655 590,586.5C 553.907,595.575 517.74,595.742 481.5,587C 455.815,579.632 433.982,566.132 416,546.5C 404.277,531.796 399.11,514.962 400.5,496C 400.182,454.955 417.516,423.955 452.5,403C 464.832,396.36 477.998,393.86 492,395.5C 498.744,395.509 505.411,395.842 512,396.5C 522.604,390.896 533.77,387.562 545.5,386.5 Z M 552.5,400.5 C 577.86,398.601 602.526,401.768 626.5,410C 640.463,416.302 651.629,425.802 660,438.5C 669.271,465.959 666.604,492.292 652,517.5C 637.182,541.816 616.682,559.483 590.5,570.5C 589.914,570.291 589.414,569.957 589,569.5C 588.505,567.527 588.338,565.527 588.5,563.5C 587.325,563.281 586.325,563.614 585.5,564.5C 584.878,567.37 584.211,570.204 583.5,573C 575.364,575.634 567.03,577.301 558.5,578C 526.776,581.588 496.11,577.588 466.5,566C 449.021,558.187 434.521,546.687 423,531.5C 416.925,520.297 414.092,508.297 414.5,495.5C 414.864,457.585 431.864,430.085 465.5,413C 476.935,409.69 488.602,408.69 500.5,410C 499.2,415.727 501.2,420.061 506.5,423C 515.058,425.596 523.725,426.762 532.5,426.5C 529.394,424.443 526.061,422.61 522.5,421C 519.462,418.297 516.795,415.297 514.5,412C 526.294,405.055 538.96,401.221 552.5,400.5 Z M 679.5,479.5 C 712.316,503.748 744.982,528.248 777.5,553C 820.398,583.498 866.065,609.498 914.5,631C 978.282,657.724 1041.95,684.724 1105.5,712C 1148.03,726.399 1190.7,740.399 1233.5,754C 1268.27,763.554 1303.6,769.887 1339.5,773C 1343.21,778.009 1347.54,782.342 1352.5,786C 1367.66,792.216 1382.66,798.716 1397.5,805.5C 1379.86,825.433 1372.19,848.766 1374.5,875.5C 1373.44,893.162 1377.61,909.495 1387,924.5C 1390.04,929.419 1393.21,934.252 1396.5,939C 1389.92,939.842 1384.42,942.676 1380,947.5C 1371.41,963.677 1363.08,980.011 1355,996.5C 1341.83,1017.34 1327.5,1037.34 1312,1056.5C 1297.76,1072.65 1283.76,1088.98 1270,1105.5C 1243.7,1130.14 1217.7,1155.14 1192,1180.5C 1166.96,1208.54 1142.29,1236.87 1118,1265.5C 1111.67,1274.5 1105.33,1283.5 1099,1292.5C 1095.19,1299.87 1091.69,1307.2 1088.5,1314.5C 1097.17,1312.9 1104.34,1308.57 1110,1301.5C 1147.77,1251.04 1189.27,1203.54 1234.5,1159C 1256.63,1140.53 1277.13,1120.37 1296,1098.5C 1315.09,1076.08 1333.43,1053.08 1351,1029.5C 1365.58,1009.01 1377.58,987.006 1387,963.5C 1388.47,960.734 1390.3,958.234 1392.5,956C 1397.4,955.131 1401.9,953.298 1406,950.5C 1427.04,972.573 1452.87,982.573 1483.5,980.5C 1493.61,980.805 1503.61,979.972 1513.5,978C 1536.69,971.946 1558.36,962.612 1578.5,950C 1585.07,944.096 1590.91,937.596 1596,930.5C 1603.1,918.631 1609.93,906.631 1616.5,894.5C 1620.67,898.087 1625.33,900.92 1630.5,903C 1649.28,910.262 1668.28,916.928 1687.5,923C 1743.74,946.624 1798.74,972.624 1852.5,1001C 1873.66,1013.08 1894.66,1025.41 1915.5,1038C 1937.96,1053.46 1958.3,1071.46 1976.5,1092C 1990.5,1104.67 2004.5,1117.33 2018.5,1130C 2031.2,1138.36 2043.03,1147.86 2054,1158.5C 2057.12,1165.07 2061.45,1170.73 2067,1175.5C 2071.03,1182.88 2076.03,1189.55 2082,1195.5C 2089.59,1202.7 2097.43,1209.53 2105.5,1216C 2086.18,1215.95 2066.84,1215.78 2047.5,1215.5C 2031.78,1215.36 2016.12,1215.86 2000.5,1217C 1993.92,1221.85 1991.92,1228.18 1994.5,1236C 1978.77,1251.94 1966.94,1270.44 1959,1291.5C 1947.3,1291.78 1936.13,1289.28 1925.5,1284C 1875.5,1283.67 1825.5,1283.33 1775.5,1283C 1772.83,1282.67 1770.17,1282.33 1767.5,1282C 1755.75,1276.31 1743.41,1272.31 1730.5,1270C 1689.55,1261.85 1648.22,1259.18 1606.5,1262C 1560.6,1264.75 1514.93,1269.75 1469.5,1277C 1425.11,1286.41 1380.78,1296.08 1336.5,1306C 1283.71,1322.26 1231.04,1338.93 1178.5,1356C 1169.42,1359.14 1160.42,1362.47 1151.5,1366C 1137.48,1372.7 1123.48,1379.37 1109.5,1386C 1100.19,1388.45 1090.85,1390.45 1081.5,1392C 1082.66,1375.57 1082.82,1359.07 1082,1342.5C 1081.66,1338.44 1080.99,1334.44 1080,1330.5C 1067.59,1310.75 1051.76,1294.25 1032.5,1281C 1016.81,1273.99 1000.48,1268.99 983.5,1266C 958.301,1259.94 932.801,1257.11 907,1257.5C 902.621,1215.36 889.621,1176.03 868,1139.5C 860.333,1126.83 852.667,1114.17 845,1101.5C 840.723,1089.67 837.056,1077.67 834,1065.5C 824.606,1045.05 814.94,1024.71 805,1004.5C 796.12,977.859 786.454,951.526 776,925.5C 763.693,900.209 749.36,876.209 733,853.5C 719.691,830.55 707.691,806.883 697,782.5C 683.471,749.58 670.138,716.58 657,683.5C 651.92,673.673 646.587,664.006 641,654.5C 634.613,646.446 628.613,638.112 623,629.5C 615.31,613.953 607.477,598.453 599.5,583C 636.906,565.595 662.406,537.428 676,498.5C 677.585,492.231 678.752,485.898 679.5,479.5 Z M 1442.5,800.5 C 1469.84,800.333 1497.17,800.5 1524.5,801C 1551.5,800.667 1575.83,808.334 1597.5,824C 1602.46,828.954 1606.63,834.454 1610,840.5C 1612.94,862.07 1608.61,882.07 1597,900.5C 1589.48,915.364 1579.65,928.53 1567.5,940C 1545.98,952.4 1522.98,961.066 1498.5,966C 1452.96,971.649 1419.46,954.482 1398,914.5C 1394.94,907.993 1392.28,901.326 1390,894.5C 1389.08,878.787 1389.41,863.121 1391,847.5C 1394.87,833.926 1401.7,822.093 1411.5,812C 1416.72,812.738 1420.55,810.905 1423,806.5C 1425.23,810.229 1426.73,814.229 1427.5,818.5C 1428.5,818.5 1429.5,818.5 1430.5,818.5C 1430.34,816.801 1430.51,815.134 1431,813.5C 1433.91,810.678 1436.08,807.345 1437.5,803.5C 1439.14,802.304 1440.81,801.304 1442.5,800.5 Z M 2035.5,1229.5 C 2042.29,1229.2 2048.96,1229.87 2055.5,1231.5C 2055.5,1233.5 2055.5,1235.5 2055.5,1237.5C 2056.83,1237.5 2058.17,1237.5 2059.5,1237.5C 2058.63,1234.94 2058.63,1232.27 2059.5,1229.5C 2089.63,1228.47 2119.29,1231.64 2148.5,1239C 2165.2,1242.93 2179.37,1251.1 2191,1263.5C 2195.66,1274.81 2195.66,1286.15 2191,1297.5C 2173.5,1324.51 2155.5,1351.18 2137,1377.5C 2120.48,1395.85 2099.98,1407.69 2075.5,1413C 2069.56,1414.49 2063.56,1415.65 2057.5,1416.5C 2055.87,1416.12 2054.37,1415.46 2053,1414.5C 2051.51,1415.32 2050.01,1416.15 2048.5,1417C 2028.43,1418 2008.43,1417.33 1988.5,1415C 1986.62,1414.78 1984.95,1414.12 1983.5,1413C 1986.58,1410.71 1989.75,1408.54 1993,1406.5C 1995.24,1399.74 1992.74,1396.9 1985.5,1398C 1980.75,1401.37 1975.75,1404.21 1970.5,1406.5C 1967.32,1404.49 1964.82,1401.82 1963,1398.5C 1961.54,1381.24 1961.04,1363.9 1961.5,1346.5C 1967.98,1347.77 1971.98,1345.27 1973.5,1339C 1972.11,1333.77 1968.78,1331.61 1963.5,1332.5C 1967.57,1303.09 1979.07,1277.09 1998,1254.5C 1998.33,1257.17 1998.67,1259.83 1999,1262.5C 1999.89,1263.71 2000.73,1263.71 2001.5,1262.5C 2001.19,1257.86 2001.69,1253.19 2003,1248.5C 2010.35,1241.47 2018.52,1235.64 2027.5,1231C 2030.36,1230.82 2033.03,1230.32 2035.5,1229.5 Z M 854.5,1305.5 C 854.356,1310.76 855.689,1315.59 858.5,1320C 857.552,1320.48 856.552,1320.65 855.5,1320.5C 855.5,1321.5 855.5,1322.5 855.5,1323.5C 859.968,1323.59 864.301,1324.09 868.5,1325C 870.358,1323.02 872.691,1321.85 875.5,1321.5C 879.011,1318.11 879.344,1314.44 876.5,1310.5C 892.402,1303.68 909.068,1300.18 926.5,1300C 937.833,1299.33 949.167,1299.33 960.5,1300C 966.133,1299.88 970.966,1301.71 975,1305.5C 976.509,1308.33 976.675,1311.16 975.5,1314C 953.522,1321.33 931.522,1328.66 909.5,1336C 899.709,1341.65 899.043,1348.31 907.5,1356C 910.833,1357.67 914.167,1359.33 917.5,1361C 934.051,1366.07 950.717,1370.74 967.5,1375C 975.547,1377.53 983.214,1380.86 990.5,1385C 978.94,1387.19 967.273,1388.52 955.5,1389C 936.5,1389.33 917.5,1389.67 898.5,1390C 891.825,1393.37 890.825,1398.03 895.5,1404C 900.683,1406.81 906.016,1407.15 911.5,1405C 940.298,1404.72 968.965,1402.72 997.5,1399C 1009.83,1396.16 1012.67,1389.33 1006,1378.5C 997.026,1370.94 986.86,1365.44 975.5,1362C 957.975,1357.62 940.642,1352.62 923.5,1347C 944.016,1340.38 964.349,1333.38 984.5,1326C 989.27,1322.12 991.27,1317.12 990.5,1311C 989.562,1295.4 981.229,1287.06 965.5,1286C 950.167,1285.33 934.833,1285.33 919.5,1286C 903.469,1286.74 887.969,1289.91 873,1295.5C 874.35,1291.27 876.85,1287.6 880.5,1284.5C 888.598,1276.98 897.931,1273.15 908.5,1273C 946.526,1272.4 983.526,1278.4 1019.5,1291C 1036.83,1301.66 1051.66,1315.16 1064,1331.5C 1065.28,1333.72 1066.28,1336.05 1067,1338.5C 1067.67,1357.17 1067.67,1375.83 1067,1394.5C 1065.55,1402.2 1062.55,1409.2 1058,1415.5C 1051.4,1421.55 1044.9,1427.72 1038.5,1434C 1029.04,1439.93 1018.71,1443.26 1007.5,1444C 984.167,1444.67 960.833,1444.67 937.5,1444C 924.462,1443.59 911.796,1441.26 899.5,1437C 903.133,1435.63 906.467,1433.8 909.5,1431.5C 911.243,1427.78 910.576,1424.61 907.5,1422C 899.104,1420.86 891.771,1423.19 885.5,1429C 871.337,1424.85 861.504,1415.68 856,1401.5C 852.803,1393.58 849.803,1385.58 847,1377.5C 845,1359.5 845,1341.5 847,1323.5C 848.645,1317.05 851.145,1311.05 854.5,1305.5 Z M 1160.5,1704.5 C 1122.66,1728.42 1083,1749.26 1041.5,1767C 1018.44,1775.8 995.11,1783.8 971.5,1791C 942.132,1797.87 912.799,1804.87 883.5,1812C 849.924,1823.12 817.257,1836.46 785.5,1852C 753.881,1868.14 722.548,1884.81 691.5,1902C 643.015,1932.82 595.349,1964.82 548.5,1998C 539.661,2003.25 530.661,2008.25 521.5,2013C 516.979,2015.18 512.313,2016.51 507.5,2017C 500.83,1998.98 490.163,1983.64 475.5,1971C 458.028,1957.09 439.361,1944.92 419.5,1934.5C 422.345,1926.15 427.345,1919.31 434.5,1914C 450.416,1902.09 465.749,1889.42 480.5,1876C 523.76,1833.07 567.926,1791.24 613,1750.5C 637.377,1721.79 661.377,1692.79 685,1663.5C 694.167,1648 704.5,1633.34 716,1619.5C 729.759,1598.07 745.426,1578.07 763,1559.5C 769.901,1546.6 779.568,1536.27 792,1528.5C 807.239,1510.57 823.073,1493.07 839.5,1476C 847.004,1469.74 855.338,1464.74 864.5,1461C 871.268,1456.53 877.768,1451.7 884,1446.5C 899.018,1453.55 914.852,1457.38 931.5,1458C 958.5,1458.67 985.5,1458.67 1012.5,1458C 1024.33,1456.72 1035.33,1453.06 1045.5,1447C 1055.72,1438.11 1065.22,1428.61 1074,1418.5C 1075.93,1414.21 1077.76,1409.87 1079.5,1405.5C 1091.67,1404.3 1103.67,1402.13 1115.5,1399C 1128.01,1394.41 1140.01,1388.74 1151.5,1382C 1211.64,1360.46 1272.31,1340.46 1333.5,1322C 1388.5,1308.75 1443.84,1297.08 1499.5,1287C 1529.12,1283.2 1558.79,1279.86 1588.5,1277C 1620.17,1276.33 1651.83,1276.33 1683.5,1277C 1705.78,1279.92 1727.78,1284.26 1749.5,1290C 1756.04,1293.77 1763.04,1296.1 1770.5,1297C 1820.5,1297.33 1870.5,1297.67 1920.5,1298C 1931.43,1302.31 1942.76,1304.97 1954.5,1306C 1951.32,1315.92 1949.15,1326.08 1948,1336.5C 1946.83,1337.67 1945.67,1338.83 1944.5,1340C 1933.3,1343.73 1921.97,1347.06 1910.5,1350C 1867.11,1349.56 1825.11,1356.9 1784.5,1372C 1752.33,1389.59 1719.99,1406.92 1687.5,1424C 1657.73,1437.22 1627.73,1449.88 1597.5,1462C 1561.5,1482 1525.5,1502 1489.5,1522C 1460.46,1539.52 1432.46,1558.52 1405.5,1579C 1389.09,1588.21 1372.42,1596.87 1355.5,1605C 1338,1615.92 1320.33,1626.58 1302.5,1637C 1266.2,1654.82 1229.53,1671.49 1192.5,1687C 1196.56,1675.98 1193.22,1667.98 1182.5,1663C 1179.5,1662 1176.5,1661 1173.5,1660C 1159.83,1658.14 1146.16,1656.3 1132.5,1654.5C 1145.34,1645.57 1157.67,1635.9 1169.5,1625.5C 1173.26,1622.18 1174.26,1618.18 1172.5,1613.5C 1163.5,1612.17 1154.5,1612.33 1145.5,1614C 1126.65,1619.57 1110.65,1629.41 1097.5,1643.5C 1097.83,1644.5 1098.5,1645.17 1099.5,1645.5C 1110.51,1637.34 1122.17,1630.18 1134.5,1624C 1144.31,1618.92 1154.64,1617.09 1165.5,1618.5C 1163.17,1620.33 1160.83,1622.17 1158.5,1624C 1143.51,1631.49 1128.85,1639.49 1114.5,1648C 1106.99,1656.1 1108.32,1662.43 1118.5,1667C 1136.73,1670.05 1155.06,1672.38 1173.5,1674C 1176.94,1674.22 1179.61,1675.72 1181.5,1678.5C 1178.35,1682.25 1174.35,1684.75 1169.5,1686C 1156.21,1690.59 1142.54,1693.26 1128.5,1694C 1113.17,1694.33 1097.83,1694.67 1082.5,1695C 1078.3,1697.98 1077.47,1701.81 1080,1706.5C 1080.75,1707.13 1081.58,1707.63 1082.5,1708C 1108.65,1709.5 1134.65,1708.33 1160.5,1704.5 Z M 1704.5,1664.5 C 1706.53,1659.83 1705.53,1656 1701.5,1653C 1698.14,1651.32 1694.8,1649.65 1691.5,1648C 1680.36,1645.13 1669.36,1641.8 1658.5,1638C 1656.78,1637.48 1655.44,1636.48 1654.5,1635C 1657.21,1629.62 1660.71,1624.78 1665,1620.5C 1672.31,1613.19 1679.64,1605.86 1687,1598.5C 1697.14,1576.54 1690.64,1568.37 1667.5,1574C 1652.04,1577.81 1637.87,1584.31 1625,1593.5C 1622.3,1598.09 1623.46,1600.76 1628.5,1601.5C 1628.33,1600.18 1628.66,1599.01 1629.5,1598C 1642.13,1589.72 1655.8,1583.72 1670.5,1580C 1674.49,1579.5 1678.49,1579.33 1682.5,1579.5C 1683.17,1584.98 1682.01,1589.98 1679,1594.5C 1671.06,1603.77 1661.89,1611.61 1651.5,1618C 1647.96,1621.2 1644.8,1624.7 1642,1628.5C 1641.33,1633.17 1641.33,1637.83 1642,1642.5C 1648.46,1648.22 1655.96,1652.05 1664.5,1654C 1671.09,1655.98 1677.75,1657.65 1684.5,1659C 1653.83,1659.33 1623.17,1659.67 1592.5,1660C 1585.83,1664.33 1585.83,1668.67 1592.5,1673C 1620.5,1673.67 1648.5,1673.67 1676.5,1673C 1684.8,1672.21 1692.8,1670.54 1700.5,1668C 1681.16,1686.86 1663.32,1707.03 1647,1728.5C 1635.4,1740.89 1623.23,1752.72 1610.5,1764C 1595.5,1775 1580.5,1786 1565.5,1797C 1544.32,1808.75 1523.99,1821.75 1504.5,1836C 1501.63,1838.54 1499.13,1841.37 1497,1844.5C 1493.15,1854.53 1488.48,1864.2 1483,1873.5C 1473.75,1884.03 1463.25,1893.03 1451.5,1900.5C 1428.34,1893.53 1404.68,1889.36 1380.5,1888C 1364.16,1887.34 1347.83,1887.01 1331.5,1887C 1311.82,1888.13 1302.66,1898.63 1304,1918.5C 1296.98,1926.54 1292.65,1935.88 1291,1946.5C 1289.11,1961.85 1289.11,1977.18 1291,1992.5C 1296.08,2010.59 1307.25,2023.42 1324.5,2031C 1340.61,2037.1 1357.28,2039.6 1374.5,2038.5C 1391.77,2040.46 1407.77,2036.96 1422.5,2028C 1429.96,2023.26 1432.46,2016.76 1430,2008.5C 1425.79,2003.39 1420.29,2000.89 1413.5,2001C 1393.83,2000.33 1374.17,2000.33 1354.5,2001C 1346.19,2001.77 1338.19,2003.77 1330.5,2007C 1327.69,2008.64 1325.36,2010.81 1323.5,2013.5C 1311.9,2006.4 1305.4,1996.06 1304,1982.5C 1303.18,1970.08 1303.85,1957.75 1306,1945.5C 1307.65,1939.36 1310.49,1933.86 1314.5,1929C 1318.74,1927.84 1323.08,1927.01 1327.5,1926.5C 1328.17,1926.83 1328.83,1927.17 1329.5,1927.5C 1330.23,1930.11 1330.73,1932.78 1331,1935.5C 1331.41,1935.96 1331.91,1936.29 1332.5,1936.5C 1335.04,1931.15 1335.87,1925.48 1335,1919.5C 1334.29,1917.92 1333.46,1916.42 1332.5,1915C 1327.61,1913.43 1322.61,1912.26 1317.5,1911.5C 1318.64,1908.05 1320.64,1905.22 1323.5,1903C 1373,1898.02 1421,1904.36 1467.5,1922C 1491.05,1931.23 1510.22,1946.06 1525,1966.5C 1532.94,1984.17 1533.61,2002.17 1527,2020.5C 1521.37,2032.8 1512.87,2042.63 1501.5,2050C 1452.7,2081.43 1399.37,2093.1 1341.5,2085C 1312.06,2083.06 1284.4,2075.06 1258.5,2061C 1242.28,2051.78 1229.78,2038.95 1221,2022.5C 1213.83,2000.81 1214.16,1979.14 1222,1957.5C 1229.18,1940.14 1238.18,1923.8 1249,1908.5C 1264.2,1887.3 1281.53,1867.97 1301,1850.5C 1301.72,1848.89 1301.55,1847.39 1300.5,1846C 1294.69,1842.68 1289.03,1843.02 1283.5,1847C 1255.13,1873.6 1231.96,1904.1 1214,1938.5C 1208.52,1949.94 1204.85,1961.94 1203,1974.5C 1185.04,1978.76 1166.87,1982.26 1148.5,1985C 1131.39,1985.51 1114.39,1987.18 1097.5,1990C 1039.1,2001.07 980.438,2010.4 921.5,2018C 875.864,2021.51 830.198,2024.51 784.5,2027C 767.536,2031.16 750.536,2035.16 733.5,2039C 712.131,2041.03 690.798,2043.37 669.5,2046C 633.18,2055.05 596.513,2062.39 559.5,2068C 540.835,2069.21 522.168,2069.87 503.5,2070C 505.365,2065.71 506.531,2061.21 507,2056.5C 507.921,2047.19 508.421,2037.85 508.5,2028.5C 513.248,2028.73 517.915,2028.23 522.5,2027C 533.939,2022.11 544.939,2016.45 555.5,2010C 600.489,1979.17 645.822,1948.84 691.5,1919C 743.05,1888.79 796.384,1862.12 851.5,1839C 863.682,1834.27 876.016,1829.94 888.5,1826C 916.417,1819.02 944.417,1812.35 972.5,1806C 1015.38,1793.93 1056.72,1777.93 1096.5,1758C 1125.83,1741.33 1155.17,1724.67 1184.5,1708C 1225.62,1689.27 1266.62,1670.27 1307.5,1651C 1327.1,1639.73 1346.43,1628.06 1365.5,1616C 1398.1,1601.71 1428.1,1583.38 1455.5,1561C 1468.5,1552.67 1481.5,1544.33 1494.5,1536C 1532.5,1515 1570.5,1494 1608.5,1473C 1638.08,1461.25 1667.41,1448.92 1696.5,1436C 1728.33,1419.25 1759.99,1402.25 1791.5,1385C 1831.57,1370.66 1872.9,1363.66 1915.5,1364C 1926.03,1361.4 1936.37,1358.23 1946.5,1354.5C 1946.1,1369.88 1946.6,1385.21 1948,1400.5C 1949.23,1404.06 1950.89,1407.39 1953,1410.5C 1955.68,1413.02 1958.18,1415.68 1960.5,1418.5C 1945.49,1432.34 1931.66,1447.34 1919,1463.5C 1910.62,1476.25 1903.29,1489.59 1897,1503.5C 1887.62,1513.87 1878.62,1524.54 1870,1535.5C 1860.48,1546.02 1850.64,1556.19 1840.5,1566C 1815.25,1585.24 1790.59,1605.24 1766.5,1626C 1754.82,1632.84 1742.82,1639.18 1730.5,1645C 1721.39,1650.95 1712.72,1657.45 1704.5,1664.5 Z M 1971.5,1424.5 C 1977.08,1427.56 1983.08,1429.4 1989.5,1430C 2008.47,1431.32 2027.47,1431.82 2046.5,1431.5C 2043.11,1446.17 2039.61,1460.83 2036,1475.5C 2029.73,1524.34 2025.4,1573.34 2023,1622.5C 2019.8,1640.85 2016.46,1659.19 2013,1677.5C 2011.86,1703.15 2011.19,1728.82 2011,1754.5C 2010.48,1759.85 2009.81,1765.19 2009,1770.5C 2006.14,1778.76 2003.47,1787.09 2001,1795.5C 2000.17,1804.82 1999.5,1814.15 1999,1823.5C 1993.96,1841.49 1991.79,1859.82 1992.5,1878.5C 1963.04,1875.92 1934.7,1880.26 1907.5,1891.5C 1901.53,1887.59 1895.53,1887.59 1889.5,1891.5C 1885.91,1895.67 1883.08,1900.33 1881,1905.5C 1862.28,1915.27 1854.45,1930.6 1857.5,1951.5C 1799.12,1955.17 1741.79,1965.01 1685.5,1981C 1668.13,1981.86 1650.79,1983.19 1633.5,1985C 1614.27,1989.86 1595.27,1995.52 1576.5,2002C 1566.54,2003.66 1556.54,2004.83 1546.5,2005.5C 1546.05,1994.07 1544.89,1982.74 1543,1971.5C 1539.96,1963.09 1535.63,1955.42 1530,1948.5C 1510.57,1927.19 1487.07,1912.02 1459.5,1903C 1481.01,1891.49 1496.18,1874.32 1505,1851.5C 1506.81,1848.72 1508.98,1846.22 1511.5,1844C 1533.49,1828.67 1556.16,1814.33 1579.5,1801C 1596.73,1789.1 1613.4,1776.43 1629.5,1763C 1640.67,1752.16 1651.5,1741 1662,1729.5C 1683.94,1697.23 1711.44,1670.73 1744.5,1650C 1753.64,1646.62 1762.31,1642.29 1770.5,1637C 1797.32,1615.09 1824.32,1593.43 1851.5,1572C 1872.45,1550.05 1892.29,1527.22 1911,1503.5C 1917.47,1489.39 1925.13,1476.06 1934,1463.5C 1945.67,1449.67 1958.17,1436.67 1971.5,1424.5 Z M 1950.5,1893.5 C 1996.24,1884.58 2034.08,1897.58 2064,1932.5C 2074.9,1969.05 2066.4,2000.22 2038.5,2026C 2032.6,2030.62 2025.93,2033.62 2018.5,2035C 1999.82,2035.74 1981.15,2035.57 1962.5,2034.5C 1962.17,2025.42 1962.84,2016.42 1964.5,2007.5C 1973.82,2006.29 1983.15,2005.12 1992.5,2004C 1999.17,1999.67 1999.17,1995.33 1992.5,1991C 1984.29,1990.73 1976.12,1991.23 1968,1992.5C 1967.5,1992.17 1967,1991.83 1966.5,1991.5C 1969.82,1979.89 1972.99,1968.22 1976,1956.5C 1976.67,1949.83 1976.67,1943.17 1976,1936.5C 1972.06,1929.28 1965.89,1925.78 1957.5,1926C 1940.82,1925.48 1924.15,1925.82 1907.5,1927C 1905.5,1928 1903.5,1929 1901.5,1930C 1900.24,1931.81 1900.24,1933.65 1901.5,1935.5C 1904.83,1937.72 1908.49,1938.89 1912.5,1939C 1928.88,1939.18 1945.21,1939.68 1961.5,1940.5C 1962.66,1944.12 1962.83,1947.79 1962,1951.5C 1958.18,1965.77 1954.68,1980.11 1951.5,1994.5C 1939.89,1996.28 1928.39,1998.28 1917,2000.5C 1914.47,2005.19 1915.3,2009.02 1919.5,2012C 1929.15,2012.89 1938.65,2012.06 1948,2009.5C 1948.5,2009.83 1949,2010.17 1949.5,2010.5C 1948.66,2017.47 1947.99,2024.47 1947.5,2031.5C 1924.78,2030.44 1905.61,2021.77 1890,2005.5C 1886.82,2000.64 1884.82,1995.31 1884,1989.5C 1883.5,1981.84 1883.33,1974.17 1883.5,1966.5C 1895.16,1965.67 1906.83,1964.83 1918.5,1964C 1921.44,1963.06 1922.78,1961.06 1922.5,1958C 1922.59,1955.19 1921.59,1952.85 1919.5,1951C 1912.44,1946.37 1905.44,1946.37 1898.5,1951C 1893.82,1951.43 1889.15,1951.93 1884.5,1952.5C 1885.04,1943.02 1886.54,1933.69 1889,1924.5C 1889.78,1921.49 1890.95,1918.65 1892.5,1916C 1910.65,1905.23 1929.98,1897.73 1950.5,1893.5 Z M 1358.5,2014.5 C 1376.88,2014.07 1395.21,2014.57 1413.5,2016C 1401.46,2022.9 1388.46,2025.73 1374.5,2024.5C 1366.46,2024.5 1358.46,2024 1350.5,2023C 1353.45,2022.9 1356.12,2022.07 1358.5,2020.5C 1354.89,2019.18 1351.23,2018.01 1347.5,2017C 1351.35,2016.37 1355.01,2015.53 1358.5,2014.5 Z"/></g>
<g><path style="opacity:0.833" fill="#000000" d="M 530.5,437.5 C 533.617,437.642 536.117,438.976 538,441.5C 538.816,468.507 539.816,495.507 541,522.5C 541.227,527.897 541.894,533.231 543,538.5C 543.374,539.416 543.874,540.25 544.5,541C 548.506,541.112 552.173,542.278 555.5,544.5C 556.748,543.96 557.915,543.293 559,542.5C 559.692,543.025 560.192,543.692 560.5,544.5C 554.69,556.247 546.023,558.747 534.5,552C 530.87,548.238 528.703,543.738 528,538.5C 525.474,506.878 524.474,475.212 525,443.5C 526.021,440.65 527.854,438.65 530.5,437.5 Z"/></g>
<g><path style="opacity:0.831" fill="#000000" d="M 1048.5,576.5 C 1052.64,575.704 1055.81,577.037 1058,580.5C 1058.67,584.167 1058.67,587.833 1058,591.5C 1056.75,595.249 1055.92,599.083 1055.5,603C 1055.3,605.352 1055.97,607.352 1057.5,609C 1069.85,614.627 1082.85,617.127 1096.5,616.5C 1096.97,603.771 1097.47,591.104 1098,578.5C 1100.21,577.251 1102.38,577.418 1104.5,579C 1108.6,585.903 1110.94,593.403 1111.5,601.5C 1110.24,605.153 1110.24,608.82 1111.5,612.5C 1117.93,617.397 1117.93,622.397 1111.5,627.5C 1110.5,640.817 1110.17,654.15 1110.5,667.5C 1111.68,667.281 1112.68,667.614 1113.5,668.5C 1112.47,671.794 1110.81,674.627 1108.5,677C 1103.27,679.31 1099.44,677.81 1097,672.5C 1096.5,658.504 1096.33,644.504 1096.5,630.5C 1082.79,631.181 1069.45,629.348 1056.5,625C 1042.78,619.227 1037.95,609.061 1042,594.5C 1043.41,590.261 1044.41,585.928 1045,581.5C 1046,579.677 1047.16,578.01 1048.5,576.5 Z"/></g>
<g><path style="opacity:0.837" fill="#000000" d="M 1475.5,812.5 C 1483.87,812.377 1492.2,812.877 1500.5,814C 1506.84,815.675 1511.34,819.508 1514,825.5C 1519.53,842.765 1517.53,859.099 1508,874.5C 1496.6,891.068 1483.44,906.235 1468.5,920C 1478.61,917.378 1488.95,915.378 1499.5,914C 1515.99,912.934 1532.49,912.1 1549,911.5C 1554.03,911.322 1558.86,912.155 1563.5,914C 1569.38,919.979 1568.38,924.479 1560.5,927.5C 1533.95,925.255 1507.62,926.755 1481.5,932C 1472.92,934.646 1464.25,936.979 1455.5,939C 1450.83,939.667 1446.17,939.667 1441.5,939C 1438.63,937.607 1437.3,935.274 1437.5,932C 1437.54,930.033 1438.04,928.199 1439,926.5C 1461.8,909.031 1481.14,888.364 1497,864.5C 1503.36,853.705 1504.69,842.372 1501,830.5C 1499.68,828.513 1497.85,827.346 1495.5,827C 1486.83,826.333 1478.17,826.333 1469.5,827C 1455.27,829.637 1441.1,832.47 1427,835.5C 1417.26,835.524 1416.1,832.357 1423.5,826C 1440.04,818.034 1457.37,813.534 1475.5,812.5 Z"/></g>
<g><path style="opacity:0.807" fill="#000000" d="M 1758.5,848.5 C 1774.1,848.103 1789.77,848.603 1805.5,850C 1813.8,850.733 1820.63,854.233 1826,860.5C 1829.93,871.454 1827.43,880.62 1818.5,888C 1830.17,888.333 1841.83,888.667 1853.5,889C 1862.33,893.205 1862.67,897.871 1854.5,903C 1830.5,903.667 1806.5,903.667 1782.5,903C 1777.31,900.087 1776.14,895.92 1779,890.5C 1792.02,886.94 1804.02,881.273 1815,873.5C 1817.53,869.4 1816.69,866.233 1812.5,864C 1808.2,862.842 1803.87,861.842 1799.5,861C 1785.5,860.667 1771.5,860.333 1757.5,860C 1754.63,855.783 1754.96,851.95 1758.5,848.5 Z"/></g>
<g><path style="opacity:0.844" fill="#000000" d="M 704.5,955.5 C 706.5,955.5 708.5,955.5 710.5,955.5C 711.031,958.237 711.864,960.904 713,963.5C 713.333,992.833 713.667,1022.17 714,1051.5C 715.862,1054.21 718.362,1055.87 721.5,1056.5C 719.788,1065.86 714.455,1068.69 705.5,1065C 702.246,1062.66 700.412,1059.49 700,1055.5C 699.333,1024.83 699.333,994.167 700,963.5C 700.738,960.352 702.238,957.685 704.5,955.5 Z"/></g>
<g><path style="opacity:0.814" fill="#000000" d="M 1208.5,1006.5 C 1219.23,1006.1 1229.9,1006.6 1240.5,1008C 1245.1,1011.27 1247.1,1015.77 1246.5,1021.5C 1246.55,1027.52 1244.71,1032.86 1241,1037.5C 1230.55,1046.32 1220.38,1055.48 1210.5,1065C 1225.78,1066.6 1241.11,1066.94 1256.5,1066C 1264.96,1065.21 1273.29,1063.71 1281.5,1061.5C 1286.5,1062.23 1291.5,1062.9 1296.5,1063.5C 1294.7,1068.56 1291.37,1072.39 1286.5,1075C 1281.25,1076.65 1275.91,1077.98 1270.5,1079C 1250.2,1080.57 1229.86,1080.9 1209.5,1080C 1195.88,1079.08 1191.05,1072.25 1195,1059.5C 1203.2,1051.65 1212.37,1045.15 1222.5,1040C 1225.05,1037.15 1227.89,1034.65 1231,1032.5C 1234.91,1027.91 1236.41,1022.58 1235.5,1016.5C 1223.18,1015.7 1210.85,1015.87 1198.5,1017C 1196.29,1017.17 1194.29,1017.84 1192.5,1019C 1196.52,1021.26 1200.86,1022.76 1205.5,1023.5C 1196.97,1026.23 1189.13,1024.89 1182,1019.5C 1180.42,1014.4 1182.25,1011.24 1187.5,1010C 1194.61,1008.59 1201.61,1007.43 1208.5,1006.5 Z"/></g>
<g><path style="opacity:0.812" fill="#000000" d="M 1462.5,1180.5 C 1467.18,1180.33 1471.85,1180.5 1476.5,1181C 1478,1181.83 1479.17,1183 1480,1184.5C 1482.8,1198.05 1477.97,1207.88 1465.5,1214C 1471.5,1214.33 1477.5,1214.67 1483.5,1215C 1496.82,1221.08 1500.65,1230.92 1495,1244.5C 1493.44,1246.36 1491.61,1247.86 1489.5,1249C 1467.48,1256.56 1444.81,1260.89 1421.5,1262C 1421,1262.5 1420.5,1263 1420,1263.5C 1416.76,1263.67 1413.42,1263.34 1410,1262.5C 1405.86,1256.47 1407.03,1251.63 1413.5,1248C 1437.35,1247.36 1460.52,1243.19 1483,1235.5C 1484.14,1232.47 1483.31,1230.31 1480.5,1229C 1466.83,1228.67 1453.17,1228.33 1439.5,1228C 1434.55,1225.24 1433.39,1221.41 1436,1216.5C 1444.25,1210.96 1452.75,1205.79 1461.5,1201C 1464.75,1198.92 1467.08,1196.09 1468.5,1192.5C 1468,1192.17 1467.5,1191.83 1467,1191.5C 1447.96,1197.4 1428.79,1202.9 1409.5,1208C 1406.77,1209.69 1403.94,1211.19 1401,1212.5C 1400.38,1216.61 1399.38,1220.61 1398,1224.5C 1392.29,1216.24 1393.46,1209.07 1401.5,1203C 1421.22,1193.6 1441.55,1186.1 1462.5,1180.5 Z"/></g>
<g><path style="opacity:0.833" fill="#000000" d="M 2014.5,1279.5 C 2046.84,1279.43 2079.18,1279.93 2111.5,1281C 2115.62,1281.14 2119.62,1281.81 2123.5,1283C 2126.6,1287.73 2125.93,1291.73 2121.5,1295C 2090.51,1294.69 2059.51,1294.19 2028.5,1293.5C 2024.19,1303.44 2019.36,1313.11 2014,1322.5C 2013.17,1327.59 2013.51,1332.59 2015,1337.5C 2018.81,1341.65 2022.98,1345.48 2027.5,1349C 2039.04,1355.27 2050.71,1361.27 2062.5,1367C 2068.5,1373.67 2067.5,1379 2059.5,1383C 2034.01,1388 2008.34,1391.83 1982.5,1394.5C 1973.79,1393.08 1971.46,1388.42 1975.5,1380.5C 1981.19,1375.8 1986.86,1371.14 1992.5,1366.5C 1993.61,1367.72 1993.78,1369.06 1993,1370.5C 1989.54,1373.04 1988.2,1376.04 1989,1379.5C 2005.32,1377.69 2021.48,1375.02 2037.5,1371.5C 2024.8,1365.63 2013.63,1357.63 2004,1347.5C 2002.39,1344.62 2001.06,1341.62 2000,1338.5C 1997.83,1326.37 1999.83,1315.03 2006,1304.5C 2009.02,1300.98 2011.86,1297.31 2014.5,1293.5C 2009.19,1288.75 2009.19,1284.08 2014.5,1279.5 Z"/></g>
<g><path style="opacity:0.819" fill="#000000" d="M 2122.5,1570.5 C 2129.46,1569.15 2133.79,1571.82 2135.5,1578.5C 2133.03,1581.19 2130.86,1584.19 2129,1587.5C 2125.86,1600.68 2123.7,1614.02 2122.5,1627.5C 2128.06,1628.97 2133.72,1629.97 2139.5,1630.5C 2139.55,1633.29 2138.21,1635.13 2135.5,1636C 2131.09,1638.37 2126.43,1639.87 2121.5,1640.5C 2121.2,1657.69 2121.53,1674.86 2122.5,1692C 2121.93,1696.07 2119.6,1698.23 2115.5,1698.5C 2110.13,1697.96 2107.3,1694.96 2107,1689.5C 2106.23,1673.14 2106.39,1656.81 2107.5,1640.5C 2098.11,1640.85 2088.78,1640.35 2079.5,1639C 2070.34,1636.84 2063.51,1631.68 2059,1623.5C 2057.82,1610.56 2059.99,1598.23 2065.5,1586.5C 2068.49,1582.84 2072.15,1581.84 2076.5,1583.5C 2077.75,1586.92 2076.42,1588.25 2072.5,1587.5C 2071.76,1590.97 2071.09,1594.47 2070.5,1598C 2071.75,1605.15 2072.75,1612.32 2073.5,1619.5C 2076.61,1622.38 2080.28,1624.21 2084.5,1625C 2092.44,1626.32 2100.44,1626.82 2108.5,1626.5C 2109.46,1609.84 2112.3,1593.51 2117,1577.5C 2117.97,1574.38 2119.8,1572.05 2122.5,1570.5 Z"/></g>
<g><path style="opacity:0.83" fill="#000000" d="M 768.5,1603.5 C 770.857,1603.34 773.19,1603.5 775.5,1604C 776.817,1605.66 778.483,1606.83 780.5,1607.5C 781.429,1608.69 781.762,1610.02 781.5,1611.5C 780.178,1611.33 779.011,1611.66 778,1612.5C 776.577,1628.78 776.077,1645.12 776.5,1661.5C 782.178,1660.92 787.845,1660.25 793.5,1659.5C 793.617,1670.72 787.95,1676.38 776.5,1676.5C 774.951,1688.64 778.451,1698.97 787,1707.5C 788.896,1714.11 786.396,1717.44 779.5,1717.5C 771.238,1713.35 766.072,1706.68 764,1697.5C 762.878,1690.55 762.211,1683.55 762,1676.5C 748.7,1674.36 739.033,1667.36 733,1655.5C 732.333,1645.5 732.333,1635.5 733,1625.5C 733.073,1620.02 735.573,1616.35 740.5,1614.5C 743.564,1615.18 745.064,1617.18 745,1620.5C 745.917,1631.53 746.917,1642.53 748,1653.5C 751.623,1657.56 756.123,1659.89 761.5,1660.5C 761.437,1644.48 761.937,1628.48 763,1612.5C 763.858,1608.76 765.691,1605.76 768.5,1603.5 Z"/></g>
<g><path style="opacity:0.828" fill="#000000" d="M 1671.5,1856.5 C 1676.48,1855.49 1679.81,1857.32 1681.5,1862C 1679.62,1868.06 1678.79,1874.23 1679,1880.5C 1699.43,1879.34 1719.93,1879.17 1740.5,1880C 1744.12,1882.16 1745.29,1885.33 1744,1889.5C 1743.5,1891.33 1742.33,1892.5 1740.5,1893C 1719.83,1893.17 1699.16,1893.67 1678.5,1894.5C 1680.64,1898.48 1683.64,1901.64 1687.5,1904C 1700.58,1913.29 1713.75,1922.46 1727,1931.5C 1729.5,1936.65 1728.67,1941.15 1724.5,1945C 1702.91,1953.25 1680.58,1957.25 1657.5,1957C 1653.88,1954.84 1652.71,1951.67 1654,1947.5C 1655.8,1945.17 1657.97,1943.17 1660.5,1941.5C 1663.57,1943.46 1666.9,1943.96 1670.5,1943C 1683.03,1941.23 1695.36,1938.56 1707.5,1935C 1694.97,1926.9 1682.97,1918.07 1671.5,1908.5C 1667.13,1904.08 1664.63,1898.75 1664,1892.5C 1658.21,1889.05 1658.04,1885.38 1663.5,1881.5C 1664.42,1874.38 1665.92,1867.38 1668,1860.5C 1668.69,1858.65 1669.86,1857.32 1671.5,1856.5 Z"/></g>
<g><path style="opacity:0.846" fill="#000000" d="M 843.5,2052.5 C 845.527,2052.34 847.527,2052.5 849.5,2053C 850.516,2053.52 851.182,2054.35 851.5,2055.5C 850.795,2059.32 849.629,2062.99 848,2066.5C 842.41,2077.35 837.077,2088.35 832,2099.5C 829.954,2107.05 829.287,2114.72 830,2122.5C 835.703,2119.27 841.869,2117.77 848.5,2118C 866.516,2116.32 884.183,2117.99 901.5,2123C 915.556,2128.59 919.389,2138.09 913,2151.5C 910.222,2154.81 906.722,2156.97 902.5,2158C 884.432,2159.01 866.432,2158.51 848.5,2156.5C 848.5,2157.5 848.5,2158.5 848.5,2159.5C 834.175,2165.92 824.008,2161.92 818,2147.5C 817.24,2143.77 817.407,2140.11 818.5,2136.5C 817.208,2134.33 816.375,2132 816,2129.5C 814.747,2116.96 815.747,2104.63 819,2092.5C 824.219,2080.39 830.219,2068.73 837,2057.5C 838.603,2054.96 840.769,2053.3 843.5,2052.5 Z M 842.5,2132.5 C 855.504,2132.33 868.504,2132.5 881.5,2133C 886.658,2133.72 891.658,2135.05 896.5,2137C 903.55,2139.29 903.883,2141.62 897.5,2144C 883.796,2144.86 870.129,2144.53 856.5,2143C 849.561,2141.97 843.227,2139.47 837.5,2135.5C 839.145,2134.3 840.811,2133.3 842.5,2132.5 Z"/></g>
<g><path style="opacity:0.825" fill="#000000" d="M 2098.5,2147.5 C 2105.07,2147.89 2109.57,2151.22 2112,2157.5C 2113.01,2159.02 2113.51,2160.69 2113.5,2162.5C 2111.53,2162.74 2109.7,2162.41 2108,2161.5C 2103.93,2196.1 2107.93,2229.77 2120,2262.5C 2126.41,2264.37 2128.57,2268.37 2126.5,2274.5C 2120.69,2278.75 2115.19,2278.42 2110,2273.5C 2105.89,2277.61 2101.72,2281.78 2097.5,2286C 2090.7,2289.08 2083.54,2290.58 2076,2290.5C 2061.84,2291.14 2048.67,2287.97 2036.5,2281C 2033.12,2277.73 2030.62,2273.9 2029,2269.5C 2025.65,2251.19 2031.49,2236.69 2046.5,2226C 2053.75,2220.71 2061.75,2217.04 2070.5,2215C 2075.29,2214.12 2079.95,2214.45 2084.5,2216C 2090.04,2220.38 2089.71,2224.05 2083.5,2227C 2069.07,2228.8 2056.91,2234.96 2047,2245.5C 2042.58,2252.42 2041.58,2259.75 2044,2267.5C 2047.52,2270.84 2051.69,2273.01 2056.5,2274C 2069.49,2275.95 2082.49,2275.95 2095.5,2274C 2099.05,2272.7 2102.55,2271.2 2106,2269.5C 2094.02,2233.21 2089.69,2195.88 2093,2157.5C 2093.56,2153.37 2095.39,2150.04 2098.5,2147.5 Z"/></g>
<g><path style="opacity:0.843" fill="#000000" d="M 1886.5,2191.5 C 1901.92,2189.41 1915.42,2193.41 1927,2203.5C 1927.49,2205.13 1927.66,2206.8 1927.5,2208.5C 1923.61,2207.06 1919.61,2205.89 1915.5,2205C 1908.51,2204.5 1901.51,2204.33 1894.5,2204.5C 1893.61,2218.48 1893.28,2232.48 1893.5,2246.5C 1903.72,2246.47 1913.72,2244.97 1923.5,2242C 1927.79,2235.52 1933.79,2232.19 1941.5,2232C 1939.46,2220.65 1944.13,2216.65 1955.5,2220C 1965.35,2225.53 1972.02,2233.69 1975.5,2244.5C 1978.28,2234.58 1983.61,2226.41 1991.5,2220C 1996.61,2218.89 2001.28,2219.89 2005.5,2223C 2016.61,2231.39 2021.61,2242.56 2020.5,2256.5C 2020.63,2265.94 2018.79,2274.94 2015,2283.5C 2013.4,2286.22 2011.24,2288.39 2008.5,2290C 1999.57,2292.43 1990.91,2291.76 1982.5,2288C 1976.56,2283.27 1974.06,2277.1 1975,2269.5C 1969.04,2294.24 1953.87,2302.4 1929.5,2294C 1924.33,2291.5 1920.5,2287.67 1918,2282.5C 1917.67,2274.5 1917.33,2266.5 1917,2258.5C 1909.25,2259.79 1901.42,2260.79 1893.5,2261.5C 1894.45,2269.18 1895.61,2276.84 1897,2284.5C 1898.67,2286.17 1899.5,2288.17 1899.5,2290.5C 1893.31,2292.01 1888.81,2290.01 1886,2284.5C 1882.89,2276.81 1881.39,2268.81 1881.5,2260.5C 1873.38,2260.65 1865.38,2259.82 1857.5,2258C 1852.46,2254.99 1851.3,2250.82 1854,2245.5C 1854.9,2244.3 1856.07,2243.47 1857.5,2243C 1865.52,2243.44 1873.52,2243.27 1881.5,2242.5C 1881.47,2227.81 1881.3,2213.15 1881,2198.5C 1881.97,2195.38 1883.8,2193.05 1886.5,2191.5 Z M 1995.5,2237.5 C 2000.3,2238.13 2003.47,2240.8 2005,2245.5C 2005.67,2253.17 2005.67,2260.83 2005,2268.5C 2003.08,2277.99 1998.08,2279.99 1990,2274.5C 1989.33,2265.83 1989.33,2257.17 1990,2248.5C 1990.8,2244.22 1992.64,2240.56 1995.5,2237.5 Z M 1950.5,2241.5 C 1954.16,2241.2 1957.33,2242.2 1960,2244.5C 1961.96,2253.16 1961.96,2261.82 1960,2270.5C 1956.84,2280.67 1950.01,2284.5 1939.5,2282C 1936.45,2281.39 1933.95,2279.89 1932,2277.5C 1926.94,2260.16 1932.78,2248.82 1949.5,2243.5C 1950.3,2243.04 1950.63,2242.38 1950.5,2241.5 Z"/></g>
</svg>
