<?xml version="1.0" encoding="UTF-8"?>
<!DOCTYPE svg PUBLIC "-//W3C//DTD SVG 1.1//EN" "http://www.w3.org/Graphics/SVG/1.1/DTD/svg11.dtd">
<svg xmlns="http://www.w3.org/2000/svg" version="1.1" width="2550px" height="2550px" style="shape-rendering:geometricPrecision; text-rendering:geometricPrecision; image-rendering:optimizeQuality; fill-rule:evenodd; clip-rule:evenodd" xmlns:xlink="http://www.w3.org/1999/xlink">
<g><path style="opacity:0.836" fill="#000000" d="M 2204.5,160.5 C 2214.64,160.509 2218.14,165.509 2215,175.5C 2214.12,181.012 2212.62,186.345 2210.5,191.5C 2221.6,190.244 2230.1,194.244 2236,203.5C 2242.53,218.933 2247.19,234.933 2250,251.5C 2250.72,252.059 2251.56,252.392 2252.5,252.5C 2256.5,251.833 2260.5,251.167 2264.5,250.5C 2272.81,252.62 2274.48,257.12 2269.5,264C 2264.62,265.403 2259.62,266.236 2254.5,266.5C 2256.62,273.411 2259.29,280.077 2262.5,286.5C 2262.5,291.167 2260.17,293.5 2255.5,293.5C 2252.63,293.398 2250.3,292.232 2248.5,290C 2235.43,289.635 2224.43,284.635 2215.5,275C 2211.62,273.81 2207.62,273.143 2203.5,273C 2198.38,271.268 2196.55,267.768 2198,262.5C 2198.5,260.667 2199.67,259.5 2201.5,259C 2212.57,258.774 2223.57,257.774 2234.5,256C 2235.06,255.275 2235.39,254.442 2235.5,253.5C 2233.33,244.167 2231.17,234.833 2229,225.5C 2227.5,218.833 2224.67,212.833 2220.5,207.5C 2214.79,206.42 2209.12,206.753 2203.5,208.5C 2192.85,237.473 2181.35,266.14 2169,294.5C 2160.47,299.817 2155.63,297.483 2154.5,287.5C 2155.12,278.248 2156.95,269.248 2160,260.5C 2166.12,245.595 2172.79,230.929 2180,216.5C 2183.26,210.307 2187.26,204.64 2192,199.5C 2196.17,189.993 2199.34,180.159 2201.5,170C 2200.3,166.206 2201.3,163.04 2204.5,160.5 Z M 2238.5,269.5 C 2241.05,274.922 2243.71,280.422 2246.5,286C 2241.89,287.007 2237.56,286.34 2233.5,284C 2229.51,280.378 2225.51,276.711 2221.5,273C 2227.31,271.909 2232.98,270.742 2238.5,269.5 Z"/></g>
<g><path style="opacity:0.837" fill="#000000" d="M 2022.5,195.5 C 2027.64,194.426 2031.47,196.093 2034,200.5C 2035.31,204.42 2036.31,208.42 2037,212.5C 2037.89,222.191 2038.89,231.858 2040,241.5C 2043.5,239.752 2046.83,237.752 2050,235.5C 2050.86,232.731 2051.36,229.898 2051.5,227C 2049.87,218.882 2049.04,210.715 2049,202.5C 2054.43,197.91 2058.76,198.91 2062,205.5C 2065.31,218.687 2067.31,232.02 2068,245.5C 2069.4,244.773 2070.9,244.273 2072.5,244C 2096.18,239.031 2107.68,248.531 2107,272.5C 2103.09,278.617 2098.75,278.951 2094,273.5C 2093.76,267.678 2091.93,262.511 2088.5,258C 2081.22,256.78 2074.38,257.947 2068,261.5C 2067.24,267.654 2065.91,273.654 2064,279.5C 2058.19,285.093 2052.86,284.76 2048,278.5C 2046.42,270.555 2047.75,263.222 2052,256.5C 2052.67,254.5 2052.67,252.5 2052,250.5C 2048.6,254.023 2044.44,255.689 2039.5,255.5C 2039.89,270.211 2039.39,284.878 2038,299.5C 2033.67,304.833 2029.33,304.833 2025,299.5C 2024.83,297 2024.67,294.5 2024.5,292C 2025.43,282.509 2025.59,273.009 2025,263.5C 2022.83,261 2020.67,258.5 2018.5,256C 2014.78,254.82 2011.12,253.487 2007.5,252C 2003.25,247.199 2003.58,242.866 2008.5,239C 2013.82,239.469 2019.15,240.303 2024.5,241.5C 2024.87,230.734 2024.04,220.067 2022,209.5C 2020.99,210.337 2019.82,210.67 2018.5,210.5C 2018.44,205.061 2019.78,200.061 2022.5,195.5 Z"/></g>
<g><path style="opacity:0.83" fill="#000000" d="M 1942.5,207.5 C 1947.63,207.112 1952.63,207.612 1957.5,209C 1961.32,213.187 1961.32,217.52 1957.5,222C 1955.52,221.889 1953.52,221.389 1951.5,220.5C 1943.6,223.902 1937.76,229.568 1934,237.5C 1932.85,240.393 1932.35,243.393 1932.5,246.5C 1936.77,246.266 1940.77,245.099 1944.5,243C 1953.98,234.43 1963.65,226.097 1973.5,218C 1983.54,216.025 1989.04,220.192 1990,230.5C 1991.05,246.829 1992.05,263.162 1993,279.5C 1993.71,278.027 1994.88,277.36 1996.5,277.5C 1995.49,286.417 1990.82,288.917 1982.5,285C 1979.27,280.759 1977.77,275.926 1978,270.5C 1977.71,258.477 1977.04,246.477 1976,234.5C 1968.13,242.039 1959.96,249.206 1951.5,256C 1941.75,261.068 1931.75,261.734 1921.5,258C 1920.3,257.097 1919.47,255.931 1919,254.5C 1918.67,249.167 1918.33,243.833 1918,238.5C 1906.53,249.642 1895.36,261.142 1884.5,273C 1886.5,273.333 1888.5,273.667 1890.5,274C 1891.64,274.741 1891.64,275.575 1890.5,276.5C 1885.73,276.288 1881.4,277.788 1877.5,281C 1871.68,282.261 1868.68,279.928 1868.5,274C 1868.61,271.268 1869.45,268.768 1871,266.5C 1879.8,255.368 1889.63,245.202 1900.5,236C 1888.62,234.736 1876.95,235.736 1865.5,239C 1858.97,240.507 1855.97,244.507 1856.5,251C 1863.75,278.942 1869.09,307.275 1872.5,336C 1871.87,345.146 1867.54,347.646 1859.5,343.5C 1857.98,341.453 1857.15,339.119 1857,336.5C 1856.33,331.167 1855.67,325.833 1855,320.5C 1846.97,298.871 1842.47,276.538 1841.5,253.5C 1839.91,242.857 1843.58,234.69 1852.5,229C 1859.09,225.468 1866.09,223.135 1873.5,222C 1886.82,220.778 1900.15,220.445 1913.5,221C 1918.21,221.888 1921.04,224.721 1922,229.5C 1926.64,220.031 1933.47,212.698 1942.5,207.5 Z"/></g>
<g><path style="opacity:0.809" fill="#000000" d="M 1173.5,307.5 C 1174.5,307.5 1175.5,307.5 1176.5,307.5C 1176.76,308.978 1176.43,310.311 1175.5,311.5C 1173.28,312.924 1171.78,314.924 1171,317.5C 1170.06,321.114 1169.56,324.78 1169.5,328.5C 1207.24,326.441 1244.57,329.275 1281.5,337C 1298.23,337.561 1314.9,338.894 1331.5,341C 1348.8,344.519 1366.13,347.852 1383.5,351C 1405.09,355.97 1425.43,363.97 1444.5,375C 1454.77,383.935 1465.6,392.102 1477,399.5C 1481.7,397.433 1484.53,398.933 1485.5,404C 1494.32,407.906 1502.65,412.573 1510.5,418C 1535.55,437.385 1560.88,456.385 1586.5,475C 1597.95,490.063 1608.78,505.563 1619,521.5C 1623.58,534.67 1629.75,547.003 1637.5,558.5C 1662.03,542.069 1686.03,524.903 1709.5,507C 1755.87,469.477 1801.87,431.477 1847.5,393C 1851.09,391.259 1854.76,391.092 1858.5,392.5C 1860.96,395.335 1861.13,398.335 1859,401.5C 1848.89,408.611 1839.72,416.778 1831.5,426C 1830.55,426.483 1829.55,426.649 1828.5,426.5C 1828.87,423.093 1827.87,422.593 1825.5,425C 1767.2,476.488 1706.2,524.321 1642.5,568.5C 1649.17,578.503 1655.34,588.836 1661,599.5C 1665.8,599.964 1670.47,600.964 1675,602.5C 1677.99,609.353 1675.83,613.687 1668.5,615.5C 1671.75,621.664 1675.25,627.664 1679,633.5C 1695.88,655.385 1714.55,675.718 1735,694.5C 1747.42,708.714 1760.09,722.714 1773,736.5C 1790.42,762.07 1802.42,790.07 1809,820.5C 1811.8,849.094 1813.14,877.76 1813,906.5C 1813.9,917.848 1814.9,929.182 1816,940.5C 1818.08,948.66 1821.75,955.993 1827,962.5C 1832.14,974.251 1837.47,985.918 1843,997.5C 1851.53,1011.02 1863.36,1020.52 1878.5,1026C 1890.5,1027.58 1901.5,1024.92 1911.5,1018C 1932.16,1004.32 1953.83,992.322 1976.5,982C 1992.5,972 2008.5,962 2024.5,952C 2030.98,949.093 2037.64,946.76 2044.5,945C 2056.5,944.333 2068.5,944.333 2080.5,945C 2104.28,948.349 2127.94,952.349 2151.5,957C 2170.99,961.745 2188.99,969.745 2205.5,981C 2230.17,997.667 2252.33,1017.17 2272,1039.5C 2276.77,1046.04 2280.77,1053.04 2284,1060.5C 2289.78,1083.94 2294.44,1107.61 2298,1131.5C 2298.65,1159.84 2298.32,1188.18 2297,1216.5C 2295.21,1234.05 2292.21,1251.39 2288,1268.5C 2275.88,1293.95 2259.21,1315.95 2238,1334.5C 2226.82,1349.81 2212.99,1361.98 2196.5,1371C 2174.51,1377.33 2152.51,1383.66 2130.5,1390C 2120,1394.75 2109.67,1399.75 2099.5,1405C 2067.58,1405.84 2036.58,1411.51 2006.5,1422C 1992.27,1425.81 1977.94,1429.14 1963.5,1432C 1946.47,1433.34 1929.47,1435 1912.5,1437C 1908.67,1437.82 1905,1439.15 1901.5,1441C 1883.69,1440.79 1867.03,1444.96 1851.5,1453.5C 1847.07,1459.1 1843.24,1465.1 1840,1471.5C 1827.95,1486.55 1816.28,1501.88 1805,1517.5C 1794.76,1538.99 1782.76,1559.32 1769,1578.5C 1758.78,1599.27 1751.12,1620.93 1746,1643.5C 1729.67,1679.77 1709.34,1713.44 1685,1744.5C 1673.07,1762.69 1662.4,1781.69 1653,1801.5C 1648.03,1816.06 1643.36,1830.73 1639,1845.5C 1635.94,1851.96 1632.6,1858.29 1629,1864.5C 1615.27,1881.63 1602.27,1899.3 1590,1917.5C 1576.55,1931.07 1565.55,1946.4 1557,1963.5C 1547.19,1974.47 1537.86,1985.8 1529,1997.5C 1515.13,2024.69 1498.13,2049.69 1478,2072.5C 1467.05,2095.45 1450.55,2113.29 1428.5,2126C 1416.97,2138.75 1403.64,2149.09 1388.5,2157C 1369.17,2177.66 1349.5,2198 1329.5,2218C 1325.83,2221 1322.17,2224 1318.5,2227C 1292.64,2240.93 1265.98,2253.26 1238.5,2264C 1203.97,2269.23 1169.97,2266.9 1136.5,2257C 1127.83,2256.05 1119.16,2255.05 1110.5,2254C 1096.77,2249.49 1083.11,2244.82 1069.5,2240C 1056.65,2239.14 1043.98,2237.14 1031.5,2234C 1023.29,2229.79 1015.63,2224.79 1008.5,2219C 987.193,2196.35 963.526,2176.68 937.5,2160C 925.671,2153.59 914.004,2146.92 902.5,2140C 886.456,2134.14 870.789,2127.48 855.5,2120C 829.331,2104.41 802.997,2089.08 776.5,2074C 754.666,2064.72 733,2055.05 711.5,2045C 705.658,2041.25 699.991,2037.25 694.5,2033C 684.954,2022.95 674.954,2013.45 664.5,2004.5C 654.307,1990.45 646.473,1975.11 641,1958.5C 627.23,1916.52 611.897,1875.18 595,1834.5C 591.319,1827.8 587.652,1821.13 584,1814.5C 549.493,1853 516.493,1892.67 485,1933.5C 451.16,1974.35 412.66,2009.85 369.5,2040C 363.5,2043.33 357.5,2046.67 351.5,2050C 342.755,2051.45 340.755,2048.62 345.5,2041.5C 374.272,2020.1 401.939,1997.27 428.5,1973C 449.778,1951.39 469.945,1928.89 489,1905.5C 517.159,1868.67 546.826,1833 578,1798.5C 575.189,1784.46 571.856,1770.46 568,1756.5C 558.101,1728.7 548.768,1700.7 540,1672.5C 533.529,1645.61 527.529,1618.61 522,1591.5C 519.397,1583.03 516.397,1574.69 513,1566.5C 499.603,1538.61 485.269,1511.28 470,1484.5C 461.41,1466.98 453.077,1449.32 445,1431.5C 427.225,1404.28 408.225,1377.95 388,1352.5C 385.231,1347.96 382.731,1343.29 380.5,1338.5C 378.579,1337.36 376.579,1337.19 374.5,1338C 369.987,1339.28 365.654,1340.95 361.5,1343C 352.634,1343.04 343.967,1344.37 335.5,1347C 304.893,1349.43 274.227,1350.1 243.5,1349C 217.426,1344.29 192.76,1335.63 169.5,1323C 152.808,1313.24 138.975,1300.41 128,1284.5C 125.188,1278.21 121.855,1272.21 118,1266.5C 109.39,1242 100.39,1217.67 91,1193.5C 89.9694,1162.45 90.6361,1131.45 93,1100.5C 97.0288,1087.71 101.362,1075.05 106,1062.5C 117.422,1048.07 129.589,1034.24 142.5,1021C 152.5,1014.67 162.5,1008.33 172.5,1002C 176.677,999.941 181.01,998.274 185.5,997C 198.097,996.744 210.597,995.91 223,994.5C 276.882,995.282 330.716,996.449 384.5,998C 394.68,992.744 405.014,987.744 415.5,983C 420.893,980.274 425.726,976.774 430,972.5C 436.081,961.337 442.414,950.337 449,939.5C 449.462,932.985 451.462,926.985 455,921.5C 453.904,883.182 453.57,844.849 454,806.5C 454.333,797.833 454.667,789.167 455,780.5C 461.052,762.945 469.718,746.945 481,732.5C 490.742,714.945 498.742,696.612 505,677.5C 523.973,649.887 538.973,620.22 550,588.5C 555.801,578.564 560.801,568.231 565,557.5C 574.591,544.908 586.758,535.741 601.5,530C 607.708,523.461 613.541,516.627 619,509.5C 630.582,498.58 642.749,488.414 655.5,479C 664.336,475.387 673.003,471.387 681.5,467C 688.82,460.018 696.487,453.352 704.5,447C 734.083,433.751 760.083,415.418 782.5,392C 784.5,391 786.5,390 788.5,389C 809.607,384.473 830.607,379.473 851.5,374C 877.893,370.941 904.227,367.607 930.5,364C 946.093,360.935 961.426,356.935 976.5,352C 987.475,350.958 998.475,350.291 1009.5,350C 1037.29,344.912 1065.29,341.579 1093.5,340C 1115.54,334.66 1137.88,330.993 1160.5,329C 1161.67,328.5 1162.5,327.667 1163,326.5C 1164.06,320.973 1165.73,315.64 1168,310.5C 1169.72,309.131 1171.55,308.131 1173.5,307.5 Z M 1577.5,603.5 C 1581.83,596.867 1586.66,590.533 1592,584.5C 1596.25,578.335 1600.25,572.002 1604,565.5C 1608.11,561.541 1612.28,557.708 1616.5,554C 1610.23,555.051 1604.73,557.884 1600,562.5C 1589.67,576.833 1579.33,591.167 1569,605.5C 1568.76,596.463 1568.1,587.463 1567,578.5C 1564.29,573.188 1560.46,572.188 1555.5,575.5C 1554.52,578.083 1553.85,580.749 1553.5,583.5C 1554.31,598.219 1555.14,612.885 1556,627.5C 1550.28,612.387 1542.28,598.72 1532,586.5C 1516.09,570.712 1499.76,555.379 1483,540.5C 1473.66,525.493 1462.49,511.993 1449.5,500C 1440.1,493.634 1430.1,488.3 1419.5,484C 1393.17,475.667 1366.83,467.333 1340.5,459C 1326.78,453.641 1313.78,446.974 1301.5,439C 1283.37,432.803 1265.37,426.303 1247.5,419.5C 1246.84,405.114 1247.5,390.781 1249.5,376.5C 1246.92,373.431 1247.92,371.931 1252.5,372C 1257.83,371.333 1263.17,371.333 1268.5,372C 1276.4,374.781 1284.4,377.281 1292.5,379.5C 1292.44,377.408 1291.44,375.908 1289.5,375C 1282.1,369.936 1274.43,365.27 1266.5,361C 1256.96,358.691 1247.3,358.024 1237.5,359C 1233.38,362.029 1232.05,366.029 1233.5,371C 1232.23,377.368 1231.56,383.868 1231.5,390.5C 1231.3,398.934 1231.96,407.268 1233.5,415.5C 1176.73,413.23 1120.39,417.397 1064.5,428C 1056.12,430.178 1047.79,432.511 1039.5,435C 1015.77,442.848 992.107,450.848 968.5,459C 935.991,475.512 903.325,491.845 870.5,508C 853.651,513.837 837.318,520.837 821.5,529C 801.328,540.583 781.662,552.916 762.5,566C 755.105,568.531 748.105,571.864 741.5,576C 713.587,594.572 688.754,616.739 667,642.5C 656.841,657.327 647.508,672.66 639,688.5C 636.878,699.415 632.545,709.415 626,718.5C 623.994,723.843 621.994,729.177 620,734.5C 615.897,739.705 612.563,745.372 610,751.5C 609.161,765.534 606.495,779.201 602,792.5C 600.551,801.88 598.884,811.214 597,820.5C 595.787,835.799 595.12,851.132 595,866.5C 594.034,875.732 592.034,884.732 589,893.5C 588.333,925.5 588.333,957.5 589,989.5C 595.642,1003.45 603.309,1016.79 612,1029.5C 626.964,1043.47 642.797,1056.3 659.5,1068C 668.847,1079.69 677.014,1092.19 684,1105.5C 689.946,1124.01 696.279,1142.34 703,1160.5C 707.914,1175.62 707.581,1190.62 702,1205.5C 693.041,1233.1 678.708,1257.43 659,1278.5C 644.526,1292.31 630.026,1306.14 615.5,1320C 603.783,1330.86 590.45,1339.2 575.5,1345C 559.454,1345.87 543.454,1347.04 527.5,1348.5C 526.614,1347.68 526.281,1346.68 526.5,1345.5C 524.856,1345.29 523.356,1345.62 522,1346.5C 520.589,1344.35 519.755,1342.02 519.5,1339.5C 512.524,1337.56 509.191,1340.06 509.5,1347C 513.127,1367.22 520.293,1386.05 531,1403.5C 543.244,1419.31 552.911,1436.65 560,1455.5C 564,1462.83 568,1470.17 572,1477.5C 577.115,1491.74 580.449,1506.41 582,1521.5C 585.861,1527.89 589.194,1534.55 592,1541.5C 594.282,1545.72 597.282,1549.38 601,1552.5C 605.902,1564 608.902,1576 610,1588.5C 610.199,1600.2 610.865,1611.87 612,1623.5C 617.826,1651.8 623.493,1680.14 629,1708.5C 633.693,1725.58 640.526,1741.75 649.5,1757C 631.5,1757.67 613.5,1757.67 595.5,1757C 590.491,1755.31 585.491,1753.65 580.5,1752C 578.151,1747.3 575.984,1742.47 574,1737.5C 567.286,1716.41 560.286,1695.41 553,1674.5C 545.862,1644.95 539.195,1615.28 533,1585.5C 530.593,1577.28 527.593,1569.28 524,1561.5C 509.02,1530.2 493.02,1499.54 476,1469.5C 469.487,1453.47 462.153,1437.81 454,1422.5C 438.16,1398.33 421.16,1374.99 403,1352.5C 398.241,1345.99 394.241,1338.99 391,1331.5C 387.832,1327.06 383.499,1325.39 378,1326.5C 375.167,1326.67 372.333,1326.83 369.5,1327C 365.5,1328.67 361.5,1330.33 357.5,1332C 348.941,1331.97 340.608,1333.3 332.5,1336C 303.344,1339.21 274.01,1339.87 244.5,1338C 223.087,1333.2 202.42,1326.2 182.5,1317C 166.866,1307.7 153.032,1296.2 141,1282.5C 136.667,1274.5 132.333,1266.5 128,1258.5C 120.257,1235.6 111.924,1212.94 103,1190.5C 102.115,1163.15 102.448,1135.81 104,1108.5C 107.93,1097.04 111.264,1085.37 114,1073.5C 124.985,1056.84 137.819,1041.67 152.5,1028C 161.669,1022.58 170.669,1016.92 179.5,1011C 189.818,1005.04 200.485,1004.04 211.5,1008C 255.825,1009.23 300.158,1010.23 344.5,1011C 347.424,1011.99 350.424,1012.65 353.5,1013C 362.833,1013.67 372.167,1013.67 381.5,1013C 386.005,1012.74 390.339,1011.74 394.5,1010C 406.677,1003.41 419.01,997.078 431.5,991C 433.683,988.65 436.016,986.483 438.5,984.5C 445.249,974.671 451.749,964.671 458,954.5C 462.334,948.162 464.667,941.162 465,933.5C 466.861,931.112 468.194,928.446 469,925.5C 468.646,878.503 468.646,831.503 469,784.5C 474.239,769.066 481.905,755.066 492,742.5C 503.295,721.91 512.961,700.577 521,678.5C 527.997,669.846 533.997,660.513 539,650.5C 551.975,622.224 564.642,593.89 577,565.5C 580.833,561.667 584.667,557.833 588.5,554C 596.723,549.705 604.723,545.038 612.5,540C 618.262,534.296 623.428,528.129 628,521.5C 637.55,512.315 647.384,503.482 657.5,495C 669.059,489.772 680.392,484.106 691.5,478C 698.167,472 704.833,466 711.5,460C 725.606,453.079 739.273,445.413 752.5,437C 766.516,427.823 779.183,416.99 790.5,404.5C 792.385,403.391 794.385,402.557 796.5,402C 818.23,397.254 839.896,392.254 861.5,387C 887.922,384.207 914.255,380.873 940.5,377C 954.391,374.111 968.058,370.444 981.5,366C 986.833,365.333 992.167,365.333 997.5,366C 989.936,372.946 984.77,381.446 982,391.5C 973.614,393.366 971.447,398.032 975.5,405.5C 977.006,406.747 978.506,406.747 980,405.5C 980.137,415.664 985.304,421.164 995.5,422C 1004.97,423.516 1013.97,422.183 1022.5,418C 1027.03,414.429 1030.2,409.929 1032,404.5C 1035.94,407.366 1039.61,407.032 1043,403.5C 1044.11,391.661 1044.95,379.828 1045.5,368C 1050.64,366.084 1055.97,365.084 1061.5,365C 1063.33,364.727 1064.83,363.893 1066,362.5C 1067.67,363.5 1069,364.833 1070,366.5C 1071.7,363.532 1071.53,360.532 1069.5,357.5C 1070.73,356.719 1072.06,356.219 1073.5,356C 1089.5,355.796 1105.16,353.463 1120.5,349C 1133.78,346.674 1147.11,344.841 1160.5,343.5C 1157.83,361.328 1162.5,376.828 1174.5,390C 1176.09,390.862 1177.75,391.529 1179.5,392C 1189.11,393.526 1198.78,393.859 1208.5,393C 1220.26,390.272 1225.1,383.105 1223,371.5C 1217.27,366.055 1210.44,362.889 1202.5,362C 1193.53,360.668 1184.53,360.335 1175.5,361C 1173.48,361.45 1171.65,362.283 1170,363.5C 1168.58,356.615 1168.08,349.615 1168.5,342.5C 1205.22,340.732 1241.55,343.565 1277.5,351C 1294.21,351.765 1310.88,353.099 1327.5,355C 1341.99,358.595 1356.66,361.261 1371.5,363C 1393.53,367.898 1414.53,375.565 1434.5,386C 1446.6,396.105 1459.27,405.439 1472.5,414C 1469.61,426.692 1466.61,439.358 1463.5,452C 1453.07,449.416 1442.41,447.916 1431.5,447.5C 1431.79,436.415 1435.79,426.915 1443.5,419C 1447.62,417.04 1451.96,415.707 1456.5,415C 1457.93,412.733 1457.6,410.733 1455.5,409C 1438.92,404.543 1427.42,410.376 1421,426.5C 1410.49,455.653 1420.33,467.153 1450.5,461C 1454.33,458.835 1458.33,457.502 1462.5,457C 1459.67,465.83 1455.17,473.663 1449,480.5C 1446.33,484.486 1445.33,488.819 1446,493.5C 1446.5,495.333 1447.67,496.5 1449.5,497C 1452.63,497.79 1455.63,497.457 1458.5,496C 1461.73,491.767 1464.56,487.267 1467,482.5C 1473.68,476.58 1481.51,473.58 1490.5,473.5C 1491.57,483.806 1491.73,494.14 1491,504.5C 1489.46,509.741 1487.29,514.574 1484.5,519C 1485.68,525.427 1489.35,527.427 1495.5,525C 1500.57,521.021 1503.74,515.854 1505,509.5C 1505.67,497.5 1505.67,485.5 1505,473.5C 1504.1,467.29 1500.94,462.79 1495.5,460C 1489.04,459.644 1482.71,459.477 1476.5,459.5C 1478.95,453.401 1480.45,447.068 1481,440.5C 1481.33,433.167 1481.67,425.833 1482,418.5C 1487.91,421.54 1493.75,424.706 1499.5,428C 1523.88,446.719 1548.55,465.052 1573.5,483C 1581.7,493.232 1589.53,503.732 1597,514.5C 1606.29,529.417 1614.29,545.084 1621,561.5C 1622.14,563.609 1623.64,565.442 1625.5,567C 1609.32,579.023 1593.32,591.19 1577.5,603.5 Z M 1027.5,361.5 C 1029.2,361.34 1030.87,361.506 1032.5,362C 1031.87,362.75 1031.37,363.584 1031,364.5C 1030.5,371.158 1030.33,377.825 1030.5,384.5C 1029.17,384.5 1027.83,384.5 1026.5,384.5C 1026.37,388.791 1027.04,392.957 1028.5,397C 1027.91,399.196 1027.24,401.362 1026.5,403.5C 1024.64,405.192 1022.64,406.692 1020.5,408C 1012.11,408.831 1003.78,408.497 995.5,407C 994.13,404.167 994.464,401.5 996.5,399C 1005.65,395.345 1013.48,389.845 1020,382.5C 1021.72,377.584 1021.89,372.584 1020.5,367.5C 1019.64,365.803 1018.3,364.637 1016.5,364C 1020.35,363.367 1024.01,362.533 1027.5,361.5 Z M 1180.5,376.5 C 1191.69,374.573 1202.69,375.739 1213.5,380C 1208.51,384.724 1202.51,386.891 1195.5,386.5C 1190.43,385.993 1185.43,385.16 1180.5,384C 1178.5,382.667 1176.83,381 1175.5,379C 1178.09,380.09 1180.42,379.59 1182.5,377.5C 1182.04,376.702 1181.38,376.369 1180.5,376.5 Z M 938.5,408.5 C 940.288,408.215 941.955,408.548 943.5,409.5C 941.323,417.2 937.156,423.533 931,428.5C 930.333,423.167 930.333,417.833 931,412.5C 933.633,411.248 936.133,409.914 938.5,408.5 Z M 883.5,418.5 C 886.898,418.18 890.232,418.513 893.5,419.5C 893.023,420.478 892.357,421.311 891.5,422C 882.234,427.217 872.734,432.05 863,436.5C 861.798,432.207 862.965,428.707 866.5,426C 871.872,422.607 877.538,420.107 883.5,418.5 Z M 1150.5,428.5 C 1178.5,428.333 1206.5,428.5 1234.5,429C 1253.87,436.792 1273.54,443.792 1293.5,450C 1305.22,456.858 1317.22,463.191 1329.5,469C 1359.57,478.467 1389.57,488.134 1419.5,498C 1432.59,503.403 1443.75,511.57 1453,522.5C 1460.76,533.014 1468.76,543.347 1477,553.5C 1497.33,569.833 1515.67,588.167 1532,608.5C 1540.32,625.802 1548.65,643.136 1557,660.5C 1562.22,669.718 1568.22,678.384 1575,686.5C 1582.89,699.285 1588.89,712.952 1593,727.5C 1596,739.5 1599,751.5 1602,763.5C 1604.06,768.62 1606.39,773.62 1609,778.5C 1616.6,790.031 1623.93,801.698 1631,813.5C 1643.33,827.167 1656.33,840.167 1670,852.5C 1679.35,868.226 1685.35,885.226 1688,903.5C 1690.15,931.852 1692.48,960.186 1695,988.5C 1698.46,1009.61 1702.46,1030.61 1707,1051.5C 1707.83,1060.19 1707.67,1068.85 1706.5,1077.5C 1701.46,1079.23 1696.46,1081.07 1691.5,1083C 1678.46,1091.7 1666.3,1101.53 1655,1112.5C 1651,1118.5 1647,1124.5 1643,1130.5C 1629.53,1158.72 1621.2,1188.38 1618,1219.5C 1616.79,1239.21 1615.96,1258.87 1615.5,1278.5C 1616.6,1289.29 1618.43,1299.96 1621,1310.5C 1627.18,1325.86 1634.18,1340.86 1642,1355.5C 1654.16,1367.32 1667.33,1377.82 1681.5,1387C 1685.33,1390.83 1689.17,1394.67 1693,1398.5C 1695.53,1405.23 1698.87,1411.57 1703,1417.5C 1715.53,1426.13 1729.37,1431.63 1744.5,1434C 1740.02,1439.32 1735.35,1444.48 1730.5,1449.5C 1721,1451.5 1712.33,1455.33 1704.5,1461C 1696.67,1467.5 1688.83,1474 1681,1480.5C 1678.01,1486.13 1675.01,1491.8 1672,1497.5C 1663.56,1507.27 1655.9,1517.6 1649,1528.5C 1639.67,1543.83 1630.33,1559.17 1621,1574.5C 1612.68,1597.81 1603.01,1620.47 1592,1642.5C 1586.38,1660.73 1579.38,1678.39 1571,1695.5C 1559.61,1734.02 1545.27,1771.35 1528,1807.5C 1522.96,1822.91 1516.29,1837.58 1508,1851.5C 1494.81,1881.42 1481.81,1911.42 1469,1941.5C 1458.16,1963.18 1446.83,1984.52 1435,2005.5C 1420.76,2020.74 1405.6,2034.91 1389.5,2048C 1379.56,2056.94 1370.72,2066.77 1363,2077.5C 1358.76,2082.41 1353.92,2086.58 1348.5,2090C 1327.45,2101.19 1306.11,2111.86 1284.5,2122C 1265.36,2126.95 1246.03,2130.95 1226.5,2134C 1206.5,2134.67 1186.5,2134.67 1166.5,2134C 1157.48,2132.16 1148.48,2130.16 1139.5,2128C 1128.12,2123.14 1116.45,2119.14 1104.5,2116C 1092.9,2111.2 1081.9,2105.37 1071.5,2098.5C 1070.29,2096.58 1068.96,2094.74 1067.5,2093C 1065.56,2092.26 1063.73,2092.42 1062,2093.5C 1061.25,2092.87 1060.42,2092.37 1059.5,2092C 1045.35,2080.76 1031.01,2069.76 1016.5,2059C 991.025,2044.76 965.358,2030.76 939.5,2017C 917.89,2002.39 896.556,1987.39 875.5,1972C 866.331,1966.58 857.331,1960.92 848.5,1955C 832.461,1940.63 816.128,1926.63 799.5,1913C 793.667,1907.17 787.833,1901.33 782,1895.5C 774.382,1884.88 766.382,1874.55 758,1864.5C 740.08,1846.91 722.414,1828.91 705,1810.5C 689.291,1792.75 675.291,1773.75 663,1753.5C 653.246,1736.9 646.246,1719.23 642,1700.5C 635.853,1670.92 630.187,1641.25 625,1611.5C 625.782,1588.66 622.116,1566.66 614,1545.5C 610.962,1542.8 608.295,1539.8 606,1536.5C 602.922,1530.01 599.588,1523.68 596,1517.5C 594.449,1502.41 591.115,1487.74 586,1473.5C 576.612,1457.39 568.279,1440.72 561,1423.5C 545.176,1402.52 533.009,1379.52 524.5,1354.5C 524.667,1353.83 524.833,1353.17 525,1352.5C 537.549,1354.23 550.215,1355.23 563,1355.5C 575.036,1356.03 586.203,1353.2 596.5,1347C 604.443,1342.06 612.109,1336.72 619.5,1331C 639.574,1313.93 658.741,1295.76 677,1276.5C 695.057,1253.06 708.39,1227.06 717,1198.5C 719.946,1171.32 714.946,1145.66 702,1121.5C 699.798,1112.23 696.798,1103.23 693,1094.5C 685.828,1082.82 678.162,1071.49 670,1060.5C 659.786,1051.95 649.286,1043.78 638.5,1036C 630.941,1028.78 623.774,1021.28 617,1013.5C 611.985,1004.14 606.985,994.802 602,985.5C 601.333,955.167 601.333,924.833 602,894.5C 604.606,888.077 606.272,881.41 607,874.5C 608.153,858.859 608.819,843.192 609,827.5C 611.314,818.285 612.98,808.952 614,799.5C 618.591,786.21 621.258,772.543 622,758.5C 631.082,739.002 640.749,719.669 651,700.5C 652.055,692.675 654.722,685.341 659,678.5C 668.256,663.92 678.256,649.92 689,636.5C 709.091,616.397 730.924,598.563 754.5,583C 765.735,579.386 775.735,573.719 784.5,566C 800.668,556.081 817.002,546.415 833.5,537C 848.006,530.609 862.672,524.609 877.5,519C 907.554,504.76 937.221,489.76 966.5,474C 973.753,470.805 981.086,467.805 988.5,465C 1007.1,459.769 1025.43,453.769 1043.5,447C 1053.41,444.022 1063.41,441.355 1073.5,439C 1099.25,434.964 1124.91,431.464 1150.5,428.5 Z M 1573.5,618.5 C 1591.28,603.402 1609.94,589.402 1629.5,576.5C 1634.86,583.874 1639.86,591.541 1644.5,599.5C 1628.36,601.828 1612.36,604.995 1596.5,609C 1588.58,611.627 1580.92,614.794 1573.5,618.5 Z M 1644.5,614.5 C 1647.25,614.187 1649.91,614.52 1652.5,615.5C 1658.58,629.34 1666.41,642.006 1676,653.5C 1684,662.833 1692,672.167 1700,681.5C 1708.97,689.469 1717.64,697.803 1726,706.5C 1732.93,715.434 1740.6,723.767 1749,731.5C 1757.1,740.259 1764.43,749.593 1771,759.5C 1780.44,778.818 1788.11,798.818 1794,819.5C 1795.8,834.12 1797.13,848.787 1798,863.5C 1798.26,885.181 1798.92,906.848 1800,928.5C 1799.92,943.867 1804.59,957.533 1814,969.5C 1819.27,980.381 1824.27,991.381 1829,1002.5C 1839.38,1020.27 1854.21,1032.77 1873.5,1040C 1888.07,1042.5 1901.73,1040.17 1914.5,1033C 1925.67,1026.58 1936.67,1019.92 1947.5,1013C 1959.11,1007.86 1970.45,1002.19 1981.5,996C 1998.43,986.063 2015.1,975.729 2031.5,965C 2041.54,959.825 2052.21,957.658 2063.5,958.5C 2090.64,960.734 2117.64,964.234 2144.5,969C 2154.68,971.393 2164.68,974.393 2174.5,978C 2186.8,984.482 2198.8,991.482 2210.5,999C 2220.55,1007.38 2230.88,1015.38 2241.5,1023C 2252.88,1032.7 2262.38,1043.86 2270,1056.5C 2273.65,1063.12 2276.32,1070.12 2278,1077.5C 2292.14,1137.18 2293.14,1197.18 2281,1257.5C 2273.81,1276.21 2263.81,1293.21 2251,1308.5C 2236.11,1323.06 2221.61,1337.89 2207.5,1353C 2198.8,1360.46 2188.8,1365.46 2177.5,1368C 2154.74,1372.25 2132.74,1378.92 2111.5,1388C 2107.5,1390.33 2103.5,1392.67 2099.5,1395C 2080.44,1396.75 2061.44,1399.08 2042.5,1402C 2024.33,1406.42 2006.33,1411.42 1988.5,1417C 1962.84,1423 1936.84,1426.67 1910.5,1428C 1906.62,1428.26 1902.96,1429.26 1899.5,1431C 1878.39,1430.9 1859.06,1436.57 1841.5,1448C 1828.68,1468.47 1814.51,1487.97 1799,1506.5C 1787.2,1529.28 1774.2,1551.28 1760,1572.5C 1748.24,1595.03 1739.57,1618.69 1734,1643.5C 1717.45,1678.94 1697.12,1711.94 1673,1742.5C 1660.51,1761.14 1649.84,1780.81 1641,1801.5C 1636.64,1816.27 1631.97,1830.94 1627,1845.5C 1617.56,1862.27 1606.56,1877.94 1594,1892.5C 1590,1898.5 1586,1904.5 1582,1910.5C 1567.68,1925.49 1555.68,1942.16 1546,1960.5C 1536.24,1970.92 1527.24,1981.92 1519,1993.5C 1505.63,2019.58 1489.3,2043.58 1470,2065.5C 1463.49,2079.35 1454.66,2091.51 1443.5,2102C 1429.43,2111.24 1416.77,2122.07 1405.5,2134.5C 1397.03,2139.8 1388.7,2145.3 1380.5,2151C 1370.82,2160.88 1361.48,2171.05 1352.5,2181.5C 1340.35,2193.15 1328.35,2204.99 1316.5,2217C 1289.49,2232.17 1261.49,2245.17 1232.5,2256C 1200.7,2259.89 1169.36,2257.56 1138.5,2249C 1129.83,2248 1121.17,2247 1112.5,2246C 1100.12,2241.82 1087.78,2237.49 1075.5,2233C 1064.89,2231.26 1054.22,2229.93 1043.5,2229C 1033.03,2226.1 1023.7,2221.1 1015.5,2214C 977.595,2173.77 932.928,2143.44 881.5,2123C 870.833,2117.67 860.167,2112.33 849.5,2107C 826.498,2092.5 803.165,2078.5 779.5,2065C 760.75,2056.86 742.083,2048.53 723.5,2040C 718.565,2037.39 713.898,2034.39 709.5,2031C 697.677,2019.68 685.677,2008.51 673.5,1997.5C 666.06,1987.03 660.226,1975.69 656,1963.5C 645.136,1933.24 634.469,1902.91 624,1872.5C 616.444,1852.89 607.944,1833.72 598.5,1815C 601.054,1810.76 604.221,1806.93 608,1803.5C 611.75,1797 615.75,1790.66 620,1784.5C 622.602,1780.53 624.102,1776.19 624.5,1771.5C 631.833,1771.5 639.167,1771.5 646.5,1771.5C 644.047,1790.24 643.047,1809.07 643.5,1828C 643.667,1839.5 643.833,1851 644,1862.5C 650.797,1870.25 657.797,1870.25 665,1862.5C 667.929,1856.34 668.263,1850 666,1843.5C 664.951,1842.48 663.784,1842.32 662.5,1843C 661.695,1844.97 660.361,1846.47 658.5,1847.5C 657.334,1831.18 657.167,1814.84 658,1798.5C 658.283,1791.36 659.283,1784.36 661,1777.5C 670,1789.17 679,1800.83 688,1812.5C 708.328,1834.83 729.328,1856.49 751,1877.5C 761.956,1894.13 774.789,1909.3 789.5,1923C 805.425,1935.59 820.758,1948.92 835.5,1963C 867.66,1985.25 899.993,2007.25 932.5,2029C 959.52,2043.17 986.186,2057.84 1012.5,2073C 1026.65,2085.49 1041.65,2096.82 1057.5,2107C 1044.26,2139.56 1038.09,2173.39 1039,2208.5C 1041.17,2212 1044,2214.83 1047.5,2217C 1074.32,2223 1091.82,2212.84 1100,2186.5C 1103.58,2172.16 1098.08,2163.99 1083.5,2162C 1077.5,2161.33 1071.5,2161.33 1065.5,2162C 1059.88,2166.09 1058.05,2171.59 1060,2178.5C 1061.87,2182.6 1064.37,2186.27 1067.5,2189.5C 1069.73,2190.58 1072.06,2191.24 1074.5,2191.5C 1074.15,2188.49 1072.81,2185.99 1070.5,2184C 1072.49,2181.52 1073.49,2178.69 1073.5,2175.5C 1077.89,2175.64 1082.06,2176.64 1086,2178.5C 1084.7,2190.93 1078.2,2199.43 1066.5,2204C 1061.8,2204.65 1057.13,2204.48 1052.5,2203.5C 1053.69,2173.39 1059.19,2144.05 1069,2115.5C 1069.41,2115.04 1069.91,2114.71 1070.5,2114.5C 1080.55,2120.19 1090.89,2125.36 1101.5,2130C 1112.91,2132.47 1123.91,2136.14 1134.5,2141C 1143.1,2143.32 1151.76,2145.32 1160.5,2147C 1180.51,2147.21 1200.51,2147.71 1220.5,2148.5C 1243.04,2145.89 1265.21,2141.56 1287,2135.5C 1284.43,2147.02 1284.09,2158.68 1286,2170.5C 1292.94,2183.55 1303.77,2188.38 1318.5,2185C 1323.25,2183.89 1326.41,2181.05 1328,2176.5C 1328.51,2172.43 1329.35,2168.43 1330.5,2164.5C 1334.92,2167.44 1338.76,2166.77 1342,2162.5C 1343.24,2156.89 1344.24,2151.22 1345,2145.5C 1347.61,2137.25 1353.11,2131.75 1361.5,2129C 1368,2127.05 1374.33,2127.21 1380.5,2129.5C 1387.1,2128.65 1389.27,2124.98 1387,2118.5C 1386.07,2116.45 1384.57,2114.95 1382.5,2114C 1359.57,2109.47 1342.57,2117.3 1331.5,2137.5C 1330.72,2136.27 1330.22,2134.94 1330,2133.5C 1329.33,2127.49 1329,2121.49 1329,2115.5C 1336.81,2110.68 1344.97,2106.51 1353.5,2103C 1357.5,2100.33 1361.5,2097.67 1365.5,2095C 1373.98,2084.55 1382.81,2074.39 1392,2064.5C 1411.62,2048.55 1429.95,2031.21 1447,2012.5C 1459.87,1989.42 1472.21,1966.09 1484,1942.5C 1499.31,1904.88 1515.98,1867.88 1534,1831.5C 1543.47,1808.09 1553.14,1784.75 1563,1761.5C 1569.07,1743.96 1574.74,1726.29 1580,1708.5C 1588.65,1689.56 1596.31,1670.23 1603,1650.5C 1614.89,1624.72 1626.22,1598.72 1637,1572.5C 1647.92,1555.67 1658.58,1538.67 1669,1521.5C 1678.29,1511.86 1685.63,1500.86 1691,1488.5C 1697.83,1482.33 1704.67,1476.17 1711.5,1470C 1719.12,1464.36 1727.45,1460.02 1736.5,1457C 1741.61,1450.55 1746.77,1444.05 1752,1437.5C 1755.26,1436.31 1758.26,1434.65 1761,1432.5C 1761.67,1430.83 1761.67,1429.17 1761,1427.5C 1758.81,1425.61 1756.98,1423.44 1755.5,1421C 1752.78,1420.47 1750.28,1420.97 1748,1422.5C 1735.82,1420.38 1724.32,1416.38 1713.5,1410.5C 1709.87,1405.57 1707.03,1400.24 1705,1394.5C 1693.61,1380.55 1680.11,1369.05 1664.5,1360C 1660.01,1356.51 1655.84,1352.67 1652,1348.5C 1646.62,1336.74 1640.95,1325.08 1635,1313.5C 1632.88,1304.11 1630.55,1294.78 1628,1285.5C 1627.49,1261.11 1628.49,1236.78 1631,1212.5C 1635.19,1184.06 1643.86,1157.06 1657,1131.5C 1660.64,1126.36 1664.48,1121.36 1668.5,1116.5C 1675.57,1111.93 1681.91,1106.43 1687.5,1100C 1691.13,1098.52 1694.47,1096.52 1697.5,1094C 1704.24,1092.09 1710.74,1089.59 1717,1086.5C 1718,1084.83 1719,1083.17 1720,1081.5C 1720.67,1070.17 1720.67,1058.83 1720,1047.5C 1709.13,998.433 1702.79,948.767 1701,898.5C 1698.34,882.841 1693.67,867.841 1687,853.5C 1683.69,848.692 1680.19,844.025 1676.5,839.5C 1665.55,830.048 1655.05,820.048 1645,809.5C 1636.42,796.67 1628.08,783.67 1620,770.5C 1618.06,766.952 1616.39,763.286 1615,759.5C 1610.7,738.648 1604.7,718.315 1597,698.5C 1594.17,692.178 1590.84,686.178 1587,680.5C 1580.55,672.434 1574.72,663.934 1569.5,655C 1571.05,653.786 1572.22,652.286 1573,650.5C 1573.13,646.049 1573.8,641.716 1575,637.5C 1583.43,629.868 1593.26,624.701 1604.5,622C 1617.83,618.725 1631.17,616.225 1644.5,614.5 Z M 1573.5,618.5 C 1573,620.085 1572,620.585 1570.5,620C 1571.24,618.961 1572.24,618.461 1573.5,618.5 Z M 316.5,1142.5 C 322.842,1142.33 329.175,1142.5 335.5,1143C 343.939,1144.04 346.606,1148.54 343.5,1156.5C 331.518,1157.5 319.518,1157.83 307.5,1157.5C 307.224,1150.36 310.224,1145.36 316.5,1142.5 Z M 1955.5,1240.5 C 1965.47,1239.07 1974.3,1241.74 1982,1248.5C 1983.37,1250.7 1983.71,1253.03 1983,1255.5C 1977.3,1253.87 1971.47,1252.71 1965.5,1252C 1959.41,1250.42 1956.08,1246.59 1955.5,1240.5 Z M 1896.5,1244.5 C 1909.51,1245.75 1922.51,1247.25 1935.5,1249C 1937.95,1249.72 1940.28,1250.72 1942.5,1252C 1944.46,1254.96 1946.79,1257.63 1949.5,1260C 1945.36,1268.09 1938.69,1272.75 1929.5,1274C 1915.83,1275.98 1902.16,1275.98 1888.5,1274C 1886.67,1273.73 1885.17,1272.89 1884,1271.5C 1883.34,1267.43 1883.68,1263.43 1885,1259.5C 1887.9,1253.77 1891.73,1248.77 1896.5,1244.5 Z M 581.5,1757.5 C 583.97,1758.36 584.137,1759.69 582,1761.5C 581.51,1760.21 581.343,1758.87 581.5,1757.5 Z M 583.5,1767.5 C 585.527,1769.18 587.861,1770.35 590.5,1771C 595.167,1771.33 599.833,1771.67 604.5,1772C 599.333,1777.17 594.167,1782.33 589,1787.5C 586.854,1780.91 585.02,1774.25 583.5,1767.5 Z M 800.5,1996.5 C 814.05,1999.31 818.55,2007.31 814,2020.5C 813.5,2025.33 810.833,2027.67 806,2027.5C 801.419,2027.62 797.753,2025.95 795,2022.5C 793.456,2015.92 793.123,2009.25 794,2002.5C 796.005,2007.76 799.839,2010.42 805.5,2010.5C 803.965,2007.77 802.131,2005.1 800,2002.5C 799.82,2000.51 799.986,1998.51 800.5,1996.5 Z M 952.5,2054.5 C 954.137,2064.36 949.804,2068.53 939.5,2067C 941.848,2060.48 946.182,2056.31 952.5,2054.5 Z M 1314.5,2122.5 C 1315.64,2125.3 1315.8,2128.3 1315,2131.5C 1313.13,2128.81 1310.63,2126.98 1307.5,2126C 1310.17,2125.33 1312.51,2124.16 1314.5,2122.5 Z M 1309.5,2139.5 C 1313.48,2139.99 1315.65,2142.32 1316,2146.5C 1317.51,2147.09 1319.01,2147.76 1320.5,2148.5C 1322.79,2153.57 1325.45,2158.41 1328.5,2163C 1327.55,2163.48 1326.55,2163.65 1325.5,2163.5C 1325.62,2165.48 1324.95,2167.15 1323.5,2168.5C 1315.71,2172.83 1308.21,2172.5 1301,2167.5C 1299.4,2159.94 1299.07,2152.27 1300,2144.5C 1300.31,2143.23 1300.81,2142.07 1301.5,2141C 1304.36,2140.82 1307.03,2140.32 1309.5,2139.5 Z M 1181.5,2186.5 C 1186.02,2198.66 1183.86,2209.66 1175,2219.5C 1174.8,2207.99 1176.96,2196.99 1181.5,2186.5 Z"/></g>
<g><path style="opacity:0.786" fill="#000000" d="M 1305.5,379.5 C 1309.71,379.078 1313.71,379.744 1317.5,381.5C 1318.83,383.167 1318.83,384.833 1317.5,386.5C 1308.35,389.483 1300.69,394.649 1294.5,402C 1299.48,401.527 1304.14,399.86 1308.5,397C 1314.45,393.05 1319.78,388.383 1324.5,383C 1329.46,380.418 1333.62,381.251 1337,385.5C 1337.54,392.397 1339.04,399.064 1341.5,405.5C 1345.14,407.744 1349.14,408.744 1353.5,408.5C 1353.5,409.833 1353.5,411.167 1353.5,412.5C 1346.88,412.826 1340.21,412.326 1333.5,411C 1329.76,407.684 1327.42,403.517 1326.5,398.5C 1319.89,405.471 1312.22,410.971 1303.5,415C 1294.09,418.013 1284.76,418.013 1275.5,415C 1271.68,410.367 1271.51,405.533 1275,400.5C 1283.75,391.225 1293.91,384.225 1305.5,379.5 Z"/></g>
<g><path style="opacity:0.761" fill="#000000" d="M 1363.5,392.5 C 1366.52,392.335 1369.52,392.502 1372.5,393C 1373.31,393.308 1373.97,393.808 1374.5,394.5C 1375.28,399.447 1375.78,404.447 1376,409.5C 1385.15,402.975 1394.99,401.809 1405.5,406C 1411.57,411.841 1414.23,419.008 1413.5,427.5C 1413.6,431.005 1412.93,434.338 1411.5,437.5C 1408.1,439.187 1405.26,438.52 1403,435.5C 1401.68,430.259 1400.68,424.925 1400,419.5C 1399.2,416.363 1397.2,414.696 1394,414.5C 1388.04,415.773 1383.04,418.773 1379,423.5C 1377.63,427.907 1375.8,432.074 1373.5,436C 1366.75,437.588 1363.75,434.922 1364.5,428C 1366.92,417.623 1367.59,407.123 1366.5,396.5C 1365.18,398.27 1363.68,398.603 1362,397.5C 1361.39,395.505 1361.89,393.838 1363.5,392.5 Z"/></g>
<g><path style="opacity:0.826" fill="#000000" d="M 935.5,396.5 C 940.844,396.334 946.177,396.501 951.5,397C 953,397.833 954.167,399 955,400.5C 957.125,415.411 952.625,427.911 941.5,438C 938.183,438.498 934.85,438.665 931.5,438.5C 931.666,443.179 931.499,447.845 931,452.5C 926.458,457.756 921.792,457.756 917,452.5C 913.823,447.639 911.823,442.305 911,436.5C 910.333,427.5 910.333,418.5 911,409.5C 913.201,408.004 915.701,407.004 918.5,406.5C 919.128,404.742 920.128,403.242 921.5,402C 926.159,399.842 930.825,398.009 935.5,396.5 Z M 938.5,408.5 C 936.133,409.914 933.633,411.248 931,412.5C 930.333,417.833 930.333,423.167 931,428.5C 937.156,423.533 941.323,417.2 943.5,409.5C 941.955,408.548 940.288,408.215 938.5,408.5 Z"/></g>
<g><path style="opacity:0.794" fill="#000000" d="M 878.5,406.5 C 885.175,406.334 891.842,406.5 898.5,407C 903.993,409.512 906.66,413.845 906.5,420C 906.277,425.445 903.943,429.779 899.5,433C 891.828,438.171 883.828,442.838 875.5,447C 877.883,447.065 878.55,447.898 877.5,449.5C 873.888,450.547 870.221,451.38 866.5,452C 868.21,459.599 870.377,467.099 873,474.5C 873.167,476.5 873.333,478.5 873.5,480.5C 874.151,486.68 871.484,488.846 865.5,487C 863.811,484.443 862.644,481.609 862,478.5C 853.951,486.507 844.451,488.673 833.5,485C 824.558,478.655 818.391,470.155 815,459.5C 809.463,470.451 800.629,474.284 788.5,471C 775.543,468.541 768.876,460.708 768.5,447.5C 769.066,442.841 769.566,438.174 770,433.5C 770.956,432.106 772.289,431.439 774,431.5C 775.825,431.943 777.658,432.277 779.5,432.5C 779.5,433.833 779.5,435.167 779.5,436.5C 778.5,436.5 777.5,436.5 776.5,436.5C 773.32,455.81 781.32,464.644 800.5,463C 805.765,460.016 809.265,455.516 811,449.5C 811.698,443.476 811.532,437.476 810.5,431.5C 811.797,424.351 815.797,422.185 822.5,425C 823.701,425.903 824.535,427.069 825,428.5C 824.345,444.404 828.845,458.571 838.5,471C 844.192,472.297 849.692,474.13 855,476.5C 858.374,476.332 860.541,474.665 861.5,471.5C 856.362,464.892 852.529,457.559 850,449.5C 844.738,432.148 849.904,419.314 865.5,411C 869.846,409.164 874.179,407.664 878.5,406.5 Z M 883.5,418.5 C 877.538,420.107 871.872,422.607 866.5,426C 862.965,428.707 861.798,432.207 863,436.5C 872.734,432.05 882.234,427.217 891.5,422C 892.357,421.311 893.023,420.478 893.5,419.5C 890.232,418.513 886.898,418.18 883.5,418.5 Z"/></g>
<g><path style="opacity:0.836" fill="#000000" d="M 451.5,1080.5 C 455.909,1079.62 459.409,1080.95 462,1084.5C 461.856,1099.82 461.689,1115.16 461.5,1130.5C 484.611,1125.93 507.944,1124.43 531.5,1126C 535.462,1127.26 537.795,1129.93 538.5,1134C 537.029,1137.78 535.695,1141.61 534.5,1145.5C 533.675,1146.39 532.675,1146.72 531.5,1146.5C 531.5,1144.5 531.5,1142.5 531.5,1140.5C 507.912,1138.6 484.579,1140.26 461.5,1145.5C 461.855,1155.44 463.688,1165.11 467,1174.5C 467.904,1180.14 468.404,1185.8 468.5,1191.5C 467.127,1191.66 465.793,1191.49 464.5,1191C 454.636,1182.44 449.136,1171.61 448,1158.5C 445.586,1156.19 442.753,1154.52 439.5,1153.5C 432.113,1142.87 434.78,1136.54 447.5,1134.5C 447.333,1118.16 447.5,1101.83 448,1085.5C 448.997,1083.68 450.164,1082.01 451.5,1080.5 Z"/></g>
<g><path style="opacity:0.825" fill="#000000" d="M 2076.5,1104.5 C 2081.68,1103.7 2086.18,1105.04 2090,1108.5C 2096.84,1119.17 2101,1130.84 2102.5,1143.5C 2100.86,1143.71 2099.36,1143.38 2098,1142.5C 2095.06,1137.63 2092.4,1132.63 2090,1127.5C 2087.89,1124.93 2085.55,1122.6 2083,1120.5C 2071.04,1159.55 2068.04,1199.22 2074,1239.5C 2077.45,1246.61 2082.61,1252.11 2089.5,1256C 2098.59,1259.38 2107.26,1263.55 2115.5,1268.5C 2116.39,1269.32 2116.72,1270.32 2116.5,1271.5C 2113.01,1271.71 2109.68,1272.54 2106.5,1274C 2098.78,1274.9 2091.45,1273.57 2084.5,1270C 2081.96,1268.23 2079.29,1266.73 2076.5,1265.5C 2068.43,1267.01 2060.43,1268.85 2052.5,1271C 2039.8,1271.76 2027.14,1271.43 2014.5,1270C 1997.97,1267.77 1991.81,1258.61 1996,1242.5C 2004.88,1224.31 2019.38,1216.48 2039.5,1219C 2044.4,1219.89 2046.57,1222.72 2046,1227.5C 2044.18,1229.1 2043.02,1231.1 2042.5,1233.5C 2028.76,1230.11 2017.93,1234.44 2010,1246.5C 2009.19,1248.9 2009.35,1251.24 2010.5,1253.5C 2013.37,1254.77 2016.37,1255.61 2019.5,1256C 2030.81,1257.01 2042.14,1257.68 2053.5,1258C 2059.66,1260.3 2065.99,1261.3 2072.5,1261C 2062.95,1252.75 2057.79,1242.25 2057,1229.5C 2054.19,1189.68 2058.52,1150.68 2070,1112.5C 2071.3,1109.04 2073.47,1106.37 2076.5,1104.5 Z"/></g>
<g><path style="opacity:0.833" fill="#000000" d="M 207.5,1116.5 C 210.972,1115.96 213.805,1116.96 216,1119.5C 219.772,1129.92 222.606,1140.59 224.5,1151.5C 226.446,1140.39 232.78,1133.22 243.5,1130C 267.397,1124.06 281.397,1133.23 285.5,1157.5C 288.167,1157.5 290.833,1157.5 293.5,1157.5C 293.916,1137.58 304.082,1127.58 324,1127.5C 334.752,1126.64 344.418,1129.31 353,1135.5C 359.972,1145.91 360.305,1156.58 354,1167.5C 351.269,1170.71 347.769,1172.21 343.5,1172C 332.833,1172.33 322.167,1172.67 311.5,1173C 315.007,1175.25 318.673,1177.25 322.5,1179C 331.066,1180.52 339.4,1182.86 347.5,1186C 349.81,1186.5 352.143,1186.66 354.5,1186.5C 354.64,1188.12 353.973,1189.29 352.5,1190C 331.179,1199.19 312.679,1195.36 297,1178.5C 296.207,1174.55 293.873,1172.21 290,1171.5C 289.586,1171.96 289.086,1172.29 288.5,1172.5C 287.668,1181.82 287.168,1191.15 287,1200.5C 284.794,1204.13 281.627,1205.29 277.5,1204C 275.741,1202.99 274.574,1201.49 274,1199.5C 273.667,1189.83 273.333,1180.17 273,1170.5C 273.053,1160.17 269.553,1151.33 262.5,1144C 256.518,1142.77 250.518,1143.1 244.5,1145C 243.333,1146.17 242.167,1147.33 241,1148.5C 237.746,1162.1 234.746,1175.77 232,1189.5C 230.143,1195.18 226.309,1197.35 220.5,1196C 218.448,1195.07 216.948,1193.57 216,1191.5C 212.92,1167.77 209.42,1144.11 205.5,1120.5C 205.752,1118.93 206.418,1117.59 207.5,1116.5 Z M 316.5,1142.5 C 310.224,1145.36 307.224,1150.36 307.5,1157.5C 319.518,1157.83 331.518,1157.5 343.5,1156.5C 346.606,1148.54 343.939,1144.04 335.5,1143C 329.175,1142.5 322.842,1142.33 316.5,1142.5 Z"/></g>
<g><path style="opacity:0.828" fill="#000000" d="M 379.5,1120.5 C 385.176,1120.33 390.843,1120.5 396.5,1121C 400.758,1122.52 403.091,1125.52 403.5,1130C 403.019,1134.76 401.686,1139.26 399.5,1143.5C 398.5,1144.83 397.5,1144.83 396.5,1143.5C 395.833,1140.83 395.167,1138.17 394.5,1135.5C 392.235,1134.35 389.902,1134.19 387.5,1135C 388.255,1137.17 389.088,1139.34 390,1141.5C 394.247,1144.71 398.747,1147.54 403.5,1150C 413.178,1153.67 422.844,1157.34 432.5,1161C 436.601,1165.29 436.268,1169.29 431.5,1173C 421.463,1173.2 411.463,1173.87 401.5,1175C 400.663,1176.01 400.33,1177.18 400.5,1178.5C 396.432,1179.94 392.265,1181.27 388,1182.5C 381.434,1181.68 378.434,1178.02 379,1171.5C 379.667,1170.17 380.333,1168.83 381,1167.5C 384.882,1164.76 389.049,1162.6 393.5,1161C 376.373,1153.59 370.539,1141.09 376,1123.5C 377.145,1122.36 378.312,1121.36 379.5,1120.5 Z"/></g>
<g><path style="opacity:0.84" fill="#000000" d="M 1852.5,1150.5 C 1862.69,1149.98 1872.35,1151.81 1881.5,1156C 1887.14,1161.43 1889.81,1167.93 1889.5,1175.5C 1889,1176.52 1888.33,1176.69 1887.5,1176C 1886.42,1172.09 1884.59,1168.59 1882,1165.5C 1879.71,1164.01 1877.21,1163.01 1874.5,1162.5C 1865.17,1164.04 1855.84,1165.54 1846.5,1167C 1834.12,1170.6 1826.95,1178.77 1825,1191.5C 1824.33,1202.5 1824.33,1213.5 1825,1224.5C 1828.68,1223.14 1832.52,1222.47 1836.5,1222.5C 1836.76,1223.98 1836.43,1225.31 1835.5,1226.5C 1832.16,1229.17 1828.5,1231.34 1824.5,1233C 1824.83,1233.33 1825.17,1233.67 1825.5,1234C 1845.82,1235.41 1866.15,1235.74 1886.5,1235C 1890.08,1232.81 1893.74,1230.81 1897.5,1229C 1912.34,1227.81 1926.68,1229.98 1940.5,1235.5C 1941.32,1232.55 1941.82,1229.55 1942,1226.5C 1942.83,1225.67 1943.67,1224.83 1944.5,1224C 1961.1,1219.87 1975.27,1224.03 1987,1236.5C 1988.59,1238.67 1989.92,1241 1991,1243.5C 1991.67,1249.17 1991.67,1254.83 1991,1260.5C 1985.17,1265 1978.5,1267.33 1971,1267.5C 1966.5,1267.14 1962.17,1266.14 1958,1264.5C 1943.4,1284.88 1923.56,1293.38 1898.5,1290C 1869.81,1288.43 1861.81,1274.6 1874.5,1248.5C 1874.17,1248.17 1873.83,1247.83 1873.5,1247.5C 1857.89,1249.66 1842.22,1249.99 1826.5,1248.5C 1828.63,1263.51 1831.63,1278.34 1835.5,1293C 1835.7,1295.35 1835.03,1297.35 1833.5,1299C 1827.14,1300.21 1822.98,1297.71 1821,1291.5C 1816.17,1276.5 1812.83,1261.17 1811,1245.5C 1801.46,1239.58 1801.13,1233.24 1810,1226.5C 1809.47,1211.81 1810.14,1197.14 1812,1182.5C 1818.93,1163.39 1832.43,1152.72 1852.5,1150.5 Z M 1955.5,1240.5 C 1956.08,1246.59 1959.41,1250.42 1965.5,1252C 1971.47,1252.71 1977.3,1253.87 1983,1255.5C 1983.71,1253.03 1983.37,1250.7 1982,1248.5C 1974.3,1241.74 1965.47,1239.07 1955.5,1240.5 Z M 1896.5,1244.5 C 1891.73,1248.77 1887.9,1253.77 1885,1259.5C 1883.68,1263.43 1883.34,1267.43 1884,1271.5C 1885.17,1272.89 1886.67,1273.73 1888.5,1274C 1902.16,1275.98 1915.83,1275.98 1929.5,1274C 1938.69,1272.75 1945.36,1268.09 1949.5,1260C 1946.79,1257.63 1944.46,1254.96 1942.5,1252C 1940.28,1250.72 1937.95,1249.72 1935.5,1249C 1922.51,1247.25 1909.51,1245.75 1896.5,1244.5 Z"/></g>
<g><path style="opacity:0.826" fill="#000000" d="M 1739.5,1882.5 C 1744.57,1882.34 1749.57,1882.84 1754.5,1884C 1769.61,1890.55 1784.94,1896.55 1800.5,1902C 1811.97,1905.3 1823.63,1907.63 1835.5,1909C 1849.65,1916.18 1848.82,1921.02 1833,1923.5C 1817.15,1921.53 1801.65,1918.03 1786.5,1913C 1773.47,1907.81 1760.47,1902.65 1747.5,1897.5C 1747.5,1899.83 1747.5,1902.17 1747.5,1904.5C 1749.2,1904.34 1750.87,1904.51 1752.5,1905C 1812.3,1948.13 1870.97,1992.8 1928.5,2039C 1934.1,2044.05 1939.6,2049.22 1945,2054.5C 1948.5,2065 1945,2068.5 1934.5,2065C 1927.17,2058.33 1919.83,2051.67 1912.5,2045C 1888.5,2026 1864.5,2007 1840.5,1988C 1810.6,1965.47 1780.43,1943.3 1750,1921.5C 1752.41,1933.49 1754.25,1945.66 1755.5,1958C 1753.99,1965.54 1749.82,1967.71 1743,1964.5C 1742.03,1962.61 1741.36,1960.61 1741,1958.5C 1735.28,1950.37 1730.11,1942.03 1725.5,1933.5C 1727.59,1933.32 1729.59,1933.65 1731.5,1934.5C 1734.75,1938 1737.25,1942 1739,1946.5C 1737.61,1936.19 1735.94,1925.86 1734,1915.5C 1733.33,1906.5 1733.33,1897.5 1734,1888.5C 1735.36,1885.98 1737.19,1883.98 1739.5,1882.5 Z"/></g>
<g><path style="opacity:0.8" fill="#000000" d="M 740.5,1940.5 C 747.413,1938.94 750.747,1941.6 750.5,1948.5C 745.031,1966.37 739.864,1984.37 735,2002.5C 734.179,2005.55 734.345,2008.55 735.5,2011.5C 738.039,2012.12 740.539,2012.78 743,2013.5C 748.58,2012.37 753.746,2010.37 758.5,2007.5C 758.649,2008.55 758.483,2009.55 758,2010.5C 749.325,2017.12 739.491,2021.12 728.5,2022.5C 724.896,2022.45 722.396,2020.78 721,2017.5C 720.178,2009.45 720.512,2001.45 722,1993.5C 726.394,1977.32 731.394,1961.32 737,1945.5C 737.697,1943.42 738.864,1941.75 740.5,1940.5 Z"/></g>
<g><path style="opacity:0.809" fill="#000000" d="M 790.5,1973.5 C 797.779,1972.28 799.779,1974.78 796.5,1981C 822.799,1983.62 833.299,1997.78 828,2023.5C 823.822,2037.85 814.322,2043.35 799.5,2040C 790.82,2038.99 784.654,2034.49 781,2026.5C 779.405,2011.86 780.738,1997.52 785,1983.5C 786.592,1979.98 788.425,1976.65 790.5,1973.5 Z M 800.5,1996.5 C 799.986,1998.51 799.82,2000.51 800,2002.5C 802.131,2005.1 803.965,2007.77 805.5,2010.5C 799.839,2010.42 796.005,2007.76 794,2002.5C 793.123,2009.25 793.456,2015.92 795,2022.5C 797.753,2025.95 801.419,2027.62 806,2027.5C 810.833,2027.67 813.5,2025.33 814,2020.5C 818.55,2007.31 814.05,1999.31 800.5,1996.5 Z"/></g>
<g><path style="opacity:0.821" fill="#000000" d="M 874.5,2016.5 C 876.5,2016.5 878.5,2016.5 880.5,2016.5C 877.138,2025.76 874.471,2035.26 872.5,2045C 872.667,2045.5 872.833,2046 873,2046.5C 878.667,2041.17 882.167,2034.67 883.5,2027C 886.791,2024.93 889.957,2025.09 893,2027.5C 893.75,2037.01 892.75,2046.34 890,2055.5C 888.919,2064.13 888.419,2072.8 888.5,2081.5C 891.271,2081.58 893.937,2081.08 896.5,2080C 903.501,2074.59 911.001,2070.09 919,2066.5C 919.772,2066.64 920.439,2066.98 921,2067.5C 921.333,2069.17 921.667,2070.83 922,2072.5C 924.982,2062.37 930.148,2053.53 937.5,2046C 959.654,2039.15 967.82,2046.99 962,2069.5C 959.833,2073 957,2075.83 953.5,2078C 947.549,2079.03 941.549,2079.86 935.5,2080.5C 934.167,2088.5 934.167,2096.5 935.5,2104.5C 939.041,2106.43 942.707,2107.93 946.5,2109C 949.757,2110.04 953.09,2110.54 956.5,2110.5C 956.709,2112.71 955.876,2114.38 954,2115.5C 946.563,2119.79 938.73,2120.96 930.5,2119C 923.557,2115.29 920.057,2109.46 920,2101.5C 919.794,2092.12 920.127,2082.78 921,2073.5C 913.551,2090.91 900.384,2098.08 881.5,2095C 879.376,2093.88 877.543,2092.38 876,2090.5C 874.73,2082.6 874.063,2074.6 874,2066.5C 870.979,2072.59 866.146,2075.42 859.5,2075C 855.765,2073.2 854.098,2070.2 854.5,2066C 858.022,2048.14 864.689,2031.64 874.5,2016.5 Z M 952.5,2054.5 C 946.182,2056.31 941.848,2060.48 939.5,2067C 949.804,2068.53 954.137,2064.36 952.5,2054.5 Z"/></g>
<g><path style="opacity:0.837" fill="#000000" d="M 1849.5,2041.5 C 1855,2040.41 1858.33,2042.58 1859.5,2048C 1858.36,2064.13 1858.19,2080.3 1859,2096.5C 1859.4,2105.19 1861.9,2113.19 1866.5,2120.5C 1867.65,2118.85 1868.98,2117.35 1870.5,2116C 1888.85,2115.01 1905.85,2119.34 1921.5,2129C 1929.14,2138.73 1929.47,2148.73 1922.5,2159C 1903.88,2165.54 1886.88,2162.54 1871.5,2150C 1856.77,2137.05 1847.94,2120.88 1845,2101.5C 1844.33,2083.5 1844.33,2065.5 1845,2047.5C 1845.8,2044.85 1847.3,2042.85 1849.5,2041.5 Z M 1873.5,2131.5 C 1873.56,2130.96 1873.89,2130.62 1874.5,2130.5C 1880.22,2132.96 1886.22,2134.62 1892.5,2135.5C 1893.74,2134.96 1894.91,2134.3 1896,2133.5C 1901.7,2135.02 1907.03,2137.35 1912,2140.5C 1912.67,2142.83 1912.67,2145.17 1912,2147.5C 1902.59,2148.88 1893.76,2147.05 1885.5,2142C 1881.33,2138.66 1877.33,2135.16 1873.5,2131.5 Z"/></g>
<g><path style="opacity:0.783" fill="#000000" d="M 409.5,2043.5 C 415.04,2042.43 418.373,2044.6 419.5,2050C 419.18,2058.82 419.68,2067.65 421,2076.5C 426.279,2103.84 431.445,2131.18 436.5,2158.5C 433,2165.61 428.5,2166.28 423,2160.5C 421.601,2157.64 420.601,2154.64 420,2151.5C 416.439,2126.36 412.105,2101.36 407,2076.5C 406.333,2066.83 406.333,2057.17 407,2047.5C 407.662,2046.02 408.496,2044.68 409.5,2043.5 Z"/></g>
<g><path style="opacity:0.828" fill="#000000" d="M 442.5,2059.5 C 449.44,2059.44 453.773,2062.77 455.5,2069.5C 454.5,2069.5 453.5,2069.5 452.5,2069.5C 452.49,2075.28 453.323,2080.95 455,2086.5C 459.813,2101.1 464.313,2115.77 468.5,2130.5C 474.553,2122.28 482.219,2116.11 491.5,2112C 499.436,2110.47 507.436,2110.14 515.5,2111C 521.563,2113.73 526.397,2117.9 530,2123.5C 534.148,2130.94 537.314,2138.78 539.5,2147C 537.518,2153.44 533.518,2155.11 527.5,2152C 523.732,2143.63 519.565,2135.46 515,2127.5C 506.639,2123.29 498.472,2123.79 490.5,2129C 483.427,2135.4 477.094,2142.4 471.5,2150C 466.285,2153.49 461.452,2152.99 457,2148.5C 455.146,2139.08 452.979,2129.75 450.5,2120.5C 446.42,2120.42 442.587,2119.42 439,2117.5C 438.29,2118.97 437.124,2119.64 435.5,2119.5C 435.203,2115.67 433.37,2112.67 430,2110.5C 427.154,2102.03 429.987,2098.53 438.5,2100C 440.348,2102.18 442.515,2104.01 445,2105.5C 442.833,2097.31 440.833,2088.97 439,2080.5C 438.333,2074.83 438.333,2069.17 439,2063.5C 440.032,2061.97 441.199,2060.64 442.5,2059.5 Z"/></g>
<g><path style="opacity:0.807" fill="#000000" d="M 988.5,2078.5 C 1003.99,2075.09 1014.99,2080.42 1021.5,2094.5C 1020.83,2094.83 1020.17,2095.17 1019.5,2095.5C 1017.41,2093.12 1014.74,2091.79 1011.5,2091.5C 1003.04,2091.98 994.703,2093.15 986.5,2095C 985.866,2097.07 985.532,2099.24 985.5,2101.5C 986.03,2107.62 987.196,2113.62 989,2119.5C 991.609,2127.34 989.109,2132.34 981.5,2134.5C 976.253,2133.75 973.086,2130.75 972,2125.5C 970.142,2113.83 970.142,2102.16 972,2090.5C 975.513,2083.67 981.013,2079.67 988.5,2078.5 Z"/></g>
<g><path style="opacity:0.824" fill="#000000" d="M 2228.5,2079.5 C 2234.21,2078.95 2239.38,2080.29 2244,2083.5C 2244.5,2085.47 2244.66,2087.47 2244.5,2089.5C 2242.17,2089.5 2239.83,2089.5 2237.5,2089.5C 2234.2,2103.41 2238.54,2114.24 2250.5,2122C 2256.75,2125.71 2262.92,2129.54 2269,2133.5C 2272.34,2138.81 2271.18,2142.98 2265.5,2146C 2251.83,2146.54 2238.49,2148.87 2225.5,2153C 2220.86,2153.83 2216.2,2154.33 2211.5,2154.5C 2211.03,2148.81 2213.03,2144.31 2217.5,2141C 2225.46,2136.95 2233.8,2134.28 2242.5,2133C 2225.05,2121.82 2218.89,2105.99 2224,2085.5C 2224.8,2082.85 2226.3,2080.85 2228.5,2079.5 Z"/></g>
<g><path style="opacity:0.82" fill="#000000" d="M 250.5,2080.5 C 262.273,2081.25 272.273,2085.75 280.5,2094C 288.788,2093.75 296.788,2095.08 304.5,2098C 311.919,2102.12 319.086,2106.62 326,2111.5C 328.498,2104.16 331.665,2097.16 335.5,2090.5C 339.09,2088.03 343.09,2087.03 347.5,2087.5C 347.675,2090.33 346.342,2092 343.5,2092.5C 339.998,2102.18 337.998,2112.18 337.5,2122.5C 339.564,2122.31 341.564,2121.81 343.5,2121C 354.221,2114.3 364.221,2106.64 373.5,2098C 379.822,2094.81 383.989,2096.64 386,2103.5C 388.821,2111.79 391.488,2120.12 394,2128.5C 396.342,2132.21 399.342,2135.21 403,2137.5C 403.749,2138.64 403.583,2139.64 402.5,2140.5C 397.554,2141.61 392.554,2141.78 387.5,2141C 386,2139.5 384.5,2138 383,2136.5C 379.388,2128.05 376.388,2119.39 374,2110.5C 367.833,2116.67 361.667,2122.83 355.5,2129C 346.546,2136.61 336.546,2138.45 325.5,2134.5C 312.135,2142.39 298.135,2148.73 283.5,2153.5C 283.371,2161.35 283.705,2169.19 284.5,2177C 284.793,2182.13 283.126,2186.46 279.5,2190C 272.34,2190.87 267.84,2187.7 266,2180.5C 258.04,2158.62 251.706,2136.29 247,2113.5C 246.333,2104.17 246.333,2094.83 247,2085.5C 247.697,2083.42 248.864,2081.75 250.5,2080.5 Z M 260.5,2088.5 C 265.293,2089.23 269.626,2091.06 273.5,2094C 271.667,2095.17 270.167,2096.67 269,2098.5C 268.84,2113.17 268.84,2127.84 269,2142.5C 262.092,2125.13 259.259,2107.13 260.5,2088.5 Z M 282.5,2107.5 C 295.345,2108.76 306.679,2113.59 316.5,2122C 306.15,2128.43 295.316,2133.93 284,2138.5C 282.868,2128.2 282.368,2117.86 282.5,2107.5 Z"/></g>
<g><path style="opacity:0.799" fill="#000000" d="M 2129.5,2081.5 C 2131.79,2081.24 2133.96,2081.58 2136,2082.5C 2139.32,2095.14 2142.66,2107.81 2146,2120.5C 2146.41,2120.96 2146.91,2121.29 2147.5,2121.5C 2151.79,2120.01 2156.12,2118.68 2160.5,2117.5C 2165.4,2110.09 2171.74,2104.26 2179.5,2100C 2186.42,2098.45 2193.42,2098.12 2200.5,2099C 2204.61,2100.39 2206.94,2103.22 2207.5,2107.5C 2206.78,2114.5 2204.44,2120.83 2200.5,2126.5C 2199.97,2127.19 2199.31,2127.69 2198.5,2128C 2188.38,2128.4 2178.38,2129.56 2168.5,2131.5C 2165.42,2135.9 2163.42,2140.73 2162.5,2146C 2174.17,2146.67 2185.83,2146.67 2197.5,2146C 2199.13,2144.2 2201.13,2143.03 2203.5,2142.5C 2204.17,2142.83 2204.83,2143.17 2205.5,2143.5C 2203.16,2151.34 2198.16,2156.84 2190.5,2160C 2178.38,2162.29 2166.38,2161.96 2154.5,2159C 2151.89,2157.06 2150.06,2154.56 2149,2151.5C 2148.85,2146.43 2148.68,2141.43 2148.5,2136.5C 2146.64,2137.53 2145.31,2139.03 2144.5,2141C 2139.81,2143.53 2135.98,2142.7 2133,2138.5C 2134.12,2124.31 2132.78,2110.31 2129,2096.5C 2126.98,2100.53 2124.98,2104.53 2123,2108.5C 2120.93,2109.26 2118.76,2109.76 2116.5,2110C 2115.3,2110.9 2114.47,2112.07 2114,2113.5C 2109.19,2126.09 2106.36,2139.09 2105.5,2152.5C 2116.36,2155.23 2125.03,2152.07 2131.5,2143C 2132.45,2142.52 2133.45,2142.35 2134.5,2142.5C 2129.88,2160.97 2118.21,2168.8 2099.5,2166C 2095.23,2164.73 2092.73,2161.9 2092,2157.5C 2091.21,2151.45 2091.38,2145.45 2092.5,2139.5C 2087.97,2137.4 2083.97,2134.57 2080.5,2131C 2066.74,2127.29 2055.24,2130.79 2046,2141.5C 2044.72,2145.04 2042.89,2148.2 2040.5,2151C 2037.41,2151.85 2034.58,2151.35 2032,2149.5C 2029.37,2144.85 2026.7,2140.19 2024,2135.5C 2020.52,2133.04 2017.52,2133.7 2015,2137.5C 2011.76,2147.41 2005.59,2154.91 1996.5,2160C 1990.17,2160.67 1983.83,2160.67 1977.5,2160C 1975.95,2158.79 1974.78,2157.29 1974,2155.5C 1973.8,2146.79 1973.64,2138.12 1973.5,2129.5C 1964.21,2132.07 1955.21,2135.4 1946.5,2139.5C 1945.67,2146.48 1945.17,2153.48 1945,2160.5C 1942.49,2165.62 1938.66,2166.79 1933.5,2164C 1932.87,2163.25 1932.37,2162.42 1932,2161.5C 1931.33,2152.5 1931.33,2143.5 1932,2134.5C 1933.17,2132.67 1934.33,2130.83 1935.5,2129C 1947.66,2120.67 1960.99,2118.17 1975.5,2121.5C 1978.91,2120.39 1982.41,2119.39 1986,2118.5C 1989.83,2119.04 1993.66,2119.54 1997.5,2120C 1999.7,2121.67 2000.03,2123.67 1998.5,2126C 1994.35,2126.53 1990.52,2127.69 1987,2129.5C 1985.26,2136.13 1985.09,2142.79 1986.5,2149.5C 1997.71,2149.39 2005.38,2144.05 2009.5,2133.5C 2018.21,2126.39 2026.38,2127.05 2034,2135.5C 2043.41,2121.96 2056.41,2115.96 2073,2117.5C 2081.84,2116.92 2089.18,2119.92 2095,2126.5C 2098.88,2119.24 2103.38,2112.41 2108.5,2106C 2112.43,2104.97 2116.43,2104.14 2120.5,2103.5C 2124.28,2096.49 2127.28,2089.15 2129.5,2081.5 Z M 2187.5,2112.5 C 2190.17,2112.5 2192.83,2112.5 2195.5,2112.5C 2194.83,2115.17 2194.17,2117.83 2193.5,2120.5C 2188.5,2120.11 2183.5,2119.61 2178.5,2119C 2180.9,2115.82 2183.9,2113.65 2187.5,2112.5 Z"/></g>
<g><path style="opacity:0.84" fill="#000000" d="M 2423.5,2137.5 C 2441.97,2135.81 2449.47,2144.14 2446,2162.5C 2443.94,2171.55 2439.11,2178.72 2431.5,2184C 2426.29,2187.1 2420.96,2189.94 2415.5,2192.5C 2412.08,2202.83 2415.41,2209.66 2425.5,2213C 2428.5,2213.33 2431.5,2213.67 2434.5,2214C 2438.56,2215.95 2440.06,2219.11 2439,2223.5C 2438.5,2225.33 2437.33,2226.5 2435.5,2227C 2411,2228.67 2399,2217.17 2399.5,2192.5C 2397.71,2192.04 2396.71,2190.87 2396.5,2189C 2397.23,2185.8 2398.56,2182.97 2400.5,2180.5C 2401.79,2164.76 2407.79,2151.26 2418.5,2140C 2420.31,2139.24 2421.98,2138.41 2423.5,2137.5 Z M 2427.5,2151.5 C 2429.17,2151.5 2430.83,2151.5 2432.5,2151.5C 2433.6,2164.54 2427.93,2172.71 2415.5,2176C 2417.25,2166.67 2421.25,2158.51 2427.5,2151.5 Z"/></g>
<g><path style="opacity:0.789" fill="#000000" d="M 1123.5,2157.5 C 1131.8,2156.83 1139.8,2158 1147.5,2161C 1150.87,2163.7 1152.2,2167.2 1151.5,2171.5C 1150.5,2171.5 1149.5,2171.5 1148.5,2171.5C 1148.4,2168.73 1147.07,2166.73 1144.5,2165.5C 1138.4,2166.59 1132.73,2168.76 1127.5,2172C 1125,2173.17 1123.17,2175 1122,2177.5C 1121.58,2181.87 1121.91,2186.2 1123,2190.5C 1126.18,2197.02 1128.34,2203.86 1129.5,2211C 1130.06,2218.44 1126.73,2221.77 1119.5,2221C 1118.67,2220.17 1117.83,2219.33 1117,2218.5C 1114.74,2209.72 1112.07,2201.05 1109,2192.5C 1107.67,2188.99 1105.17,2187.33 1101.5,2187.5C 1101.5,2186.17 1101.5,2184.83 1101.5,2183.5C 1103.5,2183.5 1105.5,2183.5 1107.5,2183.5C 1106.4,2175.11 1109.07,2168.27 1115.5,2163C 1118.41,2161.39 1121.07,2159.56 1123.5,2157.5 Z"/></g>
<g><path style="opacity:0.824" fill="#000000" d="M 1236.5,2165.5 C 1245.36,2164.4 1253.69,2165.9 1261.5,2170C 1268.61,2174.81 1274.78,2180.64 1280,2187.5C 1284.68,2196.19 1282.18,2200.36 1272.5,2200C 1266.85,2194.02 1260.85,2188.36 1254.5,2183C 1250.96,2180.15 1246.96,2179.15 1242.5,2180C 1241.81,2181.07 1241.31,2182.23 1241,2183.5C 1240.19,2191.41 1240.35,2199.25 1241.5,2207C 1240.44,2213.39 1236.77,2215.73 1230.5,2214C 1229.33,2212.83 1228.17,2211.67 1227,2210.5C 1226.33,2200.17 1226.33,2189.83 1227,2179.5C 1228.45,2173.58 1231.61,2168.92 1236.5,2165.5 Z"/></g>
<g><path style="opacity:0.842" fill="#000000" d="M 384.5,2172.5 C 404.688,2169.58 422.188,2174.91 437,2188.5C 443.045,2199.04 440.878,2207.54 430.5,2214C 425.833,2216.67 421.167,2219.33 416.5,2222C 427.5,2222.33 438.5,2222.67 449.5,2223C 462.492,2226.81 467.326,2235.31 464,2248.5C 461.778,2252.39 458.612,2255.22 454.5,2257C 449.246,2258.65 443.913,2259.98 438.5,2261C 425.967,2261.2 413.467,2261.7 401,2262.5C 395.186,2261.52 392.853,2258.19 394,2252.5C 394.833,2250.33 396.333,2248.83 398.5,2248C 410.167,2247.67 421.833,2247.33 433.5,2247C 438.99,2246.29 444.323,2244.96 449.5,2243C 450.995,2239.35 449.661,2237.35 445.5,2237C 427.41,2236.97 409.41,2236.31 391.5,2235C 387.733,2230.63 387.567,2226.13 391,2221.5C 402.833,2213.67 414.667,2205.83 426.5,2198C 416.562,2189.8 405.062,2185.97 392,2186.5C 382.304,2186.13 373.471,2188.63 365.5,2194C 363.898,2195.93 362.731,2198.1 362,2200.5C 361.105,2209.95 361.771,2219.28 364,2228.5C 367.453,2237.41 371.453,2246.07 376,2254.5C 377.369,2258.27 378.536,2262.11 379.5,2266C 376.952,2275.3 372.118,2276.8 365,2270.5C 356.857,2255.08 348.523,2239.74 340,2224.5C 338.723,2220.9 338.39,2217.24 339,2213.5C 341.711,2212.07 344.211,2212.41 346.5,2214.5C 345.627,2188.05 358.293,2174.05 384.5,2172.5 Z"/></g>
<g><path style="opacity:0.794" fill="#000000" d="M 2120.5,2174.5 C 2127.89,2174.25 2135.22,2174.75 2142.5,2176C 2144.23,2178.9 2144.89,2182.07 2144.5,2185.5C 2143.17,2185.5 2141.83,2185.5 2140.5,2185.5C 2140.5,2183.83 2140.5,2182.17 2140.5,2180.5C 2137.76,2181.03 2135.1,2181.86 2132.5,2183C 2129.94,2185.53 2127.1,2187.7 2124,2189.5C 2123.33,2196.17 2123.33,2202.83 2124,2209.5C 2124.36,2211.61 2125.03,2213.61 2126,2215.5C 2135.68,2210.96 2145.85,2209.13 2156.5,2210C 2159.31,2211.74 2162.31,2212.91 2165.5,2213.5C 2165.84,2216.33 2164.84,2218.49 2162.5,2220C 2152.01,2222.19 2141.68,2225.03 2131.5,2228.5C 2131.17,2229 2130.83,2229.5 2130.5,2230C 2132.69,2236.51 2136.69,2241.51 2142.5,2245C 2139.28,2247.48 2135.61,2248.14 2131.5,2247C 2126.69,2242.37 2122.36,2237.37 2118.5,2232C 2109.42,2230.85 2107.42,2226.52 2112.5,2219C 2111.04,2216.73 2110.21,2214.23 2110,2211.5C 2109.33,2203.17 2109.33,2194.83 2110,2186.5C 2111,2184.5 2112,2182.5 2113,2180.5C 2115.69,2178.64 2118.19,2176.64 2120.5,2174.5 Z"/></g>
<g><path style="opacity:0.796" fill="#000000" d="M 1180.5,2176.5 C 1184.89,2177.2 1189.39,2178.2 1194,2179.5C 1199.59,2193.68 1205.43,2207.68 1211.5,2221.5C 1202.16,2222.41 1195.32,2218.75 1191,2210.5C 1190.06,2219.16 1186.9,2226.83 1181.5,2233.5C 1175.43,2239.19 1168.93,2239.86 1162,2235.5C 1159.53,2223.27 1160.53,2211.27 1165,2199.5C 1168,2193.83 1171,2188.17 1174,2182.5C 1176.06,2180.27 1178.23,2178.27 1180.5,2176.5 Z M 1181.5,2186.5 C 1176.96,2196.99 1174.8,2207.99 1175,2219.5C 1183.86,2209.66 1186.02,2198.66 1181.5,2186.5 Z"/></g>
<g><path style="opacity:0.839" fill="#000000" d="M 2262.5,2197.5 C 2266.86,2198.14 2270.2,2196.64 2272.5,2193C 2278.3,2190.62 2284.3,2190.62 2290.5,2193C 2299.65,2196.65 2307.48,2202.15 2314,2209.5C 2314.64,2212.11 2315.81,2214.45 2317.5,2216.5C 2319.64,2211.72 2322.64,2207.55 2326.5,2204C 2331.15,2202.39 2335.81,2202.22 2340.5,2203.5C 2342.05,2201.45 2344.05,2199.95 2346.5,2199C 2353.83,2198.33 2361.17,2198.33 2368.5,2199C 2374.21,2202.08 2379.88,2205.08 2385.5,2208C 2387.44,2208.91 2388.44,2210.41 2388.5,2212.5C 2383.55,2212.61 2378.72,2211.94 2374,2210.5C 2367.28,2212.18 2360.45,2212.85 2353.5,2212.5C 2353.67,2218.84 2353.5,2225.18 2353,2231.5C 2350.02,2235.7 2346.19,2236.53 2341.5,2234C 2340.87,2233.25 2340.37,2232.42 2340,2231.5C 2339.93,2224.99 2338.93,2218.66 2337,2212.5C 2334.67,2211.17 2332.33,2211.17 2330,2212.5C 2328.8,2215.09 2327.8,2217.76 2327,2220.5C 2326.62,2228.86 2325.96,2237.19 2325,2245.5C 2322.08,2248.61 2318.58,2249.28 2314.5,2247.5C 2312.93,2245.12 2312.1,2242.45 2312,2239.5C 2309,2247.16 2303.5,2252 2295.5,2254C 2288.83,2254.67 2282.17,2254.67 2275.5,2254C 2269.87,2252.76 2264.7,2250.6 2260,2247.5C 2244.56,2249.27 2229.39,2252.27 2214.5,2256.5C 2207.61,2255.01 2205.78,2251.01 2209,2244.5C 2210.58,2242.96 2212.41,2241.79 2214.5,2241C 2220.14,2239.54 2225.8,2238.21 2231.5,2237C 2226.04,2234.42 2223.04,2230.08 2222.5,2224C 2224.1,2208.8 2231.1,2196.8 2243.5,2188C 2252.02,2184.63 2259.02,2186.47 2264.5,2193.5C 2264.25,2195.07 2263.58,2196.41 2262.5,2197.5 Z M 2262.5,2197.5 C 2259.31,2200.56 2257.14,2204.22 2256,2208.5C 2255.5,2214.49 2255.33,2220.49 2255.5,2226.5C 2249.45,2226.27 2243.45,2225.6 2237.5,2224.5C 2238.66,2214.35 2243.33,2206.18 2251.5,2200C 2255.3,2199.59 2258.96,2198.76 2262.5,2197.5 Z M 2273.5,2204.5 C 2283.76,2205.38 2292.6,2209.38 2300,2216.5C 2301.83,2223.04 2301.16,2229.37 2298,2235.5C 2292.28,2240.66 2285.78,2241.83 2278.5,2239C 2281.25,2234.88 2280.59,2231.21 2276.5,2228C 2274.19,2227.5 2271.86,2227.34 2269.5,2227.5C 2269.33,2222.49 2269.5,2217.49 2270,2212.5C 2270.92,2209.66 2272.09,2207 2273.5,2204.5 Z"/></g>
<g><path style="opacity:0.822" fill="#000000" d="M 1940.5,2205.5 C 1952.37,2204.97 1964.04,2206.14 1975.5,2209C 1980.15,2211.99 1981.65,2216.15 1980,2221.5C 1978.26,2225.24 1975.76,2228.41 1972.5,2231C 1964.46,2237.52 1955.46,2242.18 1945.5,2245C 1938.76,2245.27 1932.09,2245.43 1925.5,2245.5C 1923.58,2250.35 1922.75,2255.35 1923,2260.5C 1924.83,2262.07 1926.99,2262.91 1929.5,2263C 1948.42,2263.65 1967.25,2263.15 1986,2261.5C 1987.58,2262.71 1987.74,2264.04 1986.5,2265.5C 1974.16,2275.96 1959.82,2279.96 1943.5,2277.5C 1911.9,2281.28 1901.57,2268.28 1912.5,2238.5C 1911.83,2238.17 1911.17,2237.83 1910.5,2237.5C 1903.53,2238.26 1896.53,2238.76 1889.5,2239C 1884.41,2239.47 1879.91,2241.3 1876,2244.5C 1875.53,2253.53 1875.53,2262.53 1876,2271.5C 1869.21,2276.46 1864.54,2274.79 1862,2266.5C 1859.37,2264.87 1857.04,2262.87 1855,2260.5C 1849.72,2252.22 1844.06,2244.22 1838,2236.5C 1835.17,2242.82 1831.84,2248.82 1828,2254.5C 1822.8,2258.32 1816.96,2259.49 1810.5,2258C 1808,2256.83 1806.17,2255 1805,2252.5C 1802.62,2237.38 1805.96,2223.71 1815,2211.5C 1816.41,2210.21 1817.91,2209.05 1819.5,2208C 1824.17,2207.33 1828.83,2207.33 1833.5,2208C 1837.84,2207.52 1840.84,2209.19 1842.5,2213C 1841.13,2216.54 1840.13,2220.21 1839.5,2224C 1843.76,2225.38 1847.26,2227.88 1850,2231.5C 1854.06,2236.56 1857.72,2241.89 1861,2247.5C 1863.61,2234.9 1871.44,2227.73 1884.5,2226C 1895.58,2225.29 1906.58,2225.63 1917.5,2227C 1922.82,2217.17 1930.49,2210.01 1940.5,2205.5 Z M 1834.5,2216.5 C 1835.27,2218.68 1835.93,2221.02 1836.5,2223.5C 1833.58,2224.54 1831.08,2226.21 1829,2228.5C 1825.67,2233.17 1822.33,2237.83 1819,2242.5C 1819.14,2233.71 1821.98,2225.88 1827.5,2219C 1830,2218.3 1832.34,2217.47 1834.5,2216.5 Z M 1948.5,2218.5 C 1954.18,2218.33 1959.84,2218.5 1965.5,2219C 1957.58,2226.88 1948.08,2231.71 1937,2233.5C 1935.03,2233.46 1933.2,2232.96 1931.5,2232C 1935.42,2225.07 1941.09,2220.57 1948.5,2218.5 Z"/></g>
<g><path style="opacity:0.823" fill="#000000" d="M 2066.5,2206.5 C 2081.77,2206.38 2092.93,2213.05 2100,2226.5C 2104.82,2245.69 2097.99,2258.53 2079.5,2265C 2066.83,2266.98 2054.16,2266.98 2041.5,2265C 2038.06,2263.9 2035.56,2261.73 2034,2258.5C 2030.8,2242.08 2035.63,2228.58 2048.5,2218C 2051.04,2216.25 2053.38,2214.25 2055.5,2212C 2059.4,2210.44 2063.07,2208.6 2066.5,2206.5 Z M 2062.5,2215.5 C 2064.56,2215.76 2065.9,2216.93 2066.5,2219C 2074.28,2220.25 2080.78,2223.75 2086,2229.5C 2090.13,2240.48 2086.63,2247.64 2075.5,2251C 2066.17,2252.69 2056.84,2252.85 2047.5,2251.5C 2047.86,2237.37 2052.86,2225.37 2062.5,2215.5 Z"/></g>
<g><path style="opacity:0.817" fill="#000000" d="M 2196.5,2316.5 C 2198.79,2316.24 2200.96,2316.58 2203,2317.5C 2205.85,2326.21 2209.52,2334.54 2214,2342.5C 2217.16,2351.48 2219.99,2360.48 2222.5,2369.5C 2250.88,2356.68 2271.71,2364.35 2285,2392.5C 2286.25,2401.25 2282.75,2404.08 2274.5,2401C 2269.98,2394.3 2264.98,2387.97 2259.5,2382C 2255.32,2379.1 2250.65,2377.94 2245.5,2378.5C 2230.69,2377.81 2222.52,2384.81 2221,2399.5C 2216.27,2402.6 2212.27,2401.93 2209,2397.5C 2208.85,2388.45 2208.18,2379.45 2207,2370.5C 2204.74,2373.43 2201.9,2375.6 2198.5,2377C 2192.36,2379.29 2186.03,2380.45 2179.5,2380.5C 2180.8,2388.9 2181.97,2397.23 2183,2405.5C 2178.74,2410.44 2174.08,2410.77 2169,2406.5C 2166.39,2401.62 2164.06,2396.62 2162,2391.5C 2155.75,2371.99 2149.58,2352.49 2143.5,2333C 2143.8,2322.84 2147.64,2321 2155,2327.5C 2160.23,2340.53 2165.07,2353.7 2169.5,2367C 2173.17,2367.67 2176.83,2367.67 2180.5,2367C 2186.14,2365.67 2191.8,2364.51 2197.5,2363.5C 2199.69,2363.71 2201.85,2364.04 2204,2364.5C 2204.83,2364.17 2205.67,2363.83 2206.5,2363.5C 2203.93,2350.57 2200.43,2337.91 2196,2325.5C 2195.26,2322.41 2195.43,2319.41 2196.5,2316.5 Z"/></g>
<g><path style="opacity:0.802" fill="#000000" d="M 1896.5,2334.5 C 1899.6,2334.15 1902.44,2334.82 1905,2336.5C 1908.85,2343.52 1913.68,2349.86 1919.5,2355.5C 1920.43,2356.69 1920.76,2358.02 1920.5,2359.5C 1914.75,2357.93 1910.25,2354.59 1907,2349.5C 1906.43,2373.51 1909.6,2397.01 1916.5,2420C 1916.91,2422.58 1915.91,2424.24 1913.5,2425C 1909.49,2426.1 1905.99,2425.26 1903,2422.5C 1900.57,2417.76 1898.9,2412.76 1898,2407.5C 1893.03,2385.08 1891.36,2362.41 1893,2339.5C 1893.7,2337.42 1894.86,2335.75 1896.5,2334.5 Z"/></g>
<g><path style="opacity:0.823" fill="#000000" d="M 1946.5,2352.5 C 1955.51,2352.33 1964.51,2352.5 1973.5,2353C 1986.08,2355.93 1990.91,2363.77 1988,2376.5C 1985.76,2383.07 1981.26,2387.24 1974.5,2389C 1962.94,2391.77 1951.27,2392.6 1939.5,2391.5C 1939.33,2398.84 1939.5,2406.17 1940,2413.5C 1942.32,2424.48 1948.82,2431.65 1959.5,2435C 1966.17,2435.67 1972.83,2435.67 1979.5,2435C 1984.7,2432.81 1989.7,2430.15 1994.5,2427C 1999.24,2421.79 2004.24,2416.79 2009.5,2412C 2006.37,2400.98 2005.87,2389.81 2008,2378.5C 2012.67,2371.74 2019.17,2367.91 2027.5,2367C 2036.83,2366.33 2046.17,2366.33 2055.5,2367C 2062.05,2368.94 2068.39,2371.44 2074.5,2374.5C 2079.9,2370.27 2085.23,2365.77 2090.5,2361C 2093.93,2358.57 2097.6,2356.57 2101.5,2355C 2113.31,2354.01 2124.97,2354.84 2136.5,2357.5C 2141.87,2388.86 2148.37,2420.19 2156,2451.5C 2157.72,2457.23 2157.72,2462.89 2156,2468.5C 2152.94,2472.3 2148.94,2473.97 2144,2473.5C 2118.87,2470.51 2094.71,2464.01 2071.5,2454C 2066.39,2449 2065.23,2443.17 2068,2436.5C 2070.13,2433.37 2072.63,2430.54 2075.5,2428C 2087.06,2421.46 2099.22,2416.29 2112,2412.5C 2112.33,2414.05 2111.83,2415.38 2110.5,2416.5C 2099.64,2423.35 2090.31,2432.02 2082.5,2442.5C 2090.2,2446.01 2098.2,2448.85 2106.5,2451C 2118.32,2454.46 2130.32,2456.96 2142.5,2458.5C 2137.89,2436.52 2133.39,2414.52 2129,2392.5C 2114.43,2413.02 2094.93,2419.85 2070.5,2413C 2068.08,2411.34 2066.25,2409.17 2065,2406.5C 2064.4,2400.05 2064.73,2393.72 2066,2387.5C 2055.73,2380.95 2044.56,2378.78 2032.5,2381C 2028.71,2381.37 2025.21,2382.54 2022,2384.5C 2020.66,2389.85 2021.66,2394.52 2025,2398.5C 2026.93,2403.87 2028.43,2409.37 2029.5,2415C 2029.07,2422.77 2025.07,2426.11 2017.5,2425C 2014.31,2423.31 2011.97,2420.81 2010.5,2417.5C 2003.05,2426.78 1995.05,2435.62 1986.5,2444C 1974.39,2451.15 1961.72,2452.15 1948.5,2447C 1931.3,2436.94 1923.63,2421.94 1925.5,2402C 1923.74,2385.17 1928.24,2370.34 1939,2357.5C 1941.48,2355.69 1943.98,2354.02 1946.5,2352.5 Z M 2126.5,2361.5 C 2128.2,2361.34 2129.87,2361.51 2131.5,2362C 2129.91,2366.31 2129.08,2370.81 2129,2375.5C 2122.53,2381.3 2116.03,2387.14 2109.5,2393C 2100.05,2400.12 2089.71,2402.29 2078.5,2399.5C 2079.43,2397.2 2080.27,2394.87 2081,2392.5C 2087.02,2392.38 2093.18,2392.38 2099.5,2392.5C 2099.76,2391.02 2099.43,2389.69 2098.5,2388.5C 2095.12,2386.43 2091.78,2384.26 2088.5,2382C 2098.59,2370.01 2111.25,2363.18 2126.5,2361.5 Z M 1954.5,2365.5 C 1961.28,2365.2 1967.95,2365.87 1974.5,2367.5C 1974.95,2370.36 1974.28,2372.86 1972.5,2375C 1962.48,2377.66 1952.48,2379.16 1942.5,2379.5C 1944.08,2376.01 1945.91,2372.67 1948,2369.5C 1949.79,2367.37 1951.96,2366.04 1954.5,2365.5 Z"/></g>
<g><path style="opacity:0.757" fill="#000000" d="M 1739.5,2361.5 C 1744.13,2360.46 1747.3,2362.12 1749,2366.5C 1749.49,2376.94 1750.82,2387.27 1753,2397.5C 1755.15,2398.11 1757.31,2398.78 1759.5,2399.5C 1761.52,2404.47 1759.85,2406.8 1754.5,2406.5C 1756.33,2418.45 1757.83,2430.45 1759,2442.5C 1760.67,2445.5 1762.33,2448.5 1764,2451.5C 1764.67,2462.83 1764.67,2474.17 1764,2485.5C 1761.49,2489.21 1757.99,2490.38 1753.5,2489C 1751.11,2487.05 1749.61,2484.55 1749,2481.5C 1746.37,2456.79 1743.37,2432.12 1740,2407.5C 1725.59,2406.1 1711.09,2405.43 1696.5,2405.5C 1696.82,2407.72 1696.16,2409.56 1694.5,2411C 1684.86,2410.71 1675.19,2411.04 1665.5,2412C 1632.35,2417.74 1599.01,2422.07 1565.5,2425C 1480.86,2428.78 1396.2,2431.62 1311.5,2433.5C 1277.49,2433.23 1243.49,2432.4 1209.5,2431C 1150.42,2425.4 1091.42,2419.07 1032.5,2412C 1015.84,2410.88 999.174,2409.88 982.5,2409C 907.84,2407.89 833.174,2407.39 758.5,2407.5C 687.158,2407.38 615.824,2407.88 544.5,2409C 537.833,2409.33 531.167,2409.67 524.5,2410C 521.026,2410.3 517.692,2411.13 514.5,2412.5C 513.797,2421.48 513.964,2430.48 515,2439.5C 519.67,2447.39 517.837,2453.06 509.5,2456.5C 505.967,2455.8 503.467,2453.8 502,2450.5C 500.355,2434.54 499.022,2418.54 498,2402.5C 496.937,2392.52 495.104,2382.69 492.5,2373C 492.982,2364.77 496.982,2362.1 504.5,2365C 509.315,2378.71 512.148,2392.88 513,2407.5C 513.75,2406.87 514.584,2406.37 515.5,2406C 559.977,2404.06 604.477,2402.9 649,2402.5C 745.495,2403.06 841.995,2403.23 938.5,2403C 971.524,2404.18 1004.52,2405.84 1037.5,2408C 1088.51,2412.93 1139.51,2417.93 1190.5,2423C 1250.12,2426.34 1309.79,2427.34 1369.5,2426C 1430.83,2423.58 1492.16,2421.24 1553.5,2419C 1585.76,2417.13 1617.76,2413.13 1649.5,2407C 1658.79,2405.62 1668.12,2404.78 1677.5,2404.5C 1677.05,2401.64 1677.72,2399.14 1679.5,2397C 1684.83,2396.33 1690.17,2396.33 1695.5,2397C 1700.49,2398.88 1705.66,2399.72 1711,2399.5C 1720.15,2398.8 1729.32,2398.47 1738.5,2398.5C 1735.93,2387.98 1735.1,2377.31 1736,2366.5C 1737,2364.68 1738.16,2363.01 1739.5,2361.5 Z"/></g>
<g><path style="opacity:0.822" fill="#000000" d="M 1067.5,2439.5 C 1071.08,2438.92 1074.08,2439.92 1076.5,2442.5C 1078.11,2447.02 1078.78,2451.69 1078.5,2456.5C 1095.09,2458.19 1111.76,2459.02 1128.5,2459C 1132.56,2460.95 1134.06,2464.11 1133,2468.5C 1131.89,2470.81 1130.06,2472.31 1127.5,2473C 1112.48,2473.52 1097.48,2473.52 1082.5,2473C 1092.32,2476.3 1102.32,2478.97 1112.5,2481C 1119.62,2485.88 1120.29,2491.54 1114.5,2498C 1100.43,2502.15 1086.1,2504.48 1071.5,2505C 1066.46,2501.99 1065.3,2497.82 1068,2492.5C 1072.65,2490.98 1077.49,2489.98 1082.5,2489.5C 1076.58,2486.95 1071.41,2483.28 1067,2478.5C 1063.15,2467.06 1062.49,2455.39 1065,2443.5C 1066.09,2442.31 1066.93,2440.97 1067.5,2439.5 Z"/></g>
<g><path style="opacity:0.757" fill="#000000" d="M 1047.5,2457.5 C 1049.72,2457.18 1051.56,2457.84 1053,2459.5C 1055.87,2473.72 1057.54,2488.06 1058,2502.5C 1052.74,2507.01 1048.4,2506.34 1045,2500.5C 1043.89,2489.52 1043.56,2478.52 1044,2467.5C 1044.29,2463.79 1045.46,2460.46 1047.5,2457.5 Z"/></g>
<g><path style="opacity:0.836" fill="#000000" d="M 1226.5,2462.5 C 1231.63,2462.11 1236.63,2462.61 1241.5,2464C 1245.83,2470.16 1248.5,2477 1249.5,2484.5C 1251.55,2482.81 1253.89,2481.64 1256.5,2481C 1262.83,2480.33 1269.17,2480.33 1275.5,2481C 1286.16,2485.99 1294.66,2493.49 1301,2503.5C 1302.91,2508.18 1302.91,2512.85 1301,2517.5C 1297.89,2520.72 1294.39,2521.22 1290.5,2519C 1287.53,2508.02 1280.86,2500.02 1270.5,2495C 1266.41,2494.23 1262.41,2494.57 1258.5,2496C 1254.12,2500.05 1249.45,2503.71 1244.5,2507C 1239.19,2508.43 1235.69,2506.6 1234,2501.5C 1233.94,2493.06 1233.27,2484.73 1232,2476.5C 1224.76,2488.54 1220.1,2501.54 1218,2515.5C 1216.31,2524.01 1211.64,2526.35 1204,2522.5C 1203.26,2520.78 1202.43,2519.11 1201.5,2517.5C 1192.05,2522.76 1181.88,2525.09 1171,2524.5C 1163.08,2524.83 1155.58,2523.33 1148.5,2520C 1141.46,2502.19 1144.12,2485.86 1156.5,2471C 1158.5,2470 1160.5,2469 1162.5,2468C 1168.5,2467.33 1174.5,2467.33 1180.5,2468C 1187.35,2472.81 1187.02,2477.14 1179.5,2481C 1175.5,2481.33 1171.5,2481.67 1167.5,2482C 1163.81,2485.38 1161.31,2489.54 1160,2494.5C 1158.84,2499.13 1158.5,2503.79 1159,2508.5C 1167.42,2509.65 1175.92,2509.82 1184.5,2509C 1189.28,2507.44 1193.61,2505.11 1197.5,2502C 1199.13,2501.51 1200.8,2501.34 1202.5,2501.5C 1202.07,2494.05 1202.57,2486.72 1204,2479.5C 1206.93,2476.13 1210.1,2475.8 1213.5,2478.5C 1216.43,2471.96 1220.76,2466.62 1226.5,2462.5 Z"/></g>
</svg>
