<?xml version="1.0" encoding="UTF-8"?>
<!DOCTYPE svg PUBLIC "-//W3C//DTD SVG 1.1//EN" "http://www.w3.org/Graphics/SVG/1.1/DTD/svg11.dtd">
<svg xmlns="http://www.w3.org/2000/svg" version="1.1" width="2550px" height="2550px" style="shape-rendering:geometricPrecision; text-rendering:geometricPrecision; image-rendering:optimizeQuality; fill-rule:evenodd; clip-rule:evenodd" xmlns:xlink="http://www.w3.org/1999/xlink">
<g><path style="opacity:0.812" fill="#000000" d="M 1187.5,254.5 C 1191.89,253.943 1195.06,255.61 1197,259.5C 1197.33,280.167 1197.67,300.833 1198,321.5C 1198.48,325.531 1199.15,329.531 1200,333.5C 1219.79,328.67 1239.62,328.503 1259.5,333C 1261.11,334.049 1261.77,335.549 1261.5,337.5C 1241.23,340.551 1220.89,343.218 1200.5,345.5C 1201.29,351.13 1201.63,356.797 1201.5,362.5C 1199.86,362.714 1198.36,362.38 1197,361.5C 1194.41,356.651 1192.08,351.651 1190,346.5C 1185.58,344.382 1184.42,341.049 1186.5,336.5C 1184.43,323.349 1182.77,310.182 1181.5,297C 1166.51,297.764 1151.51,298.764 1136.5,300C 1152.29,306.801 1165.79,316.634 1177,329.5C 1181.95,340.235 1178.45,345.402 1166.5,345C 1155.73,345.952 1145.07,345.619 1134.5,344C 1129.96,340.283 1129.62,336.283 1133.5,332C 1143.07,330.718 1152.73,330.051 1162.5,330C 1149.2,323.015 1135.86,316.015 1122.5,309C 1113.67,303.304 1112.33,296.304 1118.5,288C 1121.42,287.012 1124.42,286.346 1127.5,286C 1139.18,285.63 1150.84,285.963 1162.5,287C 1169.04,287.719 1175.37,289.219 1181.5,291.5C 1182.33,281.517 1182.83,271.517 1183,261.5C 1183.53,258.415 1185.03,256.082 1187.5,254.5 Z"/></g>
<g><path style="opacity:0.814" fill="#000000" d="M 1050.5,289.5 C 1063.38,288.687 1076.05,289.854 1088.5,293C 1095.13,295.63 1100.63,299.797 1105,305.5C 1107.92,311.325 1108.26,317.325 1106,323.5C 1100.86,327.482 1095.03,329.982 1088.5,331C 1079.53,332.531 1070.53,333.864 1061.5,335C 1069.12,336.374 1076.78,337.374 1084.5,338C 1090.7,339.922 1096.86,341.755 1103,343.5C 1103.62,344.449 1103.45,345.282 1102.5,346C 1081.27,352.463 1060.27,351.796 1039.5,344C 1034.9,341.785 1030.73,338.952 1027,335.5C 1026.01,336.43 1025.51,337.596 1025.5,339C 1026.33,341.478 1026.5,343.978 1026,346.5C 1024.26,349.351 1021.92,350.018 1019,348.5C 1015.41,338.155 1009.91,328.988 1002.5,321C 998.414,318.947 994.08,318.113 989.5,318.5C 989.24,334.777 989.073,351.11 989,367.5C 987.171,373.158 983.337,374.992 977.5,373C 975.951,371.786 974.785,370.286 974,368.5C 970.933,359.965 968.266,351.299 966,342.5C 963.048,334.304 959.715,326.304 956,318.5C 955.333,315.5 955.333,312.5 956,309.5C 958.333,306.833 960.667,306.833 963,309.5C 966.205,317.576 970.205,325.243 975,332.5C 975.728,327.467 975.561,322.467 974.5,317.5C 974.294,311.395 976.961,307.228 982.5,305C 1000.62,300.825 1013.79,306.992 1022,323.5C 1022.67,304.672 1032.17,293.339 1050.5,289.5 Z M 1072.5,302.5 C 1081.45,303.054 1089.78,305.554 1097.5,310C 1100.58,313.74 1100.91,317.574 1098.5,321.5C 1089.5,325.001 1080.17,327.167 1070.5,328C 1061.26,328.181 1052.09,328.681 1043,329.5C 1036.59,326.135 1034.92,321.135 1038,314.5C 1041.76,308.365 1047.26,304.865 1054.5,304C 1060.68,303.828 1066.68,303.328 1072.5,302.5 Z"/></g>
<g><path style="opacity:0.835" fill="#000000" d="M 1618.5,1343.5 C 1628.26,1311.37 1638.76,1279.37 1650,1247.5C 1653.46,1226.39 1657.46,1205.39 1662,1184.5C 1663.15,1176.18 1664.15,1167.85 1665,1159.5C 1670.39,1146.94 1674.39,1133.94 1677,1120.5C 1695.99,1073.76 1698.66,1026.09 1685,977.5C 1682.37,972.186 1679.7,966.853 1677,961.5C 1655.31,932.8 1636.64,902.133 1621,869.5C 1608.21,853.706 1595.04,838.206 1581.5,823C 1557.94,806.771 1534.94,789.771 1512.5,772C 1506.5,769 1500.5,766 1494.5,763C 1469.49,747.498 1444.83,731.498 1420.5,715C 1420.17,714.833 1419.83,714.667 1419.5,714.5C 1417.09,720.042 1413.09,721.708 1407.5,719.5C 1406.06,717.979 1405.4,716.145 1405.5,714C 1405.69,711.598 1406.19,709.431 1407,707.5C 1398.33,701.5 1389.16,696.333 1379.5,692C 1370.59,682.558 1360.59,674.558 1349.5,668C 1346.3,665.131 1343.46,661.965 1341,658.5C 1332,645.833 1323,633.167 1314,620.5C 1299.29,606.789 1285.62,592.122 1273,576.5C 1267.62,565.703 1262.62,554.703 1258,543.5C 1257.67,525.833 1257.33,508.167 1257,490.5C 1256.44,486.814 1255.77,483.147 1255,479.5C 1254.67,465.5 1254.33,451.5 1254,437.5C 1253.71,430.879 1252.71,424.546 1251,418.5C 1258.79,412.026 1264.12,413.692 1267,423.5C 1268.19,440.806 1268.86,458.139 1269,475.5C 1269.77,479.147 1270.44,482.814 1271,486.5C 1271.33,504.167 1271.67,521.833 1272,539.5C 1276.06,549.285 1280.39,558.952 1285,568.5C 1298.58,583.749 1312.58,598.749 1327,613.5C 1337.45,628.283 1348.28,642.783 1359.5,657C 1369.03,662.862 1377.7,669.862 1385.5,678C 1406.3,690.572 1427.3,702.905 1448.5,715C 1460.65,724.581 1473.65,732.914 1487.5,740C 1498.34,748.258 1510,755.258 1522.5,761C 1537.74,771.568 1552.4,782.902 1566.5,795C 1579.03,802.027 1590.2,810.86 1600,821.5C 1610.33,833.833 1620.67,846.167 1631,858.5C 1641.49,878.821 1652.49,898.821 1664,918.5C 1673.83,931.484 1683.16,944.817 1692,958.5C 1695.22,964.264 1697.88,970.264 1700,976.5C 1703.05,990.098 1705.72,1003.76 1708,1017.5C 1708.87,1033.53 1708.53,1049.53 1707,1065.5C 1703.92,1076.34 1701.58,1087.34 1700,1098.5C 1693.78,1115.16 1688.78,1132.16 1685,1149.5C 1683.26,1154.64 1681.26,1159.64 1679,1164.5C 1678.07,1172.51 1677.07,1180.51 1676,1188.5C 1671.46,1209.39 1667.46,1230.39 1664,1251.5C 1656.43,1276.1 1648.1,1300.43 1639,1324.5C 1625.94,1375.36 1610.27,1425.36 1592,1474.5C 1585.44,1485.06 1578.11,1495.06 1570,1504.5C 1565.62,1512.29 1561.62,1520.29 1558,1528.5C 1552.7,1534.8 1547.03,1540.8 1541,1546.5C 1531.59,1559.91 1521.43,1572.74 1510.5,1585C 1507.39,1585.44 1504.72,1586.78 1502.5,1589C 1490.38,1601.28 1478.04,1613.28 1465.5,1625C 1449.22,1636.28 1433.22,1647.95 1417.5,1660C 1403.37,1667.57 1389.7,1675.9 1376.5,1685C 1371.55,1686 1366.55,1686.66 1361.5,1687C 1353.73,1690.97 1346.56,1695.8 1340,1701.5C 1338.27,1705.95 1336.27,1710.29 1334,1714.5C 1324.47,1724.22 1317.47,1735.56 1313,1748.5C 1304.99,1761.5 1295.33,1773.16 1284,1783.5C 1282.07,1789.96 1279.73,1796.29 1277,1802.5C 1275.52,1813.26 1273.52,1823.92 1271,1834.5C 1264.92,1902.69 1261.92,1971.02 1262,2039.5C 1258.94,2067.43 1257.94,2095.43 1259,2123.5C 1261.24,2128.65 1262.91,2133.99 1264,2139.5C 1269.98,2185.83 1269.98,2232.16 1264,2278.5C 1263.33,2318.5 1263.33,2358.5 1264,2398.5C 1266.35,2406.71 1268.18,2415.04 1269.5,2423.5C 1268.82,2429.52 1265.48,2432.18 1259.5,2431.5C 1260.84,2453.82 1262,2476.15 1263,2498.5C 1263.51,2500.88 1264.18,2503.21 1265,2505.5C 1273.17,2507.3 1275.34,2511.8 1271.5,2519C 1264.16,2522.09 1257.99,2520.59 1253,2514.5C 1251.47,2511.58 1250.14,2508.58 1249,2505.5C 1243.54,2508.65 1237.71,2510.81 1231.5,2512C 1219.78,2512.91 1208.11,2512.58 1196.5,2511C 1193.27,2509.44 1191.1,2506.94 1190,2503.5C 1188.5,2485 1196,2471.5 1212.5,2463C 1224.44,2460.53 1236.11,2461.36 1247.5,2465.5C 1246,2448.87 1245.5,2432.2 1246,2415.5C 1247.53,2413.33 1249.37,2411.49 1251.5,2410C 1250.84,2407.54 1250.34,2405.04 1250,2402.5C 1249.33,2359.83 1249.33,2317.17 1250,2274.5C 1255.97,2230.83 1255.97,2187.16 1250,2143.5C 1248.54,2138.11 1246.87,2132.77 1245,2127.5C 1243.88,2097.76 1244.88,2068.09 1248,2038.5C 1248.47,1968.68 1251.8,1899.01 1258,1829.5C 1260.47,1820.64 1262.13,1811.64 1263,1802.5C 1265.79,1796.12 1267.79,1789.45 1269,1782.5C 1275.5,1772.49 1283.17,1763.49 1292,1755.5C 1298.57,1747.03 1303.57,1737.69 1307,1727.5C 1311.18,1721.14 1315.85,1715.14 1321,1709.5C 1323.76,1701.46 1327.93,1694.3 1333.5,1688C 1341.34,1682.25 1349.67,1677.25 1358.5,1673C 1365.92,1673.41 1372.59,1671.41 1378.5,1667C 1388.66,1659.51 1399.32,1652.84 1410.5,1647C 1424.81,1635.84 1439.48,1625.18 1454.5,1615C 1465.47,1605.03 1476.14,1594.7 1486.5,1584C 1493.07,1578.42 1499.9,1573.25 1507,1568.5C 1514.76,1557.32 1522.76,1546.32 1531,1535.5C 1534.37,1531.8 1538.03,1528.46 1542,1525.5C 1548.29,1513.32 1554.95,1501.32 1562,1489.5C 1569.55,1482.06 1575.88,1473.73 1581,1464.5C 1585.99,1451.02 1590.49,1437.35 1594.5,1423.5C 1592.13,1424.36 1589.46,1424.36 1586.5,1423.5C 1583.32,1417.8 1585.15,1414.8 1592,1414.5C 1594.03,1414.35 1595.7,1415.02 1597,1416.5C 1605.49,1392.53 1612.66,1368.2 1618.5,1343.5 Z M 1243.5,2472.5 C 1244.83,2472.5 1246.17,2472.5 1247.5,2472.5C 1247.5,2479.83 1247.5,2487.17 1247.5,2494.5C 1237.25,2496.31 1226.91,2497.64 1216.5,2498.5C 1212.83,2498.33 1209.17,2498.17 1205.5,2498C 1204.69,2497.69 1204.03,2497.19 1203.5,2496.5C 1205.22,2487.93 1209.89,2481.43 1217.5,2477C 1226.2,2474.95 1234.87,2473.45 1243.5,2472.5 Z"/></g>
<g><path style="opacity:0.837" fill="#000000" d="M 1071.5,418.5 C 1079.58,417.746 1083.08,421.413 1082,429.5C 1087.32,441.141 1091.66,453.141 1095,465.5C 1096.59,490.138 1096.92,514.804 1096,539.5C 1094.86,546.905 1092.53,553.905 1089,560.5C 1074.29,576.872 1059.96,593.539 1046,610.5C 1033.2,629.976 1021.2,649.976 1010,670.5C 1006.25,676.342 1002.25,682.009 998,687.5C 982.585,698.911 967.752,711.077 953.5,724C 934.726,738.774 915.393,752.774 895.5,766C 876.359,784.808 857.526,803.975 839,823.5C 832.286,831.212 825.953,839.212 820,847.5C 802.907,881.017 786.907,915.017 772,949.5C 762.387,971.834 757.054,995.168 756,1019.5C 755.811,1036.19 755.145,1052.86 754,1069.5C 746.889,1108.2 744.556,1147.2 747,1186.5C 761.436,1241.47 780.436,1294.81 804,1346.5C 814.711,1365.25 827.378,1382.59 842,1398.5C 859.167,1414.33 876.333,1430.17 893.5,1446C 923.641,1476.47 954.141,1506.64 985,1536.5C 995.96,1549.8 1007.29,1562.8 1019,1575.5C 1040.07,1601.96 1058.41,1630.29 1074,1660.5C 1076.89,1666.28 1079.22,1672.28 1081,1678.5C 1091.43,1737.01 1102.77,1795.34 1115,1853.5C 1120.64,1885.66 1124.98,1917.99 1128,1950.5C 1128.97,1995.17 1129.97,2039.83 1131,2084.5C 1133.87,2103.19 1136.87,2121.85 1140,2140.5C 1142.54,2167.44 1143.71,2194.44 1143.5,2221.5C 1142.08,2275.49 1141.25,2329.49 1141,2383.5C 1138.98,2388.14 1135.48,2389.64 1130.5,2388C 1128.51,2386.68 1127.35,2384.85 1127,2382.5C 1128.04,2311.18 1128.37,2239.84 1128,2168.5C 1127.3,2157.8 1126.3,2147.14 1125,2136.5C 1121.95,2120.9 1119.28,2105.23 1117,2089.5C 1115.35,2041.17 1114.02,1992.84 1113,1944.5C 1105.78,1880.18 1094.78,1816.52 1080,1753.5C 1076.61,1727.5 1071.61,1701.84 1065,1676.5C 1047.32,1638.45 1024.65,1603.78 997,1572.5C 969.838,1541.67 941.005,1512.5 910.5,1485C 900.864,1474.36 890.864,1464.03 880.5,1454C 865.333,1440.17 850.167,1426.33 835,1412.5C 819.391,1395.94 805.725,1377.94 794,1358.5C 787.454,1346.08 781.454,1333.41 776,1320.5C 768.556,1298.95 760.556,1277.61 752,1256.5C 746.333,1237.17 740.667,1217.83 735,1198.5C 731.656,1208.36 728.823,1218.36 726.5,1228.5C 731.809,1232.55 731.809,1236.71 726.5,1241C 718.047,1244.89 713.047,1242.22 711.5,1233C 712.292,1228.17 713.125,1223.33 714,1218.5C 718.038,1204.4 722.038,1190.4 726,1176.5C 684.398,1214.1 644.065,1253.1 605,1293.5C 571.127,1334.26 538.46,1375.93 507,1418.5C 489.791,1438.04 472.958,1457.87 456.5,1478C 457.709,1481.03 457.209,1483.86 455,1486.5C 453.103,1489.34 450.603,1491.34 447.5,1492.5C 444.698,1492.03 443.364,1490.36 443.5,1487.5C 444.164,1483.67 445.331,1480.01 447,1476.5C 452.667,1468.17 458.333,1459.83 464,1451.5C 494.101,1413.4 523.434,1374.73 552,1335.5C 565.667,1318.83 579.333,1302.17 593,1285.5C 632.177,1243.99 673.01,1204.16 715.5,1166C 703.776,1165.91 692.11,1165.25 680.5,1164C 676.304,1161.02 675.471,1157.19 678,1152.5C 680.077,1151.04 682.41,1150.38 685,1150.5C 700.531,1151.78 716.031,1151.78 731.5,1150.5C 732.222,1135.82 733.056,1121.16 734,1106.5C 736.769,1089.22 739.102,1071.89 741,1054.5C 739.134,1019.56 743.801,985.564 755,952.5C 769.905,917.354 785.905,882.688 803,848.5C 806.582,840.997 810.915,833.997 816,827.5C 837.073,803.424 859.24,780.257 882.5,758C 919.143,732.029 954.643,704.529 989,675.5C 1003.94,650.236 1019.27,625.236 1035,600.5C 1049.71,584.128 1064.04,567.461 1078,550.5C 1079.96,545.323 1081.29,539.99 1082,534.5C 1082.67,516.167 1082.67,497.833 1082,479.5C 1079.96,463.7 1075.29,448.7 1068,434.5C 1067.33,430.5 1067.33,426.5 1068,422.5C 1068.69,420.65 1069.86,419.316 1071.5,418.5 Z"/></g>
<g><path style="opacity:0.835" fill="#000000" d="M 1870.5,456.5 C 1874.29,455.814 1877.45,456.814 1880,459.5C 1882.17,492.489 1884.17,525.489 1886,558.5C 1896.92,547.787 1909.75,540.287 1924.5,536C 1928.83,535.667 1933.17,535.333 1937.5,535C 1946.9,514.657 1961.57,509.657 1981.5,520C 1983.04,521.579 1984.21,523.413 1985,525.5C 1985.33,529.833 1985.67,534.167 1986,538.5C 1989.66,527.011 1995.49,516.844 2003.5,508C 2006.38,506.392 2009.38,505.059 2012.5,504C 2021.19,503.327 2029.86,503.493 2038.5,504.5C 2037.99,495.848 2041.99,492.348 2050.5,494C 2052,495.5 2053.5,497 2055,498.5C 2057.92,504.668 2061.58,510.335 2066,515.5C 2067.01,517.025 2067.51,518.692 2067.5,520.5C 2065.8,520.66 2064.13,520.494 2062.5,520C 2059.96,516.965 2056.96,514.465 2053.5,512.5C 2052.33,521.482 2052.17,530.482 2053,539.5C 2055.53,540.872 2058.2,541.872 2061,542.5C 2068.6,530.234 2078.77,520.734 2091.5,514C 2101.12,510.541 2110.62,510.708 2120,514.5C 2124.87,528.263 2120.37,537.763 2106.5,543C 2102.17,546.667 2097.83,550.333 2093.5,554C 2086.82,554.949 2080.15,555.949 2073.5,557C 2084.5,557.118 2095.17,558.952 2105.5,562.5C 2108.51,561.731 2111.51,560.897 2114.5,560C 2115.74,558.846 2116.74,557.512 2117.5,556C 2120.09,555.774 2122.59,555.274 2125,554.5C 2126.55,544.638 2128.88,534.971 2132,525.5C 2138.14,513.93 2147.81,509.263 2161,511.5C 2172.78,511.657 2184.28,513.49 2195.5,517C 2197.02,518.351 2198.35,519.851 2199.5,521.5C 2196.59,522.407 2193.76,522.073 2191,520.5C 2179.68,523.021 2168.18,524.521 2156.5,525C 2149.97,525.171 2145.8,528.338 2144,534.5C 2141.78,543.817 2138.78,552.817 2135,561.5C 2131.6,564.981 2127.94,565.314 2124,562.5C 2123.51,561.207 2123.34,559.873 2123.5,558.5C 2122.13,558.343 2120.79,558.51 2119.5,559C 2117.29,561.785 2114.62,564.118 2111.5,566C 2101.04,569.117 2090.37,570.951 2079.5,571.5C 2070.61,573.04 2063.44,570.374 2058,563.5C 2057.18,560.883 2056.68,558.216 2056.5,555.5C 2054.88,555.36 2053.71,556.027 2053,557.5C 2052.67,565.833 2052.33,574.167 2052,582.5C 2047.62,585.441 2043.62,585.107 2040,581.5C 2038.91,568.685 2038.08,555.852 2037.5,543C 2038.77,533.839 2038.77,524.673 2037.5,515.5C 2030.92,516.882 2024.25,517.716 2017.5,518C 2014.45,518.606 2011.95,520.106 2010,522.5C 2002.05,534.676 1997.05,548.009 1995,562.5C 1990.25,567.951 1985.91,567.617 1982,561.5C 1981.67,559.5 1981.33,557.5 1981,555.5C 1977.79,560.382 1973.62,564.215 1968.5,567C 1960.58,568.568 1952.58,568.901 1944.5,568C 1942,566.833 1940.17,565 1939,562.5C 1938.5,558.179 1938.33,553.846 1938.5,549.5C 1928.21,549.239 1918.88,552.072 1910.5,558C 1898.51,565.3 1889.51,575.3 1883.5,588C 1878.9,590.54 1875.07,589.707 1872,585.5C 1871.5,574.172 1871.33,562.838 1871.5,551.5C 1850.72,552.161 1830.22,554.828 1810,559.5C 1802.55,557.797 1800.55,553.464 1804,546.5C 1805.42,545.54 1806.92,544.707 1808.5,544C 1815.84,542.666 1823.17,541.333 1830.5,540C 1815.9,534.007 1811.4,523.507 1817,508.5C 1824.42,496.034 1834.92,487.201 1848.5,482C 1852.52,481.148 1856.35,481.648 1860,483.5C 1862.37,480.791 1864.37,477.791 1866,474.5C 1866.58,469.489 1867.25,464.489 1868,459.5C 1868.7,458.309 1869.53,457.309 1870.5,456.5 Z M 1865.5,484.5 C 1868.24,501.58 1869.9,518.914 1870.5,536.5C 1856.23,533.911 1842.73,529.244 1830,522.5C 1829.09,518.548 1829.76,514.881 1832,511.5C 1838.18,504.818 1845.35,499.485 1853.5,495.5C 1854.28,497.475 1855.61,498.309 1857.5,498C 1860.82,493.857 1863.49,489.357 1865.5,484.5 Z M 2104.5,525.5 C 2105.87,525.343 2107.21,525.51 2108.5,526C 2099.96,530.547 2092.62,536.547 2086.5,544C 2083.74,544.584 2081.08,544.25 2078.5,543C 2085.5,534.359 2094.17,528.526 2104.5,525.5 Z M 1960.5,529.5 C 1964.2,529.552 1967.86,529.886 1971.5,530.5C 1972.41,537.771 1970.91,544.438 1967,550.5C 1962.78,553.888 1957.95,555.221 1952.5,554.5C 1952.5,553.167 1952.5,551.833 1952.5,550.5C 1969.68,548.806 1969.68,546.806 1952.5,544.5C 1951.71,537.628 1954.38,532.628 1960.5,529.5 Z"/></g>
<g><path style="opacity:0.665" fill="#000000" d="M 1214.5,464.5 C 1221.26,463.918 1225.59,466.918 1227.5,473.5C 1226.06,478.141 1222.89,480.474 1218,480.5C 1211.61,480.11 1208.94,476.777 1210,470.5C 1211.33,468.34 1212.83,466.34 1214.5,464.5 Z"/></g>
<g><path style="opacity:0.682" fill="#000000" d="M 1127.5,483.5 C 1132.35,483.227 1136.68,484.56 1140.5,487.5C 1143.86,492.845 1142.52,496.678 1136.5,499C 1123.08,499.762 1120.08,494.595 1127.5,483.5 Z"/></g>
<g><path style="opacity:0.836" fill="#000000" d="M 1173.5,501.5 C 1180.57,501.068 1184.4,504.402 1185,511.5C 1189,514.167 1193,516.833 1197,519.5C 1199.25,523.007 1201.25,526.673 1203,530.5C 1203.33,543.167 1203.67,555.833 1204,568.5C 1205.56,570.957 1206.56,573.624 1207,576.5C 1207.87,583.591 1209.2,590.591 1211,597.5C 1218.42,609.087 1223.09,621.754 1225,635.5C 1237.49,651.142 1249.49,667.142 1261,683.5C 1264.8,686.297 1268.3,689.464 1271.5,693C 1290.86,704.677 1309.53,717.344 1327.5,731C 1336.37,736.268 1345.37,741.268 1354.5,746C 1362.35,752.095 1370.02,758.428 1377.5,765C 1387.02,770.256 1396.02,776.256 1404.5,783C 1412.22,790.721 1419.89,798.387 1427.5,806C 1448.02,821.509 1469.35,835.842 1491.5,849C 1495.67,853.167 1499.83,857.333 1504,861.5C 1507.17,867.181 1510.84,872.514 1515,877.5C 1525.06,899.955 1533.73,922.955 1541,946.5C 1544.67,950.833 1548.33,955.167 1552,959.5C 1553,961.5 1554,963.5 1555,965.5C 1561.23,981.535 1568.23,997.202 1576,1012.5C 1579.77,1023.82 1583.94,1034.99 1588.5,1046C 1590.58,1060.54 1593.08,1075.04 1596,1089.5C 1600.29,1123.45 1597.63,1156.78 1588,1189.5C 1586.82,1201.57 1585.16,1213.57 1583,1225.5C 1576.77,1241.3 1571.1,1257.3 1566,1273.5C 1559.67,1284.5 1553.33,1295.5 1547,1306.5C 1545.15,1312.89 1543.15,1319.23 1541,1325.5C 1530.09,1340.32 1519.42,1355.32 1509,1370.5C 1505.97,1379.56 1501.64,1387.89 1496,1395.5C 1490.05,1404.45 1483.72,1413.11 1477,1421.5C 1467.08,1429.41 1459.42,1439.08 1454,1450.5C 1444.53,1458.97 1435.36,1467.8 1426.5,1477C 1417.17,1483 1407.83,1489 1398.5,1495C 1394.17,1500 1389.83,1505 1385.5,1510C 1378.5,1513 1371.5,1516 1364.5,1519C 1355.87,1524.97 1347.87,1531.64 1340.5,1539C 1323.3,1543.93 1308.63,1552.93 1296.5,1566C 1288.63,1569.88 1281.3,1574.54 1274.5,1580C 1269.47,1582.79 1264.13,1584.79 1258.5,1586C 1250.33,1595.5 1241.5,1604.33 1232,1612.5C 1220.57,1633.03 1208.91,1653.36 1197,1673.5C 1193.71,1690.66 1192.05,1707.99 1192,1725.5C 1189.05,1730.69 1185.05,1731.69 1180,1728.5C 1177.96,1724.17 1176.46,1719.67 1175.5,1715C 1176.73,1710.25 1177.4,1705.41 1177.5,1700.5C 1176.11,1671.18 1175.27,1641.85 1175,1612.5C 1173.9,1607.63 1172.23,1602.96 1170,1598.5C 1160.73,1582.9 1151.06,1567.57 1141,1552.5C 1136.08,1542.06 1131.74,1531.4 1128,1520.5C 1112.51,1499 1095.51,1478.66 1077,1459.5C 1067.52,1447.39 1057.69,1435.56 1047.5,1424C 1031.5,1411.33 1015.5,1398.67 999.5,1386C 988.226,1375.73 978.059,1364.56 969,1352.5C 963,1347.17 957,1341.83 951,1336.5C 942.773,1323.4 933.107,1311.4 922,1300.5C 915.065,1289.63 907.398,1279.3 899,1269.5C 889.359,1253.88 881.025,1237.55 874,1220.5C 866.553,1188.04 857.553,1156.04 847,1124.5C 845.891,1113.21 845.391,1101.88 845.5,1090.5C 845.667,1080.83 845.833,1071.17 846,1061.5C 849.754,1045.98 852.754,1030.31 855,1014.5C 867.118,985.481 878.451,956.147 889,926.5C 894.592,911.984 901.258,897.984 909,884.5C 918.919,868.332 928.585,851.998 938,835.5C 945.913,824.675 953.58,813.675 961,802.5C 977.066,787.769 992.066,772.103 1006,755.5C 1011.86,749.301 1018.03,743.468 1024.5,738C 1041.45,725.382 1058.12,712.382 1074.5,699C 1078.24,696.268 1082.24,693.934 1086.5,692C 1092.41,690.586 1098.08,688.586 1103.5,686C 1110.35,677.486 1117.52,669.319 1125,661.5C 1130.33,652.167 1135.67,642.833 1141,633.5C 1146.29,626.54 1151.96,619.873 1158,613.5C 1161.85,596.572 1165.52,579.572 1169,562.5C 1170.78,545.519 1170.94,528.519 1169.5,511.5C 1168.77,507.177 1170.1,503.844 1173.5,501.5 Z M 1184.5,529.5 C 1186.71,530.894 1188.21,532.894 1189,535.5C 1189.33,547.833 1189.67,560.167 1190,572.5C 1192.95,579.523 1194.62,586.856 1195,594.5C 1196,598.167 1197,601.833 1198,605.5C 1205.06,615.733 1209.4,627.066 1211,639.5C 1215.03,646.882 1220.03,653.549 1226,659.5C 1235.89,677.464 1248.73,692.964 1264.5,706C 1282.99,716.827 1300.65,728.827 1317.5,742C 1326.05,747.775 1335.05,752.775 1344.5,757C 1359.94,770.221 1376.28,782.221 1393.5,793C 1401.17,800.667 1408.83,808.333 1416.5,816C 1437.65,831.409 1459.31,846.076 1481.5,860C 1493.22,870.908 1502.39,883.742 1509,898.5C 1516.13,916.572 1522.47,934.905 1528,953.5C 1531.95,959.123 1536.29,964.457 1541,969.5C 1547.84,986.856 1555.51,1003.86 1564,1020.5C 1567.27,1030.32 1570.94,1039.99 1575,1049.5C 1576.68,1063.58 1579.02,1077.58 1582,1091.5C 1586.24,1124.12 1583.57,1156.12 1574,1187.5C 1573,1197.88 1571.66,1208.21 1570,1218.5C 1564.14,1235.09 1558.47,1251.76 1553,1268.5C 1547.33,1278.17 1541.67,1287.83 1536,1297.5C 1532.59,1304.13 1530.26,1311.13 1529,1318.5C 1519,1332.5 1509,1346.5 1499,1360.5C 1487.29,1385.88 1471.29,1408.21 1451,1427.5C 1447.58,1432.67 1444.41,1438 1441.5,1443.5C 1432.71,1450.78 1424.38,1458.62 1416.5,1467C 1407.17,1473 1397.83,1479 1388.5,1485C 1384.5,1489.67 1380.5,1494.33 1376.5,1499C 1359.89,1504.64 1345.56,1513.8 1333.5,1526.5C 1315.71,1532.14 1300.38,1541.64 1287.5,1555C 1280.15,1558.34 1273.48,1562.67 1267.5,1568C 1260.89,1570.09 1254.55,1572.76 1248.5,1576C 1240.33,1585.5 1231.5,1594.33 1222,1602.5C 1211.63,1620.19 1201.3,1637.85 1191,1655.5C 1190.69,1639.82 1190.02,1624.15 1189,1608.5C 1185.69,1597.55 1181.03,1587.22 1175,1577.5C 1167.61,1567.1 1160.61,1556.44 1154,1545.5C 1149.35,1536.55 1145.68,1527.22 1143,1517.5C 1141,1514.17 1139,1510.83 1137,1507.5C 1126.61,1495.71 1116.94,1483.38 1108,1470.5C 1093.17,1456.35 1079.84,1441.02 1068,1424.5C 1063.17,1419.67 1058.33,1414.83 1053.5,1410C 1035.83,1395.67 1018.17,1381.33 1000.5,1367C 989.072,1352.24 976.239,1338.74 962,1326.5C 953.137,1313.3 943.137,1300.96 932,1289.5C 923,1276.83 914,1264.17 905,1251.5C 898.532,1240.23 892.866,1228.56 888,1216.5C 880.614,1183.68 871.614,1151.35 861,1119.5C 859.433,1101.53 859.1,1083.53 860,1065.5C 863.754,1049.98 866.754,1034.31 869,1018.5C 880.832,990.5 891.832,962.167 902,933.5C 907.179,920.141 913.179,907.141 920,894.5C 931.585,875.665 942.918,856.665 954,837.5C 961.734,828.364 968.734,818.697 975,808.5C 994.833,788.667 1014.67,768.833 1034.5,749C 1052.17,735.333 1069.83,721.667 1087.5,708C 1095.31,705.395 1102.98,702.395 1110.5,699C 1129.46,681.364 1144.63,660.864 1156,637.5C 1162.42,631.079 1168.09,624.079 1173,616.5C 1176.12,599.78 1179.45,583.114 1183,566.5C 1184.31,554.205 1184.81,541.872 1184.5,529.5 Z"/></g>
<g><path style="opacity:0.637" fill="#000000" d="M 1221.5,512.5 C 1231.53,511.731 1234.53,515.898 1230.5,525C 1224.01,528.084 1219.67,526.25 1217.5,519.5C 1218.07,516.687 1219.4,514.354 1221.5,512.5 Z"/></g>
<g><path style="opacity:0.706" fill="#000000" d="M 1112.5,555.5 C 1117.3,555.121 1121.96,555.621 1126.5,557C 1130.82,561.75 1130.15,565.75 1124.5,569C 1119.71,569.879 1115.05,569.545 1110.5,568C 1107.45,563.118 1108.12,558.952 1112.5,555.5 Z"/></g>
<g><path style="opacity:0.697" fill="#000000" d="M 1248.5,594.5 C 1251.6,594.154 1254.44,594.821 1257,596.5C 1259.51,599.842 1261.35,603.509 1262.5,607.5C 1261.04,610.891 1258.38,612.224 1254.5,611.5C 1248.12,611.622 1244.79,608.455 1244.5,602C 1244.43,598.634 1245.76,596.134 1248.5,594.5 Z"/></g>
<g><path style="opacity:0.832" fill="#000000" d="M 1992.5,627.5 C 2003.91,627.067 2015.24,627.567 2026.5,629C 2034.76,634.598 2037.93,642.431 2036,652.5C 2042.8,647.304 2050.3,646.137 2058.5,649C 2062.75,653.163 2062.41,656.829 2057.5,660C 2053.62,660.257 2049.96,661.257 2046.5,663C 2040.26,668.753 2035.76,674.92 2033,681.5C 2045.41,673.711 2057.58,665.544 2069.5,657C 2074.63,655.431 2078.46,656.931 2081,661.5C 2081.36,669.342 2082.7,677.009 2085,684.5C 2089.37,689.214 2094.54,690.714 2100.5,689C 2094.95,687.47 2092.78,683.97 2094,678.5C 2095.01,676.741 2096.51,675.574 2098.5,675C 2101.98,674.699 2105.31,673.865 2108.5,672.5C 2111.11,662.942 2113.28,653.275 2115,643.5C 2117.62,640.93 2120.28,640.93 2123,643.5C 2123.94,652.819 2124.78,662.153 2125.5,671.5C 2131.91,670.118 2138.25,670.451 2144.5,672.5C 2144.29,659.489 2144.13,646.489 2144,633.5C 2148.69,630.106 2151.52,631.273 2152.5,637C 2152.17,638 2151.83,639 2151.5,640C 2154,654.384 2155.34,668.884 2155.5,683.5C 2171.06,681.023 2185.73,683.523 2199.5,691C 2208.85,697.01 2217.85,703.51 2226.5,710.5C 2230.59,714.35 2232.09,719.017 2231,724.5C 2230.61,725.428 2229.95,726.095 2229,726.5C 2225.11,724.803 2221.27,722.97 2217.5,721C 2207.84,713.837 2197.84,707.17 2187.5,701C 2177.4,697.198 2167.07,696.531 2156.5,699C 2155.89,705.164 2155.05,711.331 2154,717.5C 2151.12,722.19 2146.95,724.023 2141.5,723C 2139.33,722.167 2137.83,720.667 2137,718.5C 2136.33,711.833 2136.33,705.167 2137,698.5C 2138.62,695.057 2140.78,692.057 2143.5,689.5C 2144.66,685.878 2144.83,682.211 2144,678.5C 2138.22,682.665 2131.72,684.665 2124.5,684.5C 2124.67,689.511 2124.5,694.511 2124,699.5C 2120.16,703.729 2116.82,703.395 2114,698.5C 2113.5,694.514 2113.33,690.514 2113.5,686.5C 2111.71,686.215 2110.05,686.548 2108.5,687.5C 2105.92,691.916 2102.25,695.083 2097.5,697C 2091.56,698.406 2085.56,698.739 2079.5,698C 2077.39,696.859 2075.56,695.359 2074,693.5C 2070.8,687.905 2068.8,681.905 2068,675.5C 2057.53,684.32 2046.03,691.487 2033.5,697C 2029.17,697.667 2024.83,697.667 2020.5,697C 2018.43,696.052 2016.93,694.552 2016,692.5C 2014.75,681.822 2017.92,672.656 2025.5,665C 2009.5,673.502 1993.17,681.835 1976.5,690C 1984.39,692.361 1992.22,692.527 2000,690.5C 2000.51,691.996 2000.01,693.163 1998.5,694C 1988.75,696.045 1979.08,697.212 1969.5,697.5C 1969.67,714.17 1969.5,730.837 1969,747.5C 1966.93,752.143 1963.43,753.643 1958.5,752C 1956.95,750.786 1955.78,749.286 1955,747.5C 1953.24,724.446 1950.91,701.446 1948,678.5C 1947.33,670.167 1947.33,661.833 1948,653.5C 1950.51,647.814 1954.35,643.147 1959.5,639.5C 1970.01,633.888 1981.01,629.888 1992.5,627.5 Z M 1997.5,641.5 C 2004.84,641.334 2012.17,641.5 2019.5,642C 2021.4,643.808 2021.9,645.975 2021,648.5C 2005.14,659.1 1988.47,668.434 1971,676.5C 1970.66,673.964 1970.16,671.464 1969.5,669C 1970.22,662.809 1970.55,656.642 1970.5,650.5C 1979.25,646.404 1988.25,643.404 1997.5,641.5 Z"/></g>
<g><path style="opacity:0.16" fill="#000000" d="M 1309.5,638.5 C 1312.96,639.536 1313.29,641.203 1310.5,643.5C 1309.03,641.831 1308.69,640.164 1309.5,638.5 Z"/></g>
<g><path style="opacity:0.624" fill="#000000" d="M 1079.5,652.5 C 1086.33,651.174 1089.49,653.84 1089,660.5C 1086.18,663.571 1082.84,664.238 1079,662.5C 1076.87,658.975 1077.04,655.642 1079.5,652.5 Z"/></g>
<g><path style="opacity:0.582" fill="#000000" d="M 1349.5,672.5 C 1353.22,671.773 1355.89,673.106 1357.5,676.5C 1355.52,679.991 1352.52,681.658 1348.5,681.5C 1346.9,678.2 1347.23,675.2 1349.5,672.5 Z"/></g>
<g><path style="opacity:0.791" fill="#000000" d="M 1836.5,690.5 C 1843.63,690.802 1846.47,694.469 1845,701.5C 1833.67,724.455 1821.17,746.622 1807.5,768C 1806.28,768.563 1805.28,768.23 1804.5,767C 1805.66,762.023 1807.33,757.19 1809.5,752.5C 1784.3,783.501 1760.96,816.501 1739.5,851.5C 1739.67,851.833 1739.83,852.167 1740,852.5C 1746.72,851.146 1753.55,850.313 1760.5,850C 1768.49,845.288 1776.82,841.454 1785.5,838.5C 1785.72,839.675 1785.39,840.675 1784.5,841.5C 1778.23,845.8 1771.57,849.3 1764.5,852C 1754.66,853.103 1744.99,854.936 1735.5,857.5C 1729.33,867.699 1722.33,877.199 1714.5,886C 1711.74,886.782 1709.24,886.282 1707,884.5C 1708.03,877.011 1708.7,869.344 1709,861.5C 1709.83,860.667 1710.67,859.833 1711.5,859C 1715.3,858.072 1718.8,856.572 1722,854.5C 1736.82,828.696 1752.82,803.696 1770,779.5C 1791.07,751.696 1811.4,723.362 1831,694.5C 1832.81,693.023 1834.65,691.69 1836.5,690.5 Z M 1715.5,863.5 C 1714.81,867.051 1713.81,867.217 1712.5,864C 1713.45,863.517 1714.45,863.351 1715.5,863.5 Z"/></g>
<g><path style="opacity:0.226" fill="#000000" d="M 963.5,730.5 C 964.5,730.5 965.5,730.5 966.5,730.5C 966.5,731.5 966.5,732.5 966.5,733.5C 965.5,733.5 964.5,733.5 963.5,733.5C 963.5,732.5 963.5,731.5 963.5,730.5 Z"/></g>
<g><path style="opacity:0.687" fill="#000000" d="M 1501.5,785.5 C 1508.72,783.608 1513.39,786.108 1515.5,793C 1515.17,795.175 1514.17,797.008 1512.5,798.5C 1507.64,799.812 1502.8,799.812 1498,798.5C 1495.89,796.185 1495.23,793.518 1496,790.5C 1497.73,788.598 1499.56,786.931 1501.5,785.5 Z"/></g>
<g><path style="opacity:0.554" fill="#000000" d="M 1543.5,821.5 C 1550.49,820.044 1553.99,822.711 1554,829.5C 1551.16,834.866 1547.16,835.866 1542,832.5C 1539.7,828.332 1540.2,824.665 1543.5,821.5 Z"/></g>
<g><path style="opacity:0.802" fill="#000000" d="M 1681.5,850.5 C 1683.77,850.141 1685.6,850.808 1687,852.5C 1689.94,870.122 1692.44,887.789 1694.5,905.5C 1703.91,902.298 1713.24,898.798 1722.5,895C 1735.3,889.373 1748.63,887.373 1762.5,889C 1764.88,890.424 1766.54,892.424 1767.5,895C 1766.39,897.047 1765.72,899.213 1765.5,901.5C 1756.71,901.754 1748.04,902.921 1739.5,905C 1727.68,908.94 1716.01,913.273 1704.5,918C 1699.66,919.914 1695.33,922.581 1691.5,926C 1687.33,927.291 1684.16,926.124 1682,922.5C 1681.45,915.823 1681.62,909.156 1682.5,902.5C 1681.17,889.832 1679.83,877.165 1678.5,864.5C 1678.25,859.491 1679.25,854.824 1681.5,850.5 Z"/></g>
<g><path style="opacity:0.261" fill="#000000" d="M 1599.5,889.5 C 1600.83,889.5 1602.17,889.5 1603.5,889.5C 1603.5,890.833 1603.5,892.167 1603.5,893.5C 1602.17,893.5 1600.83,893.5 1599.5,893.5C 1599.5,892.167 1599.5,890.833 1599.5,889.5 Z"/></g>
<g><path style="opacity:0.522" fill="#000000" d="M 1637.5,953.5 C 1644.16,952.333 1647,954.999 1646,961.5C 1642.82,965.057 1639.32,965.391 1635.5,962.5C 1633.72,958.77 1634.39,955.77 1637.5,953.5 Z"/></g>
<g><path style="opacity:0.576" fill="#000000" d="M 1647.5,1013.5 C 1650.57,1013.18 1653.57,1013.52 1656.5,1014.5C 1659.07,1017.74 1658.74,1020.74 1655.5,1023.5C 1650.03,1026 1647.03,1024.33 1646.5,1018.5C 1646.73,1016.79 1647.06,1015.13 1647.5,1013.5 Z"/></g>
<g><path style="opacity:0.713" fill="#000000" d="M 799.5,1039.5 C 809.023,1039.22 812.19,1043.55 809,1052.5C 805.746,1057.22 801.246,1058.72 795.5,1057C 790.566,1054.34 789.399,1050.5 792,1045.5C 794.478,1043.36 796.978,1041.36 799.5,1039.5 Z"/></g>
<g><path style="opacity:0.513" fill="#000000" d="M 1649.5,1067.5 C 1650.83,1067.5 1652.17,1067.5 1653.5,1067.5C 1653.74,1070.79 1652.91,1073.79 1651,1076.5C 1649.21,1078.23 1647.04,1078.9 1644.5,1078.5C 1644.34,1076.47 1644.5,1074.47 1645,1072.5C 1647.39,1071.61 1648.89,1069.94 1649.5,1067.5 Z"/></g>
<g><path style="opacity:0.648" fill="#000000" d="M 1642.5,1125.5 C 1643.83,1125.5 1645.17,1125.5 1646.5,1125.5C 1647.88,1132.42 1645.38,1137.08 1639,1139.5C 1634,1138.5 1632.33,1135.5 1634,1130.5C 1636.17,1127.47 1639,1125.8 1642.5,1125.5 Z"/></g>
<g><path style="opacity:0.547" fill="#000000" d="M 1632.5,1191.5 C 1639.68,1190.98 1641.34,1193.82 1637.5,1200C 1630.42,1200.48 1628.75,1197.64 1632.5,1191.5 Z"/></g>
<g><path style="opacity:0.572" fill="#000000" d="M 1620.5,1254.5 C 1629.22,1253.54 1631.55,1256.87 1627.5,1264.5C 1622.03,1267 1619.03,1265.33 1618.5,1259.5C 1618.44,1257.49 1619.1,1255.82 1620.5,1254.5 Z"/></g>
<g><path style="opacity:0.722" fill="#000000" d="M 835.5,1271.5 C 839.182,1271.33 842.848,1271.5 846.5,1272C 849.286,1274.06 852.286,1275.56 855.5,1276.5C 855.5,1277.83 855.5,1279.17 855.5,1280.5C 852.286,1281.44 849.286,1282.94 846.5,1285C 841.771,1286 837.271,1285.5 833,1283.5C 830.523,1278.67 831.356,1274.67 835.5,1271.5 Z"/></g>
<g><path style="opacity:0.629" fill="#000000" d="M 1618.5,1343.5 C 1615.75,1347.17 1612.08,1348.34 1607.5,1347C 1603.41,1342.49 1603.74,1338.16 1608.5,1334C 1616.17,1332.51 1619.51,1335.67 1618.5,1343.5 Z"/></g>
<g><path style="opacity:0.707" fill="#000000" d="M 1031.5,1449.5 C 1040.43,1449.88 1043.1,1454.04 1039.5,1462C 1036.83,1463.67 1034.17,1465.33 1031.5,1467C 1023.67,1468.5 1020.5,1465.33 1022,1457.5C 1022.47,1456.07 1023.3,1454.9 1024.5,1454C 1026.9,1452.48 1029.23,1450.98 1031.5,1449.5 Z"/></g>
<g><path style="opacity:0.665" fill="#000000" d="M 1551.5,1469.5 C 1554.85,1469.33 1558.18,1469.5 1561.5,1470C 1562.83,1472 1562.83,1474 1561.5,1476C 1549.7,1480.57 1538.36,1486.24 1527.5,1493C 1521.57,1494.45 1518.74,1492.28 1519,1486.5C 1519.83,1485.67 1520.67,1484.83 1521.5,1484C 1532.43,1481.91 1542.76,1478.25 1552.5,1473C 1551.66,1471.99 1551.33,1470.82 1551.5,1469.5 Z"/></g>
<g><path style="opacity:0.801" fill="#000000" d="M 334.5,1502.5 C 339.439,1501.35 342.939,1503.02 345,1507.5C 345.333,1534.5 345.667,1561.5 346,1588.5C 346.348,1595.92 347.348,1603.26 349,1610.5C 349.521,1613.87 350.854,1616.87 353,1619.5C 353.925,1618.95 354.758,1618.29 355.5,1617.5C 356.564,1614.37 357.897,1611.37 359.5,1608.5C 361.174,1613.94 360.341,1618.94 357,1623.5C 352.108,1627.78 346.608,1628.61 340.5,1626C 334.64,1616.04 331.806,1605.21 332,1593.5C 330.559,1564.51 330.226,1535.51 331,1506.5C 332.376,1505.29 333.542,1503.96 334.5,1502.5 Z"/></g>
<g><path style="opacity:0.577" fill="#000000" d="M 1486.5,1529.5 C 1489.88,1529.46 1493.21,1529.79 1496.5,1530.5C 1496.5,1532.17 1496.5,1533.83 1496.5,1535.5C 1493.58,1536.64 1490.58,1537.14 1487.5,1537C 1485.16,1534.81 1484.83,1532.31 1486.5,1529.5 Z"/></g>
<g><path style="opacity:0.633" fill="#000000" d="M 1420.5,1551.5 C 1422.17,1551.5 1423.83,1551.5 1425.5,1551.5C 1424.13,1555.91 1422.47,1560.24 1420.5,1564.5C 1417.26,1566.14 1413.92,1567.47 1410.5,1568.5C 1409.46,1564.88 1408.96,1561.22 1409,1557.5C 1409.83,1556.5 1410.67,1555.5 1411.5,1554.5C 1414.73,1553.87 1417.73,1552.87 1420.5,1551.5 Z"/></g>
<g><path style="opacity:0.834" fill="#000000" d="M 549.5,1563.5 C 554.102,1563.5 557.935,1565.17 561,1568.5C 562.379,1572.48 561.213,1575.31 557.5,1577C 554.471,1577.54 551.471,1578.21 548.5,1579C 535.688,1591.12 528.021,1605.96 525.5,1623.5C 529.308,1623.84 532.974,1623.34 536.5,1622C 542.958,1617.88 548.458,1612.71 553,1606.5C 554.078,1598.88 555.078,1591.21 556,1583.5C 560.803,1575.4 566.803,1574.4 574,1580.5C 575.964,1590.13 574.297,1599.13 569,1607.5C 568.333,1620.83 568.333,1634.17 569,1647.5C 571.775,1664.48 574.441,1681.48 577,1698.5C 577.667,1705.17 577.667,1711.83 577,1718.5C 576.167,1720.67 574.667,1722.17 572.5,1723C 569.487,1723.5 566.487,1724 563.5,1724.5C 563.999,1728.49 564.499,1732.49 565,1736.5C 565.5,1737 566,1737.5 566.5,1738C 570.759,1737.97 574.926,1737.14 579,1735.5C 579.5,1735.83 580,1736.17 580.5,1736.5C 579.07,1739.43 577.07,1741.93 574.5,1744C 582.234,1746.31 583.901,1750.65 579.5,1757C 575.703,1757.59 572.036,1757.09 568.5,1755.5C 567.264,1756.25 565.93,1756.58 564.5,1756.5C 564.5,1765.5 564.5,1774.5 564.5,1783.5C 559.615,1784.14 556.448,1782.14 555,1777.5C 554.667,1769.83 554.333,1762.17 554,1754.5C 551.319,1751.57 550.819,1748.24 552.5,1744.5C 549.403,1739.29 549.903,1734.62 554,1730.5C 554.497,1728.19 554.663,1725.86 554.5,1723.5C 539.907,1723.12 527.741,1717.45 518,1706.5C 511.066,1695.74 510.733,1684.74 517,1673.5C 524.631,1666.7 533.464,1662.37 543.5,1660.5C 543.028,1663.82 541.195,1666.15 538,1667.5C 533.039,1673.09 529.372,1679.42 527,1686.5C 526.402,1690.05 527.069,1693.39 529,1696.5C 535.815,1704.16 544.315,1708.49 554.5,1709.5C 554.533,1704.59 556.866,1703.26 561.5,1705.5C 562.281,1706.73 562.781,1708.06 563,1709.5C 561.543,1692.75 559.21,1676.09 556,1659.5C 555.039,1648.83 554.039,1638.16 553,1627.5C 543.136,1637.62 531.303,1640.79 517.5,1637C 512.658,1633.81 510.658,1629.31 511.5,1623.5C 511.575,1619.44 512.075,1615.44 513,1611.5C 514.406,1606.74 515.739,1602.07 517,1597.5C 508.108,1598.38 499.275,1599.71 490.5,1601.5C 486.764,1601.47 483.097,1600.97 479.5,1600C 473.5,1597.67 467.5,1595.33 461.5,1593C 457.833,1592.33 454.167,1592.33 450.5,1593C 447,1595.17 444.167,1598 442,1601.5C 438.021,1609.77 435.021,1618.44 433,1627.5C 429.087,1633.62 424.754,1633.95 420,1628.5C 419.689,1626.44 419.189,1624.44 418.5,1622.5C 413.704,1621.11 409.037,1621.45 404.5,1623.5C 397.604,1638.95 385.937,1644.78 369.5,1641C 365.51,1639.01 363.01,1635.84 362,1631.5C 361.345,1616.81 361.679,1602.15 363,1587.5C 363.203,1581.99 364.203,1576.66 366,1571.5C 370.385,1567.24 374.385,1567.58 378,1572.5C 378.498,1577.52 378.332,1582.52 377.5,1587.5C 384.841,1587.33 392.174,1587.5 399.5,1588C 404.235,1589.07 407.402,1591.9 409,1596.5C 409.759,1601.71 409.592,1606.87 408.5,1612C 409.009,1613.17 409.842,1614 411,1614.5C 412.796,1613.23 414.629,1613.23 416.5,1614.5C 416.833,1614.33 417.167,1614.17 417.5,1614C 416.43,1611.26 414.93,1608.76 413,1606.5C 411.191,1600.48 413.357,1596.81 419.5,1595.5C 422.407,1596.01 425.241,1596.68 428,1597.5C 435.449,1580.53 448.283,1574.36 466.5,1579C 479.257,1583.81 491.924,1588.81 504.5,1594C 509.167,1594.67 513.833,1594.67 518.5,1594C 523.944,1584.47 530.611,1575.8 538.5,1568C 541.86,1565.46 545.527,1563.96 549.5,1563.5 Z M 377.5,1602.5 C 383.31,1601.51 389.31,1601.18 395.5,1601.5C 395.296,1604.52 394.963,1607.52 394.5,1610.5C 387.614,1610.11 381.947,1607.44 377.5,1602.5 Z M 375.5,1620.5 C 379.18,1621.56 382.846,1622.73 386.5,1624C 383.763,1627.29 380.43,1628.12 376.5,1626.5C 375.652,1624.59 375.318,1622.59 375.5,1620.5 Z"/></g>
<g><path style="opacity:0.825" fill="#000000" d="M 642.5,1567.5 C 647.599,1567.17 652.599,1567.67 657.5,1569C 661.217,1572.38 665.217,1575.38 669.5,1578C 674.791,1579.22 680.124,1580.22 685.5,1581C 687.286,1581.2 688.619,1582.03 689.5,1583.5C 687.808,1584.97 685.808,1585.64 683.5,1585.5C 672.295,1582.9 660.962,1581.74 649.5,1582C 648.98,1599.85 648.147,1617.68 647,1635.5C 643.333,1638.17 639.667,1638.17 636,1635.5C 634.12,1644.38 628.62,1649.54 619.5,1651C 596.237,1654.24 585.904,1644.07 588.5,1620.5C 582.736,1617.18 582.069,1613.01 586.5,1608C 588.351,1607.16 590.184,1606.33 592,1605.5C 594.545,1595.91 599.045,1587.41 605.5,1580C 613.807,1576.71 622.141,1576.71 630.5,1580C 632.049,1581.21 633.215,1582.71 634,1584.5C 633.733,1577.13 636.566,1571.46 642.5,1567.5 Z M 615.5,1590.5 C 617.604,1590.2 619.604,1590.53 621.5,1591.5C 618.623,1593.86 615.456,1595.86 612,1597.5C 612.066,1594.7 613.233,1592.37 615.5,1590.5 Z M 633.5,1597.5 C 634.166,1602.15 634.499,1606.99 634.5,1612C 634.357,1617.92 633.691,1623.75 632.5,1629.5C 632.686,1631.58 633.686,1633.08 635.5,1634C 634.552,1634.48 633.552,1634.65 632.5,1634.5C 632.069,1638.08 630.069,1640.41 626.5,1641.5C 620.311,1639.4 613.978,1637.9 607.5,1637C 605.939,1636.68 604.772,1635.85 604,1634.5C 603.833,1632 603.667,1629.5 603.5,1627C 603.309,1623.29 603.975,1619.79 605.5,1616.5C 612.955,1613.27 620.288,1609.77 627.5,1606C 630.523,1603.82 632.523,1600.99 633.5,1597.5 Z"/></g>
<g><path style="opacity:0.68" fill="#000000" d="M 1344.5,1597.5 C 1346.86,1597.67 1349.19,1598.01 1351.5,1598.5C 1351.66,1600.53 1351.5,1602.53 1351,1604.5C 1343.03,1615.97 1334.86,1627.31 1326.5,1638.5C 1322.11,1641.33 1317.94,1640.99 1314,1637.5C 1313.25,1634.7 1313.58,1632.03 1315,1629.5C 1317.72,1628.11 1320.56,1626.94 1323.5,1626C 1329.83,1619 1336.17,1612 1342.5,1605C 1340.84,1601.78 1341.51,1599.28 1344.5,1597.5 Z"/></g>
<g><path style="opacity:0.612" fill="#000000" d="M 1291.5,1687.5 C 1299,1686.17 1302.5,1689.17 1302,1696.5C 1298.7,1701.77 1294.37,1702.77 1289,1699.5C 1286.52,1694.67 1287.36,1690.67 1291.5,1687.5 Z"/></g>
<g><path style="opacity:0.83" fill="#000000" d="M 422.5,1691.5 C 438.216,1691.08 453.883,1691.58 469.5,1693C 480.598,1695.59 486.932,1702.43 488.5,1713.5C 494.577,1713.2 500.577,1713.7 506.5,1715C 508.455,1715.95 510.122,1717.29 511.5,1719C 515.26,1718.81 518.426,1719.97 521,1722.5C 522.448,1732.06 522.948,1741.73 522.5,1751.5C 525.958,1753.07 529.624,1753.57 533.5,1753C 536.66,1750.67 539.327,1747.84 541.5,1744.5C 542.325,1743.61 543.325,1743.28 544.5,1743.5C 540.95,1758.21 531.617,1765.05 516.5,1764C 512.667,1762.83 510.167,1760.33 509,1756.5C 508.667,1752.83 508.333,1749.17 508,1745.5C 501.857,1753.65 494.023,1759.48 484.5,1763C 471.413,1766.08 465.08,1760.91 465.5,1747.5C 450.935,1754.43 435.602,1757.59 419.5,1757C 415.066,1753.73 414.4,1749.73 417.5,1745C 418.833,1744.33 420.167,1743.67 421.5,1743C 438.999,1742.61 454.999,1737.61 469.5,1728C 476.858,1721.59 477.191,1714.92 470.5,1708C 468.5,1707.33 466.5,1706.67 464.5,1706C 452.167,1705.33 439.833,1705.33 427.5,1706C 417.024,1706.04 410.691,1711.04 408.5,1721C 409.217,1731.45 410.051,1741.95 411,1752.5C 414.935,1765.47 418.768,1778.47 422.5,1791.5C 421.922,1798.46 418.255,1800.96 411.5,1799C 408.727,1796.62 406.561,1793.78 405,1790.5C 399.742,1777.73 395.076,1764.73 391,1751.5C 389.672,1746.56 389.339,1741.56 390,1736.5C 391.264,1734.39 393.097,1733.39 395.5,1733.5C 391.026,1710.38 400.026,1696.38 422.5,1691.5 Z M 502.5,1725.5 C 503.552,1725.35 504.552,1725.52 505.5,1726C 499.739,1733.85 493.072,1740.85 485.5,1747C 483.975,1748.01 482.308,1748.51 480.5,1748.5C 481.08,1734.26 488.413,1726.59 502.5,1725.5 Z"/></g>
<g><path style="opacity:0.835" fill="#000000" d="M 592.5,1696.5 C 601.322,1694.65 603.655,1697.65 599.5,1705.5C 600.036,1719.88 600.036,1734.21 599.5,1748.5C 604.53,1743.98 610.196,1740.48 616.5,1738C 622.833,1737.33 629.167,1737.33 635.5,1738C 639.58,1740.31 642.08,1743.81 643,1748.5C 645.367,1761.4 646.034,1774.4 645,1787.5C 642.839,1791.12 639.672,1792.29 635.5,1791C 633.667,1790.5 632.5,1789.33 632,1787.5C 631.982,1775.74 630.982,1764.07 629,1752.5C 625.491,1751.23 621.991,1751.4 618.5,1753C 610.382,1757.45 603.882,1763.62 599,1771.5C 597.015,1775.81 594.848,1779.98 592.5,1784C 585.263,1787.08 581.263,1784.75 580.5,1777C 583.379,1756.24 585.546,1735.41 587,1714.5C 587.292,1707.99 589.126,1701.99 592.5,1696.5 Z"/></g>
<g><path style="opacity:0.71" fill="#000000" d="M 1273.5,1746.5 C 1277.58,1746.04 1281.42,1746.71 1285,1748.5C 1285.17,1749.33 1285.33,1750.17 1285.5,1751C 1284.13,1754.71 1282.3,1758.21 1280,1761.5C 1273.3,1765.41 1269.13,1763.58 1267.5,1756C 1268.14,1751.86 1270.14,1748.7 1273.5,1746.5 Z"/></g>
<g><path style="opacity:0.304" fill="#000000" d="M 1189.5,1786.5 C 1190.83,1786.5 1192.17,1786.5 1193.5,1786.5C 1193.5,1787.83 1193.5,1789.17 1193.5,1790.5C 1192.17,1790.5 1190.83,1790.5 1189.5,1790.5C 1189.5,1789.17 1189.5,1787.83 1189.5,1786.5 Z"/></g>
<g><path style="opacity:0.188" fill="#000000" d="M 1208.5,1823.5 C 1209.5,1823.5 1210.5,1823.5 1211.5,1823.5C 1211.5,1824.5 1211.5,1825.5 1211.5,1826.5C 1210.5,1826.5 1209.5,1826.5 1208.5,1826.5C 1208.5,1825.5 1208.5,1824.5 1208.5,1823.5 Z"/></g>
<g><path style="opacity:0.665" fill="#000000" d="M 1218.5,1846.5 C 1226.1,1844.42 1228.94,1847.09 1227,1854.5C 1225.14,1856.36 1223.31,1858.19 1221.5,1860C 1213.82,1861.81 1210.49,1858.98 1211.5,1851.5C 1213.81,1849.65 1216.14,1847.98 1218.5,1846.5 Z"/></g>
<g><path style="opacity:0.59" fill="#000000" d="M 1213.5,1915.5 C 1215.2,1915.34 1216.87,1915.51 1218.5,1916C 1220.29,1921.64 1218.46,1925.47 1213,1927.5C 1210.06,1927.06 1208.23,1925.39 1207.5,1922.5C 1208.8,1919.53 1210.8,1917.2 1213.5,1915.5 Z"/></g>
<g><path style="opacity:0.401" fill="#000000" d="M 1219.5,1981.5 C 1221.98,1981.32 1223.81,1982.32 1225,1984.5C 1224.87,1987.95 1223.21,1988.95 1220,1987.5C 1219.5,1985.53 1219.34,1983.53 1219.5,1981.5 Z"/></g>
<g><path style="opacity:0.613" fill="#000000" d="M 1221.5,2049.5 C 1223.83,2049.5 1226.17,2049.5 1228.5,2049.5C 1229.67,2055.5 1227.51,2059.5 1222,2061.5C 1219.17,2061.33 1217.67,2059.83 1217.5,2057C 1218.45,2054.27 1219.78,2051.77 1221.5,2049.5 Z"/></g>
<g><path style="opacity:0.844" fill="#000000" d="M 1022.5,2417.5 C 1038.89,2417.06 1055.22,2417.56 1071.5,2419C 1079.19,2421.52 1083.86,2426.69 1085.5,2434.5C 1083.12,2432.84 1080.46,2431.51 1077.5,2430.5C 1073.02,2431.29 1068.52,2431.96 1064,2432.5C 1053.19,2431.58 1042.36,2431.25 1031.5,2431.5C 1033.94,2445.83 1037.61,2459.83 1042.5,2473.5C 1049.84,2473.67 1057.17,2473.5 1064.5,2473C 1070.1,2465.73 1077.44,2461.39 1086.5,2460C 1082.1,2444.4 1087.77,2438.73 1103.5,2443C 1123.19,2451.56 1129.36,2466.06 1122,2486.5C 1118.16,2495.17 1111.66,2500.67 1102.5,2503C 1092.11,2503.9 1081.77,2503.57 1071.5,2502C 1063.76,2499.66 1060.09,2494.5 1060.5,2486.5C 1054.46,2486.17 1048.46,2486.5 1042.5,2487.5C 1038.33,2492.57 1034.33,2492.57 1030.5,2487.5C 1026.2,2486.67 1021.87,2486.17 1017.5,2486C 1009.51,2485.13 1007.51,2481.3 1011.5,2474.5C 1016.89,2473.15 1022.22,2472.48 1027.5,2472.5C 1021.87,2458.15 1018.2,2443.32 1016.5,2428C 1016.85,2423.45 1018.85,2419.95 1022.5,2417.5 Z M 1104.5,2460.5 C 1105.5,2460.41 1106.33,2460.75 1107,2461.5C 1108.87,2463.57 1109.87,2465.9 1110,2468.5C 1107.14,2466.48 1105.31,2463.82 1104.5,2460.5 Z M 1105.5,2474.5 C 1107.17,2474.5 1108.83,2474.5 1110.5,2474.5C 1110.16,2482.34 1106.16,2487.18 1098.5,2489C 1090.77,2489.86 1083.1,2489.52 1075.5,2488C 1074.29,2487.11 1074.29,2486.27 1075.5,2485.5C 1085.35,2481.21 1095.35,2477.55 1105.5,2474.5 Z"/></g>
<g><path style="opacity:0.8" fill="#000000" d="M 1157.5,2453.5 C 1187.88,2450.89 1197.38,2463.89 1186,2492.5C 1178.56,2510.07 1166.06,2514.9 1148.5,2507C 1145.89,2505.06 1144.06,2502.56 1143,2499.5C 1142.33,2491.83 1142.33,2484.17 1143,2476.5C 1144.24,2471.6 1147.24,2468.26 1152,2466.5C 1151.36,2460.94 1153.2,2456.61 1157.5,2453.5 Z M 1166.5,2467.5 C 1169.88,2467.96 1173.21,2468.63 1176.5,2469.5C 1177.47,2479.45 1174.8,2488.29 1168.5,2496C 1164.53,2497.91 1160.53,2497.91 1156.5,2496C 1155.87,2495.25 1155.37,2494.42 1155,2493.5C 1154.09,2487.39 1154.42,2481.39 1156,2475.5C 1158,2477.75 1160.5,2478.75 1163.5,2478.5C 1163.62,2474.59 1164.62,2470.92 1166.5,2467.5 Z"/></g>
</svg>
