<?xml version="1.0" encoding="UTF-8"?>
<!DOCTYPE svg PUBLIC "-//W3C//DTD SVG 1.1//EN" "http://www.w3.org/Graphics/SVG/1.1/DTD/svg11.dtd">
<svg xmlns="http://www.w3.org/2000/svg" version="1.1" width="2550px" height="2550px" style="shape-rendering:geometricPrecision; text-rendering:geometricPrecision; image-rendering:optimizeQuality; fill-rule:evenodd; clip-rule:evenodd" xmlns:xlink="http://www.w3.org/1999/xlink">
<g><path style="opacity:0.829" fill="#000000" d="M 1201.5,506.5 C 1205.61,505.85 1209.11,506.85 1212,509.5C 1213.93,519.487 1212.76,529.153 1208.5,538.5C 1220.79,560.09 1232.29,582.09 1243,604.5C 1251.81,605.107 1260.65,605.94 1269.5,607C 1275.48,611.156 1275.81,615.489 1270.5,620C 1264.17,620.333 1257.83,620.667 1251.5,621C 1257.5,630.127 1259,639.961 1256,650.5C 1254,651.833 1252,651.833 1250,650.5C 1245.03,640.562 1240.03,630.562 1235,620.5C 1218.52,623.33 1202.35,627.496 1186.5,633C 1193.28,639.054 1200.94,643.554 1209.5,646.5C 1210.73,647.651 1210.73,648.817 1209.5,650C 1199.81,648.831 1190.14,647.164 1180.5,645C 1171.7,642.239 1167.87,636.405 1169,627.5C 1170.5,624.667 1172.67,622.5 1175.5,621C 1192.5,614.918 1209.83,610.085 1227.5,606.5C 1218.92,589.011 1210.09,571.677 1201,554.5C 1186.65,580.532 1172.32,606.532 1158,632.5C 1152.88,636.875 1148.55,636.209 1145,630.5C 1144.36,619.28 1145.7,608.28 1149,597.5C 1157.07,572.95 1165.74,548.617 1175,524.5C 1178.59,516.567 1184.42,514.4 1192.5,518C 1195,519.167 1196.83,521 1198,523.5C 1199.15,521.246 1199.48,518.913 1199,516.5C 1197.99,517.337 1196.82,517.67 1195.5,517.5C 1195.34,516.127 1195.51,514.793 1196,513.5C 1198.3,511.46 1200.14,509.126 1201.5,506.5 Z M 1169.5,581.5 C 1173.78,564.654 1179.45,548.321 1186.5,532.5C 1188.66,534.831 1190.66,537.331 1192.5,540C 1185.2,554.105 1177.53,567.939 1169.5,581.5 Z"/></g>
<g><path style="opacity:0.829" fill="#000000" d="M 1314.5,667.5 C 1344.17,667.333 1373.84,667.5 1403.5,668C 1426.41,672.123 1448.41,679.123 1469.5,689C 1493.32,701.078 1516.99,713.412 1540.5,726C 1556.34,732.393 1572.34,738.393 1588.5,744C 1618.94,758.378 1647.94,775.045 1675.5,794C 1706.45,816.615 1737.12,839.615 1767.5,863C 1792.33,886.502 1818.33,908.502 1845.5,929C 1852.55,935.377 1858.05,942.877 1862,951.5C 1869.71,977.258 1879.38,1002.26 1891,1026.5C 1900.29,1049.54 1907.46,1073.2 1912.5,1097.5C 1912.52,1099.25 1912.19,1101.08 1911.5,1103C 1913.31,1109.72 1914.48,1116.55 1915,1123.5C 1921.37,1134.57 1926.37,1146.23 1930,1158.5C 1931.5,1166.37 1928.33,1169.87 1920.5,1169C 1917.14,1165.6 1915.3,1161.43 1915,1156.5C 1909.87,1145.91 1905.04,1135.24 1900.5,1124.5C 1900.71,1123.91 1901.04,1123.41 1901.5,1123C 1898.61,1113.08 1897.11,1102.92 1897,1092.5C 1887.3,1057.08 1874.64,1022.74 1859,989.5C 1854.86,976.759 1850.53,964.092 1846,951.5C 1842.2,946.699 1838.03,942.199 1833.5,938C 1806.66,917.836 1780.99,896.169 1756.5,873C 1727.52,850.513 1698.19,828.513 1668.5,807C 1643.11,789.308 1616.45,773.641 1588.5,760C 1569.26,753.255 1550.26,745.922 1531.5,738C 1505.78,724.141 1479.78,710.807 1453.5,698C 1435.8,690.433 1417.47,685.1 1398.5,682C 1372.5,681.333 1346.5,681.333 1320.5,682C 1280.88,687.923 1241.21,693.59 1201.5,699C 1165.58,702.33 1129.58,703.997 1093.5,704C 1047.84,709.732 1002.51,717.398 957.5,727C 912.401,741.546 871.068,762.879 833.5,791C 819.91,803.254 807.743,816.754 797,831.5C 782.584,853.33 768.417,875.33 754.5,897.5C 758.656,902.146 761.489,907.479 763,913.5C 764.042,935.559 763.376,957.559 761,979.5C 757.258,1001.32 747.925,1020.32 733,1036.5C 718.581,1052.11 702.081,1064.95 683.5,1075C 631.049,1098.15 578.715,1121.48 526.5,1145C 513.323,1150.38 499.656,1153.71 485.5,1155C 454.5,1155.67 423.5,1155.67 392.5,1155C 358.848,1155.74 329.681,1144.9 305,1122.5C 292.623,1107.12 282.29,1090.45 274,1072.5C 267.1,1027 275.1,984.336 298,944.5C 311.422,922.744 329.588,906.244 352.5,895C 361.647,893.955 370.647,894.621 379.5,897C 380.047,897.925 380.713,898.758 381.5,899.5C 386.448,897.846 391.448,896.346 396.5,895C 403.379,891.394 410.379,888.061 417.5,885C 430.833,884.667 444.167,884.333 457.5,884C 477.162,881.001 496.828,878.001 516.5,875C 551.437,871.377 586.437,868.71 621.5,867C 651.182,866.169 680.849,866.503 710.5,868C 724.208,870.854 735.875,877.354 745.5,887.5C 755.488,872.202 764.988,856.535 774,840.5C 787.318,819.075 803.151,799.575 821.5,782C 854.06,756.041 890.06,735.707 929.5,721C 941.188,716.326 953.188,712.66 965.5,710C 1000.09,703.568 1034.76,697.568 1069.5,692C 1111.83,689.667 1154.16,687.333 1196.5,685C 1236.09,679.899 1275.43,674.065 1314.5,667.5 Z M 595.5,881.5 C 634.207,881.03 672.873,881.53 711.5,883C 718.327,884.413 724.327,887.413 729.5,892C 736.407,898.236 742.573,905.069 748,912.5C 750.354,936.859 749.687,961.192 746,985.5C 742.363,998.441 736.363,1010.11 728,1020.5C 712.333,1040.18 693.166,1055.34 670.5,1066C 628.579,1084.3 586.912,1102.96 545.5,1122C 527.568,1130.53 508.902,1136.87 489.5,1141C 456.527,1142.61 423.527,1142.94 390.5,1142C 346.104,1141.74 313.604,1122.24 293,1083.5C 290.06,1077.95 287.394,1072.29 285,1066.5C 279.945,1022.39 288.945,981.39 312,943.5C 315.453,938.379 319.286,933.546 323.5,929C 335.147,929.955 346.814,929.622 358.5,928C 367.147,923.367 375.813,918.7 384.5,914C 390.121,912.178 395.788,910.511 401.5,909C 408.379,905.394 415.379,902.061 422.5,899C 436.167,898.667 449.833,898.333 463.5,898C 480.207,895.592 496.874,892.925 513.5,890C 541.05,887.846 568.383,885.012 595.5,881.5 Z M 367.5,900.5 C 370.518,900.335 373.518,900.502 376.5,901C 371.167,904.333 365.833,907.667 360.5,911C 353.629,914.885 346.295,916.218 338.5,915C 343.5,911.333 348.5,907.667 353.5,904C 358.138,902.223 362.805,901.056 367.5,900.5 Z M 365.5,996.5 C 371.925,996.13 378.258,996.63 384.5,998C 386.138,1000.13 386.971,1002.63 387,1005.5C 389.228,1007.97 392.062,1009.13 395.5,1009C 391.824,1018.69 386.157,1027.02 378.5,1034C 368.282,1038.88 358.282,1038.38 348.5,1032.5C 346.392,1030.62 345.059,1028.28 344.5,1025.5C 345.878,1015.25 350.544,1006.75 358.5,1000C 360.925,998.787 363.259,997.621 365.5,996.5 Z"/></g>
<g><path style="opacity:0.834" fill="#000000" d="M 667.5,931.5 C 671.808,930.735 674.642,932.402 676,936.5C 676.128,955.194 676.795,973.861 678,992.5C 680.673,1002.69 683.84,1012.69 687.5,1022.5C 687.251,1029.54 683.918,1031.38 677.5,1028C 670.714,1018.92 666.214,1008.75 664,997.5C 662.437,977.531 662.103,957.531 663,937.5C 663.979,935.032 665.479,933.032 667.5,931.5 Z"/></g>
<g><path style="opacity:0.826" fill="#000000" d="M 531.5,975.5 C 535.287,974.814 538.454,975.814 541,978.5C 543.969,987.375 546.469,996.375 548.5,1005.5C 563.815,1004.43 579.149,1004.27 594.5,1005C 599.209,1004.74 603.209,1006.24 606.5,1009.5C 607.295,1013.93 605.295,1016.76 600.5,1018C 584.45,1018.08 568.45,1018.92 552.5,1020.5C 555.621,1036.54 561.288,1051.54 569.5,1065.5C 567.313,1071.49 563.313,1072.99 557.5,1070C 553.472,1066.11 550.306,1061.61 548,1056.5C 543.91,1045.07 540.743,1033.4 538.5,1021.5C 535.393,1021.35 532.393,1021.85 529.5,1023C 531.833,1025.17 534.167,1027.33 536.5,1029.5C 537.309,1031.07 537.643,1032.74 537.5,1034.5C 529.87,1032.36 522.203,1030.19 514.5,1028C 506.939,1023.17 506.606,1017.84 513.5,1012C 520.303,1009.55 527.303,1007.88 534.5,1007C 530.991,997.467 529.158,987.633 529,977.5C 529.995,976.934 530.828,976.267 531.5,975.5 Z"/></g>
<g><path style="opacity:0.83" fill="#000000" d="M 368.5,981.5 C 376.786,981.586 384.786,983.086 392.5,986C 395.762,988.592 398.262,991.759 400,995.5C 404.485,992.884 408.152,993.884 411,998.5C 411.333,1020.83 411.667,1043.17 412,1065.5C 412.374,1066.42 412.874,1067.25 413.5,1068C 418.498,1070.01 423.498,1070.34 428.5,1069C 431.342,1065.33 434.342,1061.83 437.5,1058.5C 437.932,1063.41 436.765,1068.07 434,1072.5C 430.799,1076.04 427.299,1079.2 423.5,1082C 410.932,1085.63 402.432,1081.47 398,1069.5C 397.068,1058.85 396.401,1048.18 396,1037.5C 382.887,1051.78 367.054,1055.61 348.5,1049C 332.062,1041.95 326.562,1029.78 332,1012.5C 338.34,994.971 350.507,984.638 368.5,981.5 Z M 365.5,996.5 C 363.259,997.621 360.925,998.787 358.5,1000C 350.544,1006.75 345.878,1015.25 344.5,1025.5C 345.059,1028.28 346.392,1030.62 348.5,1032.5C 358.282,1038.38 368.282,1038.88 378.5,1034C 386.157,1027.02 391.824,1018.69 395.5,1009C 392.062,1009.13 389.228,1007.97 387,1005.5C 386.971,1002.63 386.138,1000.13 384.5,998C 378.258,996.63 371.925,996.13 365.5,996.5 Z"/></g>
<g><path style="opacity:0.826" fill="#000000" d="M 468.5,989.5 C 480.192,986.774 489.026,990.441 495,1000.5C 498.115,1005.84 500.448,1011.51 502,1017.5C 504.146,1029.49 506.146,1041.49 508,1053.5C 509.816,1055.44 511.816,1056.11 514,1055.5C 515.386,1057.75 515.219,1060.08 513.5,1062.5C 506.607,1068.25 500.44,1067.59 495,1060.5C 492.53,1045.96 489.697,1031.46 486.5,1017C 484.852,1013.05 483.019,1009.21 481,1005.5C 475.825,1002.4 471.492,1003.4 468,1008.5C 466.268,1012.36 464.934,1016.36 464,1020.5C 462.002,1035.42 461.002,1050.42 461,1065.5C 458.234,1071.69 453.9,1073.02 448,1069.5C 442.317,1057.47 436.65,1045.47 431,1033.5C 429.197,1025.82 429.197,1018.15 431,1010.5C 432.361,1005.65 435.361,1004.32 440,1006.5C 440.121,1017.36 442.454,1027.69 447,1037.5C 447.271,1023.16 450.938,1009.83 458,997.5C 460.94,993.963 464.44,991.297 468.5,989.5 Z"/></g>
<g><path style="opacity:0.839" fill="#000000" d="M 2024.5,1147.5 C 2055.69,1146.3 2086.69,1148.13 2117.5,1153C 2173,1164.49 2219.5,1191.32 2257,1233.5C 2263.66,1241.48 2269.33,1250.15 2274,1259.5C 2278.46,1274.57 2278.13,1289.57 2273,1304.5C 2260.77,1329.75 2244.27,1351.92 2223.5,1371C 2188.92,1402.63 2148.92,1424.97 2103.5,1438C 2060.69,1450.15 2017.02,1455.65 1972.5,1454.5C 1951.49,1454 1930.49,1453.17 1909.5,1452C 1878.01,1450.04 1848.34,1441.71 1820.5,1427C 1786.03,1407.19 1773.53,1377.69 1783,1338.5C 1785.81,1324.05 1790.98,1310.55 1798.5,1298C 1791.74,1295.32 1784.74,1293.65 1777.5,1293C 1757.5,1292.67 1737.5,1292.33 1717.5,1292C 1699.93,1288.69 1682.26,1286.02 1664.5,1284C 1647.76,1280.31 1631.09,1276.31 1614.5,1272C 1591.17,1271.33 1567.83,1271.33 1544.5,1272C 1500.5,1276 1456.5,1280 1412.5,1284C 1368.87,1289.33 1325.2,1294.33 1281.5,1299C 1268.67,1300.9 1256,1303.57 1243.5,1307C 1220.23,1314.2 1196.89,1321.2 1173.5,1328C 1135.8,1334.28 1098.46,1342.28 1061.5,1352C 1034.44,1358.07 1007.1,1362.4 979.5,1365C 919.19,1368.78 858.857,1371.95 798.5,1374.5C 799.039,1385.62 798.205,1396.62 796,1407.5C 793.06,1415.1 788.56,1421.6 782.5,1427C 751.681,1448.91 718.014,1465.24 681.5,1476C 618.317,1494.46 553.817,1502.63 488,1500.5C 447.502,1502.08 407.335,1499.25 367.5,1492C 344.841,1487.33 324.174,1478.33 305.5,1465C 287.61,1450.85 279.944,1432.35 282.5,1409.5C 282.884,1397.47 283.718,1385.47 285,1373.5C 292.354,1340.15 312.521,1319.31 345.5,1311C 355.5,1310.33 365.5,1310.33 375.5,1311C 383.024,1314.59 383.358,1318.59 376.5,1323C 342.843,1319.57 318.343,1332.74 303,1362.5C 300.311,1369.94 298.645,1377.61 298,1385.5C 287.548,1423.62 300.048,1450.46 335.5,1466C 369.858,1479.43 405.525,1486.1 442.5,1486C 520.882,1491.74 597.882,1484.08 673.5,1463C 706.637,1453.41 737.637,1439.41 766.5,1421C 776.769,1414.62 782.602,1405.46 784,1393.5C 784.5,1386.84 784.666,1380.17 784.5,1373.5C 778.153,1372.29 771.82,1372.29 765.5,1373.5C 765.657,1371.18 766.824,1369.52 769,1368.5C 773.795,1367.75 778.628,1367.25 783.5,1367C 780.852,1324.05 760.185,1293.05 721.5,1274C 707.796,1267.99 693.463,1264.66 678.5,1264C 635.637,1260.94 593.637,1265.61 552.5,1278C 501.573,1290.53 452.573,1308.2 405.5,1331C 394.666,1336.58 384.332,1342.91 374.5,1350C 373.167,1350.67 373.167,1351.33 374.5,1352C 382.395,1354.81 390.395,1357.31 398.5,1359.5C 398.291,1360.09 397.957,1360.59 397.5,1361C 389.655,1362.5 381.822,1364 374,1365.5C 367.631,1365.22 361.465,1364.05 355.5,1362C 349.669,1355.32 350.335,1349.32 357.5,1344C 396.005,1317.58 437.672,1297.25 482.5,1283C 513.492,1273.11 544.826,1264.45 576.5,1257C 611.823,1249.86 647.489,1247.53 683.5,1250C 737.401,1255.26 773.901,1283.09 793,1333.5C 796.555,1344.22 798.388,1355.22 798.5,1366.5C 813.201,1365 827.868,1363.16 842.5,1361C 890.828,1357.33 939.161,1353.67 987.5,1350C 1027.36,1344.56 1066.69,1336.56 1105.5,1326C 1125.17,1322.33 1144.83,1318.67 1164.5,1315C 1189.29,1308.07 1213.95,1300.74 1238.5,1293C 1249.03,1290.03 1259.7,1287.7 1270.5,1286C 1359.95,1274.54 1449.61,1265.21 1539.5,1258C 1566.17,1257.33 1592.83,1257.33 1619.5,1258C 1632.83,1261.33 1646.17,1264.67 1659.5,1268C 1677.95,1270.25 1696.28,1273.25 1714.5,1277C 1736.8,1278.24 1759.14,1278.91 1781.5,1279C 1789.72,1279.91 1797.72,1281.74 1805.5,1284.5C 1817.92,1265.23 1832.42,1247.57 1849,1231.5C 1849.53,1226.44 1851.19,1221.78 1854,1217.5C 1861.33,1209.6 1869.5,1202.76 1878.5,1197C 1923.49,1169.39 1972.15,1152.89 2024.5,1147.5 Z M 2030.5,1161.5 C 2075.25,1158.92 2118.58,1165.42 2160.5,1181C 2198.83,1198 2230.67,1223.17 2256,1256.5C 2264.53,1273.42 2264.53,1290.42 2256,1307.5C 2227.5,1352.67 2189,1386.5 2140.5,1409C 2086.6,1431.51 2030.43,1441.68 1972,1439.5C 1944.37,1440.2 1916.87,1438.7 1889.5,1435C 1862.36,1430.58 1837.36,1420.92 1814.5,1406C 1804.64,1398.47 1798.47,1388.64 1796,1376.5C 1792.93,1350.1 1798.1,1325.43 1811.5,1302.5C 1813.77,1301.69 1816.1,1301.19 1818.5,1301C 1823.47,1297.44 1823.8,1293.44 1819.5,1289C 1846.86,1248.32 1881.53,1215.32 1923.5,1190C 1927.06,1188.59 1930.72,1187.59 1934.5,1187C 1946.7,1186.67 1958.87,1185.84 1971,1184.5C 1972.5,1184.83 1974,1185.17 1975.5,1185.5C 1977.11,1188.89 1979.78,1190.23 1983.5,1189.5C 1982.98,1185.12 1980.64,1181.96 1976.5,1180C 1970.99,1178.21 1965.32,1177.04 1959.5,1176.5C 1982.6,1168.28 2006.27,1163.28 2030.5,1161.5 Z M 2134.5,1305.5 C 2136.17,1305.5 2137.83,1305.5 2139.5,1305.5C 2140.83,1311.15 2142.16,1316.82 2143.5,1322.5C 2143.39,1323.44 2143.06,1324.28 2142.5,1325C 2123.71,1333.95 2104.04,1336.95 2083.5,1334C 2098.05,1319.91 2115.05,1310.41 2134.5,1305.5 Z M 1964.5,1312.5 C 1975.66,1316.42 1986,1321.92 1995.5,1329C 2001.49,1333.63 2002.82,1339.63 1999.5,1347C 2001.34,1352.99 1999.34,1357.32 1993.5,1360C 1978.67,1365.66 1963.67,1365.99 1948.5,1361C 1937.41,1356.44 1933.57,1348.27 1937,1336.5C 1938.92,1330.57 1942.42,1325.74 1947.5,1322C 1952.94,1318.28 1958.6,1315.12 1964.5,1312.5 Z M 2037.5,1314.5 C 2048.35,1314.31 2058.68,1316.48 2068.5,1321C 2069.69,1322.02 2070.69,1323.19 2071.5,1324.5C 2062.56,1342.24 2048.06,1351.24 2028,1351.5C 2024.15,1351.24 2020.32,1350.91 2016.5,1350.5C 2016.33,1345.49 2016.5,1340.49 2017,1335.5C 2020.64,1329.86 2024.98,1324.86 2030,1320.5C 2034.96,1322.43 2040.13,1323.43 2045.5,1323.5C 2045.5,1322.5 2045.5,1321.5 2045.5,1320.5C 2042.64,1320.07 2039.97,1319.07 2037.5,1317.5C 2036.21,1316.47 2036.21,1315.47 2037.5,1314.5 Z M 1224.5,1381.5 C 1238.54,1381.11 1252.54,1381.61 1266.5,1383C 1273.87,1385.24 1275.2,1389.24 1270.5,1395C 1256.56,1401.64 1242.23,1407.14 1227.5,1411.5C 1224.39,1402.02 1221.39,1392.52 1218.5,1383C 1220.71,1382.81 1222.71,1382.31 1224.5,1381.5 Z M 348.5,1410.5 C 346.393,1414.13 343.393,1416.3 339.5,1417C 341.853,1413.83 344.853,1411.67 348.5,1410.5 Z"/></g>
<g><path style="opacity:0.841" fill="#000000" d="M 2128.5,1214.5 C 2132.83,1213.45 2135,1215.12 2135,1219.5C 2136.09,1230.2 2137.43,1240.87 2139,1251.5C 2148.61,1284 2157.61,1316.67 2166,1349.5C 2166.22,1358.92 2162.38,1360.92 2154.5,1355.5C 2150.2,1346.89 2147.03,1337.89 2145,1328.5C 2137.31,1340.77 2126.15,1347.6 2111.5,1349C 2106.17,1349.17 2100.83,1349.33 2095.5,1349.5C 2088.19,1349.72 2081.02,1349.05 2074,1347.5C 2056.01,1364.34 2035.01,1369.67 2011,1363.5C 2006.68,1369.14 2001.18,1373.31 1994.5,1376C 1981.95,1378.46 1969.29,1379.12 1956.5,1378C 1929.19,1374.69 1918.02,1359.52 1923,1332.5C 1924.32,1327.02 1926.82,1322.19 1930.5,1318C 1923.23,1318.39 1915.89,1318.56 1908.5,1318.5C 1912.83,1337.83 1917.17,1357.17 1921.5,1376.5C 1923.17,1376.5 1924.83,1376.5 1926.5,1376.5C 1926.31,1385.37 1921.98,1389.04 1913.5,1387.5C 1911.54,1386.25 1910.04,1384.59 1909,1382.5C 1903.01,1361.36 1897.84,1340.03 1893.5,1318.5C 1887.76,1318.38 1883.26,1316.05 1880,1311.5C 1877.99,1303.84 1880.83,1299.17 1888.5,1297.5C 1882.29,1276.93 1879.79,1255.93 1881,1234.5C 1881.83,1232.33 1883.33,1230.83 1885.5,1230C 1892.21,1228.27 1897.71,1230.1 1902,1235.5C 1903.01,1237.02 1903.51,1238.69 1903.5,1240.5C 1896.26,1238.29 1893.26,1240.96 1894.5,1248.5C 1896.27,1264.66 1898.93,1280.66 1902.5,1296.5C 1904.63,1296.15 1905.97,1296.98 1906.5,1299C 1904.99,1300.88 1904.32,1303.05 1904.5,1305.5C 1918.17,1305.97 1931.84,1306.14 1945.5,1306C 1958.11,1298.21 1971.44,1296.55 1985.5,1301C 1986.1,1302.83 1986.77,1304.66 1987.5,1306.5C 1995.02,1310.42 2002.02,1315.09 2008.5,1320.5C 2012.21,1316.79 2016.21,1313.46 2020.5,1310.5C 2021.26,1306.14 2023.59,1302.97 2027.5,1301C 2041.79,1299.51 2055.79,1300.84 2069.5,1305C 2074.69,1307.42 2079.35,1310.59 2083.5,1314.5C 2092.33,1307.92 2101.66,1302.08 2111.5,1297C 2119.7,1294.47 2128.04,1293.8 2136.5,1295C 2131.81,1281.09 2127.98,1266.93 2125,1252.5C 2124.33,1242.17 2124.33,1231.83 2125,1221.5C 2125.13,1218.6 2126.3,1216.26 2128.5,1214.5 Z M 2134.5,1305.5 C 2115.05,1310.41 2098.05,1319.91 2083.5,1334C 2104.04,1336.95 2123.71,1333.95 2142.5,1325C 2143.06,1324.28 2143.39,1323.44 2143.5,1322.5C 2142.16,1316.82 2140.83,1311.15 2139.5,1305.5C 2137.83,1305.5 2136.17,1305.5 2134.5,1305.5 Z M 1964.5,1312.5 C 1958.6,1315.12 1952.94,1318.28 1947.5,1322C 1942.42,1325.74 1938.92,1330.57 1937,1336.5C 1933.57,1348.27 1937.41,1356.44 1948.5,1361C 1963.67,1365.99 1978.67,1365.66 1993.5,1360C 1999.34,1357.32 2001.34,1352.99 1999.5,1347C 2002.82,1339.63 2001.49,1333.63 1995.5,1329C 1986,1321.92 1975.66,1316.42 1964.5,1312.5 Z M 2037.5,1314.5 C 2036.21,1315.47 2036.21,1316.47 2037.5,1317.5C 2039.97,1319.07 2042.64,1320.07 2045.5,1320.5C 2045.5,1321.5 2045.5,1322.5 2045.5,1323.5C 2040.13,1323.43 2034.96,1322.43 2030,1320.5C 2024.98,1324.86 2020.64,1329.86 2017,1335.5C 2016.5,1340.49 2016.33,1345.49 2016.5,1350.5C 2020.32,1350.91 2024.15,1351.24 2028,1351.5C 2048.06,1351.24 2062.56,1342.24 2071.5,1324.5C 2070.69,1323.19 2069.69,1322.02 2068.5,1321C 2058.68,1316.48 2048.35,1314.31 2037.5,1314.5 Z"/></g>
<g><path style="opacity:0.837" fill="#000000" d="M 612.5,1342.5 C 653.348,1335.18 670.514,1351.85 664,1392.5C 661.674,1398.82 657.84,1403.99 652.5,1408C 662.799,1407.19 673.132,1406.85 683.5,1407C 689.937,1409.58 690.937,1413.42 686.5,1418.5C 682.65,1419.98 678.65,1420.82 674.5,1421C 654.547,1423.16 634.547,1423.82 614.5,1423C 608.71,1419.47 608.043,1415.13 612.5,1410C 625.396,1407.3 636.896,1401.8 647,1393.5C 649.999,1388.84 651.165,1383.67 650.5,1378C 650.569,1373.42 650.069,1368.92 649,1364.5C 647.5,1361.67 645.333,1359.5 642.5,1358C 633.461,1356.06 624.461,1356.06 615.5,1358C 617.698,1359.67 618.032,1361.67 616.5,1364C 610.441,1365.74 604.441,1365.74 598.5,1364C 593.167,1358.67 593.167,1353.33 598.5,1348C 603.017,1345.45 607.684,1343.61 612.5,1342.5 Z"/></g>
<g><path style="opacity:0.798" fill="#000000" d="M 515.5,1352.5 C 519.886,1351.77 522.72,1353.44 524,1357.5C 524.504,1368.86 525.337,1380.2 526.5,1391.5C 541.491,1389.7 556.491,1389.53 571.5,1391C 578.132,1395.12 578.132,1399.12 571.5,1403C 559.541,1404.2 547.541,1404.87 535.5,1405C 533.1,1405.19 530.766,1405.69 528.5,1406.5C 530.246,1414.39 531.246,1422.39 531.5,1430.5C 531.446,1433.94 530.78,1437.11 529.5,1440C 528.167,1440.67 526.833,1440.67 525.5,1440C 524.002,1437.52 522.502,1435.02 521,1432.5C 519.423,1423.79 517.757,1415.12 516,1406.5C 515.308,1407.03 514.808,1407.69 514.5,1408.5C 516.055,1410.94 516.722,1413.61 516.5,1416.5C 512.435,1413.98 508.102,1411.82 503.5,1410C 498.623,1405.69 498.29,1401.02 502.5,1396C 506.259,1394.01 510.259,1392.85 514.5,1392.5C 513.224,1379.86 512.724,1367.19 513,1354.5C 513.995,1353.93 514.828,1353.27 515.5,1352.5 Z"/></g>
<g><path style="opacity:0.844" fill="#000000" d="M 1219.5,1367.5 C 1234.84,1367.33 1250.17,1367.5 1265.5,1368C 1284.23,1372.37 1290.4,1383.53 1284,1401.5C 1275.69,1408.07 1266.53,1413.24 1256.5,1417C 1271.18,1418.75 1284.85,1423.42 1297.5,1431C 1310.32,1443.04 1312.99,1457.04 1305.5,1473C 1299,1478.25 1291.67,1481.91 1283.5,1484C 1266.55,1486.95 1249.72,1490.45 1233,1494.5C 1228.72,1492.19 1224.39,1489.86 1220,1487.5C 1216.7,1482.62 1214.37,1477.28 1213,1471.5C 1206.8,1446.25 1204.97,1420.75 1207.5,1395C 1204.99,1389.42 1204.16,1383.59 1205,1377.5C 1207.93,1371.29 1212.77,1367.96 1219.5,1367.5 Z M 1224.5,1381.5 C 1222.71,1382.31 1220.71,1382.81 1218.5,1383C 1221.39,1392.52 1224.39,1402.02 1227.5,1411.5C 1242.23,1407.14 1256.56,1401.64 1270.5,1395C 1275.2,1389.24 1273.87,1385.24 1266.5,1383C 1252.54,1381.61 1238.54,1381.11 1224.5,1381.5 Z M 1232.5,1430.5 C 1251.55,1430.02 1269.88,1433.85 1287.5,1442C 1294.35,1447.21 1296.85,1454.04 1295,1462.5C 1291.2,1465.32 1287.03,1467.49 1282.5,1469C 1266.44,1471.61 1250.6,1475.11 1235,1479.5C 1234.97,1462.97 1234.14,1446.63 1232.5,1430.5 Z"/></g>
<g><path style="opacity:0.833" fill="#000000" d="M 444.5,1387.5 C 453.506,1387.33 462.506,1387.5 471.5,1388C 474.629,1389.4 477.629,1391.07 480.5,1393C 489.422,1402.68 495.255,1413.85 498,1426.5C 494.541,1427.42 491.041,1427.26 487.5,1426C 481.118,1418.62 475.118,1410.95 469.5,1403C 445.702,1397.15 429.536,1405.65 421,1428.5C 419.964,1431.75 419.297,1435.09 419,1438.5C 414.571,1443.81 410.237,1443.81 406,1438.5C 405.562,1426.82 405.895,1415.15 407,1403.5C 410.925,1399.59 414.925,1399.59 419,1403.5C 425.952,1395.45 434.452,1390.12 444.5,1387.5 Z"/></g>
<g><path style="opacity:0.838" fill="#000000" d="M 346.5,1393.5 C 353.636,1393.05 360.636,1393.72 367.5,1395.5C 370.325,1404.82 374.492,1413.48 380,1421.5C 383.876,1424.68 387.376,1428.18 390.5,1432C 394.929,1434.51 399.596,1436.34 404.5,1437.5C 403.975,1438.19 403.308,1438.69 402.5,1439C 398.486,1439.39 394.486,1439.89 390.5,1440.5C 380.556,1440.74 372.723,1436.74 367,1428.5C 365,1425.17 363,1421.83 361,1418.5C 352.259,1431.43 340.425,1435.26 325.5,1430C 320.677,1419.95 322.677,1411.28 331.5,1404C 336.217,1399.99 341.217,1396.49 346.5,1393.5 Z M 348.5,1410.5 C 344.853,1411.67 341.853,1413.83 339.5,1417C 343.393,1416.3 346.393,1414.13 348.5,1410.5 Z"/></g>
</svg>
