<?xml version="1.0" encoding="UTF-8"?>
<!DOCTYPE svg PUBLIC "-//W3C//DTD SVG 1.1//EN" "http://www.w3.org/Graphics/SVG/1.1/DTD/svg11.dtd">
<svg xmlns="http://www.w3.org/2000/svg" version="1.1" width="2550px" height="2550px" style="shape-rendering:geometricPrecision; text-rendering:geometricPrecision; image-rendering:optimizeQuality; fill-rule:evenodd; clip-rule:evenodd" xmlns:xlink="http://www.w3.org/1999/xlink">
<g><path style="opacity:0.816" fill="#000000" d="M 1010.5,686.5 C 1031.84,686.333 1053.17,686.5 1074.5,687C 1094.77,689.241 1115.1,690.408 1135.5,690.5C 1166.81,690.32 1198.14,690.153 1229.5,690C 1239.98,691.204 1250.32,693.204 1260.5,696C 1299.58,707.271 1338.92,717.604 1378.5,727C 1391.91,732.137 1405.58,736.47 1419.5,740C 1429.68,746.248 1440.68,750.582 1452.5,753C 1470.45,759.477 1487.45,767.81 1503.5,778C 1506.98,781.567 1510.64,784.9 1514.5,788C 1537.55,796.991 1558.22,809.657 1576.5,826C 1582.08,828.296 1587.41,830.963 1592.5,834C 1598.91,834.129 1605.25,834.796 1611.5,836C 1614.31,839.294 1613.98,842.294 1610.5,845C 1616.16,848.459 1616.83,852.626 1612.5,857.5C 1610.37,859.117 1608.04,859.617 1605.5,859C 1598.05,853.099 1590.05,847.933 1581.5,843.5C 1555.27,853.91 1532.77,869.576 1514,890.5C 1505.76,901.529 1500.43,913.862 1498,927.5C 1493.82,947.976 1492.49,968.642 1494,989.5C 1496.03,994.864 1499.53,999.031 1504.5,1002C 1518.23,1009.36 1532.56,1015.36 1547.5,1020C 1577.21,1029.41 1607.54,1035.74 1638.5,1039C 1700.61,1048.99 1757.28,1036.32 1808.5,1001C 1824.01,989.409 1839.35,977.575 1854.5,965.5C 1865.55,949.162 1869.72,931.162 1867,911.5C 1864.15,903.634 1859.32,897.134 1852.5,892C 1838.37,880.432 1823.37,870.099 1807.5,861C 1799.43,857.899 1791.1,855.899 1782.5,855C 1746.12,853.944 1709.79,854.611 1673.5,857C 1664.98,858.214 1656.64,860.214 1648.5,863C 1631.58,869.197 1614.58,875.197 1597.5,881C 1589.84,883.398 1582.01,884.898 1574,885.5C 1568.36,886.106 1565.53,883.606 1565.5,878C 1565.4,875.855 1566.06,874.021 1567.5,872.5C 1574.84,871.109 1582.17,869.609 1589.5,868C 1608.84,861.33 1628.18,854.663 1647.5,848C 1656.72,845.69 1666.05,844.023 1675.5,843C 1711.5,842.333 1747.5,842.333 1783.5,843C 1802.46,844.762 1819.46,851.429 1834.5,863C 1847.5,872.095 1859.67,882.262 1871,893.5C 1876.99,901.284 1879.49,910.118 1878.5,920C 1878.9,940.795 1872.57,959.128 1859.5,975C 1843.64,987.026 1827.64,998.86 1811.5,1010.5C 1814.86,1013.94 1818.36,1017.27 1822,1020.5C 1820.6,1025.26 1817.6,1028.92 1813,1031.5C 1808.03,1027.36 1803.2,1023.03 1798.5,1018.5C 1765.35,1039.14 1729.19,1049.14 1690,1048.5C 1624.31,1051.63 1561.81,1039.13 1502.5,1011C 1497.72,1007.52 1493.22,1003.69 1489,999.5C 1487.14,997.112 1485.81,994.446 1485,991.5C 1482.57,964.3 1485.23,937.633 1493,911.5C 1499.23,894.588 1509.4,880.422 1523.5,869C 1538.01,857.24 1553.68,847.24 1570.5,839C 1561.83,832.333 1553.17,825.667 1544.5,819C 1536.75,814.953 1529.08,810.62 1521.5,806C 1510.74,803.122 1501.74,797.455 1494.5,789C 1471.52,775.56 1447.19,765.226 1421.5,758C 1418.83,756.333 1416.17,754.667 1413.5,753C 1399.98,749.271 1386.65,744.938 1373.5,740C 1326.54,727.843 1279.54,715.843 1232.5,704C 1188.83,703.667 1145.17,703.333 1101.5,703C 1078.41,700.3 1055.24,698.8 1032,698.5C 1007.66,699.235 984.16,704.068 961.5,713C 947.672,718.276 934.005,723.943 920.5,730C 891.148,744.546 861.815,758.88 832.5,773C 797.081,794.043 761.081,814.043 724.5,833C 661.813,872.789 606.646,921.289 559,978.5C 543.936,999.918 530.936,1022.58 520,1046.5C 511.987,1070.2 504.987,1094.2 499,1118.5C 495.807,1138.42 493.141,1158.42 491,1178.5C 488.719,1192.91 486.052,1207.24 483,1221.5C 472.221,1248.88 461.054,1276.05 449.5,1303C 451.553,1303.32 453.553,1302.99 455.5,1302C 463.281,1298.11 471.281,1294.78 479.5,1292C 489.204,1291.79 498.87,1291.12 508.5,1290C 526.995,1285.95 545.328,1281.28 563.5,1276C 578.213,1275.09 592.88,1275.42 607.5,1277C 627.961,1281.46 641.461,1293.63 648,1313.5C 649.606,1333.32 647.272,1352.65 641,1371.5C 639.294,1375.08 637.461,1378.58 635.5,1382C 641.698,1383.87 648.032,1385.2 654.5,1386C 705.5,1386.67 756.5,1386.67 807.5,1386C 827.888,1382.99 848.221,1379.66 868.5,1376C 930.729,1374.87 992.729,1370.54 1054.5,1363C 1066.5,1362.67 1078.5,1362.33 1090.5,1362C 1107.44,1359.49 1124.44,1357.49 1141.5,1356C 1147.5,1354.33 1153.5,1352.67 1159.5,1351C 1170.36,1350.03 1181.03,1348.03 1191.5,1345C 1209.84,1344.83 1228.18,1344.33 1246.5,1343.5C 1252.29,1315.36 1267.29,1293.86 1291.5,1279C 1313.61,1268.18 1336.61,1259.52 1360.5,1253C 1368.94,1251.38 1377.44,1250.22 1386,1249.5C 1397.82,1250.21 1409.66,1250.71 1421.5,1251C 1425.18,1252.73 1425.51,1255.06 1422.5,1258C 1451.83,1258.33 1481.17,1258.67 1510.5,1259C 1525.9,1260.01 1538.74,1266.18 1549,1277.5C 1559.45,1293.63 1571.79,1308.3 1586,1321.5C 1591.78,1328.49 1595.45,1336.49 1597,1345.5C 1598.18,1355.8 1598.68,1366.13 1598.5,1376.5C 1600.83,1376.5 1603.17,1376.5 1605.5,1376.5C 1605.67,1380.85 1605.5,1385.18 1605,1389.5C 1602.96,1390.42 1600.79,1390.76 1598.5,1390.5C 1598.92,1400.46 1596.76,1409.79 1592,1418.5C 1575.95,1443.77 1553.78,1461.27 1525.5,1471C 1501.97,1479.07 1478.3,1486.73 1454.5,1494C 1368,1508.86 1300.5,1480.02 1252,1407.5C 1248.68,1401.88 1246.35,1395.88 1245,1389.5C 1244.5,1379.17 1244.33,1368.84 1244.5,1358.5C 1228.5,1358.33 1212.5,1358.5 1196.5,1359C 1186.03,1362.03 1175.36,1364.03 1164.5,1365C 1158.5,1366.67 1152.5,1368.33 1146.5,1370C 1129.77,1371.47 1113.11,1373.47 1096.5,1376C 1067,1376.19 1037.67,1378.52 1008.5,1383C 963.56,1386.51 918.56,1388.84 873.5,1390C 858.082,1392.15 842.748,1394.82 827.5,1398C 818.545,1399.41 809.545,1400.41 800.5,1401C 750.152,1401.93 699.818,1401.59 649.5,1400C 642.394,1398.95 635.394,1397.45 628.5,1395.5C 619.087,1412.67 608.92,1429.33 598,1445.5C 578.689,1467.49 555.522,1483.99 528.5,1495C 522.589,1496.98 516.589,1498.64 510.5,1500C 476.187,1506.8 441.854,1513.46 407.5,1520C 380.191,1521.57 352.857,1521.91 325.5,1521C 302.24,1520.02 280.24,1514.35 259.5,1504C 251.86,1499.27 245.693,1493.11 241,1485.5C 239.377,1468.9 239.044,1452.23 240,1435.5C 242.06,1420.5 244.06,1405.5 246,1390.5C 266.507,1335.14 306.34,1309.98 365.5,1315C 362.833,1311.33 362.833,1307.67 365.5,1304C 377.358,1301.05 388.692,1296.71 399.5,1291C 408.649,1289.44 417.316,1290.78 425.5,1295C 430,1298.08 434.667,1300.92 439.5,1303.5C 441.218,1294.29 443.718,1285.29 447,1276.5C 455.98,1256.56 463.98,1236.23 471,1215.5C 477.864,1182.78 482.864,1149.78 486,1116.5C 491.858,1092.93 498.525,1069.59 506,1046.5C 520.107,1012.93 538.774,982.265 562,954.5C 602.623,908.527 648.123,868.361 698.5,834C 724.556,818.304 751.223,803.637 778.5,790C 794.332,780.918 809.999,771.585 825.5,762C 865.437,741.865 905.771,722.532 946.5,704C 967.282,695.641 988.616,689.807 1010.5,686.5 Z M 1606.5,944.5 C 1608.53,944.338 1610.53,944.505 1612.5,945C 1610.96,946.579 1609.79,948.413 1609,950.5C 1607.99,955.574 1606.49,960.407 1604.5,965C 1594.93,972.914 1583.93,976.747 1571.5,976.5C 1571.21,973.351 1571.71,970.351 1573,967.5C 1579.57,959.635 1587.07,952.802 1595.5,947C 1599.28,946.082 1602.95,945.249 1606.5,944.5 Z M 1395.5,1256.5 C 1403.2,1256.17 1410.86,1256.5 1418.5,1257.5C 1405.51,1258.67 1392.51,1258.83 1379.5,1258C 1385.02,1257.83 1390.35,1257.33 1395.5,1256.5 Z M 1343.5,1267.5 C 1344.79,1270.08 1346.13,1272.75 1347.5,1275.5C 1348.77,1276.05 1350.11,1276.38 1351.5,1276.5C 1354.51,1275.36 1357.51,1275.2 1360.5,1276C 1361.81,1274.61 1361.48,1273.61 1359.5,1273C 1408.17,1272.33 1456.83,1272.33 1505.5,1273C 1518.94,1273.48 1530.11,1278.64 1539,1288.5C 1549.15,1304.32 1561.15,1318.65 1575,1331.5C 1582.21,1342.34 1585.38,1354.34 1584.5,1367.5C 1584.85,1371.51 1583.35,1374.51 1580,1376.5C 1579.4,1378.14 1578.9,1379.8 1578.5,1381.5C 1579.71,1385.04 1581.71,1388.04 1584.5,1390.5C 1584.49,1398 1582.65,1405 1579,1411.5C 1568.46,1426.38 1555.62,1438.88 1540.5,1449C 1509.04,1461.26 1477.04,1471.93 1444.5,1481C 1399.59,1487.85 1357.59,1479.85 1318.5,1457C 1296.92,1440.09 1278.09,1420.59 1262,1398.5C 1259.94,1394.31 1258.27,1389.98 1257,1385.5C 1255.05,1363.47 1258.05,1342.13 1266,1321.5C 1272.33,1306.83 1282.5,1295.67 1296.5,1288C 1311.78,1280.08 1327.45,1273.25 1343.5,1267.5 Z M 569.5,1287.5 C 588.209,1285.1 605.876,1288.26 622.5,1297C 635.039,1308.2 639.205,1322.03 635,1338.5C 634.131,1346.25 632.798,1353.92 631,1361.5C 630.027,1364.78 628.527,1367.78 626.5,1370.5C 622.222,1369.59 617.889,1368.92 613.5,1368.5C 593.522,1370.11 573.522,1370.94 553.5,1371C 551.076,1361.65 547.409,1352.82 542.5,1344.5C 540.031,1342.99 537.865,1343.33 536,1345.5C 534.957,1354.03 535.791,1362.37 538.5,1370.5C 532.755,1371.09 527.088,1371.92 521.5,1373C 516.362,1377.28 516.362,1381.62 521.5,1386C 528.414,1386.19 535.247,1386.69 542,1387.5C 543,1396.5 544,1405.5 545,1414.5C 546.397,1422.45 550.897,1425.11 558.5,1422.5C 559.84,1421.31 560.507,1419.81 560.5,1418C 558.598,1407.59 557.265,1397.09 556.5,1386.5C 577.469,1384.41 598.469,1383.75 619.5,1384.5C 611.934,1398.63 604.101,1412.63 596,1426.5C 577.938,1451.56 554.771,1470.39 526.5,1483C 495.076,1491.02 463.409,1498.02 431.5,1504C 387.631,1511.94 343.631,1512.6 299.5,1506C 283.519,1503.17 269.186,1496.84 256.5,1487C 252.918,1483.26 251.085,1478.76 251,1473.5C 250.333,1463.83 250.333,1454.17 251,1444.5C 252.479,1431.19 253.813,1417.85 255,1404.5C 260.533,1372.3 277.7,1348.46 306.5,1333C 328.008,1324.22 350.174,1320.39 373,1321.5C 374.441,1320.74 375.941,1320.07 377.5,1319.5C 378.386,1318.68 378.719,1317.68 378.5,1316.5C 384.452,1313.52 392.118,1309.69 401.5,1305C 405.072,1303.6 408.739,1303.26 412.5,1304C 419.865,1308.01 427.198,1312.01 434.5,1316C 441.833,1316.67 449.167,1316.67 456.5,1316C 464.437,1313.24 472.104,1309.91 479.5,1306C 495.298,1305.12 510.965,1303.12 526.5,1300C 540.996,1295.96 555.33,1291.8 569.5,1287.5 Z M 1316.5,1347.5 C 1319.9,1347.18 1323.23,1347.51 1326.5,1348.5C 1327.49,1350.32 1328.82,1351.82 1330.5,1353C 1325.61,1357.86 1319.78,1361.03 1313,1362.5C 1312.17,1362.17 1311.33,1361.83 1310.5,1361.5C 1311.54,1356.37 1313.54,1351.7 1316.5,1347.5 Z M 438.5,1374.5 C 443.844,1374.33 449.177,1374.5 454.5,1375C 455.749,1377.21 455.582,1379.38 454,1381.5C 448.099,1385.73 441.932,1389.56 435.5,1393C 430.012,1395.02 424.345,1395.85 418.5,1395.5C 418.377,1388.91 421.044,1383.75 426.5,1380C 430.481,1377.84 434.481,1376 438.5,1374.5 Z"/></g>
<g><path style="opacity:0.831" fill="#000000" d="M 1788.5,903.5 C 1797.21,902.046 1802.05,905.713 1803,914.5C 1803.67,931.5 1803.67,948.5 1803,965.5C 1798.76,970.808 1794.43,970.808 1790,965.5C 1789.67,949.833 1789.33,934.167 1789,918.5C 1788.67,916.833 1788.33,915.167 1788,913.5C 1781.83,909.581 1782,906.248 1788.5,903.5 Z"/></g>
<g><path style="opacity:0.796" fill="#000000" d="M 1721.5,908.5 C 1724.97,907.875 1727.8,908.875 1730,911.5C 1730.63,918.829 1731.13,926.163 1731.5,933.5C 1741.47,932.409 1751.47,932.242 1761.5,933C 1768.12,933.764 1771.12,937.264 1770.5,943.5C 1768.89,944.427 1767.22,945.261 1765.5,946C 1755.18,946.972 1744.85,947.805 1734.5,948.5C 1736.27,956.504 1738.1,964.504 1740,972.5C 1741.19,976.84 1743.03,980.84 1745.5,984.5C 1744.33,988.011 1741.83,989.677 1738,989.5C 1736.03,989.458 1734.2,988.958 1732.5,988C 1730.62,985.749 1729.12,983.249 1728,980.5C 1725.44,969.842 1722.94,959.175 1720.5,948.5C 1716.37,951.19 1712.04,951.69 1707.5,950C 1703.99,946.264 1703.66,942.264 1706.5,938C 1710.23,935.901 1714.23,934.734 1718.5,934.5C 1718.33,926.826 1718.5,919.159 1719,911.5C 1719.7,910.309 1720.53,909.309 1721.5,908.5 Z"/></g>
<g><path style="opacity:0.82" fill="#000000" d="M 1592.5,934.5 C 1601.36,933.402 1609.69,934.902 1617.5,939C 1618.34,940.011 1618.67,941.178 1618.5,942.5C 1623.44,941.623 1626.1,943.623 1626.5,948.5C 1626.16,950.867 1625.66,953.2 1625,955.5C 1623.23,957.596 1621.9,959.929 1621,962.5C 1620.09,968.944 1620.42,975.277 1622,981.5C 1627.11,982.97 1632.28,984.304 1637.5,985.5C 1640.01,984.345 1642.68,983.678 1645.5,983.5C 1645.38,986.374 1644.38,988.874 1642.5,991C 1637.5,994.831 1631.83,996.998 1625.5,997.5C 1612.66,996.494 1606.16,989.494 1606,976.5C 1593.89,990.718 1579.06,994.551 1561.5,988C 1557.98,984.611 1556.31,980.444 1556.5,975.5C 1557.5,963.341 1562.83,953.507 1572.5,946C 1578.62,941.006 1585.29,937.173 1592.5,934.5 Z M 1606.5,944.5 C 1602.95,945.249 1599.28,946.082 1595.5,947C 1587.07,952.802 1579.57,959.635 1573,967.5C 1571.71,970.351 1571.21,973.351 1571.5,976.5C 1583.93,976.747 1594.93,972.914 1604.5,965C 1606.49,960.407 1607.99,955.574 1609,950.5C 1609.79,948.413 1610.96,946.579 1612.5,945C 1610.53,944.505 1608.53,944.338 1606.5,944.5 Z"/></g>
<g><path style="opacity:0.821" fill="#000000" d="M 1650.5,950.5 C 1654.07,950.893 1656.4,952.893 1657.5,956.5C 1661.37,953.567 1665.7,951.734 1670.5,951C 1677.58,950.116 1684.58,950.449 1691.5,952C 1699.62,956.451 1706.12,962.617 1711,970.5C 1711.96,969.421 1712.79,968.255 1713.5,967C 1714.45,966.383 1715.28,966.549 1716,967.5C 1715.97,971.478 1715.47,975.478 1714.5,979.5C 1711.72,983.171 1708.05,984.338 1703.5,983C 1698.19,978.021 1693.19,972.687 1688.5,967C 1682.66,964.093 1676.66,963.76 1670.5,966C 1667.79,967.261 1665.62,969.094 1664,971.5C 1663.94,979.603 1663.27,987.603 1662,995.5C 1656.63,998.774 1652.3,997.774 1649,992.5C 1648.29,978.444 1648.79,964.444 1650.5,950.5 Z"/></g>
<g><path style="opacity:0.724" fill="#000000" d="M 1827.5,1026.5 C 1836.39,1028.88 1844.22,1033.21 1851,1039.5C 1850.25,1041.98 1848.92,1044.31 1847,1046.5C 1846.67,1046.17 1846.33,1045.83 1846,1045.5C 1845.03,1047.64 1843.53,1049.31 1841.5,1050.5C 1834.47,1045.32 1827.14,1040.65 1819.5,1036.5C 1822.16,1033.17 1824.82,1029.83 1827.5,1026.5 Z"/></g>
<g><path style="opacity:0.738" fill="#000000" d="M 1859.5,1045.5 C 1869.48,1048.84 1877.81,1054.67 1884.5,1063C 1881.31,1066.19 1878.14,1069.36 1875,1072.5C 1867.28,1066.05 1859.11,1060.22 1850.5,1055C 1853.02,1051.32 1856.02,1048.15 1859.5,1045.5 Z"/></g>
<g><path style="opacity:0.746" fill="#000000" d="M 1889.5,1069.5 C 1900.34,1072.34 1909.84,1077.67 1918,1085.5C 1918.8,1087.26 1918.63,1088.93 1917.5,1090.5C 1914.5,1092.83 1911.5,1095.17 1908.5,1097.5C 1900.83,1090.36 1892.17,1084.53 1882.5,1080C 1881.98,1079.44 1881.64,1078.77 1881.5,1078C 1884.4,1075.27 1887.07,1072.44 1889.5,1069.5 Z"/></g>
<g><path style="opacity:0.747" fill="#000000" d="M 1921.5,1095.5 C 1924.45,1096.36 1926.29,1098.36 1927,1101.5C 1933.49,1106.82 1938.66,1113.15 1942.5,1120.5C 1938.89,1124.31 1934.56,1126.48 1929.5,1127C 1924.4,1119.86 1918.9,1113.03 1913,1106.5C 1912.33,1105.5 1912.33,1104.5 1913,1103.5C 1916.03,1100.97 1918.86,1098.3 1921.5,1095.5 Z"/></g>
<g><path style="opacity:0.758" fill="#000000" d="M 1943.5,1125.5 C 1945.59,1125.56 1947.09,1126.56 1948,1128.5C 1951.17,1132.84 1953.84,1137.51 1956,1142.5C 1957.33,1147.4 1957.83,1152.4 1957.5,1157.5C 1952.45,1158.77 1947.95,1158.77 1944,1157.5C 1943.67,1154.83 1943.33,1152.17 1943,1149.5C 1939.96,1143.92 1936.79,1138.42 1933.5,1133C 1936.96,1130.59 1940.29,1128.09 1943.5,1125.5 Z"/></g>
<g><path style="opacity:0.837" fill="#000000" d="M 1971.5,1162.5 C 1981.33,1162.05 1991,1163.05 2000.5,1165.5C 2000.5,1166.83 2000.5,1168.17 2000.5,1169.5C 1987.63,1171.37 1974.96,1174.2 1962.5,1178C 1946.31,1183.19 1932.48,1192.03 1921,1204.5C 1917.95,1212.95 1913.61,1220.61 1908,1227.5C 1889.81,1242.6 1871.81,1257.93 1854,1273.5C 1852.67,1277.5 1851.33,1281.5 1850,1285.5C 1845.33,1293.5 1840.67,1301.5 1836,1309.5C 1821.95,1327.89 1808.28,1346.55 1795,1365.5C 1793.44,1379.79 1793.11,1394.13 1794,1408.5C 1794.72,1410.95 1795.72,1413.28 1797,1415.5C 1816.25,1426.21 1835.41,1437.04 1854.5,1448C 1859.75,1449.65 1865.09,1450.98 1870.5,1452C 1919.13,1458.24 1967.8,1464.24 2016.5,1470C 2054.78,1474.02 2093.11,1477.52 2131.5,1480.5C 2136.57,1480.54 2141.57,1480.04 2146.5,1479C 2173.57,1465.89 2197.73,1448.72 2219,1427.5C 2220.59,1425.33 2221.92,1423 2223,1420.5C 2228.24,1401.69 2235.91,1384.03 2246,1367.5C 2252.92,1348.77 2255.26,1329.43 2253,1309.5C 2248.58,1297.08 2241.08,1286.91 2230.5,1279C 2220.04,1273.27 2209.7,1267.27 2199.5,1261C 2184.83,1254.5 2169.83,1248.83 2154.5,1244C 2144,1238.94 2133.33,1234.28 2122.5,1230C 2119.17,1228 2115.83,1226 2112.5,1224C 2101.86,1212.85 2088.86,1206.18 2073.5,1204C 2067.79,1200.15 2061.79,1196.81 2055.5,1194C 2049.18,1188.84 2042.52,1184.17 2035.5,1180C 2025.61,1178 2015.61,1177 2005.5,1177C 2000.67,1173.38 2000.34,1169.38 2004.5,1165C 2013.06,1163.39 2021.73,1163.06 2030.5,1164C 2035.45,1164.4 2040.11,1165.74 2044.5,1168C 2055.29,1176.12 2066.63,1183.45 2078.5,1190C 2096.31,1192.92 2111.31,1200.92 2123.5,1214C 2125.5,1215 2127.5,1216 2129.5,1217C 2154.87,1228.09 2180.53,1238.42 2206.5,1248C 2218.33,1254.75 2230,1261.75 2241.5,1269C 2265.84,1288.1 2274.34,1312.94 2267,1343.5C 2266.26,1352.46 2264.26,1361.12 2261,1369.5C 2256.26,1379.32 2251.26,1388.99 2246,1398.5C 2242.33,1408.84 2238.66,1419.18 2235,1429.5C 2230.96,1436.54 2225.8,1442.71 2219.5,1448C 2197.81,1466.85 2173.81,1482.19 2147.5,1494C 2112.29,1494.32 2077.29,1491.65 2042.5,1486C 2029.13,1485.46 2015.8,1484.46 2002.5,1483C 1958.81,1477.83 1915.15,1472.5 1871.5,1467C 1863.25,1465.94 1855.25,1463.94 1847.5,1461C 1828.29,1449.23 1808.62,1438.23 1788.5,1428C 1783.79,1423.91 1780.96,1418.74 1780,1412.5C 1779.5,1401.51 1779.33,1390.51 1779.5,1379.5C 1774.83,1379.5 1770.17,1379.5 1765.5,1379.5C 1765.33,1375.15 1765.5,1370.82 1766,1366.5C 1770.19,1363.64 1774.69,1362.97 1779.5,1364.5C 1781.82,1359.18 1784.66,1354.18 1788,1349.5C 1800.76,1331.66 1813.76,1313.99 1827,1296.5C 1833.86,1286.79 1838.52,1276.12 1841,1264.5C 1860,1248.5 1879,1232.5 1898,1216.5C 1902.59,1209 1906.92,1201.33 1911,1193.5C 1920.63,1183.37 1931.8,1175.37 1944.5,1169.5C 1945.39,1168.68 1945.72,1167.68 1945.5,1166.5C 1954.56,1166.88 1963.22,1165.54 1971.5,1162.5 Z M 1948.5,1321.5 C 1957.4,1321.03 1966.07,1322.2 1974.5,1325C 1979.44,1327.61 1984.1,1330.61 1988.5,1334C 1991.41,1337.83 1994.08,1341.83 1996.5,1346C 1973.17,1346.7 1949.84,1347.2 1926.5,1347.5C 1925.57,1331.77 1932.91,1323.1 1948.5,1321.5 Z M 2121.5,1348.5 C 2128.84,1348.33 2136.17,1348.5 2143.5,1349C 2144.97,1349.71 2145.64,1350.88 2145.5,1352.5C 2146.5,1352.5 2147.5,1352.5 2148.5,1352.5C 2147.41,1362.8 2146.74,1373.13 2146.5,1383.5C 2136.5,1383.05 2126.5,1382.55 2116.5,1382C 2109.07,1381.08 2102.24,1378.58 2096,1374.5C 2095.53,1368.74 2094.86,1363.07 2094,1357.5C 2102.43,1351.97 2111.6,1348.97 2121.5,1348.5 Z M 2037.5,1349.5 C 2048.73,1356.33 2049.4,1364.16 2039.5,1373C 2029.07,1378.43 2018.07,1379.93 2006.5,1377.5C 2006.21,1374.35 2006.71,1371.35 2008,1368.5C 2012.61,1360.56 2019.11,1354.73 2027.5,1351C 2030.2,1350.39 2032.87,1350.56 2035.5,1351.5C 2036.71,1351.25 2037.38,1350.59 2037.5,1349.5 Z M 2070.5,1356.5 C 2073.4,1357.79 2075.73,1359.79 2077.5,1362.5C 2077.17,1363.17 2076.83,1363.83 2076.5,1364.5C 2077.24,1367.44 2077.74,1370.44 2078,1373.5C 2079.09,1376.31 2080.09,1378.97 2081,1381.5C 2080.25,1382.13 2079.42,1382.63 2078.5,1383C 2071.12,1383.8 2063.78,1383.63 2056.5,1382.5C 2055.74,1381.37 2055.07,1380.21 2054.5,1379C 2058.91,1373.28 2061.24,1366.78 2061.5,1359.5C 2064.14,1357.89 2066.81,1357.39 2069.5,1358C 2070.06,1357.62 2070.39,1357.12 2070.5,1356.5 Z"/></g>
<g><path style="opacity:0.841" fill="#000000" d="M 2163.5,1270.5 C 2166.04,1270.1 2168.21,1270.77 2170,1272.5C 2170.82,1279.82 2171.32,1286.99 2171.5,1294C 2169.6,1310.92 2167.1,1327.75 2164,1344.5C 2161.63,1357.44 2161.13,1370.44 2162.5,1383.5C 2164.83,1382.83 2167.17,1382.17 2169.5,1381.5C 2169.83,1382.17 2170.17,1382.83 2170.5,1383.5C 2167.76,1386.05 2164.76,1388.39 2161.5,1390.5C 2162.25,1392.75 2163.59,1394.59 2165.5,1396C 2171.12,1397.77 2176.79,1399.44 2182.5,1401C 2184.61,1405.68 2183.27,1409.01 2178.5,1411C 2163.59,1414.99 2153.59,1409.83 2148.5,1395.5C 2131.98,1398.37 2115.65,1397.54 2099.5,1393C 2097.17,1391.83 2094.83,1390.67 2092.5,1389.5C 2086.25,1396.37 2078.42,1399.03 2069,1397.5C 2060.97,1398.29 2053.47,1396.79 2046.5,1393C 2044.98,1391.48 2043.48,1389.98 2042,1388.5C 2038.64,1390.07 2035.14,1391.23 2031.5,1392C 2022.83,1392.67 2014.17,1392.67 2005.5,1392C 1994.06,1389.31 1989.56,1382.14 1992,1370.5C 1992.61,1367.29 1993.77,1364.29 1995.5,1361.5C 1972.51,1360.99 1949.51,1360.99 1926.5,1361.5C 1926.83,1373.17 1927,1384.84 1927,1396.5C 1921.78,1401.02 1917.45,1400.35 1914,1394.5C 1912.93,1383.03 1912.43,1371.53 1912.5,1360C 1908.13,1319.7 1926.13,1302.37 1966.5,1308C 1988.62,1311.44 1999.96,1324.11 2000.5,1346C 2003.51,1346.78 2006.35,1347.95 2009,1349.5C 2011.26,1347.95 2013.42,1346.29 2015.5,1344.5C 2011.02,1342.54 2009.52,1339.21 2011,1334.5C 2014.22,1331.07 2018.22,1329.74 2023,1330.5C 2032.98,1330.22 2041.81,1333.22 2049.5,1339.5C 2061.91,1336.46 2073.08,1339.13 2083,1347.5C 2087.26,1343.86 2092.09,1341.36 2097.5,1340C 2113.18,1339.49 2128.85,1339.83 2144.5,1341C 2145.87,1341.4 2147.21,1341.9 2148.5,1342.5C 2149.19,1341.97 2149.69,1341.31 2150,1340.5C 2154.22,1318.66 2157.22,1296.66 2159,1274.5C 2160.4,1272.93 2161.9,1271.6 2163.5,1270.5 Z M 1948.5,1321.5 C 1932.91,1323.1 1925.57,1331.77 1926.5,1347.5C 1949.84,1347.2 1973.17,1346.7 1996.5,1346C 1994.08,1341.83 1991.41,1337.83 1988.5,1334C 1984.1,1330.61 1979.44,1327.61 1974.5,1325C 1966.07,1322.2 1957.4,1321.03 1948.5,1321.5 Z M 2121.5,1348.5 C 2111.6,1348.97 2102.43,1351.97 2094,1357.5C 2094.86,1363.07 2095.53,1368.74 2096,1374.5C 2102.24,1378.58 2109.07,1381.08 2116.5,1382C 2126.5,1382.55 2136.5,1383.05 2146.5,1383.5C 2146.74,1373.13 2147.41,1362.8 2148.5,1352.5C 2147.5,1352.5 2146.5,1352.5 2145.5,1352.5C 2145.64,1350.88 2144.97,1349.71 2143.5,1349C 2136.17,1348.5 2128.84,1348.33 2121.5,1348.5 Z M 2037.5,1349.5 C 2037.38,1350.59 2036.71,1351.25 2035.5,1351.5C 2032.87,1350.56 2030.2,1350.39 2027.5,1351C 2019.11,1354.73 2012.61,1360.56 2008,1368.5C 2006.71,1371.35 2006.21,1374.35 2006.5,1377.5C 2018.07,1379.93 2029.07,1378.43 2039.5,1373C 2049.4,1364.16 2048.73,1356.33 2037.5,1349.5 Z M 2070.5,1356.5 C 2070.39,1357.12 2070.06,1357.62 2069.5,1358C 2066.81,1357.39 2064.14,1357.89 2061.5,1359.5C 2061.24,1366.78 2058.91,1373.28 2054.5,1379C 2055.07,1380.21 2055.74,1381.37 2056.5,1382.5C 2063.78,1383.63 2071.12,1383.8 2078.5,1383C 2079.42,1382.63 2080.25,1382.13 2081,1381.5C 2080.09,1378.97 2079.09,1376.31 2078,1373.5C 2077.74,1370.44 2077.24,1367.44 2076.5,1364.5C 2076.83,1363.83 2077.17,1363.17 2077.5,1362.5C 2075.73,1359.79 2073.4,1357.79 2070.5,1356.5 Z"/></g>
<g><path style="opacity:0.836" fill="#000000" d="M 1416.5,1310.5 C 1421.28,1309.64 1424.78,1311.31 1427,1315.5C 1428.05,1326.47 1428.88,1337.47 1429.5,1348.5C 1440.41,1346.59 1451.41,1346.09 1462.5,1347C 1469.34,1352.36 1468.67,1356.69 1460.5,1360C 1449.79,1360.42 1439.13,1361.26 1428.5,1362.5C 1428.95,1372.94 1428.45,1383.27 1427,1393.5C 1417.26,1397.52 1413.09,1394.19 1414.5,1383.5C 1411.84,1383.84 1409.51,1383.17 1407.5,1381.5C 1404.96,1375.41 1402.12,1369.41 1399,1363.5C 1397.69,1361.19 1396.02,1359.19 1394,1357.5C 1389.4,1359.77 1385.73,1363.1 1383,1367.5C 1379.33,1374.39 1376.16,1381.39 1373.5,1388.5C 1367.33,1390.92 1363.67,1388.92 1362.5,1382.5C 1362.77,1374.87 1362.93,1367.2 1363,1359.5C 1363.12,1354.17 1363.95,1349 1365.5,1344C 1366.78,1343.32 1367.95,1343.48 1369,1344.5C 1369.92,1349.52 1370.92,1354.52 1372,1359.5C 1377.94,1347.62 1387.44,1342.78 1400.5,1345C 1403.58,1346.25 1406.25,1348.08 1408.5,1350.5C 1410.32,1349.25 1412.32,1348.59 1414.5,1348.5C 1414.47,1336.81 1414.3,1325.14 1414,1313.5C 1414.7,1312.31 1415.53,1311.31 1416.5,1310.5 Z"/></g>
<g><path style="opacity:0.833" fill="#000000" d="M 1502.5,1322.5 C 1520.93,1319.36 1530.26,1327.02 1530.5,1345.5C 1530.57,1353.63 1528.23,1360.96 1523.5,1367.5C 1524,1367.83 1524.5,1368.17 1525,1368.5C 1532.45,1366.1 1539.95,1365.6 1547.5,1367C 1553.42,1372.74 1552.42,1377.08 1544.5,1380C 1524.71,1384.25 1504.71,1385.58 1484.5,1384C 1480.07,1380.73 1479.4,1376.73 1482.5,1372C 1491.59,1370.97 1499.92,1367.97 1507.5,1363C 1515.25,1356.25 1517.59,1347.91 1514.5,1338C 1505.78,1336.91 1497.28,1337.74 1489,1340.5C 1480.66,1337.64 1479.49,1332.97 1485.5,1326.5C 1491.13,1324.45 1496.8,1323.11 1502.5,1322.5 Z"/></g>
<g><path style="opacity:0.827" fill="#000000" d="M 1315.5,1332.5 C 1323.19,1331.51 1330.19,1333.17 1336.5,1337.5C 1338.92,1340.42 1340.59,1343.75 1341.5,1347.5C 1343.74,1348.03 1345.24,1349.37 1346,1351.5C 1347.05,1358.12 1347.88,1364.78 1348.5,1371.5C 1351.62,1374.1 1354.95,1374.77 1358.5,1373.5C 1358.48,1375.93 1357.98,1378.26 1357,1380.5C 1348.97,1387.61 1341.64,1386.94 1335,1378.5C 1333.75,1375.99 1333.25,1373.32 1333.5,1370.5C 1329.23,1372.3 1324.9,1374.13 1320.5,1376C 1297.71,1380.2 1290.55,1371.36 1299,1349.5C 1301.86,1340.97 1307.36,1335.3 1315.5,1332.5 Z M 1316.5,1347.5 C 1313.54,1351.7 1311.54,1356.37 1310.5,1361.5C 1311.33,1361.83 1312.17,1362.17 1313,1362.5C 1319.78,1361.03 1325.61,1357.86 1330.5,1353C 1328.82,1351.82 1327.49,1350.32 1326.5,1348.5C 1323.23,1347.51 1319.9,1347.18 1316.5,1347.5 Z"/></g>
<g><path style="opacity:0.843" fill="#000000" d="M 433.5,1360.5 C 442.915,1360.08 452.248,1360.58 461.5,1362C 467.355,1364.54 470.022,1369.04 469.5,1375.5C 469.971,1383.06 467.304,1389.22 461.5,1394C 452.09,1400.87 441.756,1405.87 430.5,1409C 452.822,1407.96 475.155,1407.62 497.5,1408C 490.564,1404.06 483.897,1399.73 477.5,1395C 472.65,1388.86 472.317,1382.52 476.5,1376C 477.833,1375.33 479.167,1374.67 480.5,1374C 488.045,1372.87 495.379,1373.54 502.5,1376C 505.528,1379.72 506.194,1383.89 504.5,1388.5C 503.707,1388.93 502.873,1389.26 502,1389.5C 499.349,1387.84 496.516,1387.34 493.5,1388C 505.274,1395.44 516.774,1403.28 528,1411.5C 530.477,1415.78 529.644,1419.28 525.5,1422C 497.388,1423.21 469.221,1424.04 441,1424.5C 434.824,1424.12 428.657,1423.62 422.5,1423C 413.195,1421.69 406.862,1416.69 403.5,1408C 399.069,1406.37 395.236,1403.87 392,1400.5C 390.258,1396.93 390.092,1393.26 391.5,1389.5C 395.87,1387.84 400.036,1388.18 404,1390.5C 405.217,1381.62 409.384,1374.45 416.5,1369C 421.98,1365.59 427.647,1362.76 433.5,1360.5 Z M 438.5,1374.5 C 434.481,1376 430.481,1377.84 426.5,1380C 421.044,1383.75 418.377,1388.91 418.5,1395.5C 424.345,1395.85 430.012,1395.02 435.5,1393C 441.932,1389.56 448.099,1385.73 454,1381.5C 455.582,1379.38 455.749,1377.21 454.5,1375C 449.177,1374.5 443.844,1374.33 438.5,1374.5 Z"/></g>
<g><path style="opacity:0.731" fill="#000000" d="M 1685.5,1365.5 C 1692.5,1365.5 1699.5,1365.5 1706.5,1365.5C 1707.6,1370.27 1707.27,1374.77 1705.5,1379C 1698.84,1379.5 1692.17,1379.67 1685.5,1379.5C 1685.5,1374.83 1685.5,1370.17 1685.5,1365.5 Z"/></g>
<g><path style="opacity:0.697" fill="#000000" d="M 1714.5,1365.5 C 1720.18,1365.33 1725.84,1365.5 1731.5,1366C 1732.63,1370.08 1732.8,1374.25 1732,1378.5C 1726.25,1379.64 1720.42,1379.81 1714.5,1379C 1713.97,1374.21 1713.97,1369.71 1714.5,1365.5 Z"/></g>
<g><path style="opacity:0.69" fill="#000000" d="M 1741.5,1365.5 C 1747.18,1365.33 1752.84,1365.5 1758.5,1366C 1759.63,1370.08 1759.8,1374.25 1759,1378.5C 1753.25,1379.64 1747.42,1379.81 1741.5,1379C 1740.19,1374.5 1740.19,1370 1741.5,1365.5 Z"/></g>
<g><path style="opacity:0.636" fill="#000000" d="M 1670.5,1366.5 C 1672.47,1366.26 1674.3,1366.59 1676,1367.5C 1676.67,1371.83 1676.67,1376.17 1676,1380.5C 1672.2,1381.2 1668.37,1381.87 1664.5,1382.5C 1663.91,1382.29 1663.41,1381.96 1663,1381.5C 1662.33,1377.17 1662.33,1372.83 1663,1368.5C 1665.61,1367.88 1668.11,1367.21 1670.5,1366.5 Z"/></g>
<g><path style="opacity:0.645" fill="#000000" d="M 1650.5,1368.5 C 1652.5,1368.5 1654.5,1368.5 1656.5,1368.5C 1656.22,1371.78 1656.55,1374.94 1657.5,1378C 1656.77,1379.4 1656.27,1380.9 1656,1382.5C 1651.28,1383.94 1646.45,1384.44 1641.5,1384C 1641.47,1380.03 1641.64,1375.87 1642,1371.5C 1644.8,1370.13 1647.64,1369.13 1650.5,1368.5 Z"/></g>
<g><path style="opacity:0.677" fill="#000000" d="M 1627.5,1373.5 C 1629.5,1373.5 1631.5,1373.5 1633.5,1373.5C 1633.67,1378.18 1633.5,1382.85 1633,1387.5C 1626.8,1389.93 1620.46,1390.59 1614,1389.5C 1614.79,1385.42 1614.62,1381.59 1613.5,1378C 1618.17,1376.27 1622.83,1374.77 1627.5,1373.5 Z"/></g>
<g><path style="opacity:0.835" fill="#000000" d="M 344.5,1380.5 C 351.841,1380.33 359.174,1380.5 366.5,1381C 372.4,1382.7 376.9,1386.2 380,1391.5C 384.995,1399.82 389.162,1408.49 392.5,1417.5C 392.425,1421.74 390.259,1423.74 386,1423.5C 384.033,1423.46 382.199,1422.96 380.5,1422C 375.919,1412.83 370.586,1404.16 364.5,1396C 357.102,1393.93 349.768,1394.26 342.5,1397C 335.564,1403.01 330.73,1410.51 328,1419.5C 326.413,1424.77 325.08,1430.1 324,1435.5C 319.667,1440.83 315.333,1440.83 311,1435.5C 310.404,1420.16 310.07,1404.83 310,1389.5C 312.21,1386.71 315.044,1385.88 318.5,1387C 321.135,1388.96 322.969,1391.46 324,1394.5C 329.291,1387.45 336.125,1382.78 344.5,1380.5 Z"/></g>
</svg>
