<svg version="1.1" xmlns="http://www.w3.org/2000/svg" xmlns:xlink="http://www.w3.org/1999/xlink" width="645" height="170"><defs><clipPath id="QUthTtekdIUO"><path fill="none" stroke="none" d=" M 0 0 L 645 0 L 645 170 L 0 170 L 0 0 Z"/></clipPath></defs><g transform="scale(1,1)" clip-path="url(#QUthTtekdIUO)"><g transform="translate(-70,-258)"><path fill="rgb(101,87,210)" stroke="none" paint-order="stroke fill markers" fill-rule="evenodd" d=" M 450 115 L 472 115 C 473.1045694996616 115 474 115.8954305003384 474 117 L 474 139 C 474 140.10456949966158 473.1045694996616 141 472 141 L 450 141 C 448.8954305003384 141 448 140.10456949966158 448 139 L 448 117 C 448 115.8954305003384 448.8954305003384 115 450 115 Z" fill-opacity="1"/><g transform="translate(448,115)"><path fill="none" stroke="rgb(255,255,255)" paint-order="fill stroke markers" d=" M 4.44 13.76 L 9.75 19.07 L 21.99 6.83" stroke-opacity="1" stroke-linecap="square" stroke-miterlimit="10" stroke-width="2.6"/><g transform="translate(-448,-115)"><text fill="rgb(0,0,0)" stroke="none" font-family="geogebra-sans-serif, sans-serif" font-size="32px" font-style="normal" font-weight="normal" text-decoration="normal" x="483" y="140" text-anchor="start" dominant-baseline="alphabetic" fill-opacity="1">Serif</text><g transform="scale(35,35)"><g transform="translate(2.2857142857142856,10.007142857142858)"><path fill="rgb(0,0,0)" stroke="none" paint-order="stroke fill markers" d=" M 0.303 -0.316 L 0.303 -0.316 L 0.241 -0.066 L 0.23800000000000002 -0.049 Q 0.23800000000000002 -0.032 0.28400000000000003 -0.031 L 0.28400000000000003 -0.031 L 0.28400000000000003 -0.031 L 0.303 -0.031 Q 0.329 -0.031 0.331 -0.02 Q 0.331 0 0.311 0 L 0.247 -0.002 L 0.246 -0.002 L 0.184 -0.003 L 0.182 -0.003 L 0.056 0 L 0.055 0 Q 0.04 0 0.04 -0.012 Q 0.04 -0.029 0.056 -0.031 L 0.068 -0.031 Q 0.133 -0.031 0.146 -0.045 Q 0.152 -0.052000000000000005 0.158 -0.073 Q 0.158 -0.074 0.159 -0.078 L 0.293 -0.615 Q 0.297 -0.631 0.297 -0.634 Q 0.297 -0.646 0.281 -0.649 L 0.28 -0.649 L 0.28 -0.649 Q 0.278 -0.65 0.275 -0.65 Q 0.251 -0.652 0.232 -0.652 Q 0.20600000000000002 -0.652 0.20400000000000001 -0.66 Q 0.203 -0.662 0.203 -0.664 Q 0.203 -0.681 0.22 -0.683 L 0.22 -0.683 L 0.233 -0.683 L 0.557 -0.683 Q 0.678 -0.683 0.73 -0.609 Q 0.754 -0.5740000000000001 0.754 -0.532 Q 0.754 -0.451 0.671 -0.385 Q 0.583 -0.316 0.47300000000000003 -0.316 L 0.303 -0.316 M 0.375 -0.614 L 0.307 -0.342 L 0.448 -0.342 Q 0.543 -0.342 0.602 -0.395 Q 0.643 -0.433 0.658 -0.522 L 0.658 -0.523 Q 0.661 -0.542 0.661 -0.556 Q 0.661 -0.652 0.525 -0.652 L 0.429 -0.652 Q 0.393 -0.652 0.385 -0.642 L 0.385 -0.642 L 0.385 -0.641 L 0.384 -0.641 L 0.384 -0.64 Q 0.38 -0.634 0.375 -0.614 Z"/></g><g transform="translate(3.0667142857142853,9.594250857142857) scale(0.7,0.7)"><path fill="rgb(0,0,0)" stroke="none" paint-order="stroke fill markers" d=" M 0.28700000000000003 -0.683 L 0.183 -0.261 Q 0.226 -0.278 0.294 -0.354 Q 0.373 -0.442 0.44 -0.442 Q 0.488 -0.442 0.504 -0.402 Q 0.508 -0.391 0.508 -0.379 Q 0.508 -0.338 0.47400000000000003 -0.322 Q 0.463 -0.318 0.453 -0.318 Q 0.422 -0.318 0.41600000000000004 -0.34500000000000003 Q 0.41500000000000004 -0.34900000000000003 0.41500000000000004 -0.353 Q 0.41500000000000004 -0.381 0.44 -0.397 L 0.441 -0.398 L 0.441 -0.398 Q 0.454 -0.406 0.47200000000000003 -0.40700000000000003 L 0.468 -0.41100000000000003 Q 0.46 -0.417 0.447 -0.419 Q 0.445 -0.42 0.438 -0.42 Q 0.385 -0.42 0.309 -0.339 Q 0.305 -0.335 0.301 -0.33 L 0.295 -0.324 Q 0.243 -0.27 0.209 -0.25 Q 0.357 -0.231 0.357 -0.145 Q 0.357 -0.131 0.353 -0.114 Q 0.34500000000000003 -0.082 0.34500000000000003 -0.058 Q 0.34500000000000003 -0.011 0.377 -0.011 Q 0.423 -0.011 0.451 -0.094 Q 0.458 -0.111 0.464 -0.135 Q 0.47200000000000003 -0.152 0.47800000000000004 -0.153 Q 0.49 -0.153 0.49 -0.14300000000000002 Q 0.49 -0.127 0.47100000000000003 -0.078 Q 0.463 -0.058 0.454 -0.042 Q 0.422 0.011 0.375 0.011 Q 0.32 0.011 0.295 -0.037 Q 0.28300000000000003 -0.06 0.28300000000000003 -0.088 Q 0.28300000000000003 -0.099 0.28700000000000003 -0.123 Q 0.29 -0.133 0.29 -0.14400000000000002 Q 0.29 -0.20700000000000002 0.2 -0.225 Q 0.187 -0.228 0.17400000000000002 -0.229 Q 0.124 -0.021 0.11800000000000001 -0.01 Q 0.108 0.009000000000000001 0.084 0.011 Q 0.06 0.011 0.056 -0.01 Q 0.055 -0.014 0.055 -0.017 Q 0.055 -0.025 0.059000000000000004 -0.039 L 0.20400000000000001 -0.615 L 0.20700000000000002 -0.635 Q 0.20700000000000002 -0.646 0.193 -0.649 L 0.193 -0.649 Q 0.181 -0.652 0.157 -0.652 Q 0.135 -0.652 0.133 -0.664 Q 0.133 -0.681 0.152 -0.684 L 0.274 -0.6940000000000001 Q 0.28700000000000003 -0.6940000000000001 0.28700000000000003 -0.683 Z"/></g><g transform="translate(2.9277142857142855,10.254359857142857) scale(0.7,0.7)"><path fill="rgb(0,0,0)" stroke="none" paint-order="stroke fill markers" d=" M 0.28400000000000003 -0.625 Q 0.28400000000000003 -0.594 0.253 -0.578 Q 0.242 -0.5720000000000001 0.231 -0.5720000000000001 Q 0.201 -0.5720000000000001 0.194 -0.599 Q 0.193 -0.604 0.193 -0.608 Q 0.193 -0.636 0.221 -0.653 Q 0.234 -0.661 0.247 -0.661 Q 0.277 -0.661 0.28300000000000003 -0.634 L 0.28300000000000003 -0.633 Q 0.28400000000000003 -0.629 0.28400000000000003 -0.625 M 0.20800000000000002 -0.249 L 0.169 -0.14400000000000002 Q 0.14100000000000001 -0.063 0.14 -0.044 Q 0.14 -0.011 0.164 -0.011 Q 0.227 -0.011 0.262 -0.123 L 0.266 -0.135 Q 0.271 -0.151 0.276 -0.152 L 0.276 -0.153 L 0.281 -0.153 Q 0.293 -0.153 0.293 -0.14300000000000002 Q 0.293 -0.125 0.271 -0.079 Q 0.228 0.011 0.162 0.011 Q 0.109 0.011 0.088 -0.033 Q 0.08 -0.051000000000000004 0.08 -0.07100000000000001 Q 0.08 -0.091 0.10300000000000001 -0.151 Q 0.17300000000000001 -0.339 0.17200000000000001 -0.336 Q 0.183 -0.364 0.183 -0.388 Q 0.183 -0.42 0.158 -0.42 Q 0.10300000000000001 -0.42 0.068 -0.329 L 0.068 -0.328 Q 0.062 -0.313 0.057 -0.296 Q 0.046 -0.279 0.041 -0.278 Q 0.029 -0.278 0.029 -0.28800000000000003 Q 0.029 -0.306 0.051000000000000004 -0.35100000000000003 Q 0.094 -0.442 0.161 -0.442 Q 0.214 -0.442 0.23500000000000001 -0.397 Q 0.243 -0.38 0.243 -0.36 Q 0.243 -0.34 0.23 -0.307 Q 0.213 -0.261 0.20800000000000002 -0.249 Z"/></g><g transform="translate(3.1692142857142853,10.254359857142857) scale(0.7,0.7)"><path fill="rgb(0,0,0)" stroke="none" paint-order="stroke fill markers" d=" M 0.203 -0.001 L 0.203 -0.001 Q 0.203 0.096 0.14 0.169 Q 0.123 0.189 0.112 0.193 Q 0.10200000000000001 0.193 0.10200000000000001 0.182 Q 0.10200000000000001 0.177 0.113 0.166 Q 0.17300000000000001 0.106 0.18 0.019 Q 0.181 0.009000000000000001 0.181 -0.001 Q 0.181 -0.016 0.179 -0.016 Q 0.178 -0.016 0.17400000000000002 -0.013000000000000001 Q 0.16 0 0.139 0 Q 0.10200000000000001 0 0.09 -0.034 Q 0.08600000000000001 -0.043000000000000003 0.08600000000000001 -0.053 Q 0.08600000000000001 -0.089 0.117 -0.10200000000000001 Q 0.127 -0.106 0.139 -0.106 Q 0.183 -0.106 0.198 -0.048 Q 0.203 -0.027 0.203 -0.001 Z"/></g><g transform="translate(3.363814285714285,10.254359857142857) scale(0.7,0.7)"><path fill="rgb(0,0,0)" stroke="none" paint-order="stroke fill markers" d=" M 0.397 -0.625 Q 0.397 -0.597 0.369 -0.58 Q 0.356 -0.5720000000000001 0.343 -0.5720000000000001 Q 0.313 -0.5720000000000001 0.307 -0.599 L 0.307 -0.6 Q 0.306 -0.604 0.306 -0.608 Q 0.306 -0.639 0.337 -0.655 Q 0.34800000000000003 -0.661 0.359 -0.661 Q 0.389 -0.661 0.396 -0.634 Q 0.397 -0.629 0.397 -0.625 M 0.196 0.05 L 0.196 0.05 L 0.29 -0.323 Q 0.297 -0.353 0.297 -0.374 Q 0.297 -0.42 0.265 -0.42 Q 0.20400000000000001 -0.42 0.155 -0.332 Q 0.146 -0.316 0.139 -0.298 Q 0.127 -0.279 0.121 -0.278 Q 0.109 -0.278 0.109 -0.28800000000000003 Q 0.109 -0.301 0.135 -0.34500000000000003 Q 0.193 -0.442 0.268 -0.442 Q 0.324 -0.442 0.34900000000000003 -0.397 Q 0.36 -0.376 0.36 -0.35000000000000003 Q 0.36 -0.333 0.355 -0.313 L 0.263 0.053 Q 0.241 0.14 0.159 0.183 Q 0.117 0.20500000000000002 0.075 0.20500000000000002 Q 0.012 0.20500000000000002 -0.007 0.167 Q -0.013000000000000001 0.156 -0.013000000000000001 0.14300000000000002 Q -0.013000000000000001 0.105 0.021 0.09 Q 0.031 0.08600000000000001 0.041 0.08600000000000001 Q 0.07200000000000001 0.08600000000000001 0.078 0.113 Q 0.079 0.117 0.079 0.121 Q 0.079 0.151 0.051000000000000004 0.167 Q 0.043000000000000003 0.17200000000000001 0.034 0.17400000000000002 Q 0.052000000000000005 0.183 0.073 0.183 Q 0.132 0.183 0.17200000000000001 0.111 Q 0.188 0.083 0.196 0.05 Z"/></g><g transform="translate(3.9841244064906345,10.007142857142858)"><path fill="rgb(0,0,0)" stroke="none" paint-order="stroke fill markers" d=" M 0.687 -0.327 L 0.09 -0.327 Q 0.058 -0.327 0.056 -0.34700000000000003 Q 0.056 -0.367 0.089 -0.367 L 0.6880000000000001 -0.367 Q 0.72 -0.367 0.721 -0.34700000000000003 Q 0.721 -0.327 0.687 -0.327 M 0.6880000000000001 -0.133 L 0.089 -0.133 Q 0.057 -0.133 0.056 -0.153 Q 0.056 -0.17300000000000001 0.09 -0.17300000000000001 L 0.687 -0.17300000000000001 Q 0.719 -0.17300000000000001 0.721 -0.153 Q 0.721 -0.133 0.6880000000000001 -0.133 Z"/></g><g transform="translate(5.039902184268413,7.657142857142858)"><path fill="rgb(0,0,0)" stroke="none" paint-order="stroke fill markers" d=" M 0.3837890625 0.90087890625 L 0.3837890625 0.4541015625 Q 0.3837890625 0.36083984375 0.420654296875 0.273681640625 Q 0.45751953125 0.1865234375 0.5234375 0.11669921875 Q 0.58935546875 0.046875 0.673828125 0.0029296875 Q 0.67578125 0.0009765625 0.67919921875 0.0009765625 L 0.7099609375 0.0009765625 Q 0.712890625 0.0009765625 0.71533203125 0.00341796875 Q 0.7177734375 0.005859375 0.7177734375 0.009765625 L 0.7177734375 0.041015625 Q 0.7177734375 0.0439453125 0.71484375 0.046875 Q 0.66455078125 0.0791015625 0.624755859375 0.124755859375 Q 0.5849609375 0.17041015625 0.55859375 0.222900390625 Q 0.5322265625 0.275390625 0.51806640625 0.336181640625 Q 0.50390625 0.39697265625 0.50390625 0.4560546875 L 0.50390625 0.90087890625 Q 0.50390625 0.90380859375 0.501220703125 0.906982421875 Q 0.49853515625 0.91015625 0.49609375 0.91015625 L 0.39306640625 0.91015625 Q 0.3896484375 0.91015625 0.38671875 0.9072265625 Q 0.3837890625 0.904296875 0.3837890625 0.90087890625 Z"/></g><g transform="translate(5.039902184268413,8.557142857142859)"><path fill="rgb(0,0,0)" stroke="none" paint-order="stroke fill markers" d=" M 0.3837890625 0.30078125 L 0.3837890625 -0.0009765625 Q 0.3837890625 -0.00439453125 0.38623046875 -0.007080078125 Q 0.388671875 -0.009765625 0.39306640625 -0.009765625 L 0.49609375 -0.009765625 Q 0.4990234375 -0.009765625 0.50146484375 -0.007080078125 Q 0.50390625 -0.00439453125 0.50390625 -0.0009765625 L 0.50390625 0.30078125 Q 0.50390625 0.3037109375 0.501220703125 0.306884765625 Q 0.49853515625 0.31005859375 0.49609375 0.31005859375 L 0.39306640625 0.31005859375 Q 0.3837890625 0.31005859375 0.3837890625 0.30078125 Z"/></g><g transform="translate(5.039902184268413,8.85714285714286)"><path fill="rgb(0,0,0)" stroke="none" paint-order="stroke fill markers" d=" M 0.3837890625 1.80078125 L 0.3837890625 1.3662109375 Q 0.3837890625 1.302734375 0.37060546875 1.23779296875 Q 0.357421875 1.1728515625 0.33154296875 1.115234375 Q 0.3056640625 1.0576171875 0.265869140625 1.008056640625 Q 0.22607421875 0.95849609375 0.173828125 0.921875 Q 0.169921875 0.919921875 0.169921875 0.916015625 L 0.169921875 0.884765625 Q 0.169921875 0.8798828125 0.173828125 0.8779296875 Q 0.22607421875 0.8408203125 0.266357421875 0.79052734375 Q 0.306640625 0.740234375 0.33203125 0.68359375 Q 0.357421875 0.626953125 0.37060546875 0.562255859375 Q 0.3837890625 0.49755859375 0.3837890625 0.43505859375 L 0.3837890625 -0.0009765625 Q 0.3837890625 -0.00439453125 0.38623046875 -0.007080078125 Q 0.388671875 -0.009765625 0.39306640625 -0.009765625 L 0.49609375 -0.009765625 Q 0.4990234375 -0.009765625 0.50146484375 -0.007080078125 Q 0.50390625 -0.00439453125 0.50390625 -0.0009765625 L 0.50390625 0.43701171875 Q 0.50390625 0.5078125 0.48388671875 0.575927734375 Q 0.4638671875 0.64404296875 0.427490234375 0.70458984375 Q 0.39111328125 0.76513671875 0.340087890625 0.814697265625 Q 0.2890625 0.8642578125 0.22802734375 0.89990234375 Q 0.287109375 0.93359375 0.339111328125 0.984619140625 Q 0.39111328125 1.03564453125 0.427490234375 1.095947265625 Q 0.4638671875 1.15625 0.48388671875 1.22412109375 Q 0.50390625 1.2919921875 0.50390625 1.36376953125 L 0.50390625 1.80078125 Q 0.50390625 1.8037109375 0.501220703125 1.806884765625 Q 0.49853515625 1.81005859375 0.49609375 1.81005859375 L 0.39306640625 1.81005859375 Q 0.3837890625 1.81005859375 0.3837890625 1.80078125 Z"/></g><g transform="translate(5.039902184268413,10.65714285714286)"><path fill="rgb(0,0,0)" stroke="none" paint-order="stroke fill markers" d=" M 0.3837890625 0.30078125 L 0.3837890625 -0.0009765625 Q 0.3837890625 -0.00439453125 0.38623046875 -0.007080078125 Q 0.388671875 -0.009765625 0.39306640625 -0.009765625 L 0.49609375 -0.009765625 Q 0.4990234375 -0.009765625 0.50146484375 -0.007080078125 Q 0.50390625 -0.00439453125 0.50390625 -0.0009765625 L 0.50390625 0.30078125 Q 0.50390625 0.3037109375 0.501220703125 0.306884765625 Q 0.49853515625 0.31005859375 0.49609375 0.31005859375 L 0.39306640625 0.31005859375 Q 0.3837890625 0.31005859375 0.3837890625 0.30078125 Z"/></g><g transform="translate(5.039902184268413,10.95714285714286)"><path fill="rgb(0,0,0)" stroke="none" paint-order="stroke fill markers" d=" M 0.673828125 0.89697265625 Q 0.6103515625 0.86376953125 0.55712890625 0.815673828125 Q 0.50390625 0.767578125 0.46533203125 0.709228515625 Q 0.4267578125 0.65087890625 0.4052734375 0.58349609375 Q 0.3837890625 0.51611328125 0.3837890625 0.44580078125 L 0.3837890625 -0.0009765625 Q 0.3837890625 -0.00439453125 0.38623046875 -0.007080078125 Q 0.388671875 -0.009765625 0.39306640625 -0.009765625 L 0.49609375 -0.009765625 Q 0.4990234375 -0.009765625 0.50146484375 -0.007080078125 Q 0.50390625 -0.00439453125 0.50390625 -0.0009765625 L 0.50390625 0.44384765625 Q 0.50390625 0.56689453125 0.558837890625 0.677490234375 Q 0.61376953125 0.7880859375 0.71484375 0.85302734375 Q 0.7177734375 0.85595703125 0.7177734375 0.85986328125 L 0.7177734375 0.89111328125 Q 0.7177734375 0.89404296875 0.71533203125 0.896484375 Q 0.712890625 0.89892578125 0.7099609375 0.89892578125 L 0.67919921875 0.89892578125 Q 0.67578125 0.89892578125 0.673828125 0.89697265625 Z"/></g><g transform="translate(8.533875483796889,8.610160607142856)"><path fill="rgb(0,0,0)" stroke="none" paint-order="stroke fill markers" d=" M 0.294 -0.373 L 0.227 -0.031 Q 0.219 0.007 0.195 0.011 Q 0.19 0.012 0.186 0.012 Q 0.16 0.012 0.157 -0.015 Q 0.157 -0.022 0.167 -0.052000000000000005 L 0.265 -0.373 L 0.182 -0.373 Q 0.10400000000000001 -0.373 0.055 -0.296 Q 0.046 -0.28400000000000003 0.039 -0.28400000000000003 Q 0.027 -0.28400000000000003 0.027 -0.294 Q 0.027 -0.305 0.063 -0.354 Q 0.076 -0.371 0.088 -0.384 Q 0.132 -0.431 0.191 -0.431 L 0.47100000000000003 -0.431 Q 0.505 -0.431 0.51 -0.41600000000000004 L 0.51 -0.41500000000000004 Q 0.511 -0.41200000000000003 0.511 -0.40700000000000003 Q 0.511 -0.373 0.462 -0.373 L 0.294 -0.373 Z"/></g><g transform="translate(8.970875483796888,8.235381607142855) scale(0.7,0.7)"><path fill="rgb(0,0,0)" stroke="none" paint-order="stroke fill markers" d=" M 0.47700000000000004 -0.23600000000000002 L 0.47700000000000004 -0.23600000000000002 L 0.47700000000000004 -0.17400000000000002 Q 0.542 -0.255 0.5750000000000001 -0.372 Q 0.585 -0.392 0.59 -0.393 Q 0.602 -0.393 0.602 -0.383 Q 0.602 -0.366 0.579 -0.307 Q 0.545 -0.221 0.487 -0.148 Q 0.47700000000000004 -0.128 0.47700000000000004 -0.113 Q 0.47700000000000004 -0.011 0.508 -0.011 Q 0.539 -0.011 0.558 -0.046 Q 0.561 -0.052000000000000005 0.5640000000000001 -0.06 Q 0.5680000000000001 -0.07 0.577 -0.07 Q 0.589 -0.07 0.589 -0.06 Q 0.589 -0.041 0.5640000000000001 -0.015 Q 0.538 0.011 0.505 0.011 Q 0.442 0.011 0.418 -0.058 Q 0.41600000000000004 -0.065 0.41400000000000003 -0.073 Q 0.309 0.011 0.203 0.011 Q 0.109 0.011 0.065 -0.064 Q 0.041 -0.105 0.041 -0.158 Q 0.041 -0.26 0.11900000000000001 -0.34700000000000003 Q 0.196 -0.433 0.293 -0.441 Q 0.302 -0.442 0.31 -0.442 Q 0.394 -0.442 0.44 -0.376 Q 0.44 -0.375 0.441 -0.375 Q 0.47700000000000004 -0.322 0.47700000000000004 -0.23600000000000002 M 0.41000000000000003 -0.099 L 0.41000000000000003 -0.099 Q 0.40800000000000003 -0.116 0.40800000000000003 -0.211 Q 0.40800000000000003 -0.334 0.381 -0.379 Q 0.369 -0.399 0.352 -0.40900000000000003 L 0.35100000000000003 -0.41000000000000003 L 0.35100000000000003 -0.41000000000000003 L 0.35000000000000003 -0.41000000000000003 Q 0.332 -0.42 0.309 -0.42 Q 0.23800000000000002 -0.42 0.181 -0.34 L 0.17300000000000001 -0.328 Q 0.137 -0.27 0.12 -0.166 Q 0.115 -0.138 0.115 -0.12 Q 0.115 -0.036000000000000004 0.17400000000000002 -0.016 Q 0.188 -0.011 0.20500000000000002 -0.011 Q 0.309 -0.011 0.41000000000000003 -0.099 Z"/></g><g transform="translate(8.970875483796888,8.857377607142855) scale(0.7,0.7)"><path fill="rgb(0,0,0)" stroke="none" paint-order="stroke fill markers" d=" M 0.28400000000000003 -0.625 Q 0.28400000000000003 -0.594 0.253 -0.578 Q 0.242 -0.5720000000000001 0.231 -0.5720000000000001 Q 0.201 -0.5720000000000001 0.194 -0.599 Q 0.193 -0.604 0.193 -0.608 Q 0.193 -0.636 0.221 -0.653 Q 0.234 -0.661 0.247 -0.661 Q 0.277 -0.661 0.28300000000000003 -0.634 L 0.28300000000000003 -0.633 Q 0.28400000000000003 -0.629 0.28400000000000003 -0.625 M 0.20800000000000002 -0.249 L 0.169 -0.14400000000000002 Q 0.14100000000000001 -0.063 0.14 -0.044 Q 0.14 -0.011 0.164 -0.011 Q 0.227 -0.011 0.262 -0.123 L 0.266 -0.135 Q 0.271 -0.151 0.276 -0.152 L 0.276 -0.153 L 0.281 -0.153 Q 0.293 -0.153 0.293 -0.14300000000000002 Q 0.293 -0.125 0.271 -0.079 Q 0.228 0.011 0.162 0.011 Q 0.109 0.011 0.088 -0.033 Q 0.08 -0.051000000000000004 0.08 -0.07100000000000001 Q 0.08 -0.091 0.10300000000000001 -0.151 Q 0.17300000000000001 -0.339 0.17200000000000001 -0.336 Q 0.183 -0.364 0.183 -0.388 Q 0.183 -0.42 0.158 -0.42 Q 0.10300000000000001 -0.42 0.068 -0.329 L 0.068 -0.328 Q 0.062 -0.313 0.057 -0.296 Q 0.046 -0.279 0.041 -0.278 Q 0.029 -0.278 0.029 -0.28800000000000003 Q 0.029 -0.306 0.051000000000000004 -0.35100000000000003 Q 0.094 -0.442 0.161 -0.442 Q 0.214 -0.442 0.23500000000000001 -0.397 Q 0.243 -0.38 0.243 -0.36 Q 0.243 -0.34 0.23 -0.307 Q 0.213 -0.261 0.20800000000000002 -0.249 Z"/></g><g transform="translate(9.212375483796889,8.857377607142855) scale(0.7,0.7)"><path fill="rgb(0,0,0)" stroke="none" paint-order="stroke fill markers" d=" M 0.203 -0.001 L 0.203 -0.001 Q 0.203 0.096 0.14 0.169 Q 0.123 0.189 0.112 0.193 Q 0.10200000000000001 0.193 0.10200000000000001 0.182 Q 0.10200000000000001 0.177 0.113 0.166 Q 0.17300000000000001 0.106 0.18 0.019 Q 0.181 0.009000000000000001 0.181 -0.001 Q 0.181 -0.016 0.179 -0.016 Q 0.178 -0.016 0.17400000000000002 -0.013000000000000001 Q 0.16 0 0.139 0 Q 0.10200000000000001 0 0.09 -0.034 Q 0.08600000000000001 -0.043000000000000003 0.08600000000000001 -0.053 Q 0.08600000000000001 -0.089 0.117 -0.10200000000000001 Q 0.127 -0.106 0.139 -0.106 Q 0.183 -0.106 0.198 -0.048 Q 0.203 -0.027 0.203 -0.001 Z"/></g><g transform="translate(9.406975483796888,8.857377607142855) scale(0.7,0.7)"><path fill="rgb(0,0,0)" stroke="none" paint-order="stroke fill markers" d=" M 0.397 -0.625 Q 0.397 -0.597 0.369 -0.58 Q 0.356 -0.5720000000000001 0.343 -0.5720000000000001 Q 0.313 -0.5720000000000001 0.307 -0.599 L 0.307 -0.6 Q 0.306 -0.604 0.306 -0.608 Q 0.306 -0.639 0.337 -0.655 Q 0.34800000000000003 -0.661 0.359 -0.661 Q 0.389 -0.661 0.396 -0.634 Q 0.397 -0.629 0.397 -0.625 M 0.196 0.05 L 0.196 0.05 L 0.29 -0.323 Q 0.297 -0.353 0.297 -0.374 Q 0.297 -0.42 0.265 -0.42 Q 0.20400000000000001 -0.42 0.155 -0.332 Q 0.146 -0.316 0.139 -0.298 Q 0.127 -0.279 0.121 -0.278 Q 0.109 -0.278 0.109 -0.28800000000000003 Q 0.109 -0.301 0.135 -0.34500000000000003 Q 0.193 -0.442 0.268 -0.442 Q 0.324 -0.442 0.34900000000000003 -0.397 Q 0.36 -0.376 0.36 -0.35000000000000003 Q 0.36 -0.333 0.355 -0.313 L 0.263 0.053 Q 0.241 0.14 0.159 0.183 Q 0.117 0.20500000000000002 0.075 0.20500000000000002 Q 0.012 0.20500000000000002 -0.007 0.167 Q -0.013000000000000001 0.156 -0.013000000000000001 0.14300000000000002 Q -0.013000000000000001 0.105 0.021 0.09 Q 0.031 0.08600000000000001 0.041 0.08600000000000001 Q 0.07200000000000001 0.08600000000000001 0.078 0.113 Q 0.079 0.117 0.079 0.121 Q 0.079 0.151 0.051000000000000004 0.167 Q 0.043000000000000003 0.17200000000000001 0.034 0.17400000000000002 Q 0.052000000000000005 0.183 0.073 0.183 Q 0.132 0.183 0.17200000000000001 0.111 Q 0.188 0.083 0.196 0.05 Z"/></g><g transform="translate(9.74950782679546,8.610160607142856)"><path fill="rgb(0,0,0)" stroke="none" paint-order="stroke fill markers" d=" M 0.331 0.24 L 0.331 0.24 Q 0.331 0.25 0.321 0.25 Q 0.309 0.25 0.268 0.209 Q 0.20600000000000002 0.147 0.165 0.062 Q 0.099 -0.074 0.099 -0.25 Q 0.099 -0.419 0.162 -0.555 Q 0.214 -0.666 0.294 -0.733 Q 0.315 -0.75 0.321 -0.75 Q 0.331 -0.75 0.331 -0.74 Q 0.331 -0.735 0.318 -0.723 Q 0.157 -0.559 0.157 -0.25 Q 0.157 0.058 0.314 0.218 Q 0.331 0.23500000000000001 0.331 0.24 Z"/></g><g transform="translate(10.13850782679546,8.610160607142856)"><path fill="rgb(0,0,0)" stroke="none" paint-order="stroke fill markers" d=" M 0.20600000000000002 -0.4 L 0.132 -0.105 Q 0.126 -0.08 0.126 -0.057 Q 0.126 -0.011 0.157 -0.011 Q 0.223 -0.011 0.273 -0.108 L 0.28700000000000003 -0.139 Q 0.293 -0.152 0.302 -0.153 Q 0.314 -0.153 0.314 -0.14300000000000002 Q 0.314 -0.13 0.28800000000000003 -0.08600000000000001 Q 0.23 0.011 0.155 0.011 Q 0.097 0.011 0.073 -0.037 Q 0.063 -0.057 0.063 -0.081 Q 0.063 -0.1 0.124 -0.34 L 0.139 -0.4 L 0.051000000000000004 -0.4 Q 0.026000000000000002 -0.4 0.024 -0.40800000000000003 L 0.023 -0.40800000000000003 L 0.023 -0.41200000000000003 Q 0.023 -0.429 0.039 -0.431 L 0.053 -0.431 L 0.147 -0.431 L 0.186 -0.59 Q 0.195 -0.625 0.226 -0.626 Q 0.252 -0.626 0.255 -0.599 Q 0.255 -0.593 0.214 -0.431 L 0.302 -0.431 Q 0.328 -0.431 0.33 -0.42 Q 0.33 -0.402 0.314 -0.4 L 0.313 -0.4 L 0.3 -0.4 L 0.20600000000000002 -0.4 Z"/></g><g transform="translate(10.49950782679546,8.610160607142856)"><path fill="rgb(0,0,0)" stroke="none" paint-order="stroke fill markers" d=" M 0.289 -0.25 L 0.289 -0.25 Q 0.289 -0.081 0.226 0.055 Q 0.17400000000000002 0.166 0.094 0.233 Q 0.073 0.25 0.067 0.25 Q 0.057 0.25 0.057 0.24 Q 0.057 0.23500000000000001 0.07 0.223 Q 0.231 0.059000000000000004 0.231 -0.25 Q 0.231 -0.555 0.081 -0.712 L 0.076 -0.717 Q 0.057 -0.735 0.057 -0.74 Q 0.057 -0.75 0.067 -0.75 Q 0.079 -0.75 0.12 -0.709 Q 0.182 -0.647 0.223 -0.562 Q 0.289 -0.426 0.289 -0.25 Z"/></g><rect fill="rgb(0,0,0)" stroke="none" x="6.463059807464984" y="9.113174607142856" width="6.496263695662381" height="0.039999"/><g transform="translate(6.463059807464984,9.319125107142856)"><path fill="rgb(0,0,0)" stroke="none" paint-order="stroke fill markers" d=" M 0.06591796875 1 Q 0.05615234375 1 0.05615234375 0.98876953125 Q 0.05615234375 0.98486328125 0.05908203125 0.98193359375 L 0.4228515625 0.537109375 L 0.05908203125 0.0361328125 Q 0.05615234375 0.033203125 0.05615234375 0.03076171875 L 0.05615234375 0.0087890625 Q 0.05615234375 0.00537109375 0.059326171875 0.002685546875 Q 0.0625 0 0.06591796875 0 L 0.9130859375 0 L 0.9990234375 0.23388671875 L 0.97021484375 0.23388671875 Q 0.9453125 0.16552734375 0.894775390625 0.125244140625 Q 0.84423828125 0.0849609375 0.779296875 0.066650390625 Q 0.71435546875 0.04833984375 0.65283203125 0.044189453125 Q 0.59130859375 0.0400390625 0.5029296875 0.0400390625 L 0.1689453125 0.0400390625 L 0.4990234375 0.4931640625 Q 0.501953125 0.49609375 0.501953125 0.5 Q 0.501953125 0.50390625 0.4990234375 0.5068359375 L 0.14208984375 0.94287109375 L 0.5087890625 0.94287109375 Q 0.595703125 0.94287109375 0.65673828125 0.938720703125 Q 0.7177734375 0.9345703125 0.7822265625 0.916748046875 Q 0.8466796875 0.89892578125 0.896728515625 0.858154296875 Q 0.94677734375 0.8173828125 0.97021484375 0.7490234375 L 0.9990234375 0.7490234375 L 0.9130859375 1 L 0.06591796875 1 Z"/></g><g transform="translate(7.519059807464984,10.354125107142856) scale(0.7,0.7)"><path fill="rgb(0,0,0)" stroke="none" paint-order="stroke fill markers" d=" M 0.35000000000000003 -0.056 L 0.35000000000000003 -0.056 Q 0.298 0.011 0.231 0.011 Q 0.15 0.011 0.121 -0.048 Q 0.108 -0.074 0.108 -0.109 Q 0.108 -0.163 0.161 -0.305 Q 0.163 -0.312 0.166 -0.319 Q 0.183 -0.362 0.183 -0.387 Q 0.183 -0.42 0.158 -0.42 Q 0.10200000000000001 -0.42 0.067 -0.325 Q 0.066 -0.325 0.066 -0.324 L 0.066 -0.323 Q 0.061 -0.31 0.057 -0.296 Q 0.046 -0.279 0.041 -0.278 Q 0.029 -0.278 0.029 -0.28800000000000003 Q 0.029 -0.306 0.05 -0.35100000000000003 Q 0.094 -0.442 0.161 -0.442 Q 0.214 -0.442 0.23500000000000001 -0.397 Q 0.243 -0.38 0.243 -0.36 Q 0.243 -0.34 0.226 -0.297 Q 0.17200000000000001 -0.154 0.17200000000000001 -0.093 Q 0.17200000000000001 -0.011 0.234 -0.011 Q 0.297 -0.011 0.34 -0.08 Q 0.34600000000000003 -0.089 0.34800000000000003 -0.095 Q 0.37 -0.194 0.423 -0.396 Q 0.431 -0.431 0.462 -0.431 Q 0.487 -0.426 0.491 -0.404 Q 0.491 -0.406 0.47600000000000003 -0.337 Q 0.462 -0.28600000000000003 0.459 -0.269 L 0.431 -0.161 Q 0.41100000000000003 -0.074 0.41100000000000003 -0.057 Q 0.41100000000000003 -0.011 0.442 -0.011 Q 0.484 -0.011 0.511 -0.111 Q 0.514 -0.121 0.517 -0.135 Q 0.525 -0.152 0.531 -0.153 Q 0.543 -0.153 0.543 -0.14300000000000002 Q 0.543 -0.128 0.525 -0.073 Q 0.519 -0.056 0.513 -0.044 Q 0.486 0.011 0.439 0.011 Q 0.382 0.011 0.358 -0.037 Q 0.353 -0.046 0.35000000000000003 -0.056 Z"/></g><g transform="translate(7.9194598074649845,10.354125107142856) scale(0.7,0.7)"><path fill="rgb(0,0,0)" stroke="none" paint-order="stroke fill markers" d=" M 0.55 -0.23 L 0.55 -0.23 L 0.124 -0.23 Q 0.134 -0.11800000000000001 0.226 -0.052000000000000005 Q 0.297 0 0.391 0 L 0.55 0 Q 0.582 0 0.583 0.02 Q 0.583 0.04 0.55 0.04 L 0.388 0.04 Q 0.262 0.04 0.17300000000000001 -0.044 Q 0.083 -0.129 0.083 -0.25 Q 0.083 -0.377 0.179 -0.462 Q 0.268 -0.54 0.387 -0.54 L 0.55 -0.54 Q 0.582 -0.54 0.583 -0.52 Q 0.583 -0.5 0.55 -0.5 L 0.39 -0.5 Q 0.273 -0.5 0.195 -0.422 Q 0.132 -0.359 0.124 -0.27 L 0.55 -0.27 Q 0.582 -0.27 0.583 -0.25 Q 0.583 -0.23 0.55 -0.23 Z"/></g><g transform="translate(8.386359807464984,10.354125107142856) scale(0.7,0.7)"><path fill="rgb(0,0,0)" stroke="none" paint-order="stroke fill markers" d=" M 0.789 -0.7000000000000001 L 0.8 -0.7000000000000001 Q 0.808 -0.7000000000000001 0.808 -0.6920000000000001 Q 0.808 -0.6890000000000001 0.807 -0.6880000000000001 Q 0.764 -0.624 0.764 -0.495 Q 0.764 -0.457 0.768 -0.40650000000000003 Q 0.772 -0.356 0.772 -0.35000000000000003 L 0.772 -0.334 Q 0.772 -0.28 0.755 -0.217 Q 0.8280000000000001 -0.337 0.914 -0.46 Q 0.979 -0.552 1.046 -0.6185 Q 1.113 -0.685 1.195 -0.719 L 1.199 -0.719 Q 1.206 -0.719 1.206 -0.712 L 1.203 -0.6880000000000001 Q 1.203 -0.684 1.198 -0.681 Q 1.062 -0.625 0.9380000000000001 -0.45 Q 0.777 -0.221 0.665 0.004 Q 0.662 0.008 0.657 0.008 L 0.646 0.008 Q 0.644 0.008 0.643 0.007 Q 0.638 0.005 0.638 0 Q 0.638 -0.003 0.639 -0.004 Q 0.6900000000000001 -0.101 0.6900000000000001 -0.214 Q 0.6900000000000001 -0.241 0.687 -0.2895 Q 0.684 -0.338 0.683 -0.35000000000000003 L 0.687 -0.461 L 0.6910000000000001 -0.483 Q 0.6950000000000001 -0.505 0.7020000000000001 -0.535 L 0.466 -0.20500000000000002 Q 0.397 -0.111 0.316 -0.0445 Q 0.23500000000000001 0.022 0.165 0.022 Q 0.108 0.022 0.07050000000000001 0.0015 Q 0.033 -0.019 0.033 -0.057 Q 0.033 -0.08600000000000001 0.059000000000000004 -0.124 Q 0.079 -0.153 0.116 -0.153 Q 0.149 -0.153 0.149 -0.11900000000000001 Q 0.149 -0.105 0.1305 -0.0925 Q 0.112 -0.08 0.092 -0.08 Q 0.07200000000000001 -0.08 0.063 -0.095 Q 0.054 -0.076 0.054 -0.061 Q 0.054 -0.031 0.0855 -0.0155 Q 0.117 0 0.169 0 Q 0.231 0 0.3045 -0.0625 Q 0.378 -0.125 0.442 -0.215 L 0.782 -0.6970000000000001 Q 0.785 -0.7000000000000001 0.789 -0.7000000000000001 Z"/></g><g transform="translate(9.264159807464985,10.057179107142856) scale(0.5,0.5)"><path fill="rgb(0,0,0)" stroke="none" paint-order="stroke fill markers" d=" M 0.28700000000000003 -0.683 L 0.183 -0.261 Q 0.226 -0.278 0.294 -0.354 Q 0.373 -0.442 0.44 -0.442 Q 0.488 -0.442 0.504 -0.402 Q 0.508 -0.391 0.508 -0.379 Q 0.508 -0.338 0.47400000000000003 -0.322 Q 0.463 -0.318 0.453 -0.318 Q 0.422 -0.318 0.41600000000000004 -0.34500000000000003 Q 0.41500000000000004 -0.34900000000000003 0.41500000000000004 -0.353 Q 0.41500000000000004 -0.381 0.44 -0.397 L 0.441 -0.398 L 0.441 -0.398 Q 0.454 -0.406 0.47200000000000003 -0.40700000000000003 L 0.468 -0.41100000000000003 Q 0.46 -0.417 0.447 -0.419 Q 0.445 -0.42 0.438 -0.42 Q 0.385 -0.42 0.309 -0.339 Q 0.305 -0.335 0.301 -0.33 L 0.295 -0.324 Q 0.243 -0.27 0.209 -0.25 Q 0.357 -0.231 0.357 -0.145 Q 0.357 -0.131 0.353 -0.114 Q 0.34500000000000003 -0.082 0.34500000000000003 -0.058 Q 0.34500000000000003 -0.011 0.377 -0.011 Q 0.423 -0.011 0.451 -0.094 Q 0.458 -0.111 0.464 -0.135 Q 0.47200000000000003 -0.152 0.47800000000000004 -0.153 Q 0.49 -0.153 0.49 -0.14300000000000002 Q 0.49 -0.127 0.47100000000000003 -0.078 Q 0.463 -0.058 0.454 -0.042 Q 0.422 0.011 0.375 0.011 Q 0.32 0.011 0.295 -0.037 Q 0.28300000000000003 -0.06 0.28300000000000003 -0.088 Q 0.28300000000000003 -0.099 0.28700000000000003 -0.123 Q 0.29 -0.133 0.29 -0.14400000000000002 Q 0.29 -0.20700000000000002 0.2 -0.225 Q 0.187 -0.228 0.17400000000000002 -0.229 Q 0.124 -0.021 0.11800000000000001 -0.01 Q 0.108 0.009000000000000001 0.084 0.011 Q 0.06 0.011 0.056 -0.01 Q 0.055 -0.014 0.055 -0.017 Q 0.055 -0.025 0.059000000000000004 -0.039 L 0.20400000000000001 -0.615 L 0.20700000000000002 -0.635 Q 0.20700000000000002 -0.646 0.193 -0.649 L 0.193 -0.649 Q 0.181 -0.652 0.157 -0.652 Q 0.135 -0.652 0.133 -0.664 Q 0.133 -0.681 0.152 -0.684 L 0.274 -0.6940000000000001 Q 0.28700000000000003 -0.6940000000000001 0.28700000000000003 -0.683 Z"/></g><g transform="translate(9.264159807464985,10.527177007142855) scale(0.5,0.5)"><path fill="rgb(0,0,0)" stroke="none" paint-order="stroke fill markers" d=" M 0.28400000000000003 -0.625 Q 0.28400000000000003 -0.594 0.253 -0.578 Q 0.242 -0.5720000000000001 0.231 -0.5720000000000001 Q 0.201 -0.5720000000000001 0.194 -0.599 Q 0.193 -0.604 0.193 -0.608 Q 0.193 -0.636 0.221 -0.653 Q 0.234 -0.661 0.247 -0.661 Q 0.277 -0.661 0.28300000000000003 -0.634 L 0.28300000000000003 -0.633 Q 0.28400000000000003 -0.629 0.28400000000000003 -0.625 M 0.20800000000000002 -0.249 L 0.169 -0.14400000000000002 Q 0.14100000000000001 -0.063 0.14 -0.044 Q 0.14 -0.011 0.164 -0.011 Q 0.227 -0.011 0.262 -0.123 L 0.266 -0.135 Q 0.271 -0.151 0.276 -0.152 L 0.276 -0.153 L 0.281 -0.153 Q 0.293 -0.153 0.293 -0.14300000000000002 Q 0.293 -0.125 0.271 -0.079 Q 0.228 0.011 0.162 0.011 Q 0.109 0.011 0.088 -0.033 Q 0.08 -0.051000000000000004 0.08 -0.07100000000000001 Q 0.08 -0.091 0.10300000000000001 -0.151 Q 0.17300000000000001 -0.339 0.17200000000000001 -0.336 Q 0.183 -0.364 0.183 -0.388 Q 0.183 -0.42 0.158 -0.42 Q 0.10300000000000001 -0.42 0.068 -0.329 L 0.068 -0.328 Q 0.062 -0.313 0.057 -0.296 Q 0.046 -0.279 0.041 -0.278 Q 0.029 -0.278 0.029 -0.28800000000000003 Q 0.029 -0.306 0.051000000000000004 -0.35100000000000003 Q 0.094 -0.442 0.161 -0.442 Q 0.214 -0.442 0.23500000000000001 -0.397 Q 0.243 -0.38 0.243 -0.36 Q 0.243 -0.34 0.23 -0.307 Q 0.213 -0.261 0.20800000000000002 -0.249 Z"/></g><g transform="translate(9.554392150463556,10.354125107142856) scale(0.7,0.7)"><path fill="rgb(0,0,0)" stroke="none" paint-order="stroke fill markers" d=" M 0.331 0.24 L 0.331 0.24 Q 0.331 0.25 0.321 0.25 Q 0.309 0.25 0.268 0.209 Q 0.20600000000000002 0.147 0.165 0.062 Q 0.099 -0.074 0.099 -0.25 Q 0.099 -0.419 0.162 -0.555 Q 0.214 -0.666 0.294 -0.733 Q 0.315 -0.75 0.321 -0.75 Q 0.331 -0.75 0.331 -0.74 Q 0.331 -0.735 0.318 -0.723 Q 0.157 -0.559 0.157 -0.25 Q 0.157 0.058 0.314 0.218 Q 0.331 0.23500000000000001 0.331 0.24 Z"/></g><g transform="translate(9.826692150463556,10.354125107142856) scale(0.7,0.7)"><path fill="rgb(0,0,0)" stroke="none" paint-order="stroke fill markers" d=" M 0.20600000000000002 -0.4 L 0.132 -0.105 Q 0.126 -0.08 0.126 -0.057 Q 0.126 -0.011 0.157 -0.011 Q 0.223 -0.011 0.273 -0.108 L 0.28700000000000003 -0.139 Q 0.293 -0.152 0.302 -0.153 Q 0.314 -0.153 0.314 -0.14300000000000002 Q 0.314 -0.13 0.28800000000000003 -0.08600000000000001 Q 0.23 0.011 0.155 0.011 Q 0.097 0.011 0.073 -0.037 Q 0.063 -0.057 0.063 -0.081 Q 0.063 -0.1 0.124 -0.34 L 0.139 -0.4 L 0.051000000000000004 -0.4 Q 0.026000000000000002 -0.4 0.024 -0.40800000000000003 L 0.023 -0.40800000000000003 L 0.023 -0.41200000000000003 Q 0.023 -0.429 0.039 -0.431 L 0.053 -0.431 L 0.147 -0.431 L 0.186 -0.59 Q 0.195 -0.625 0.226 -0.626 Q 0.252 -0.626 0.255 -0.599 Q 0.255 -0.593 0.214 -0.431 L 0.302 -0.431 Q 0.328 -0.431 0.33 -0.42 Q 0.33 -0.402 0.314 -0.4 L 0.313 -0.4 L 0.3 -0.4 L 0.20600000000000002 -0.4 Z"/></g><g transform="translate(10.079392150463557,10.354125107142856) scale(0.7,0.7)"><path fill="rgb(0,0,0)" stroke="none" paint-order="stroke fill markers" d=" M 0.289 -0.25 L 0.289 -0.25 Q 0.289 -0.081 0.226 0.055 Q 0.17400000000000002 0.166 0.094 0.233 Q 0.073 0.25 0.067 0.25 Q 0.057 0.25 0.057 0.24 Q 0.057 0.23500000000000001 0.07 0.223 Q 0.231 0.059000000000000004 0.231 -0.25 Q 0.231 -0.555 0.081 -0.712 L 0.076 -0.717 Q 0.057 -0.735 0.057 -0.74 Q 0.057 -0.75 0.067 -0.75 Q 0.079 -0.75 0.12 -0.709 Q 0.182 -0.647 0.223 -0.562 Q 0.289 -0.426 0.289 -0.25 Z"/></g><g transform="translate(10.532591160128794,10.069125107142856)"><path fill="rgb(0,0,0)" stroke="none" paint-order="stroke fill markers" d=" M 0.294 -0.373 L 0.227 -0.031 Q 0.219 0.007 0.195 0.011 Q 0.19 0.012 0.186 0.012 Q 0.16 0.012 0.157 -0.015 Q 0.157 -0.022 0.167 -0.052000000000000005 L 0.265 -0.373 L 0.182 -0.373 Q 0.10400000000000001 -0.373 0.055 -0.296 Q 0.046 -0.28400000000000003 0.039 -0.28400000000000003 Q 0.027 -0.28400000000000003 0.027 -0.294 Q 0.027 -0.305 0.063 -0.354 Q 0.076 -0.371 0.088 -0.384 Q 0.132 -0.431 0.191 -0.431 L 0.47100000000000003 -0.431 Q 0.505 -0.431 0.51 -0.41600000000000004 L 0.51 -0.41500000000000004 Q 0.511 -0.41200000000000003 0.511 -0.40700000000000003 Q 0.511 -0.373 0.462 -0.373 L 0.294 -0.373 Z"/></g><g transform="translate(10.969591160128793,9.694346107142856) scale(0.7,0.7)"><path fill="rgb(0,0,0)" stroke="none" paint-order="stroke fill markers" d=" M 0.47700000000000004 -0.23600000000000002 L 0.47700000000000004 -0.23600000000000002 L 0.47700000000000004 -0.17400000000000002 Q 0.542 -0.255 0.5750000000000001 -0.372 Q 0.585 -0.392 0.59 -0.393 Q 0.602 -0.393 0.602 -0.383 Q 0.602 -0.366 0.579 -0.307 Q 0.545 -0.221 0.487 -0.148 Q 0.47700000000000004 -0.128 0.47700000000000004 -0.113 Q 0.47700000000000004 -0.011 0.508 -0.011 Q 0.539 -0.011 0.558 -0.046 Q 0.561 -0.052000000000000005 0.5640000000000001 -0.06 Q 0.5680000000000001 -0.07 0.577 -0.07 Q 0.589 -0.07 0.589 -0.06 Q 0.589 -0.041 0.5640000000000001 -0.015 Q 0.538 0.011 0.505 0.011 Q 0.442 0.011 0.418 -0.058 Q 0.41600000000000004 -0.065 0.41400000000000003 -0.073 Q 0.309 0.011 0.203 0.011 Q 0.109 0.011 0.065 -0.064 Q 0.041 -0.105 0.041 -0.158 Q 0.041 -0.26 0.11900000000000001 -0.34700000000000003 Q 0.196 -0.433 0.293 -0.441 Q 0.302 -0.442 0.31 -0.442 Q 0.394 -0.442 0.44 -0.376 Q 0.44 -0.375 0.441 -0.375 Q 0.47700000000000004 -0.322 0.47700000000000004 -0.23600000000000002 M 0.41000000000000003 -0.099 L 0.41000000000000003 -0.099 Q 0.40800000000000003 -0.116 0.40800000000000003 -0.211 Q 0.40800000000000003 -0.334 0.381 -0.379 Q 0.369 -0.399 0.352 -0.40900000000000003 L 0.35100000000000003 -0.41000000000000003 L 0.35100000000000003 -0.41000000000000003 L 0.35000000000000003 -0.41000000000000003 Q 0.332 -0.42 0.309 -0.42 Q 0.23800000000000002 -0.42 0.181 -0.34 L 0.17300000000000001 -0.328 Q 0.137 -0.27 0.12 -0.166 Q 0.115 -0.138 0.115 -0.12 Q 0.115 -0.036000000000000004 0.17400000000000002 -0.016 Q 0.188 -0.011 0.20500000000000002 -0.011 Q 0.309 -0.011 0.41000000000000003 -0.099 Z"/></g><g transform="translate(10.969591160128793,10.316342107142855) scale(0.7,0.7)"><path fill="rgb(0,0,0)" stroke="none" paint-order="stroke fill markers" d=" M 0.28400000000000003 -0.625 Q 0.28400000000000003 -0.594 0.253 -0.578 Q 0.242 -0.5720000000000001 0.231 -0.5720000000000001 Q 0.201 -0.5720000000000001 0.194 -0.599 Q 0.193 -0.604 0.193 -0.608 Q 0.193 -0.636 0.221 -0.653 Q 0.234 -0.661 0.247 -0.661 Q 0.277 -0.661 0.28300000000000003 -0.634 L 0.28300000000000003 -0.633 Q 0.28400000000000003 -0.629 0.28400000000000003 -0.625 M 0.20800000000000002 -0.249 L 0.169 -0.14400000000000002 Q 0.14100000000000001 -0.063 0.14 -0.044 Q 0.14 -0.011 0.164 -0.011 Q 0.227 -0.011 0.262 -0.123 L 0.266 -0.135 Q 0.271 -0.151 0.276 -0.152 L 0.276 -0.153 L 0.281 -0.153 Q 0.293 -0.153 0.293 -0.14300000000000002 Q 0.293 -0.125 0.271 -0.079 Q 0.228 0.011 0.162 0.011 Q 0.109 0.011 0.088 -0.033 Q 0.08 -0.051000000000000004 0.08 -0.07100000000000001 Q 0.08 -0.091 0.10300000000000001 -0.151 Q 0.17300000000000001 -0.339 0.17200000000000001 -0.336 Q 0.183 -0.364 0.183 -0.388 Q 0.183 -0.42 0.158 -0.42 Q 0.10300000000000001 -0.42 0.068 -0.329 L 0.068 -0.328 Q 0.062 -0.313 0.057 -0.296 Q 0.046 -0.279 0.041 -0.278 Q 0.029 -0.278 0.029 -0.28800000000000003 Q 0.029 -0.306 0.051000000000000004 -0.35100000000000003 Q 0.094 -0.442 0.161 -0.442 Q 0.214 -0.442 0.23500000000000001 -0.397 Q 0.243 -0.38 0.243 -0.36 Q 0.243 -0.34 0.23 -0.307 Q 0.213 -0.261 0.20800000000000002 -0.249 Z"/></g><g transform="translate(11.211091160128793,10.316342107142855) scale(0.7,0.7)"><path fill="rgb(0,0,0)" stroke="none" paint-order="stroke fill markers" d=" M 0.203 -0.001 L 0.203 -0.001 Q 0.203 0.096 0.14 0.169 Q 0.123 0.189 0.112 0.193 Q 0.10200000000000001 0.193 0.10200000000000001 0.182 Q 0.10200000000000001 0.177 0.113 0.166 Q 0.17300000000000001 0.106 0.18 0.019 Q 0.181 0.009000000000000001 0.181 -0.001 Q 0.181 -0.016 0.179 -0.016 Q 0.178 -0.016 0.17400000000000002 -0.013000000000000001 Q 0.16 0 0.139 0 Q 0.10200000000000001 0 0.09 -0.034 Q 0.08600000000000001 -0.043000000000000003 0.08600000000000001 -0.053 Q 0.08600000000000001 -0.089 0.117 -0.10200000000000001 Q 0.127 -0.106 0.139 -0.106 Q 0.183 -0.106 0.198 -0.048 Q 0.203 -0.027 0.203 -0.001 Z"/></g><g transform="translate(11.405691160128793,10.316342107142855) scale(0.7,0.7)"><path fill="rgb(0,0,0)" stroke="none" paint-order="stroke fill markers" d=" M 0.35000000000000003 -0.056 L 0.35000000000000003 -0.056 Q 0.298 0.011 0.231 0.011 Q 0.15 0.011 0.121 -0.048 Q 0.108 -0.074 0.108 -0.109 Q 0.108 -0.163 0.161 -0.305 Q 0.163 -0.312 0.166 -0.319 Q 0.183 -0.362 0.183 -0.387 Q 0.183 -0.42 0.158 -0.42 Q 0.10200000000000001 -0.42 0.067 -0.325 Q 0.066 -0.325 0.066 -0.324 L 0.066 -0.323 Q 0.061 -0.31 0.057 -0.296 Q 0.046 -0.279 0.041 -0.278 Q 0.029 -0.278 0.029 -0.28800000000000003 Q 0.029 -0.306 0.05 -0.35100000000000003 Q 0.094 -0.442 0.161 -0.442 Q 0.214 -0.442 0.23500000000000001 -0.397 Q 0.243 -0.38 0.243 -0.36 Q 0.243 -0.34 0.226 -0.297 Q 0.17200000000000001 -0.154 0.17200000000000001 -0.093 Q 0.17200000000000001 -0.011 0.234 -0.011 Q 0.297 -0.011 0.34 -0.08 Q 0.34600000000000003 -0.089 0.34800000000000003 -0.095 Q 0.37 -0.194 0.423 -0.396 Q 0.431 -0.431 0.462 -0.431 Q 0.487 -0.426 0.491 -0.404 Q 0.491 -0.406 0.47600000000000003 -0.337 Q 0.462 -0.28600000000000003 0.459 -0.269 L 0.431 -0.161 Q 0.41100000000000003 -0.074 0.41100000000000003 -0.057 Q 0.41100000000000003 -0.011 0.442 -0.011 Q 0.484 -0.011 0.511 -0.111 Q 0.514 -0.121 0.517 -0.135 Q 0.525 -0.152 0.531 -0.153 Q 0.543 -0.153 0.543 -0.14300000000000002 Q 0.543 -0.128 0.525 -0.073 Q 0.519 -0.056 0.513 -0.044 Q 0.486 0.011 0.439 0.011 Q 0.382 0.011 0.358 -0.037 Q 0.353 -0.046 0.35000000000000003 -0.056 Z"/></g><g transform="translate(11.820323503127366,10.069125107142856)"><path fill="rgb(0,0,0)" stroke="none" paint-order="stroke fill markers" d=" M 0.331 0.24 L 0.331 0.24 Q 0.331 0.25 0.321 0.25 Q 0.309 0.25 0.268 0.209 Q 0.20600000000000002 0.147 0.165 0.062 Q 0.099 -0.074 0.099 -0.25 Q 0.099 -0.419 0.162 -0.555 Q 0.214 -0.666 0.294 -0.733 Q 0.315 -0.75 0.321 -0.75 Q 0.331 -0.75 0.331 -0.74 Q 0.331 -0.735 0.318 -0.723 Q 0.157 -0.559 0.157 -0.25 Q 0.157 0.058 0.314 0.218 Q 0.331 0.23500000000000001 0.331 0.24 Z"/></g><g transform="translate(12.209323503127365,10.069125107142856)"><path fill="rgb(0,0,0)" stroke="none" paint-order="stroke fill markers" d=" M 0.20600000000000002 -0.4 L 0.132 -0.105 Q 0.126 -0.08 0.126 -0.057 Q 0.126 -0.011 0.157 -0.011 Q 0.223 -0.011 0.273 -0.108 L 0.28700000000000003 -0.139 Q 0.293 -0.152 0.302 -0.153 Q 0.314 -0.153 0.314 -0.14300000000000002 Q 0.314 -0.13 0.28800000000000003 -0.08600000000000001 Q 0.23 0.011 0.155 0.011 Q 0.097 0.011 0.073 -0.037 Q 0.063 -0.057 0.063 -0.081 Q 0.063 -0.1 0.124 -0.34 L 0.139 -0.4 L 0.051000000000000004 -0.4 Q 0.026000000000000002 -0.4 0.024 -0.40800000000000003 L 0.023 -0.40800000000000003 L 0.023 -0.41200000000000003 Q 0.023 -0.429 0.039 -0.431 L 0.053 -0.431 L 0.147 -0.431 L 0.186 -0.59 Q 0.195 -0.625 0.226 -0.626 Q 0.252 -0.626 0.255 -0.599 Q 0.255 -0.593 0.214 -0.431 L 0.302 -0.431 Q 0.328 -0.431 0.33 -0.42 Q 0.33 -0.402 0.314 -0.4 L 0.313 -0.4 L 0.3 -0.4 L 0.20600000000000002 -0.4 Z"/></g><g transform="translate(12.570323503127366,10.069125107142856)"><path fill="rgb(0,0,0)" stroke="none" paint-order="stroke fill markers" d=" M 0.289 -0.25 L 0.289 -0.25 Q 0.289 -0.081 0.226 0.055 Q 0.17400000000000002 0.166 0.094 0.233 Q 0.073 0.25 0.067 0.25 Q 0.057 0.25 0.057 0.24 Q 0.057 0.23500000000000001 0.07 0.223 Q 0.231 0.059000000000000004 0.231 -0.25 Q 0.231 -0.555 0.081 -0.712 L 0.076 -0.717 Q 0.057 -0.735 0.057 -0.74 Q 0.057 -0.75 0.067 -0.75 Q 0.079 -0.75 0.12 -0.709 Q 0.182 -0.647 0.223 -0.562 Q 0.289 -0.426 0.289 -0.25 Z"/></g><g transform="translate(14.15981445965727,9.383174107142857)"><path fill="rgb(0,0,0)" stroke="none" paint-order="stroke fill markers" d=" M 0.177 -0.442 L 0.177 -0.442 L 0.177 -0.075 Q 0.177 -0.044 0.189 -0.037 L 0.189 -0.037 Q 0.201 -0.031 0.247 -0.031 L 0.247 0 Q 0.145 -0.003 0.14300000000000002 -0.003 Q 0.129 -0.003 0.033 0 L 0.033 -0.031 Q 0.092 -0.031 0.10200000000000001 -0.04 L 0.10400000000000001 -0.042 Q 0.111 -0.05 0.111 -0.076 L 0.111 -0.34500000000000003 Q 0.111 -0.385 0.095 -0.393 L 0.094 -0.393 L 0.094 -0.393 L 0.093 -0.394 L 0.093 -0.394 Q 0.08 -0.4 0.037 -0.4 L 0.037 -0.431 L 0.177 -0.442 M 0.181 -0.616 Q 0.181 -0.579 0.148 -0.5670000000000001 Q 0.138 -0.5630000000000001 0.128 -0.5630000000000001 Q 0.093 -0.5630000000000001 0.079 -0.595 L 0.079 -0.596 Q 0.075 -0.606 0.075 -0.616 Q 0.075 -0.647 0.10300000000000001 -0.662 Q 0.114 -0.669 0.128 -0.669 Q 0.162 -0.669 0.176 -0.639 Q 0.181 -0.628 0.181 -0.616 Z"/></g><g transform="translate(14.43781445965727,9.383174107142857)"><path fill="rgb(0,0,0)" stroke="none" paint-order="stroke fill markers" d=" M 0.178 -0.4 L 0.178 -0.078 Q 0.178 -0.047 0.19 -0.04 L 0.19 -0.04 L 0.191 -0.039 Q 0.20500000000000002 -0.031 0.254 -0.031 L 0.275 -0.031 L 0.275 0 Q 0.23500000000000001 -0.003 0.148 -0.003 Q 0.151 -0.003 0.034 0 L 0.034 -0.031 Q 0.093 -0.031 0.10300000000000001 -0.04 L 0.105 -0.042 Q 0.112 -0.05 0.112 -0.076 L 0.112 -0.4 L 0.033 -0.4 L 0.033 -0.431 L 0.112 -0.431 L 0.112 -0.546 Q 0.112 -0.638 0.187 -0.682 Q 0.225 -0.705 0.267 -0.705 Q 0.323 -0.705 0.34800000000000003 -0.666 Q 0.357 -0.652 0.357 -0.635 Q 0.357 -0.6 0.326 -0.592 Q 0.32 -0.591 0.313 -0.591 Q 0.28 -0.591 0.272 -0.622 L 0.271 -0.623 L 0.271 -0.624 Q 0.27 -0.629 0.27 -0.634 Q 0.27 -0.664 0.3 -0.676 Q 0.28500000000000003 -0.683 0.267 -0.683 Q 0.223 -0.683 0.195 -0.634 Q 0.17500000000000002 -0.598 0.17500000000000002 -0.547 L 0.17500000000000002 -0.431 L 0.292 -0.431 L 0.292 -0.4 L 0.178 -0.4 Z"/></g><g transform="translate(15.07681445965727,9.383174107142857)"><path fill="rgb(0,0,0)" stroke="none" paint-order="stroke fill markers" d=" M 0.397 -0.625 Q 0.397 -0.597 0.369 -0.58 Q 0.356 -0.5720000000000001 0.343 -0.5720000000000001 Q 0.313 -0.5720000000000001 0.307 -0.599 L 0.307 -0.6 Q 0.306 -0.604 0.306 -0.608 Q 0.306 -0.639 0.337 -0.655 Q 0.34800000000000003 -0.661 0.359 -0.661 Q 0.389 -0.661 0.396 -0.634 Q 0.397 -0.629 0.397 -0.625 M 0.196 0.05 L 0.196 0.05 L 0.29 -0.323 Q 0.297 -0.353 0.297 -0.374 Q 0.297 -0.42 0.265 -0.42 Q 0.20400000000000001 -0.42 0.155 -0.332 Q 0.146 -0.316 0.139 -0.298 Q 0.127 -0.279 0.121 -0.278 Q 0.109 -0.278 0.109 -0.28800000000000003 Q 0.109 -0.301 0.135 -0.34500000000000003 Q 0.193 -0.442 0.268 -0.442 Q 0.324 -0.442 0.34900000000000003 -0.397 Q 0.36 -0.376 0.36 -0.35000000000000003 Q 0.36 -0.333 0.355 -0.313 L 0.263 0.053 Q 0.241 0.14 0.159 0.183 Q 0.117 0.20500000000000002 0.075 0.20500000000000002 Q 0.012 0.20500000000000002 -0.007 0.167 Q -0.013000000000000001 0.156 -0.013000000000000001 0.14300000000000002 Q -0.013000000000000001 0.105 0.021 0.09 Q 0.031 0.08600000000000001 0.041 0.08600000000000001 Q 0.07200000000000001 0.08600000000000001 0.078 0.113 Q 0.079 0.117 0.079 0.121 Q 0.079 0.151 0.051000000000000004 0.167 Q 0.043000000000000003 0.17200000000000001 0.034 0.17400000000000002 Q 0.052000000000000005 0.183 0.073 0.183 Q 0.132 0.183 0.17200000000000001 0.111 Q 0.188 0.083 0.196 0.05 Z"/></g><g transform="translate(15.823592237435047,9.383174107142857)"><path fill="rgb(0,0,0)" stroke="none" paint-order="stroke fill markers" d=" M 0.55 -0.23 L 0.55 -0.23 L 0.124 -0.23 Q 0.134 -0.11800000000000001 0.226 -0.052000000000000005 Q 0.297 0 0.391 0 L 0.55 0 Q 0.582 0 0.583 0.02 Q 0.583 0.04 0.55 0.04 L 0.388 0.04 Q 0.262 0.04 0.17300000000000001 -0.044 Q 0.083 -0.129 0.083 -0.25 Q 0.083 -0.377 0.179 -0.462 Q 0.268 -0.54 0.387 -0.54 L 0.55 -0.54 Q 0.582 -0.54 0.583 -0.52 Q 0.583 -0.5 0.55 -0.5 L 0.39 -0.5 Q 0.273 -0.5 0.195 -0.422 Q 0.132 -0.359 0.124 -0.27 L 0.55 -0.27 Q 0.582 -0.27 0.583 -0.25 Q 0.583 -0.23 0.55 -0.23 Z"/></g><g transform="translate(16.768370015212827,9.383174107142857)"><path fill="rgb(0,0,0)" stroke="none" paint-order="stroke fill markers" d=" M 0.789 -0.7000000000000001 L 0.8 -0.7000000000000001 Q 0.808 -0.7000000000000001 0.808 -0.6920000000000001 Q 0.808 -0.6890000000000001 0.807 -0.6880000000000001 Q 0.764 -0.624 0.764 -0.495 Q 0.764 -0.457 0.768 -0.40650000000000003 Q 0.772 -0.356 0.772 -0.35000000000000003 L 0.772 -0.334 Q 0.772 -0.28 0.755 -0.217 Q 0.8280000000000001 -0.337 0.914 -0.46 Q 0.979 -0.552 1.046 -0.6185 Q 1.113 -0.685 1.195 -0.719 L 1.199 -0.719 Q 1.206 -0.719 1.206 -0.712 L 1.203 -0.6880000000000001 Q 1.203 -0.684 1.198 -0.681 Q 1.062 -0.625 0.9380000000000001 -0.45 Q 0.777 -0.221 0.665 0.004 Q 0.662 0.008 0.657 0.008 L 0.646 0.008 Q 0.644 0.008 0.643 0.007 Q 0.638 0.005 0.638 0 Q 0.638 -0.003 0.639 -0.004 Q 0.6900000000000001 -0.101 0.6900000000000001 -0.214 Q 0.6900000000000001 -0.241 0.687 -0.2895 Q 0.684 -0.338 0.683 -0.35000000000000003 L 0.687 -0.461 L 0.6910000000000001 -0.483 Q 0.6950000000000001 -0.505 0.7020000000000001 -0.535 L 0.466 -0.20500000000000002 Q 0.397 -0.111 0.316 -0.0445 Q 0.23500000000000001 0.022 0.165 0.022 Q 0.108 0.022 0.07050000000000001 0.0015 Q 0.033 -0.019 0.033 -0.057 Q 0.033 -0.08600000000000001 0.059000000000000004 -0.124 Q 0.079 -0.153 0.116 -0.153 Q 0.149 -0.153 0.149 -0.11900000000000001 Q 0.149 -0.105 0.1305 -0.0925 Q 0.112 -0.08 0.092 -0.08 Q 0.07200000000000001 -0.08 0.063 -0.095 Q 0.054 -0.076 0.054 -0.061 Q 0.054 -0.031 0.0855 -0.0155 Q 0.117 0 0.169 0 Q 0.231 0 0.3045 -0.0625 Q 0.378 -0.125 0.442 -0.215 L 0.782 -0.6970000000000001 Q 0.785 -0.7000000000000001 0.789 -0.7000000000000001 Z"/></g><g transform="translate(18.02237001521283,8.953449707142855) scale(0.7,0.7)"><path fill="rgb(0,0,0)" stroke="none" paint-order="stroke fill markers" d=" M 0.28700000000000003 -0.683 L 0.183 -0.261 Q 0.226 -0.278 0.294 -0.354 Q 0.373 -0.442 0.44 -0.442 Q 0.488 -0.442 0.504 -0.402 Q 0.508 -0.391 0.508 -0.379 Q 0.508 -0.338 0.47400000000000003 -0.322 Q 0.463 -0.318 0.453 -0.318 Q 0.422 -0.318 0.41600000000000004 -0.34500000000000003 Q 0.41500000000000004 -0.34900000000000003 0.41500000000000004 -0.353 Q 0.41500000000000004 -0.381 0.44 -0.397 L 0.441 -0.398 L 0.441 -0.398 Q 0.454 -0.406 0.47200000000000003 -0.40700000000000003 L 0.468 -0.41100000000000003 Q 0.46 -0.417 0.447 -0.419 Q 0.445 -0.42 0.438 -0.42 Q 0.385 -0.42 0.309 -0.339 Q 0.305 -0.335 0.301 -0.33 L 0.295 -0.324 Q 0.243 -0.27 0.209 -0.25 Q 0.357 -0.231 0.357 -0.145 Q 0.357 -0.131 0.353 -0.114 Q 0.34500000000000003 -0.082 0.34500000000000003 -0.058 Q 0.34500000000000003 -0.011 0.377 -0.011 Q 0.423 -0.011 0.451 -0.094 Q 0.458 -0.111 0.464 -0.135 Q 0.47200000000000003 -0.152 0.47800000000000004 -0.153 Q 0.49 -0.153 0.49 -0.14300000000000002 Q 0.49 -0.127 0.47100000000000003 -0.078 Q 0.463 -0.058 0.454 -0.042 Q 0.422 0.011 0.375 0.011 Q 0.32 0.011 0.295 -0.037 Q 0.28300000000000003 -0.06 0.28300000000000003 -0.088 Q 0.28300000000000003 -0.099 0.28700000000000003 -0.123 Q 0.29 -0.133 0.29 -0.14400000000000002 Q 0.29 -0.20700000000000002 0.2 -0.225 Q 0.187 -0.228 0.17400000000000002 -0.229 Q 0.124 -0.021 0.11800000000000001 -0.01 Q 0.108 0.009000000000000001 0.084 0.011 Q 0.06 0.011 0.056 -0.01 Q 0.055 -0.014 0.055 -0.017 Q 0.055 -0.025 0.059000000000000004 -0.039 L 0.20400000000000001 -0.615 L 0.20700000000000002 -0.635 Q 0.20700000000000002 -0.646 0.193 -0.649 L 0.193 -0.649 Q 0.181 -0.652 0.157 -0.652 Q 0.135 -0.652 0.133 -0.664 Q 0.133 -0.681 0.152 -0.684 L 0.274 -0.6940000000000001 Q 0.28700000000000003 -0.6940000000000001 0.28700000000000003 -0.683 Z"/></g><g transform="translate(18.02237001521283,9.630391107142856) scale(0.7,0.7)"><path fill="rgb(0,0,0)" stroke="none" paint-order="stroke fill markers" d=" M 0.28400000000000003 -0.625 Q 0.28400000000000003 -0.594 0.253 -0.578 Q 0.242 -0.5720000000000001 0.231 -0.5720000000000001 Q 0.201 -0.5720000000000001 0.194 -0.599 Q 0.193 -0.604 0.193 -0.608 Q 0.193 -0.636 0.221 -0.653 Q 0.234 -0.661 0.247 -0.661 Q 0.277 -0.661 0.28300000000000003 -0.634 L 0.28300000000000003 -0.633 Q 0.28400000000000003 -0.629 0.28400000000000003 -0.625 M 0.20800000000000002 -0.249 L 0.169 -0.14400000000000002 Q 0.14100000000000001 -0.063 0.14 -0.044 Q 0.14 -0.011 0.164 -0.011 Q 0.227 -0.011 0.262 -0.123 L 0.266 -0.135 Q 0.271 -0.151 0.276 -0.152 L 0.276 -0.153 L 0.281 -0.153 Q 0.293 -0.153 0.293 -0.14300000000000002 Q 0.293 -0.125 0.271 -0.079 Q 0.228 0.011 0.162 0.011 Q 0.109 0.011 0.088 -0.033 Q 0.08 -0.051000000000000004 0.08 -0.07100000000000001 Q 0.08 -0.091 0.10300000000000001 -0.151 Q 0.17300000000000001 -0.339 0.17200000000000001 -0.336 Q 0.183 -0.364 0.183 -0.388 Q 0.183 -0.42 0.158 -0.42 Q 0.10300000000000001 -0.42 0.068 -0.329 L 0.068 -0.328 Q 0.062 -0.313 0.057 -0.296 Q 0.046 -0.279 0.041 -0.278 Q 0.029 -0.278 0.029 -0.28800000000000003 Q 0.029 -0.306 0.051000000000000004 -0.35100000000000003 Q 0.094 -0.442 0.161 -0.442 Q 0.214 -0.442 0.23500000000000001 -0.397 Q 0.243 -0.38 0.243 -0.36 Q 0.243 -0.34 0.23 -0.307 Q 0.213 -0.261 0.20800000000000002 -0.249 Z"/></g><g transform="translate(18.4230023582114,9.383174107142857)"><path fill="rgb(0,0,0)" stroke="none" paint-order="stroke fill markers" d=" M 0.331 0.24 L 0.331 0.24 Q 0.331 0.25 0.321 0.25 Q 0.309 0.25 0.268 0.209 Q 0.20600000000000002 0.147 0.165 0.062 Q 0.099 -0.074 0.099 -0.25 Q 0.099 -0.419 0.162 -0.555 Q 0.214 -0.666 0.294 -0.733 Q 0.315 -0.75 0.321 -0.75 Q 0.331 -0.75 0.331 -0.74 Q 0.331 -0.735 0.318 -0.723 Q 0.157 -0.559 0.157 -0.25 Q 0.157 0.058 0.314 0.218 Q 0.331 0.23500000000000001 0.331 0.24 Z"/></g><g transform="translate(18.812002358211398,9.383174107142857)"><path fill="rgb(0,0,0)" stroke="none" paint-order="stroke fill markers" d=" M 0.20600000000000002 -0.4 L 0.132 -0.105 Q 0.126 -0.08 0.126 -0.057 Q 0.126 -0.011 0.157 -0.011 Q 0.223 -0.011 0.273 -0.108 L 0.28700000000000003 -0.139 Q 0.293 -0.152 0.302 -0.153 Q 0.314 -0.153 0.314 -0.14300000000000002 Q 0.314 -0.13 0.28800000000000003 -0.08600000000000001 Q 0.23 0.011 0.155 0.011 Q 0.097 0.011 0.073 -0.037 Q 0.063 -0.057 0.063 -0.081 Q 0.063 -0.1 0.124 -0.34 L 0.139 -0.4 L 0.051000000000000004 -0.4 Q 0.026000000000000002 -0.4 0.024 -0.40800000000000003 L 0.023 -0.40800000000000003 L 0.023 -0.41200000000000003 Q 0.023 -0.429 0.039 -0.431 L 0.053 -0.431 L 0.147 -0.431 L 0.186 -0.59 Q 0.195 -0.625 0.226 -0.626 Q 0.252 -0.626 0.255 -0.599 Q 0.255 -0.593 0.214 -0.431 L 0.302 -0.431 Q 0.328 -0.431 0.33 -0.42 Q 0.33 -0.402 0.314 -0.4 L 0.313 -0.4 L 0.3 -0.4 L 0.20600000000000002 -0.4 Z"/></g><g transform="translate(19.1730023582114,9.383174107142857)"><path fill="rgb(0,0,0)" stroke="none" paint-order="stroke fill markers" d=" M 0.289 -0.25 L 0.289 -0.25 Q 0.289 -0.081 0.226 0.055 Q 0.17400000000000002 0.166 0.094 0.233 Q 0.073 0.25 0.067 0.25 Q 0.057 0.25 0.057 0.24 Q 0.057 0.23500000000000001 0.07 0.223 Q 0.231 0.059000000000000004 0.231 -0.25 Q 0.231 -0.555 0.081 -0.712 L 0.076 -0.717 Q 0.057 -0.735 0.057 -0.74 Q 0.057 -0.75 0.067 -0.75 Q 0.079 -0.75 0.12 -0.709 Q 0.182 -0.647 0.223 -0.562 Q 0.289 -0.426 0.289 -0.25 Z"/></g><g transform="translate(6.428902184268413,11.654125107142857)"><path fill="rgb(0,0,0)" stroke="none" paint-order="stroke fill markers" d=" M 0.46 -0.32 Q 0.46 -0.17400000000000002 0.423 -0.094 Q 0.364 0.018000000000000002 0.249 0.022 Q 0.158 0.022 0.10300000000000001 -0.05 Q 0.092 -0.063 0.084 -0.079 Q 0.039 -0.162 0.039 -0.32 Q 0.039 -0.467 0.076 -0.547 Q 0.126 -0.659 0.23800000000000002 -0.666 L 0.25 -0.666 Q 0.339 -0.666 0.395 -0.595 L 0.395 -0.594 Q 0.40900000000000003 -0.5760000000000001 0.42 -0.554 Q 0.46 -0.46900000000000003 0.46 -0.32 M 0.249 0 L 0.249 0 Q 0.312 0 0.34600000000000003 -0.061 Q 0.36 -0.088 0.366 -0.125 Q 0.377 -0.189 0.377 -0.332 Q 0.377 -0.47100000000000003 0.367 -0.527 Q 0.34900000000000003 -0.622 0.275 -0.641 Q 0.262 -0.644 0.249 -0.644 Q 0.179 -0.644 0.147 -0.5740000000000001 Q 0.136 -0.55 0.13 -0.516 Q 0.122 -0.462 0.122 -0.332 Q 0.122 -0.181 0.133 -0.121 Q 0.151 -0.025 0.221 -0.004 Q 0.23500000000000001 0 0.249 0 Z"/></g><g transform="translate(14.15981445965727,11.654125107142857)"><path fill="rgb(0,0,0)" stroke="none" paint-order="stroke fill markers" d=" M 0.47100000000000003 -0.214 L 0.47100000000000003 -0.214 Q 0.47100000000000003 -0.111 0.395 -0.044 Q 0.332 0.011 0.249 0.011 Q 0.153 0.011 0.08700000000000001 -0.061 Q 0.028 -0.126 0.028 -0.214 Q 0.028 -0.316 0.101 -0.386 Q 0.164 -0.448 0.25 -0.448 Q 0.34700000000000003 -0.448 0.41300000000000003 -0.371 Q 0.47100000000000003 -0.304 0.47100000000000003 -0.214 M 0.25 -0.014 L 0.25 -0.014 Q 0.317 -0.014 0.356 -0.07 L 0.366 -0.088 Q 0.388 -0.132 0.388 -0.222 Q 0.388 -0.318 0.362 -0.361 Q 0.319 -0.423 0.249 -0.426 Q 0.187 -0.426 0.147 -0.376 Q 0.14 -0.368 0.135 -0.359 Q 0.111 -0.315 0.111 -0.222 Q 0.111 -0.125 0.136 -0.081 Q 0.178 -0.016 0.25 -0.014 Z"/></g><g transform="translate(14.65981445965727,11.654125107142857)"><path fill="rgb(0,0,0)" stroke="none" paint-order="stroke fill markers" d=" M 0.17300000000000001 -0.4 L 0.17300000000000001 -0.4 L 0.17300000000000001 -0.122 Q 0.17300000000000001 -0.022 0.231 -0.015 Q 0.23500000000000001 -0.014 0.24 -0.014 Q 0.28300000000000003 -0.014 0.3 -0.07 Q 0.307 -0.094 0.307 -0.126 L 0.307 -0.181 L 0.332 -0.181 L 0.332 -0.124 Q 0.332 -0.042 0.28600000000000003 -0.006 Q 0.264 0.011 0.233 0.011 Q 0.149 0.011 0.11800000000000001 -0.052000000000000005 Q 0.10400000000000001 -0.082 0.10400000000000001 -0.124 L 0.10400000000000001 -0.4 L 0.019 -0.4 L 0.019 -0.422 Q 0.108 -0.426 0.137 -0.534 Q 0.147 -0.5720000000000001 0.148 -0.615 L 0.17300000000000001 -0.615 L 0.17300000000000001 -0.431 L 0.316 -0.431 L 0.316 -0.4 L 0.17300000000000001 -0.4 Z"/></g><g transform="translate(15.048814459657269,11.654125107142857)"><path fill="rgb(0,0,0)" stroke="none" paint-order="stroke fill markers" d=" M 0.457 -0.252 L 0.457 -0.061 Q 0.458 -0.037 0.486 -0.033 Q 0.498 -0.031 0.535 -0.031 L 0.535 0 Q 0.433 -0.003 0.423 -0.003 Q 0.41500000000000004 -0.003 0.31 0 L 0.31 -0.031 Q 0.369 -0.031 0.379 -0.04 L 0.381 -0.042 Q 0.388 -0.05 0.388 -0.076 L 0.388 -0.309 Q 0.388 -0.40800000000000003 0.331 -0.418 Q 0.323 -0.42 0.314 -0.42 Q 0.253 -0.42 0.212 -0.367 Q 0.179 -0.324 0.179 -0.26 L 0.179 -0.076 Q 0.179 -0.042 0.195 -0.036000000000000004 Q 0.20600000000000002 -0.031 0.257 -0.031 L 0.257 0 Q 0.155 -0.003 0.145 -0.003 Q 0.137 -0.003 0.032 0 L 0.032 -0.031 Q 0.091 -0.031 0.101 -0.04 L 0.10300000000000001 -0.042 Q 0.11 -0.05 0.11 -0.076 L 0.11 -0.596 Q 0.11 -0.635 0.096 -0.644 L 0.095 -0.644 Q 0.084 -0.65 0.057 -0.652 L 0.032 -0.652 L 0.032 -0.683 L 0.176 -0.6940000000000001 L 0.176 -0.34600000000000003 L 0.177 -0.34600000000000003 Q 0.20400000000000001 -0.40700000000000003 0.263 -0.431 Q 0.294 -0.441 0.321 -0.442 Q 0.396 -0.442 0.426 -0.405 Q 0.453 -0.374 0.456 -0.32 Q 0.457 -0.301 0.457 -0.252 Z"/></g><g transform="translate(15.60481445965727,11.654125107142857)"><path fill="rgb(0,0,0)" stroke="none" paint-order="stroke fill markers" d=" M 0.39 -0.231 L 0.39 -0.231 L 0.111 -0.231 Q 0.111 -0.129 0.14100000000000001 -0.081 Q 0.189 -0.019 0.254 -0.014 Q 0.323 -0.014 0.365 -0.07 Q 0.38 -0.09 0.389 -0.117 Q 0.392 -0.131 0.402 -0.131 Q 0.41500000000000004 -0.131 0.41500000000000004 -0.11900000000000001 Q 0.41500000000000004 -0.097 0.387 -0.059000000000000004 Q 0.34600000000000003 -0.003 0.279 0.008 Q 0.264 0.011 0.248 0.011 Q 0.154 0.011 0.088 -0.061 Q 0.028 -0.127 0.028 -0.22 Q 0.028 -0.324 0.1 -0.392 Q 0.158 -0.448 0.23600000000000002 -0.448 Q 0.34900000000000003 -0.448 0.394 -0.352 Q 0.41500000000000004 -0.307 0.41500000000000004 -0.252 Q 0.41500000000000004 -0.23500000000000001 0.40800000000000003 -0.232 Q 0.405 -0.231 0.39 -0.231 M 0.112 -0.252 L 0.112 -0.252 L 0.34900000000000003 -0.252 Q 0.34900000000000003 -0.34700000000000003 0.307 -0.395 Q 0.279 -0.426 0.23600000000000002 -0.426 Q 0.185 -0.426 0.15 -0.379 Q 0.115 -0.334 0.112 -0.252 Z"/></g><g transform="translate(16.04881445965727,11.654125107142857)"><path fill="rgb(0,0,0)" stroke="none" paint-order="stroke fill markers" d=" M 0.17200000000000001 -0.078 Q 0.17200000000000001 -0.047 0.184 -0.04 L 0.184 -0.04 L 0.185 -0.039 Q 0.199 -0.031 0.248 -0.031 L 0.269 -0.031 L 0.269 0 Q 0.229 -0.003 0.14200000000000002 -0.003 Q 0.145 -0.003 0.028 0 L 0.028 -0.031 Q 0.08700000000000001 -0.031 0.097 -0.04 L 0.099 -0.042 Q 0.106 -0.05 0.106 -0.076 L 0.106 -0.34400000000000003 Q 0.106 -0.383 0.091 -0.392 Q 0.079 -0.399 0.048 -0.4 L 0.028 -0.4 L 0.028 -0.431 L 0.167 -0.442 L 0.167 -0.332 Q 0.194 -0.41600000000000004 0.256 -0.437 Q 0.272 -0.442 0.29 -0.442 Q 0.337 -0.442 0.357 -0.40700000000000003 Q 0.364 -0.395 0.364 -0.381 Q 0.364 -0.34600000000000003 0.331 -0.338 Q 0.326 -0.337 0.321 -0.337 Q 0.29 -0.337 0.281 -0.364 Q 0.278 -0.371 0.278 -0.38 Q 0.278 -0.40700000000000003 0.301 -0.419 Q 0.299 -0.42 0.29 -0.42 Q 0.223 -0.42 0.191 -0.338 Q 0.17200000000000001 -0.291 0.17200000000000001 -0.232 L 0.17200000000000001 -0.078 Z"/></g><g transform="translate(16.44081445965727,11.654125107142857)"><path fill="rgb(0,0,0)" stroke="none" paint-order="stroke fill markers" d=" M 0.619 -0.336 L 0.619 -0.336 L 0.502 -0.008 Q 0.495 0.009000000000000001 0.482 0.011 Q 0.46900000000000003 0.011 0.462 -0.008 L 0.36 -0.292 L 0.259 -0.009000000000000001 Q 0.253 0.008 0.246 0.01 L 0.245 0.01 Q 0.242 0.011 0.23900000000000002 0.011 Q 0.226 0.011 0.22 -0.006 Q 0.219 -0.007 0.218 -0.011 L 0.092 -0.365 Q 0.082 -0.392 0.063 -0.397 Q 0.05 -0.4 0.018000000000000002 -0.4 L 0.018000000000000002 -0.431 Q 0.07200000000000001 -0.428 0.111 -0.428 Q 0.13 -0.428 0.22 -0.431 L 0.22 -0.4 Q 0.161 -0.4 0.161 -0.373 Q 0.161 -0.367 0.166 -0.355 L 0.261 -0.088 L 0.34700000000000003 -0.33 Q 0.329 -0.379 0.324 -0.385 Q 0.306 -0.4 0.261 -0.4 L 0.261 -0.431 Q 0.306 -0.428 0.35000000000000003 -0.428 Q 0.367 -0.428 0.454 -0.431 L 0.454 -0.4 Q 0.395 -0.4 0.395 -0.373 Q 0.395 -0.369 0.4 -0.354 L 0.499 -0.075 L 0.59 -0.331 Q 0.595 -0.34400000000000003 0.595 -0.352 Q 0.595 -0.391 0.551 -0.399 L 0.551 -0.399 Q 0.544 -0.4 0.537 -0.4 L 0.537 -0.431 Q 0.594 -0.428 0.63 -0.428 Q 0.67 -0.428 0.7030000000000001 -0.431 L 0.7030000000000001 -0.4 Q 0.641 -0.398 0.619 -0.336 Z"/></g><g transform="translate(17.16281445965727,11.654125107142857)"><path fill="rgb(0,0,0)" stroke="none" paint-order="stroke fill markers" d=" M 0.177 -0.442 L 0.177 -0.442 L 0.177 -0.075 Q 0.177 -0.044 0.189 -0.037 L 0.189 -0.037 Q 0.201 -0.031 0.247 -0.031 L 0.247 0 Q 0.145 -0.003 0.14300000000000002 -0.003 Q 0.129 -0.003 0.033 0 L 0.033 -0.031 Q 0.092 -0.031 0.10200000000000001 -0.04 L 0.10400000000000001 -0.042 Q 0.111 -0.05 0.111 -0.076 L 0.111 -0.34500000000000003 Q 0.111 -0.385 0.095 -0.393 L 0.094 -0.393 L 0.094 -0.393 L 0.093 -0.394 L 0.093 -0.394 Q 0.08 -0.4 0.037 -0.4 L 0.037 -0.431 L 0.177 -0.442 M 0.181 -0.616 Q 0.181 -0.579 0.148 -0.5670000000000001 Q 0.138 -0.5630000000000001 0.128 -0.5630000000000001 Q 0.093 -0.5630000000000001 0.079 -0.595 L 0.079 -0.596 Q 0.075 -0.606 0.075 -0.616 Q 0.075 -0.647 0.10300000000000001 -0.662 Q 0.114 -0.669 0.128 -0.669 Q 0.162 -0.669 0.176 -0.639 Q 0.181 -0.628 0.181 -0.616 Z"/></g><g transform="translate(17.44081445965727,11.654125107142857)"><path fill="rgb(0,0,0)" stroke="none" paint-order="stroke fill markers" d=" M 0.20800000000000002 -0.194 L 0.20800000000000002 -0.194 Q 0.122 -0.211 0.095 -0.227 Q 0.085 -0.232 0.076 -0.24 Q 0.033 -0.275 0.033 -0.325 Q 0.033 -0.395 0.095 -0.427 Q 0.134 -0.448 0.193 -0.448 Q 0.249 -0.448 0.28700000000000003 -0.42 Q 0.298 -0.429 0.304 -0.436 Q 0.317 -0.448 0.324 -0.448 Q 0.334 -0.439 0.335 -0.424 L 0.335 -0.323 Q 0.335 -0.302 0.329 -0.3 L 0.328 -0.3 L 0.327 -0.299 L 0.322 -0.299 Q 0.311 -0.299 0.31 -0.308 Q 0.303 -0.40900000000000003 0.227 -0.426 Q 0.211 -0.429 0.193 -0.429 Q 0.099 -0.429 0.083 -0.371 Q 0.081 -0.362 0.081 -0.353 Q 0.081 -0.302 0.158 -0.281 Q 0.17300000000000001 -0.277 0.20400000000000001 -0.271 Q 0.276 -0.257 0.307 -0.232 Q 0.313 -0.228 0.318 -0.223 Q 0.36 -0.181 0.36 -0.128 Q 0.36 -0.043000000000000003 0.29 -0.008 Q 0.252 0.011 0.199 0.011 Q 0.134 0.011 0.089 -0.032 L 0.069 -0.009000000000000001 Q 0.049 0.011 0.044 0.011 Q 0.034 0.002 0.033 -0.013000000000000001 L 0.033 -0.145 Q 0.033 -0.167 0.04 -0.169 L 0.04 -0.169 L 0.041 -0.17 L 0.046 -0.17 Q 0.056 -0.17 0.059000000000000004 -0.159 Q 0.059000000000000004 -0.157 0.06 -0.153 Q 0.08600000000000001 -0.037 0.159 -0.016 Q 0.177 -0.011 0.199 -0.011 Q 0.289 -0.011 0.308 -0.074 Q 0.312 -0.08700000000000001 0.312 -0.10200000000000001 Q 0.312 -0.17500000000000002 0.20800000000000002 -0.194 Z"/></g><g transform="translate(17.834814459657267,11.654125107142857)"><path fill="rgb(0,0,0)" stroke="none" paint-order="stroke fill markers" d=" M 0.39 -0.231 L 0.39 -0.231 L 0.111 -0.231 Q 0.111 -0.129 0.14100000000000001 -0.081 Q 0.189 -0.019 0.254 -0.014 Q 0.323 -0.014 0.365 -0.07 Q 0.38 -0.09 0.389 -0.117 Q 0.392 -0.131 0.402 -0.131 Q 0.41500000000000004 -0.131 0.41500000000000004 -0.11900000000000001 Q 0.41500000000000004 -0.097 0.387 -0.059000000000000004 Q 0.34600000000000003 -0.003 0.279 0.008 Q 0.264 0.011 0.248 0.011 Q 0.154 0.011 0.088 -0.061 Q 0.028 -0.127 0.028 -0.22 Q 0.028 -0.324 0.1 -0.392 Q 0.158 -0.448 0.23600000000000002 -0.448 Q 0.34900000000000003 -0.448 0.394 -0.352 Q 0.41500000000000004 -0.307 0.41500000000000004 -0.252 Q 0.41500000000000004 -0.23500000000000001 0.40800000000000003 -0.232 Q 0.405 -0.231 0.39 -0.231 M 0.112 -0.252 L 0.112 -0.252 L 0.34900000000000003 -0.252 Q 0.34900000000000003 -0.34700000000000003 0.307 -0.395 Q 0.279 -0.426 0.23600000000000002 -0.426 Q 0.185 -0.426 0.15 -0.379 Q 0.115 -0.334 0.112 -0.252 Z"/></g></g><path fill="rgb(255,255,255)" stroke="none" paint-order="stroke fill markers" fill-rule="evenodd" d=" M 37.5 109 L 166.5 109 C 168.43299662440776 109 170 110.56700337559222 170 112.5 L 170 140.5 C 170 142.43299662440776 168.43299662440776 144 166.5 144 L 37.5 144 C 35.56700337559222 144 34 142.43299662440776 34 140.5 L 34 112.5 C 34 110.56700337559222 35.56700337559222 109 37.5 109 Z" fill-opacity="1"/><path fill="none" stroke="rgb(179,179,179)" paint-order="fill stroke markers" d=" M 37.5 109 L 166.5 109 C 168.43299662440776 109 170 110.56700337559222 170 112.5 L 170 140.5 C 170 142.43299662440776 168.43299662440776 144 166.5 144 L 37.5 144 C 35.56700337559222 144 34 142.43299662440776 34 140.5 L 34 112.5 C 34 110.56700337559222 35.56700337559222 109 37.5 109 Z" stroke-opacity="1" stroke-linecap="round" stroke-linejoin="round" stroke-miterlimit="10"/><text fill="rgb(0,0,0)" stroke="none" font-family="geogebra-sans-serif, sans-serif" font-size="24px" font-style="normal" font-weight="normal" text-decoration="normal" x="44" y="136" text-anchor="start" dominant-baseline="alphabetic" fill-opacity="1">Show SVG</text><path fill="rgb(255,255,255)" stroke="none" paint-order="stroke fill markers" fill-rule="evenodd" d=" M 204.5 106 L 380.5 106 C 382.4329966244078 106 384 107.56700337559222 384 109.5 L 384 137.5 C 384 139.43299662440776 382.4329966244078 141 380.5 141 L 204.5 141 C 202.56700337559224 141 201 139.43299662440776 201 137.5 L 201 109.5 C 201 107.56700337559222 202.56700337559224 106 204.5 106 Z" fill-opacity="1"/><path fill="none" stroke="rgb(179,179,179)" paint-order="fill stroke markers" d=" M 204.5 106 L 380.5 106 C 382.4329966244078 106 384 107.56700337559222 384 109.5 L 384 137.5 C 384 139.43299662440776 382.4329966244078 141 380.5 141 L 204.5 141 C 202.56700337559224 141 201 139.43299662440776 201 137.5 L 201 109.5 C 201 107.56700337559222 202.56700337559224 106 204.5 106 Z" stroke-opacity="1" stroke-linecap="round" stroke-linejoin="round" stroke-miterlimit="10"/><text fill="rgb(0,0,0)" stroke="none" font-family="geogebra-sans-serif, sans-serif" font-size="24px" font-style="normal" font-weight="normal" text-decoration="normal" x="211" y="133" text-anchor="start" dominant-baseline="alphabetic" fill-opacity="1">Download SVG</text><path fill="rgb(255,255,255)" stroke="none" paint-order="stroke fill markers" fill-rule="evenodd" d=" M 212 30 L 722 30 C 724.2091389993232 30 726 31.790861000676827 726 34 L 726 75 C 726 77.20913899932317 724.2091389993232 79 722 79 L 212 79 C 209.7908610006768 79 208 77.20913899932317 208 75 L 208 34 C 208 31.790861000676827 209.7908610006768 30 212 30 Z" fill-opacity="1"/><path fill="none" stroke="rgb(148,148,148)" paint-order="fill stroke markers" d=" M 212 30 L 722 30 C 724.2091389993232 30 726 31.790861000676827 726 34 L 726 75 C 726 77.20913899932317 724.2091389993232 79 722 79 L 212 79 C 209.7908610006768 79 208 77.20913899932317 208 75 L 208 34 C 208 31.790861000676827 209.7908610006768 30 212 30 Z" stroke-opacity="1" stroke-linecap="round" stroke-linejoin="round" stroke-miterlimit="10"/><text fill="rgb(0,0,0)" stroke="none" font-family="geogebra-sans-serif, sans-serif" font-size="32px" font-style="normal" font-weight="normal" text-decoration="normal" x="210" y="66" text-anchor="start" dominant-baseline="alphabetic" fill-opacity="1">${\color{DarkOrange} P^k</text><text fill="rgb(0,0,0)" stroke="none" font-family="geogebra-sans-serif, sans-serif" font-size="28px" font-style="normal" font-weight="normal" text-decoration="normal" x="574" y="80" text-anchor="start" dominant-baseline="alphabetic" fill-opacity="1">i,j</text><text fill="rgb(0,0,0)" stroke="none" font-family="geogebra-sans-serif, sans-serif" font-size="32px" font-style="normal" font-weight="normal" text-decoration="normal" x="594" y="66" text-anchor="start" dominant-baseline="alphabetic" fill-opacity="1">=\begi</text><text fill="rgb(0,0,0)" stroke="none" font-family="geogebra-sans-serif, sans-serif" font-size="32px" font-style="normal" font-weight="normal" text-decoration="normal" x="30" y="66" text-anchor="start" dominant-baseline="alphabetic" fill-opacity="1">Enter LaTeX</text></g></g></g></g></svg>