<svg version="1.1" xmlns="http://www.w3.org/2000/svg" xmlns:xlink="http://www.w3.org/1999/xlink" width="108" height="56"><defs><clipPath id="QJhXNWFatpWR"><path fill="none" stroke="none" d=" M 0 0 L 108 0 L 108 56 L 0 56 L 0 0 Z"/></clipPath></defs><g transform="scale(1,1)" clip-path="url(#QJhXNWFatpWR)"><g transform="translate(-12,-181)"><path fill="rgb(101,87,210)" stroke="none" paint-order="stroke fill markers" fill-rule="evenodd" d=" M 450 115 L 472 115 C 473.1045694996616 115 474 115.8954305003384 474 117 L 474 139 C 474 140.10456949966158 473.1045694996616 141 472 141 L 450 141 C 448.8954305003384 141 448 140.10456949966158 448 139 L 448 117 C 448 115.8954305003384 448.8954305003384 115 450 115 Z" fill-opacity="1"/><g transform="translate(448,115)"><path fill="none" stroke="rgb(255,255,255)" paint-order="fill stroke markers" d=" M 4.44 13.76 L 9.75 19.07 L 21.99 6.83" stroke-opacity="1" stroke-linecap="square" stroke-miterlimit="10" stroke-width="2.6"/><g transform="translate(-448,-115)"><text fill="rgb(0,0,0)" stroke="none" font-family="geogebra-sans-serif, sans-serif" font-size="32px" font-style="normal" font-weight="normal" text-decoration="normal" x="483" y="140" text-anchor="start" dominant-baseline="alphabetic" fill-opacity="1">Serif</text><g transform="scale(35,35)"><g transform="translate(0.6285714285714286,6.179714285714286)"><path fill="rgb(0,0,0)" stroke="none" paint-order="stroke fill markers" d=" M 0.028 0.169 L 0.18 -0.437 Q 0.209 -0.551 0.292 -0.631 Q 0.37 -0.705 0.456 -0.705 Q 0.539 -0.705 0.5750000000000001 -0.639 Q 0.59 -0.611 0.59 -0.577 Q 0.59 -0.502 0.528 -0.439 Q 0.507 -0.418 0.482 -0.403 Q 0.549 -0.357 0.549 -0.264 Q 0.549 -0.161 0.46900000000000003 -0.076 Q 0.392 0.005 0.296 0.012 L 0.28300000000000003 0.012 Q 0.186 0.012 0.14100000000000001 -0.063 Q 0.129 -0.083 0.123 -0.105 L 0.048 0.188 L 0.047 0.19 Q 0.043000000000000003 0.194 0.037 0.194 Q 0.025 0.194 0.025 0.184 Q 0.025 0.181 0.028 0.169 M 0.328 -0.401 Q 0.34500000000000003 -0.395 0.371 -0.395 Q 0.401 -0.395 0.419 -0.403 Q 0.406 -0.40900000000000003 0.379 -0.40900000000000003 Q 0.34400000000000003 -0.40900000000000003 0.328 -0.401 M 0.45 -0.421 Q 0.511 -0.467 0.525 -0.577 L 0.525 -0.578 L 0.525 -0.58 Q 0.527 -0.594 0.527 -0.602 Q 0.527 -0.673 0.46900000000000003 -0.682 Q 0.462 -0.683 0.455 -0.683 Q 0.372 -0.683 0.299 -0.606 Q 0.23 -0.534 0.2 -0.41600000000000004 L 0.154 -0.231 Q 0.14100000000000001 -0.179 0.14100000000000001 -0.156 Q 0.14100000000000001 -0.074 0.2 -0.034 Q 0.234 -0.01 0.281 -0.01 Q 0.359 -0.01 0.41500000000000004 -0.094 Q 0.422 -0.10300000000000001 0.427 -0.113 Q 0.462 -0.179 0.47400000000000003 -0.274 Q 0.47600000000000003 -0.291 0.47600000000000003 -0.302 Q 0.47600000000000003 -0.355 0.446 -0.386 Q 0.41400000000000003 -0.373 0.371 -0.373 Q 0.303 -0.373 0.303 -0.399 Q 0.303 -0.431 0.381 -0.431 Q 0.422 -0.431 0.45 -0.421 Z"/></g><g transform="translate(1.5253492063492065,6.179714285714286)"><path fill="rgb(0,0,0)" stroke="none" paint-order="stroke fill markers" d=" M 0.675 -0.228 L 0.121 0.033 Q 0.108 0.04 0.10300000000000001 0.04 Q 0.08700000000000001 0.04 0.084 0.025 Q 0.083 0.022 0.083 0.02 Q 0.083 0.008 0.10200000000000001 -0.002 L 0.627 -0.25 L 0.10200000000000001 -0.498 Q 0.083 -0.508 0.083 -0.52 Q 0.083 -0.536 0.098 -0.539 Q 0.101 -0.54 0.10300000000000001 -0.54 Q 0.108 -0.54 0.121 -0.533 L 0.675 -0.272 Q 0.6940000000000001 -0.263 0.6940000000000001 -0.25 Q 0.6940000000000001 -0.23700000000000002 0.675 -0.228 Z"/></g><g transform="translate(2.581126984126984,6.179714285714286)"><path fill="rgb(0,0,0)" stroke="none" paint-order="stroke fill markers" d=" M 0.46 -0.32 Q 0.46 -0.17400000000000002 0.423 -0.094 Q 0.364 0.018000000000000002 0.249 0.022 Q 0.158 0.022 0.10300000000000001 -0.05 Q 0.092 -0.063 0.084 -0.079 Q 0.039 -0.162 0.039 -0.32 Q 0.039 -0.467 0.076 -0.547 Q 0.126 -0.659 0.23800000000000002 -0.666 L 0.25 -0.666 Q 0.339 -0.666 0.395 -0.595 L 0.395 -0.594 Q 0.40900000000000003 -0.5760000000000001 0.42 -0.554 Q 0.46 -0.46900000000000003 0.46 -0.32 M 0.249 0 L 0.249 0 Q 0.312 0 0.34600000000000003 -0.061 Q 0.36 -0.088 0.366 -0.125 Q 0.377 -0.189 0.377 -0.332 Q 0.377 -0.47100000000000003 0.367 -0.527 Q 0.34900000000000003 -0.622 0.275 -0.641 Q 0.262 -0.644 0.249 -0.644 Q 0.179 -0.644 0.147 -0.5740000000000001 Q 0.136 -0.55 0.13 -0.516 Q 0.122 -0.462 0.122 -0.332 Q 0.122 -0.181 0.133 -0.121 Q 0.151 -0.025 0.221 -0.004 Q 0.23500000000000001 0 0.249 0 Z"/></g></g><path fill="rgb(255,255,255)" stroke="none" paint-order="stroke fill markers" fill-rule="evenodd" d=" M 37.5 109 L 166.5 109 C 168.43299662440776 109 170 110.56700337559222 170 112.5 L 170 140.5 C 170 142.43299662440776 168.43299662440776 144 166.5 144 L 37.5 144 C 35.56700337559222 144 34 142.43299662440776 34 140.5 L 34 112.5 C 34 110.56700337559222 35.56700337559222 109 37.5 109 Z" fill-opacity="1"/><path fill="none" stroke="rgb(179,179,179)" paint-order="fill stroke markers" d=" M 37.5 109 L 166.5 109 C 168.43299662440776 109 170 110.56700337559222 170 112.5 L 170 140.5 C 170 142.43299662440776 168.43299662440776 144 166.5 144 L 37.5 144 C 35.56700337559222 144 34 142.43299662440776 34 140.5 L 34 112.5 C 34 110.56700337559222 35.56700337559222 109 37.5 109 Z" stroke-opacity="1" stroke-linecap="round" stroke-linejoin="round" stroke-miterlimit="10"/><text fill="rgb(0,0,0)" stroke="none" font-family="geogebra-sans-serif, sans-serif" font-size="24px" font-style="normal" font-weight="normal" text-decoration="normal" x="44" y="136" text-anchor="start" dominant-baseline="alphabetic" fill-opacity="1">Show SVG</text><path fill="rgb(255,255,255)" stroke="none" paint-order="stroke fill markers" fill-rule="evenodd" d=" M 204.5 106 L 380.5 106 C 382.4329966244078 106 384 107.56700337559222 384 109.5 L 384 137.5 C 384 139.43299662440776 382.4329966244078 141 380.5 141 L 204.5 141 C 202.56700337559224 141 201 139.43299662440776 201 137.5 L 201 109.5 C 201 107.56700337559222 202.56700337559224 106 204.5 106 Z" fill-opacity="1"/><path fill="none" stroke="rgb(179,179,179)" paint-order="fill stroke markers" d=" M 204.5 106 L 380.5 106 C 382.4329966244078 106 384 107.56700337559222 384 109.5 L 384 137.5 C 384 139.43299662440776 382.4329966244078 141 380.5 141 L 204.5 141 C 202.56700337559224 141 201 139.43299662440776 201 137.5 L 201 109.5 C 201 107.56700337559222 202.56700337559224 106 204.5 106 Z" stroke-opacity="1" stroke-linecap="round" stroke-linejoin="round" stroke-miterlimit="10"/><text fill="rgb(0,0,0)" stroke="none" font-family="geogebra-sans-serif, sans-serif" font-size="24px" font-style="normal" font-weight="normal" text-decoration="normal" x="211" y="133" text-anchor="start" dominant-baseline="alphabetic" fill-opacity="1">Download SVG</text><path fill="rgb(255,255,255)" stroke="none" paint-order="stroke fill markers" fill-rule="evenodd" d=" M 212 30 L 722 30 C 724.2091389993232 30 726 31.790861000676827 726 34 L 726 75 C 726 77.20913899932317 724.2091389993232 79 722 79 L 212 79 C 209.7908610006768 79 208 77.20913899932317 208 75 L 208 34 C 208 31.790861000676827 209.7908610006768 30 212 30 Z" fill-opacity="1"/><path fill="none" stroke="rgb(148,148,148)" paint-order="fill stroke markers" d=" M 212 30 L 722 30 C 724.2091389993232 30 726 31.790861000676827 726 34 L 726 75 C 726 77.20913899932317 724.2091389993232 79 722 79 L 212 79 C 209.7908610006768 79 208 77.20913899932317 208 75 L 208 34 C 208 31.790861000676827 209.7908610006768 30 212 30 Z" stroke-opacity="1" stroke-linecap="round" stroke-linejoin="round" stroke-miterlimit="10"/><text fill="rgb(0,0,0)" stroke="none" font-family="geogebra-sans-serif, sans-serif" font-size="32px" font-style="normal" font-weight="normal" text-decoration="normal" x="210" y="66" text-anchor="start" dominant-baseline="alphabetic" fill-opacity="1">${\color{DarkOrange} \beta &gt; 0}$</text><text fill="rgb(0,0,0)" stroke="none" font-family="geogebra-sans-serif, sans-serif" font-size="32px" font-style="normal" font-weight="normal" text-decoration="normal" x="30" y="66" text-anchor="start" dominant-baseline="alphabetic" fill-opacity="1">Enter LaTeX</text></g></g></g></g></svg>