<svg version="1.1" xmlns="http://www.w3.org/2000/svg" xmlns:xlink="http://www.w3.org/1999/xlink" width="52" height="56"><defs><clipPath id="zgTIQLCGiiLo"><path fill="none" stroke="none" d=" M 0 0 L 52 0 L 52 56 L 0 56 L 0 0 Z"/></clipPath></defs><g transform="scale(1,1)" clip-path="url(#zgTIQLCGiiLo)"><g transform="translate(-12,-181)"><path fill="rgb(101,87,210)" stroke="none" paint-order="stroke fill markers" fill-rule="evenodd" d=" M 450 115 L 472 115 C 473.1045694996616 115 474 115.8954305003384 474 117 L 474 139 C 474 140.10456949966158 473.1045694996616 141 472 141 L 450 141 C 448.8954305003384 141 448 140.10456949966158 448 139 L 448 117 C 448 115.8954305003384 448.8954305003384 115 450 115 Z" fill-opacity="1"/><g transform="translate(448,115)"><path fill="none" stroke="rgb(255,255,255)" paint-order="fill stroke markers" d=" M 4.44 13.76 L 9.75 19.07 L 21.99 6.83" stroke-opacity="1" stroke-linecap="square" stroke-miterlimit="10" stroke-width="2.6"/><g transform="translate(-448,-115)"><text fill="rgb(0,0,0)" stroke="none" font-family="geogebra-sans-serif, sans-serif" font-size="32px" font-style="normal" font-weight="normal" text-decoration="normal" x="483" y="140" text-anchor="start" dominant-baseline="alphabetic" fill-opacity="1">Serif</text><g transform="scale(35,35)"><g transform="translate(0.6285714285714286,6.2829999999999995)"><path fill="rgb(0,0,0)" stroke="none" paint-order="stroke fill markers" d=" M 0.159 -0.078 L 0.159 -0.078 L 0.293 -0.615 Q 0.297 -0.631 0.297 -0.634 Q 0.297 -0.646 0.281 -0.649 L 0.28 -0.649 L 0.28 -0.649 Q 0.278 -0.65 0.275 -0.65 Q 0.251 -0.652 0.232 -0.652 Q 0.20600000000000002 -0.652 0.20400000000000001 -0.66 Q 0.203 -0.662 0.203 -0.664 Q 0.203 -0.681 0.22 -0.683 L 0.22 -0.683 L 0.233 -0.683 L 0.5690000000000001 -0.683 Q 0.6990000000000001 -0.683 0.763 -0.582 Q 0.804 -0.518 0.804 -0.43 Q 0.804 -0.28500000000000003 0.7030000000000001 -0.159 Q 0.607 -0.042 0.47700000000000004 -0.01 Q 0.438 0 0.399 0 L 0.068 0 Q 0.043000000000000003 0 0.041 -0.008 Q 0.04 -0.009000000000000001 0.04 -0.012 Q 0.04 -0.029 0.056 -0.031 L 0.068 -0.031 Q 0.133 -0.031 0.146 -0.045 Q 0.152 -0.052000000000000005 0.158 -0.073 Q 0.158 -0.074 0.159 -0.078 M 0.375 -0.614 L 0.23800000000000002 -0.065 Q 0.233 -0.047 0.233 -0.042 Q 0.233 -0.034 0.242 -0.032 L 0.242 -0.032 L 0.242 -0.032 L 0.246 -0.032 Q 0.252 -0.031 0.268 -0.031 L 0.381 -0.031 Q 0.505 -0.031 0.595 -0.124 Q 0.604 -0.134 0.612 -0.14400000000000002 Q 0.6920000000000001 -0.248 0.713 -0.41600000000000004 Q 0.717 -0.447 0.717 -0.467 Q 0.717 -0.601 0.612 -0.639 Q 0.578 -0.652 0.536 -0.652 L 0.429 -0.652 Q 0.393 -0.652 0.385 -0.642 L 0.385 -0.642 L 0.385 -0.641 L 0.384 -0.641 L 0.384 -0.64 Q 0.38 -0.634 0.375 -0.614 Z"/></g></g><path fill="rgb(255,255,255)" stroke="none" paint-order="stroke fill markers" fill-rule="evenodd" d=" M 37.5 109 L 166.5 109 C 168.43299662440776 109 170 110.56700337559222 170 112.5 L 170 140.5 C 170 142.43299662440776 168.43299662440776 144 166.5 144 L 37.5 144 C 35.56700337559222 144 34 142.43299662440776 34 140.5 L 34 112.5 C 34 110.56700337559222 35.56700337559222 109 37.5 109 Z" fill-opacity="1"/><path fill="none" stroke="rgb(179,179,179)" paint-order="fill stroke markers" d=" M 37.5 109 L 166.5 109 C 168.43299662440776 109 170 110.56700337559222 170 112.5 L 170 140.5 C 170 142.43299662440776 168.43299662440776 144 166.5 144 L 37.5 144 C 35.56700337559222 144 34 142.43299662440776 34 140.5 L 34 112.5 C 34 110.56700337559222 35.56700337559222 109 37.5 109 Z" stroke-opacity="1" stroke-linecap="round" stroke-linejoin="round" stroke-miterlimit="10"/><text fill="rgb(0,0,0)" stroke="none" font-family="geogebra-sans-serif, sans-serif" font-size="24px" font-style="normal" font-weight="normal" text-decoration="normal" x="44" y="136" text-anchor="start" dominant-baseline="alphabetic" fill-opacity="1">Show SVG</text><path fill="rgb(255,255,255)" stroke="none" paint-order="stroke fill markers" fill-rule="evenodd" d=" M 204.5 106 L 380.5 106 C 382.4329966244078 106 384 107.56700337559222 384 109.5 L 384 137.5 C 384 139.43299662440776 382.4329966244078 141 380.5 141 L 204.5 141 C 202.56700337559224 141 201 139.43299662440776 201 137.5 L 201 109.5 C 201 107.56700337559222 202.56700337559224 106 204.5 106 Z" fill-opacity="1"/><path fill="none" stroke="rgb(179,179,179)" paint-order="fill stroke markers" d=" M 204.5 106 L 380.5 106 C 382.4329966244078 106 384 107.56700337559222 384 109.5 L 384 137.5 C 384 139.43299662440776 382.4329966244078 141 380.5 141 L 204.5 141 C 202.56700337559224 141 201 139.43299662440776 201 137.5 L 201 109.5 C 201 107.56700337559222 202.56700337559224 106 204.5 106 Z" stroke-opacity="1" stroke-linecap="round" stroke-linejoin="round" stroke-miterlimit="10"/><text fill="rgb(0,0,0)" stroke="none" font-family="geogebra-sans-serif, sans-serif" font-size="24px" font-style="normal" font-weight="normal" text-decoration="normal" x="211" y="133" text-anchor="start" dominant-baseline="alphabetic" fill-opacity="1">Download SVG</text><path fill="rgb(255,255,255)" stroke="none" paint-order="stroke fill markers" fill-rule="evenodd" d=" M 212 30 L 722 30 C 724.2091389993232 30 726 31.790861000676827 726 34 L 726 75 C 726 77.20913899932317 724.2091389993232 79 722 79 L 212 79 C 209.7908610006768 79 208 77.20913899932317 208 75 L 208 34 C 208 31.790861000676827 209.7908610006768 30 212 30 Z" fill-opacity="1"/><path fill="none" stroke="rgb(148,148,148)" paint-order="fill stroke markers" d=" M 212 30 L 722 30 C 724.2091389993232 30 726 31.790861000676827 726 34 L 726 75 C 726 77.20913899932317 724.2091389993232 79 722 79 L 212 79 C 209.7908610006768 79 208 77.20913899932317 208 75 L 208 34 C 208 31.790861000676827 209.7908610006768 30 212 30 Z" stroke-opacity="1" stroke-linecap="round" stroke-linejoin="round" stroke-miterlimit="10"/><text fill="rgb(0,0,0)" stroke="none" font-family="geogebra-sans-serif, sans-serif" font-size="32px" font-style="normal" font-weight="normal" text-decoration="normal" x="210" y="66" text-anchor="start" dominant-baseline="alphabetic" fill-opacity="1">$D$</text><text fill="rgb(0,0,0)" stroke="none" font-family="geogebra-sans-serif, sans-serif" font-size="32px" font-style="normal" font-weight="normal" text-decoration="normal" x="30" y="66" text-anchor="start" dominant-baseline="alphabetic" fill-opacity="1">Enter LaTeX</text></g></g></g></g></svg>